<svg width="299" height="104" viewBox="0 0 299 104" fill="none" xmlns="http://www.w3.org/2000/svg">
<path d="M103.859 24.7859H104.678C105.996 27.4881 107.814 32.1081 110.132 38.6457C111.627 42.8349 112.652 45.4045 113.208 46.3545C113.764 47.3045 114.658 47.8325 115.888 47.9387C116.278 47.9741 116.473 48.1038 116.473 48.3282C116.473 48.4934 116.373 48.5761 116.173 48.5761L115.925 48.5584C114.839 48.4638 113.458 48.4167 111.782 48.4167C109.21 48.4167 107.558 48.4579 106.826 48.5407C106.46 48.5407 106.278 48.4344 106.278 48.222C106.278 48.0684 106.413 47.9741 106.685 47.9387C107.688 47.8444 108.381 47.6731 108.764 47.4255C109.148 47.1776 109.34 46.7881 109.34 46.2572C109.34 45.7496 108.981 44.4812 108.262 42.4515L107.219 39.4067C106.605 39.4067 103.861 39.4422 98.9876 39.513C97.7583 42.7818 97.1439 44.8432 97.1439 45.6973C97.1439 46.4208 97.4478 46.9575 98.0556 47.3074C98.6631 47.6573 99.2622 47.8502 99.852 47.8856C100.289 47.9202 100.507 48.0523 100.507 48.282C100.507 48.3739 100.436 48.4601 100.295 48.5407C98.4065 48.4579 97.2679 48.4167 96.8783 48.4167C94.8959 48.4167 93.5622 48.4402 92.8778 48.4875C92.5002 48.4875 92.3115 48.3813 92.3115 48.1689C92.3115 47.9799 92.4767 47.8621 92.807 47.8148C94.1642 47.6377 95.2027 46.7173 95.9225 45.0536C96.6424 43.3896 97.7641 40.3982 99.2878 36.079C100.682 32.1493 102.206 28.385 103.859 24.7859ZM103.153 28.6445C102.054 30.8867 100.772 34.1436 99.3068 38.4155C100.522 38.3566 101.395 38.327 101.926 38.327L106.901 38.4155C106.465 37.1883 105.852 35.5598 105.062 33.53C104.096 31.1111 103.46 29.4825 103.153 28.6445Z" fill="#13264C"/>
<path d="M131.342 48.5053C130.175 48.6704 129.262 48.7529 128.602 48.7529C126.87 48.7529 125.155 48.2722 123.458 47.3103C121.761 46.3487 120.394 44.9767 119.356 43.1948C118.32 41.413 117.801 39.4068 117.801 37.1765C117.801 33.9076 118.953 31.0431 121.259 28.5827C123.564 26.1222 126.391 24.8921 129.74 24.8921C131.886 24.8921 133.811 25.4143 135.515 26.4586C137.219 27.5029 138.563 28.9397 139.548 30.7688C140.532 32.5977 141.025 34.4684 141.025 36.38C141.025 37.9378 140.676 39.5336 139.98 41.168C139.284 42.8024 138.369 44.1921 137.237 45.3366C136.104 46.4813 134.803 47.4696 133.334 48.3015C131.864 49.1336 130.133 49.9272 128.138 50.6824C126.64 51.2606 125.583 51.6972 124.97 51.9923C125.455 51.9569 125.833 51.9392 126.105 51.9392C126.968 51.9392 127.731 52.0748 128.393 52.3462C129.055 52.6178 130.129 53.2195 131.614 54.1518C133.536 55.332 134.993 55.9218 135.983 55.9218C136.726 55.9218 137.351 55.7566 137.858 55.4263C138.365 55.0957 138.966 54.4998 139.662 53.6384C139.851 53.4024 140.022 53.2845 140.175 53.2845C140.399 53.2845 140.511 53.3966 140.511 53.6207C140.511 54.0575 139.875 54.907 138.601 56.1697C137.327 57.4323 135.759 58.0638 133.896 58.0638C132.953 58.0638 131.954 57.8366 130.898 57.3823C129.843 56.9278 128.302 55.9633 126.274 54.4882C125.119 53.6622 124.182 53.2491 123.463 53.2491C122.744 53.2491 122.234 53.4645 121.933 53.8952C121.633 54.326 121.429 55.0249 121.323 55.9926C121.264 56.6535 121.137 57.1196 120.943 57.391C120.748 57.6624 120.415 57.7982 119.943 57.7982C119.636 57.7982 119.35 57.6801 119.084 57.4441C118.819 57.2082 118.686 56.9072 118.686 56.5415C118.686 55.9633 119.004 55.2699 119.641 54.4615C120.278 53.6532 121.122 52.96 122.172 52.3816C123.221 51.8034 124.9 51.0717 127.208 50.1867C129.34 49.3725 130.718 48.812 131.342 48.5053ZM121.766 36.2915C121.766 38.2385 122.049 40.1475 122.615 42.0178C123.18 43.8882 124.059 45.325 125.249 46.3278C126.439 47.3309 127.819 47.8325 129.386 47.8325C131.673 47.8325 133.524 46.7556 134.938 44.602C136.352 42.4486 137.06 39.814 137.06 36.6987C137.06 33.7602 136.358 31.2054 134.956 29.034C133.553 26.8627 131.673 25.7771 129.315 25.7771C127.005 25.7771 125.169 26.8568 123.808 29.0163C122.447 31.1758 121.766 33.6008 121.766 36.2915Z" fill="#13264C"/>
<path d="M143.591 25.2459H152.459C152.967 25.2459 153.22 25.3522 153.22 25.5646C153.22 25.7771 153.032 25.901 152.654 25.9364C151.816 26.0189 151.197 26.249 150.795 26.6267C150.394 27.0043 150.09 27.671 149.884 28.6268C149.677 29.5829 149.574 31.6303 149.574 34.7691C149.574 38.5336 149.683 41.1416 149.902 42.5931C150.12 44.0444 150.804 45.1981 151.955 46.0535C153.105 46.9091 154.672 47.337 156.654 47.337C158.731 47.337 160.313 46.9417 161.398 46.151C162.484 45.3604 163.189 44.186 163.514 42.6285C163.838 41.0707 164 37.6899 164 32.4857C164 29.807 163.723 28.0515 163.168 27.2196C162.614 26.3878 161.794 25.9718 160.708 25.9718C160.271 25.9718 160.053 25.8479 160.053 25.6C160.053 25.3641 160.342 25.2459 160.92 25.2459H168.001C168.32 25.2459 168.479 25.3641 168.479 25.6C168.479 25.7652 168.349 25.8656 168.089 25.901C167.193 26.0308 166.535 26.3141 166.116 26.7506C165.697 27.1871 165.422 27.9778 165.293 29.1225C165.163 30.2673 165.098 31.9487 165.098 34.1674C165.098 36.9405 164.995 39.2947 164.788 41.2301C164.582 43.1655 164.136 44.608 163.452 45.558C162.767 46.508 161.738 47.2749 160.363 47.8591C158.988 48.4431 157.298 48.7351 155.292 48.7351C153.238 48.7351 151.489 48.4075 150.043 47.7521C148.598 47.0965 147.618 46.2284 147.105 45.1479C146.591 44.0674 146.335 42.4523 146.335 40.3028L146.406 35.3962C146.406 31.0381 146.22 28.3721 145.848 27.3978C145.476 26.4235 144.677 25.9245 143.45 25.901C143.048 25.901 142.848 25.8032 142.848 25.608C142.848 25.3667 143.096 25.2459 143.591 25.2459Z" fill="#13264C"/>
<path d="M178.752 24.7859H179.57C180.888 27.4881 182.707 32.1081 185.025 38.6457C186.52 42.8349 187.545 45.4045 188.101 46.3545C188.657 47.3045 189.55 47.8325 190.781 47.9387C191.171 47.9741 191.366 48.1038 191.366 48.3282C191.366 48.4934 191.266 48.5761 191.065 48.5761L190.817 48.5584C189.732 48.4638 188.351 48.4167 186.675 48.4167C184.103 48.4167 182.451 48.4579 181.719 48.5407C181.353 48.5407 181.17 48.4344 181.17 48.222C181.17 48.0684 181.306 47.9741 181.577 47.9387C182.58 47.8444 183.274 47.6731 183.657 47.4255C184.041 47.1776 184.233 46.7881 184.233 46.2572C184.233 45.7496 183.873 44.4812 183.154 42.4515L182.111 39.4067C181.498 39.4067 178.754 39.4422 173.88 39.513C172.651 42.7818 172.037 44.8432 172.037 45.6973C172.037 46.4208 172.34 46.9575 172.948 47.3074C173.556 47.6573 174.155 47.8502 174.745 47.8856C175.181 47.9202 175.4 48.0523 175.4 48.282C175.4 48.3739 175.329 48.4601 175.187 48.5407C173.299 48.4579 172.16 48.4167 171.771 48.4167C169.789 48.4167 168.455 48.4402 167.771 48.4875C167.393 48.4875 167.204 48.3813 167.204 48.1689C167.204 47.9799 167.37 47.8621 167.7 47.8148C169.057 47.6377 170.095 46.7173 170.815 45.0536C171.535 43.3896 172.657 40.3982 174.181 36.079C175.575 32.1493 177.099 28.385 178.752 24.7859ZM178.046 28.6445C176.947 30.8867 175.665 34.1436 174.199 38.4155C175.415 38.3566 176.288 38.327 176.819 38.327L181.794 38.4155C181.358 37.1883 180.745 35.5598 179.955 33.53C178.989 31.1111 178.352 29.4825 178.046 28.6445Z" fill="#13264C"/>
<path d="M200.376 25.2637L204.022 25.1928C208.636 25.1928 212.124 26.3141 214.484 28.5563C216.844 30.7982 218.024 33.6246 218.024 37.0348C218.024 39.454 217.457 41.5575 216.325 43.3454C215.192 45.1331 213.776 46.4813 212.076 47.3901C210.377 48.2986 208.111 48.7529 205.279 48.7529C204.642 48.7529 203.834 48.7174 202.854 48.6469C201.108 48.5052 200.128 48.4344 199.916 48.4344C196.045 48.4344 193.768 48.4756 193.083 48.5584C192.694 48.5584 192.499 48.4595 192.499 48.2621C192.499 48.1242 192.57 48.0322 192.711 47.9863C192.853 47.9403 193.29 47.8713 194.021 47.7793C194.965 47.6493 195.629 47.2714 196.013 46.6457C196.396 46.0197 196.635 44.0711 196.729 40.7996L197.013 31.4284C197.013 30.3418 196.939 29.2935 196.792 28.2838C196.644 27.2741 196.414 26.6246 196.101 26.3349C195.788 26.0456 195.29 25.8479 194.605 25.7417C194.11 25.6709 193.862 25.535 193.862 25.3345C193.862 25.0866 193.986 24.9629 194.234 24.9629C194.47 24.9629 195.193 25.0129 196.402 25.1133C197.612 25.2137 198.936 25.2637 200.376 25.2637ZM199.756 42.3629C199.756 43.9207 199.86 45.0327 200.066 45.6997C200.273 46.3664 200.715 46.915 201.394 47.3457C202.072 47.7764 203.161 47.9918 204.66 47.9918C206.807 47.9918 208.548 47.4844 209.881 46.4694C211.215 45.4547 212.256 44.1036 213.006 42.4161C213.755 40.7285 214.13 38.9348 214.13 37.0348C214.13 34.2263 213.274 31.6834 211.563 29.4058C209.852 27.1282 207.191 25.9896 203.58 25.9896C201.975 25.9896 201.04 26.0427 200.774 26.1489C200.509 26.2549 200.376 26.5677 200.376 27.087C200.376 27.5471 200.335 28.3673 200.252 29.5475C200.134 31.2704 200.057 32.6154 200.022 33.5831L199.863 38.4509C199.792 40.7285 199.756 42.0324 199.756 42.3629Z" fill="#13264C"/>
<path d="M221.457 25.2459H230.326C230.833 25.2459 231.087 25.3522 231.087 25.5646C231.087 25.7771 230.898 25.901 230.52 25.9364C229.682 26.0189 229.063 26.249 228.662 26.6267C228.26 27.0043 227.957 27.671 227.75 28.6268C227.543 29.5829 227.44 31.6303 227.44 34.7691C227.44 38.5336 227.55 41.1416 227.768 42.5931C227.986 44.0444 228.671 45.1981 229.821 46.0535C230.972 46.9091 232.538 47.337 234.521 47.337C236.598 47.337 238.179 46.9417 239.264 46.151C240.35 45.3604 241.055 44.186 241.38 42.6285C241.704 41.0707 241.867 37.6899 241.867 32.4857C241.867 29.807 241.589 28.0515 241.035 27.2196C240.48 26.3878 239.66 25.9718 238.574 25.9718C238.138 25.9718 237.919 25.8479 237.919 25.6C237.919 25.3641 238.208 25.2459 238.787 25.2459H245.867C246.186 25.2459 246.345 25.3641 246.345 25.6C246.345 25.7652 246.215 25.8656 245.956 25.901C245.059 26.0308 244.401 26.3141 243.982 26.7506C243.563 27.1871 243.288 27.9778 243.159 29.1225C243.029 30.2673 242.964 31.9487 242.964 34.1674C242.964 36.9405 242.861 39.2947 242.654 41.2301C242.448 43.1655 242.002 44.608 241.318 45.558C240.634 46.508 239.604 47.2749 238.229 47.8591C236.854 48.4431 235.164 48.7351 233.158 48.7351C231.104 48.7351 229.355 48.4075 227.909 47.7521C226.464 47.0965 225.484 46.2284 224.971 45.1479C224.458 44.0674 224.201 42.4523 224.201 40.3028L224.272 35.3962C224.272 31.0381 224.086 28.3721 223.714 27.3978C223.342 26.4235 222.543 25.9245 221.316 25.901C220.914 25.901 220.714 25.8032 220.714 25.608C220.714 25.3667 220.962 25.2459 221.457 25.2459Z" fill="#13264C"/>
<path d="M266.859 26.7152C267.509 26.137 267.881 25.7475 267.975 25.5469C268.093 25.2637 268.264 25.122 268.489 25.122C268.725 25.122 268.854 25.3345 268.878 25.7594L269.267 31.9371C269.267 32.2909 269.253 32.5063 269.223 32.5832C269.194 32.6598 269.108 32.6982 268.967 32.6982C268.778 32.6982 268.577 32.4445 268.365 31.9371C267.586 30.0559 266.5 28.5158 265.108 27.3172C263.703 26.1251 262.181 25.5292 260.541 25.5292C259.101 25.5292 257.78 25.9925 256.576 26.9187C255.372 27.8451 254.437 29.1669 253.77 30.8838C253.104 32.6009 252.77 34.4446 252.77 36.4154C252.77 39.7667 253.694 42.4898 255.541 44.5843C257.388 46.679 259.451 47.7262 261.729 47.7262C263.276 47.7262 264.698 47.2366 265.996 46.2572C267.295 45.2777 268.275 44.1448 268.936 42.8584C269.113 42.5046 269.295 42.3275 269.484 42.3275C269.744 42.3275 269.874 42.4692 269.874 42.7525C269.874 43.0947 269.425 43.8438 268.528 45.0005C267.631 46.1568 266.454 47.0949 264.996 47.8148C263.538 48.5346 261.972 48.8945 260.296 48.8945C258.324 48.8945 256.45 48.3929 254.674 47.3901C252.898 46.387 251.49 45.0005 250.452 43.2302C249.413 41.4603 248.894 39.3832 248.894 36.9994C248.894 34.6629 249.399 32.5565 250.409 30.6803C251.418 28.8039 252.839 27.3465 254.669 26.308C256.5 25.2697 258.39 24.7505 260.339 24.7505C261.378 24.7505 262.441 24.9127 263.528 25.2372C264.615 25.5617 265.725 26.0543 266.859 26.7152Z" fill="#13264C"/>
<path d="M272.136 36.681C272.136 35.0878 272.62 33.3384 273.587 31.4326C274.555 29.5268 275.968 27.9543 277.826 26.7152C279.685 25.4761 281.783 24.8567 284.119 24.8567C287.388 24.8567 290.087 26.025 292.217 28.3615C294.348 30.698 295.412 33.3649 295.412 36.3623C295.412 39.5484 294.232 42.4071 291.872 44.9384C289.512 47.4696 286.674 48.7351 283.358 48.7351C280.184 48.7351 277.52 47.6261 275.366 45.4074C273.213 43.189 272.136 40.2801 272.136 36.681ZM276.083 36.1052C276.083 38.03 276.378 40.0053 276.967 42.0308C277.556 44.0563 278.482 45.5266 279.743 46.442C281.004 47.3571 282.354 47.8148 283.792 47.8148C286.114 47.8148 287.973 46.684 289.37 44.4223C290.767 42.1605 291.465 39.5418 291.465 36.5655C291.465 33.6841 290.752 31.1536 289.326 28.9748C287.899 26.7958 286.037 25.7063 283.739 25.7063C282.006 25.7063 280.562 26.2879 279.407 27.4511C278.252 28.6144 277.409 30.0051 276.879 31.6232C276.348 33.2412 276.083 34.735 276.083 36.1052Z" fill="#13264C"/>
<path d="M93.0106 84.1969L91.127 76.6553H92.6102L93.988 82.1737L95.2897 76.6553H96.5975L97.8303 82.1433L99.2789 76.6553H100.365L98.3889 84.1969H96.8874L95.7258 79.0246L94.5057 84.1969H93.0106Z" fill="#13264C"/>
<path d="M100.569 84.1969L103.506 76.6553H105.079L108.014 84.1969H106.401L105.618 82.184H102.496L101.712 84.1969H100.569ZM102.887 81.1801H105.227L104.057 78.1737L102.887 81.1801Z" fill="#13264C"/>
<path d="M110.955 84.1969V77.6946H108.254V76.6553H115.225V77.6946H112.524V84.1969H110.955Z" fill="#13264C"/>
<path d="M116.279 84.1969V76.6553H121.11V77.6946H117.849V79.7941H120.544V80.8337H117.849V83.1266H121.349V84.1969H116.279Z" fill="#13264C"/>
<path d="M122.547 84.1969V76.6553H125.37C125.947 76.6553 126.387 76.7275 126.69 76.8718C126.992 77.0163 127.231 77.2354 127.406 77.5292C127.581 77.8231 127.668 78.155 127.668 78.5255C127.668 78.967 127.541 79.384 127.286 79.7764C127.031 80.1686 126.671 80.4685 126.205 80.6757L128.674 84.1969H126.763L124.887 81.1141H124.025V84.1969H122.547ZM124.025 80.0795H124.386C125.034 80.0795 125.481 79.9387 125.728 79.6567C125.975 79.3748 126.098 79.0553 126.098 78.6985C126.098 78.3894 125.998 78.1441 125.797 77.9623C125.596 77.7805 125.188 77.6896 124.571 77.6896H124.025V80.0795Z" fill="#13264C"/>
<path d="M134.648 76.6553H133.079V84.1969H134.648V76.6553Z" fill="#13264C"/>
<path d="M136.539 84.1969V76.6553H137.922L141.41 81.807V76.6553H142.669V84.1969H141.261L137.798 79.0452V84.1969H136.539Z" fill="#13264C"/>
<path d="M144.56 84.1969V76.6553H149.258V77.6946H146.129V79.9828H148.692V81.0221H146.129V84.1969H144.56Z" fill="#13264C"/>
<path d="M150.552 84.1969V76.6553H153.375C153.952 76.6553 154.392 76.7275 154.695 76.8718C154.997 77.0163 155.236 77.2354 155.411 77.5292C155.586 77.8231 155.673 78.155 155.673 78.5255C155.673 78.967 155.546 79.384 155.291 79.7764C155.036 80.1686 154.676 80.4685 154.211 80.6757L156.68 84.1969H154.768L152.893 81.1141H152.03V84.1969H150.552ZM152.03 80.0795H152.391C153.039 80.0795 153.486 79.9387 153.733 79.6567C153.98 79.3748 154.104 79.0553 154.104 78.6985C154.104 78.3894 154.003 78.1441 153.802 77.9623C153.601 77.7805 153.192 77.6896 152.576 77.6896H152.03V80.0795Z" fill="#13264C"/>
<path d="M156.927 84.1969L159.863 76.6553H161.437L164.371 84.1969H162.759L161.975 82.184H158.853L158.069 84.1969H156.927ZM159.244 81.1801H161.584L160.415 78.1737L159.244 81.1801Z" fill="#13264C"/>
<path d="M165.013 84.1305V82.8359C165.602 83.083 166.042 83.2307 166.333 83.2788C166.624 83.3269 166.892 83.351 167.136 83.351C167.577 83.351 167.906 83.2524 168.123 83.055C168.34 82.8579 168.448 82.6216 168.448 82.3463C168.448 82.1354 168.387 81.9452 168.266 81.775C168.144 81.6085 167.847 81.3926 167.374 81.1273L166.865 80.8469C166.138 80.4421 165.646 80.0682 165.389 79.7249C165.128 79.3816 164.998 78.9839 164.998 78.5318C164.998 77.9642 165.215 77.4779 165.649 77.0734C166.083 76.6691 166.707 76.4667 167.52 76.4667C168.128 76.4667 168.812 76.5533 169.574 76.7267V77.9346C168.795 77.6457 168.175 77.5012 167.716 77.5012C167.337 77.5012 167.048 77.5837 166.85 77.7485C166.651 77.9134 166.552 78.1114 166.552 78.3426C166.552 78.5194 166.613 78.6843 166.734 78.8373C166.852 78.9903 167.147 79.1996 167.62 79.4646L168.166 79.7656C168.999 80.2312 169.53 80.6358 169.76 80.9785C169.986 81.3249 170.099 81.7137 170.099 82.1447C170.099 82.7625 169.863 83.2905 169.392 83.7283C168.921 84.1665 168.171 84.3853 167.142 84.3853C166.532 84.3853 165.823 84.3004 165.013 84.1305Z" fill="#13264C"/>
<path d="M173.274 84.1969V77.6946H170.573V76.6553H177.544V77.6946H174.843V84.1969H173.274Z" fill="#13264C"/>
<path d="M178.599 84.1969V76.6553H181.422C181.999 76.6553 182.439 76.7275 182.741 76.8718C183.044 77.0163 183.283 77.2354 183.457 77.5292C183.632 77.8231 183.72 78.155 183.72 78.5255C183.72 78.967 183.592 79.384 183.338 79.7764C183.083 80.1686 182.723 80.4685 182.257 80.6757L184.726 84.1969H182.815L180.939 81.1141H180.076V84.1969H178.599ZM180.076 80.0795H180.438C181.085 80.0795 181.533 79.9387 181.78 79.6567C182.027 79.3748 182.15 79.0553 182.15 78.6985C182.15 78.3894 182.05 78.1441 181.849 77.9623C181.648 77.7805 181.239 77.6896 180.623 77.6896H180.076V80.0795Z" fill="#13264C"/>
<path d="M185.737 76.6553H187.307V81.2806C187.307 82.1169 187.449 82.6711 187.732 82.943C188.016 83.2149 188.384 83.351 188.835 83.351C189.28 83.351 189.635 83.2167 189.898 82.948C190.161 82.6795 190.293 82.161 190.293 81.3926V76.6553H191.658V81.2872C191.658 82.1603 191.549 82.7863 191.33 83.1649C191.111 83.5436 190.794 83.8417 190.379 84.0592C189.965 84.2767 189.44 84.3853 188.805 84.3853C188.18 84.3853 187.643 84.2843 187.195 84.0822C186.746 83.88 186.391 83.5793 186.13 83.1803C185.868 82.781 185.737 82.1449 185.737 81.2718V76.6553Z" fill="#13264C"/>
<path d="M199.553 83.9012C199.223 84.0457 198.936 84.1451 198.691 84.1987C198.447 84.2526 198.169 84.297 197.858 84.3324C197.547 84.3678 197.241 84.3853 196.938 84.3853C195.62 84.3853 194.637 84.0135 193.988 83.2693C193.339 82.5255 193.015 81.5776 193.015 80.426C193.015 79.2677 193.338 78.318 193.986 77.5776C194.633 76.8369 195.649 76.4667 197.035 76.4667C197.854 76.4667 198.669 76.5636 199.481 76.7571V77.9853C199.09 77.8492 198.771 77.7499 198.523 77.6872C198.275 77.6243 198.04 77.5776 197.817 77.5469C197.595 77.5165 197.373 77.5012 197.152 77.5012C196.286 77.5012 195.658 77.7797 195.267 78.3368C194.876 78.8938 194.681 79.5835 194.681 80.4056C194.681 81.2684 194.903 81.9666 195.346 82.5001C195.789 83.0333 196.449 83.3 197.326 83.3C198.056 83.3 198.798 83.1147 199.553 82.7445V83.9012Z" fill="#13264C"/>
<path d="M202.792 84.1969V77.6946H200.092V76.6553H207.063V77.6946H204.362V84.1969H202.792Z" fill="#13264C"/>
<path d="M208.057 76.6553H209.626V81.2806C209.626 82.1169 209.768 82.6711 210.052 82.943C210.335 83.2149 210.703 83.351 211.155 83.351C211.6 83.351 211.954 83.2167 212.217 82.948C212.481 82.6795 212.612 82.161 212.612 81.3926V76.6553H213.978V81.2872C213.978 82.1603 213.868 82.7863 213.649 83.1649C213.43 83.5436 213.113 83.8417 212.699 84.0592C212.284 84.2767 211.76 84.3853 211.124 84.3853C210.499 84.3853 209.962 84.2843 209.514 84.0822C209.066 83.88 208.711 83.5793 208.449 83.1803C208.187 82.781 208.057 82.1449 208.057 81.2718V76.6553Z" fill="#13264C"/>
<path d="M215.802 84.1969V76.6553H218.625C219.202 76.6553 219.642 76.7275 219.944 76.8718C220.247 77.0163 220.485 77.2354 220.66 77.5292C220.835 77.8231 220.923 78.155 220.923 78.5255C220.923 78.967 220.795 79.384 220.541 79.7764C220.286 80.1686 219.926 80.4685 219.46 80.6757L221.929 84.1969H220.018L218.142 81.1141H217.279V84.1969H215.802ZM217.279 80.0795H217.641C218.288 80.0795 218.736 79.9387 218.983 79.6567C219.23 79.3748 219.353 79.0553 219.353 78.6985C219.353 78.3894 219.253 78.1441 219.052 77.9623C218.851 77.7805 218.442 77.6896 217.826 77.6896H217.279V80.0795Z" fill="#13264C"/>
<path d="M223.002 84.1969V76.6553H227.832V77.6946H224.571V79.7941H227.267V80.8337H224.571V83.1266H228.072V84.1969H223.002Z" fill="#13264C"/>
<path d="M234.478 84.1969V77.6946H231.777V76.6553H238.748V77.6946H236.047V84.1969H234.478Z" fill="#13264C"/>
<path d="M239.802 84.1969V76.6553H242.625C243.202 76.6553 243.642 76.7275 243.944 76.8718C244.247 77.0163 244.485 77.2354 244.66 77.5292C244.835 77.8231 244.923 78.155 244.923 78.5255C244.923 78.967 244.795 79.384 244.541 79.7764C244.286 80.1686 243.926 80.4685 243.46 80.6757L245.929 84.1969H244.018L242.142 81.1141H241.279V84.1969H239.802ZM241.279 80.0795H241.64C242.288 80.0795 242.736 79.9387 242.983 79.6567C243.23 79.3748 243.353 79.0553 243.353 78.6985C243.353 78.3894 243.253 78.1441 243.052 77.9623C242.851 77.7805 242.442 77.6896 241.826 77.6896H241.279V80.0795Z" fill="#13264C"/>
<path d="M247.003 84.1969V76.6553H251.833V77.6946H248.572V79.7941H251.268V80.8337H248.572V83.1266H252.073V84.1969H247.003Z" fill="#13264C"/>
<path d="M252.443 84.1969L255.38 76.6553H256.953L259.888 84.1969H258.275L257.492 82.184H254.37L253.586 84.1969H252.443ZM254.761 81.1801H257.101L255.931 78.1737L254.761 81.1801Z" fill="#13264C"/>
<path d="M262.829 84.1969V77.6946H260.128V76.6553H267.099V77.6946H264.398V84.1969H262.829Z" fill="#13264C"/>
<path d="M268.153 84.1969V76.6553H270.228L272.049 81.96L273.923 76.6553H275.746V84.1969H274.299V78.5051L272.456 83.6924H271.194L269.387 78.4285V84.1969H268.153Z" fill="#13264C"/>
<path d="M277.627 84.1969V76.6553H282.458V77.6946H279.196V79.7941H281.892V80.8337H279.196V83.1266H282.697V84.1969H277.627Z" fill="#13264C"/>
<path d="M283.896 84.1969V76.6553H285.279L288.767 81.807V76.6553H290.026V84.1969H288.618L285.154 79.0452V84.1969H283.896Z" fill="#13264C"/>
<path d="M293.791 84.1969V77.6946H291.091V76.6553H298.062V77.6946H295.361V84.1969H293.791Z" fill="#13264C"/>
<path fill-rule="evenodd" clip-rule="evenodd" d="M35.5386 57.4513C35.8715 57.4513 36.1413 57.1815 36.1413 56.8485L36.385 47.309L40.7538 47.4115C41.3014 47.4115 41.7453 46.9676 41.7453 46.42L42.23 21.9703C42.2701 18.8056 41.0104 15.9279 38.9583 13.8321C36.8915 11.7215 34.0072 10.4229 30.8201 10.3962H30.8198C27.6236 10.3957 24.7203 11.6816 22.6348 13.7853C20.5554 15.8829 19.2857 18.7831 19.3139 21.9703C19.3914 27.0947 19.4709 33.4943 19.5771 39.4094C19.7449 48.7357 19.941 56.8485 19.941 56.8485C19.941 57.3707 20.3641 57.794 20.8862 57.794L35.5386 57.4513ZM34.9202 56.2315L21.8534 55.926C21.9089 53.5469 22.0611 46.8658 22.1951 39.4094C22.3016 33.4943 22.3811 27.0947 22.4583 21.9703C22.4789 19.6707 23.4429 17.6072 24.9565 16.1068C26.4638 14.6127 28.5298 13.6772 30.8198 13.6767H30.8201C33.1193 13.6577 35.2077 14.5691 36.7303 16.06C38.268 17.5657 39.2479 19.6483 39.2775 21.9703L39.7431 45.4521L35.5386 45.5509C35.0587 45.5509 34.6697 45.9399 34.6697 46.42L34.9202 56.2315ZM70.5267 24.2714C70.5716 22.8656 70.327 21.483 69.8397 20.1918C69.3466 18.8856 68.5903 17.6836 67.6165 16.6456C66.6298 15.5981 65.4504 14.7778 64.1622 14.1999C62.861 13.6164 61.4438 13.3017 59.9904 13.261H59.9902C58.5225 13.2201 57.0802 13.4835 55.7349 13.9983C54.3769 14.5181 53.1301 15.3158 52.0549 16.3361C50.9736 17.3683 50.129 18.6 49.5384 19.9424C48.9436 21.2946 48.6289 22.7659 48.5982 24.2714C48.5398 28.6461 48.4365 33.7515 48.4143 38.0355C48.3876 43.2289 48.442 47.2117 48.442 47.2117C48.442 48.1033 49.165 48.8263 50.0566 48.8263L69.9242 48.4521C70.6092 48.4521 71.1646 47.8969 71.1646 47.2117L70.5267 24.2714ZM69.3215 24.2714L68.7187 45.9486L51.6873 45.6281C51.7008 43.9981 51.7153 41.2486 51.6987 38.0355C51.6768 33.7515 51.5734 28.6461 51.5148 24.2714C51.492 23.142 51.6852 22.0308 52.0869 20.9978C52.4928 19.9545 53.0895 18.9839 53.8772 18.1587C54.6715 17.3213 55.6088 16.6514 56.6426 16.1897C57.689 15.7225 58.8224 15.4474 59.9902 15.4147H59.9904C61.1727 15.3816 62.3373 15.5753 63.4218 15.9881C64.5197 16.4062 65.5408 17.0279 66.4128 17.8492C67.2981 18.6798 68.0058 19.6631 68.4965 20.7484C68.9935 21.8482 69.2824 23.0418 69.3215 24.2714Z" fill="#00254E"/>
<path fill-rule="evenodd" clip-rule="evenodd" d="M2.87507 62.9271L2.83385 56.6963L11.3758 56.6353C12.1002 56.6353 12.6873 56.0478 12.6873 55.3235L12.4035 21.3939C12.3758 18.4216 11.1137 15.7397 9.07974 13.8241C7.30078 12.1485 4.9381 11.0532 2.31856 10.8724L2.23188 1.55698L75.4768 0.782718L1.44203 0C1.00971 0 0.659312 0.3504 0.659312 0.782718L0.557574 11.7305C0.557574 12.2188 0.95369 12.6149 1.44203 12.6149H1.44229C3.91227 12.6379 6.14071 13.6246 7.75583 15.2035C9.37782 16.7891 10.3706 18.981 10.3482 21.3939L10.0752 54.0025L1.44203 53.9409C0.678338 53.9409 0.0594566 54.5598 0.0594566 55.3235L0 64.2888C0 65.085 0.645571 65.7308 1.44203 65.7308H1.44229C3.78014 65.7462 5.88809 66.7123 7.41019 68.2545C8.92277 69.7871 9.84634 71.8988 9.83101 74.2224L9.72293 102.078C9.72293 102.991 10.4628 103.731 11.3758 103.731L21.0599 103.743C21.9795 103.743 22.7247 102.997 22.7247 102.078L22.7041 73.0319C22.7017 72.0901 22.8854 71.1668 23.2371 70.3122C23.5891 69.4568 24.1068 68.6691 24.7721 68.0008C25.4381 67.3317 26.2226 66.8077 27.0772 66.4509C27.9331 66.0939 28.8578 65.9013 29.8033 65.8984H29.8038C30.7506 65.8949 31.6789 66.0776 32.5383 66.4301C33.3992 66.7831 34.1922 67.3021 34.8653 67.9704C35.5397 68.6397 36.0687 69.4283 36.4286 70.2879C36.7888 71.1491 36.9833 72.0803 36.9867 73.0319L37.1149 102.078C37.1149 102.869 37.7562 103.51 38.5471 103.51L50.3661 103.448C51.1229 103.448 51.7365 102.835 51.7365 102.078L51.5576 73.0319C51.5508 72.0291 51.7405 71.0447 52.111 70.133C52.4823 69.2187 53.0298 68.3752 53.7364 67.6591C54.4451 66.9406 55.2807 66.3754 56.1926 65.9903C57.1075 65.6043 58.0971 65.3939 59.1095 65.3871H59.11C60.1252 65.3799 61.1215 65.5728 62.0445 65.9473C62.9705 66.323 63.8248 66.8766 64.5504 67.5915C65.2785 68.3086 65.8516 69.1542 66.2422 70.0778C66.6341 71.0043 66.8478 72.0066 66.8555 73.0319L67.0743 102.078C67.0743 102.508 67.4234 102.857 67.8531 102.857C68.283 102.857 68.6321 102.508 68.6321 102.078L68.8509 73.0319C68.8604 71.7386 68.6099 70.4702 68.1332 69.2946C67.6551 68.1155 66.9443 67.0315 66.0342 66.1077C65.1217 65.1812 64.0423 64.4577 62.8671 63.9611C61.6894 63.4633 60.4135 63.1993 59.11 63.1906H59.1095C57.8027 63.1816 56.5219 63.4355 55.3343 63.9181C54.1439 64.4017 53.0499 65.1202 52.1173 66.04C51.1829 66.962 50.4533 68.0526 49.9523 69.2391C49.4502 70.4282 49.1836 71.7162 49.1746 73.0319L49.0042 100.7L39.9855 100.653L40.1073 73.0319C40.1123 71.6649 39.8433 70.3251 39.3343 69.0842C38.8251 67.842 38.0715 66.7001 37.107 65.7287C36.1414 64.7563 35.0011 63.9973 33.761 63.4786C32.5193 62.9591 31.1758 62.684 29.8038 62.679H29.8033C28.4297 62.6748 27.0836 62.9451 25.8374 63.4575C24.5898 63.9701 23.444 64.7285 22.4694 65.6983C21.4944 66.6689 20.7333 67.8142 20.2138 69.0599C19.694 70.3067 19.4189 71.6551 19.4157 73.0319L19.3962 100.415L13.0224 100.423L12.9207 74.2224C12.9 71.0598 11.6089 68.2008 9.52263 66.142C7.76561 64.4083 5.45207 63.2347 2.87507 62.9271Z" fill="#00254E"/>
</svg>
