<svg width="125" height="125" viewBox="0 0 125 125" fill="none" xmlns="http://www.w3.org/2000/svg">
<path d="M122.083 47.1616C123.664 46.4309 124.39 44.9782 124.997 43.4534V41.2567C123.886 37.991 121.583 36.7618 118.182 36.825C111.32 36.9515 104.455 36.8515 97.5917 36.878C96.8362 36.8809 96.3365 36.6839 95.8457 36.0752C88.5413 26.9913 81.1957 17.9413 73.9002 8.85007C73.0375 7.77524 72.1336 7.18415 70.708 7.29884C69.2956 7.41206 67.8656 7.2812 66.4459 7.34001C65.6434 7.37383 65.107 7.13857 64.6073 6.48132C63.2802 4.73601 61.8825 3.0451 60.4833 1.35567C60.0762 0.863098 59.5721 0.449929 59.1121 0H4.9406C3.96766 0.588142 3.60318 1.4483 3.709 2.57165C3.77072 3.21714 3.68989 3.87438 3.72663 4.52281C3.8251 6.27106 3.67079 7.60615 1.91891 8.88388C-1.05428 11.0512 -0.428195 15.6578 2.8022 17.5207C3.50177 17.9236 3.74574 18.3147 3.74133 19.1117C3.70459 24.7667 3.71047 30.4231 3.73398 36.0781C3.73692 36.7897 3.59583 37.2103 2.89626 37.6058C-0.877922 39.7393 -0.892618 44.9179 2.85804 47.0896C3.515 47.4689 3.74133 47.8453 3.73839 48.5923C3.71194 58.5201 3.71635 68.448 3.73104 78.3758C3.73104 79.0345 3.60759 79.4374 2.95063 79.8123C-0.897027 82.0076 -0.919073 87.1612 2.91683 89.349C3.62522 89.7534 3.73398 90.1886 3.73398 90.8885C3.71782 101.385 3.72222 111.884 3.72369 122.381C3.72369 124.448 4.26307 124.993 6.30448 124.995C10.7371 124.998 15.1697 124.999 19.6038 124.995C21.41 124.992 22.0214 124.386 22.0229 122.585C22.0302 116.604 21.9994 110.622 22.042 104.642C22.0655 101.485 24.1774 98.7314 27.1609 97.7668C30.1077 96.8155 33.3248 97.8124 35.2545 100.269C36.4406 101.779 36.8536 103.522 36.8506 105.405C36.8433 110.979 36.8477 116.554 36.8492 122.128C36.8492 124.593 37.2607 124.995 39.7753 124.996C44.0859 124.996 48.3965 125.001 52.7086 124.995C54.5472 124.992 55.1439 124.376 55.1469 122.461C55.1557 116.562 55.1116 110.662 55.1704 104.763C55.2115 100.685 58.3596 97.5139 62.3043 97.4169C66.4047 97.3154 69.8159 100.44 69.8761 104.555C69.9629 110.413 69.907 116.273 69.9129 122.132C69.9144 124.517 70.3905 124.996 72.7538 124.998C77.1056 124.998 81.4573 125.002 85.8091 124.996C87.6198 124.993 88.2091 124.408 88.2106 122.582C88.2179 116.764 88.1885 110.946 88.2224 105.127C88.2473 100.909 91.2308 97.6433 95.1667 97.4257C99.4449 97.189 102.991 100.472 103.024 104.801C103.068 110.66 103.035 116.518 103.038 122.378C103.038 124.448 103.578 124.996 105.615 124.998C110.008 125.001 114.399 125.001 118.792 124.998C120.766 124.998 121.339 124.43 121.339 122.47C121.342 111.973 121.348 101.475 121.326 90.9782C121.324 90.1724 121.467 89.6696 122.288 89.2785C123.765 88.5756 124.424 87.1391 125 85.6937V83.497C124.356 81.8399 123.485 80.3946 121.789 79.5638C121.508 79.4256 121.358 78.7654 121.358 78.3464C121.333 70.0595 121.34 61.774 121.34 53.4871C121.34 51.8212 121.365 50.1553 121.327 48.4908C121.313 47.8556 121.454 47.4616 122.086 47.169L122.083 47.1616ZM7.48024 3.65971H8.72948C24.6169 3.65971 40.5058 3.66706 56.3932 3.6406C57.2911 3.63913 57.9187 3.84204 58.439 4.60368C59.0313 5.47119 59.7426 6.2593 60.5568 7.27237H7.48024V3.65971ZM3.73692 12.7421C3.73839 11.779 4.50263 11.0718 5.56816 10.9909C5.89149 10.9674 6.21924 10.9835 6.54404 10.9821C27.5254 10.9821 48.5068 10.9909 69.4867 10.9541C70.5434 10.9527 71.2327 11.2438 71.8117 12.0951C72.3717 12.9185 73.0389 13.6684 73.8135 14.6433H72.1571C52.7219 14.6433 33.2851 14.6433 13.8499 14.6433C11.954 14.6433 11.0883 15.1917 11.0487 16.4165C11.0075 17.6913 11.9187 18.3059 13.8572 18.3059C34.4315 18.3059 55.0058 18.3118 75.58 18.2853C76.4868 18.2853 77.0424 18.5573 77.6082 19.2661C82.0482 24.8269 86.5351 30.3496 91.0074 35.884C91.2073 36.131 91.3984 36.3869 91.7276 36.8089H7.3803V35.4576C7.3803 29.3556 7.38176 23.2537 7.3803 17.1517C7.3803 15.377 7.06578 15.0079 5.30656 14.6183C4.30716 14.3977 3.73545 13.7802 3.73839 12.7392L3.73692 12.7421ZM18.2869 121.27H7.47436V117.714H18.2869V121.27ZM51.4256 121.257H40.6013V117.742H51.4256V121.257ZM84.4967 121.254H73.6724V117.747H84.4967V121.254ZM106.676 104.542C106.589 99.7459 103.384 95.5936 98.7895 94.2159C91.6203 92.0663 84.673 97.3595 84.5584 105.083C84.5158 108.005 84.551 110.928 84.551 113.927H73.5695C73.5695 113.52 73.5695 113.095 73.5695 112.67C73.5607 109.863 73.6239 107.055 73.5254 104.251C73.3211 98.3917 68.3976 93.7395 62.5086 93.7469C56.6239 93.7542 51.7195 98.4211 51.5241 104.286C51.4329 107.049 51.4932 109.818 51.4844 112.584C51.4844 113.02 51.4844 113.457 51.4844 113.947H40.5028C40.5028 111.973 40.541 110.035 40.4925 108.1C40.444 106.195 40.5484 104.239 40.1604 102.396C39.0008 96.8993 33.8495 93.2293 28.3778 93.7822C22.7401 94.3527 18.4515 99.0049 18.3707 104.695C18.3281 107.74 18.3633 110.788 18.3633 114.005H7.45084V90.1813H117.582V113.926H106.688C106.688 110.781 106.732 107.661 106.676 104.542ZM117.628 121.253H106.764V117.768H117.628V121.253ZM121.326 84.5292C121.368 85.8026 120.453 86.4201 118.516 86.4201C81.1869 86.4201 43.8596 86.4201 6.53081 86.4201C4.59522 86.4201 3.68254 85.8011 3.7281 84.5248C3.77072 83.3044 4.63784 82.7589 6.53669 82.7589C25.2415 82.7589 43.9463 82.7589 62.6511 82.7589C81.3559 82.7589 99.8976 82.7589 118.522 82.7589C120.417 82.7589 121.286 83.3059 121.326 84.5292ZM106.695 71.7136C106.695 71.2402 106.704 70.7711 106.695 70.3021C106.627 67.0526 106.846 63.7663 106.42 60.5639C105.704 55.1809 100.766 51.3727 95.2431 51.5212C89.8846 51.6653 85.2991 55.8367 84.7039 61.2109C84.5261 62.8209 84.576 64.4589 84.5569 66.0836C84.5349 67.9127 84.551 69.7419 84.551 71.7136H73.5695C73.5695 69.6595 73.6048 67.6378 73.5592 65.6175C73.518 63.7928 73.6151 61.9255 73.255 60.1566C72.1512 54.7413 67.0808 51.0816 61.5959 51.5403C56.0801 52.002 51.696 56.5616 51.5226 62.1122C51.4373 64.8353 51.4932 67.5628 51.4873 70.2874C51.4873 70.727 51.4873 71.1666 51.4873 71.771H40.5675C40.5454 71.2931 40.516 70.8682 40.5087 70.4417C40.4587 67.3525 40.616 64.2442 40.325 61.1785C39.7797 55.4338 34.6549 51.258 28.807 51.5256C23.1972 51.783 18.5338 56.5057 18.3854 62.1563C18.3134 64.9206 18.3663 67.6878 18.3619 70.4535C18.3619 70.8505 18.3619 71.2475 18.3619 71.7063H7.47289V47.9247H117.604V71.7121H106.696L106.695 71.7136ZM117.58 75.4954V79.0125H106.752V75.4954H117.58ZM88.2238 62.7371C88.2694 59.0921 90.5401 56.1984 93.8689 55.3986C97.1875 54.6031 100.559 56.0617 102.115 59.0862C102.57 59.9684 102.962 61.0006 102.975 61.971C103.056 67.6201 103.015 73.2692 103.015 79.0066H88.2121C88.2121 77.3215 88.2121 75.7027 88.2121 74.0838C88.2121 70.3006 88.1768 66.5188 88.2238 62.7371ZM84.4849 75.5248V79.008H73.6415V75.5248H84.4849ZM69.8952 78.6375C69.8952 78.7493 69.8379 78.861 69.7924 79.0316H55.2586C55.2233 78.8492 55.1557 78.6625 55.1557 78.4758C55.1557 73.0707 55.1145 67.6657 55.1807 62.2622C55.2189 59.2038 57.178 56.6439 60.0453 55.6147C62.851 54.6075 65.9462 55.3589 67.9597 57.5614C69.0899 58.798 69.8467 60.2493 69.8614 61.9358C69.9114 67.5025 69.8923 73.0693 69.8952 78.636V78.6375ZM51.4256 75.5027V79.0227H40.5998V75.5027H51.4256ZM36.8418 78.3449C36.8418 78.5419 36.8124 78.739 36.7874 79.0521H22.1008C22.0728 78.789 22.0258 78.5581 22.0258 78.3287C22.0229 73.0413 21.992 67.7539 22.0376 62.4665C22.0684 58.751 24.8417 55.7073 28.5175 55.2177C32.03 54.7487 35.4588 56.9777 36.4803 60.4492C36.6963 61.1815 36.8227 61.9666 36.8271 62.7283C36.8565 67.9348 36.8433 73.1399 36.8403 78.3464L36.8418 78.3449ZM18.3089 75.5189V79.0286H7.48024V75.5189H18.3089ZM118.513 44.1856C81.184 44.1856 43.8567 44.1856 6.52787 44.1856C4.63637 44.1856 3.76779 43.6328 3.7281 42.408C3.68695 41.1361 4.59963 40.5244 6.5411 40.5244C25.2048 40.5244 43.8699 40.5244 62.5335 40.5244C81.1972 40.5244 99.8623 40.5244 118.526 40.5244C120.42 40.5244 121.289 41.0758 121.327 42.2992C121.367 43.5725 120.451 44.1856 118.513 44.1856Z" fill="#13264C"/>
<path d="M59.2238 33.1962C60.3599 33.2124 61.4974 33.1991 62.6335 33.1991C63.7299 33.1991 64.8263 33.2168 65.9227 33.1947C67.2807 33.1668 67.9758 32.5389 68.0023 31.1936C68.0464 28.8792 68.0449 26.5634 68.0038 24.2476C67.9802 22.889 67.2968 22.2347 65.9535 22.22C63.6799 22.195 61.4063 22.1965 59.1327 22.22C57.7717 22.2332 57.081 22.8699 57.0545 24.2167C57.0119 26.5311 57.0119 28.8469 57.0531 31.1627C57.078 32.5669 57.7703 33.1756 59.2238 33.1962ZM60.7743 25.9709H64.3192V29.4439H60.7743V25.9709Z" fill="#13264C"/>
<path d="M26.0748 33.1947C28.3088 33.2153 30.5442 33.2153 32.7781 33.1947C34.1978 33.1815 34.8989 32.5184 34.9194 31.1186C34.9518 28.8439 34.9518 26.5664 34.9194 24.2917C34.9003 22.9346 34.2184 22.2421 32.8971 22.2244C30.5824 22.195 28.2661 22.195 25.9514 22.2244C24.6184 22.2406 23.982 22.9258 23.9555 24.2947C23.9349 25.3916 23.9511 26.4884 23.9511 27.5868C23.9511 28.7248 23.9394 29.8629 23.954 31.001C23.9732 32.5228 24.5963 33.1815 26.0778 33.1947H26.0748ZM27.6856 25.9444H31.2099V29.4483H27.6856V25.9444Z" fill="#13264C"/>
</svg>
