<svg width="126" height="125" viewBox="0 0 126 125" fill="none" xmlns="http://www.w3.org/2000/svg">
<path d="M26.8094 11.5667L26.8082 11.4972C26.7993 10.8852 27.0012 10.3377 27.377 9.95592C27.689 9.63907 28.0924 9.46478 28.5138 9.46478C28.7694 9.46478 29.0172 9.52823 29.2505 9.65325C29.655 9.87008 29.9879 10.2019 30.3092 10.5224C35.4994 15.7029 40.6693 20.8732 45.8356 26.0469C45.8998 26.1111 45.9725 26.1768 46.0457 26.2428C46.3275 26.4977 46.6189 26.7612 46.6522 27.0945C46.7163 27.7383 46.7078 28.5895 46.2999 28.9896C46.0763 29.2087 45.6863 29.3199 45.1407 29.3199C44.9171 29.3199 44.6701 29.3016 44.4062 29.2658C44.0711 29.2199 43.8087 28.9318 43.5549 28.6534C43.4904 28.5824 43.4266 28.5123 43.3635 28.4492C38.3189 23.4121 33.103 18.2033 27.8584 12.9337C27.5296 12.6034 27.268 12.2224 27.0583 11.916C26.981 11.8036 26.912 11.7025 26.8504 11.6211L26.8094 11.5667ZM125.249 108.114C125.253 108.577 125.008 109.04 124.479 109.573C120.004 114.07 115.214 118.865 109.834 124.231C109.315 124.748 108.828 125 108.344 125C107.889 125 107.449 124.781 106.996 124.332C106.531 123.87 106.063 123.41 105.594 122.95C103.855 121.243 102.057 119.478 100.438 117.608C97.8958 114.674 97.1565 111.193 98.2392 107.262C98.4022 106.67 98.4717 106.313 98.0037 105.847C88.552 96.4351 78.9625 86.8457 69.6881 77.5716L62.9077 70.7916C62.8398 70.7233 62.764 70.6625 62.6707 70.5867C62.6577 70.5763 62.6446 70.5651 62.6308 70.5543C62.5789 70.6005 62.5274 70.6461 62.4759 70.692C62.2755 70.8696 62.0788 71.0435 61.8934 71.2294L50.183 82.9375C42.5951 90.5247 35.0067 98.1123 27.4162 105.697C26.9743 106.138 26.753 106.398 26.9411 107.035C28.2007 111.303 27.28 115.118 24.2044 118.377C22.6399 120.034 20.987 121.658 19.389 123.228L18.3489 124.251C17.8394 124.754 17.3588 124.998 16.8784 124.998C16.4172 124.998 15.9686 124.775 15.5066 124.316C11.124 119.958 6.68517 115.511 2.3926 111.211L0.594138 109.409C0.446723 109.261 0.32394 109.095 0.205261 108.934C0.15264 108.863 0.100391 108.792 0.0459039 108.724L0.000373202 108.666V107.53L0.0623248 107.468C0.79828 106.731 1.52602 105.984 2.25377 105.237C3.87832 103.571 5.5581 101.848 7.31253 100.26C9.3114 98.4523 11.6708 97.5353 14.3254 97.5353C15.3498 97.5353 16.4246 97.6745 17.5207 97.9488C17.7939 98.0171 18.0249 98.0499 18.2272 98.0499C18.7023 98.0499 19.08 97.8641 19.5308 97.4077C28.3178 88.5158 37.268 79.4906 45.9233 70.7625L53.4832 63.1387C53.6684 62.9521 53.8445 62.7566 53.9665 62.6196L44.0502 52.6887C43.4598 53.1657 43.0134 53.4385 42.5559 53.4385C41.9976 53.4385 41.4979 53.0417 40.7705 52.3092C40.1017 51.6355 39.44 50.9447 38.8003 50.2763C38.5585 50.024 38.3182 49.7729 38.0793 49.5247C38.0457 49.5482 38.0166 49.5684 37.9916 49.5859C37.9241 49.6325 37.8905 49.6538 37.8629 49.6811L35.8591 51.6803C34.8888 52.6491 33.9185 53.6183 32.9456 54.5849C31.5543 55.9673 30.1118 56.6685 28.6578 56.6685C27.1994 56.6685 25.7525 55.9628 24.3574 54.5708C21.2106 51.431 18.0678 48.2872 14.9251 45.1433C12.1828 42.3999 9.44053 39.6565 6.69562 36.916C3.87197 34.0969 2.03619 31.1165 1.08303 27.8039C0.727744 26.569 0.51166 25.2781 0.302667 24.0297C0.2075 23.4602 0.111961 22.8911 0.00373202 22.3253L0 22.3056V20.3138L0.00447843 20.2925C0.12241 19.7185 0.223921 19.127 0.322447 18.5552C0.536292 17.311 0.757601 16.0242 1.16253 14.8124C4.17091 5.81487 12.1324 0 21.4457 0C27.0467 0 32.4134 2.22727 36.5578 6.27166C41.3881 10.986 46.1737 15.9063 50.8014 20.665C52.186 22.0887 53.5709 23.5129 54.9589 24.9336C57.3116 27.3419 57.2821 30.4847 54.8835 32.9396C53.684 34.1674 52.4566 35.3785 51.1567 36.6604C50.5977 37.2116 50.0233 37.7781 49.4284 38.3682C49.7005 38.6085 49.9692 38.8421 50.2338 39.072C50.935 39.6819 51.5975 40.2577 52.2341 40.875C53.8035 42.3969 53.8676 42.8123 52.5741 44.5801L53.958 45.9558C55.1347 47.1254 56.3177 48.301 57.4978 49.4795C58.6894 50.6697 59.8781 51.8628 61.0275 53.0167L62.3069 54.3002L91.6215 25.5752C90.0671 23.3177 89.978 23.1251 91.0393 21.6472C90.6296 21.2949 90.2228 20.9381 89.8156 20.5802C88.8393 19.723 87.8294 18.8366 86.7893 18.0264C80.0855 12.8057 72.7091 8.46423 64.8655 5.12257C64.8058 5.0972 64.7469 5.06958 64.6875 5.04271C64.6021 5.00315 64.5166 4.96359 64.4289 4.93038C63.4571 4.56613 62.9868 3.81562 63.1033 2.81656C63.2242 1.77682 64.0568 1.51781 64.8271 1.35659C66.4535 1.01623 68.1479 0.84381 69.8635 0.84381C72.4162 0.84381 75.0584 1.2103 77.9418 1.96454C84.7195 3.73725 91.0031 7.19907 97.1509 12.5482C97.5667 12.9102 97.9772 13.2785 98.3828 13.642L98.8068 14.022C99.7006 13.3371 100.214 12.9803 100.751 12.9803C101.292 12.9803 101.762 13.3379 102.562 14.0246C103.864 12.6329 105.661 11.1043 108.147 11.1043C108.392 11.1043 108.644 11.1192 108.896 11.1483C110.485 11.3323 111.824 11.9962 112.875 13.1214C114.273 14.6172 114.847 16.4467 114.581 18.559C114.331 20.5541 113.058 21.898 111.81 23.1893C113.16 25.0426 113.16 25.2341 111.782 26.9437L112.071 27.2736C112.371 27.6173 112.675 27.967 112.988 28.31C118.903 34.8041 122.622 41.5617 124.358 48.969C125.368 53.2784 125.505 57.1791 124.775 60.8947C124.591 61.8281 124.314 62.7514 123.134 62.8928C123.049 62.9029 122.966 62.9081 122.887 62.9081C121.888 62.9081 121.429 62.1352 121.081 61.2996C118.489 55.0705 115.325 49.2702 111.677 44.0606C110.065 41.7576 108.288 39.5143 106.57 37.3449C105.827 36.4063 105.085 35.4695 104.355 34.5276C103.551 35.0403 103.041 35.3456 102.511 35.3456C101.789 35.3456 101.145 34.8142 99.6506 33.5367L70.5158 62.6719C70.7099 62.7913 70.9592 62.9503 71.1682 63.1593C83.8731 75.8485 94.4586 86.4258 105.371 97.3845C105.848 97.863 106.248 98.0582 106.753 98.0582C106.968 98.0582 107.212 98.0227 107.502 97.9507C108.538 97.6913 109.562 97.5596 110.544 97.5596C113.38 97.5596 115.977 98.6426 118.264 100.78C120.34 102.719 122.42 104.699 124.447 106.663C124.99 107.189 125.244 107.651 125.249 108.114ZM26.3742 51.7016L26.9004 52.227C27.6005 52.9261 28.1454 53.2377 28.6668 53.2377C29.1658 53.2377 29.7002 52.9387 30.3484 52.2965C37.3329 45.378 44.5693 38.1887 52.4711 30.3175C53.022 29.7689 53.294 29.2628 53.303 28.7698C53.312 28.2738 53.0541 27.7696 52.5148 27.2285C50.791 25.4994 49.0776 23.7588 47.3642 22.0182C42.8586 17.4405 38.1995 12.7068 33.4135 8.27427C29.9581 5.07406 26.0756 3.45137 21.8738 3.45137C19.4431 3.45137 16.9288 4.00707 14.4008 5.1028C7.69431 8.00967 3.94288 13.4248 3.55177 20.7627C3.6335 26.3593 5.33269 30.641 8.9005 34.223C14.7135 40.0603 20.6411 45.9785 26.3742 51.7016ZM47.237 49.9001L57.0033 59.6736L59.7907 56.9078L50.086 47.1981L47.237 49.9001ZM40.7895 47.1922L42.6678 49.0448L49.0608 42.6637L47.2661 40.722L40.7895 47.1922ZM102.35 30.8862L108.092 25.1072L100.527 17.5312L94.765 23.2986L102.35 30.8862ZM105.128 16.5321L109.225 20.6161C110.431 19.4931 111.415 18.3145 110.835 16.5179C110.5 15.4782 109.754 14.8605 108.618 14.6829C108.428 14.653 108.241 14.6381 108.063 14.6381C106.7 14.6381 105.84 15.5301 105.128 16.5321ZM121.654 53.7172C120.662 44.8959 116.705 37.0803 109.266 29.2225L106.651 31.9745C113.392 39.0761 118.182 47.2056 121.654 53.7172ZM14.5011 100.987C12.9199 100.987 11.4991 101.483 10.2784 102.462C8.77063 103.671 7.3797 105.05 6.03468 106.385C5.51406 106.901 4.9774 107.434 4.44671 107.942L16.8255 120.323C17.3207 119.857 17.8256 119.391 18.3343 118.922C19.6338 117.722 20.9781 116.481 22.235 115.178C23.4879 113.879 24.0671 112.114 23.9573 109.935C23.7819 106.454 20.5948 102.469 17.1363 101.408C16.2276 101.129 15.3409 100.987 14.5011 100.987ZM24.7086 102.774L96.8781 30.5858L94.2843 27.898L22.0115 100.144L24.7086 102.774ZM72.3964 4.64562C81.1387 9.29535 87.9018 13.9488 93.5995 19.2285L96.2377 16.6456C88.4463 9.45732 80.8367 5.62229 72.3964 4.64562ZM65.1895 67.8948L100.099 102.835L102.75 100.168L67.8758 65.2929L65.1895 67.8948ZM102.243 114.55C103.47 116.12 104.883 117.551 106.25 118.934C106.792 119.483 107.307 120.005 107.81 120.532L120.403 107.941C120.034 107.571 119.66 107.196 119.282 106.817C118.133 105.663 116.944 104.471 115.737 103.3C115.238 102.815 114.685 102.396 114.138 102.085C112.855 101.359 111.527 100.991 110.189 100.991C106.104 100.991 102.656 104.416 101.363 107.798C100.432 110.234 100.744 112.632 102.243 114.55Z" fill="#13264C"/>
</svg>
