<svg width="1110" height="7" viewBox="0 0 1110 7" fill="none" xmlns="http://www.w3.org/2000/svg">
<path d="M63.6816 6.99998V1.40098H68.0215V4.20131H69.4681V0H62.2316V5.60065H57.8917V2.80032H56.4451V6.99998H63.6816Z" fill="#13264C" fill-opacity="0.5"/>
<path d="M72.3645 6.99998V1.40098H76.7077V4.20131H78.1543V0H70.9178V5.60065H66.5748V2.80032H65.1281V6.99998H72.3645Z" fill="#13264C" fill-opacity="0.5"/>
<path d="M54.9984 6.99998V1.40098H59.3383V4.20131H60.7849V0H53.5484V5.60065H49.2085V2.80032H47.7619V6.99998H54.9984Z" fill="#13264C" fill-opacity="0.5"/>
<path d="M46.312 6.99998V1.40098H50.6552V4.20131H52.1019V0H44.8654V5.60065H40.5255V2.80032H39.0755V6.99998H46.312Z" fill="#13264C" fill-opacity="0.5"/>
<path d="M89.7343 6.99998V1.40098H94.0741V4.20131H95.5207V0H88.2842V5.60065H83.9444V2.80032H82.4978V6.99998H89.7343Z" fill="#13264C" fill-opacity="0.5"/>
<path d="M128.81 4.20131H130.256V0H123.02V5.60065H118.68V2.80032H117.233V6.99998H124.47V1.40098H128.81V4.20131Z" fill="#13264C" fill-opacity="0.5"/>
<path d="M81.0476 6.99998V1.40098H85.3909V4.20131H86.8375V0H79.601V5.60065H75.2612V2.80032H73.8111V6.99998H81.0476Z" fill="#13264C" fill-opacity="0.5"/>
<path d="M107.1 6.99998V1.40098H111.443V4.20131H112.89V0H105.653V5.60065H101.31V2.80032H99.8638V6.99998H107.1Z" fill="#13264C" fill-opacity="0.5"/>
<path d="M98.4174 6.99998V1.40098H102.757V4.20131H104.204V0H96.9673V5.60065H92.6275V2.80032H91.1809V6.99998H98.4174Z" fill="#13264C" fill-opacity="0.5"/>
<path d="M115.783 6.99998V1.40098H120.126V4.20131H121.573V0H114.337V5.60065H109.997V2.80032H108.547V6.99998H115.783Z" fill="#13264C" fill-opacity="0.5"/>
<path d="M136.046 5.60066V2.80034H134.599V7H138.939V5.60066H136.046Z" fill="#13264C" fill-opacity="0.5"/>
<path d="M131.703 0V5.60065H127.363V2.80032H125.916V6.99998H133.153V1.40098H137.493V4.20131H138.939V0H131.703Z" fill="#13264C" fill-opacity="0.5"/>
<path d="M2.89323 6.99998V1.40098H7.23649V4.20131H8.6831V0H1.44662V5.60065H0V6.99998H2.89323Z" fill="#13264C" fill-opacity="0.5"/>
<path d="M5.78987 2.80032H4.33985V6.99998H11.5763V1.40098H15.9196V4.20131H17.3662V0H10.1297V5.60065H5.78987V2.80032Z" fill="#13264C" fill-opacity="0.5"/>
<path d="M20.2629 6.99998V1.40098H24.6027V4.20131H26.0493V0H18.8128V5.60065H14.473V2.80032H13.0264V6.99998H20.2629Z" fill="#13264C" fill-opacity="0.5"/>
<path d="M37.6288 6.99998V1.40098H41.9721V4.20131H43.4187V0H36.1822V5.60065H31.8391V2.80032H30.3925V6.99998H37.6288Z" fill="#13264C" fill-opacity="0.5"/>
<path d="M28.9461 6.99998V1.40098H33.2859V4.20131H34.7325V0H27.496V5.60065H23.1562V2.80032H21.7096V6.99998H28.9461Z" fill="#13264C" fill-opacity="0.5"/>
<path d="M202.742 6.99998V1.40098H207.082V4.20131H208.529V0H201.292V5.60065H196.953V2.80032H195.506V6.99998H202.742Z" fill="#13264C" fill-opacity="0.5"/>
<path d="M211.425 6.99998V1.40098H215.768V4.20131H217.215V0H209.979V5.60065H205.636V2.80032H204.189V6.99998H211.425Z" fill="#13264C" fill-opacity="0.5"/>
<path d="M194.059 6.99998V1.40098H198.399V4.20131H199.846V0H192.609V5.60065H188.269V2.80032H186.823V6.99998H194.059Z" fill="#13264C" fill-opacity="0.5"/>
<path d="M185.373 6.99998V1.40098H189.716V4.20131H191.163V0H183.926V5.60065H179.586V2.80032H178.136V6.99998H185.373Z" fill="#13264C" fill-opacity="0.5"/>
<path d="M228.795 6.99998V1.40098H233.135V4.20131H234.582V0H227.345V5.60065H223.005V2.80032H221.559V6.99998H228.795Z" fill="#13264C" fill-opacity="0.5"/>
<path d="M267.87 4.20131H269.317V0H262.08V5.60065H257.741V2.80032H256.294V6.99998H263.531V1.40098H267.87V4.20131Z" fill="#13264C" fill-opacity="0.5"/>
<path d="M220.108 6.99998V1.40098H224.452V4.20131H225.898V0H218.662V5.60065H214.322V2.80032H212.872V6.99998H220.108Z" fill="#13264C" fill-opacity="0.5"/>
<path d="M246.161 6.99998V1.40098H250.504V4.20131H251.951V0H244.714V5.60065H240.371V2.80032H238.925V6.99998H246.161Z" fill="#13264C" fill-opacity="0.5"/>
<path d="M237.478 6.99998V1.40098H241.818V4.20131H243.265V0H236.028V5.60065H231.688V2.80032H230.242V6.99998H237.478Z" fill="#13264C" fill-opacity="0.5"/>
<path d="M254.844 6.99998V1.40098H259.187V4.20131H260.634V0H253.397V5.60065H249.058V2.80032H247.607V6.99998H254.844Z" fill="#13264C" fill-opacity="0.5"/>
<path d="M275.107 5.60066V2.80034H273.66V7H278V5.60066H275.107Z" fill="#13264C" fill-opacity="0.5"/>
<path d="M270.763 0V5.60065H266.424V2.80032H264.977V6.99998H272.214V1.40098H276.553V4.20131H278V0H270.763Z" fill="#13264C" fill-opacity="0.5"/>
<path d="M141.954 6.99998V1.40098H146.297V4.20131H147.744V0H140.507V5.60065H139.061V6.99998H141.954Z" fill="#13264C" fill-opacity="0.5"/>
<path d="M144.851 2.80032H143.401V6.99998H150.637V1.40098H154.98V4.20131H156.427V0H149.191V5.60065H144.851V2.80032Z" fill="#13264C" fill-opacity="0.5"/>
<path d="M159.324 6.99998V1.40098H163.663V4.20131H165.11V0H157.874V5.60065H153.534V2.80032H152.087V6.99998H159.324Z" fill="#13264C" fill-opacity="0.5"/>
<path d="M176.69 6.99998V1.40098H181.033V4.20131H182.479V0H175.243V5.60065H170.9V2.80032H169.453V6.99998H176.69Z" fill="#13264C" fill-opacity="0.5"/>
<path d="M168.007 6.99998V1.40098H172.347V4.20131H173.793V0H166.557V5.60065H162.217V2.80032H160.77V6.99998H168.007Z" fill="#13264C" fill-opacity="0.5"/>
<path d="M618.682 6.99998V1.40098H623.021V4.20131H624.468V0H617.232V5.60065H612.892V2.80032H611.445V6.99998H618.682Z" fill="#13264C" fill-opacity="0.5"/>
<path d="M627.364 6.99998V1.40098H631.708V4.20131H633.154V0H625.918V5.60065H621.575V2.80032H620.128V6.99998H627.364Z" fill="#13264C" fill-opacity="0.5"/>
<path d="M609.998 6.99998V1.40098H614.338V4.20131H615.785V0H608.548V5.60065H604.209V2.80032H602.762V6.99998H609.998Z" fill="#13264C" fill-opacity="0.5"/>
<path d="M601.312 6.99998V1.40098H605.655V4.20131H607.102V0H599.865V5.60065H595.526V2.80032H594.076V6.99998H601.312Z" fill="#13264C" fill-opacity="0.5"/>
<path d="M644.734 6.99998V1.40098H649.074V4.20131H650.521V0H643.284V5.60065H638.944V2.80032H637.498V6.99998H644.734Z" fill="#13264C" fill-opacity="0.5"/>
<path d="M683.81 4.20131H685.256V0H678.02V5.60065H673.68V2.80032H672.233V6.99998H679.47V1.40098H683.81V4.20131Z" fill="#13264C" fill-opacity="0.5"/>
<path d="M636.048 6.99998V1.40098H640.391V4.20131H641.838V0H634.601V5.60065H630.261V2.80032H628.811V6.99998H636.048Z" fill="#13264C" fill-opacity="0.5"/>
<path d="M662.1 6.99998V1.40098H666.443V4.20131H667.89V0H660.653V5.60065H656.31V2.80032H654.864V6.99998H662.1Z" fill="#13264C" fill-opacity="0.5"/>
<path d="M653.417 6.99998V1.40098H657.757V4.20131H659.204V0H651.967V5.60065H647.628V2.80032H646.181V6.99998H653.417Z" fill="#13264C" fill-opacity="0.5"/>
<path d="M670.783 6.99998V1.40098H675.126V4.20131H676.573V0H669.337V5.60065H664.997V2.80032H663.547V6.99998H670.783Z" fill="#13264C" fill-opacity="0.5"/>
<path d="M691.046 5.60066V2.80034H689.599V7H693.939V5.60066H691.046Z" fill="#13264C" fill-opacity="0.5"/>
<path d="M686.703 0V5.60065H682.363V2.80032H680.916V6.99998H688.153V1.40098H692.493V4.20131H693.939V0H686.703Z" fill="#13264C" fill-opacity="0.5"/>
<path d="M557.893 6.99998V1.40098H562.237V4.20131H563.683V0H556.447V5.60065H555V6.99998H557.893Z" fill="#13264C" fill-opacity="0.5"/>
<path d="M560.79 2.80032H559.34V6.99998H566.576V1.40098H570.92V4.20131H572.366V0H565.13V5.60065H560.79V2.80032Z" fill="#13264C" fill-opacity="0.5"/>
<path d="M575.263 6.99998V1.40098H579.603V4.20131H581.049V0H573.813V5.60065H569.473V2.80032H568.026V6.99998H575.263Z" fill="#13264C" fill-opacity="0.5"/>
<path d="M592.629 6.99998V1.40098H596.972V4.20131H598.419V0H591.182V5.60065H586.839V2.80032H585.393V6.99998H592.629Z" fill="#13264C" fill-opacity="0.5"/>
<path d="M583.946 6.99998V1.40098H588.286V4.20131H589.733V0H582.496V5.60065H578.156V2.80032H576.71V6.99998H583.946Z" fill="#13264C" fill-opacity="0.5"/>
<path d="M757.742 6.99998V1.40098H762.082V4.20131H763.529V0H756.292V5.60065H751.953V2.80032H750.506V6.99998H757.742Z" fill="#13264C" fill-opacity="0.5"/>
<path d="M766.425 6.99998V1.40098H770.768V4.20131H772.215V0H764.979V5.60065H760.636V2.80032H759.189V6.99998H766.425Z" fill="#13264C" fill-opacity="0.5"/>
<path d="M749.059 6.99998V1.40098H753.399V4.20131H754.846V0H747.609V5.60065H743.269V2.80032H741.823V6.99998H749.059Z" fill="#13264C" fill-opacity="0.5"/>
<path d="M740.373 6.99998V1.40098H744.716V4.20131H746.163V0H738.926V5.60065H734.586V2.80032H733.136V6.99998H740.373Z" fill="#13264C" fill-opacity="0.5"/>
<path d="M783.795 6.99998V1.40098H788.135V4.20131H789.581V0H782.345V5.60065H778.005V2.80032H776.559V6.99998H783.795Z" fill="#13264C" fill-opacity="0.5"/>
<path d="M822.87 4.20131H824.317V0H817.081V5.60065H812.741V2.80032H811.294V6.99998H818.531V1.40098H822.87V4.20131Z" fill="#13264C" fill-opacity="0.5"/>
<path d="M775.108 6.99998V1.40098H779.452V4.20131H780.898V0H773.662V5.60065H769.322V2.80032H767.872V6.99998H775.108Z" fill="#13264C" fill-opacity="0.5"/>
<path d="M801.161 6.99998V1.40098H805.504V4.20131H806.951V0H799.714V5.60065H795.371V2.80032H793.925V6.99998H801.161Z" fill="#13264C" fill-opacity="0.5"/>
<path d="M792.478 6.99998V1.40098H796.818V4.20131H798.265V0H791.028V5.60065H786.688V2.80032H785.242V6.99998H792.478Z" fill="#13264C" fill-opacity="0.5"/>
<path d="M809.844 6.99998V1.40098H814.187V4.20131H815.634V0H808.397V5.60065H804.057V2.80032H802.607V6.99998H809.844Z" fill="#13264C" fill-opacity="0.5"/>
<path d="M830.107 5.60066V2.80034H828.66V7H833V5.60066H830.107Z" fill="#13264C" fill-opacity="0.5"/>
<path d="M825.763 0V5.60065H821.424V2.80032H819.977V6.99998H827.214V1.40098H831.553V4.20131H833V0H825.763Z" fill="#13264C" fill-opacity="0.5"/>
<path d="M696.954 6.99998V1.40098H701.297V4.20131H702.744V0H695.507V5.60065H694.061V6.99998H696.954Z" fill="#13264C" fill-opacity="0.5"/>
<path d="M699.851 2.80032H698.401V6.99998H705.637V1.40098H709.98V4.20131H711.427V0H704.19V5.60065H699.851V2.80032Z" fill="#13264C" fill-opacity="0.5"/>
<path d="M714.324 6.99998V1.40098H718.664V4.20131H720.11V0H712.874V5.60065H708.534V2.80032H707.087V6.99998H714.324Z" fill="#13264C" fill-opacity="0.5"/>
<path d="M731.69 6.99998V1.40098H736.033V4.20131H737.479V0H730.243V5.60065H725.9V2.80032H724.453V6.99998H731.69Z" fill="#13264C" fill-opacity="0.5"/>
<path d="M723.007 6.99998V1.40098H727.347V4.20131H728.793V0H721.557V5.60065H717.217V2.80032H715.77V6.99998H723.007Z" fill="#13264C" fill-opacity="0.5"/>
<path d="M341.453 6.99998V1.40098H345.777V4.20131H347.218V0H340.008V5.60065H335.684V2.80032H334.242V6.99998H341.453Z" fill="#13264C" fill-opacity="0.5"/>
<path d="M350.104 6.99998V1.40098H354.432V4.20131H355.873V0H348.663V5.60065H344.335V2.80032H342.894V6.99998H350.104Z" fill="#13264C" fill-opacity="0.5"/>
<path d="M332.801 6.99998V1.40098H337.125V4.20131H338.566V0H331.356V5.60065H327.032V2.80032H325.59V6.99998H332.801Z" fill="#13264C" fill-opacity="0.5"/>
<path d="M324.145 6.99998V1.40098H328.473V4.20131H329.914V0H322.704V5.60065H318.38V2.80032H316.935V6.99998H324.145Z" fill="#13264C" fill-opacity="0.5"/>
<path d="M367.411 6.99998V1.40098H371.736V4.20131H373.177V0H365.967V5.60065H361.642V2.80032H360.201V6.99998H367.411Z" fill="#13264C" fill-opacity="0.5"/>
<path d="M406.346 4.20131H407.788V0H400.577V5.60065H396.253V2.80032H394.812V6.99998H402.022V1.40098H406.346V4.20131Z" fill="#13264C" fill-opacity="0.5"/>
<path d="M358.756 6.99998V1.40098H363.084V4.20131H364.525V0H357.315V5.60065H352.99V2.80032H351.546V6.99998H358.756Z" fill="#13264C" fill-opacity="0.5"/>
<path d="M384.715 6.99998V1.40098H389.042V4.20131H390.484V0H383.273V5.60065H378.946V2.80032H377.505V6.99998H384.715Z" fill="#13264C" fill-opacity="0.5"/>
<path d="M376.063 6.99998V1.40098H380.388V4.20131H381.829V0H374.619V5.60065H370.294V2.80032H368.853V6.99998H376.063Z" fill="#13264C" fill-opacity="0.5"/>
<path d="M393.367 6.99998V1.40098H397.694V4.20131H399.136V0H391.925V5.60065H387.601V2.80032H386.156V6.99998H393.367Z" fill="#13264C" fill-opacity="0.5"/>
<path d="M413.557 5.60066V2.80034H412.115V7H416.439V5.60066H413.557Z" fill="#13264C" fill-opacity="0.5"/>
<path d="M409.229 0V5.60065H404.905V2.80032H403.463V6.99998H410.674V1.40098H414.998V4.20131H416.439V0H409.229Z" fill="#13264C" fill-opacity="0.5"/>
<path d="M280.883 6.99998V1.40098H285.21V4.20131H286.652V0H279.441V5.60065L278 5.60066V7L280.883 6.99998Z" fill="#13264C" fill-opacity="0.5"/>
<path d="M283.769 2.80032H282.324V6.99998H289.535V1.40098H293.862V4.20131H295.304V0H288.093V5.60065H283.769V2.80032Z" fill="#13264C" fill-opacity="0.5"/>
<path d="M298.19 6.99998V1.40098H302.514V4.20131H303.956V0H296.745V5.60065H292.421V2.80032H290.98V6.99998H298.19Z" fill="#13264C" fill-opacity="0.5"/>
<path d="M315.493 6.99998V1.40098H319.821V4.20131H321.262V0H314.052V5.60065H309.725V2.80032H308.283V6.99998H315.493Z" fill="#13264C" fill-opacity="0.5"/>
<path d="M306.842 6.99998V1.40098H311.166V4.20131H312.608V0H305.397V5.60065H301.073V2.80032H299.631V6.99998H306.842Z" fill="#13264C" fill-opacity="0.5"/>
<path d="M480.013 6.99998V1.40098H484.337V4.20131H485.779V0H478.568V5.60065H474.244V2.80032H472.803V6.99998H480.013Z" fill="#13264C" fill-opacity="0.5"/>
<path d="M488.665 6.99998V1.40098H492.992V4.20131H494.434V0H487.223V5.60065H482.896V2.80032H481.454V6.99998H488.665Z" fill="#13264C" fill-opacity="0.5"/>
<path d="M471.361 6.99998V1.40098H475.685V4.20131H477.127V0H469.916V5.60065H465.592V2.80032H464.151V6.99998H471.361Z" fill="#13264C" fill-opacity="0.5"/>
<path d="M462.706 6.99998V1.40098H467.034V4.20131H468.475V0H461.265V5.60065H456.94V2.80032H455.496V6.99998H462.706Z" fill="#13264C" fill-opacity="0.5"/>
<path d="M505.972 6.99998V1.40098H510.296V4.20131H511.738V0H504.527V5.60065H500.203V2.80032H498.762V6.99998H505.972Z" fill="#13264C" fill-opacity="0.5"/>
<path d="M544.907 4.20131H546.348V0H539.138V5.60065H534.814V2.80032H533.372V6.99998H540.583V1.40098H544.907V4.20131Z" fill="#13264C" fill-opacity="0.5"/>
<path d="M497.317 6.99998V1.40098H501.644V4.20131H503.086V0H495.875V5.60065H491.551V2.80032H490.106V6.99998H497.317Z" fill="#13264C" fill-opacity="0.5"/>
<path d="M523.275 6.99998V1.40098H527.603V4.20131H529.044V0H521.834V5.60065H517.507V2.80032H516.065V6.99998H523.275Z" fill="#13264C" fill-opacity="0.5"/>
<path d="M514.624 6.99998V1.40098H518.948V4.20131H520.39V0H513.179V5.60065H508.855V2.80032H507.413V6.99998H514.624Z" fill="#13264C" fill-opacity="0.5"/>
<path d="M531.927 6.99998V1.40098H536.255V4.20131H537.696V0H530.486V5.60065H526.162V2.80032H524.717V6.99998H531.927Z" fill="#13264C" fill-opacity="0.5"/>
<path d="M552.117 5.60066V2.80034H550.676V7L555 6.99998V5.60065L552.117 5.60066Z" fill="#13264C" fill-opacity="0.5"/>
<path d="M547.789 0V5.60065H543.465V2.80032H542.024V6.99998H549.234V1.40098H553.559V4.20131H555V0H547.789Z" fill="#13264C" fill-opacity="0.5"/>
<path d="M419.443 6.99998V1.40098H423.771V4.20131H425.212V0H418.002V5.60065H416.561V6.99998H419.443Z" fill="#13264C" fill-opacity="0.5"/>
<path d="M422.33 2.80032H420.885V6.99998H428.095V1.40098H432.423V4.20131H433.864V0H426.654V5.60065H422.33V2.80032Z" fill="#13264C" fill-opacity="0.5"/>
<path d="M436.751 6.99998V1.40098H441.075V4.20131H442.516V0H435.306V5.60065H430.982V2.80032H429.54V6.99998H436.751Z" fill="#13264C" fill-opacity="0.5"/>
<path d="M454.054 6.99998V1.40098H458.382V4.20131H459.823V0H452.613V5.60065H448.285V2.80032H446.844V6.99998H454.054Z" fill="#13264C" fill-opacity="0.5"/>
<path d="M445.403 6.99998V1.40098H449.727V4.20131H451.168V0H443.958V5.60065H439.633V2.80032H438.192V6.99998H445.403Z" fill="#13264C" fill-opacity="0.5"/>
<path d="M896.453 6.99998V1.40098H900.777V4.20131H902.218V0H895.008V5.60065H890.683V2.80032H889.242V6.99998H896.453Z" fill="#13264C" fill-opacity="0.5"/>
<path d="M905.104 6.99998V1.40098H909.432V4.20131H910.873V0H903.663V5.60065H899.335V2.80032H897.894V6.99998H905.104Z" fill="#13264C" fill-opacity="0.5"/>
<path d="M887.801 6.99998V1.40098H892.125V4.20131H893.566V0H886.356V5.60065H882.032V2.80032H880.59V6.99998H887.801Z" fill="#13264C" fill-opacity="0.5"/>
<path d="M879.145 6.99998V1.40098H883.473V4.20131H884.914V0H877.704V5.60065H873.38V2.80032H871.935V6.99998H879.145Z" fill="#13264C" fill-opacity="0.5"/>
<path d="M922.411 6.99998V1.40098H926.736V4.20131H928.177V0H920.967V5.60065H916.642V2.80032H915.201V6.99998H922.411Z" fill="#13264C" fill-opacity="0.5"/>
<path d="M961.346 4.20131H962.788V0H955.577V5.60065H951.253V2.80032H949.812V6.99998H957.022V1.40098H961.346V4.20131Z" fill="#13264C" fill-opacity="0.5"/>
<path d="M913.756 6.99998V1.40098H918.084V4.20131H919.525V0H912.315V5.60065H907.99V2.80032H906.546V6.99998H913.756Z" fill="#13264C" fill-opacity="0.5"/>
<path d="M939.715 6.99998V1.40098H944.042V4.20131H945.484V0H938.273V5.60065H933.946V2.80032H932.505V6.99998H939.715Z" fill="#13264C" fill-opacity="0.5"/>
<path d="M931.063 6.99998V1.40098H935.388V4.20131H936.829V0H929.619V5.60065H925.294V2.80032H923.853V6.99998H931.063Z" fill="#13264C" fill-opacity="0.5"/>
<path d="M948.367 6.99998V1.40098H952.694V4.20131H954.136V0H946.925V5.60065H942.601V2.80032H941.156V6.99998H948.367Z" fill="#13264C" fill-opacity="0.5"/>
<path d="M968.557 5.60066V2.80034H967.115V7H971.439V5.60066H968.557Z" fill="#13264C" fill-opacity="0.5"/>
<path d="M964.229 0V5.60065H959.905V2.80032H958.463V6.99998H965.674V1.40098H969.998V4.20131H971.439V0H964.229Z" fill="#13264C" fill-opacity="0.5"/>
<path d="M835.883 6.99998V1.40098H840.21V4.20131H841.652V0H834.441V5.60065L833 5.60066V7L835.883 6.99998Z" fill="#13264C" fill-opacity="0.5"/>
<path d="M838.769 2.80032H837.324V6.99998H844.535V1.40098H848.862V4.20131H850.304V0H843.093V5.60065H838.769V2.80032Z" fill="#13264C" fill-opacity="0.5"/>
<path d="M853.19 6.99998V1.40098H857.514V4.20131H858.956V0H851.745V5.60065H847.421V2.80032H845.979V6.99998H853.19Z" fill="#13264C" fill-opacity="0.5"/>
<path d="M870.493 6.99998V1.40098H874.821V4.20131H876.263V0H869.052V5.60065H864.725V2.80032H863.283V6.99998H870.493Z" fill="#13264C" fill-opacity="0.5"/>
<path d="M861.842 6.99998V1.40098H866.166V4.20131H867.608V0H860.397V5.60065H856.073V2.80032H854.631V6.99998H861.842Z" fill="#13264C" fill-opacity="0.5"/>
<path d="M1035.01 6.99998V1.40098H1039.34V4.20131H1040.78V0H1033.57V5.60065H1029.24V2.80032H1027.8V6.99998H1035.01Z" fill="#13264C" fill-opacity="0.5"/>
<path d="M1043.66 6.99998V1.40098H1047.99V4.20131H1049.43V0H1042.22V5.60065H1037.9V2.80032H1036.45V6.99998H1043.66Z" fill="#13264C" fill-opacity="0.5"/>
<path d="M1026.36 6.99998V1.40098H1030.69V4.20131H1032.13V0H1024.92V5.60065H1020.59V2.80032H1019.15V6.99998H1026.36Z" fill="#13264C" fill-opacity="0.5"/>
<path d="M1017.71 6.99998V1.40098H1022.03V4.20131H1023.47V0H1016.26V5.60065H1011.94V2.80032H1010.5V6.99998H1017.71Z" fill="#13264C" fill-opacity="0.5"/>
<path d="M1060.97 6.99998V1.40098H1065.3V4.20131H1066.74V0H1059.53V5.60065H1055.2V2.80032H1053.76V6.99998H1060.97Z" fill="#13264C" fill-opacity="0.5"/>
<path d="M1099.91 4.20131H1101.35V0H1094.14V5.60065H1089.81V2.80032H1088.37V6.99998H1095.58V1.40098H1099.91V4.20131Z" fill="#13264C" fill-opacity="0.5"/>
<path d="M1052.32 6.99998V1.40098H1056.64V4.20131H1058.09V0H1050.88V5.60065H1046.55V2.80032H1045.11V6.99998H1052.32Z" fill="#13264C" fill-opacity="0.5"/>
<path d="M1078.28 6.99998V1.40098H1082.6V4.20131H1084.04V0H1076.83V5.60065H1072.51V2.80032H1071.07V6.99998H1078.28Z" fill="#13264C" fill-opacity="0.5"/>
<path d="M1069.62 6.99998V1.40098H1073.95V4.20131H1075.39V0H1068.18V5.60065H1063.85V2.80032H1062.41V6.99998H1069.62Z" fill="#13264C" fill-opacity="0.5"/>
<path d="M1086.93 6.99998V1.40098H1091.25V4.20131H1092.7V0H1085.49V5.60065H1081.16V2.80032H1079.72V6.99998H1086.93Z" fill="#13264C" fill-opacity="0.5"/>
<path d="M1107.12 5.60066V2.80034H1105.68V7H1110V5.60066H1107.12Z" fill="#13264C" fill-opacity="0.5"/>
<path d="M1102.79 0V5.60065H1098.47V2.80032H1097.02V6.99998H1104.23V1.40098H1108.56V4.20131H1110V0H1102.79Z" fill="#13264C" fill-opacity="0.5"/>
<path d="M974.443 6.99998V1.40098H978.771V4.20131H980.212V0H973.002V5.60065H971.561V6.99998H974.443Z" fill="#13264C" fill-opacity="0.5"/>
<path d="M977.33 2.80032H975.885V6.99998H983.095V1.40098H987.423V4.20131H988.864V0H981.654V5.60065H977.33V2.80032Z" fill="#13264C" fill-opacity="0.5"/>
<path d="M991.751 6.99998V1.40098H996.075V4.20131H997.516V0H990.306V5.60065H985.982V2.80032H984.54V6.99998H991.751Z" fill="#13264C" fill-opacity="0.5"/>
<path d="M1009.05 6.99998V1.40098H1013.38V4.20131H1014.82V0H1007.61V5.60065H1003.29V2.80032H1001.84V6.99998H1009.05Z" fill="#13264C" fill-opacity="0.5"/>
<path d="M1000.4 6.99998V1.40098H1004.73V4.20131H1006.17V0H998.958V5.60065H994.633V2.80032H993.192V6.99998H1000.4Z" fill="#13264C" fill-opacity="0.5"/>
</svg>
