<svg width="2880" height="23" viewBox="0 0 2880 23" fill="none" xmlns="http://www.w3.org/2000/svg">
<path d="M110.002 17.8893V7.66967H117.499V12.781H119.997V5.11251H107.497V15.3351H100.001V10.2238H97.5018V17.8893H110.002Z" fill="#13264C"/>
<path d="M125.001 17.8893V7.66967H132.503V12.781H135.002V5.11251H122.502V15.3351H115V10.2238H112.501V17.8893H125.001Z" fill="#13264C"/>
<path d="M95.003 17.8893V7.66967H102.5V12.781H104.998V5.11251H92.4983V15.3351H85.0017V10.2238H82.5029V17.8893H95.003Z" fill="#13264C"/>
<path d="M79.9981 17.8893V7.66967H87.5006V12.781H89.9994V5.11251H77.4993V15.3351H70.0027V10.2238H67.498V17.8893H79.9981Z" fill="#13264C"/>
<path d="M155.004 17.8893V7.66967H162.501V12.781H165V5.11251H152.5V15.3351H145.003V10.2238H142.504V17.8893H155.004Z" fill="#13264C"/>
<path d="M222.502 12.781H225.001V5.11251H212.501V15.3351H205.004V10.2238H202.506V17.8893H215.006V7.66967H222.502V12.781Z" fill="#13264C"/>
<path d="M140 17.8893V7.66967H147.502V12.781H150.001V5.11251H137.501V15.3351H130.004V10.2238H127.499V17.8893H140Z" fill="#13264C"/>
<path d="M185.002 17.8893V7.66967H192.504V12.781H195.003V5.11251H182.503V15.3351H175.001V10.2238H172.502V17.8893H185.002Z" fill="#13264C"/>
<path d="M170.003 17.8893V7.66967H177.5V12.781H179.999V5.11251H167.499V15.3351H160.002V10.2238H157.503V17.8893H170.003Z" fill="#13264C"/>
<path d="M200.001 17.8893V7.66967H207.503V12.781H210.002V5.11251H197.502V15.3351H190.005V10.2238H187.501V17.8893H200.001Z" fill="#13264C"/>
<path d="M235.002 15.3351V10.2238H232.503V17.8893H240V15.3351H235.002Z" fill="#13264C"/>
<path d="M227.5 5.11251V15.3351H220.003V10.2238H217.504V17.8893H230.005V7.66967H237.501V12.781H240V5.11251H227.5Z" fill="#13264C"/>
<path d="M239.976 2.55716V0H0.00351942V2.55716H239.976Z" fill="#13264C"/>
<path d="M4.9977 17.8893V7.66967H12.5001V12.781H14.999V5.11251H2.49885V15.3351H0V17.8893H4.9977Z" fill="#13264C"/>
<path d="M10.0013 10.2238H7.49655V17.8893H19.9967V7.66967H27.4991V12.781H29.9979V5.11251H17.4978V15.3351H10.0013V10.2238Z" fill="#13264C"/>
<path d="M35.0015 17.8893V7.66967H42.4981V12.781H44.9969V5.11251H32.4968V15.3351H25.0002V10.2238H22.5014V17.8893H35.0015Z" fill="#13264C"/>
<path d="M64.9992 17.8893V7.66967H72.5016V12.781H75.0004V5.11251H62.5003V15.3351H54.9982V10.2238H52.4993V17.8893H64.9992Z" fill="#13264C"/>
<path d="M0.00354107 20.4425V23H239.976V20.4425H0.00354107Z" fill="#13264C"/>
<path d="M50.0005 17.8893V7.66967H57.497V12.781H59.9959V5.11251H47.4958V15.3351H39.9992V10.2238H37.5004V17.8893H50.0005Z" fill="#13264C"/>
<path d="M590.544 17.8893V7.66967H598.009V12.781H600.497V5.11251H588.049V15.3351H580.584V10.2238H578.096V17.8893H590.544Z" fill="#13264C"/>
<path d="M605.48 17.8893V7.66967H612.951V12.781H615.439V5.11251H602.991V15.3351H595.521V10.2238H593.032V17.8893H605.48Z" fill="#13264C"/>
<path d="M575.607 17.8893V7.66967H583.072V12.781H585.561V5.11251H573.113V15.3351H565.648V10.2238H563.159V17.8893H575.607Z" fill="#13264C"/>
<path d="M560.665 17.8893V7.66967H568.136V12.781H570.624V5.11251H558.176V15.3351H550.711V10.2238H548.217V17.8893H560.665Z" fill="#13264C"/>
<path d="M635.359 17.8893V7.66967H642.824V12.781H645.312V5.11251H632.864V15.3351H625.399V10.2238H622.911V17.8893H635.359Z" fill="#13264C"/>
<path d="M702.575 12.781H705.064V5.11251H692.615V15.3351H685.15V10.2238H682.662V17.8893H695.11V7.66967H702.575V12.781Z" fill="#13264C"/>
<path d="M620.416 17.8893V7.66967H627.887V12.781H630.376V5.11251H617.928V15.3351H610.463V10.2238H607.968V17.8893H620.416Z" fill="#13264C"/>
<path d="M665.231 17.8893V7.66967H672.702V12.781H675.191V5.11251H662.743V15.3351H655.272V10.2238H652.784V17.8893H665.231Z" fill="#13264C"/>
<path d="M650.295 17.8893V7.66967H657.76V12.781H660.249V5.11251H647.801V15.3351H640.336V10.2238H637.847V17.8893H650.295Z" fill="#13264C"/>
<path d="M680.167 17.8893V7.66967H687.639V12.781H690.127V5.11251H677.679V15.3351H670.214V10.2238H667.719V17.8893H680.167Z" fill="#13264C"/>
<path d="M715.023 15.3351V10.2238H712.535V17.8893H720V15.3351H715.023Z" fill="#13264C"/>
<path d="M707.552 5.11251V15.3351H700.087V10.2238H697.598V17.8893H710.046V7.66967H717.512V12.781H720V5.11251H707.552Z" fill="#13264C"/>
<path d="M719.976 2.55716V0H481.004V2.55716H719.976Z" fill="#13264C"/>
<path d="M485.977 17.8893V7.66967H493.448V12.781H495.936V5.11251H483.488V15.3351H481V17.8893H485.977Z" fill="#13264C"/>
<path d="M490.96 10.2238H488.465V17.8893H500.913V7.66967H508.385V12.781H510.873V5.11251H498.425V15.3351H490.96V10.2238Z" fill="#13264C"/>
<path d="M515.856 17.8893V7.66967H523.321V12.781H525.809V5.11251H513.361V15.3351H505.896V10.2238H503.408V17.8893H515.856Z" fill="#13264C"/>
<path d="M545.728 17.8893V7.66967H553.2V12.781H555.688V5.11251H543.24V15.3351H535.769V10.2238H533.281V17.8893H545.728Z" fill="#13264C"/>
<path d="M481.004 20.4425V23H719.976V20.4425H481.004Z" fill="#13264C"/>
<path d="M530.792 17.8893V7.66967H538.257V12.781H540.746V5.11251H528.298V15.3351H520.833V10.2238H518.344V17.8893H530.792Z" fill="#13264C"/>
<path d="M1310 17.8893V7.66967H1317.5V12.781H1320V5.11251H1307.5V15.3351H1300V10.2238H1297.5V17.8893H1310Z" fill="#13264C"/>
<path d="M1325 17.8893V7.66967H1332.5V12.781H1335V5.11251H1322.5V15.3351H1315V10.2238H1312.5V17.8893H1325Z" fill="#13264C"/>
<path d="M1295 17.8893V7.66967H1302.5V12.781H1305V5.11251H1292.5V15.3351H1285V10.2238H1282.5V17.8893H1295Z" fill="#13264C"/>
<path d="M1280 17.8893V7.66967H1287.5V12.781H1290V5.11251H1277.5V15.3351H1270V10.2238H1267.5V17.8893H1280Z" fill="#13264C"/>
<path d="M1355 17.8893V7.66967H1362.5V12.781H1365V5.11251H1352.5V15.3351H1345V10.2238H1342.5V17.8893H1355Z" fill="#13264C"/>
<path d="M1422.5 12.781H1425V5.11251H1412.5V15.3351H1405V10.2238H1402.51V17.8893H1415.01V7.66967H1422.5V12.781Z" fill="#13264C"/>
<path d="M1340 17.8893V7.66967H1347.5V12.781H1350V5.11251H1337.5V15.3351H1330V10.2238H1327.5V17.8893H1340Z" fill="#13264C"/>
<path d="M1385 17.8893V7.66967H1392.5V12.781H1395V5.11251H1382.5V15.3351H1375V10.2238H1372.5V17.8893H1385Z" fill="#13264C"/>
<path d="M1370 17.8893V7.66967H1377.5V12.781H1380V5.11251H1367.5V15.3351H1360V10.2238H1357.5V17.8893H1370Z" fill="#13264C"/>
<path d="M1400 17.8893V7.66967H1407.5V12.781H1410V5.11251H1397.5V15.3351H1390.01V10.2238H1387.5V17.8893H1400Z" fill="#13264C"/>
<path d="M1435 15.3351V10.2238H1432.5V17.8893H1440V15.3351H1435Z" fill="#13264C"/>
<path d="M1427.5 5.11251V15.3351H1420V10.2238H1417.5V17.8893H1430V7.66967H1437.5V12.781H1440V5.11251H1427.5Z" fill="#13264C"/>
<path d="M1439.98 2.55716V0H1200V2.55716H1439.98Z" fill="#13264C"/>
<path d="M1205 17.8893V7.66967H1212.5V12.781H1215V5.11251H1202.5V15.3351H1200V17.8893H1205Z" fill="#13264C"/>
<path d="M1210 10.2238H1207.5V17.8893H1220V7.66967H1227.5V12.781H1230V5.11251H1217.5V15.3351H1210V10.2238Z" fill="#13264C"/>
<path d="M1235 17.8893V7.66967H1242.5V12.781H1245V5.11251H1232.5V15.3351H1225V10.2238H1222.5V17.8893H1235Z" fill="#13264C"/>
<path d="M1265 17.8893V7.66967H1272.5V12.781H1275V5.11251H1262.5V15.3351H1255V10.2238H1252.5V17.8893H1265Z" fill="#13264C"/>
<path d="M1200 20.4425V23H1439.98V20.4425H1200Z" fill="#13264C"/>
<path d="M1250 17.8893V7.66967H1257.5V12.781H1260V5.11251H1247.5V15.3351H1240V10.2238H1237.5V17.8893H1250Z" fill="#13264C"/>
<path d="M350.46 17.8893V7.66967H357.988V12.781H360.497V5.11251H347.945V15.3351H340.417V10.2238H337.908V17.8893H350.46Z" fill="#13264C"/>
<path d="M365.521 17.8893V7.66967H373.055V12.781H375.564V5.11251H363.012V15.3351H355.479V10.2238H352.97V17.8893H365.521Z" fill="#13264C"/>
<path d="M335.399 17.8893V7.66967H342.927V12.781H345.436V5.11251H332.884V15.3351H325.356V10.2238H322.847V17.8893H335.399Z" fill="#13264C"/>
<path d="M320.331 17.8893V7.66967H327.865V12.781H330.374V5.11251H317.822V15.3351H310.294V10.2238H307.779V17.8893H320.331Z" fill="#13264C"/>
<path d="M395.65 17.8893V7.66967H403.178V12.781H405.687V5.11251H393.135V15.3351H385.607V10.2238H383.098V17.8893H395.65Z" fill="#13264C"/>
<path d="M463.429 12.781H465.939V5.11251H453.386V15.3351H445.859V10.2238H443.349V17.8893H455.901V7.66967H463.429V12.781Z" fill="#13264C"/>
<path d="M380.583 17.8893V7.66967H388.117V12.781H390.626V5.11251H378.074V15.3351H370.546V10.2238H368.031V17.8893H380.583Z" fill="#13264C"/>
<path d="M425.773 17.8893V7.66967H433.306V12.781H435.816V5.11251H423.263V15.3351H415.73V10.2238H413.221V17.8893H425.773Z" fill="#13264C"/>
<path d="M410.712 17.8893V7.66967H418.24V12.781H420.749V5.11251H408.197V15.3351H400.669V10.2238H398.16V17.8893H410.712Z" fill="#13264C"/>
<path d="M440.834 17.8893V7.66967H448.368V12.781H450.877V5.11251H438.325V15.3351H430.797V10.2238H428.282V17.8893H440.834Z" fill="#13264C"/>
<path d="M475.981 15.3351V10.2238H473.472V17.8893H481V15.3351L475.981 15.3351Z" fill="#13264C"/>
<path d="M468.448 5.11251V15.3351H460.92V10.2238H458.411V17.8893H470.963V7.66967H478.491V12.781H481V5.11251H468.448Z" fill="#13264C"/>
<path d="M480.976 2.55716V0H240.004V2.55716H480.976Z" fill="#13264C"/>
<path d="M245.019 17.8893V7.66967H252.552V12.781H255.061V5.11251H242.509V15.3351L240 15.3351V17.8893H245.019Z" fill="#13264C"/>
<path d="M250.043 10.2238H247.528V17.8893H260.08V7.66967H267.614V12.781H270.123V5.11251H257.571V15.3351H250.043V10.2238Z" fill="#13264C"/>
<path d="M275.147 17.8893V7.66967H282.675V12.781H285.184V5.11251H272.632V15.3351H265.104V10.2238H262.595V17.8893H275.147Z" fill="#13264C"/>
<path d="M305.27 17.8893V7.66967H312.804V12.781H315.313V5.11251H302.761V15.3351H295.227V10.2238H292.718V17.8893H305.27Z" fill="#13264C"/>
<path d="M240.004 20.4425V23H480.976V20.4425H240.004Z" fill="#13264C"/>
<path d="M290.209 17.8893V7.66967H297.737V12.781H300.246V5.11251H287.694V15.3351H280.166V10.2238H277.657V17.8893H290.209Z" fill="#13264C"/>
<path d="M1069.46 17.8893V7.66967H1076.99V12.781H1079.5V5.11251H1066.95V15.3351H1059.42V10.2238H1056.91V17.8893H1069.46Z" fill="#13264C"/>
<path d="M1084.52 17.8893V7.66967H1092.06V12.781H1094.56V5.11251H1082.01V15.3351H1074.48V10.2238H1071.97V17.8893H1084.52Z" fill="#13264C"/>
<path d="M1054.4 17.8893V7.66967H1061.93V12.781H1064.44V5.11251H1051.88V15.3351H1044.36V10.2238H1041.85V17.8893H1054.4Z" fill="#13264C"/>
<path d="M1039.33 17.8893V7.66967H1046.87V12.781H1049.37V5.11251H1036.82V15.3351H1029.29V10.2238H1026.78V17.8893H1039.33Z" fill="#13264C"/>
<path d="M1114.65 17.8893V7.66967H1122.18V12.781H1124.69V5.11251H1112.14V15.3351H1104.61V10.2238H1102.1V17.8893H1114.65Z" fill="#13264C"/>
<path d="M1182.43 12.781H1184.94V5.11251H1172.39V15.3351H1164.86V10.2238H1162.35V17.8893H1174.9V7.66967H1182.43V12.781Z" fill="#13264C"/>
<path d="M1099.58 17.8893V7.66967H1107.12V12.781H1109.63V5.11251H1097.07V15.3351H1089.55V10.2238H1087.03V17.8893H1099.58Z" fill="#13264C"/>
<path d="M1144.77 17.8893V7.66967H1152.31V12.781H1154.82V5.11251H1142.26V15.3351H1134.73V10.2238H1132.22V17.8893H1144.77Z" fill="#13264C"/>
<path d="M1129.71 17.8893V7.66967H1137.24V12.781H1139.75V5.11251H1127.2V15.3351H1119.67V10.2238H1117.16V17.8893H1129.71Z" fill="#13264C"/>
<path d="M1159.83 17.8893V7.66967H1167.37V12.781H1169.88V5.11251H1157.32V15.3351H1149.8V10.2238H1147.28V17.8893H1159.83Z" fill="#13264C"/>
<path d="M1194.98 15.3351V10.2238H1192.47V17.8893H1200V15.3351L1194.98 15.3351Z" fill="#13264C"/>
<path d="M1187.45 5.11251V15.3351H1179.92V10.2238H1177.41V17.8893H1189.96V7.66967H1197.49V12.781H1200V5.11251H1187.45Z" fill="#13264C"/>
<path d="M1199.98 2.55716V0H959.003V2.55716H1199.98Z" fill="#13264C"/>
<path d="M964.018 17.8893V7.66967H971.552V12.781H974.061V5.11251H961.509V15.3351H959V17.8893H964.018Z" fill="#13264C"/>
<path d="M969.043 10.2238H966.528V17.8893H979.08V7.66967H986.614V12.781H989.123V5.11251H976.571V15.3351H969.043V10.2238Z" fill="#13264C"/>
<path d="M994.147 17.8893V7.66967H1001.68V12.781H1004.18V5.11251H991.632V15.3351H984.104V10.2238H981.595V17.8893H994.147Z" fill="#13264C"/>
<path d="M1024.27 17.8893V7.66967H1031.8V12.781H1034.31V5.11251H1021.76V15.3351H1014.23V10.2238H1011.72V17.8893H1024.27Z" fill="#13264C"/>
<path d="M959.004 20.4425V23H1199.98V20.4425H959.004Z" fill="#13264C"/>
<path d="M1009.21 17.8893V7.66967H1016.74V12.781H1019.25V5.11251H1006.69V15.3351H999.166V10.2238H996.657V17.8893H1009.21Z" fill="#13264C"/>
<path d="M829.544 17.8893V7.66967H837.009V12.781H839.497V5.11251H827.049V15.3351H819.584V10.2238H817.096V17.8893H829.544Z" fill="#13264C"/>
<path d="M844.48 17.8893V7.66967H851.951V12.781H854.439V5.11251H841.991V15.3351H834.521V10.2238H832.032V17.8893H844.48Z" fill="#13264C"/>
<path d="M814.607 17.8893V7.66967H822.072V12.781H824.561V5.11251H812.113V15.3351H804.648V10.2238H802.159V17.8893H814.607Z" fill="#13264C"/>
<path d="M799.665 17.8893V7.66967H807.136V12.781H809.624V5.11251H797.176V15.3351H789.711V10.2238H787.217V17.8893H799.665Z" fill="#13264C"/>
<path d="M874.359 17.8893V7.66967H881.824V12.781H884.312V5.11251H871.864V15.3351H864.399V10.2238H861.911V17.8893H874.359Z" fill="#13264C"/>
<path d="M941.575 12.781H944.064V5.11251H931.615V15.3351H924.15V10.2238H921.662V17.8893H934.11V7.66967H941.575V12.781Z" fill="#13264C"/>
<path d="M859.416 17.8893V7.66967H866.887V12.781H869.376V5.11251H856.928V15.3351H849.463V10.2238H846.968V17.8893H859.416Z" fill="#13264C"/>
<path d="M904.231 17.8893V7.66967H911.702V12.781H914.191V5.11251H901.743V15.3351H894.272V10.2238H891.784V17.8893H904.231Z" fill="#13264C"/>
<path d="M889.295 17.8893V7.66967H896.76V12.781H899.249V5.11251H886.801V15.3351H879.336V10.2238H876.847V17.8893H889.295Z" fill="#13264C"/>
<path d="M919.167 17.8893V7.66967H926.639V12.781H929.127V5.11251H916.679V15.3351H909.214V10.2238H906.719V17.8893H919.167Z" fill="#13264C"/>
<path d="M954.023 15.3351V10.2238H951.535V17.8893H959V15.3351L954.023 15.3351Z" fill="#13264C"/>
<path d="M946.552 5.11251V15.3351H939.087V10.2238H936.598V17.8893H949.046V7.66967H956.512V12.781H959V5.11251H946.552Z" fill="#13264C"/>
<path d="M958.976 2.55716V0H720.004V2.55716H958.976Z" fill="#13264C"/>
<path d="M724.977 17.8893V7.66967H732.448V12.781H734.936V5.11251H722.488V15.3351L720 15.3351V17.8893H724.977Z" fill="#13264C"/>
<path d="M729.96 10.2238H727.465V17.8893H739.913V7.66967H747.385V12.781H749.873V5.11251H737.425V15.3351H729.96V10.2238Z" fill="#13264C"/>
<path d="M754.856 17.8893V7.66967H762.321V12.781H764.809V5.11251H752.361V15.3351H744.896V10.2238H742.408V17.8893H754.856Z" fill="#13264C"/>
<path d="M784.728 17.8893V7.66967H792.2V12.781H794.688V5.11251H782.24V15.3351H774.769V10.2238H772.281V17.8893H784.728Z" fill="#13264C"/>
<path d="M720.004 20.4425V23H958.976V20.4425H720.004Z" fill="#13264C"/>
<path d="M769.792 17.8893V7.66967H777.257V12.781H779.746V5.11251H767.298V15.3351H759.833V10.2238H757.344V17.8893H769.792Z" fill="#13264C"/>
<path d="M1550 17.8893V7.66967H1557.5V12.781H1560V5.11251H1547.5V15.3351H1540V10.2238H1537.5V17.8893H1550Z" fill="#13264C"/>
<path d="M1565 17.8893V7.66967H1572.5V12.781H1575V5.11251H1562.5V15.3351H1555V10.2238H1552.5V17.8893H1565Z" fill="#13264C"/>
<path d="M1535 17.8893V7.66967H1542.5V12.781H1545V5.11251H1532.5V15.3351H1525V10.2238H1522.5V17.8893H1535Z" fill="#13264C"/>
<path d="M1520 17.8893V7.66967H1527.5V12.781H1530V5.11251H1517.5V15.3351H1510V10.2238H1507.5V17.8893H1520Z" fill="#13264C"/>
<path d="M1595 17.8893V7.66967H1602.5V12.781H1605V5.11251H1592.5V15.3351H1585V10.2238H1582.5V17.8893H1595Z" fill="#13264C"/>
<path d="M1662.5 12.781H1665V5.11251H1652.5V15.3351H1645V10.2238H1642.51V17.8893H1655.01V7.66967H1662.5V12.781Z" fill="#13264C"/>
<path d="M1580 17.8893V7.66967H1587.5V12.781H1590V5.11251H1577.5V15.3351H1570V10.2238H1567.5V17.8893H1580Z" fill="#13264C"/>
<path d="M1625 17.8893V7.66967H1632.5V12.781H1635V5.11251H1622.5V15.3351H1615V10.2238H1612.5V17.8893H1625Z" fill="#13264C"/>
<path d="M1610 17.8893V7.66967H1617.5V12.781H1620V5.11251H1607.5V15.3351H1600V10.2238H1597.5V17.8893H1610Z" fill="#13264C"/>
<path d="M1640 17.8893V7.66967H1647.5V12.781H1650V5.11251H1637.5V15.3351H1630.01V10.2238H1627.5V17.8893H1640Z" fill="#13264C"/>
<path d="M1675 15.3351V10.2238H1672.5V17.8893H1680V15.3351H1675Z" fill="#13264C"/>
<path d="M1667.5 5.11251V15.3351H1660V10.2238H1657.5V17.8893H1670V7.66967H1677.5V12.781H1680V5.11251H1667.5Z" fill="#13264C"/>
<path d="M1679.98 2.55716V0H1440V2.55716H1679.98Z" fill="#13264C"/>
<path d="M1445 17.8893V7.66967H1452.5V12.781H1455V5.11251H1442.5V15.3351H1440V17.8893H1445Z" fill="#13264C"/>
<path d="M1450 10.2238H1447.5V17.8893H1460V7.66967H1467.5V12.781H1470V5.11251H1457.5V15.3351H1450V10.2238Z" fill="#13264C"/>
<path d="M1475 17.8893V7.66967H1482.5V12.781H1485V5.11251H1472.5V15.3351H1465V10.2238H1462.5V17.8893H1475Z" fill="#13264C"/>
<path d="M1505 17.8893V7.66967H1512.5V12.781H1515V5.11251H1502.5V15.3351H1495V10.2238H1492.5V17.8893H1505Z" fill="#13264C"/>
<path d="M1440 20.4425V23H1679.98V20.4425H1440Z" fill="#13264C"/>
<path d="M1490 17.8893V7.66967H1497.5V12.781H1500V5.11251H1487.5V15.3351H1480V10.2238H1477.5V17.8893H1490Z" fill="#13264C"/>
<path d="M2030.54 17.8893V7.66967H2038.01V12.781H2040.5V5.11251H2028.05V15.3351H2020.58V10.2238H2018.1V17.8893H2030.54Z" fill="#13264C"/>
<path d="M2045.48 17.8893V7.66967H2052.95V12.781H2055.44V5.11251H2042.99V15.3351H2035.52V10.2238H2033.03V17.8893H2045.48Z" fill="#13264C"/>
<path d="M2015.61 17.8893V7.66967H2023.07V12.781H2025.56V5.11251H2013.11V15.3351H2005.65V10.2238H2003.16V17.8893H2015.61Z" fill="#13264C"/>
<path d="M2000.66 17.8893V7.66967H2008.14V12.781H2010.62V5.11251H1998.18V15.3351H1990.71V10.2238H1988.22V17.8893H2000.66Z" fill="#13264C"/>
<path d="M2075.36 17.8893V7.66967H2082.82V12.781H2085.31V5.11251H2072.86V15.3351H2065.4V10.2238H2062.91V17.8893H2075.36Z" fill="#13264C"/>
<path d="M2142.58 12.781H2145.06V5.11251H2132.62V15.3351H2125.15V10.2238H2122.66V17.8893H2135.11V7.66967H2142.58V12.781Z" fill="#13264C"/>
<path d="M2060.42 17.8893V7.66967H2067.89V12.781H2070.38V5.11251H2057.93V15.3351H2050.46V10.2238H2047.97V17.8893H2060.42Z" fill="#13264C"/>
<path d="M2105.23 17.8893V7.66967H2112.7V12.781H2115.19V5.11251H2102.74V15.3351H2095.27V10.2238H2092.78V17.8893H2105.23Z" fill="#13264C"/>
<path d="M2090.3 17.8893V7.66967H2097.76V12.781H2100.25V5.11251H2087.8V15.3351H2080.34V10.2238H2077.85V17.8893H2090.3Z" fill="#13264C"/>
<path d="M2120.17 17.8893V7.66967H2127.64V12.781H2130.13V5.11251H2117.68V15.3351H2110.21V10.2238H2107.72V17.8893H2120.17Z" fill="#13264C"/>
<path d="M2155.02 15.3351V10.2238H2152.53V17.8893H2160V15.3351H2155.02Z" fill="#13264C"/>
<path d="M2147.55 5.11251V15.3351H2140.09V10.2238H2137.6V17.8893H2150.05V7.66967H2157.51V12.781H2160V5.11251H2147.55Z" fill="#13264C"/>
<path d="M2159.98 2.55716V0H1921V2.55716H2159.98Z" fill="#13264C"/>
<path d="M1925.98 17.8893V7.66967H1933.45V12.781H1935.94V5.11251H1923.49V15.3351H1921V17.8893H1925.98Z" fill="#13264C"/>
<path d="M1930.96 10.2238H1928.47V17.8893H1940.91V7.66967H1948.38V12.781H1950.87V5.11251H1938.42V15.3351H1930.96V10.2238Z" fill="#13264C"/>
<path d="M1955.86 17.8893V7.66967H1963.32V12.781H1965.81V5.11251H1953.36V15.3351H1945.9V10.2238H1943.41V17.8893H1955.86Z" fill="#13264C"/>
<path d="M1985.73 17.8893V7.66967H1993.2V12.781H1995.69V5.11251H1983.24V15.3351H1975.77V10.2238H1973.28V17.8893H1985.73Z" fill="#13264C"/>
<path d="M1921 20.4425V23H2159.98V20.4425H1921Z" fill="#13264C"/>
<path d="M1970.79 17.8893V7.66967H1978.26V12.781H1980.75V5.11251H1968.3V15.3351H1960.83V10.2238H1958.34V17.8893H1970.79Z" fill="#13264C"/>
<path d="M2750 17.8893V7.66967H2757.5V12.781H2760V5.11251H2747.5V15.3351H2740V10.2238H2737.5V17.8893H2750Z" fill="#13264C"/>
<path d="M2765 17.8893V7.66967H2772.5V12.781H2775V5.11251H2762.5V15.3351H2755V10.2238H2752.5V17.8893H2765Z" fill="#13264C"/>
<path d="M2735 17.8893V7.66967H2742.5V12.781H2745V5.11251H2732.5V15.3351H2725V10.2238H2722.5V17.8893H2735Z" fill="#13264C"/>
<path d="M2720 17.8893V7.66967H2727.5V12.781H2730V5.11251H2717.5V15.3351H2710V10.2238H2707.5V17.8893H2720Z" fill="#13264C"/>
<path d="M2795 17.8893V7.66967H2802.5V12.781H2805V5.11251H2792.5V15.3351H2785V10.2238H2782.5V17.8893H2795Z" fill="#13264C"/>
<path d="M2862.5 12.781H2865V5.11251H2852.5V15.3351H2845V10.2238H2842.51V17.8893H2855.01V7.66967H2862.5V12.781Z" fill="#13264C"/>
<path d="M2780 17.8893V7.66967H2787.5V12.781H2790V5.11251H2777.5V15.3351H2770V10.2238H2767.5V17.8893H2780Z" fill="#13264C"/>
<path d="M2825 17.8893V7.66967H2832.5V12.781H2835V5.11251H2822.5V15.3351H2815V10.2238H2812.5V17.8893H2825Z" fill="#13264C"/>
<path d="M2810 17.8893V7.66967H2817.5V12.781H2820V5.11251H2807.5V15.3351H2800V10.2238H2797.5V17.8893H2810Z" fill="#13264C"/>
<path d="M2840 17.8893V7.66967H2847.5V12.781H2850V5.11251H2837.5V15.3351H2830.01V10.2238H2827.5V17.8893H2840Z" fill="#13264C"/>
<path d="M2875 15.3351V10.2238H2872.5V17.8893H2880V15.3351H2875Z" fill="#13264C"/>
<path d="M2867.5 5.11251V15.3351H2860V10.2238H2857.5V17.8893H2870V7.66967H2877.5V12.781H2880V5.11251H2867.5Z" fill="#13264C"/>
<path d="M2879.98 2.55716V0H2640V2.55716H2879.98Z" fill="#13264C"/>
<path d="M2645 17.8893V7.66967H2652.5V12.781H2655V5.11251H2642.5V15.3351H2640V17.8893H2645Z" fill="#13264C"/>
<path d="M2650 10.2238H2647.5V17.8893H2660V7.66967H2667.5V12.781H2670V5.11251H2657.5V15.3351H2650V10.2238Z" fill="#13264C"/>
<path d="M2675 17.8893V7.66967H2682.5V12.781H2685V5.11251H2672.5V15.3351H2665V10.2238H2662.5V17.8893H2675Z" fill="#13264C"/>
<path d="M2705 17.8893V7.66967H2712.5V12.781H2715V5.11251H2702.5V15.3351H2695V10.2238H2692.5V17.8893H2705Z" fill="#13264C"/>
<path d="M2640 20.4425V23H2879.98V20.4425H2640Z" fill="#13264C"/>
<path d="M2690 17.8893V7.66967H2697.5V12.781H2700V5.11251H2687.5V15.3351H2680V10.2238H2677.5V17.8893H2690Z" fill="#13264C"/>
<path d="M1790.46 17.8893V7.66967H1797.99V12.781H1800.5V5.11251H1787.95V15.3351H1780.42V10.2238H1777.91V17.8893H1790.46Z" fill="#13264C"/>
<path d="M1805.52 17.8893V7.66967H1813.06V12.781H1815.56V5.11251H1803.01V15.3351H1795.48V10.2238H1792.97V17.8893H1805.52Z" fill="#13264C"/>
<path d="M1775.4 17.8893V7.66967H1782.93V12.781H1785.44V5.11251H1772.88V15.3351H1765.36V10.2238H1762.85V17.8893H1775.4Z" fill="#13264C"/>
<path d="M1760.33 17.8893V7.66967H1767.87V12.781H1770.37V5.11251H1757.82V15.3351H1750.29V10.2238H1747.78V17.8893H1760.33Z" fill="#13264C"/>
<path d="M1835.65 17.8893V7.66967H1843.18V12.781H1845.69V5.11251H1833.14V15.3351H1825.61V10.2238H1823.1V17.8893H1835.65Z" fill="#13264C"/>
<path d="M1903.43 12.781H1905.94V5.11251H1893.39V15.3351H1885.86V10.2238H1883.35V17.8893H1895.9V7.66967H1903.43V12.781Z" fill="#13264C"/>
<path d="M1820.58 17.8893V7.66967H1828.12V12.781H1830.63V5.11251H1818.07V15.3351H1810.55V10.2238H1808.03V17.8893H1820.58Z" fill="#13264C"/>
<path d="M1865.77 17.8893V7.66967H1873.31V12.781H1875.82V5.11251H1863.26V15.3351H1855.73V10.2238H1853.22V17.8893H1865.77Z" fill="#13264C"/>
<path d="M1850.71 17.8893V7.66967H1858.24V12.781H1860.75V5.11251H1848.2V15.3351H1840.67V10.2238H1838.16V17.8893H1850.71Z" fill="#13264C"/>
<path d="M1880.83 17.8893V7.66967H1888.37V12.781H1890.88V5.11251H1878.32V15.3351H1870.8V10.2238H1868.28V17.8893H1880.83Z" fill="#13264C"/>
<path d="M1915.98 15.3351V10.2238H1913.47V17.8893H1921V15.3351L1915.98 15.3351Z" fill="#13264C"/>
<path d="M1908.45 5.11251V15.3351H1900.92V10.2238H1898.41V17.8893H1910.96V7.66967H1918.49V12.781H1921V5.11251H1908.45Z" fill="#13264C"/>
<path d="M1920.98 2.55716V0H1680V2.55716H1920.98Z" fill="#13264C"/>
<path d="M1685.02 17.8893V7.66967H1692.55V12.781H1695.06V5.11251H1682.51V15.3351L1680 15.3351V17.8893H1685.02Z" fill="#13264C"/>
<path d="M1690.04 10.2238H1687.53V17.8893H1700.08V7.66967H1707.61V12.781H1710.12V5.11251H1697.57V15.3351H1690.04V10.2238Z" fill="#13264C"/>
<path d="M1715.15 17.8893V7.66967H1722.68V12.781H1725.18V5.11251H1712.63V15.3351H1705.1V10.2238H1702.6V17.8893H1715.15Z" fill="#13264C"/>
<path d="M1745.27 17.8893V7.66967H1752.8V12.781H1755.31V5.11251H1742.76V15.3351H1735.23V10.2238H1732.72V17.8893H1745.27Z" fill="#13264C"/>
<path d="M1680 20.4425V23H1920.98V20.4425H1680Z" fill="#13264C"/>
<path d="M1730.21 17.8893V7.66967H1737.74V12.781H1740.25V5.11251H1727.69V15.3351H1720.17V10.2238H1717.66V17.8893H1730.21Z" fill="#13264C"/>
<path d="M2509.46 17.8893V7.66967H2516.99V12.781H2519.5V5.11251H2506.95V15.3351H2499.42V10.2238H2496.91V17.8893H2509.46Z" fill="#13264C"/>
<path d="M2524.52 17.8893V7.66967H2532.06V12.781H2534.56V5.11251H2522.01V15.3351H2514.48V10.2238H2511.97V17.8893H2524.52Z" fill="#13264C"/>
<path d="M2494.4 17.8893V7.66967H2501.93V12.781H2504.44V5.11251H2491.88V15.3351H2484.36V10.2238H2481.85V17.8893H2494.4Z" fill="#13264C"/>
<path d="M2479.33 17.8893V7.66967H2486.87V12.781H2489.37V5.11251H2476.82V15.3351H2469.29V10.2238H2466.78V17.8893H2479.33Z" fill="#13264C"/>
<path d="M2554.65 17.8893V7.66967H2562.18V12.781H2564.69V5.11251H2552.14V15.3351H2544.61V10.2238H2542.1V17.8893H2554.65Z" fill="#13264C"/>
<path d="M2622.43 12.781H2624.94V5.11251H2612.39V15.3351H2604.86V10.2238H2602.35V17.8893H2614.9V7.66967H2622.43V12.781Z" fill="#13264C"/>
<path d="M2539.58 17.8893V7.66967H2547.12V12.781H2549.63V5.11251H2537.07V15.3351H2529.55V10.2238H2527.03V17.8893H2539.58Z" fill="#13264C"/>
<path d="M2584.77 17.8893V7.66967H2592.31V12.781H2594.82V5.11251H2582.26V15.3351H2574.73V10.2238H2572.22V17.8893H2584.77Z" fill="#13264C"/>
<path d="M2569.71 17.8893V7.66967H2577.24V12.781H2579.75V5.11251H2567.2V15.3351H2559.67V10.2238H2557.16V17.8893H2569.71Z" fill="#13264C"/>
<path d="M2599.83 17.8893V7.66967H2607.37V12.781H2609.88V5.11251H2597.32V15.3351H2589.8V10.2238H2587.28V17.8893H2599.83Z" fill="#13264C"/>
<path d="M2634.98 15.3351V10.2238H2632.47V17.8893H2640V15.3351L2634.98 15.3351Z" fill="#13264C"/>
<path d="M2627.45 5.11251V15.3351H2619.92V10.2238H2617.41V17.8893H2629.96V7.66967H2637.49V12.781H2640V5.11251H2627.45Z" fill="#13264C"/>
<path d="M2639.98 2.55716V0H2399V2.55716H2639.98Z" fill="#13264C"/>
<path d="M2404.02 17.8893V7.66967H2411.55V12.781H2414.06V5.11251H2401.51V15.3351H2399V17.8893H2404.02Z" fill="#13264C"/>
<path d="M2409.04 10.2238H2406.53V17.8893H2419.08V7.66967H2426.61V12.781H2429.12V5.11251H2416.57V15.3351H2409.04V10.2238Z" fill="#13264C"/>
<path d="M2434.15 17.8893V7.66967H2441.68V12.781H2444.18V5.11251H2431.63V15.3351H2424.1V10.2238H2421.6V17.8893H2434.15Z" fill="#13264C"/>
<path d="M2464.27 17.8893V7.66967H2471.8V12.781H2474.31V5.11251H2461.76V15.3351H2454.23V10.2238H2451.72V17.8893H2464.27Z" fill="#13264C"/>
<path d="M2399 20.4425V23H2639.98V20.4425H2399Z" fill="#13264C"/>
<path d="M2449.21 17.8893V7.66967H2456.74V12.781H2459.25V5.11251H2446.69V15.3351H2439.17V10.2238H2436.66V17.8893H2449.21Z" fill="#13264C"/>
<path d="M2269.54 17.8893V7.66967H2277.01V12.781H2279.5V5.11251H2267.05V15.3351H2259.58V10.2238H2257.1V17.8893H2269.54Z" fill="#13264C"/>
<path d="M2284.48 17.8893V7.66967H2291.95V12.781H2294.44V5.11251H2281.99V15.3351H2274.52V10.2238H2272.03V17.8893H2284.48Z" fill="#13264C"/>
<path d="M2254.61 17.8893V7.66967H2262.07V12.781H2264.56V5.11251H2252.11V15.3351H2244.65V10.2238H2242.16V17.8893H2254.61Z" fill="#13264C"/>
<path d="M2239.66 17.8893V7.66967H2247.14V12.781H2249.62V5.11251H2237.18V15.3351H2229.71V10.2238H2227.22V17.8893H2239.66Z" fill="#13264C"/>
<path d="M2314.36 17.8893V7.66967H2321.82V12.781H2324.31V5.11251H2311.86V15.3351H2304.4V10.2238H2301.91V17.8893H2314.36Z" fill="#13264C"/>
<path d="M2381.58 12.781H2384.06V5.11251H2371.62V15.3351H2364.15V10.2238H2361.66V17.8893H2374.11V7.66967H2381.58V12.781Z" fill="#13264C"/>
<path d="M2299.42 17.8893V7.66967H2306.89V12.781H2309.38V5.11251H2296.93V15.3351H2289.46V10.2238H2286.97V17.8893H2299.42Z" fill="#13264C"/>
<path d="M2344.23 17.8893V7.66967H2351.7V12.781H2354.19V5.11251H2341.74V15.3351H2334.27V10.2238H2331.78V17.8893H2344.23Z" fill="#13264C"/>
<path d="M2329.3 17.8893V7.66967H2336.76V12.781H2339.25V5.11251H2326.8V15.3351H2319.34V10.2238H2316.85V17.8893H2329.3Z" fill="#13264C"/>
<path d="M2359.17 17.8893V7.66967H2366.64V12.781H2369.13V5.11251H2356.68V15.3351H2349.21V10.2238H2346.72V17.8893H2359.17Z" fill="#13264C"/>
<path d="M2394.02 15.3351V10.2238H2391.53V17.8893H2399V15.3351L2394.02 15.3351Z" fill="#13264C"/>
<path d="M2386.55 5.11251V15.3351H2379.09V10.2238H2376.6V17.8893H2389.05V7.66967H2396.51V12.781H2399V5.11251H2386.55Z" fill="#13264C"/>
<path d="M2398.98 2.55716V0H2160V2.55716H2398.98Z" fill="#13264C"/>
<path d="M2164.98 17.8893V7.66967H2172.45V12.781H2174.94V5.11251H2162.49V15.3351L2160 15.3351V17.8893H2164.98Z" fill="#13264C"/>
<path d="M2169.96 10.2238H2167.47V17.8893H2179.91V7.66967H2187.38V12.781H2189.87V5.11251H2177.42V15.3351H2169.96V10.2238Z" fill="#13264C"/>
<path d="M2194.86 17.8893V7.66967H2202.32V12.781H2204.81V5.11251H2192.36V15.3351H2184.9V10.2238H2182.41V17.8893H2194.86Z" fill="#13264C"/>
<path d="M2224.73 17.8893V7.66967H2232.2V12.781H2234.69V5.11251H2222.24V15.3351H2214.77V10.2238H2212.28V17.8893H2224.73Z" fill="#13264C"/>
<path d="M2160 20.4425V23H2398.98V20.4425H2160Z" fill="#13264C"/>
<path d="M2209.79 17.8893V7.66967H2217.26V12.781H2219.75V5.11251H2207.3V15.3351H2199.83V10.2238H2197.34V17.8893H2209.79Z" fill="#13264C"/>
</svg>
