<svg width="125" height="125" viewBox="0 0 125 125" fill="none" xmlns="http://www.w3.org/2000/svg">
<path d="M124.999 32.2236V30.027C124.121 27.4848 122.474 25.8424 119.956 25.6219C120.423 23.9119 121.012 22.2754 121.284 20.586C121.525 19.0819 120.696 18.3232 119.16 18.3144C116.279 18.2967 113.398 18.3099 110.35 18.3099V16.9543C110.35 12.1596 110.324 7.36338 110.371 2.56866C110.381 1.44827 110.097 0.5896 109.13 0H100.585C99.6132 0.58813 99.3339 1.44827 99.3442 2.57013C99.3912 7.3281 99.3647 12.0875 99.3647 16.847V18.3099C96.6048 18.3099 93.9301 18.4055 91.2657 18.2835C88.3778 18.1512 88.0352 19.7509 88.5469 21.699C88.8924 23.0165 89.435 24.2824 89.885 25.5601C85.8531 26.5114 84.2356 28.8125 84.9429 32.9558H83.5357C73.8956 32.9558 64.2541 32.9926 54.6155 32.9206C52.9657 32.9088 51.685 33.2896 50.6969 34.6026C50.3543 35.0584 49.9911 35.498 49.6955 35.8715C49.4088 35.7348 49.3588 35.7274 49.3397 35.698C47.5031 32.9603 44.7902 32.6383 41.8347 32.947C41.2759 33.0058 40.7069 32.9558 40.029 32.9558C40.4995 31.1341 40.329 29.4859 39.2938 28.0023C38.2527 26.5099 36.7647 25.7704 35.1663 25.6175C35.6427 24.0957 36.2515 22.6283 36.5426 21.1006C36.9191 19.1201 36.1162 18.3129 34.1017 18.3099C31.3388 18.3055 28.5759 18.3099 25.6351 18.3099V16.9705C25.6351 12.1713 25.6086 7.37074 25.6542 2.5716C25.6645 1.45121 25.3836 0.59107 24.4132 0H15.8686C14.8966 0.58813 14.6173 1.44974 14.6275 2.57013C14.6746 7.32957 14.6481 12.089 14.6481 16.847V18.3085C11.8867 18.3085 9.212 18.4041 6.54761 18.282C3.66559 18.1497 3.31857 19.745 3.83175 21.7005C4.17729 23.0179 4.71988 24.2839 5.1713 25.5616C1.69376 26.3732 -0.154555 28.4449 0.0101314 31.4546C0.186581 34.6805 2.19517 36.1523 7.25194 36.7184V88.3636C5.01984 88.2489 2.79363 88.368 1.38938 90.3161C0.690934 91.2851 0.158643 92.5628 0.0630664 93.742C-0.173671 96.6679 1.84227 98.7293 5.13012 99.3998C4.66253 100.833 4.05378 102.251 3.75381 103.73C3.32445 105.846 4.11848 106.679 6.26382 106.682C9.01938 106.685 11.7735 106.682 14.6481 106.682V108.106C14.6481 112.946 14.6437 117.786 14.6511 122.627C14.654 124.36 15.2731 124.981 16.9934 124.989C19.1094 124.998 21.2238 125.001 23.3398 124.989C24.9852 124.981 25.6292 124.344 25.6321 122.7C25.641 117.86 25.6351 113.019 25.6351 108.179C25.6351 107.737 25.6351 107.294 25.6351 106.684C27.5143 106.684 29.3273 106.684 31.1403 106.684C32.2799 106.684 33.4195 106.704 34.5576 106.678C35.9501 106.646 36.7867 105.896 36.572 104.531C36.2986 102.801 35.7221 101.12 35.2796 99.4307C39.2688 98.6426 40.8157 95.724 40.0952 92.0364C41.6538 92.0364 43.1978 91.9644 44.7329 92.0585C46.0268 92.1379 47.0297 91.7571 47.8281 90.7484C48.2825 90.1765 48.778 89.6369 49.2662 89.0708C49.597 89.3413 49.7896 89.4398 49.897 89.5957C51.4056 91.7879 53.5186 92.179 56.0551 92.0879C60.8898 91.9129 65.7363 91.9879 70.5754 92.0673C72.0356 92.0908 73.2016 91.785 74.0986 90.6043C74.4912 90.0882 74.944 89.6163 75.3425 89.1546C75.6234 89.2943 75.7631 89.3178 75.8204 89.4001C77.4614 91.7747 79.7626 92.4261 82.5079 92.0541C83.296 91.9467 84.1121 92.0379 84.9282 92.0379C84.3077 96.2886 85.9281 98.6103 89.8497 99.4013C89.3821 100.833 88.7733 102.248 88.4719 103.726C88.0411 105.844 88.8336 106.682 90.9731 106.685C93.7286 106.688 96.4842 106.685 99.3647 106.685V108.101C99.3647 112.942 99.3603 117.782 99.3677 122.622C99.3706 124.359 99.9882 124.983 101.701 124.992C103.817 125.003 105.932 125.003 108.048 124.992C109.697 124.983 110.344 124.35 110.347 122.71C110.356 117.87 110.35 113.03 110.35 108.189V106.687C111.613 106.687 112.815 106.687 114.017 106.687C115.767 106.687 117.516 106.706 119.265 106.679C120.659 106.657 121.502 105.902 121.287 104.542C121.015 102.811 120.439 101.129 119.981 99.3733C122.465 99.1469 124.121 97.5119 125 94.9682V92.7716C123.416 89.1781 122.763 88.7708 117.754 88.293V36.5964C121.259 37.0037 123.828 35.7274 124.999 32.2236ZM103.125 3.70963H106.611V18.2394H103.125V3.70963ZM117.088 22.0005C116.891 23.931 114.678 25.5925 112.172 25.6219C108.884 25.6601 105.595 25.6336 102.307 25.6336C100.684 25.6336 99.0589 25.616 97.4356 25.6307C95.427 25.6483 92.8876 24.0222 92.5391 22.0005H117.088ZM18.3962 3.71698H21.9076V18.21H18.3962V3.71698ZM32.374 22.0005C32.1696 23.9354 29.9596 25.5925 27.4555 25.6219C24.1676 25.6601 20.8783 25.6336 17.5904 25.6336C15.9671 25.6336 14.3423 25.616 12.7189 25.6307C10.7118 25.6483 8.168 24.0192 7.82687 22.0005H32.374ZM6.47408 32.9558C6.10795 32.9558 5.73888 32.9794 5.37715 32.9397C4.34492 32.825 3.60677 32.0295 3.67882 31.0621C3.75528 30.0299 4.36109 29.4432 5.38009 29.3109C5.70064 29.2683 6.03002 29.2947 6.35498 29.2947C10.95 29.2947 15.5451 29.2947 20.1401 29.2947C24.7352 29.2947 29.3302 29.2947 33.9253 29.2947C34.2503 29.2947 34.5796 29.2683 34.9002 29.3109C35.9207 29.4462 36.5235 30.0343 36.6 31.0665C36.672 32.0295 35.9309 32.8559 34.8972 32.9338C34.0473 32.9985 33.1901 32.9558 32.3358 32.9558C23.7147 32.9558 15.0951 32.9558 6.47408 32.9558ZM21.8943 121.303H18.408V106.772H21.8943V121.303ZM7.84157 102.954C8.3474 100.992 10.2354 99.4292 12.4381 99.3983C17.5522 99.3263 22.6693 99.3572 27.7848 99.3822C29.7155 99.391 32.0682 100.983 32.4681 102.954H7.84157ZM34.9017 95.674C34.1753 95.7358 33.4386 95.6961 32.7063 95.6961C23.9632 95.6961 15.2201 95.6961 6.47703 95.6961C6.11089 95.6961 5.74182 95.7196 5.38009 95.6799C4.34639 95.5667 3.60824 94.7712 3.67735 93.8052C3.75234 92.7731 4.35668 92.1849 5.37568 92.0511C5.69623 92.0085 6.02561 92.035 6.35057 92.035C10.9456 92.035 15.5407 92.035 20.1357 92.035C24.7308 92.035 29.3258 92.035 33.9209 92.035C34.2458 92.035 34.5752 92.0085 34.8958 92.0511C35.9162 92.1849 36.5206 92.7716 36.5985 93.8023C36.672 94.7654 35.9324 95.5873 34.8987 95.674H34.9017ZM80.911 88.343C80.3787 88.3342 79.7641 88.0415 79.3435 87.6916C78.5025 86.9932 77.7878 86.1434 76.9879 85.392C75.9807 84.4466 75.1323 84.4701 74.1044 85.4185C74.0442 85.4729 73.975 85.5229 73.9309 85.5891C72.2782 88.0268 69.9755 88.5915 67.1185 88.4312C63.0219 88.2003 58.9033 88.3959 54.7949 88.343C54.2626 88.3356 53.6436 88.046 53.2245 87.696C52.3555 86.9668 51.6174 86.0831 50.7807 85.3126C49.872 84.4745 49.0044 84.504 48.0707 85.3273C47.9795 85.4082 47.8796 85.4861 47.8119 85.5861C46.1268 88.0724 43.7712 88.6914 40.8774 88.4209C38.3763 88.1871 35.8383 88.3636 33.3151 88.3533C33.2416 88.3533 33.1695 88.3047 32.9578 88.2283V86.977C32.9578 80.2238 32.9842 73.4706 32.9181 66.7189C32.9107 66.0102 32.5416 65.0692 32.0108 64.6516C30.8507 63.7371 29.3229 64.7428 29.3052 66.366C29.2729 69.417 29.295 72.4679 29.295 75.5188C29.295 79.746 29.295 83.9717 29.295 88.3268H11.0588V36.6787H29.2964V37.9608C29.2964 44.6317 29.2964 51.304 29.2964 57.9749C29.2964 58.341 29.2597 58.7159 29.3273 59.0703C29.5082 60.0231 30.0919 60.6024 31.0815 60.62C32.1299 60.6391 32.7431 60.048 32.9298 59.0379C32.9945 58.6821 32.9578 58.3072 32.9578 57.9411C32.9578 51.3099 32.9578 44.6802 32.9578 38.0491V36.6199C36.9235 36.6199 40.7774 36.6081 44.6285 36.642C44.9343 36.6449 45.2843 36.914 45.5313 37.1463C46.3606 37.927 47.137 38.7607 47.9604 39.5473C49.0118 40.5515 49.8573 40.5354 50.9336 39.537C50.963 39.5091 50.9998 39.4856 51.0218 39.4532C52.7202 36.9081 55.139 36.5126 58.0534 36.5552C68.8315 36.7125 79.6141 36.6184 90.3952 36.6184H91.945V88.2944C91.6583 88.3194 91.348 88.3694 91.0378 88.3694C87.6617 88.3753 84.2841 88.4018 80.9081 88.343H80.911ZM106.604 121.274H103.089V106.781H106.604V121.274ZM92.6258 102.992C92.814 101.075 95.0476 99.3983 97.54 99.3704C100.991 99.3336 104.442 99.3586 107.893 99.3586C109.396 99.3586 110.897 99.366 112.4 99.3689C114.228 99.3733 116.761 100.852 117.179 102.992H92.6258ZM118.64 92.035C118.965 92.035 119.295 92.0085 119.615 92.0511C120.636 92.1849 121.239 92.7731 121.317 93.8038C121.389 94.7668 120.649 95.5902 119.615 95.674C118.848 95.7372 118.071 95.6961 117.298 95.6961C108.596 95.6961 99.8941 95.6961 91.1907 95.6961C90.8246 95.6961 90.4555 95.7196 90.0938 95.6799C89.0601 95.5652 88.3219 94.7712 88.394 93.8038C88.4704 92.7716 89.0748 92.1849 90.0938 92.0497C90.4143 92.007 90.7437 92.0335 91.0686 92.0335C95.6637 92.0335 100.259 92.0335 104.854 92.0335C109.449 92.0335 114.044 92.0335 118.639 92.0335L118.64 92.035ZM95.7549 88.2856V36.6846H113.916V88.2856H95.7549ZM117.423 32.9573C108.68 32.9573 99.9367 32.9573 91.1936 32.9573C90.8275 32.9573 90.4584 32.9808 90.0967 32.9411C89.063 32.8279 88.3249 32.034 88.394 31.068C88.4689 30.0343 89.0718 29.4477 90.0923 29.3124C90.4128 29.2697 90.7422 29.2962 91.0672 29.2962C95.6622 29.2962 100.257 29.2962 104.852 29.2962C109.447 29.2962 114.042 29.2962 118.637 29.2962C118.962 29.2962 119.292 29.2697 119.612 29.3124C120.633 29.4462 121.237 30.0328 121.315 31.0635C121.389 32.0281 120.649 32.8485 119.615 32.9353C118.889 32.997 118.152 32.9573 117.42 32.9573H117.423Z" fill="#13264C"/>
</svg>
