<svg width="125" height="125" viewBox="0 0 125 125" fill="none" xmlns="http://www.w3.org/2000/svg">
<path d="M124.052 51.6871C119.981 27.3531 101.048 7.21515 76.9856 1.7158C73.8305 0.994609 70.5783 0.699029 67.3717 0.201399C67.0552 0.15219 66.7446 0.0677846 66.4311 0H58.6219C58.268 0.0707176 57.916 0.156752 57.5594 0.209872C54.5891 0.651775 51.5788 0.908249 48.6535 1.55285C13.9982 9.19003 -7.42494 45.2945 2.38641 79.4449C12.2812 113.886 48.6316 133.298 82.4567 121.571C105.415 113.612 119.235 97.107 124.042 73.2169C124.497 70.9572 124.687 68.6447 125 66.3566V58.55C124.687 56.2619 124.434 53.9637 124.052 51.6871ZM62.4735 121.247C30.0611 121.215 3.68103 94.7812 3.71428 62.3687C3.74785 29.9791 30.2185 3.60464 62.6388 3.65907C95.0487 3.71349 121.407 30.1769 121.338 62.5939C121.27 94.9379 94.8345 121.279 62.4735 121.247Z" fill="#13264C"/>
<path d="M96.4837 24.2447C96.239 22.6801 95.9945 21.1155 95.7413 19.5522C95.4652 17.8469 94.7876 17.345 93.0454 17.5982C91.3975 17.8377 89.7541 18.1105 88.1101 18.3751C85.8846 18.7333 84.4528 18.0776 83.2934 16.1604C80.9277 12.2478 77.1374 11.0192 72.925 12.7992C70.913 13.6494 69.3743 13.3675 67.8088 11.8303C66.5614 10.6056 65.347 9.34705 64.0931 8.12855C62.9406 7.0088 62.0984 7.01858 60.9423 8.14974C59.6346 9.42917 58.3628 10.7454 57.0493 12.019C55.6774 13.3489 54.0194 13.7003 52.334 12.8676C48.0345 10.7435 43.428 12.7731 41.5855 16.3791C40.7035 18.105 39.0585 18.7261 37.1508 18.4204C35.3862 18.1379 33.6252 17.8266 31.8547 17.5848C30.2507 17.3655 29.5796 17.8902 29.3215 19.4587C29.0777 20.9412 28.8218 22.4223 28.61 23.9093C28.1931 26.8374 27.3268 27.8053 24.423 28.5135C20.4928 29.4719 18.0121 33.0707 18.5004 37.1058C18.7566 39.2231 18.0011 40.7225 16.108 41.7302C14.5311 42.5693 12.9243 43.3518 11.3392 44.1763C9.9553 44.8962 9.67206 45.7666 10.3735 47.1803C11.1495 48.7439 11.9595 50.2906 12.746 51.849C13.6925 53.7235 13.4679 55.4184 12.0677 57.0189C9.06908 60.4462 9.0769 64.4592 12.0856 67.9071C13.4865 69.5128 13.6811 71.2132 12.7359 73.0816C11.9478 74.6393 11.1365 76.1853 10.3617 77.7492C9.66912 79.1476 9.96443 80.0148 11.364 80.7412C12.9859 81.5827 14.6335 82.3752 16.2413 83.2421C17.9949 84.1875 18.7435 85.7172 18.5131 87.7041C18.4711 88.0668 18.4241 88.4289 18.386 88.7388C18.4143 89.0787 18.4257 89.3636 18.4632 89.6448C18.9332 93.1637 21.16 95.5971 24.6841 96.4483C27.1866 97.0529 28.1657 98.1143 28.5663 100.654C28.813 102.219 29.0559 103.783 29.3098 105.347C29.5875 107.056 30.2625 107.56 32.0004 107.308C33.6486 107.07 35.2917 106.797 36.936 106.532C39.1674 106.173 40.595 106.823 41.756 108.738C44.1265 112.647 47.9208 113.89 52.1234 112.101C54.0657 111.274 55.7582 111.563 57.2471 113.069C58.4762 114.312 59.7083 115.553 60.9599 116.773C62.1072 117.892 62.953 117.889 64.1123 116.759C65.4223 115.482 66.6915 114.163 68.0027 112.887C69.3736 111.553 71.0294 111.205 72.7158 112.037C76.9764 114.138 81.5845 112.178 83.4652 108.525C84.3537 106.799 85.9856 106.177 87.8986 106.484C89.6632 106.768 91.4242 107.078 93.1944 107.321C94.7921 107.54 95.4727 107.009 95.7305 105.446C95.975 103.964 96.2302 102.482 96.4427 100.995C96.8618 98.0618 97.7158 97.107 100.626 96.3907C104.56 95.4225 107.033 91.8354 106.552 87.7977C106.297 85.6651 107.053 84.1761 108.944 83.1785C110.524 82.3452 112.131 81.5628 113.712 80.7318C115.099 80.0031 115.377 79.1313 114.678 77.7228C113.885 76.1224 113.047 74.5438 112.256 72.9424C111.372 71.153 111.59 69.5111 112.905 67.9785C116.004 64.3673 115.993 60.5417 112.885 56.9016C111.575 55.3666 111.378 53.7199 112.269 51.9331C113.029 50.4069 113.814 48.8932 114.58 47.3697C115.416 45.706 115.151 44.9151 113.468 44.0459C111.989 43.2821 110.499 42.541 109.025 41.7667C107.046 40.7261 106.304 39.2736 106.545 37.0742C106.612 36.4736 106.649 35.8521 106.573 35.2564C106.124 31.7336 103.887 29.3047 100.362 28.4545C97.8739 27.8545 96.8794 26.7726 96.4837 24.2447ZM102.874 37.0182C102.484 40.2001 104.074 43.2537 106.978 44.8356C108.184 45.4926 109.42 46.0951 110.766 46.7867C110.115 48.0661 109.537 49.179 108.98 50.3027C107.407 53.4791 107.833 56.6865 110.171 59.3561C112.016 61.4617 112.02 63.4503 110.183 65.5389C107.838 68.2063 107.405 71.4094 108.973 74.5872C109.528 75.7128 110.11 76.8257 110.757 78.0963C109.689 78.6562 108.671 79.2017 107.643 79.7274C103.976 81.6025 102.532 84.2514 102.952 88.3504C103.169 90.4683 101.83 92.3291 99.6978 92.874C95.254 94.0091 93.4408 96.0348 92.7997 100.566C92.669 101.489 92.5099 102.407 92.344 103.455C90.9731 103.252 89.6593 103.069 88.349 102.863C85.028 102.342 82.017 103.754 80.2814 106.659C78.7137 109.283 77.0051 109.801 74.1251 108.637C70.9626 107.359 68.0555 107.842 65.5468 110.18C64.5445 111.114 63.6733 112.189 62.6104 113.343C61.5945 112.29 60.7985 111.435 59.9687 110.612C57.1859 107.855 54.1983 107.277 50.6127 108.781C48.1893 109.798 46.2559 109.155 44.9091 106.885C43.0082 103.68 40.1954 102.351 36.4836 102.904C35.2832 103.083 34.0831 103.263 32.7389 103.463C32.5069 102.111 32.2865 100.808 32.0594 99.5062C31.4499 96.0117 29.2002 93.6799 25.7336 92.9447C23.1473 92.3959 21.8266 90.5768 22.1541 88.0137C22.5687 84.7672 21.0623 81.7407 18.1852 80.1341C16.9502 79.4445 15.6752 78.827 14.2971 78.1139C14.8897 76.9404 15.4578 75.8311 16.0119 74.7146C17.6644 71.3869 17.255 68.2721 14.8033 65.4613C13.0667 63.4708 13.0605 61.4392 14.7847 59.4595C17.2794 56.5952 17.6666 53.5162 15.962 50.1045C15.4222 49.0245 14.8844 47.9436 14.3075 46.7863C15.5477 46.1381 16.6895 45.5359 17.8358 44.9431C20.9889 43.3127 22.5798 40.3025 22.1375 36.7933C21.8412 34.4433 23.1554 32.4887 25.4735 32.0138C29.3208 31.2255 31.504 28.9039 32.1236 25.0581C32.3103 23.8976 32.5049 22.7384 32.7168 21.4521C34.0808 21.6532 35.3947 21.838 36.7056 22.042C39.9868 22.553 42.9923 21.1709 44.7155 18.3484C46.3964 15.5953 48.0052 15.0876 50.9292 16.2676C54.0927 17.5441 56.9997 17.0549 59.5088 14.7209C60.5117 13.7882 61.3813 12.7125 62.4624 11.538C63.5341 12.6607 64.375 13.5875 65.2649 14.4648C67.859 17.0227 71.0023 17.6047 74.3337 16.175C76.8904 15.0778 78.7671 15.7019 80.2048 18.1268C82.0105 21.1722 84.9492 22.5592 88.4523 22.0228C89.6919 21.8331 90.9324 21.65 92.317 21.442C92.5542 22.8375 92.7785 24.1811 93.0119 25.5235C93.5881 28.8374 95.9036 31.2356 99.204 31.9441C101.978 32.5395 103.214 34.2481 102.874 37.0182Z" fill="#13264C"/>
<path d="M62.6235 19.9668C39.1811 19.8817 20.1102 38.8591 20.0277 62.354C19.9456 85.7856 38.9252 104.847 62.4295 104.939C85.8592 105.03 104.944 86.0362 105.025 62.5472C105.105 39.1078 86.1297 20.0521 62.6235 19.9668ZM62.5557 101.279C41.1038 101.304 23.6854 83.9023 23.6883 62.4488C23.6913 41.0354 40.9962 23.6975 62.4377 23.6258C83.8843 23.5541 101.318 40.9158 101.364 62.3921C101.411 83.8378 84.0294 101.255 62.5557 101.279Z" fill="#13264C"/>
<path d="M53.0608 28.6028C50.3506 29.3598 47.7884 30.6797 45.2067 31.8473C44.1562 32.3225 43.9078 33.4155 44.3935 34.3234C44.8716 35.2173 45.8683 35.507 46.9162 35.0466C47.1385 34.9488 47.3448 34.8152 47.5603 34.7014C54.0784 31.2597 60.9622 30.2087 68.2279 31.4484C85.4139 34.3801 97.1962 51.9194 93.3864 68.9415C89.3073 87.1664 71.4449 97.7861 53.4829 92.6651C38.4393 88.3764 28.5943 72.4575 31.4466 57.1346C32.7386 50.1938 35.8748 44.2933 40.9878 39.4297C42.0207 38.4472 42.15 37.3555 41.3949 36.546C40.6028 35.697 39.5426 35.7466 38.5116 36.7477C29.7732 45.2325 26.0292 55.5736 27.7361 67.5978C30.1944 84.9116 45.0851 97.6056 62.5205 97.7558C64.4973 97.5446 66.4891 97.427 68.4479 97.1079C87.1544 94.0599 100.244 76.0256 97.3648 57.3132C94.1311 36.3015 73.5111 22.8909 53.0608 28.6028Z" fill="#13264C"/>
<path d="M83.0617 62.4648C83.0672 51.0959 73.9093 41.929 62.5397 41.9225C51.1677 41.9159 41.9978 51.0704 41.991 62.4371C41.9841 73.8027 51.1459 82.9752 62.5123 82.9827C73.8787 82.9902 83.0561 73.8265 83.0617 62.4648ZM45.6513 62.4309C45.6601 53.0737 53.2075 45.5603 62.5768 45.5815C71.8833 45.6027 79.3838 53.1053 79.4011 62.4107C79.4187 71.7734 71.8947 79.3187 62.5368 79.323C53.1778 79.3275 45.6425 71.7894 45.6513 62.4309Z" fill="#13264C"/>
<path d="M63.1557 73.9869C68.4717 75.8995 73.3562 72.4262 73.3086 66.7675C73.3044 66.2624 73.5241 65.6663 73.8344 65.2612C77.1042 60.9901 75.2522 55.1616 70.1242 53.5638C69.5737 53.3924 68.9854 52.9792 68.6591 52.5089C65.6452 48.1629 59.4935 48.1257 56.4391 52.4333C56.0848 52.9332 55.4779 53.3849 54.8958 53.572C49.9161 55.1734 47.9964 60.8089 51.0172 64.9937C51.4542 65.5988 51.6866 66.3516 52.0139 67.0363C51.7671 72.4021 56.782 75.8734 61.6945 74.0667C62.1375 73.9038 62.7294 73.8334 63.1557 73.9869ZM61.1121 70.2203C59.7161 71.1533 58.1382 71.0914 56.8961 70.1841C55.6588 69.2804 55.1279 67.8084 55.579 66.1796C55.8909 65.054 55.6367 64.2523 54.713 63.5187C53.3476 62.4345 52.9298 60.9931 53.4376 59.5171C53.9855 57.9252 55.1282 57.0518 56.8042 57.0019C58.032 56.9654 58.72 56.416 59.1304 55.2656C59.676 53.7369 60.8618 52.9775 62.1189 52.9127C64.0377 52.8967 65.3558 53.6912 65.8913 55.189C66.3179 56.3827 66.9998 56.9667 68.286 57.0075C69.9609 57.0606 71.1151 57.9503 71.6209 59.5559C72.1304 61.1733 71.6281 62.542 70.312 63.549C69.3596 64.2777 69.1767 65.1028 69.4841 66.2161C69.93 67.8305 69.3765 69.3097 68.1227 70.2053C66.8675 71.1015 65.3167 71.1484 63.9054 70.2007C62.9236 69.5411 62.0834 69.5711 61.1121 70.2203Z" fill="#13264C"/>
</svg>
