<svg width="506" height="981" viewBox="0 0 506 981" fill="none" xmlns="http://www.w3.org/2000/svg">
<mask id="mask0_359_1282" style="mask-type:alpha" maskUnits="userSpaceOnUse" x="0" y="0" width="506" height="981">
<rect width="505.007" height="980.697" transform="matrix(1 0 0 -1 0.993164 980.697)" fill="#2B3C5E"/>
</mask>
<g mask="url(#mask0_359_1282)">
<path d="M1007.35 516.111L983.136 514.866L983.609 502.693L995.728 503.003L995.89 490.511H971.648C971.599 502.385 971.14 514.252 970.26 526.088L1006.51 528.894C1005.7 537.773 1004.08 555.404 1002.02 567.065L966.094 561.436C963.84 575.014 962.432 582.557 959.159 596.342L982.736 601.966C983.773 597.927 984.586 593.838 985.495 589.771L973.636 587.271L976.009 575.321L999.852 579.699C997.966 589.196 995.233 603.505 991.367 617.204L944.524 604.722C949.57 586.943 953.201 566.429 955.771 548.131L991.831 552.818C992.046 551.377 991.984 551.822 993.293 540.405L957.124 536.659C958.83 520.027 959.455 507.231 959.527 490.512L959.376 478.951L1007.85 477.71L1008.01 490.512C1007.81 505.876 1007.98 499.997 1007.35 516.112L1007.35 516.111Z" fill="#2B3C5E"/>
<path d="M987.881 629.542C985.68 636.915 986.558 634.105 984.071 641.786C981.861 648.529 980.535 652.719 975.49 665.954L952.86 657.287C957.072 646.241 954.778 652.269 957.088 645.858L968.514 649.891C971.012 642.816 970.091 645.536 972.542 638.054L937.955 626.856C940.092 620.266 939.308 622.799 941.385 615.831L987.881 629.542Z" fill="#2B3C5E"/>
<path d="M916.519 680.436L949.331 696.067C949.331 696.067 953.761 686.632 954.581 684.714L921.367 669.95C926.302 658.498 931.218 647.538 937.955 626.856L949.484 630.589C945.81 641.871 941.737 653.029 937.135 663.972L970.726 677.86C965.086 690.948 964.224 693.427 954.581 712.773L922.193 696.287C916.754 706.841 910.923 717.193 904.712 727.315L925.371 739.963C926.5 738.197 927.156 737.06 931.797 729.231L921.305 723.179C923.345 719.665 925.294 716.098 927.294 712.56L948.588 724.111C937.819 743.201 939.23 740.726 928.826 757.114L888.187 730.749C902.792 707.743 907.201 699.273 916.518 680.434L916.519 680.436Z" fill="#2B3C5E"/>
<path d="M921.675 767.761C915.098 777.216 918.394 772.49 914.247 778.217C911.082 782.541 907.819 787.107 898.591 798.536L879.759 783.313C886.871 774.509 883.225 779.025 887.327 773.75L896.939 781.113C901.515 775.162 899.795 777.462 904.446 771.106L875.044 749.772C878.745 744.656 875.632 749.135 881.74 740.346L921.675 767.761Z" fill="#2B3C5E"/>
<path d="M838.017 794.146L864.391 819.108C870.507 812.559 871.622 811.387 872.895 809.928L845.878 785.66C854.073 776.339 862.284 767.262 875.043 749.773L884.843 756.884C877.842 766.48 870.497 775.831 862.729 784.826L890.37 808.385C879.101 821.201 879.567 820.882 864.224 836.614L838.51 810.977C830.07 819.347 821.319 827.403 812.281 835.125L828.035 853.498L837.46 845.259L829.346 836.28C830.599 835.195 830.955 834.853 838.321 828.015L855.012 845.545C846.094 853.855 833.981 864.623 826.032 870.877L795.497 833.327C806.348 824.816 821.985 810.907 838.017 794.146Z" fill="#2B3C5E"/>
<path d="M680.993 951.985C673.715 954.538 676.513 953.596 668.816 956.103C662.811 958.037 658.466 959.514 644.16 963.376L637.899 940.025C649.076 937.009 643.198 938.597 649.661 936.723L653.098 948.312C660.309 946.172 657.56 947.027 665.072 944.609L653.843 910.124C660.448 907.977 657.931 908.832 664.808 906.416L680.993 951.985Z" fill="#2B3C5E"/>
<path d="M728.216 878.263L745.596 910.111C749.237 908.067 752.907 906.071 756.523 903.985L738.312 872.603C752.941 863.977 763.395 857.389 777.124 847.4C782.741 843.317 780.614 844.909 786.402 840.482L815.946 878.813C809.826 883.488 812.192 881.73 805.656 886.486C793.387 895.316 789.729 897.572 784.491 901.023L771.268 880.764C774.665 878.523 778.095 876.333 781.419 873.983L788.293 883.937C797.621 877.489 792.939 880.731 798.523 876.714L784.258 857.171C776.952 862.485 770.181 867.279 754.601 876.98L773.63 907.876C768.2 911.328 755.717 918.578 740.016 926.7L723.481 894.409C712.877 899.797 702.052 904.743 691.069 909.307L700.355 931.635L711.875 926.7L706.938 915.662C709.032 914.773 710.297 914.163 718.034 910.561L728.486 932.371C717.412 937.538 702.536 944.065 693.056 947.549L675.671 902.421C693.482 895.906 711.448 887.113 728.216 878.263Z" fill="#2B3C5E"/>
<path d="M597.76 924.294L604.346 959.951L616.644 957.521L609.119 922.049C623.473 918.851 637.121 915.539 653.842 910.123L657.586 921.618C646.27 925.282 634.819 928.548 623.235 931.261L631.695 966.523C626.152 967.936 611.872 971.023 593.871 973.994L588.225 938.178C576.464 939.983 564.64 941.397 552.772 942.33L554.648 966.429C558.809 966.049 562.975 965.719 567.131 965.295L565.878 953.275C565.878 953.275 577.005 952.004 578.014 951.854L581.148 975.822C566.294 978.012 543.232 979.277 542.765 979.307L540.268 931.029C550.775 930.337 562.654 930.014 586.344 926.238C594.474 924.942 595.614 924.726 597.76 924.292V924.294Z" fill="#2B3C5E"/>
<path d="M459.299 927.887L454.598 963.839C456.049 964.054 455.608 963.993 467.048 965.297L470.806 929.235C486.496 930.834 499.173 931.554 517.09 931.63L528.685 931.48L529.931 979.805L517.09 979.972C501.68 979.773 507.577 979.935 491.413 979.308L492.662 955.169L504.871 955.642L504.56 967.724L517.09 967.886V943.715C505.181 943.666 493.279 943.21 481.408 942.331L478.593 978.479C469.688 977.67 452.004 976.051 440.308 973.995L445.953 938.179C437.371 936.761 427.606 935.2 410.943 931.262L405.303 954.77C409.353 955.804 413.454 956.616 417.533 957.521L420.041 945.697L432.027 948.064L427.637 971.835C418.115 969.955 403.7 967.213 390.02 963.375L402.54 916.673C420.373 921.705 440.945 925.324 459.299 927.887Z" fill="#2B3C5E"/>
<path d="M326.596 888.752L310.919 921.466C310.919 921.466 320.382 925.883 322.305 926.699L337.114 893.586C348.599 898.505 359.591 903.408 380.336 910.124C386.946 912.256 384.406 911.474 391.394 913.544L377.643 959.901C370.248 957.706 373.067 958.582 365.362 956.102L376.593 921.619C365.277 917.955 354.085 913.893 343.11 909.307L329.181 942.798C316.015 937.157 313.421 936.243 294.164 926.7L310.699 894.409C300.113 888.985 289.731 883.172 279.577 876.98L266.892 897.577C268.651 898.697 269.819 899.366 277.655 903.984L283.725 893.523C287.25 895.556 290.827 897.501 294.376 899.493L282.79 920.725C263.611 909.971 266.061 911.352 249.689 901.022L276.133 860.503C299.215 875.069 307.704 879.462 326.596 888.75V888.752Z" fill="#2B3C5E"/>
<path d="M349.816 924.984C360.988 929.219 355.082 926.979 361.28 929.2L357.234 940.592C364.33 943.083 361.602 942.165 369.107 944.608L365.362 956.102C358.596 953.899 354.405 952.579 341.123 947.548L349.816 924.984Z" fill="#2B3C5E"/>
<path d="M239.011 893.892C229.53 887.336 234.259 890.614 228.524 886.487L257.054 847.4C262.236 851.124 257.617 847.933 266.509 854.075L239.011 893.892Z" fill="#2B3C5E"/>
<path d="M212.547 810.484L187.511 836.78C187.511 836.78 195.142 843.891 196.719 845.258L221.059 818.321C230.389 826.476 239.478 834.653 257.054 847.4L249.921 857.172C240.296 850.192 230.917 842.868 221.895 835.124L198.266 862.683C183.998 850.21 185.84 852.019 169.954 836.613L195.668 810.976C187.273 802.56 179.192 793.837 171.447 784.825L153.02 800.531L161.283 809.928L170.289 801.839C171.416 803.134 171.834 803.565 178.579 810.788L160.996 827.43C152.663 818.539 141.861 806.46 135.588 798.537L173.251 768.092C181.818 778.949 195.775 794.54 212.547 810.486V810.484Z" fill="#2B3C5E"/>
<path d="M223.413 852.101C232.244 859.192 227.722 855.564 233.006 859.647L225.62 869.23C231.589 873.792 229.281 872.077 235.657 876.715L228.524 886.487C224.185 883.33 219.613 880.081 208.146 870.877L223.413 852.101Z" fill="#2B3C5E"/>
<path d="M128.179 701.009L96.2368 718.337C98.2864 721.968 100.288 725.627 102.38 729.232L133.857 711.075C142.509 725.664 149.113 736.082 159.135 749.771C163.23 755.372 161.633 753.25 166.074 759.021L127.628 788.477C122.939 782.374 124.702 784.734 119.932 778.217C117.452 774.792 115.307 772.133 105.352 757.116L125.671 743.933C127.919 747.32 130.116 750.74 132.472 754.054L122.489 760.908C128.961 770.214 125.704 765.54 129.733 771.106L149.335 756.883C143.963 749.543 139.145 742.766 129.466 727.316L98.4779 746.288C95.0137 740.87 87.7364 728.414 79.5976 712.774L111.986 696.288C106.582 685.717 101.621 674.923 97.043 663.973L74.6486 673.232L79.5987 684.717L90.6688 679.795C91.5707 681.909 92.2461 683.301 95.7848 690.858L73.9105 701.279C68.7371 690.26 62.1884 675.425 58.687 665.954L103.949 648.621C110.471 666.345 119.319 684.324 128.179 701.009Z" fill="#2B3C5E"/>
<path d="M66.2333 610.96C69.2529 622.086 67.666 616.248 69.5454 622.686L57.9212 626.113C60.0676 633.303 59.2103 630.562 61.6353 638.053L50.1068 641.785C48.12 635.648 46.616 631.208 42.8126 617.202L66.2333 610.96Z" fill="#2B3C5E"/>
<path d="M80.0593 559.559C81.3601 567.671 81.576 568.801 82.011 570.941L46.248 577.508L48.6848 589.77L84.2627 582.268C87.4705 596.578 90.7922 610.186 96.2241 626.857C98.3779 633.443 97.5195 630.934 99.9435 637.79L54.239 653.926C51.6778 646.67 52.6212 649.459 50.1079 641.786L84.6945 630.589C81.0186 619.307 77.7438 607.89 75.022 596.341L39.6557 604.776C38.239 599.248 35.1428 585.01 32.1626 567.064L68.0861 561.435C66.2748 549.709 64.857 537.92 63.921 526.087L39.7504 527.958C40.1312 532.106 40.462 536.26 40.8874 540.403L52.9435 539.154C52.9435 539.154 54.2187 550.249 54.3687 551.253L30.3289 554.378C28.1294 539.531 26.8637 516.574 26.8339 516.11L75.256 513.62C75.9505 524.096 76.2739 535.939 80.0603 559.558L80.0593 559.559Z" fill="#2B3C5E"/>
<path d="M78.4075 432.893L42.3478 428.206C42.1329 429.651 42.1925 429.218 40.8853 440.618L77.0556 444.365C75.4517 460.003 74.7284 472.648 74.6529 490.511L74.8039 502.072L26.334 503.313L26.167 490.51C26.367 475.146 26.2042 481.026 26.8328 464.91L51.0439 466.155L50.5695 478.328L38.4517 478.017L38.289 490.509H62.532C62.5809 478.635 63.0393 466.769 63.92 454.932L27.6646 452.126C28.475 443.263 30.0949 425.643 32.1615 413.955L68.0851 419.583C69.5008 411.063 71.0409 401.423 75.0209 384.677L51.4427 379.054C50.4057 383.092 49.592 387.18 48.6837 391.248L60.543 393.749L58.169 405.699L34.327 401.321C36.2171 391.809 38.9697 377.428 42.8126 363.816L89.6541 376.299C84.6062 394.086 80.9793 414.583 78.4075 432.89V432.893Z" fill="#2B3C5E"/>
<path d="M46.297 351.479C48.4986 344.107 47.6201 346.917 50.1068 339.235C52.3234 332.468 53.6667 328.239 58.687 315.068L81.3186 323.735C77.0843 334.838 79.42 328.701 77.0907 335.164L65.6643 331.13C63.1659 338.205 64.087 335.485 61.6364 342.968L96.224 354.165C94.0862 360.756 94.8701 358.224 92.7939 365.191L46.2991 351.48L46.297 351.479Z" fill="#2B3C5E"/>
<path d="M112.504 213.26C119.08 203.805 115.785 208.532 119.931 202.804L159.134 231.25C155.394 236.421 158.601 231.809 152.438 240.676L112.504 213.26Z" fill="#2B3C5E"/>
<path d="M117.659 300.585L84.8476 284.954C84.8476 284.954 80.4177 294.389 79.5987 296.306L112.811 311.071C107.876 322.523 102.96 333.482 96.223 354.164L84.6934 350.431C88.3682 339.149 92.4418 327.991 97.042 317.049L63.4509 303.161C69.1593 289.916 70.0602 287.378 79.5966 268.248L111.985 284.734C117.423 274.18 123.255 263.828 129.465 253.706L108.807 241.058C107.684 242.813 107.012 243.976 102.38 251.79L112.873 257.842C110.833 261.356 108.883 264.922 106.885 268.461L85.59 256.909C96.307 237.908 94.9701 240.261 105.352 223.906L145.992 250.272C131.355 273.326 126.96 281.781 117.66 300.586L117.659 300.585Z" fill="#2B3C5E"/>
<path d="M154.42 197.709C147.307 206.513 150.953 201.996 146.851 207.272L137.239 199.908C132.663 205.859 134.384 203.559 129.732 209.916L119.931 202.804C123.097 198.479 126.356 193.918 135.587 182.486L154.42 197.709Z" fill="#2B3C5E"/>
<path d="M196.161 186.875L169.788 161.913C162.849 169.344 162.461 169.745 161.284 171.094L188.3 195.362C180.121 204.664 171.92 213.725 159.136 231.249L149.335 224.137C156.335 214.541 163.682 205.19 171.448 196.196L143.807 172.637C155.337 159.525 154.802 159.943 169.955 144.409L195.669 170.046C204.11 161.676 212.86 153.62 221.897 145.897L206.144 127.525L196.72 135.764L204.833 144.743C203.528 145.873 203.085 146.298 195.857 153.008L179.166 135.477C188.061 127.189 200.185 116.408 208.145 110.145L238.68 147.696C227.724 156.291 212.097 170.213 196.161 186.875Z" fill="#2B3C5E"/>
<path d="M353.186 29.0371C360.463 26.4835 357.666 27.4242 365.362 24.9183C371.379 22.982 375.743 21.4994 390.019 17.6457L396.279 40.9968C385.12 44.0074 390.976 42.4253 384.518 44.2991L381.08 32.7104C373.869 34.8504 376.617 33.9957 369.105 36.4135L380.334 70.8982C373.729 73.0456 376.246 72.1899 369.37 74.6066L353.185 29.0381L353.186 29.0371Z" fill="#2B3C5E"/>
<path d="M305.962 102.758L288.583 70.9099C284.941 72.9534 281.272 74.9491 277.655 77.0361L295.867 108.419C281.235 117.046 270.784 123.631 257.054 133.622C251.437 137.704 253.564 136.113 247.776 140.54L218.232 102.209C224.352 97.5335 221.987 99.2918 228.523 94.5357C231.983 92.0457 234.646 89.9121 249.688 79.999L262.91 100.258C259.513 102.499 256.083 104.688 252.76 107.038L245.885 97.0839C236.568 103.525 241.239 100.29 235.656 104.307L249.922 123.85C257.285 118.493 264.08 113.692 279.577 104.04L260.548 73.1442C265.981 69.6904 278.474 62.4347 294.163 54.3202L310.698 86.612C321.301 81.2239 332.126 76.2779 343.109 71.7138L333.823 49.386L322.304 54.3213L327.24 65.3584C325.212 66.2195 324.15 66.7317 316.143 70.4592L305.691 48.65C316.744 43.492 331.622 36.9628 341.121 33.4718L358.507 78.5992C340.676 85.121 322.746 93.8972 305.961 102.757L305.962 102.758Z" fill="#2B3C5E"/>
<path d="M436.419 56.7276L429.832 21.071L417.534 23.5005L425.059 58.9715C410.706 62.1698 397.058 65.4815 380.337 70.8973L376.594 59.402C387.91 55.7371 399.359 52.4719 410.944 49.7583L402.484 14.4973C408.029 13.0848 422.309 9.99888 440.308 7.02645L445.953 42.843C457.715 41.0371 469.539 39.6236 481.407 38.6904L479.53 14.5917C475.369 14.9713 471.203 15.3001 467.048 15.7253L468.301 27.7466C468.301 27.7466 457.173 29.018 456.166 29.1676L453.031 5.19927C467.922 3.00627 491.027 1.73905 491.414 1.71466L493.911 49.9926C483.404 50.6851 471.526 51.0075 447.836 54.7827C439.71 56.0775 438.569 56.2949 436.42 56.7286L436.419 56.7276Z" fill="#2B3C5E"/>
<path d="M574.879 53.1337L579.58 17.1812C578.127 16.967 578.578 17.0286 567.131 15.7231L563.373 51.7858C547.687 50.1877 535.006 49.4665 517.089 49.3902L505.494 49.5408L504.249 1.21513L517.09 1.04862C532.499 1.24798 526.603 1.08577 542.766 1.71143L541.518 25.8504L529.309 25.3774L529.619 13.2958L517.09 13.1335V37.3043C528.999 37.3531 540.901 37.8101 552.773 38.6882L555.587 2.54067C564.477 3.34874 582.149 4.96382 593.872 7.02427L588.226 42.8409C601.785 45.0795 609.862 46.597 623.236 49.7561L628.877 26.2481C624.826 25.2141 620.726 24.4029 616.646 23.4973L614.138 35.3212L602.152 32.9544L606.544 9.18333C616.027 11.0561 630.482 13.8047 644.161 17.6436L631.641 64.3457C613.814 59.316 593.229 55.6946 574.881 53.1325L574.879 53.1337Z" fill="#2B3C5E"/>
<path d="M707.582 92.2695L723.26 59.5557C723.26 59.5557 713.797 55.1389 711.875 54.3224L697.066 87.4359C685.58 82.5155 674.589 77.614 653.844 70.8972C647.234 68.7657 649.773 69.5473 642.786 67.4773L656.537 21.1209C663.931 23.316 661.113 22.44 668.817 24.9193C675.604 27.1293 679.847 28.4687 693.057 33.474L684.364 56.0381C673.215 51.8112 679.094 54.0414 672.902 51.8229L676.948 40.4305C669.851 37.9395 672.579 38.8579 665.075 36.4135L657.588 59.403C668.904 63.0669 680.096 67.1284 691.07 71.7148L704.999 38.2237C719.337 44.3658 721.062 44.9279 740.017 54.3213L723.482 86.6131C734.067 92.0362 744.45 97.8496 754.602 104.042L767.289 83.4445C765.526 82.3225 764.461 81.7137 756.525 77.0371L750.454 87.4986C746.929 85.4657 743.352 83.5208 739.804 81.5282L751.39 60.2959C770.539 71.033 768.128 69.6734 784.492 79.999L758.047 120.518C734.924 105.926 726.439 101.54 707.583 92.2705L707.582 92.2695Z" fill="#2B3C5E"/>
<path d="M795.167 87.1295C804.625 93.6682 799.906 90.3967 805.655 94.5346L777.124 133.622C771.947 129.899 776.563 133.089 767.67 126.946L795.167 87.1295Z" fill="#2B3C5E"/>
<path d="M821.631 170.538L846.668 144.243C839.261 137.367 838.804 136.93 837.46 135.765L813.118 162.701C803.788 154.546 794.702 146.37 777.124 133.624L784.257 123.852C793.882 130.832 803.26 138.156 812.281 145.9L835.911 118.341C848.861 129.661 848.506 129.17 864.225 144.411L838.511 170.048C846.906 178.464 854.986 187.188 862.731 196.199L881.158 180.492L872.896 171.096L863.891 179.185C862.757 177.884 862.345 177.459 855.602 170.236L873.185 153.595C881.485 162.45 892.32 174.563 898.592 182.488L860.929 212.933C852.371 202.087 838.412 186.49 821.632 170.539L821.631 170.538Z" fill="#2B3C5E"/>
<path d="M810.765 128.921C801.919 121.817 806.472 125.471 801.174 121.374L808.559 111.791C802.59 107.229 804.898 108.945 798.522 104.307L805.655 94.5346C809.991 97.6905 814.572 100.944 826.033 110.144L810.765 128.921Z" fill="#2B3C5E"/>
<path d="M905.999 280.012L937.942 262.685C935.892 259.054 933.89 255.395 931.798 251.79L900.322 269.947C891.689 255.393 885.042 244.907 875.044 231.251C870.949 225.65 872.545 227.771 868.105 222L906.55 192.544C911.24 198.646 909.476 196.288 914.246 202.804L884.844 224.138C890.168 231.416 894.951 238.125 904.712 253.706L935.701 234.733C939.177 240.168 946.422 252.568 954.581 268.248L922.193 284.734C927.597 295.305 932.558 306.098 937.135 317.049L959.53 307.79L954.581 296.305L943.51 301.227C942.623 299.149 942.008 297.881 938.394 290.164L960.267 279.743C965.433 290.748 971.999 305.622 975.49 315.068L930.228 332.401C923.689 314.623 914.885 296.746 905.998 280.011L905.999 280.012Z" fill="#2B3C5E"/>
<path d="M908.507 237.089C906.26 233.701 904.062 230.282 901.706 226.968L911.691 220.114C905.197 210.777 908.459 215.462 904.445 209.916L914.246 202.804C916.732 206.239 918.885 208.908 928.826 223.906L908.507 237.089Z" fill="#2B3C5E"/>
<path d="M954.119 421.462C952.823 413.372 952.606 412.232 952.169 410.081L987.931 403.513L985.495 391.251L949.918 398.754C946.724 384.511 943.491 371.149 937.957 354.164C935.803 347.579 936.66 350.088 934.236 343.232L979.942 327.095C982.503 334.352 981.558 331.562 984.072 339.235L949.484 350.432C953.161 361.715 956.436 373.131 959.158 384.681L994.524 376.246C995.937 381.762 999.03 395.976 1002.02 413.958L966.093 419.585C967.905 431.312 969.322 443.101 970.258 454.933L994.429 453.063C994.049 448.914 993.719 444.76 993.293 440.617L981.237 441.866C981.237 441.866 979.962 430.772 979.812 429.767L1003.85 426.642C1006.05 441.452 1007.33 464.688 1007.35 464.91L958.925 467.4C958.342 458.599 957.977 445.526 954.119 421.462Z" fill="#2B3C5E"/>
<path d="M967.946 370.06C964.941 358.99 966.51 364.758 964.634 358.335L976.258 354.908C974.112 347.718 974.969 350.458 972.543 342.968L984.072 339.235C986.056 345.365 987.552 349.778 991.367 363.82L967.946 370.06Z" fill="#2B3C5E"/>
<path d="M936.643 527.789C935.973 535.078 936.438 530.831 935.368 540.17C934.801 545.651 932.934 558.576 930.568 570.915L906.768 566.312C905.601 572.318 904.76 576.24 903.023 583.504C901.268 590.679 901.936 588.069 900.097 594.865L911.793 598.043C911.254 599.986 910.765 601.941 910.166 603.867L892.698 598.838C893.083 597.603 894.964 590.951 897.131 582.09C899.705 571.337 900.123 568.744 901.908 559.489L925.774 563.737C926.439 559.741 928.478 547.898 929.348 539.463L930.046 533.368L917.988 532.131C918.191 530.156 918.348 528.176 918.53 526.2L936.643 527.789Z" fill="#2B3C5E"/>
<path d="M926.191 490.51L926.115 496.555L920.055 496.467L920.13 490.51H926.191Z" fill="#2B3C5E"/>
<path d="M916.575 543.958C916.871 541.995 917.085 540.02 917.311 538.048L923.33 538.755C923.101 540.757 922.884 542.761 922.583 544.754L916.575 543.958Z" fill="#2B3C5E"/>
<path d="M914.808 586.333L913.37 592.206L907.5 590.704L908.916 584.919L914.808 586.333Z" fill="#2B3C5E"/>
<path d="M918.158 619.126L895.078 611.73C893.303 617.322 891.341 622.853 889.313 628.357C887.91 632.008 886.566 635.683 885.042 639.286L896.273 643.832L893.976 649.427L877.233 642.358C882.299 630.014 880.229 635.096 883.632 626.252C887.224 616.503 890.262 607.11 891.046 604.373L914.235 611.424C916.118 605.082 917.588 600.457 920.7 587.747C921.185 585.76 921.687 583.777 922.103 581.774L910.277 579.12L911.548 573.302L929.343 577.018C927.286 586.445 927.812 584.165 926.592 589.163C924.153 599.119 921.64 608.424 918.158 619.126Z" fill="#2B3C5E"/>
<path d="M900.676 632.567L898.521 638.218L892.872 636.028L894.994 630.462L900.676 632.567Z" fill="#2B3C5E"/>
<path d="M900.08 665.522L878.047 655.439C876.543 658.603 875.122 661.928 870.342 671.267L864.792 681.609L875.401 687.454L872.442 692.73L856.659 683.729L864.951 668.502C867.304 663.905 871.072 656.413 874.91 647.648L897.09 657.403C902.682 644.655 904.369 639.845 906.355 634.67C907.105 632.765 907.757 630.826 908.445 628.9L897.021 624.86L899.002 619.241L916.227 625.045C913.007 634.183 912.691 635.109 912.036 636.775C908.813 645.174 904.219 656.895 900.078 665.52L900.08 665.522Z" fill="#2B3C5E"/>
<path d="M876.603 709.442L855.925 696.824C850.028 706.214 852.212 702.811 846.389 711.631C841.431 718.771 840.762 719.76 839.649 721.248L849.491 728.301L845.92 733.184L831.314 722.388C836.796 714.893 834.853 717.631 841.366 708.25C846.154 700.998 847.203 699.538 853.731 688.711L874.594 701.022C878.627 694.144 874.804 701.056 886.513 679.556C887.455 677.74 888.347 675.898 889.266 674.07L878.406 668.703C879.277 666.918 880.21 665.163 881.031 663.354L897.44 671.161C896.67 672.855 892.656 680.866 891.902 682.319C886.991 691.336 881.5 701.736 876.604 709.439L876.603 709.442Z" fill="#2B3C5E"/>
<path d="M881.121 676.794L878.292 682.141L872.944 679.298L875.731 674.03L881.121 676.794Z" fill="#2B3C5E"/>
<path d="M848.082 750.277L829.042 735.315C822.07 743.945 824.645 740.824 817.81 748.891C816.8 750.072 811.129 756.462 809.989 757.657L818.93 765.818L814.8 770.242L801.569 757.806C807.483 751.474 811.724 746.696 813.22 744.943C818.584 738.614 820.314 736.687 827.818 726.997L847.078 741.677C852.095 735.207 856.821 728.516 861.46 721.772L864.844 716.648L854.697 710.036C855.796 708.379 856.893 706.724 857.931 705.029L873.297 714.721C872.211 716.491 866.485 725.151 866.485 725.151C860.73 733.521 855.05 741.475 848.082 750.277Z" fill="#2B3C5E"/>
<path d="M856.436 718.391L852.986 723.362L848.013 719.909L851.412 715.011L856.436 718.391Z" fill="#2B3C5E"/>
<path d="M826.989 756.783C825.679 758.317 824.315 759.805 822.98 761.318L818.45 757.304C819.764 755.813 821.109 754.348 822.399 752.836L826.989 756.783Z" fill="#2B3C5E"/>
<path d="M814.94 787.474L797.798 770.383C788.205 779.721 792.811 775.279 785.033 782.539C783.842 783.668 777.435 789.321 776.239 790.336L784.156 799.488L779.526 803.39L767.855 789.49C774.806 783.631 779.735 779.224 780.94 778.081C785.569 773.759 788.67 771.055 797.559 761.974L814.953 778.812C819.12 774.647 828.222 764.66 831.578 760.73L835.551 756.046L826.257 748.287C828.682 745.421 827.808 746.475 830.056 743.692L844.169 755.123L836.169 764.675C829.334 772.677 821.884 780.385 814.941 787.473L814.94 787.474Z" fill="#2B3C5E"/>
<path d="M777.63 820.519L762.624 801.536C754.127 808.157 751.79 809.704 748.515 812.11C747.149 813.126 746.388 813.643 738.87 818.83L745.651 828.848L740.586 832.172L730.639 816.997C735.769 813.631 742.502 809.047 744.978 807.204C748.513 804.605 752.711 801.737 763.384 793.165L778.671 811.926C782.49 808.746 791.99 800.946 797.308 795.912L801.811 791.733L793.496 782.938C794.967 781.6 796.383 780.205 797.807 778.817L810.474 791.823C806.997 795.21 808.196 794.064 801.4 800.369C795.289 806.152 784.13 815.173 777.63 820.519Z" fill="#2B3C5E"/>
<path d="M793.217 791.454C791.751 792.842 790.207 794.143 788.705 795.491L784.679 790.973C786.159 789.645 787.681 788.364 789.124 786.996L793.217 791.454Z" fill="#2B3C5E"/>
<path d="M755.589 821.924C753.968 823.128 752.294 824.257 750.635 825.408L747.171 820.45C748.805 819.315 750.456 818.204 752.052 817.017L755.589 821.924Z" fill="#2B3C5E"/>
<path d="M736.673 848.954L724.018 828.337C718.987 831.378 713.917 834.354 708.759 837.177L698.386 842.712L703.93 853.459C702.134 854.385 700.314 855.261 698.507 856.165L690.432 839.922C696.932 836.67 691.442 839.563 705.828 831.889C713.965 827.436 720.246 823.562 725.769 820.125L738.73 840.553C745.017 836.718 756.552 828.745 759.128 826.832L764.098 823.216L756.879 813.508C758.502 812.356 760.056 811.115 761.643 809.916L772.687 824.318C767.598 828.161 772.65 824.478 762.664 831.738C759.017 834.447 749.714 840.839 736.673 848.954Z" fill="#2B3C5E"/>
<path d="M714.62 847.756C711.285 849.61 712.509 848.946 709.29 850.639L706.439 845.307C709.764 843.557 708.558 844.208 711.689 842.467L714.62 847.756Z" fill="#2B3C5E"/>
<path d="M692.623 872.362L682.509 850.395C669.968 855.958 673.462 854.44 666.309 857.368C662.695 858.888 659.01 860.227 655.348 861.627L659.57 872.956C657.689 873.693 655.771 874.333 653.868 875.009L647.79 857.924C653.464 855.908 660.589 853.218 664.03 851.77C671.904 848.547 667.691 850.394 685.23 842.46L695.671 864.275C702.288 861.288 713.402 855.259 717.551 853.046L722.922 850.052L716.904 839.562C718.64 838.59 720.338 837.552 722.057 836.551L731.318 852.151C725.368 855.619 730.151 852.945 720.483 858.335C708.947 864.488 707.019 865.659 692.623 872.362Z" fill="#2B3C5E"/>
<path d="M670.868 868.567C668.995 869.323 667.134 870.112 665.237 870.807L663.042 865.175C664.911 864.49 666.743 863.713 668.589 862.967L670.868 868.567Z" fill="#2B3C5E"/>
<path d="M646.088 890.386L638.67 867.375C628.524 870.598 625.015 871.495 621.755 872.38C614.602 874.302 617.217 873.628 610.36 875.296L613.197 887.046C611.233 887.523 609.273 888.016 607.294 888.424L603.302 870.739C604.959 870.399 611.411 868.903 620.16 866.55C629.294 864.074 633.329 862.771 642.325 859.84L650.086 882.738C654.324 881.254 665.083 877.551 673.147 874.166L678.842 871.841L674.115 860.713L679.588 858.326L686.926 874.912C679.722 878.053 682.36 876.935 675.426 879.766C667.802 882.964 655.766 887.253 646.087 890.387L646.088 890.386Z" fill="#2B3C5E"/>
<path d="M597.732 902.759L593.117 879.03C588.99 879.807 579.659 881.497 575.724 882.005C571.837 882.528 567.962 883.142 564.059 883.54L565.478 895.542L559.453 896.228L557.592 878.195C572.237 876.524 565.24 877.317 574.836 876.027C579.124 875.474 593.43 872.936 597.643 871.967L602.612 895.625C608.233 894.383 612.824 893.553 626.537 889.869C628.514 889.324 630.505 888.829 632.464 888.223L629.102 876.612L634.827 874.914L640.131 892.254C628.548 895.689 634.043 894.069 628.13 895.699C615.12 899.192 607.041 900.939 597.732 902.759Z" fill="#2B3C5E"/>
<path d="M624.942 884.04L619.088 885.612L617.581 879.758L623.349 878.209L624.942 884.04Z" fill="#2B3C5E"/>
<path d="M548.26 909.334L546.49 885.228C535.397 885.929 539.445 885.717 528.86 886.123C527.377 886.199 527.379 886.179 517.09 886.311V898.396L511.028 898.32L511.293 880.193C519.691 880.301 527.347 880.152 528.684 880.083C537.485 879.746 539.041 879.762 551.823 878.719L553.949 902.797C568.645 901.451 572.386 900.749 578.388 899.938C580.423 899.677 582.441 899.309 584.465 898.983L582.513 887.055L588.405 886.082L591.601 903.928C581.388 905.618 580.912 905.704 579.275 905.916C570.769 907.067 558.328 908.738 548.261 909.335L548.26 909.334Z" fill="#2B3C5E"/>
<path d="M577.499 893.959L571.494 894.797L570.696 888.807L576.611 887.981L577.499 893.959Z" fill="#2B3C5E"/>
<path d="M529.212 898.203C527.193 898.305 525.171 898.278 523.15 898.318L523.062 892.277C525.053 892.236 527.045 892.263 529.034 892.163L529.212 898.203Z" fill="#2B3C5E"/>
<path d="M480.763 896.777C478.75 896.592 476.735 896.434 474.725 896.228L475.345 890.218C477.325 890.42 479.311 890.576 481.294 890.757L480.763 896.777Z" fill="#2B3C5E"/>
<path d="M470.119 883.539L468.701 895.541C466.693 895.313 464.683 895.097 462.684 894.797L465.079 876.826C466.939 877.106 472.944 877.854 482.355 878.717C493.153 879.676 500.522 879.892 505.494 880.081L504.788 904.242C508.324 904.418 524.972 904.463 529.386 904.242L535.533 904.01L535.003 891.936C538.762 891.788 537.392 891.856 540.969 891.63L542.029 909.728L529.563 910.282C521.072 910.703 507.309 910.384 498.377 910.047L499.436 885.9C497.363 885.845 489.695 885.436 481.822 884.737C474.873 884.101 479.077 884.561 470.117 883.539H470.119Z" fill="#2B3C5E"/>
<path d="M432.809 889.71L426.884 888.424L428.214 882.529L434.051 883.796L432.809 889.71Z" fill="#2B3C5E"/>
<path d="M382.151 888.463C372.231 884.988 369.02 883.957 352.972 877.405L362.425 855.148C350.176 849.805 355.955 852.359 346.338 847.914C344.787 847.217 337.086 843.38 335.792 842.713L330.249 853.46L324.886 850.64L333.441 834.644C341.612 838.944 347.543 841.829 348.948 842.461C354.534 845.043 358.028 846.827 370.148 851.771L361.03 874.167C368.437 877.276 378.986 880.958 384.091 882.739L389.944 884.634L393.653 873.129C395.547 873.741 397.435 874.369 399.35 874.915L394.046 892.255C391.948 891.655 390.16 891.058 382.15 888.464L382.151 888.463Z" fill="#2B3C5E"/>
<path d="M423.818 875.296L420.981 887.046L415.09 885.612L419.611 868.053C433.424 871.412 426.747 869.798 436.537 871.967C440.748 872.928 455.058 875.482 459.343 876.027L455.793 899.937C461.899 900.763 465.531 901.45 480.231 902.796C482.274 902.963 484.314 903.187 486.362 903.308L487.247 891.255L493.208 891.631L492.148 909.729C480.101 908.966 486.644 909.386 479.701 908.816C467.491 907.699 459.348 906.656 448.739 904.946L452.644 881.091C448.473 880.389 439.129 878.755 435.294 877.881C431.466 877.034 427.619 876.267 423.818 875.296Z" fill="#2B3C5E"/>
<path d="M335.898 869.728C328.172 866.237 313.297 858.03 308.248 855.297L320.284 834.316C314.072 830.777 309.168 827.724 305.17 825.232C303.496 824.213 295.309 818.83 295.309 818.83L288.529 828.848L283.542 825.408L293.935 810.533C297.835 813.225 304.71 817.875 308.41 820.125C313.735 823.439 317.479 825.832 328.35 831.889L316.627 853.046C320.599 855.165 331.97 861.324 338.508 864.275L344.083 866.871L349.141 855.887C350.936 856.745 352.766 857.53 354.591 858.325L347.253 874.911C342.846 872.992 344.274 873.628 335.899 869.729L335.898 869.728Z" fill="#2B3C5E"/>
<path d="M378.832 861.627L374.609 872.956L368.941 870.807L375.528 853.91C383.952 857.103 380.74 855.943 391.853 859.839C401.542 862.975 404.201 863.841 414.018 866.548L407.642 889.869C421.502 893.592 426.263 894.453 431.567 895.625C433.566 896.082 435.588 896.433 437.601 896.826L439.909 884.962L445.775 886.082L442.579 903.928C432.63 902.031 431.98 901.918 430.324 901.54C422.124 899.73 409.033 896.806 400.033 894.03L406.758 870.807C396.747 867.804 402.813 869.739 389.913 865.564C380.662 862.322 380.263 862.189 378.832 861.627Z" fill="#2B3C5E"/>
<path d="M386.032 877.013L380.312 875.009L382.338 869.313L387.973 871.289L386.032 877.013Z" fill="#2B3C5E"/>
<path d="M343.729 853.367L341.119 858.821C339.277 857.991 337.489 857.047 335.672 856.165L338.363 850.75C340.153 851.618 341.915 852.549 343.729 853.367Z" fill="#2B3C5E"/>
<path d="M292.209 845.658C288.467 843.376 278.946 837.141 266.47 828.069L280.909 808.652C276.195 805.143 271.529 801.566 266.972 797.855L257.939 790.336L250.022 799.488C248.484 798.181 246.99 796.822 245.474 795.491L257.551 781.94C262.851 786.583 257.893 782.426 270.795 793.164C277.917 798.968 283.763 803.248 289.201 807.203L275.052 826.829C278.475 829.372 290.512 837.54 295.45 840.551L300.67 843.799L306.997 833.491C308.679 834.555 310.416 835.526 312.123 836.548L302.862 852.149C296.803 848.522 302.796 852.246 292.209 845.658Z" fill="#2B3C5E"/>
<path d="M251.686 816.615C242.525 808.989 240.161 807.221 228.209 796.128L244.839 778.541C234.522 768.617 237.933 771.933 232.271 766.184C229.498 763.417 226.875 760.507 224.19 757.656L215.248 765.816C213.856 764.355 212.55 762.815 211.199 761.318L224.791 749.277C228.876 753.795 233.527 758.89 236.62 761.976C242.838 768.288 238.589 764.19 253.239 778.082L236.871 795.911C242.239 800.993 251.737 808.786 255.509 811.925L260.3 815.772L267.804 806.28C269.367 807.51 270.96 808.702 272.536 809.914L261.493 824.316C255.81 819.945 259.188 822.635 251.687 816.614L251.686 816.615Z" fill="#2B3C5E"/>
<path d="M301.93 830.337L298.69 835.444C296.966 834.394 295.279 833.282 293.594 832.171L296.909 827.113C298.57 828.208 300.232 829.302 301.93 830.337Z" fill="#2B3C5E"/>
<path d="M214.879 783.022C205.728 773.874 196.897 763.363 193.982 759.925L212.571 744.409C211.288 742.931 206.823 737.529 201.546 730.667C199.127 727.587 196.845 724.405 194.531 721.248L184.688 728.301C183.48 726.685 182.348 725.016 181.193 723.361L196.112 713C200.232 718.899 204.622 724.786 206.361 726.996C213.26 735.971 216.239 739.375 220.959 744.942L202.601 760.728C205.91 764.602 214.994 774.58 219.227 778.811L223.526 783.199L232.098 774.654L236.372 778.814L223.706 791.821C218.082 786.346 220.113 788.363 214.88 783.021L214.879 783.022Z" fill="#2B3C5E"/>
<path d="M263.152 802.545L259.33 807.235C256.358 804.848 257.433 805.73 254.653 803.39L258.543 798.757C261.418 801.175 260.361 800.304 263.152 802.545Z" fill="#2B3C5E"/>
<path d="M223.575 774.603C222.162 773.162 220.741 771.728 219.379 770.241L223.789 766.095C225.131 767.562 226.532 768.975 227.923 770.394L223.575 774.603Z" fill="#2B3C5E"/>
<path d="M182.286 745.348C177.472 739.138 171.406 730.771 164.262 719.954L184.556 706.731C178.628 697.613 177.082 694.907 175.235 691.791C171.983 686.241 174.606 690.918 169.389 681.611L158.778 687.455C156.919 684.13 157.585 685.35 155.887 682.142L171.931 673.613C180.173 688.534 176.89 682.638 180.451 688.713C185.623 697.442 188.666 702.002 192.815 708.252L172.719 721.773C177.359 728.517 182.084 735.208 187.101 741.679C188.354 743.298 189.586 744.932 190.857 746.538L200.376 739.056L204.123 743.694L190.011 755.125C183.976 747.652 186.616 750.945 182.287 745.349L182.286 745.348Z" fill="#2B3C5E"/>
<path d="M154.371 704.101C149.1 695.115 143.71 685.162 139.483 676.755L161.206 666.021C159.457 662.514 157.79 659.206 153.723 650.088C150.753 643.321 151.811 645.8 149.137 639.286L137.905 643.832C137.147 641.965 136.354 640.11 135.656 638.218L152.604 631.651C153.105 633.013 155.659 639.429 159.268 647.649C163.354 656.811 166.492 663.232 169.226 668.503L147.667 679.557C159.397 701.098 155.556 694.15 159.586 701.023C160.642 702.776 161.647 704.56 162.745 706.287L173.083 699.979L176.246 705.031L160.88 714.722C154.277 704.175 158.005 710.14 154.369 704.102L154.371 704.101Z" fill="#2B3C5E"/>
<path d="M191.916 738.007C190.696 736.401 189.433 734.827 188.26 733.185L193.128 729.586C194.283 731.205 195.528 732.754 196.73 734.337L191.916 738.007Z" fill="#2B3C5E"/>
<path d="M164.803 697.946C163.783 696.205 162.727 694.488 161.736 692.73L166.997 689.73C167.972 691.461 169.014 693.155 170.018 694.868L164.803 697.946Z" fill="#2B3C5E"/>
<path d="M131.542 659.843C127.353 650.29 124.098 642.336 120.02 630.921L142.869 622.842C140.289 615.499 141.46 619.064 137.337 606.136C136.224 602.387 135.065 598.652 134.082 594.865L122.388 598.043L120.811 592.206L138.422 587.699C141.664 599.687 140.613 595.869 143.135 604.373C143.155 604.435 147.858 619.44 150.548 626.252L127.823 634.671C133.409 649.221 134.324 651.101 137.088 657.404C137.909 659.277 138.722 661.156 139.607 663.001L150.623 657.958L153.15 663.355L136.74 671.162C132.853 662.861 133.487 664.282 131.542 659.843Z" fill="#2B3C5E"/>
<path d="M114.147 613.187C111.544 604.429 108.022 592.046 106.162 583.101L129.814 577.795C127.701 567.9 129.137 575.296 126.304 560.552C124.691 550.837 124.624 550.501 124.428 548.972L112.437 550.742L111.596 544.754L129.62 542.366C130.879 551.333 130.347 547.898 132.271 559.49C133.421 565.474 134.721 572.565 137.048 582.091L113.479 587.749C116.715 600.967 118.12 605.282 119.945 611.426C120.51 613.392 121.158 615.332 121.791 617.278L133.331 613.581L135.176 619.244L117.95 625.048C115.335 617.022 114.768 615.344 114.148 613.188L114.147 613.187Z" fill="#2B3C5E"/>
<path d="M142.633 654.965L140.202 649.427L145.783 647.071L148.177 652.526L142.633 654.965Z" fill="#2B3C5E"/>
<path d="M102.439 564.8C99.8403 549.183 99.5787 546.869 98.1035 533.987L122.22 531.513C121.097 519.106 121.381 522.751 120.823 513.968L120.298 502.245L108.181 502.597C108.079 500.585 108.106 498.569 108.064 496.555L126.245 496.291C126.4 503.699 126.097 496.298 126.873 513.615C127.232 519.248 127.529 524.634 128.908 536.632L104.832 539.462C105.264 543.65 106.419 551.911 108.407 563.736L109.563 569.762L121.463 567.461C121.845 569.409 122.186 571.365 122.631 573.301L104.835 577.017C104.449 575.339 104.259 574.284 102.44 564.799L102.439 564.8Z" fill="#2B3C5E"/>
<path d="M125.741 609.661L124.013 603.867L129.835 602.19L131.538 607.899L125.741 609.661Z" fill="#2B3C5E"/>
<path d="M96.6208 515.379C96.123 504.279 95.7539 499.44 95.9443 484.292L120.185 484.643C120.25 479.573 120.54 470.827 120.823 467.053C121.56 455.451 121.185 461.46 121.687 455.352L109.612 454.293C109.797 452.286 109.956 450.278 110.162 448.273L128.248 450.128C127.409 458.299 127.105 463.754 126.873 467.406C126.303 474.984 126.171 490.451 126.17 490.511H101.927C102.102 504.358 102.01 500.246 102.672 515.027L103.061 521.148L115.15 520.265C115.267 522.247 115.486 524.222 115.649 526.2L97.5366 527.789C96.9643 520.864 97.3845 527.386 96.6208 515.379Z" fill="#2B3C5E"/>
<path d="M114.371 562.675L113.38 556.712L119.362 555.737L120.337 561.613L114.371 562.675Z" fill="#2B3C5E"/>
<path d="M108.722 514.674C108.48 510.875 108.555 512.261 108.411 508.638L114.466 508.374C114.614 512.121 114.545 510.755 114.772 514.322L108.723 514.675L108.722 514.674Z" fill="#2B3C5E"/>
<path d="M99.5798 434.676L123.611 437.86C125.059 427.872 123.854 435.213 126.303 420.47C128.115 411.039 128.202 410.517 128.561 408.958L116.698 406.48L117.987 400.574L135.726 404.554C133.824 413.261 134.544 409.701 132.27 421.531C131.306 427.333 129.993 434.841 128.906 444.387L104.83 441.558C103.302 454.895 103.218 457.376 102.671 465.994C102.426 469.847 102.5 468.441 102.355 472.118L114.465 472.646L114.238 478.598L96.0635 478.07L96.6197 465.641C97.2036 456.455 98.2109 443.775 99.5798 434.673V434.676Z" fill="#2B3C5E"/>
<path d="M108.722 466.348L109.104 460.315L115.149 460.756L114.771 466.7L108.722 466.348Z" fill="#2B3C5E"/>
<path d="M109.067 385.811L132.55 391.82C136.561 377.001 134.554 384.382 137.336 374.885C137.895 372.934 138.444 371.31 140.917 363.713L129.433 359.843L131.444 354.14L148.58 360.199C146.757 365.367 144.079 373.342 143.134 376.648C141.801 381.196 140.211 386.001 137.049 398.931L113.48 393.272C111.485 401.052 109.26 412.791 108.406 417.283L107.399 423.335L119.363 425.282C119.046 427.242 118.687 429.195 118.433 431.164L100.448 428.51C100.67 426.79 100.851 425.772 102.441 416.221C105.214 401.765 105.568 400.108 109.07 385.81L109.067 385.811Z" fill="#2B3C5E"/>
<path d="M114.371 418.346L115.511 412.409L121.46 413.559L120.337 419.408L114.371 418.346Z" fill="#2B3C5E"/>
<path d="M124.36 338.426L146.956 347.182C149.106 341.723 151.327 336.29 153.724 330.934C155.255 327.333 156.979 323.819 158.621 320.269L147.682 315.064C148.515 313.228 149.461 311.446 150.346 309.635L166.637 317.685C164.169 322.742 160.977 329.354 159.27 333.374C155.51 341.776 152.865 348.694 150.548 354.771L127.823 346.352C126.144 350.617 121.212 365.195 119.946 369.599L118.192 375.48L129.837 378.832C129.247 380.728 128.766 382.656 128.236 384.569L110.693 379.802C112.338 373.869 110.708 379.369 114.149 367.837C115.31 363.8 118.899 352.752 124.362 338.428L124.36 338.426Z" fill="#2B3C5E"/>
<path d="M125.741 371.36C126.298 369.423 126.937 367.511 127.56 365.594L133.33 367.443C132.717 369.332 132.086 371.214 131.538 373.123L125.741 371.36Z" fill="#2B3C5E"/>
<path d="M145.191 293.195L166.583 304.567C167.557 302.675 170.996 296.377 175.235 289.232C178.041 284.575 175.145 289.164 181.371 279.222L171.127 272.761C172.181 271.041 173.296 269.36 174.41 267.679L189.631 277.597C184.593 285.188 180.534 292.172 180.451 292.309C174.736 301.941 172.261 306.788 169.227 312.518L147.668 301.464C145.064 306.484 139.436 318.103 137.087 323.618L134.622 329.239L145.783 333.952L143.521 339.463L126.674 332.645C129.653 325.39 128.54 328.024 131.542 321.179C136.418 309.734 142.803 297.709 145.191 293.195Z" fill="#2B3C5E"/>
<path d="M142.633 326.056C143.442 324.21 144.242 322.358 145.115 320.541L150.623 323.061C149.762 324.851 148.974 326.675 148.177 328.494L142.633 326.056Z" fill="#2B3C5E"/>
<path d="M164.803 283.076C165.843 281.349 166.833 279.59 167.916 277.889L173.085 281.044C172.018 282.721 171.044 284.454 170.019 286.154L164.803 283.076Z" fill="#2B3C5E"/>
<path d="M171.246 250.751L191.139 264.567C191.21 264.465 197.415 255.735 201.546 250.355C205.72 244.962 203.047 248.294 208.828 241.138L199.419 233.518C201.813 230.554 200.929 231.626 203.275 228.854L217.217 240.49C207.068 252.907 210.788 248.305 206.36 254.024C200.18 262.075 197.435 266.094 192.814 272.769L172.718 259.249C168.184 266.064 163.722 272.932 159.586 279.996C158.551 281.762 157.48 283.507 156.475 285.289L166.997 291.289L164.083 296.487L148.168 287.722C153.557 278.112 150.898 282.838 154.372 276.919C158.359 270.111 163.915 261.319 171.247 250.75L171.246 250.751Z" fill="#2B3C5E"/>
<path d="M202.138 211.676L220.26 227.731C223.002 224.649 225.456 221.874 232.271 214.837C237.448 209.551 235.539 211.459 240.593 206.541L232.149 197.87C233.594 196.462 235.032 195.045 236.524 193.687L248.997 206.877C243.991 211.427 236.68 218.986 236.62 219.047C231.189 224.655 225.505 230.753 220.958 236.08L202.6 220.293C187.588 238.436 191.922 233.117 187.101 239.346C185.863 240.976 184.582 242.573 183.391 244.239L193.129 251.437L189.609 256.25L174.845 245.67C182.129 235.713 178.442 240.738 182.287 235.677C188.342 227.851 195.591 219.1 202.139 211.678L202.138 211.676Z" fill="#2B3C5E"/>
<path d="M191.916 243.014C193.151 241.419 194.365 239.808 195.617 238.226L200.376 241.967C199.143 243.524 197.947 245.113 196.731 246.685L191.916 243.014Z" fill="#2B3C5E"/>
<path d="M237.422 176.496L253.525 194.563C257.603 190.955 263.703 185.733 266.972 183.166C274.15 177.401 270.828 180.051 276.216 175.906L268.854 166.306C270.465 165.089 272.044 163.83 273.69 162.66L284.519 177.222C280.994 179.72 274.162 185.15 270.794 187.856C265.974 191.641 255.76 200.548 253.238 202.94L236.87 185.111C233.105 188.632 229.29 191.936 219.227 202.208C217.793 203.671 216.353 205.126 214.97 206.636L223.79 214.926L219.719 219.286L206.307 207.046C212.502 200.411 211.295 201.656 214.879 197.999C223.939 188.751 228.819 184.219 237.422 176.496Z" fill="#2B3C5E"/>
<path d="M227.81 202.093L232.097 206.365L227.923 210.627L223.575 206.418L227.81 202.093Z" fill="#2B3C5E"/>
<path d="M276.614 145.697L290.471 165.531C296.787 161.177 294.135 162.929 305.169 155.79C315.145 149.582 310.515 152.485 315.208 149.673L309.035 139.272C310.779 138.255 312.504 137.202 314.265 136.214L323.292 151.95C317.36 155.27 310.517 159.584 308.409 160.896C308.346 160.937 295.434 169.178 289.199 173.818L275.049 154.191C263.626 162.512 261.64 164.171 255.506 169.096C252.489 171.519 253.58 170.624 250.759 172.997L258.539 182.264L253.977 186.11L242.101 172.382L251.682 164.405C260.156 157.602 267.349 152.126 276.61 145.696L276.614 145.697Z" fill="#2B3C5E"/>
<path d="M259.329 173.786L264.052 169.994L267.804 174.741L263.152 178.477L259.329 173.786Z" fill="#2B3C5E"/>
<path d="M319.184 119.719L330.59 141.048C335.773 138.272 341.04 135.656 346.339 133.108C349.9 131.471 353.425 129.752 357.037 128.226L352.144 117.169L357.7 114.747L364.79 131.44C351.2 137.37 357.86 134.468 348.95 138.563C342.224 141.798 335.167 145.344 328.351 149.135L316.628 127.978C305.321 134.28 302.422 136.134 295.45 140.471C293.7 141.538 291.989 142.665 290.277 143.792L296.908 153.909L291.918 157.184L281.748 142.157C288.996 137.399 290.166 136.612 292.209 135.364C305.533 127.072 306.146 126.879 319.184 119.719Z" fill="#2B3C5E"/>
<path d="M298.689 145.577L303.833 142.376L306.997 147.529L301.93 150.683L298.689 145.577Z" fill="#2B3C5E"/>
<path d="M364.55 98.9503L373.333 121.48C383.04 117.846 376.02 120.331 389.913 115.458C398.202 112.776 399.231 112.426 401.12 111.888L397.583 100.328L403.395 98.6046L408.438 116.021C399.05 118.806 402.712 117.67 391.853 121.183C383.098 124.254 379.746 125.378 370.149 129.253L361.031 106.857C347.837 112.243 343.808 114.308 338.508 116.748C336.639 117.591 334.825 118.547 332.981 119.443L338.364 130.272C336.585 131.161 334.791 132.024 333.023 132.936L324.707 116.815C326.208 116.042 334.224 112.051 335.899 111.294C343.726 107.687 355.487 102.278 364.55 98.9503Z" fill="#2B3C5E"/>
<path d="M341.119 122.201L346.613 119.643L349.141 125.135L343.729 127.655L341.119 122.201Z" fill="#2B3C5E"/>
<path d="M412.077 83.7032L418.103 107.116C431.337 103.896 425.275 105.348 435.294 103.14C436.8 102.794 437.149 102.739 446.84 100.889L444.71 88.9916L450.692 88.0033L453.621 105.895C444.93 107.329 437.998 108.719 436.537 109.055C430.182 110.457 426.267 111.179 414.019 114.473L407.643 91.1539C399.714 93.2631 391.886 95.7276 384.093 98.2854L378.288 100.319L382.34 111.71C380.465 112.376 378.575 113.005 376.722 113.732L370.389 96.7393C372.143 96.0532 373.954 95.4329 382.153 92.5612C397.137 87.6407 402.259 86.3426 412.079 83.7053L412.077 83.7032Z" fill="#2B3C5E"/>
<path d="M386.032 104.009L391.799 102.141L393.654 107.894L387.973 109.733L386.032 104.009Z" fill="#2B3C5E"/>
<path d="M461.087 74.244L464.281 98.2038C477.468 96.6152 474.925 96.8931 481.826 96.2834C487.954 95.7828 481.925 96.1571 493.562 95.4222L492.854 83.3575C496.664 83.1168 495.273 83.19 498.908 83.0479L499.703 101.158C482.355 102.15 489.824 101.693 482.356 102.302C477.461 102.735 479.565 102.422 459.342 104.994L455.792 81.0828C451.907 81.5812 436.31 84.3098 431.566 85.3957L425.553 86.7011L428.214 98.4912C426.265 98.8931 424.334 99.3798 422.399 99.8496L418.143 82.225C423.032 81.0383 420.855 81.5356 430.323 79.4805C439.005 77.4974 452.268 75.4742 461.087 74.244Z" fill="#2B3C5E"/>
<path d="M432.809 91.3108C434.78 90.8601 436.771 90.5155 438.755 90.1274L439.909 96.0596C437.955 96.4413 435.992 96.7806 434.051 97.225L432.809 91.3108Z" fill="#2B3C5E"/>
<path d="M510.852 70.6183L511.204 94.787C520.617 94.6958 527.468 94.8305 528.86 94.8995L540.618 95.4232L541.325 83.3586L547.376 83.7414L546.049 101.821L528.684 100.94C525.556 100.785 510.574 100.68 505.497 100.94L504.791 76.7796C480.221 78.0267 488.309 77.5643 480.232 78.2271C478.19 78.4137 476.146 78.5749 474.106 78.7838L475.347 90.8061L469.412 91.4826L467.284 73.4784C476.723 72.4042 472.548 72.8611 479.702 72.2068C489.707 71.385 500.816 70.823 510.854 70.6194L510.852 70.6183Z" fill="#2B3C5E"/>
<path d="M480.763 84.2451C482.777 84.0797 484.787 83.8591 486.804 83.7403L487.247 89.7668C485.259 89.8835 483.28 90.1019 481.294 90.2642L480.763 84.2451Z" fill="#2B3C5E"/>
<path d="M529.212 82.8187L535.27 83.0478L535.005 89.0849L529.035 88.859L529.212 82.8187Z" fill="#2B3C5E"/>
<path d="M628.131 85.3225C635.786 87.3596 645.772 90.3681 657.919 94.6226L649.815 117.403C649.88 117.427 659.349 120.845 666.308 123.653C673.164 126.45 670.675 125.404 677.142 128.226L682.035 117.169C683.888 117.976 685.744 118.773 687.567 119.644L679.981 136.119C678.363 135.345 672.512 132.713 664.029 129.253C653.646 125.065 646.657 122.696 642.325 121.183L650.086 98.2833C642.293 95.7255 634.465 93.261 626.537 91.1518L620.594 89.5558L617.581 101.262L611.778 99.8506L616.035 82.2259C623.673 84.086 620.894 83.3787 628.131 85.3225Z" fill="#2B3C5E"/>
<path d="M587.338 100.889L589.469 88.9916L595.424 90.1284L591.962 107.925C584.627 106.523 577.069 105.279 574.835 104.996C568.259 104.099 565.419 103.552 551.821 102.304L553.947 78.227C545.863 77.5642 553.955 78.0266 529.388 76.7795C527.34 76.6766 525.289 76.7032 523.24 76.6618L523.063 88.7456L517.089 88.6703V70.5419C528.276 70.6808 528.201 70.6724 529.564 70.7392C547.237 71.6363 549.595 71.6374 560.694 72.7721L558.212 96.8167C571.584 98.3405 565.611 97.6364 575.723 99.0182C577.347 99.225 577.9 99.3309 587.338 100.889Z" fill="#2B3C5E"/>
<path d="M577.499 87.0627C579.504 87.3193 581.493 87.682 583.488 88.0033L582.512 93.9673C580.546 93.6502 578.587 93.2928 576.612 93.0405L577.499 87.0627Z" fill="#2B3C5E"/>
<path d="M624.942 96.9821C626.891 97.5198 628.853 98.0065 630.784 98.6035L629.102 104.409C627.2 103.821 625.268 103.342 623.348 102.812L624.942 96.9821Z" fill="#2B3C5E"/>
<path d="M675.428 101.258C687.482 106.179 693.448 108.956 703.889 114.029L693.123 135.686C698.16 138.182 705.289 141.858 708.758 143.844C718.093 149.047 713.455 146.461 718.969 149.673L725.143 139.272C726.875 140.309 728.639 141.296 730.345 142.376L720.855 157.838C715.961 154.738 706.525 149.521 705.828 149.134C700.875 146.297 688.474 140.021 685.229 138.562L695.67 116.748C690.465 114.351 686.394 112.264 673.147 106.857C671.246 106.089 669.358 105.289 667.433 104.582L663.041 115.847L657.458 113.731L663.792 96.7382C674.091 100.643 670.429 99.2387 675.428 101.258Z" fill="#2B3C5E"/>
<path d="M633.06 111.887L636.596 100.327C638.54 100.881 640.457 101.519 642.38 102.141L636.818 119.4C630.76 117.441 623.011 115.207 620.162 114.472C612.06 112.296 615.936 113.242 597.645 109.054L602.614 85.3968C597.844 84.3056 582.576 81.6216 578.388 81.0839L572.294 80.2334L570.698 92.2133C568.728 91.9174 566.749 91.7043 564.771 91.4805L566.899 73.4762C571.666 74.017 570.088 73.8241 579.276 75.1062C581.688 75.4158 593.696 77.2758 609.959 80.806L604.636 104.387C617.609 107.459 614.444 106.677 621.758 108.642C625.555 109.622 629.302 110.779 633.062 111.887H633.06Z" fill="#2B3C5E"/>
<path d="M720.483 122.687C727.828 126.783 736.888 131.925 747.218 138.734L733.955 158.967C738.893 162.158 743.729 165.501 748.515 168.912C751.683 171.221 754.874 173.495 757.962 175.907L765.324 166.307C766.924 167.537 768.541 168.748 770.128 169.996L758.872 184.234C752.796 179.452 746.117 174.65 744.979 173.82C736.657 167.891 728.285 162.43 725.769 160.899L738.73 140.471C727.093 133.229 725.387 132.345 717.551 127.978C714.167 126.098 715.408 126.771 712.143 125.052L706.44 135.716L701.158 132.937L709.473 116.816L720.484 122.688L720.483 122.687Z" fill="#2B3C5E"/>
<path d="M670.868 112.455L676.479 114.746L674.116 120.31L668.589 118.054L670.868 112.455Z" fill="#2B3C5E"/>
<path d="M762.664 149.285C775.589 158.696 776.443 159.539 787.308 168.364L771.747 186.898C776.268 190.653 780.678 194.538 785.033 198.483C787.892 201.161 790.811 203.777 793.587 206.541L802.031 197.87L806.368 202.093L793.512 214.911C782.928 204.612 788.128 209.674 780.942 202.94C775.282 197.815 769.341 192.636 763.386 187.856L778.672 169.096C769.993 162.128 767.084 159.986 759.128 154.191C757.482 152.97 755.783 151.824 754.1 150.656L747.172 160.573L742.261 157.184L752.431 142.157C760.05 147.413 761.104 148.125 762.664 149.285Z" fill="#2B3C5E"/>
<path d="M711.689 138.555L714.62 133.265L719.912 136.216L716.903 141.461L711.689 138.555Z" fill="#2B3C5E"/>
<path d="M801.401 180.653C806.632 185.544 816.709 194.949 823.62 202.49L805.98 219.07C808.684 221.967 812.396 225.88 817.809 232.132L825.351 241.138L834.759 233.518L838.563 238.226L824.283 249.448L813.221 236.079C807.57 229.551 801.359 222.921 797.56 219.046L814.954 202.208C805.411 192.466 802.179 189.664 797.311 185.111C795.824 183.702 794.256 182.382 792.732 181.013L784.681 190.047C783.186 188.736 781.716 187.396 780.199 186.11L792.075 172.382C793.39 173.499 800.09 179.41 801.403 180.653H801.401Z" fill="#2B3C5E"/>
<path d="M752.053 164.005L755.589 159.098L760.488 162.66L756.878 167.514L752.053 164.005Z" fill="#2B3C5E"/>
<path d="M836.167 216.345C843.962 225.766 850.742 233.769 855.656 240.639L836.181 255.035C842.215 263.344 838.383 257.864 846.389 269.391C850.944 276.294 851.638 277.308 852.809 279.222L863.053 272.761L866.264 277.889L850.755 287.353C847.152 281.599 847.148 281.516 841.364 272.772C836.908 266.355 834.98 263.462 827.817 254.026L847.077 239.345C842.225 233.076 846.629 238.483 831.577 220.292C830.248 218.735 828.864 217.225 827.51 215.69L818.449 223.717C817.116 222.242 815.831 220.725 814.459 219.286L827.87 207.046C829.114 208.353 835.038 215.026 836.165 216.346L836.167 216.345Z" fill="#2B3C5E"/>
<path d="M789.124 194.025L793.217 189.568L797.654 193.686L793.498 198.083L789.124 194.025Z" fill="#2B3C5E"/>
<path d="M826.989 224.238L830.904 228.854L826.256 232.733L822.399 228.185L826.989 224.238Z" fill="#2B3C5E"/>
<path d="M866.484 255.87C871.7 263.708 877.98 273.451 882.964 282.291L861.92 294.292C867.339 303.966 865.4 300.417 870.34 309.756C871.012 311.05 874.868 318.748 875.557 320.27L886.497 315.065L889.062 320.543L872.538 328.106C872.509 328.044 868.461 319.286 864.95 312.52C860.969 304.998 860.04 303.083 853.727 292.311L874.59 280.001C870.453 272.936 865.992 266.067 861.457 259.253L857.957 254.208L848.01 261.116C846.872 259.487 845.757 257.842 844.567 256.25L859.331 245.67C860.488 247.219 861.268 248.36 866.481 255.873L866.484 255.87Z" fill="#2B3C5E"/>
<path d="M856.436 262.631L859.77 267.679L854.697 270.985L851.412 266.01L856.436 262.631Z" fill="#2B3C5E"/>
<path d="M891.901 298.701C897.284 309.078 901.23 317.972 905.139 326.883L882.814 336.307C888.303 349.682 885.608 343.06 889.314 352.665C889.933 354.231 890.19 354.999 893.263 363.714L904.746 359.844L906.619 365.594L889.309 371.141C886.989 364.01 884.483 356.923 883.634 354.77C878.138 340.536 877.671 339.658 874.912 333.373L897.093 323.618C894.753 318.123 889.158 306.564 886.512 301.464L883.641 296.038L872.945 301.724C871.19 298.408 871.842 299.61 870.097 296.49L886.012 287.724L891.901 298.701Z" fill="#2B3C5E"/>
<path d="M912.038 344.245C913.701 348.471 917.605 359.7 921.812 373.802L898.52 380.507C900.127 386.147 901.672 391.808 903.023 397.517C903.997 401.305 904.766 405.141 905.616 408.959L917.481 406.481C917.934 408.445 918.279 410.432 918.668 412.409L900.818 415.861C899.688 410.113 898.101 402.698 897.131 398.933C895.191 390.731 893.11 383.567 891.046 376.65L914.235 369.599C912.801 364.61 907.804 350.028 906.358 346.352L904.171 340.617L892.872 344.996C892.185 343.132 891.405 341.305 890.658 339.465L907.504 332.647C909.552 337.686 908.172 334.11 912.037 344.248L912.038 344.245Z" fill="#2B3C5E"/>
<path d="M881.121 304.228C882.05 306.018 882.928 307.832 883.833 309.634L878.404 312.317C877.511 310.543 876.647 308.754 875.731 306.991L881.121 304.228Z" fill="#2B3C5E"/>
<path d="M926.593 391.859C928.515 399.358 931.037 411.993 932.762 422.363L908.835 426.257C909.435 429.933 910.081 433.668 911.291 443.681C912.332 452.751 911.861 448.513 912.493 455.351L924.568 454.292C924.733 456.3 924.955 458.303 925.074 460.315L906.94 461.639C906.572 455.354 905.451 445.95 905.273 444.388C903.974 433.652 903.43 430.624 901.909 421.532L925.774 417.284C924.978 413.139 922.832 401.586 920.699 393.274L919.239 387.313L907.498 390.317L905.944 384.567L923.486 379.799C925.531 387.37 924.816 384.601 926.593 391.859Z" fill="#2B3C5E"/>
<path d="M900.676 348.455C901.415 350.331 902.056 352.243 902.735 354.141L897.022 356.161C896.354 354.291 895.722 352.408 894.994 350.561L900.676 348.455Z" fill="#2B3C5E"/>
<path d="M914.808 394.688C915.287 396.646 915.782 398.6 916.191 400.574L910.277 401.9C909.875 399.955 909.386 398.031 908.914 396.103L914.808 394.688Z" fill="#2B3C5E"/>
<path d="M935.368 440.852C937.054 455.576 937.109 458.496 937.879 471.856L913.659 472.912C913.969 482.493 913.864 474.185 914.071 490.51C913.94 500.678 913.958 500.796 913.884 502.245L926 502.597L925.77 508.638L907.605 507.845C907.933 499.272 907.868 501.594 908.01 490.511C907.931 484.279 907.9 476.669 907.307 467.406L931.51 465.996C930.668 452.753 930.301 449.857 929.35 441.56C929.118 439.528 928.897 437.495 928.591 435.473L916.576 437.065L915.748 431.167L933.735 428.512C935 437.521 934.795 435.826 935.37 440.853L935.368 440.852Z" fill="#2B3C5E"/>
<path d="M938.313 490.51C938.135 504.782 938.374 497.865 937.163 521.588L912.985 519.823C912.517 525.671 912.01 531.517 911.291 537.34C910.892 541.232 910.276 545.095 909.752 548.97L921.743 550.74C921.485 552.738 921.122 554.722 920.799 556.711L902.854 553.79C903.786 548.036 904.887 540.404 905.272 536.632C906.281 528.455 906.869 520.492 907.305 513.615L931.508 515.026C932.165 500.357 932.078 504.354 932.251 490.51L932.175 484.379L920.054 484.555C920.013 482.57 920.04 480.583 919.939 478.6L938.114 478.072C938.188 479.562 938.179 479.756 938.313 490.51Z" fill="#2B3C5E"/>
<path d="M923.329 442.266L924.017 448.273L917.988 448.891L917.311 442.974L923.329 442.266Z" fill="#2B3C5E"/>
<path d="M699.269 568.813L728.119 581.237C725.126 588.07 724.542 589.145 722.469 593.297L708.433 586.256C706.626 589.902 704.428 593.855 702.527 597.174L729.729 612.866C736.865 600.534 742.926 587.596 747.826 574.239L703.531 558.162C707.473 547.032 710.297 537.166 712.427 524.959L758.86 533.067C761.334 519.049 762.513 504.8 762.561 490.513H731.135C730.983 497.442 731.258 491.739 730.759 502.986L746.446 503.884C746.271 506.509 746.148 509.719 745.29 517.178L714.071 513.579C715.477 501.446 715.335 494.138 715.421 490.514C715.361 487.981 715.405 484.09 715.071 478.939L777.821 475.351C778.362 487.645 778.108 481.335 778.273 490.514C778.202 512.846 775.353 534.036 771.276 550.602L725.399 539.801C724.666 542.702 724.147 545.186 722.184 551.763L767.349 565.225C760.613 588.198 750.07 611.033 735.33 633.594L682.848 599.112C689.164 589.409 693.935 581.012 699.268 568.817L699.269 568.813Z" fill="#2B3C5E"/>
<path d="M672.779 636.941L684.207 647.694C681.612 650.492 677.548 654.544 674.742 657.131L653.172 634.344C657.506 630.359 663.228 624.451 669.041 617.572L681.072 627.649C676.622 632.909 674.663 634.906 672.779 636.941Z" fill="#2B3C5E"/>
<path d="M669.714 793.423L683.84 821.413C664.232 831.114 644.584 839.128 623.586 845.291L605.584 785.251C635.635 776.461 662.215 763.418 686.647 747.516L712.586 786.76C718.363 783.003 723.977 779.01 729.525 774.933L701.347 737.255C722.776 721.006 738.615 705.823 753.419 688.238C757.305 683.751 761.833 677.808 764.568 674.222L814.955 711.682C810.797 717.149 806.031 723.338 801.547 728.543C793.115 738.469 783.297 749.272 771.946 759.821L750.376 737.034C754.745 732.978 760.39 727.341 764.346 723.105L775.773 733.858C783.943 725.11 785.984 722.621 789.514 718.466L765.45 698.314C752.944 713.167 739.826 726.153 725.509 738.135L755.829 774.123C733.546 793.204 711.514 805.93 702.859 811.176L679.253 770.495C662.913 779.902 645.748 787.898 628.01 794.357L638.76 823.8C648.285 820.273 648.866 819.946 658.008 816.156L651.777 801.774C658.501 798.838 660.109 798.177 669.711 793.424L669.714 793.423Z" fill="#2B3C5E"/>
<path d="M606.057 667.291L620.183 695.281C616.286 697.214 615.066 697.875 608.086 700.914L601.857 686.532C597.691 688.361 594.537 689.536 590.316 691.12L601.066 720.562C614.465 715.677 627.44 709.635 639.808 702.518L616.202 661.837C629.225 654.163 639.154 646.706 644.531 642.011L674.849 678C685.836 668.806 695.693 659.022 705.137 647.802L669.041 617.572C671.778 614.457 676.18 608.608 676.229 608.546L726.615 646.005C726.354 646.346 720.923 653.562 717.168 657.878C704.617 672.788 691.45 685.404 673.047 699.413L644.869 661.736C641.515 664.181 638.143 666.606 634.656 668.858L660.596 708.102C639.29 721.943 616.43 732.912 592.022 740.025L574.02 679.985C583.412 677.267 594.357 673.1 606.057 667.289V667.291Z" fill="#2B3C5E"/>
<path d="M542.028 702.47L543.833 718.033C536.288 718.894 533.101 719.013 530.499 719.185L528.699 687.904C536.575 687.369 541.222 687.005 551.638 685.267L554.348 700.699C550.26 701.384 546.158 702.023 542.028 702.47Z" fill="#2B3C5E"/>
<path d="M419.594 815.271C424.921 816.838 426.834 817.459 438.721 820.376L431.499 850.87C404.275 844.214 390.427 839.031 369.936 830.538L394.858 773.01C420.891 783.805 447.688 792.341 481.296 796.048L475.881 842.736C486.578 843.933 490.153 844.115 496.47 844.514L499.17 797.593C521.427 798.564 541.934 798.522 570.648 793.489C577.49 792.299 583.825 790.957 588.236 789.883L602.679 850.872C597.217 852.193 589.62 853.8 581.49 855.215C564.733 858.072 553.136 859.242 538.609 860.156L536.809 828.875C541.976 828.547 545.85 828.368 556.493 827.175L558.298 842.738C565.151 841.978 571.976 840.943 578.78 839.785L573.359 808.922C554.768 812.179 535.907 813.741 517.091 813.789V860.788C495.967 860.521 478.172 859.561 452.69 855.215L460.822 808.921C442.237 805.649 423.914 800.799 406.169 794.358L395.418 823.801C401.922 826.122 408.467 828.338 415.096 830.282L419.596 815.273L419.594 815.271Z" fill="#2B3C5E"/>
<path d="M471.266 682.954L464.044 713.448C461.148 712.724 458.724 712.248 451.156 710.006L455.656 694.997C451.681 693.843 447.766 692.496 443.862 691.118L433.112 720.561C446.518 725.425 460.354 729.08 474.408 731.562L482.54 685.267C499.4 688.081 507.091 688.019 517.09 688.253V735.252C531.419 735.203 545.711 734.027 559.77 731.562L551.638 685.267C556.278 684.462 560.391 683.579 562.913 682.954L577.357 743.943C573.824 744.807 568.413 745.962 562.482 746.992C538.328 751.228 521.557 751.328 501.881 750.466L504.581 703.544C496.406 702.996 495.559 702.86 492.151 702.47L486.736 749.158C458.194 746.036 435.419 738.716 413.633 729.676L438.555 672.148C451.262 677.745 461.953 680.603 471.266 682.954Z" fill="#2B3C5E"/>
<path d="M233.077 676.806C236.677 682.311 240.51 687.66 244.416 692.951L219.223 711.681C205.748 693.457 197.1 679.567 185.199 656.765L241.345 628.599C254.829 654.447 268.456 675.605 292.685 701.6L258.403 733.859C262.615 738.367 268.494 744.229 273.016 748.428L305.371 714.248C322.963 730.548 341.118 744.452 362.791 756.936C369.987 761.052 371.966 762.001 378.589 765.436L350.337 821.414C342.45 817.321 339.832 816.055 331.315 811.177C319.147 803.802 312.29 800.01 295.258 787.492L314.044 762.373C319.349 766.268 324.714 770.089 330.237 773.679L321.591 786.76C326.95 790.251 322.298 787.382 339.184 797.616L354.922 770.495C338.583 761.084 323.108 750.214 308.665 738.135L278.347 774.123C258.341 757.227 245.59 743.794 232.629 728.542L268.725 698.314C256.611 683.914 245.709 668.484 236.268 652.195L209.067 667.886C219.271 684.622 216.327 679.892 219.955 685.427L233.076 676.807L233.077 676.806Z" fill="#2B3C5E"/>
<path d="M357.95 608.545L332.756 627.274C330.121 623.687 327.514 620.077 325.088 616.348L338.209 607.728C334.376 601.849 334.353 601.73 331.651 597.173L304.45 612.865C311.592 625.195 319.858 636.882 329.042 647.801L365.138 617.573C372.9 626.759 380.435 634.271 389.648 642.01L359.329 677.999C370.281 687.155 382.003 695.396 394.37 702.517L386.501 716.077C367.602 705.194 352.625 693.553 337.867 679.918L370.222 645.738C367.624 643.345 363.799 639.531 361.399 636.941L327.117 669.2C306.331 646.835 294.976 629.128 283.636 607.38L339.782 579.213C343.854 587.45 349.931 597.591 357.95 608.545Z" fill="#2B3C5E"/>
<path d="M399.521 668.859L390.875 681.94C387.134 679.521 383.515 676.922 379.917 674.296L398.702 649.177C404.956 653.728 409.156 656.639 417.977 661.836C421.055 663.588 424.799 665.658 428.122 667.29L399.87 723.268C394.224 720.342 392.709 719.621 386.501 716.077L410.108 675.396C399.467 668.948 403.231 671.262 399.521 668.859Z" fill="#2B3C5E"/>
<path d="M319.107 478.934L287.732 477.14C287.939 474.034 288.07 470.969 288.888 463.845L304.497 465.645C304.944 461.526 305.587 457.438 306.273 453.362L275.317 447.957C272.845 461.975 271.665 476.224 271.616 490.51H318.755C319.054 503.194 319.293 510.322 321.751 524.956L275.317 533.064C277.806 547.076 281.473 560.87 286.351 574.237L271.586 579.596C264.277 559.572 259.691 539.163 257.668 520.774L304.496 515.376C303.682 508.316 303.576 505.325 303.417 502.983L256.355 505.675C255.3 481.732 256.242 457.468 262.899 430.423L324.069 444.824C321.963 453.279 320.077 464.697 319.104 478.936L319.107 478.934Z" fill="#2B3C5E"/>
<path d="M177.717 470.85L146.342 469.055C147.581 449.492 150.158 427.759 155.653 405.175L216.824 419.576C208.935 451.807 207.815 479.327 209.091 508.378L162.028 511.069C162.393 516.813 162.593 520.782 163.811 531.597L210.638 526.199C213.087 548.274 218.542 572.306 227.1 595.746C230.25 604.181 230.355 604.251 233.746 612.379L176.045 637.227C171.948 627.399 171.567 626.663 168.039 617.183C161.916 600.143 159.11 589.905 155.653 575.847L186.239 568.646C187.409 573.386 188.198 577.037 191.359 587.717L176.304 592.204C178.253 598.813 180.476 605.339 182.804 611.822L212.335 601.103C205.875 583.411 201.011 565.143 197.73 546.612L151.297 554.72C147.063 530.032 145.986 512.373 145.708 490.511H192.847C192.895 471.751 194.462 452.947 197.729 434.41L166.774 429.005C165.611 435.788 164.573 442.594 163.811 449.426L179.421 451.226C178.836 456.406 178.446 459.419 177.716 470.852L177.717 470.85Z" fill="#2B3C5E"/>
<path d="M161.25 384.331C163.288 377.428 165.607 370.613 168.04 363.841L227.101 385.278C225.087 390.899 223.155 396.551 221.469 402.28L161.25 384.331Z" fill="#2B3C5E"/>
<path d="M311.993 551.76L296.939 556.247C294.697 548.724 294.222 546.325 293.486 543.399L324.071 536.199C325.609 542.254 326.583 546.688 330.649 558.161C332.086 561.957 333.189 564.929 334.91 568.814L277.209 593.661C274.082 586.167 274.227 586.636 271.587 579.597L315.883 563.519C314.501 559.627 313.15 555.724 311.993 551.76Z" fill="#2B3C5E"/>
<path d="M312.946 181.181C318.498 177.563 313.875 180.417 331.316 169.845L362.791 224.086C347.786 233.181 352.334 230.38 347.531 233.505L312.945 181.18L312.946 181.181Z" fill="#2B3C5E"/>
<path d="M213.273 338.34C208.365 348.196 207.058 351.301 204.897 356.219L190.472 350.007C186.514 359.499 186.215 360.045 182.805 369.198L168.04 363.839C174.656 346.061 180.157 334.387 185.2 324.255L213.273 338.34Z" fill="#2B3C5E"/>
<path d="M269.831 257.917L246.976 236.411C259.549 222.962 275.294 208.624 295.26 193.531L332.831 243.768C306.404 263.811 288.365 282.219 269.61 306.801L231.82 278.707C227.73 284.239 223.725 289.836 219.956 295.597L259.318 321.459C246.499 341.045 235.81 361.509 227.101 385.278L212.336 379.919C218.814 362.234 226.834 345.12 236.269 328.829L195.467 305.292C205.759 288.412 216.171 271.586 232.63 252.481L268.726 282.709C281.281 267.797 294.404 254.826 308.667 242.888L288.454 218.896C284.365 222.348 281.827 224.416 273.017 232.595L283.802 243.989C279.493 247.989 273.843 253.621 269.831 257.917Z" fill="#2B3C5E"/>
<path d="M372.826 354.832L349.972 333.326C352.567 330.529 356.631 326.477 359.437 323.889L370.222 335.283C376.468 329.535 377.118 329.052 379.542 327.015L359.33 303.022C347.988 312.513 338.194 322.348 329.043 333.219L365.139 363.448C360.133 369.146 352.707 379.121 345.253 391.693L304.451 368.157C297.313 380.489 291.253 393.426 286.354 406.784L315.884 417.503C317.469 413.302 318.65 410.147 320.485 405.997L306.06 399.785C309.042 392.979 309.629 391.894 311.71 387.724L339.783 401.808C335.451 410.477 333.577 415.126 330.65 422.862C329.374 426.466 328.119 430.079 327.05 433.75L266.83 415.801C268.251 410.956 269.892 406.179 271.59 401.425C279.052 381.072 288.028 364.003 298.85 347.431L338.211 373.294C340.47 369.818 342.903 366.457 345.354 363.112L307.564 335.018C324.651 312.704 339.796 297.849 361.133 281.608L398.704 331.845C389.467 338.929 380.727 346.291 372.826 354.832Z" fill="#2B3C5E"/>
<path d="M382.398 179.247C372.704 183.481 369.989 184.864 364.465 187.599L357.402 173.604C349.834 177.53 347.384 178.712 339.185 183.407L331.317 169.847C346.398 161.209 359.059 155.237 369.938 150.484L382.398 179.247Z" fill="#2B3C5E"/>
<path d="M493.955 294.114L490.345 262.989C497.633 262.158 500.812 262.027 503.68 261.836L504.58 277.477C515.916 276.978 510.09 277.255 517.09 277.102V245.769C502.761 245.818 488.469 246.994 474.409 249.46L482.541 295.755C470.318 297.877 460.257 300.745 449.239 304.625L433.113 260.462C419.716 265.346 406.74 271.389 394.371 278.504L417.978 319.185C408.117 325.161 411.536 323.065 408.169 325.245L373.584 272.919C377.815 270.171 373.567 272.783 386.502 264.943C405.322 254.113 424.395 246.172 442.157 240.995L455.659 286.025C462.384 284.03 464.718 283.558 467.656 282.82L456.823 237.079C484.442 230.32 508.031 229.493 532.299 230.554L528.701 293.116C518.472 292.458 506.148 292.71 493.956 294.113L493.955 294.114Z" fill="#2B3C5E"/>
<path d="M421.059 299.737L413.996 285.742C420.69 282.421 421.776 281.989 426.092 280.11L438.554 308.875C430.078 312.56 424.594 315.42 417.978 319.185L410.109 305.626C413.418 303.741 417.431 301.526 421.06 299.738L421.059 299.737Z" fill="#2B3C5E"/>
<path d="M560.103 122.723C567.258 123.519 574.386 124.597 581.489 125.808L570.647 187.535C564.747 186.534 558.829 185.63 552.883 184.975L560.103 122.723Z" fill="#2B3C5E"/>
<path d="M477.686 153.849L474.076 122.724C501.282 119.683 518.577 119.996 538.608 120.868L535.008 183.43C526.028 183.038 525.434 182.954 517.089 182.901C491.926 182.743 465.797 186.308 445.942 191.14L435.11 145.399C429.88 146.68 426.146 147.491 415.092 150.74L428.594 195.77C407.474 201.947 384.965 211.321 362.791 224.086L354.922 210.526C371.261 201.119 388.428 193.123 406.165 186.664L390.039 142.501C410.041 135.356 429.978 129.762 452.687 125.808L460.819 172.103C479.411 168.845 498.272 167.282 517.089 167.236V135.903C505.905 136.05 510.633 135.892 496.469 136.508L497.369 152.149C485.898 152.877 483.074 153.244 477.686 153.849Z" fill="#2B3C5E"/>
<path d="M720.134 218.65C714.828 214.754 709.464 210.934 703.94 207.344L721.232 181.182C737.543 191.795 753.681 204.236 771.948 221.203L728.806 266.777C703.448 243.279 683.001 229.804 655.587 215.589L676.775 173.605C666.65 168.593 664.988 167.914 658.01 164.867L639.318 208.013C617.945 199.151 598.641 192.466 570.647 187.535L573.357 172.103C591.943 175.375 610.266 180.225 628.011 186.664L644.136 142.501C665.888 150.545 684.236 159.177 702.861 169.845L679.254 210.526C695.592 219.938 711.067 230.808 725.51 242.887L745.722 218.894C740.726 214.611 734.773 210.061 729.524 206.09L720.131 218.648L720.134 218.65Z" fill="#2B3C5E"/>
<path d="M787.203 236.411C791.308 240.803 794.096 243.709 801.548 252.48L753.421 292.784C750.319 289.13 748.81 287.272 741.493 279.423L787.203 236.411Z" fill="#2B3C5E"/>
<path d="M614.585 165.751C609.314 164.201 607.407 163.577 595.458 160.646L599.069 145.399C593.941 144.157 586.611 142.603 578.779 141.24L581.489 125.808C597.807 128.648 610.353 131.843 623.586 135.731L614.585 165.751Z" fill="#2B3C5E"/>
<path d="M566.524 282.82L570.135 267.573C579.218 269.845 578.894 269.793 583.023 271.015L574.022 301.036C566.514 298.806 559.237 297.074 551.64 295.756C547.852 295.124 544.054 294.527 540.225 294.115L547.446 231.865C552.483 232.415 557.49 233.187 562.483 234.03L554.351 280.325C559.306 281.185 563.747 282.136 566.526 282.823L566.524 282.82Z" fill="#2B3C5E"/>
<path d="M626.01 325.245L643.304 299.082C647.044 301.501 650.664 304.1 654.262 306.727L644.869 319.287C644.931 319.334 651.406 324.203 654.638 327.017L674.85 303.025C663.898 293.869 652.176 285.627 639.808 278.507L616.202 319.187C604.677 312.629 596.239 308.876 584.94 304.627L601.066 260.464C587.659 255.6 573.824 251.944 559.77 249.463L562.481 234.031C586.572 238.282 602.552 243.882 620.547 251.347L601.856 294.494C608.166 297.239 610.607 298.491 613.119 299.739L634.307 257.755C658.439 270.263 675.499 281.881 696.312 301.106L653.172 346.68C644.425 338.646 635.995 331.688 626.009 325.247L626.01 325.245Z" fill="#2B3C5E"/>
<path d="M681.074 353.372C684.048 356.77 688.772 363.042 688.826 363.111L701.423 353.746C704.057 357.334 706.664 360.944 709.09 364.672L682.85 381.913C678.456 375.142 672.362 367.227 669.042 363.447C664.771 358.394 663.002 356.616 661.353 354.831L707.063 311.819C713.643 318.9 714.544 320.044 717.169 323.142L681.074 353.372Z" fill="#2B3C5E"/>
<path d="M741.233 302.991C784.926 354.931 809.501 419.948 809.701 490.51C809.501 561.136 784.92 626.095 741.233 678.029C697.785 729.637 637.153 765.653 567.902 777.855C502.772 789.272 432.729 778.866 370.763 743.197C313.578 710.261 266.545 657.134 242.058 590.314C219.311 528.004 217.913 456.844 242.058 390.705C266.484 324.052 313.389 270.869 370.763 237.822C431.624 202.789 501.557 191.535 567.902 203.165C637.325 215.397 697.91 251.532 741.233 302.991ZM378.711 251.519C324.525 282.726 280.096 333.031 256.971 396.119C234.806 456.84 234.806 524.181 256.971 584.902C279.894 647.437 323.946 697.961 378.711 729.501C436.231 762.607 502.33 773.285 565.165 762.269C630.87 750.685 688.131 716.495 729.081 667.852C769.857 619.374 793.628 558.143 793.83 490.51C793.632 423.946 770.556 362.477 729.081 313.168C687.983 264.352 630.662 230.299 565.165 218.751C502.699 207.8 436.547 218.232 378.711 251.519Z" fill="#2B3C5E"/>
<path d="M888.47 490.51C888.218 510.309 887.491 519.911 885.975 533.396L854.756 529.797C855.339 524.629 855.727 521.641 856.461 510.171L872.149 511.068C872.771 496.854 872.609 501.567 872.756 490.51H841.33C841.282 509.271 839.716 528.076 836.448 546.612L882.88 554.719C879.012 576.814 873.521 596.635 866.138 617.181L821.843 601.103C815.364 618.788 807.345 635.903 797.909 652.194L825.111 667.885C829.793 659.759 830.999 657.28 834.943 649.723L820.908 642.681C825.71 633.036 826.361 631.452 829.284 624.802L858.133 637.226C848.587 658.949 838.826 676.534 827.344 694.047L774.863 659.565C791.992 633.39 804.578 606.381 812.711 578.742L857.875 592.203C860.939 581.841 861.464 579.428 863.233 572.245L817.355 561.445C822.346 541.055 825.551 516.248 825.619 490.51C825.463 480.338 825.675 485.997 825.088 472.644L887.838 469.055C888.477 483.668 888.326 479.171 888.472 490.509L888.47 490.51Z" fill="#2B3C5E"/>
<path d="M801.102 304.216C797.501 298.71 793.67 293.361 789.762 288.071L802.359 278.706C798.386 273.485 793.801 267.526 789.515 262.555L801.548 252.48C808.947 261.067 819.214 274.557 827.342 286.975L801.101 304.217L801.102 304.216Z" fill="#2B3C5E"/>
<path d="M708.433 394.767C711.646 401.2 712.589 403.476 713.693 405.997L756.969 387.362C766.633 410.517 773.488 432.774 776.508 460.247L714.071 467.446C713.011 457.63 710.786 445.981 707.13 433.749L737.24 424.774C738.447 428.827 738.386 428.456 740.691 437.623L725.4 441.223C726.079 443.964 727.039 448.403 727.903 453.362L758.859 447.957C756.371 433.945 752.704 420.151 747.825 406.784L703.53 422.861C699.264 411.586 695.492 403.16 688.926 391.692L729.728 368.156C722.586 355.826 714.319 344.139 705.137 333.218L717.169 323.142C732.552 341.432 741.494 356.288 750.542 373.639L708.433 394.765V394.767Z" fill="#2B3C5E"/>
<path d="M847.939 412.376C845.11 400.912 844.6 399.326 842.819 393.306L872.928 384.332C878.665 403.738 883.378 424.388 885.975 447.627L823.539 454.825C819.891 421.931 811.845 396.005 800.432 368.645L843.707 350.008C839.117 339.56 838.25 337.939 834.943 331.299L792.835 352.424C782.31 332.251 771.586 314.378 753.421 292.784L765.453 282.708C777.568 297.108 788.47 312.536 797.909 328.827L838.712 305.29C850.373 325.526 858.674 343.781 866.138 363.84L821.843 379.917C828.302 397.61 833.166 415.878 836.447 434.408L867.403 429.003C866.055 421.305 864.513 414.032 863.231 408.775L847.939 412.376Z" fill="#2B3C5E"/>
<path d="M546.243 519.578C546.719 519.03 547.244 518.528 547.736 517.996L564.413 532.977C561.521 536.033 562.603 534.945 559.682 537.694L552.17 529.38C551.305 530.118 549.437 531.765 547.878 532.832L561.087 550.927C567.725 546.077 572.823 540.994 577.687 534.376L550.463 514.622C554.373 508.769 554.102 508.868 556.302 503.226L588.327 513.594C590.671 506.23 591.893 499.462 591.99 490.51H569.543C569.496 491.437 569.479 492.364 569.47 493.29C569.373 494.205 569.322 495.123 569.252 496.038L580.415 497.194C580.127 499.104 580.072 500.611 579.373 503.75L557.411 499.118C557.801 497.414 557.965 495.576 558.088 494.881C558.137 494.159 558.174 493.434 558.26 492.713C558.26 491.978 558.272 491.244 558.319 490.509C558.272 489.774 558.26 489.04 558.26 488.306C558.173 487.584 558.137 486.859 558.088 486.138L602.743 481.512C603.187 487.165 603.072 485.098 603.214 490.509C603.08 504.524 599.881 516.944 595.768 525.425L565.015 511.753C564.709 512.442 563.997 514.119 562.527 516.61L591.671 533.422C590.521 535.358 591.674 533.478 589.314 537.254C583.98 545.787 573.07 556.869 563.972 562.521C560.178 564.877 562.048 563.736 560.129 564.871L537.646 526.128C542.388 523.248 541.877 523.342 546.242 519.577L546.243 519.578Z" fill="#2B3C5E"/>
<path d="M500.353 528.075L491.211 548.516C487.574 546.899 485.864 545.835 485.29 545.501L490.91 535.815C486.845 533.375 487.805 533.85 486.301 532.832L473.092 550.927C479.31 555.532 487.351 559.489 493.937 561.536L504.335 529.606C507.412 530.718 512.027 531.269 512.704 531.387C513.429 531.437 514.156 531.473 514.88 531.559C515.616 531.559 516.353 531.571 517.09 531.618V565.188C526.091 565.09 532.879 563.865 540.243 561.536L529.845 529.606C529.908 529.581 532.778 528.625 533.827 528.075L552.108 568.956C549.056 570.428 543.769 572.157 543.708 572.18C530.554 576.353 520.21 576.858 508.065 575.909L511.544 542.518C510.34 542.325 508.567 542.205 506.131 541.661L499.164 574.505C482.387 570.626 471.228 564.45 459.471 554.321L489.521 521.066C495.658 526.067 497.357 526.697 500.353 528.075Z" fill="#2B3C5E"/>
<path d="M528.046 541.661L530.369 552.609C527.22 553.305 525.706 553.361 523.794 553.648L521.474 531.387C521.873 531.317 526.46 530.83 529.845 529.606L533.309 540.25C531.419 540.914 528.969 541.444 528.046 541.661Z" fill="#2B3C5E"/>
<path d="M486.443 517.996L453.089 547.957C451.999 546.698 449.574 544.005 447.417 540.961L483.717 514.623C484.545 515.849 486.192 517.69 486.443 517.996Z" fill="#2B3C5E"/>
<path d="M394.611 600.487C391.944 597.432 388.291 593.383 383.775 587.139L420.074 560.801C423.123 565.05 425.961 568.224 427.965 570.525L394.611 600.487Z" fill="#2B3C5E"/>
<path d="M445.872 613.428C453.226 617.616 456.089 618.799 459.158 620.19L450.017 640.632C430.915 631.952 419.525 623.681 406.784 612.624L436.836 579.369C452.58 592.992 468.32 602.023 492.166 607.492L485.198 640.336C492.176 641.836 496.532 642.276 501.091 642.836L504.57 609.445C522.432 611.076 537.9 609.434 554.15 604.248C554.349 604.179 561.456 601.835 565.878 599.75L584.16 640.632C579.051 643.003 573.35 645.01 568.015 646.82C556.371 650.633 545.653 652.581 534.246 653.966L531.926 631.705C534.788 631.349 539.857 630.851 546.657 629.387L548.98 640.335C552.307 639.575 557.64 638.444 564.549 636.177L557.617 614.89C544.499 619.081 531.815 621.193 517.089 621.285V654.855C499.199 654.558 483.503 652.497 466.163 646.819L476.561 614.889C464.39 611.04 451.003 604.372 439.984 596.283L426.776 614.378C430.077 616.716 432.805 618.758 440.251 623.112L445.872 613.426V613.428Z" fill="#2B3C5E"/>
<path d="M387.023 548.27C388.649 551.836 390.069 554.994 393.804 561.516L384.089 567.12C388.392 574.432 390.296 576.974 392.849 580.555L383.775 587.139C377.228 577.97 372.395 570.236 366.519 557.383L387.023 548.27Z" fill="#2B3C5E"/>
<path d="M476.091 486.139L453.763 483.826C454.051 481.915 454.107 480.411 454.806 477.271L465.786 479.587C466.197 477.853 466.607 476.019 467.202 474.338L445.852 467.426C443.507 474.794 442.286 481.565 442.188 490.51H475.859C475.905 491.244 475.918 491.979 475.918 492.714C476.004 493.435 476.041 494.16 476.091 494.883C476.101 494.945 476.684 499.943 477.877 503.227L445.852 513.595C447.917 520.199 451.899 528.21 456.492 534.377L447.417 540.961C439.197 529.899 435.292 518.905 432.844 508.382L465.786 501.435C465.241 499.002 465.119 497.236 464.927 496.038L431.436 499.507C430.812 491.574 430.749 485.322 432.023 477.054C433.301 468.759 436.025 460.509 438.409 455.594L479.412 473.822C476.92 478.547 476.102 486.066 476.09 486.137L476.091 486.139Z" fill="#2B3C5E"/>
<path d="M471.65 516.612L461.935 522.216C461.449 521.386 460.41 519.661 458.911 516.311L479.412 507.198C479.562 507.521 479.699 507.849 479.841 508.175C480.731 510.228 482.471 512.761 483.716 514.622L474.641 521.206C473.635 519.728 474.086 520.645 471.65 516.612Z" fill="#2B3C5E"/>
<path d="M399.76 515.36C403.981 533.655 410.921 548.419 420.074 560.801L411.001 567.385C402.867 556.373 396.19 543.021 392.338 530.919L360.313 541.286C354.672 524.154 352.555 508.539 352.254 490.51H385.925C386.018 475.756 388.156 463.116 392.338 450.103L370.989 443.191C368.719 450.065 367.723 454.771 366.818 458.714L377.799 461.03C376.295 467.968 375.8 473.11 375.474 475.716L353.146 473.403C355.695 452.547 360.703 436.1 366.521 423.637L407.525 441.865C400.025 457.678 395.62 479.229 397.801 502.992L364.31 506.461C364.836 510.711 365.333 515.445 366.818 522.307L399.76 515.36Z" fill="#2B3C5E"/>
<path d="M468.299 381.271L454.588 350.611C450.267 352.571 447.163 353.977 440.251 357.908L457.114 386.966C442.671 395.446 430.768 405.636 420.074 420.222C418.167 422.915 416.911 424.49 413.234 430.714L374.374 408.298C378.97 400.481 381.222 397.457 383.774 393.882C389.812 385.534 397.818 376.494 406.783 368.398L421.809 385.024C417.713 388.726 415.001 391.432 411.287 395.514L402.949 388.024C400.467 390.869 396.956 394.78 392.849 400.467L410.998 413.636C419.562 401.952 428.935 392.787 439.983 384.738L420.17 357.594C434.664 347.306 446.654 340.818 466.161 334.201L476.559 366.131C489.675 361.94 502.359 359.829 517.087 359.737V337.356C510.704 337.469 508.913 337.452 501.088 338.186L502.247 349.317C499.386 349.672 494.316 350.171 487.517 351.635L482.871 329.739C500.224 326.011 516.922 325.419 534.244 327.057L529.604 371.579C505.947 369.419 484.407 373.679 468.295 381.274L468.299 381.271Z" fill="#2B3C5E"/>
<path d="M551.304 329.738C555.306 330.651 560.507 331.741 568.016 334.2L554.151 376.773C548.992 375.062 544.712 374.148 542.013 373.529L551.304 329.738Z" fill="#2B3C5E"/>
<path d="M550.64 387.556C593.462 401.416 625.286 441.224 625.661 490.511C625.279 540.597 592.564 579.897 550.64 593.467C505.258 608.262 456.109 591.244 429.267 554.132C400.938 515.865 402.345 463.258 429.267 426.892C456.103 389.786 505.25 372.758 550.64 387.556ZM438.433 547.481C462.16 580.313 505.413 595.986 547.14 582.717C585.357 570.343 613.949 534.833 614.326 490.511C613.943 445.517 584.59 410.432 547.14 398.305C505.35 385.016 462.159 400.71 438.433 433.542C413.695 466.904 413.695 514.119 438.433 547.481Z" fill="#2B3C5E"/>
<path d="M519.3 449.461C518.563 449.461 517.826 449.451 517.09 449.403C516.354 449.45 515.617 449.461 514.88 449.461C514.156 449.548 513.429 449.583 512.704 449.633C512.002 449.756 510.171 449.918 508.455 450.308L503.809 428.412C506.958 427.716 508.472 427.66 510.385 427.372L511.544 438.503C512.462 438.434 513.383 438.382 514.301 438.286C515.231 438.276 516.16 438.26 517.089 438.213V415.832C508.068 415.931 501.284 417.161 493.936 419.485L504.334 451.415C498.446 453.696 498.522 453.507 492.904 457.237L473.091 430.093C466.453 434.944 461.355 440.026 456.49 446.645L474.64 459.815C475.698 458.278 477.22 456.563 478.102 455.536L469.763 448.046C472.656 444.991 471.573 446.078 474.494 443.329L489.519 459.957C488.985 460.447 488.483 460.97 487.932 461.444C487.814 461.581 484.968 464.543 483.714 466.4C483.314 466.999 482.839 467.551 482.489 468.179C481.345 469.999 481.454 469.863 481.362 470.014L442.502 447.598C445.516 442.526 446.032 442.035 447.413 440.062C455.352 429.252 463.712 422.261 474.045 416.15L490.907 445.208C491.408 444.914 492.824 444.032 495.779 442.728L482.067 412.067C483.023 411.605 485.942 410.362 490.467 408.843C503.109 404.604 514.715 404.223 526.11 405.113L521.471 449.635C520.746 449.585 520.019 449.549 519.297 449.464L519.3 449.461Z" fill="#2B3C5E"/>
<path d="M647.157 432.752C645.526 429.177 644.104 426.017 640.374 419.506L659.804 408.298C669.777 425.752 674.428 439.333 678.342 456.399L634.419 465.662C629.854 445.865 622.407 429.101 606.213 410.496L631.229 388.025C627.258 383.656 624.265 380.671 619.883 376.711L597.345 401.652C584.386 390.439 570.511 381.936 554.152 376.774L557.619 366.13C569.79 369.98 583.177 376.648 594.195 384.737L614.008 357.594C626.619 366.661 640.239 379.826 650.405 393.882L623.181 413.636C631.281 424.606 637.976 437.95 641.842 450.104L663.192 443.192C661.499 438.246 659.626 432.93 657.408 428.195L647.157 432.752Z" fill="#2B3C5E"/>
<path d="M552.813 470.013L572.243 458.805C572.674 459.541 573.675 461.15 575.267 464.71L565.016 469.266C565.769 470.742 566.941 474.245 566.976 474.338L588.326 467.426C586.263 460.823 582.283 452.815 577.686 446.644L550.462 466.398C549.258 464.615 546.3 461.508 546.243 461.442C545.773 461.037 543.208 458.536 541.273 457.237L561.086 430.093C554.869 425.49 546.833 421.532 540.241 419.485L543.707 408.841C556.312 412.778 566.151 419.329 574.707 426.7L552.169 451.641C552.848 452.261 553.492 452.918 554.179 453.529C554.793 454.214 555.452 454.857 556.074 455.533L581.089 433.063C593.034 446.844 598.083 458.658 601.334 472.639L557.411 481.902C555.688 475.317 554.63 473.195 552.813 470.013Z" fill="#2B3C5E"/>
<path d="M538.397 442.726L542.967 432.506C543.811 432.881 545.831 433.741 548.89 435.521L537.648 454.893C534.068 452.86 533.831 452.96 529.845 451.416C528.42 450.901 526.174 450.425 525.724 450.309L535.015 406.516C536.92 406.956 540.172 407.649 543.708 408.842L533.31 440.772C533.37 440.794 536.967 442.001 538.397 442.726Z" fill="#2B3C5E"/>
<path d="M588.307 367.594C581.202 363.548 578.009 362.186 575.021 360.831L579.591 350.611C574.841 348.4 569.51 346.533 564.549 344.844L568.016 334.2C581.642 338.822 589.288 342.392 599.547 348.221L588.307 367.594Z" fill="#2B3C5E"/>
<path d="M681.925 490.51C681.744 501.393 681.147 511.638 678.342 524.623L656.381 519.991C657.885 513.052 658.379 507.91 658.706 505.304L669.869 506.461C670.643 498.282 670.597 496.394 670.702 490.51H648.255C648.161 505.235 646.032 517.879 641.841 530.918L673.866 541.285C668.113 558.143 661.964 570.948 650.403 587.138L623.179 567.384C614.616 579.068 605.243 588.234 594.193 596.284L607.402 614.379C612.762 610.532 616.842 606.946 619.882 604.309L612.369 595.995C616.467 592.291 619.175 589.591 622.891 585.505L639.568 600.486C626.98 614.342 614.015 624.345 599.549 632.799L577.066 594.055C595.329 583.33 609.407 569.837 620.944 550.307L650.089 567.118C654.531 559.354 655.886 556.159 657.408 552.824L626.655 539.153C632.642 526.528 636.901 509.317 637.031 490.508C636.897 485.372 636.947 484.225 636.378 478.027L681.033 473.401C681.827 481.741 681.816 483.928 681.925 490.507V490.51Z" fill="#2B3C5E"/>
</g>
</svg>
