<svg width="571" height="138" viewBox="0 0 571 138" fill="none" xmlns="http://www.w3.org/2000/svg">
<path d="M36 47.2891C43.4114 50.6548 42.4209 43.8606 57.5 44.089C72.5791 44.3174 98 37.5633 98 37.5633C98 37.5633 99.3191 37.5683 124 28.7636C148.681 19.9589 128.581 66.6503 131.817 64.9034C135.052 63.1566 140.974 59.8736 145.98 56.7363C149.521 54.5175 152.5 52.6175 153.96 51.6864L150.231 52.1432L182.282 29.2631L214.23 11.3801L239.363 5L274.669 5.73289L306.72 14.5175L320.15 19.3289L349.046 28.7636L391.373 29.8378L412.027 25.8145L433.699 19.0177L466.868 11.8093H485.591L503.429 12.6376L529.033 18.5509L533.551 18.3902C533.551 18.3902 537.414 19.1407 537.378 20.1672C537.341 21.1938 542.44 22.7424 543.079 24.1404C543.719 25.5409 547.407 27.4484 547.761 28.7636C548.115 30.0788 550 33.1333 550 33.1333L549.897 37.0035L547.558 40.1359L546.234 42.1739L545.216 47.2891C545.216 47.2891 542.774 49.3447 542.147 49.4701C541.519 49.5956 538.603 49.4701 538.603 49.4701L534.73 46.8674L530.596 44.089L526.596 41.3984L522.56 37.5633C522.56 37.5633 530.157 46.3127 530.359 46.8674C530.562 47.4221 530.462 49.0334 530.462 49.9746C530.462 50.9158 529.749 52.5899 529.749 52.5899C529.749 52.5899 527.715 54.0532 527.104 54.264C526.494 54.4724 524.967 53.4282 524.662 53.3228C524.357 53.2174 523.239 52.487 522.525 52.1507C521.812 51.8144 521.507 52.2787 520.897 52.6954C520.286 53.1145 521.305 52.487 519.676 54.9969C518.047 57.5068 520.792 57.5018 520.792 57.5018C520.792 57.5018 520.694 60.6442 520.591 62.2128C520.489 63.7815 519.168 64.6173 519.168 64.6173C519.168 64.6173 517.336 65.3502 516.115 66.0806C514.894 66.8109 516.115 66.0806 513.165 65.6614C510.216 65.2423 511.742 63.9873 511.742 63.9873C511.742 63.9873 510.418 61.6858 509.808 60.7445C509.197 59.8033 507.468 60.9529 507.468 60.9529C507.468 60.9529 504.824 62.8353 504.416 63.6711C504.008 64.5069 501.466 66.0881 501.466 66.0881C501.466 66.0881 500.958 71.0953 500.653 71.8282C500.348 72.5611 497.906 74.3858 497.906 74.3858L493.124 75.9068C493.124 75.9068 489.156 74.6518 487.935 73.9666C486.714 73.2814 484.985 72.1419 484.17 71.409C483.356 70.6762 479.999 69.0046 478.853 68.3771C477.708 67.7496 476.394 64.0927 475.07 63.9873C473.746 63.8819 470.007 64.4783 470.007 64.4783L468.644 70.0612C468.644 70.0612 467.279 72.7694 466.973 73.2915C466.868 73.4697 459.736 76.5267 458.869 77.0362C460.644 83.8631 463.932 93.6956 463.932 93.6956C465.81 97.1518 477.484 108.056 477.484 108.056L486.941 119.438L545.216 126C545.216 126 443.152 136.065 428.5 136C413.848 135.935 369 136 369 136C369 136 325.713 138.788 306.72 136C287.726 133.212 257.5 130.045 257.5 130.045L226 126C226 126 215 114.583 191 119.438C170.5 123.585 153.96 111.5 153.96 111.5L113.5 108.056C113.5 108.056 94 102.609 76.5 94.2365C58.0485 94.2365 40.5 94.2365 40.5 94.2365C40.5 94.2365 22.5969 95.3697 15 93.6956C7.40306 92.0215 4.5 87.5 4.5 87.5L0.5 73.2915C0.5 73.2915 7.58865 49.9571 15 53.3228L36 47.2891Z" fill="white"/>
<path d="M237.687 48.676C242.225 37.787 252.324 28.1587 263.863 24.7613C257.946 24.0644 252.025 23.7184 246.096 24.7952C234.322 26.9318 224.164 33.3225 216.227 42.1619C216.085 42.3216 215.815 42.1135 215.931 41.932C229.191 21.1679 251.051 16.1953 272.704 22.7989C272.981 22.6876 273.255 22.5762 273.535 22.4722C257.312 16.8172 240.569 15.5008 223.513 24.212C223.32 24.3112 223.156 24.033 223.342 23.9168C251.458 6.51134 284.344 19.7403 311.008 33.6008C338.599 47.9428 367.417 64.3198 398.259 69.2344C397.902 67.6761 397.319 66.1879 396.143 64.753C393.617 61.6702 389.715 60.1022 385.789 60.2595C385.664 60.2643 385.632 60.0562 385.76 60.0368C389.725 59.4101 393.692 60.3248 396.647 63.1535C398.302 64.736 399.77 67.1002 400.37 69.5514C401.99 69.7813 403.614 69.9894 405.246 70.1515C404.376 63.7343 398.604 60.62 392.549 58.4349C392.323 58.3527 392.41 58.0163 392.651 58.0696C396.83 58.9963 400.99 59.9667 404.171 63.0591C406.099 64.932 407.606 67.6349 407.589 70.3475C409.734 70.5169 411.888 70.6282 414.053 70.6742C414.077 70.5871 414.084 70.5024 414.108 70.4153C414.325 69.6458 414.887 69.2247 415.511 69.1086C412.727 67.9543 409.989 66.7469 407.401 65.4087C407.268 65.341 407.384 65.1571 407.514 65.2127C414.405 68.16 421.536 67.981 428.619 69.8563C430.921 70.4661 434.307 72.4043 436.93 72.9633C437.036 72.7939 437.13 72.6197 437.248 72.4576C438.002 71.4219 439.451 71.5768 439.899 72.806C439.916 72.852 439.92 72.9004 439.937 72.9463C442.425 72.4092 443.729 70.6185 445.782 69.2901C445.854 68.2617 445.748 67.2018 445.348 66.079C444.206 62.8776 441.162 60.8402 437.898 60.3272C437.486 60.2619 437.607 59.6327 437.995 59.6206C442.981 59.473 447.115 63.4826 448.057 67.918C448.864 67.3881 449.679 66.9526 450.761 66.8195C450.549 64.6223 449.785 62.5195 448.322 60.5256C446.09 57.4791 441.234 52.5815 436.997 53.7018C436.799 53.7551 436.65 53.4454 436.852 53.3558C441.236 51.42 446.519 55.7296 449.281 58.8802C451.301 61.1838 452.718 64.0827 452.981 67.0421C455.372 67.9253 457.278 70.5895 459.481 71.872C460.363 70.6572 462.443 70.8266 463.132 72.3269C463.94 72.051 464.812 71.4945 465.764 70.5992C465.617 70.5387 465.468 70.4879 465.321 70.4104C464.685 70.0741 464.776 68.915 465.533 68.7868C468.914 68.2084 471.399 66.1177 470.228 62.3429C469.264 59.2335 465.945 57.0605 463.067 55.9522C462.752 55.8313 462.87 55.3739 463.207 55.4417C467.55 56.3128 471.845 58.4349 472.705 63.1051C475.296 61.0507 478.54 60.8692 481.604 62.534C484.202 63.9448 485.877 66.5727 488.422 68.0729C492.967 70.754 499.195 69.728 500.957 64.8885C499.542 63.2672 499.108 61.1088 497.886 59.3424C496.592 57.4719 494.804 56.0224 493.093 54.5585C492.656 54.1858 493.139 53.5857 493.606 53.6728C496.216 54.1664 499.39 56.2789 501.302 58.9286C503.408 59.3182 505.43 58.9963 506.664 56.7338C508.009 54.2657 507.018 51.1877 505.618 48.9978C502.666 44.3857 497.308 42.1184 492.302 40.6133C492.037 40.5334 491.979 40.2745 492.056 40.0664C491.729 40.652 491.201 41.119 490.398 41.4021C489.858 41.5909 489.4 41.0174 489.518 40.5189C492.307 28.7443 479.726 26.3463 471.732 22.7601C471.645 22.7214 471.691 22.5811 471.78 22.5835C478.015 22.8037 485.156 25.3421 489.198 30.3099C490.714 32.1731 493.449 37.1917 492.143 39.9043C492.211 39.8414 492.3 39.7978 492.413 39.793C499.916 39.6139 510.159 45.1818 510.754 53.576C510.785 54.0188 510.766 54.4641 510.718 54.9093C511.576 55.4731 512.012 56.1168 512.658 57.1912C513.682 58.8899 514.001 61.0217 516.1 60.8184C520.802 60.3683 517.883 53.5712 518.021 50.832C518.266 45.9682 524.352 47.6088 527.755 49.3462C529.404 48.7752 529.888 46.0166 529.433 44.1195C528.948 42.1014 527.748 40.1487 526.396 38.6073C523.945 35.81 520.691 34.0291 517.131 33.1023C516.946 33.0539 516.984 32.7684 517.177 32.7684C518.433 32.7732 519.667 32.9885 520.872 33.3007C522.13 18.5207 504.013 18.8111 493.454 16.5002C493.211 16.4469 493.259 16.0211 493.514 16.0549C503.782 17.427 526.097 17.6084 522.682 33.8766C527.092 35.6067 530.753 39.263 532.142 43.9259C532.973 46.7159 532.727 50.123 530.016 51.7757C527.999 53.0025 525.217 52.7412 524.217 50.423C524.123 50.2053 524.101 49.9827 524.133 49.777C524.123 49.777 524.109 49.777 524.099 49.777C523 49.9294 521.366 50.3335 521.192 51.8386C521.028 53.2494 522.096 55.2965 522.072 56.8718C522.033 59.6013 521.089 62.4397 518.664 63.9545C514.41 66.6114 510.578 62.2969 509.761 58.0308C508.38 60.7555 505.768 62.8535 503.136 62.9188C504.456 68.0173 500.591 72.927 495.368 73.6311C485.853 74.9136 481.787 63.3326 472.872 64.8788C472.693 67.3058 471.018 69.8466 468.818 70.6621V70.6693C467.921 73.3456 466.369 75.5815 463.802 76.5421C470.315 117.565 524.81 122.91 556.412 108.558C556.737 108.411 557.026 108.882 556.696 109.047C536.212 119.421 513.581 121.693 491.818 113.55C475.554 107.467 460.758 94.6421 459.202 76.697C459.064 76.6389 458.922 76.5809 458.789 76.5131C459.12 90.4268 467.261 101.592 477.902 110.363C488.808 119.355 502.001 120.018 515.49 121.959C515.574 121.971 515.555 122.116 515.471 122.107C499.786 120.72 487.214 121.134 474.566 110.944C467.777 105.475 461.978 99.1187 458.322 91.7287C459.055 94.3541 460.079 96.9844 461.602 99.6583C466.748 108.696 474.46 114.259 482.519 120.432C482.551 120.456 482.534 120.519 482.491 120.502C466.27 114.129 446.719 91.9779 451.696 73.0214C451.272 73.6481 450.318 73.3529 450.207 72.6923C448.742 73.2464 447.712 74.5628 445.886 75.4363C445.669 75.6492 445.43 75.8549 445.182 76.0533C446.221 82.0665 446.021 88.0893 448.313 94.0057C451.549 102.359 457.623 109.282 464.875 114.404C464.993 114.487 464.892 114.666 464.762 114.6C452.87 108.578 438.908 91.8497 441.234 77.0866C441.089 77.1132 440.942 77.1374 440.798 77.1543C441.215 81.9019 440.325 87.119 441.415 91.7674C443.133 99.092 447.57 106.468 453.203 111.414C453.294 111.496 453.162 111.622 453.07 111.547C446.196 106.015 441.523 100.217 438.212 91.915C436.491 87.6005 434.563 81.4252 435.585 76.4139C435.37 76.3437 435.18 76.2929 434.953 76.213C434.722 76.1332 434.478 76.0485 434.247 75.9686C435.016 81.5753 433.818 87.3053 435.177 93.0353C436.807 99.9075 440.593 105.413 444.746 110.951C444.847 111.084 444.647 111.283 444.514 111.184C435.443 104.399 425.6 86.2527 430.844 74.7926C430.058 74.5216 429.289 74.2579 428.499 73.982C428.183 79.8185 427.335 85.0356 428.648 90.8938C430.09 97.3305 433.213 103.031 437.51 107.977C437.621 108.106 437.453 108.278 437.325 108.164C428.265 100.077 421.264 85.5026 425.226 73.2198C425.269 73.0867 425.346 72.9875 425.414 72.8786C424.797 72.6584 424.18 72.4382 423.563 72.2132C421.649 72.5374 419.745 72.8012 417.844 73.0214C417.962 81.8657 417.873 89.9598 422.715 98.0515C427.26 105.65 433.975 111.038 441.844 114.896C441.921 114.934 441.868 115.058 441.786 115.034C431.601 111.924 422.131 103.748 417.015 93.725C420.121 102.066 425.585 109.296 433.698 115.813C433.847 115.934 433.652 116.188 433.493 116.079C420.006 106.959 406.516 91.0947 410.712 73.6311C410.464 73.6432 410.213 73.6723 409.965 73.682C409.965 73.6965 409.97 73.7086 409.97 73.7231C408.69 87.3634 410.163 101.722 421.543 111.048C421.637 111.126 421.505 111.256 421.411 111.181C410.387 102.303 401.766 88.462 405.947 73.7497C404.557 73.7618 403.171 73.7497 401.788 73.7086C402.26 78.7272 401.346 83.7192 402.58 88.8515C404.222 95.6729 407.767 101.943 412.672 106.93C412.758 107.017 412.64 107.189 412.534 107.109C403.916 100.583 393.699 85.1807 398.131 73.5707C396.726 73.486 395.326 73.3504 393.928 73.2149C392.81 83.6466 394.005 93.5241 401.387 101.887C401.484 101.996 401.334 102.148 401.228 102.047C393.554 94.6808 388.279 83.5982 390.655 72.8738C388.392 72.5931 386.143 72.2446 383.9 71.8429C381.805 80.3291 382.567 87.0004 387.334 94.7074C387.479 94.9397 387.168 95.1357 386.98 94.9833C380.28 89.517 376.72 79.337 378.496 70.7758C375.927 70.2096 373.372 69.5562 370.827 68.8472C371.316 76.3728 371.422 83.3175 375.452 90.4462C379.993 98.4798 387.052 104.471 394.981 108.967C409.878 117.417 434.163 126.283 451.284 123.188C451.426 123.162 451.489 123.377 451.344 123.406C431.61 127.476 405.232 118.385 388.684 107.583C376.954 99.9244 361.999 82.7295 365.672 67.3204C364.995 67.1074 364.317 66.8896 363.642 66.667C363.953 89.0088 380.219 108.582 400.257 116.96C400.409 117.023 400.351 117.272 400.187 117.214C378.576 109.785 358.509 90.076 358.41 65.7983C358.41 65.462 358.494 65.1837 358.586 64.9127C358.345 64.8256 358.102 64.7385 357.861 64.6489C359.032 71.5695 358.613 78.7248 361.273 85.6453C365.322 96.1738 372.767 105.398 382.241 111.455C382.343 111.52 382.253 111.68 382.147 111.619C372.676 106.213 364.881 99.1622 359.562 89.4879C355.638 82.3496 351.018 71.3203 352.978 62.776L352.739 62.6816C350.558 76.1792 356.981 88.8733 364.876 99.6994C364.954 99.8035 364.787 99.9293 364.698 99.8373C354.33 88.8491 345.882 76.2542 348.314 60.8523C348.179 60.7942 348.044 60.7337 347.909 60.6757C347.912 64.9006 347.485 69.1497 348.319 73.4497C349.613 80.1234 352.426 86.393 356.279 91.961C356.465 92.2296 356.058 92.5296 355.836 92.3046C348.386 84.7549 340.551 70.1757 343.559 58.7616C343.221 58.6067 342.884 58.4446 342.547 58.2873C339.209 67.8092 343.014 78.6086 347.434 87.2424C347.499 87.3706 347.314 87.4844 347.239 87.3561C341.368 77.5028 334.904 68.0197 338.124 56.2087C336.418 55.3812 334.719 54.5367 333.024 53.6704C332.721 55.7732 331.913 57.7889 331.687 60.0296C331.246 64.3973 332.034 68.8593 334.061 72.7552C334.183 72.9947 333.851 73.1859 333.704 72.9657C331.299 69.3941 329.351 65.808 328.382 61.5758C327.659 58.4059 326.746 54.1834 328.332 51.1901C325.524 49.6657 322.69 48.0613 319.826 46.4014C318.245 66.2678 328.539 85.7421 347.834 93.0692C348.013 93.137 347.945 93.408 347.755 93.3596C331.552 89.425 320.752 74.8314 316.7 58.9431C317.11 62.3647 317.843 65.808 319.258 69.3893C322.972 78.7925 329.276 85.6889 336.603 92.4231C336.719 92.5296 336.572 92.6942 336.444 92.6312C320.414 84.7258 305.708 59.8674 311.634 41.6078C311.208 41.3561 310.781 41.1069 310.352 40.8552C307.412 50.4642 308.161 59.8529 312.222 69.1691C315.09 75.746 322.02 90.0832 329.219 92.0771C329.378 92.1207 329.351 92.3868 329.178 92.3747C321.157 91.8424 313.534 78.6401 309.988 72.2712C305.532 64.2642 303.194 55.7224 303.821 46.9991C300.803 61.2733 307.976 78.34 317.739 87.557C317.901 87.7094 317.664 87.9369 317.501 87.7965C304.37 76.6607 291.953 52.8235 301.235 35.5922C298.256 33.9105 295.255 32.2747 292.23 30.7091C289.531 34.588 286.436 38.2467 284.304 42.4523C279.336 52.2427 281.766 62.309 287.707 70.9428C295.809 82.7198 305.845 94.3662 319.807 98.8573C320.036 98.9323 319.944 99.2784 319.706 99.2227C303.683 95.3559 289.789 82.0108 281.549 67.9398C275.07 56.879 276.569 44.3881 282.894 34.1573C273.868 44.2212 269.527 56.5064 276.663 70.4443C283.761 84.3048 297.718 93.0571 310.733 100.629C310.902 100.725 310.752 100.979 310.581 100.89C294.238 92.3264 275.668 82.7827 270.484 63.364C267.599 52.5573 270.226 39.6139 277.57 30.968C264.813 40.5044 259.414 56.8282 267.556 72.0631C276.107 88.0651 293.997 104.016 312.391 105.589C312.606 105.609 312.61 105.945 312.391 105.93C291.541 104.558 267.968 86.8359 260.894 66.8292C256.411 54.1544 260.012 40.2043 268.821 30.8833C252.287 40.9932 245.175 63.5262 256.522 80.9219C268.006 98.5283 288.138 108.551 307.87 113.616C308.089 113.671 308.05 114.051 307.814 114.024C284.236 111.372 257.231 97.2288 247.882 74.0207C243.84 63.9835 245.165 53.2058 249.872 43.9477C245.807 49.0099 242.55 54.5899 241.353 61.3145C238.836 75.4387 246.927 86.2575 257.505 94.2718C276.63 108.761 300.962 120.309 325.305 117.991C325.577 117.964 325.64 118.419 325.37 118.472C298.82 123.728 264.401 108.292 246.527 88.4112C245.77 87.5691 245.105 86.681 244.44 85.7905C248.778 92.8926 255.126 99.0291 262.171 103.987C275.256 113.197 290.319 119.099 305.525 123.73C321.494 128.596 339.71 134.535 355.679 126.745C355.853 126.661 356.002 126.907 355.831 127.007C338.9 136.812 318.467 130.041 301.042 124.807C281.286 118.871 260.07 110.284 245.85 94.6542C234.578 82.2625 231.206 64.2642 237.701 48.6784L237.687 48.676ZM417.764 70.6887C418.302 70.6814 418.842 70.6645 419.381 70.65C418.733 70.4007 418.094 70.137 417.451 69.8805C417.612 70.1055 417.721 70.3741 417.764 70.6887Z" fill="#13264C"/>
<path d="M517.073 10.1337C516.953 10.1095 517.006 9.93529 517.124 9.95223C528.647 11.5106 539.018 15.9896 547.224 24.4612C549.755 27.0746 552.565 30.2276 552.297 34.1113C552.1 36.9763 550.654 39.0888 548.065 39.4179C548.422 42.007 548.032 44.6373 546.713 46.3046C542.626 51.478 534.094 44.5551 531.096 41.1988C530.939 41.0246 531.096 40.7802 531.315 40.8189C533.151 41.1529 534.877 41.9127 536.574 42.6725C538.524 43.546 542.508 46.4691 544.409 44.134C545.559 42.7209 544.855 39.4203 544.465 37.9273C543.983 36.0834 542.751 34.5154 542.45 32.6667C542.373 32.1948 542.768 31.556 543.329 31.7835C545.12 32.507 546.482 34.3146 547.304 36.4657C555.635 26.0244 524.089 11.5251 517.071 10.1337H517.073Z" fill="#13264C"/>
<path d="M560.314 15.45C560.06 14.8233 560.458 14.0611 561.261 13.9933C564.861 13.6884 569.123 16.326 569.079 20.3017C569.038 23.8563 565.064 25.7946 561.95 25.63C559 25.4751 555.997 23.4014 555.987 20.2025C555.98 17.7512 557.865 15.5516 560.314 15.45ZM557.887 20.3936C558.528 22.2593 560.677 22.9344 562.463 22.8013C564.24 22.6682 566.828 21.4825 565.801 19.3071C564.91 17.4173 562.333 17.0471 560.73 15.9678C560.581 15.8662 560.516 15.7307 560.436 15.6C558.311 15.9122 557.214 18.4336 557.889 20.3936H557.887Z" fill="#13264C"/>
<path d="M563.538 51.5603C562.789 51.2046 562.037 50.8538 561.367 50.3166C560.644 49.7358 561.121 48.5937 561.883 48.359C565.671 47.1902 569.619 51.7975 570.66 54.9867C572.022 59.156 569.137 62.7857 564.748 62.2267C561.217 61.7766 557.554 58.1058 559.222 54.3503C559.971 52.6637 561.803 51.5047 563.538 51.5579V51.5603ZM567.074 59.1028C569.253 57.6267 567.484 54.602 566.045 53.1622C565.985 53.2106 565.907 53.2348 565.813 53.1792C563.796 52.0031 560.856 53.6728 561.102 56.0611C561.35 58.464 564.96 60.5329 567.074 59.1004V59.1028Z" fill="#13264C"/>
<path d="M533.385 67.6978C532.855 67.0348 533.325 65.9169 534.265 66.1806C537.449 67.0784 540.469 69.878 541.787 72.9294C542.763 75.1894 543.245 79.3152 540.741 80.8566C538.355 82.3254 535.793 79.5305 534.706 77.6116C533.32 75.1701 533.007 72.1865 534.241 69.6288C534.33 69.4425 534.549 69.4013 534.73 69.428C534.911 69.457 535.094 69.4715 535.275 69.4981C534.6 68.9537 533.94 68.3923 533.383 67.6954L533.385 67.6978ZM534.889 71.8671C534.911 72.7067 535.048 73.5658 535.284 74.3716C535.617 75.5016 538.138 80.4258 539.808 78.0932C541.146 76.2251 538.904 72.8423 537.74 71.6154C537.172 71.0177 536.538 70.512 535.901 70.0087C535.06 70.2216 534.86 70.6693 534.889 71.8671Z" fill="#13264C"/>
<path d="M4.43252 72.4672C44.9588 83.1844 88.5146 80.2613 126.578 62.1711C133.784 58.7471 140.672 54.769 147.411 50.5343C137.9 50.8441 128.455 51.3789 119.089 53.7575C109.128 56.2862 99.9578 59.6593 89.575 59.6859C89.4762 59.6859 89.4786 59.5432 89.575 59.5359C102.554 58.5341 114.154 52.4315 126.792 49.852C135.232 48.1291 143.868 47.4322 152.484 47.287C155.357 45.4093 158.215 43.5049 161.055 41.5739C142.721 40.5528 125.725 46.2489 108.01 51.1103C89.5244 56.1845 71.5762 57.6243 52.4446 57.4356C52.153 57.4331 52.153 56.9855 52.4446 56.9806C75.4059 56.6467 95.6943 52.2112 117.417 45.2665C131.634 40.7221 145.801 36.9086 160.58 37.8257C157.312 37.1602 154.051 36.4125 150.691 36.4149C143.282 36.4174 135.281 38.5637 127.927 39.6841C127.788 39.7058 127.725 39.505 127.867 39.4663C140.053 36.035 151.653 32.0497 163.995 34.5106C160.158 33.3007 156.287 32.3933 152.113 32.4344C146.232 32.4925 139.556 33.9492 133.704 34.7429C133.473 34.7743 133.362 34.4452 133.603 34.3775C139.689 32.6933 145.796 30.3897 152.111 29.7194C158.787 29.0128 165.135 30.6438 171.38 32.8845C171.888 33.066 172.211 33.3999 172.426 33.7798C173.397 33.1144 174.37 32.4538 175.344 31.7907C171.22 30.8785 167.424 28.8338 163.045 28.6523C157.422 28.42 151.855 29.5016 146.22 28.9765C146.035 28.9596 145.986 28.7031 146.174 28.6426C151.13 27.0383 156.596 26.1067 161.775 25.5574C167.323 24.9694 173.397 27.8344 178.73 26.3898C180.148 26.0051 181.191 26.5713 181.784 27.4714C182.577 26.9464 183.377 26.4334 184.172 25.9131C157.823 20.5001 135.789 28.3789 110.7 37.8765C87.418 46.6893 63.8252 51.1998 38.919 50.9118C38.7744 50.9118 38.7744 50.6868 38.919 50.6844C71.4364 50.3504 97.8128 39.1033 127.204 26.6802C145.555 18.9248 169.447 12.3527 187.482 23.7813C196.98 17.756 206.767 12.2438 217.276 8.00675C248.677 -4.65595 285.084 -1.93128 315.004 13.5795C332.231 22.5085 347.256 35.1688 364.775 43.5847C385.1 53.3485 407.471 57.4477 429.916 56.5669C430.697 56.5354 430.685 57.7235 429.916 57.7767C411.397 59.0423 393.044 57.0581 375.476 50.8659C358.092 44.739 343.241 34.3581 327.662 24.7589C289.131 1.01843 245.563 -1.56106 205.288 19.9508C189.588 28.3377 175.171 38.4113 160.401 47.7976C161.014 48.6106 160.657 50.0891 159.319 50.1423C158.379 50.1811 157.442 50.2101 156.504 50.2416C142.277 59.1052 127.597 67.151 111.011 72.2543C76.2784 82.9424 39.1166 83.153 4.23971 73.1206C3.82035 72.9996 3.99628 72.3535 4.42046 72.4648L4.43252 72.4672Z" fill="#13264C"/>
<path d="M340.5 26.322C368.624 42.1256 399.086 48.0903 431.09 47.0111C431.806 46.9869 431.774 48.0347 431.09 48.1073C399.262 51.4877 367.585 42.9991 340.329 26.6172C340.141 26.5035 340.31 26.2155 340.5 26.3244V26.322Z" fill="#13264C"/>
<path d="M448.684 46.2392C447.223 46.336 445.375 46.0916 444.066 45.4044C443.275 44.9882 443.447 43.9622 444.066 43.5097C445.307 42.6023 447.18 42.1885 448.684 42.0651C451.34 41.8449 451.354 46.0626 448.684 46.2392Z" fill="#13264C"/>
<path d="M464.005 37.7385C465.692 38.0967 468.565 37.9345 469.442 39.6768C469.753 40.2938 469.654 41.2375 468.948 41.5642C467.794 42.1014 467.16 41.8207 466.087 41.2811C465.101 40.7875 464.152 40.2309 463.161 39.7421C462.002 39.1686 462.848 37.4917 464.002 37.7385H464.005Z" fill="#13264C"/>
<path d="M493.874 25.1267C494.775 25.5986 495.691 25.918 496.672 26.1648C497.602 26.3995 498.561 26.5036 499.393 27.0093C500.333 27.5828 500.321 29.4097 499.055 29.6009C496.648 29.9663 494.385 28.2047 492.685 26.6681C491.83 25.8938 492.919 24.6258 493.871 25.1243L493.874 25.1267Z" fill="#13264C"/>
<path d="M428.364 16.7736C462.506 6.01043 495.216 6.31048 529.637 16.4518C529.895 16.5268 529.787 16.9067 529.527 16.8535C508.693 12.6309 488.501 9.80464 467.227 11.934C446.715 13.986 428.863 22.8981 409.138 27.8828C377.207 35.9552 345.164 30.9341 316.953 14.3369C316.717 14.199 316.925 13.8723 317.163 13.9788C353.703 30.0775 391.055 28.5361 428.364 16.7736Z" fill="#13264C"/>
<path d="M187.007 45.8642C187.66 45.4189 188.217 46.4498 187.614 46.9095C161.305 66.9187 129.757 79.0901 97.4802 85.1178C97.4103 85.1299 97.379 85.021 97.4513 85.0089C130.323 78.6522 159.483 64.6731 187.007 45.8642Z" fill="#13264C"/>
<path d="M208.57 28.6063C209.284 28.2361 209.862 29.2379 209.197 29.6831C203.032 33.8064 196.319 37.0175 189.822 40.56C189.694 40.6302 189.586 40.4415 189.709 40.364C195.944 36.369 201.991 32.0255 208.57 28.6063Z" fill="#13264C"/>
<path d="M222.038 53.3147C212.036 73.6239 222.532 108.532 242.071 119.505C242.199 119.578 242.085 119.769 241.958 119.701C230.283 113.596 223.356 103.44 219.724 90.8745C216.422 79.4507 212.634 62.5993 220.476 52.3976C221.173 51.4901 222.566 52.2379 222.038 53.3147Z" fill="#13264C"/>
<path d="M237.316 29.2524C238.101 28.8943 239.094 29.8961 238.318 30.5591C223.564 43.2 212.118 56.775 210.732 77.1301C210.71 77.4423 210.233 77.4495 210.243 77.1301C210.725 58.5632 219.495 37.3998 237.316 29.2548V29.2524Z" fill="#13264C"/>
<path d="M446.221 0.473945C449.351 0.604613 449.356 5.22881 446.221 5.35948L445.878 5.374C442.728 5.50708 442.723 0.326338 445.878 0.459426L446.221 0.473945Z" fill="#13264C"/>
<path d="M535.795 2.47995C538.634 4.14718 537.449 8.75927 534.108 8.7375C533.968 8.72782 533.829 8.7375 533.689 8.75686C532.433 8.8851 531.544 7.81556 531.125 6.79684L531.221 7.07511C529.625 4.17138 532.865 0.759488 535.795 2.48237V2.47995Z" fill="#13264C"/>
<path d="M488.581 89.2847C486.467 90.0155 484.149 87.6877 484.877 85.5655C485.028 85.1203 485.207 84.6799 485.441 84.2709C486.477 82.4464 489.07 82.1488 490.526 83.6128C491.982 85.0743 491.688 87.6804 489.87 88.7185C489.463 88.9532 489.024 89.1298 488.581 89.2847Z" fill="#13264C"/>
<path d="M478.234 37.649C479.403 36.7416 480.825 37.6152 481.792 38.4572C482.915 39.4372 483.659 40.8214 483.876 42.295C483.956 42.8322 483.751 43.4517 483.146 43.5847C481.194 44.013 478.536 43.6985 477.661 41.5739C477.236 40.5407 477.499 39.3985 478.198 38.6194C478.176 38.5831 478.14 38.5613 478.121 38.5201C477.998 38.2612 477.972 37.8523 478.234 37.649ZM479.35 41.09C479.907 41.6368 480.69 41.7675 481.459 41.7264C481.192 41.1408 480.847 40.6036 480.326 40.1656C479.878 39.7905 479.278 39.5631 478.789 39.2267C478.68 39.8825 478.875 40.6229 479.35 41.09Z" fill="#13264C"/>
</svg>
