<svg width="306" height="273" viewBox="0 0 306 273" fill="none" xmlns="http://www.w3.org/2000/svg">
<path d="M204.804 86.4306C205.988 85.5583 205.521 83.8052 204.037 83.7044C202.586 83.6056 201.276 83.7196 200.304 82.3381C199.544 81.2591 199.6 79.7388 199.955 78.5276C200.748 75.8118 203.316 74.2299 205.31 72.4631C205.536 72.2632 205.284 71.9125 205.022 71.9807C204.346 72.1602 203.677 72.4289 203.023 72.7345C199.979 63.4182 207.947 58.4296 216.299 56.949C216.325 56.9453 216.32 56.9025 216.294 56.9037C211.325 57.3542 205.959 58.5442 202.825 62.827C200.71 65.7162 199.708 70.2427 201.951 73.2806C201.553 73.5156 201.172 73.7771 200.804 74.0555C199.56 70.9215 198.565 68.0918 199.577 64.6193C200.758 60.5697 204.216 58.0405 208.021 56.7199C208.1 56.6926 208.09 56.5615 208.001 56.5691C200.065 57.3935 194.302 68.2903 199.992 74.7562C199.659 75.0628 199.349 75.386 199.059 75.7292C196.768 73.155 195.18 70.486 195.404 66.8753C195.622 63.3492 197.67 60.0078 200.079 57.5543C200.121 57.5111 200.057 57.4544 200.013 57.4906C196.886 60.0598 194.566 63.2655 194.295 67.4327C194.072 70.8556 195.437 74.6868 198.415 76.5327C197.515 77.87 196.973 79.4232 197.003 81.1255C197.025 82.3649 197.581 83.7113 198.436 84.8219C197.553 85.4268 196.736 86.2453 195.641 86.5134C194.866 86.7027 194.087 86.6817 193.328 86.5263C193.307 86.3343 193.222 86.1443 193.02 85.9791C191.829 85.0086 190.255 84.4813 189.559 83.0019C188.625 81.0106 189.512 79.2335 190.397 77.4943C191.17 75.9778 192.044 74.661 191.897 72.8808C191.843 72.2385 191.651 71.6745 191.404 71.1481C191.428 70.7874 191.257 70.4171 190.908 70.2832C189.483 68.3436 186.786 67.3786 184.424 67.2561C184.247 67.2458 184.168 67.5284 184.335 67.6006C185.682 68.1875 187.263 68.8812 188.333 69.967C184.781 69.8275 181.471 70.9331 178.414 73.1534C176.594 74.4762 175.172 76.0902 173.897 77.915C170.741 82.4331 170.682 86.3063 164.528 87.1221C152.423 88.7251 160.549 73.8074 164.326 69.1413C167.092 65.7247 170.319 62.6053 173.835 59.9752C179.751 55.5472 186.478 52.9416 193.036 49.6938C193.186 49.6193 193.066 49.4178 192.927 49.4435C178.939 51.9274 150.946 67.095 154.92 85.1823C156.204 91.0296 161.72 94.9112 167.514 92.5768C170.869 91.2253 172.819 87.9902 174.419 84.9555C178.413 77.3766 181.25 73.8093 189.459 72.1231C189.541 72.6167 189.567 73.1436 189.449 73.7544C189.21 74.9848 188.213 76.1055 187.644 77.1828C186.881 78.6286 186.29 80.1061 186.46 81.772C186.716 84.2552 188.569 87.1646 191.095 87.6287C192.176 88.5648 193.574 89.138 195.112 89.188C196.797 89.2427 199.713 88.4255 200.803 86.7882C202.069 87.3736 203.492 87.3913 204.806 86.4226L204.804 86.4306Z" fill="#13264C"/>
<path d="M274.815 84.7589C275.129 85.1716 275.802 84.7931 275.521 84.3288C259.456 57.7939 223.637 39.7272 194.224 56.0649C194.119 56.1232 194.196 56.3013 194.308 56.2592C226.627 44.1903 255.015 58.7175 274.815 84.7589Z" fill="#13264C"/>
<path d="M201.668 27.6293C204.311 28.7678 208.921 30.5569 210.744 27.2075C211.482 25.8513 209.996 24.7839 208.787 25.3143C205.729 26.6565 202.031 24.2736 199.333 22.8445C197.663 21.9611 196.072 20.9283 194.466 19.9235C191.087 15.637 183.306 15.8718 182.26 22.1706C181.754 25.2267 183.458 27.1982 186.039 28.5195C188.632 29.8481 191.179 30.3858 193.574 32.2253C194.7 33.0892 196.071 34.097 196.966 35.2277C201.897 41.4497 197.983 46.0185 193.078 48.0881C192.992 48.1246 192.992 48.2834 193.103 48.2686C198.593 47.5589 205.596 44.0843 202.321 37.3122C200.705 33.9673 196.726 30.6288 193.627 28.684C192.126 27.7409 189.847 27.462 188.486 26.4975C184.764 26.0202 185.627 23.8504 190.969 20.0271C193.638 23.4585 197.781 25.956 201.662 27.6269L201.668 27.6293Z" fill="#13264C"/>
<path d="M228.185 37.5635C225.925 36.866 223.435 36.7678 221.092 36.8813C219.416 36.9631 217.093 36.9177 215.585 37.7506C213.32 39.0018 213.799 41.4948 215.187 43.244C217.357 45.9765 221.67 48.0564 225.136 47.7648C225.447 47.7381 225.659 47.2511 225.306 47.1042C222.892 46.1086 220.561 45.4592 218.47 43.8065C217.719 43.2148 215.981 41.8914 216.039 40.9167C216.143 39.1433 218.839 39.275 219.92 39.2137C222.887 39.0433 225.786 39.2744 228.472 40.6636C230.535 41.7307 231.788 43.3958 233.411 44.971C233.919 45.4634 234.951 45.1008 234.886 44.3336C234.582 40.792 231.362 38.5449 228.183 37.5627L228.185 37.5635Z" fill="#13264C"/>
<path d="M178.057 26.7204C177.955 24.8118 176.9 23.1445 175.34 22.0911C173.875 21.1042 171.528 20.4152 169.97 21.5495C169.856 21.632 169.768 21.7282 169.681 21.8243C168.789 22.219 167.986 22.864 167.439 23.6631C165.519 26.4634 167.322 29.9427 170.133 31.2393C173.53 32.8062 178.285 30.9488 178.056 26.7222L178.057 26.7204ZM169.482 23.9293C169.685 24.2366 169.989 24.4919 170.417 24.6248C171.847 25.064 173.747 24.6762 174.293 26.5547C174.956 28.8374 172.148 29.2224 170.634 28.4879C168.404 27.4048 168.41 25.3061 169.481 23.9311L169.482 23.9293Z" fill="#13264C"/>
<path d="M183.735 40.5725C182.71 41.1181 181.874 42.0015 181.516 43.2304C180.655 46.1801 182.989 49.5182 186.075 49.6284C189.336 49.7436 192.128 46.2933 191.175 43.1195C190.725 41.6208 189.467 40.4534 188.034 39.9116C186.661 39.3925 184.68 39.2805 183.735 40.5725ZM189.163 44.0993C189.451 45.9037 187.655 47.7245 185.877 47.6215C183.928 47.5089 182.438 45.2187 182.822 43.3745C182.959 42.7208 183.287 42.1626 183.717 41.6953C183.887 41.8954 184.128 42.0457 184.405 42.0662C185.346 42.1289 186.147 41.6831 187.101 41.9663C188.064 42.2534 188.996 43.0657 189.163 44.0993Z" fill="#13264C"/>
<path d="M152.928 41.4075C152.49 42.5173 153.061 43.5681 153.922 44.2583C155.899 45.8426 159.517 46.851 161.435 44.6982C161.818 44.27 161.876 43.6927 161.603 43.1895C160.804 41.7069 159.874 40.1445 158.267 39.4458C156.803 38.8108 155.104 38.8269 154.203 40.2906C154.197 40.3031 154.2 40.3171 154.192 40.3288C153.634 40.4169 153.154 40.8321 152.926 41.4067L152.928 41.4075ZM155.089 41.7928C155.997 41.7333 156.824 41.5653 157.619 42.1146C158.13 42.4691 158.512 42.9567 158.854 43.4761C158.143 43.6659 157.293 43.399 156.583 43.1941C156.088 43.0511 155.554 42.9205 155.108 42.6552C154.734 42.4329 154.085 41.7427 154.193 41.2069C154.358 41.5529 154.682 41.8195 155.087 41.7938L155.089 41.7928Z" fill="#13264C"/>
<path d="M145.58 107.232C147.435 110.563 152.119 110.666 154.848 108.456C157.731 106.124 158.636 101.826 156.409 98.7463C154.655 96.3209 149.751 93.8621 147.548 96.9483C147.18 97.4645 147.437 98.3474 147.971 98.671C145.64 100.979 143.698 103.849 145.581 107.23L145.58 107.232ZM148.674 98.9605C150.195 99.3719 151.784 98.9765 153.136 100.212C154.689 101.633 154.606 103.935 153.249 105.481C151.441 107.541 148.128 107.234 147.364 104.414C146.867 102.581 147.622 100.593 148.672 98.9597L148.674 98.9605Z" fill="#13264C"/>
<path d="M188.8 99.4857C186.013 99.1994 185.089 102.372 186.255 104.476C187.646 106.983 190.969 108.511 193.043 105.902C194.671 103.852 194.625 100.676 192.896 98.7043C191.132 96.6953 187.778 96.0861 185.639 97.8183C184.673 98.6007 185.774 100.033 186.805 99.769C187.925 99.4804 188.918 99.1477 190.049 99.6622C191.152 100.164 191.787 101.236 191.81 102.434C191.842 104.079 190.74 105.535 189.036 104.579C187.24 103.57 186.347 100.617 188.821 99.6347C188.904 99.6028 188.884 99.4932 188.801 99.4839L188.8 99.4857Z" fill="#13264C"/>
<path d="M255.399 27.9103C258.711 28.0934 261.897 25.546 262.328 22.2355C262.846 18.2744 259.928 14.6229 256.297 13.4133C255.669 13.2045 255.13 13.4347 254.758 13.8396C249.394 15.2453 247.913 27.4972 255.399 27.9103ZM254.284 15.5476C254.381 15.9362 254.625 16.2828 255.066 16.4879C256.964 17.3635 258.79 18.7003 259.056 20.9479C259.265 22.7129 258.041 24.1591 256.396 24.6544C252.345 25.874 251.632 18.5362 254.283 15.5468L254.284 15.5476Z" fill="#13264C"/>
<path d="M239.179 15.1065C241.13 12.3311 242.265 12.4287 242.582 15.3985C243.785 17.1405 244.067 20.0883 244.569 22.1231C245.553 26.107 246.494 30.0717 247.935 33.9222C250.339 40.3477 253.677 46.1589 258.144 51.3329C258.776 52.0652 259.946 51.0734 259.445 50.2877C253.88 41.5746 249.894 33.0132 247.007 23.0308C245.954 19.3923 245.036 12.9394 241.739 10.3809C239.804 8.87975 237.792 8.51127 235.854 10.3202C234.793 11.3096 234.485 12.9836 234.307 14.3122C234.126 15.6548 235.429 18.6967 234.835 19.8119C234.047 21.2896 231.459 21.5513 229.481 21.0505C227.905 16.1439 224.476 11.3825 219.108 13.1683C218.639 13.3242 218.227 13.5485 217.843 13.8048C214.456 7.82566 210.39 -1.93914 202.537 0.942141C199.415 2.0864 200.163 4.09329 201.328 6.59758C202.666 9.47286 204.033 12.3328 205.404 15.1908C206.326 17.1098 208.573 20.6861 206.478 22.6892C205.761 23.3741 203.525 23.5265 202.473 23.704C202.313 23.7316 202.344 23.96 202.476 23.9995C204.746 24.6755 207.803 24.8308 209.152 22.4271C210.615 19.8207 208.279 16.3529 207.24 14.0743C206.188 11.771 203.939 8.62979 203.58 6.14969C202.76 0.513396 208.836 4.04801 210.825 6.2967C213.136 8.90953 214.591 12.1137 216.603 14.9481C215.385 16.4721 214.906 18.5961 215.044 20.5654C215.329 24.6394 216.832 29.5862 218.679 33.1986C218.798 33.4343 219.161 33.3061 219.161 33.0614C219.156 30.707 218.607 28.4041 218.138 26.1072C217.868 24.7827 217.561 23.4634 217.401 22.1198C217.148 19.9875 217.135 18.4923 218.629 17.3206C219.028 17.4636 219.503 17.1302 219.546 16.7308C221.722 15.6074 223.024 16.093 224.67 17.9224C225.56 18.9112 226.168 20.1885 226.68 21.3974C227.459 23.2405 228.014 25.1958 228.639 27.0969C228.971 28.1009 230.505 27.9213 230.497 26.8295C230.492 26.1814 230.433 25.4578 230.326 24.6995C231.255 25.3303 232.351 25.6209 233.637 25.2449C236.389 24.4423 236.113 21.9048 236.904 19.7979C235.885 17.4597 236.643 15.8956 239.179 15.1065Z" fill="#13264C"/>
<path d="M274.199 70.4633C274.246 70.2997 274.235 70.1213 274.059 69.9548C273.481 69.4096 272.934 68.8356 272.366 68.282C269.645 65.1258 266.776 62.144 263.779 59.3392C260.124 55.2067 256.68 50.8873 253.536 46.3172C249.671 40.7005 246.731 32.4417 240.567 28.855C234.192 25.1465 224.994 29.004 228.194 37.1104C228.379 37.5747 229.001 37.3837 228.929 36.901C236.372 29.9506 241.631 30.2647 244.711 37.8451C245.846 39.8165 247.011 41.769 248.208 43.7016C250.589 47.4578 253.14 51.1412 255.976 54.5657C258.82 57.9996 261.939 61.1532 265.228 64.1201C278.27 79.2541 288.766 96.134 295.361 115.429C299.1 126.371 301.165 137.218 302.059 148.144C301.772 148.226 301.55 148.466 301.578 148.88C303.173 172.714 293.354 195.812 275.297 211.37C274.834 211.769 274.357 212.149 273.888 212.539C283.047 202.807 291.317 190.917 294.363 177.83C300.875 161.863 301.678 143.635 294.649 127.644C294.13 126.464 292.358 127.373 292.65 128.518C293.035 130.031 293.376 131.554 293.693 133.082C293.376 132.655 293.087 132.209 292.722 131.808C292.503 131.569 292.224 131.427 291.929 131.332C291.677 131.153 291.425 130.973 291.139 130.848C291 130.786 289.702 130.474 289.569 130.388C287.627 131.537 286.461 130.908 286.074 128.501C285.005 127.755 284.558 126.88 284.737 125.878C284.523 124.974 284.861 122.377 284.917 120.756C285.024 120.762 285.137 120.652 285.068 120.529C285.015 120.435 284.971 120.318 284.922 120.217C284.92 120.064 284.915 119.909 284.903 119.794C284.607 117.43 283.865 115.407 282.894 113.388C281.704 108.939 279.999 104.431 275.482 104.404C272.91 104.39 270.999 106.354 268.916 107.371C268.212 107.18 267.415 107.383 266.942 107.938C266.34 107.984 265.711 107.912 265.034 107.642C264.254 106.323 263.853 104.7 263.79 102.762C263.671 99.1677 265.416 89.7758 271.405 93.2995C271.55 93.3858 271.668 93.1655 271.531 93.0726C265.864 89.2156 262.576 96.6795 261.997 101.206C261.917 101.844 261.892 102.562 261.916 103.316C261.901 103.302 261.887 103.286 261.871 103.272C260.365 101.174 258.849 99.2176 258.172 96.4758C257.672 94.4417 257.499 92.0749 257.973 90.009C258.856 86.1653 262.636 85.881 265.769 86.8233C265.991 86.8902 266.135 86.5379 265.921 86.4425C260.832 84.1589 256.587 84.9576 255.652 91.1426C255.616 91.3776 255.594 91.6234 255.568 91.8693C255.369 91.403 255.17 90.9473 254.961 90.5174C254.828 90.2437 254.481 90.4668 254.517 90.7125C254.61 91.3354 254.727 92.0398 254.858 92.7785C254.071 91.2629 253.214 89.7822 252.291 88.3344C252.538 88.509 252.788 88.6869 253.049 88.874C253.442 89.1541 253.93 88.5903 253.685 88.213C252.141 85.8402 249.903 83.2039 247.136 82.1798C248.395 78.7872 251.594 76.398 255.371 76.3762C261.963 76.3376 266.736 82.3844 270.243 87.1974C270.357 87.3536 270.615 87.2022 270.503 87.0389C266.198 80.7065 259.227 71.8311 250.449 76.2658C248.157 77.4235 246.41 79.4377 245.556 81.8089C245.272 81.7746 244.984 81.7581 244.692 81.7611C245.079 80.0878 245.714 78.4776 246.662 77.0197C250.233 71.5359 257.073 72.6701 262.5 73.5441C262.616 73.5634 262.66 73.4026 262.548 73.3656C256.923 71.5261 249.989 70.1506 245.798 75.5551C244.384 77.3766 243.394 79.6568 242.885 82.0357C240.871 82.6411 239.122 84.0167 237.065 84.5021C236.618 84.2367 236.191 83.9477 235.719 83.7159C234.668 83.1986 233.742 83.5695 233.256 84.278C229.277 82.873 227.263 77.9217 228.816 73.7891C228.874 73.6365 228.64 73.5604 228.564 73.6876C226.221 77.5479 226.406 82.2082 229.512 85.1238C229.422 85.1656 229.347 85.22 229.267 85.2745C228.922 85.0115 228.543 84.7781 228.172 84.5356C228.216 84.4178 228.223 84.2797 228.167 84.1191C227.065 81.0232 223.593 80.509 220.843 81.808C220.214 82.1055 219.621 82.4487 219.039 82.7861C218.499 71.3662 227.154 62.9553 239.645 63.0154C239.741 63.0153 239.759 62.8706 239.666 62.8486C229.001 60.4339 219.691 68.6478 217.975 78.3867C218.114 75.5168 218.847 72.6845 220.552 69.9301C224.396 63.7143 231.767 60.4939 238.898 60.8391C238.924 60.8397 238.93 60.7973 238.903 60.7942C231.557 59.6666 224.171 62.3693 219.798 68.5964C216.871 72.7635 215.584 78.4339 216.545 83.5513C216.07 83.6724 215.612 83.8954 215.234 84.2058C214.404 83.7652 213.438 83.8221 212.653 84.1873C212.365 84.0909 212.088 83.9765 211.833 83.8304C211.525 83.4296 211.164 83.1551 210.771 83.0057C208.987 81.1423 208.792 77.9133 211.061 76.0847C211.224 75.9534 211.009 75.7546 210.854 75.8249C207.633 77.2641 206.612 80.8379 207.864 83.7154C207.04 84.5053 206.65 85.733 207.388 87.0017C212.011 94.9608 214.509 104.08 213.373 112.93C213.29 112.998 213.214 113.087 213.158 113.208C209.363 121.47 206.226 130.413 197.702 135.047C187.625 140.526 173.873 138.365 163.238 136.127C146.8 132.669 130.922 127.098 114.366 124.053C83.1734 118.317 49.5574 119.476 22.7688 138.388C22.706 138.433 22.7637 138.534 22.8311 138.493C59.5194 115.871 102.322 122.69 141.369 134.309C151.126 137.212 161.532 140.602 171.995 141.982C170.638 142.002 169.312 142.187 167.904 142.435C163.598 142.702 159.287 142.776 154.975 142.706C154.23 142.526 153.476 142.321 152.698 142.065C145.207 139.596 138.104 136.304 130.463 134.205C115.119 129.994 98.7693 128.096 82.8871 129.637C82.8287 129.643 82.8272 129.728 82.8867 129.729C99.7231 130.081 116.188 132.134 132.231 137.403C136.414 138.777 140.447 140.583 144.508 142.287C143.917 142.251 143.327 142.214 142.736 142.176C137.173 141.049 131.661 139.684 126.12 138.454C115.514 136.1 103.976 133.749 93.1151 135.692C93.043 135.705 93.0677 135.809 93.1325 135.812C103.598 136.343 113.491 138.101 123.518 140.53C119.899 140.182 116.282 139.833 112.675 139.521C92.85 137.798 72.5617 136.866 53.0714 141.765C32.9974 146.803 15.4795 157.439 0.772373 171.889C0.631441 172.028 0.848596 172.232 0.99249 172.101C22.0972 152.95 49.2081 142.764 77.5526 142.495C101.183 142.273 124.384 147.481 147.908 148.811C160.613 149.528 176.613 150.011 190.21 145.916C182.947 149.667 174.711 151.811 166.436 153.066C151.967 153.713 136.974 151.89 125.342 150.279C95.1204 146.091 64.1958 140.512 34.7798 151.895C34.5991 151.965 34.6756 152.255 34.8627 152.19C69.5687 140.22 104.845 151.216 139.996 154.936C109.785 155.258 79.7337 150.465 49.5103 154.155C49.3771 154.171 49.3722 154.379 49.5109 154.37C74.6218 152.627 99.6987 156.2 124.767 157.629C123.345 157.668 121.921 157.705 120.502 157.751C104.422 158.276 88.3505 158.979 72.2746 159.572C72.1767 159.575 72.1771 159.724 72.2751 159.724C95.3558 160.002 118.445 160.641 141.533 160.413C160.301 160.228 179.427 158.639 196.43 149.944C197.407 149.445 198.366 148.917 199.317 148.371C205.215 145.64 210.241 142.013 213.57 137.25C219.575 130.917 224.082 123.265 226.188 114.506C227.73 108.093 228.732 95.0203 224.168 87.9936C234.317 95.3571 234.313 111.233 230.945 122.239C227.351 133.981 219.634 143.801 209.196 150.154C208.841 150.37 209.167 150.903 209.529 150.704C222.901 143.34 232.427 131.424 236.232 116.533C236.755 114.488 237.138 112.352 237.383 110.188C237.569 111.821 237.645 113.539 237.558 115.393C237.078 125.651 232.741 135.38 228.029 144.325C227.964 144.447 228.144 144.548 228.216 144.43C233.765 135.175 239.037 125.418 240.23 114.555C241.386 124.483 239.414 134.686 233.435 144.377C233.329 144.548 233.589 144.681 233.702 144.526C240.762 134.779 244.922 123.916 244.227 111.717C244.027 108.191 243.402 104.189 242.217 100.333C245.655 107.599 247.247 115.427 246.64 124.608C245.695 138.884 237.856 151.979 225.877 159.695C225.727 159.792 225.866 160.019 226.02 159.931C239.267 152.346 248.569 140.278 250.411 124.822C251.613 114.729 250.471 100.56 244.106 91.2135C244.4 91.2052 244.711 90.925 244.643 90.5772C244.378 89.1823 244.241 87.7306 244.23 86.2749C244.319 86.4839 244.431 86.6946 244.593 86.9064C244.937 87.3581 245.254 87.8295 245.583 88.2915C246.159 89.8142 247.099 91.156 248.246 92.3426C256.702 106.602 258.816 124.371 255.024 140.554C250.696 159.017 235.613 169.862 219.749 178.314C219.435 178.481 219.721 178.948 220.033 178.784C233.642 171.693 246.802 164.898 254.435 152.343C253.888 153.438 253.312 154.525 252.686 155.592C241.678 174.369 220.626 181.729 200.018 183.576C180.792 185.298 161.499 182.384 142.25 183.581C123.673 184.735 105.683 189.27 88.4452 196.267C88.3017 196.325 88.3644 196.559 88.5115 196.502C112.289 187.216 136.88 184.147 162.245 185.36C182.723 186.34 203.963 188.7 223.83 182.128C254.647 171.935 268.238 141.453 263.844 111.096C264.187 111.285 264.547 111.443 264.914 111.579C265.406 112.054 265.962 112.425 266.588 112.67C266.762 130.638 264.741 146.968 253.091 161.949C240.112 178.639 220.008 188.24 199.226 189.986C199.148 189.992 199.148 190.112 199.227 190.108C221.062 189.072 242.067 180.109 255.957 162.732C266.865 149.083 274.709 128.434 270.669 110.727C270.995 110.57 271.347 110.418 271.764 110.294C272.411 110.102 273.003 109.955 273.568 109.827C272.293 133.702 271.984 160.965 251.132 176.935C250.917 177.099 251.124 177.462 251.353 177.302C257.848 172.723 262.822 167.146 266.697 160.935C267.089 160.972 267.514 160.829 267.819 160.402C272.906 153.326 279.752 141.742 282.511 130.449C282.72 131.163 283.014 131.841 283.557 132.332C283.606 132.375 283.652 132.398 283.7 132.439C283.474 132.842 283.321 133.325 283.297 133.907C283.118 136.06 282.869 138.181 282.58 140.284C281.546 146.376 279.507 152.134 277.148 157.82C276.753 157.733 276.318 157.856 276.038 158.322C268.547 170.846 261.717 182.205 248.508 189.524C234.478 197.299 217.768 198.538 202.717 203.508C179.858 211.054 158.698 225.095 151.269 249.112C151.24 249.206 151.385 249.241 151.417 249.15C163.21 215.517 198.343 207.06 229.214 200.073C242.081 197.161 256.036 191.243 265.817 181.67C259.219 189.821 250.621 196.571 239.687 201.428C215.386 212.224 188.265 215.003 171.832 238.263C171.798 238.312 171.878 238.357 171.913 238.308C191.984 209.901 233.423 214.462 259.632 194.806C269.264 187.584 277.67 177.294 283.087 165.764C279.939 174.168 275.189 181.959 268.671 188.652C253.341 204.392 231.73 211.871 211.192 217.947C211.022 217.998 211.095 218.256 211.267 218.212C233.385 212.466 256.841 206.08 273.379 189.21C277.418 185.09 280.903 180.487 283.818 175.559C277.797 190.646 267.12 203.631 251.868 210.939C251.759 210.991 251.842 211.18 251.952 211.133C267.962 204.397 279.839 192.238 287.899 176.926C290.355 172.259 293.263 165.832 295.206 159.095C294.528 165.344 293.017 171.505 290.481 177.436C284.993 190.275 275.391 201.219 263.481 208.449C249.937 216.67 234.092 218.468 219.187 222.96C195.27 230.169 177.373 248.309 171.273 272.71C171.249 272.806 171.393 272.843 171.421 272.748C175.738 257.359 185.911 243.843 199.354 235.25C213.004 226.525 229.098 224.642 244.388 220.433C257.834 216.731 270.041 210.452 279.82 200.329C281.568 198.519 283.181 196.583 284.723 194.589C281.468 201.348 277.611 207.765 272.459 213.727C255.322 227.574 234.779 236.676 220.505 253.98C220.467 254.026 220.533 254.089 220.57 254.044C236.964 234.764 262.371 227.062 280.813 210.287C291.863 200.235 299.262 187.073 302.279 172.839C302.012 177.704 301.595 182.607 301.053 187.566C301.036 187.708 301.256 187.723 301.294 187.596C312.369 148.982 300.243 102.151 274.192 70.4733L274.199 70.4633ZM220.65 113.565C220.576 113.904 220.502 114.225 220.433 114.49C220.042 115.993 219.555 117.458 219.007 118.897C219.562 117.088 219.997 115.249 220.325 113.395C220.433 113.452 220.533 113.524 220.648 113.564L220.65 113.565ZM243.482 90.3799C242.484 89.032 241.382 87.7855 240.137 86.6946C240.3 86.6319 240.461 86.577 240.624 86.5081C241.305 86.2231 241.936 86.0001 242.53 85.8244C242.578 87.4127 242.883 88.9584 243.48 90.3792L243.482 90.3799Z" fill="#13264C"/>
<path d="M211.476 154.105C189.789 163.759 166.998 166.344 143.526 167.729C143.41 167.735 143.41 167.917 143.528 167.912C166.773 166.937 191.011 166.262 212.029 155.019C212.652 154.687 212.087 153.832 211.476 154.104L211.476 154.105Z" fill="#13264C"/>
<path d="M231.123 145.579C231.47 144.969 230.574 144.497 230.19 145.058C222.208 156.754 208.861 160.238 195.923 163.726C182.473 167.353 168.848 170.125 155.078 172.178C154.925 172.2 154.964 172.468 155.116 172.448C171.86 170.162 188.626 167.123 204.883 162.418C215.152 159.445 225.59 155.307 231.124 145.577L231.123 145.579Z" fill="#13264C"/>
<path d="M108.231 163.788C98.8673 164.054 89.5134 164.532 80.1566 164.964C80.0588 164.968 80.0593 165.121 80.1572 165.117C89.5175 164.807 98.879 164.542 108.233 164.063C108.41 164.054 108.409 163.783 108.231 163.788Z" fill="#13264C"/>
<path d="M120.589 169.57C110.071 168.938 99.5474 169.351 89.0939 170.677C88.9982 170.69 88.996 170.839 89.0944 170.829C99.6006 169.967 110.058 169.714 120.592 169.939C120.829 169.944 120.822 169.584 120.59 169.571L120.589 169.57Z" fill="#13264C"/>
<path d="M101.108 174.864C115.892 173.87 130.256 174.238 144.949 176.172C145.1 176.193 145.167 175.965 145.01 175.935C130.548 173.259 115.701 172.789 101.106 174.711C101.011 174.722 101.007 174.871 101.107 174.863L101.108 174.864Z" fill="#13264C"/>
<path d="M113.399 177.917C113.322 177.926 113.321 178.045 113.4 178.04C128.066 177.234 142.327 178.179 156.869 180.101C157.192 180.144 157.333 179.668 156.999 179.597C142.67 176.55 127.936 176.255 113.399 177.917Z" fill="#13264C"/>
<path d="M118.499 194.358C102.399 196.845 86.6944 200.977 71.2797 206.255C71.2064 206.28 71.2378 206.397 71.3128 206.373C86.8182 201.29 102.561 197.604 118.615 194.77C118.888 194.722 118.765 194.317 118.499 194.358Z" fill="#13264C"/>
<path d="M137.744 197.707C121.392 198.986 105.357 202.189 89.6247 206.83C89.5487 206.852 89.5809 206.967 89.6579 206.947C105.517 202.857 121.484 200.154 137.748 198.318C138.132 198.275 138.139 197.675 137.744 197.705L137.744 197.707Z" fill="#13264C"/>
<path d="M157.341 201.129C140.162 200.615 123.509 203.322 107.17 208.615C107.095 208.64 107.127 208.755 107.204 208.733C123.603 203.799 140.252 201.619 157.342 201.497C157.58 201.496 157.575 201.137 157.341 201.129Z" fill="#13264C"/>
<path d="M175.958 202.813C159.495 203.127 143.359 205.803 127.461 210.052C127.385 210.072 127.417 210.189 127.494 210.17C143.454 206.217 159.573 204.145 175.961 203.149C176.176 203.135 176.176 202.809 175.959 202.811L175.958 202.813Z" fill="#13264C"/>
<path d="M190.786 200.566C191.16 200.34 190.82 199.793 190.439 199.99C182.421 204.129 174.011 204.697 165.293 206.09C156.519 207.492 147.932 209.625 139.497 212.427C139.404 212.459 139.443 212.601 139.538 212.574C150.424 209.647 161.212 207.635 172.361 206.001C178.9 205.044 185.046 204.038 190.785 200.567L190.786 200.566Z" fill="#13264C"/>
<path d="M204.83 200.36C188.508 204.114 172.355 208.855 156.24 213.411C156.183 213.429 156.208 213.513 156.265 213.499C172.539 209.534 188.932 205.715 204.995 200.949C205.375 200.837 205.211 200.272 204.83 200.36Z" fill="#13264C"/>
</svg>
