<svg width="984" height="372" viewBox="0 0 984 372" fill="none" xmlns="http://www.w3.org/2000/svg">
<path d="M773.063 88.8835C774.959 87.6275 776.479 85.6637 776.629 83.2879C776.883 79.2507 772.459 75.3166 768.859 77.9416C768.659 78.0878 768.773 78.4499 769.036 78.3702C772.079 77.4166 774.256 81.6498 772.709 84.0654C771.989 85.1885 770.903 85.8631 769.679 86.2884C768.536 86.6838 767.29 86.6439 766.293 87.3982C765.4 88.0727 765.406 89.1892 766.293 89.8637C768.173 91.2958 771.306 90.0498 773.063 88.8901V88.8835Z" fill="#2B3C5E"/>
<path d="M737.817 79.058C735.941 79.583 734.757 80.5898 733.607 82.1814C731.091 85.667 736.104 90.7974 739.51 88.2189C741.064 87.0427 742.05 85.8332 742.56 83.9126C743.334 81.0085 740.657 78.2672 737.814 79.058H737.817Z" fill="#2B3C5E"/>
<path d="M699.952 88.4416C699.029 89.2955 698.272 89.9501 697.819 91.1496C697.435 92.1597 698.612 93.3593 699.599 92.9705C700.772 92.5086 701.415 91.7311 702.252 90.7908C703.659 89.2025 701.509 87.0061 699.955 88.4416H699.952Z" fill="#2B3C5E"/>
<path d="M679.436 94.7582C679.329 94.715 679.259 94.8944 679.359 94.9476C691.582 101.753 694.079 114.721 688.629 127.092C688.226 128.009 689.366 128.694 689.942 127.88C698.342 116.034 691.852 100.005 679.436 94.7582Z" fill="#2B3C5E"/>
<path d="M633.564 60.6996C632.671 60.806 631.531 60.4704 630.711 60.9588C630.048 61.3576 629.644 62.1816 629.924 62.9392C630.221 63.74 630.758 64.1354 631.578 64.2251C632.991 64.3813 634.478 63.8928 635.724 63.1153C636.804 64.2949 638.914 64.6338 639.981 62.8329C663.08 23.8168 581.849 3.21553 558.49 2.73705C558.324 2.73373 558.33 2.98294 558.49 2.99623C577.726 4.63436 656.683 26.5282 635.471 60.1248C634.811 60.4072 634.148 60.6299 633.564 60.6996Z" fill="#2B3C5E"/>
<path d="M670.036 32.1702C668.82 28.9538 665.677 26.9103 662.507 26.8206C661.25 25.9766 659.423 25.9168 657.95 26.475C655.394 27.4419 653.814 30.1367 653.4 32.7883C652.564 38.1679 656.237 44.0226 661.963 43.6139C667.236 43.2384 672.093 37.6063 670.036 32.1736V32.1702ZM663.463 39.4638C660.6 40.4838 658.007 38.7892 657.393 35.8286C657.133 34.5693 657.214 33.187 657.8 32.0307C658.17 31.2997 660.197 29.1233 661.073 30.4291C662.04 31.8679 663.827 31.1202 663.943 29.6217C664.98 30.1134 665.893 30.8577 666.53 31.8413C668.473 34.8384 666.53 38.3706 663.463 39.4638Z" fill="#2B3C5E"/>
<path d="M831.284 115.562C833.444 120.739 840.217 122.503 844.81 119.596C849.257 116.782 849.937 110.621 846.843 106.484C844.52 103.377 841.544 103.062 838.397 103.421C838.194 103.331 838.01 103.211 837.764 103.201C836.524 103.152 835.471 103.507 834.537 104.042C832.737 104.358 830.944 104.62 829.247 104.454C828.787 104.408 828.704 105.158 829.141 105.271C830.274 105.564 831.411 105.664 832.547 105.717C830.517 108.342 830.004 112.495 831.284 115.565V115.562ZM839.04 106.348C839.15 106.225 839.164 106.079 839.237 105.946C842.817 106.405 845.513 109.654 843.997 113.372C842.807 116.293 838.414 116.718 836.604 114.12C834.727 111.432 837.3 108.262 839.044 106.345L839.04 106.348Z" fill="#2B3C5E"/>
<path d="M799.165 23.5044C796.472 23.2885 794.415 24.9997 792.849 27.0532C790.122 30.6285 787.119 36.872 791.389 40.5171C795.312 43.8664 801.485 40.9723 803.262 36.6028C804.388 33.8283 803.872 31.0239 802.255 28.9804C802.648 28.6847 802.938 28.2228 802.995 27.6413C803.208 25.4117 801.225 23.6706 799.169 23.5044H799.165ZM800.178 34.0343C799.502 35.6658 796.535 38.231 794.689 36.7258C793.265 35.5661 795.249 32.5324 795.992 31.416C796.905 30.047 798.045 28.575 799.599 28.8009C800.542 30.356 800.878 32.3364 800.175 34.0343H800.178Z" fill="#2B3C5E"/>
<path d="M818.101 62.1019C815.515 62.7033 813.408 64.996 813.061 67.7506C812.578 71.5951 815.828 74.3264 819.358 74.5091C823.001 74.6952 826.211 71.9871 826.297 68.1659C826.381 64.5109 823.641 60.4837 819.838 60.4106C818.784 60.3906 818.178 61.2247 818.101 62.1052V62.1019ZM822.744 67.9533C822.801 69.8705 821.304 70.9903 819.564 71.1498C817.704 71.3193 815.825 70.256 815.345 68.3387C814.781 66.0925 816.228 63.7932 818.214 62.9326C818.384 63.431 818.744 63.8663 819.361 64.0291C821.244 64.5341 822.681 65.8034 822.744 67.9533Z" fill="#2B3C5E"/>
<path d="M656.06 219.07C653.344 217.635 648.43 217.801 646.537 220.655C643.987 224.503 648.62 228.716 651.607 230.447C654.773 232.278 659.267 232.039 660.24 227.786C660.997 224.476 658.787 222.034 656.04 220.987C656.683 220.555 656.88 219.509 656.06 219.077V219.07ZM658.427 227.271C657.207 231.182 653.004 228.749 651.04 226.992C649.43 225.549 646.837 222.502 650 221.343C651.53 220.781 653.227 221.12 654.83 221.177C657.093 222.35 659.293 224.493 658.427 227.271Z" fill="#2B3C5E"/>
<path d="M539.138 281.525C539.138 281.861 539.634 281.857 539.644 281.525C540.218 265.24 551.001 249.792 562.657 239.286C567.69 234.747 573.61 230.936 580.21 229.384C572.43 236.329 566.313 246.706 562.777 254.8C554.6 273.507 554.37 293.254 560.937 312.44C561.15 313.065 562.09 312.816 561.917 312.164C555.16 286.719 563.757 242.133 591.269 230.474C569.13 253.607 568.133 293.946 579.936 322.163C580.049 322.432 580.5 322.239 580.4 321.963C573.906 304.183 572.77 284.413 578.806 266.247C583.279 252.783 590.856 243.296 599.299 233.481C591.232 246.068 588.266 264.13 586.876 277.235C584.469 299.927 588.839 320.269 603.705 337.514C603.945 337.793 604.322 337.391 604.099 337.109C588.683 317.61 588.639 292.314 593.519 268.875C596.619 253.999 603.029 242.828 609.928 230.211C610.528 231.168 611.038 232.168 611.465 233.202C583.993 269.254 599.229 323.103 630.858 350.307C631.031 350.456 631.278 350.21 631.108 350.051C616.902 336.444 606.935 319.056 603.332 299.355C599.279 277.186 605.362 259.003 613.408 239.432C614.535 243.881 615.542 248.347 618.562 251.803C612.178 260.292 615.542 274.345 617.705 283.625C617.775 283.921 618.198 283.791 618.145 283.502C617.018 277.149 616.198 270.862 617.048 264.419C617.575 260.412 619.008 257.096 620.508 253.617C621.605 254.478 622.808 255.162 624.088 255.657C619.242 268.025 622.305 282.851 627.368 294.58C627.471 294.819 627.878 294.65 627.784 294.401C622.955 281.193 624.768 269.583 626.975 256.431C627.691 256.541 628.414 256.591 629.141 256.588C622.638 276.425 634.721 300.003 642.764 317.434C642.911 317.75 643.447 317.524 643.321 317.195C639.581 307.572 636.411 297.664 634.578 287.463C632.564 276.242 633.858 266.516 634.058 255.641C634.591 255.421 635.091 255.165 635.554 254.873C635.218 259.831 635.961 265.18 636.551 269.267C639.397 288.948 647.424 305.03 658.78 320.927C658.837 321.006 658.967 320.933 658.91 320.847C648.514 304.804 632.391 266.151 645.194 247.443C645.414 247.835 645.764 248.138 646.187 248.251C641.687 258.262 646.514 276.175 649.164 284.376C655.394 303.668 666.856 321.99 682.446 334.673C682.729 334.906 683.266 334.596 683.003 334.234C668.61 314.138 654.397 291.919 652.45 267.377C652.814 268.483 653.18 269.576 653.534 270.64C659.807 289.44 671.546 303.931 682.793 319.687C683.019 320.006 683.543 319.707 683.319 319.372C678.973 312.866 666.303 293.597 659.11 275.956C659.38 276.222 659.637 276.504 659.93 276.734C663.757 279.714 668.87 277.903 670.176 273.195C671.056 270.018 669.63 266.905 667.263 264.941C667.31 264.905 667.34 264.855 667.383 264.815C670.52 266.885 673.656 268.955 676.789 271.025C676.923 271.241 677.069 271.444 677.203 271.66C677.733 272.52 678.556 272.952 679.429 273.092C680.523 275.295 681.893 277.285 683.613 278.674C685.732 291.63 696.169 304.13 704.565 313.427C704.835 313.726 705.238 313.291 704.995 312.988C700.492 307.29 696.735 301.232 693.572 294.66C691.376 290.098 689.956 285.134 687.932 280.502C689.302 280.585 690.736 280.286 692.156 279.784C696.529 297.454 710.235 312.347 722.808 324.409C723.094 324.681 723.521 324.246 723.238 323.967C709.785 310.712 703.768 294.697 695.655 278.162C696.532 277.664 697.365 277.149 698.129 276.634C707.405 301.807 725.521 317.531 745.23 335.304C745.554 335.593 745.967 335.158 745.697 334.826C737.781 325.047 728.111 317.046 720.088 307.39C711.812 297.428 705.995 286.194 701.319 274.185C701.702 273.843 702.069 273.487 702.419 273.118C710.415 303.485 744.204 326.3 767.966 341.817C768.19 341.963 768.383 341.611 768.173 341.458C753.287 330.719 737.701 318.807 725.931 304.459C712.172 287.679 707.325 269.752 704.518 248.556C704.435 247.932 703.935 247.649 703.402 247.603C703.302 240.735 705.692 234.209 713.358 232.398C713.988 232.248 713.821 231.298 713.208 231.275C705.225 230.972 700.135 237.385 698.925 245.061C698.252 249.331 700.355 256.076 700.705 261.442C700.719 261.864 700.739 262.283 700.762 262.701C700.772 264.396 700.572 265.921 699.945 267.098C699.722 267.52 699.332 268.008 698.862 268.516C697.632 267.579 695.489 268.467 696.039 270.361C696.089 270.53 696.149 270.686 696.199 270.852C694.839 271.852 693.386 272.693 692.249 272.999C688.116 274.115 685.596 272.208 683.606 269.463C683.606 268.726 683.389 267.978 682.853 267.337C682.616 267.051 682.376 266.769 682.139 266.483C681.173 264.419 680.096 262.515 678.956 260.685C676.999 251.902 671.763 243.792 663.563 240.093C659.743 238.369 649.63 237.472 645.984 241.346C645.591 241.206 645.151 241.15 644.664 241.27C644.537 241.299 644.437 241.353 644.314 241.389C645.671 239.256 647.367 237.521 649.957 236.774C650.347 236.661 650.264 236.073 649.864 236.059C644.251 235.88 646.95 235.481 644.861 236.226C631.084 241.13 650.58 237.678 638.834 243.782C617.898 254.66 621.185 233.82 613.608 225.015C613.075 224.396 612.548 223.832 612.028 223.297C611.972 223.23 611.908 223.177 611.845 223.117C603.659 214.87 596.916 216.97 589.409 219.907C583.659 219.738 577.696 221.356 572.333 224.031C571.843 224.011 571.35 223.984 570.846 223.935C570.533 223.905 570.467 224.43 570.773 224.496C570.933 224.529 571.107 224.543 571.27 224.569C567.987 226.317 564.953 228.44 562.387 230.77C548.211 243.639 539.321 262.213 539.134 281.525H539.138ZM664.163 265.111C665.393 266.536 666.656 268.108 666.816 269.958C667.036 272.494 665.083 274.956 662.68 273.079C659.627 270.699 659.527 263.383 664.163 265.107V265.111ZM654.894 261.578C654.967 262.103 655.034 262.622 655.13 263.173C655.27 263.958 655.664 264.526 656.184 264.904C656.01 265.413 655.867 265.931 655.79 266.466C655.307 264.758 654.877 263.077 654.577 261.475C654.68 261.512 654.787 261.548 654.894 261.578Z" fill="#2B3C5E"/>
<path d="M522.998 190.291C526.031 191.601 529.515 189.903 530.431 186.64C530.725 185.593 530.905 184.47 530.835 183.38C530.701 181.263 529.661 179.459 527.698 178.612C525.882 177.828 523.518 178.157 522.125 179.692C521.402 180.489 520.778 181.303 520.365 182.3C519.082 185.387 519.668 188.853 522.998 190.291Z" fill="#2B3C5E"/>
<path d="M435.928 215.106L436.345 214.75C439.065 212.431 435.115 208.331 432.428 210.746L432.021 211.115C429.328 213.538 433.228 217.409 435.928 215.109V215.106Z" fill="#2B3C5E"/>
<path d="M413.139 221.958C414.662 221.732 414.309 219.103 412.775 219.203C410.372 219.359 407.049 218.944 405.076 220.559C404.542 220.997 404.716 222.011 405.296 222.313C407.536 223.473 410.789 222.306 413.139 221.958Z" fill="#2B3C5E"/>
<path d="M512.995 6.79417C527.535 9.99068 547.667 22.501 550.091 38.55C550.224 39.4272 551.491 39.1514 551.537 38.3506C552.031 29.6516 546.411 23.2486 539.768 18.5302C531.701 12.8018 522.872 7.79432 513.015 6.64132C512.929 6.63135 512.912 6.77423 512.995 6.79417Z" fill="#2B3C5E"/>
<path d="M544.078 17.2742C546.751 20.4508 547.231 24.0793 548.984 27.6612C549.287 28.2793 550.337 28.153 550.467 27.4619C551.264 23.2752 548.324 18.59 545.697 15.6128C542.551 12.0442 538.781 10.0538 534.088 9.90761C533.965 9.90429 533.961 10.0704 534.061 10.1103C537.724 11.6654 541.481 14.184 544.078 17.2676V17.2742Z" fill="#2B3C5E"/>
<path d="M581.099 28.7744C571.656 17.8158 560.21 6.86727 546.087 3.9399C553.91 4.5679 561.727 5.46838 569.52 6.73768C569.71 6.76758 569.797 6.48182 569.6 6.43863C530.591 -2.64253 490.293 -1.58589 451.197 6.28246C444.844 6.51173 438.448 7.53515 432.368 8.67486C431.368 8.86094 431.625 10.4592 432.605 10.4592C432.735 10.4592 432.868 10.4492 432.998 10.4492C389.486 21.637 353.028 42.9194 319.485 73.19C310.112 81.6498 301.023 90.4053 292.023 99.2605C259.381 125.829 226.382 151.721 191.44 175.216C171.037 188.936 150.151 201.968 128.732 213.966C106.146 226.619 82.5738 237.585 56.748 240.638C56.4614 240.671 56.4514 241.133 56.748 241.107C80.8405 238.884 103.323 229.743 124.712 218.602C147.292 206.839 169.254 193.667 190.727 179.921C214.739 164.55 238.345 148.006 260.901 130.142C247.545 143.304 233.985 156.253 219.646 168.368C181.854 200.29 140.652 226.822 95.89 247.261C95.0067 247.663 95.65 249.258 96.5533 248.875C170.361 217.635 228.382 165.008 285.397 109.844C294.613 101.796 303.606 93.5055 312.276 84.9061C312.592 84.5938 312.552 84.2548 312.399 83.9724C327.412 70.2593 342.948 57.8254 359.577 47.156C359.461 47.3022 359.331 47.4384 359.217 47.5846C358.611 48.3854 359.557 49.4387 360.331 48.7243C379.09 31.3861 406.192 31.2797 428.492 39.2777C428.678 39.3441 428.755 39.0484 428.572 38.9786C416.459 34.3134 404.646 30.0437 391.583 32.3862C388.256 32.981 384.45 33.8383 380.59 35.0112C392.396 28.9073 404.789 23.6739 417.985 19.5304C422.295 18.178 426.632 16.9286 430.978 15.7291C430.175 16.2574 429.365 16.8489 428.538 17.5434C427.382 18.5136 428.865 20.3544 430.108 19.6234C444.108 11.373 470.613 19.6035 484.346 26.6345C484.666 26.7973 484.936 26.3354 484.63 26.1427C473.813 19.3377 462.607 15.9551 450.164 13.6391C447.471 13.1374 445.071 12.7851 442.808 12.6688C447.938 11.4328 453.091 10.3063 458.26 9.29622C460.81 9.42913 463.35 9.72818 465.877 10.3329C476.58 12.9014 486.6 18.7529 495.873 24.6142C496.043 24.7206 496.186 24.4581 496.026 24.3451C486.669 17.6896 477.56 10.7084 466.407 7.79432C489.756 3.79369 513.432 2.18879 537.078 3.36838C536.558 3.73721 536.674 4.6842 537.471 4.75066C555.474 6.20936 567.73 17.673 580.923 28.9737C581.046 29.0801 581.213 28.9172 581.103 28.791L581.099 28.7744Z" fill="#2B3C5E"/>
<path d="M637.551 11.9079C636.501 11.4029 635.608 11.775 635.118 12.4595C633.454 12.2601 631.938 13.5394 631.464 15.2839C630.868 17.4769 632.224 19.6267 634.318 20.2415C639.297 21.7068 642.277 14.184 637.548 11.9112L637.551 11.9079ZM635.078 14.7489C635.214 14.9516 635.378 15.1476 635.601 15.3237C636.414 15.9518 636.438 17.3805 635.148 17.1745C633.531 16.9187 634.204 15.6261 635.078 14.7489Z" fill="#2B3C5E"/>
<path d="M657.887 63.1087C657.887 65.6772 660.007 67.847 662.52 67.847C665.033 67.847 667.153 65.6705 667.153 63.1087C667.153 60.5468 665.033 58.3704 662.52 58.3704C660.007 58.3704 657.887 60.5468 657.887 63.1087Z" fill="#2B3C5E"/>
<path d="M488.493 42.7367C493.979 42.7367 493.989 34.0144 488.493 34.0144C482.996 34.0144 482.996 42.7367 488.493 42.7367Z" fill="#2B3C5E"/>
<path d="M524.252 41.9326L524.591 41.9725C526.485 42.1951 526.488 38.7394 524.591 38.962L524.252 39.0019C522.412 39.2179 522.408 41.7166 524.252 41.9326Z" fill="#2B3C5E"/>
<path d="M780.336 165.194C782.176 164.231 783.549 162.51 783.616 160.144C783.716 156.439 780.576 154.03 777.386 152.651C778.396 152.003 778.216 150.358 777.256 149.773C775.889 148.939 774.076 148.88 772.356 149.335C770.426 145.504 768.13 141.975 766.553 137.928C765.603 135.489 765.253 132.452 764.346 129.87C764.776 130.013 765.273 129.946 765.7 129.528C766.496 128.74 767.2 127.883 767.863 126.992C768.936 127.637 769.959 128.431 770.939 129.335C770.256 129.551 769.753 130.309 770.173 131.212C777.206 146.294 787.906 160.244 798.075 173.242C808.618 186.723 820.104 199.439 832.471 211.192C857.236 234.734 884.739 253.444 914.921 268.862C915.008 268.905 915.084 268.776 914.998 268.729C885.719 253.158 858.22 232.507 834.357 209.261C822.761 197.964 811.848 185.915 801.835 173.133C792.149 160.765 784.239 147.384 775.509 134.419C779.762 139.805 783.726 145.995 789.029 148.341C789.045 148.587 789.109 148.84 789.269 149.102C792.199 153.884 795.305 158.539 798.485 163.141C801.255 167.304 804.225 171.352 807.352 175.299C821.198 193.345 836.964 209.813 854.44 224.297C879.826 245.34 907.538 260.326 937.924 272.221C938.137 272.304 938.23 271.952 938.017 271.872C905.715 259.226 875.676 239.994 849.507 216.325C855.41 220.941 861.423 225.327 867.456 229.454C895.798 248.846 927.714 263.379 961.059 270.849C961.266 270.896 961.353 270.586 961.146 270.523C928.847 260.628 898.212 246.496 870.283 227.091C864.409 223.011 858.846 218.671 853.44 214.196C856.75 216.202 860.003 218.08 863.12 219.791C901.202 240.698 943.277 253.677 983.605 269.148C984.009 269.304 984.162 268.659 983.782 268.496C947.013 252.856 908.441 238.588 873.672 218.625C858.533 209.929 844.1 199.771 831.674 187.308C819.321 174.917 811.861 160.313 802.272 146.208C808.548 141.925 810.888 134.017 809.275 126.587C808.781 124.311 807.908 122.341 806.882 120.493C807.525 120.025 807.868 119.121 807.365 118.357C801.922 110.06 815.288 105.454 818.191 99.1177C818.881 97.6124 819.214 95.961 819.228 94.3262C822.328 86.6439 815.971 79.1909 807.905 80.201C802.655 80.859 798.849 83.5438 793.212 81.4936C789.309 80.0748 786.266 75.3598 784.349 71.9041C781.932 67.5413 780.392 62.8428 777.939 58.6661C776.886 48.8573 778.223 36.656 767.76 32.8115C764.226 31.5123 760.677 32.4095 757.817 34.7986C755.78 36.4998 754.46 38.8823 752.9 40.9956C750.014 44.9164 747.45 44.8035 743.217 46.2024C742.481 46.4482 741.864 47.2956 742.154 48.1196L742.457 48.9835C740.394 48.4618 738.241 48.1761 736.074 48.1993C734.407 48.216 731.368 49.0965 729.881 48.4187C729.114 48.0698 728.721 45.9498 727.678 45.4149C725.328 44.212 724.134 43.0391 721.218 43.0956C713.228 43.2418 705.538 52.9908 700.632 58.2209C700.509 58.3538 700.429 58.5 700.362 58.6462C697.822 56.8419 694.912 55.6391 692.096 55.5693C684.443 55.3766 681.376 63.5041 680.423 70.04C679.409 76.978 682.849 84.843 672.056 86.3183C667.303 86.9696 663.383 85.0955 658.823 87.4879C657.18 88.3485 655.807 89.4716 654.594 90.7409C650.464 87.3816 646.024 84.3645 641.797 81.1879C636.671 77.3368 631.648 72.0503 625.855 69.2159C628.941 65.0093 629.048 57.7324 627.281 53.1536C622.985 42.0323 612.038 34.7454 600.865 32.8248C600.609 32.7816 600.509 33.1339 600.759 33.2236C608.325 36.0147 615.002 40.5603 619.791 47.2391C622.528 51.0503 624.878 55.5593 624.398 60.4205C623.951 64.9495 621.045 67.2289 617.878 70.0167C616.885 70.8906 617.742 72.4424 618.885 72.4988C619.471 72.5288 620.025 72.5055 620.551 72.4357C620.605 72.6151 620.645 72.7979 620.735 72.964C622.918 77.0079 627.121 80.427 631.424 83.2647C628.231 83.8661 625.011 85.3381 622.561 86.5509C622.405 86.6273 622.515 86.8865 622.678 86.8366C624.798 86.1987 627.721 85.3281 630.548 85.0457C629.001 86.3781 627.105 87.2553 626.221 89.3254C625.138 91.8574 625.778 94.8645 627.445 96.9678C630.528 100.855 636.797 101.178 640.371 97.7786C642.597 95.662 643.261 92.5385 642.604 89.6942C645.737 91.246 648.994 92.5684 652.344 93.5021C649.437 97.6158 647.38 102.56 644.231 106.484C640.164 109.166 635.738 110.947 631.108 112.226C623.835 102.859 616.218 93.7347 609.425 83.9923C607.619 81.4039 605.962 78.6028 604.329 75.7585C605.129 76.1473 605.952 76.4463 606.809 76.5427C615.388 77.5063 618.198 68.1826 617.225 61.2612C615.682 50.2761 607.322 42.7832 598.226 38.1479C598.109 38.0881 598.009 38.2609 598.122 38.3274C604.642 42.1386 614.588 52.3694 612.862 61.2612C609.625 77.915 600.629 65.2951 596.872 61.5603C590.419 55.144 584.089 47.7774 576.29 42.9992C573.15 41.0786 569.263 39.1448 565.487 39.3774C566.863 37.0248 568.52 34.5859 567.933 31.7383C566.823 26.3753 561.25 23.9364 556.694 22.7369C556.27 22.6272 556.137 23.2253 556.517 23.3881C561.877 25.6775 565.11 31.1335 561.677 36.4068C559.824 39.2544 558.064 41.7266 557.694 45.1723C556.59 47.558 555.84 50.1698 553.93 52.0737C552.154 50.9207 549.497 51.1201 547.997 52.6751C548.437 51.1367 548.687 49.4321 548.631 47.5115C548.237 33.9446 535.554 19.0785 521.675 19.7763C521.142 19.8029 521.078 20.5073 521.555 20.6934C530.745 24.3285 538.571 28.6946 542.291 38.6962C544.664 45.0793 545.281 54.074 536.598 55.8849C532.185 56.8054 527.325 54.0906 522.965 52.7948C520.872 49.0732 517.718 46.1293 514.062 43.8365C514.249 43.6737 514.392 43.4611 514.398 43.1487C514.465 39.5967 511.452 35.7954 508.929 33.619C506.199 31.2598 502.692 29.5087 499.056 29.6483C498.609 29.6649 498.562 30.2596 498.956 30.4125C502.176 31.6818 505.125 33.0308 507.632 35.5362C509.799 37.7027 510.669 40.1914 512.082 42.6802C507.695 40.3011 502.799 38.7294 498.269 37.7758C497.779 37.6728 497.619 38.344 498.066 38.5267C503.462 40.4838 508.322 43.378 512.645 47.2125C522.272 54.2568 519.915 61.4872 505.579 68.9036C501.252 68.4816 495.019 63.2947 490.999 61.1947C486.533 58.8622 480.84 56.4963 475.113 55.1573C476.373 53.1071 476.563 51.263 475.803 48.8905C473.83 42.7367 468.28 38.6198 462.414 36.9218C461.867 36.7623 461.677 37.5731 462.184 37.7725C467.55 39.9024 473.81 45.3118 472.067 51.6451C471.79 52.6519 471.33 53.5291 470.797 54.3598C468.113 54.0142 465.487 53.9378 463.05 54.3133C460.484 54.7087 458.317 55.6523 456.304 56.8186C457.417 45.4481 452.337 33.1471 443.524 26.2889C443.358 26.1593 443.181 26.4285 443.308 26.5747C449.221 33.187 453.274 40.8527 453.744 49.9604C453.914 53.2599 453.521 56.2571 452.781 59.1213C452.471 59.344 452.154 59.5633 451.844 59.7892C453.524 46.7872 444.474 31.4957 433.498 25.4017C433.365 25.3286 433.198 25.5214 433.328 25.6244C445.851 35.5562 452.224 49.2427 447.664 62.6767C447.231 62.9525 446.811 63.2416 446.361 63.5008C447.144 60.1547 447.264 56.606 446.721 53.1935C444.941 42.0223 436.498 33.5127 427.195 28.2361C427.098 28.1829 426.978 28.3225 427.072 28.3989C438.345 37.4501 448.018 51.7913 443.438 64.9262C443.298 64.9827 443.161 65.0425 443.018 65.099C442.611 64.8664 442.148 64.7634 441.671 64.8066C445.134 56.8552 442.081 46.6343 433.411 42.2516C433.251 42.1718 433.118 42.3978 433.271 42.4975C442.118 48.206 443.338 58.7591 438.011 66.3052C436.415 66.5178 434.908 66.6109 433.465 66.6408C442.181 59.0017 433.711 44.428 423.518 44.6639C423.095 44.6739 422.958 45.3816 423.415 45.4547C427.982 46.1857 432.065 48.5283 433.908 53.0739C435.825 57.8055 434.191 61.7164 432.168 66.0128C432.048 66.2653 432.098 66.4846 432.198 66.6707C428.595 66.7205 425.208 66.8102 421.252 68.5647C420.115 60.6531 419.202 53.8747 423.652 52.4957C424.028 52.3794 423.968 51.778 423.558 51.7813C407.849 51.9209 417.359 66.1822 417.655 77.174C417.172 78.5829 417.022 79.9851 417.195 81.3175C415.932 85.8431 411.762 89.1958 401.276 89.6544C398.563 89.774 392.213 86.7802 389.173 86.4379C385.423 86.0159 381.423 86.3582 377.717 86.6971C364.324 87.9232 351.614 92.1398 339.385 97.629C339.125 97.7453 339.311 98.2072 339.581 98.1042C348.474 94.7316 357.331 91.7411 366.37 90.4585C364.217 91.8806 362.081 93.3526 359.957 94.8612C358.607 95.6686 357.294 96.5458 356.011 97.4895C345.071 95.9145 330.872 104.082 321.232 108.162C305.596 114.781 290.88 123.008 279.547 136.067C278.654 137.097 280.007 138.469 281.017 137.572C291.753 128.076 302.956 120.108 315.669 113.655C325.552 108.637 343.035 98.0078 355.381 97.9414C353.908 99.0545 352.478 100.254 351.084 101.507C325.305 121.819 302.826 148.577 290.396 178.981C290.316 179.177 290.62 179.29 290.72 179.12C293.97 173.767 297.233 168.494 300.586 163.307C290.15 185.39 284.38 210.042 281.32 234.126C281.267 234.544 281.513 234.78 281.813 234.913C273.754 242.007 266.614 250.158 260.464 259.056C272.464 218.774 278.494 171.049 308.456 140.938C308.712 140.679 308.329 140.29 308.062 140.536C291.866 155.366 283.12 174.116 275.81 194.731C267.614 217.854 259.014 242.456 255.378 266.921C251.951 272.657 248.968 278.664 246.351 284.838C256.178 242.924 267.411 201.529 284.037 161.719C284.163 161.42 283.74 161.151 283.6 161.456C263.184 205.965 246.785 252.481 240.442 301.455C239.502 304.688 238.672 307.945 237.955 311.231C239.615 291.763 241.728 272.464 245.985 253.225C251.285 229.291 259.708 206.756 268.151 183.865C268.274 183.53 267.764 183.327 267.594 183.626C243.295 226.207 230.349 281.824 234.125 331.044C234.168 331.629 234.535 331.915 234.942 332.035C234.772 334.477 234.638 336.919 234.595 339.361C234.572 340.757 236.542 340.697 236.675 339.361C241.315 293.158 262.024 255.587 295.54 224.872C295.69 224.735 295.493 224.473 295.323 224.586C291.136 227.334 287.163 230.381 283.36 233.624C291.16 204.662 296.226 175.359 310.056 149.431C314.656 143.108 319.552 136.984 324.975 131.156C326.879 129.109 328.822 127.105 330.798 125.135C320.369 139.014 312.702 152.701 309.399 170.312C309.326 170.704 309.856 170.86 309.986 170.478C312.892 161.865 315.306 153.179 320.035 145.357C323.292 139.975 327.219 135.05 331.218 130.212C331.178 130.724 331.348 131.216 331.672 131.628C320.452 150.099 315.106 172.332 317.195 193.99C317.236 194.418 317.832 194.432 317.855 193.99C319.029 169.893 325.045 149.265 336.865 129.814C341.021 124.863 345.228 119.958 349.531 115.143C349.658 115.017 349.791 114.898 349.918 114.775C342.105 126.145 336.935 138.443 332.838 151.631C332.818 151.694 332.915 151.721 332.935 151.657C337.138 138.812 343.935 126.584 351.944 115.828C355.927 110.478 360.427 105.943 365.047 101.543C361.861 105.507 359.101 109.824 356.737 113.771C349.374 126.069 340.865 140.244 340.918 155.123C340.918 155.239 341.088 155.266 341.118 155.15C343.968 144.271 347.941 134.764 353.128 125.321C347.554 140.918 347.024 158.336 351.324 174.621C351.401 174.917 351.811 174.787 351.764 174.498C348.508 153.365 352.201 134.239 361.144 116.346C356.557 131.472 357.201 149.016 361.191 162.722C361.241 162.898 361.504 162.825 361.461 162.646C358.347 150.405 358.514 137.1 361.574 124.869C363.134 118.626 365.594 113.296 368.434 108.162C360.717 126.517 362.534 150.189 370.637 166.856C370.687 166.959 370.867 166.886 370.824 166.776C366.06 154.625 364.437 141.373 366.127 128.401C366.887 122.567 368.464 117.363 370.49 112.389C367.494 131.239 372.854 152.123 383.656 166.637C383.783 166.803 384.056 166.656 383.943 166.467C376.89 155.013 372.664 142.181 372.214 128.604C371.867 118.147 374.08 108.973 377.32 99.6194C372.084 121.806 377.067 147.597 389.243 166.185C356.144 181.327 324.792 201.197 296.183 221.356C295.676 221.715 296.113 222.502 296.67 222.207C366.124 185.284 432.571 147.597 511.489 141.905C528.005 145.092 541.951 152.275 557.534 159.316C563.117 161.838 569.867 163.53 575.093 166.597C580.663 167.776 584.506 171.066 586.676 176.396C585.999 179.203 577.723 177.585 568.403 174.894L566.447 174.116C565.873 173.887 565.343 173.814 564.843 173.834C554.354 170.614 543.611 166.597 541.541 166.334C540.511 166.205 540.101 167.67 540.734 168.328C542.714 170.391 545.191 172.079 547.921 173.508C547.787 173.678 547.667 173.857 547.557 174.05C546.087 172.893 544.661 171.77 543.378 170.717C535.451 164.228 527.151 159.503 516.868 159.27C516.665 159.267 516.632 159.569 516.822 159.626C530.241 163.606 539.908 174.345 549.874 183.759C552.607 186.341 561.727 192.202 562.67 195.814C566.21 209.334 548.874 198.319 544.634 197.293C544.617 197.289 544.604 197.303 544.587 197.299C538.904 193.687 531.308 189.889 527.598 194.691C524.542 198.642 528.398 207.042 519.385 205.988C515.248 205.503 512.989 203.529 509.625 203.868C509.635 198.053 504.832 192.484 500.496 189.039C493.149 183.197 483.846 179.825 474.527 180.376C474.063 180.403 474.08 181.051 474.527 181.104C486.033 182.433 506.459 189.534 506.952 203.818C505.912 204.031 504.946 204.653 504.312 205.885C503.882 206.726 503.539 207.553 503.199 208.381C501.002 198.283 488.593 193.741 479.3 193.132C478.92 193.109 478.863 193.691 479.213 193.797C487.336 196.239 498.722 199.515 499.842 209.829C500.202 213.165 499.119 216.063 497.086 217.91C491.463 219.037 485.01 214.059 479.173 216.402C478.09 212.803 475.793 209.554 472.75 207.484C467.714 204.054 462.037 204.038 456.247 204.852C455.931 204.895 456.017 205.41 456.321 205.413C464.297 205.477 473.413 210.557 473.817 219.542C473.847 220.236 473.75 220.831 473.673 221.439C472.21 223.459 470.993 225.576 469.453 227.52C466.874 228.68 463.53 228.56 460.437 227.228C459.06 226.633 458.254 228.45 458.717 229.517C458.744 229.573 458.784 229.62 458.81 229.676C453.571 225.606 447.408 222.599 441.481 220.515C441.128 220.393 440.991 220.891 441.248 221.084C445.941 224.659 453.721 229.165 458.674 234.714C457.801 235.897 457.324 237.472 457.831 238.844C459.354 242.981 460.254 246.985 460.95 250.906C459.7 254.956 458.121 257.299 456.214 257.933C456.187 257.874 456.164 257.81 456.137 257.754C455.227 255.873 453.234 255.877 451.867 256.867C450.974 256.225 450.037 255.365 449.047 254.232C447.258 252.713 445.464 251.198 443.671 249.683C439.808 246.739 435.851 243.924 430.868 243.526C425.178 243.071 422.362 245.097 418.082 245.343C417.922 244.941 417.775 244.539 417.609 244.14C417.155 243.044 415.312 243.35 415.105 244.476C415.062 244.712 415.049 244.958 415.009 245.194C413.842 245.024 412.545 244.712 411.079 244.214C404.456 238.252 396.059 236.123 385.453 235.475C385.88 235.385 386.3 235.292 386.756 235.209C387.17 235.132 387.04 234.518 386.663 234.494C383.833 234.325 381.503 234.558 379.427 235.059C377.087 234.81 374.83 235.182 373.074 236.771C372.717 237.093 372.427 237.442 372.167 237.801C368.714 238.216 366.604 240.223 365.507 242.961C365.014 243.3 364.547 243.629 364.024 243.974C356.131 249.118 351.361 248.34 347.068 245.845V245.745C347.068 244.15 345.311 243.27 344.081 243.871C340.438 241.21 336.695 237.987 331.142 236.877C330.875 236.824 330.622 236.827 330.358 236.784C330.068 236.621 329.752 236.498 329.382 236.478C328.778 236.442 328.182 236.452 327.585 236.452C324.422 236.269 321.419 236.714 318.545 237.621C303.436 241.642 290.456 255.405 283.21 271.148C283.083 271.301 282.953 271.47 282.83 271.62C282.627 271.866 282.617 272.125 282.673 272.367C277.784 283.512 275.764 295.527 277.907 305.702C277.96 305.957 278.374 305.904 278.357 305.638C277.407 290.188 284.733 274.813 294.94 263.579C294.246 264.938 293.62 266.274 293.083 267.556C287.363 281.229 287.763 295.547 292.02 309.563C292.213 310.197 293.163 309.935 293 309.287C289.656 296.119 291.52 282.369 297.843 270.4C299.839 266.619 302.129 263.519 304.653 260.791C299.949 279.01 306.149 301.595 314.256 317.212C314.459 317.604 314.996 317.258 314.826 316.869C303.873 291.856 304.909 269.613 319.525 249.354C320.612 248.706 321.712 248.061 322.849 247.407C324.055 246.716 324.182 245.529 323.715 244.566C325.615 243.569 327.515 242.512 329.412 241.376C333.268 242.602 337.118 245.104 341.175 248.945C341.208 248.975 341.231 249.008 341.261 249.038C328.342 279.282 343.105 309.031 363.614 332.184C364.104 332.736 364.854 331.935 364.404 331.377C355.001 319.747 346.184 305.589 342.715 290.689C341.201 284.18 341.631 278.159 342.671 272.261C343.818 288.26 348.468 304.143 357.791 316.869C371.327 335.351 391.89 346.04 411.076 357.185C411.959 357.697 412.749 356.311 411.869 355.796C395.623 346.253 379.23 335.524 367.007 320.767C360.091 312.417 356.244 303.671 353.884 294.564C359.537 303.688 366.804 311.909 373.53 318.335C393.609 337.514 417.079 348.682 443.391 355.733C444.024 355.902 444.291 354.915 443.661 354.733C421.365 348.22 400.246 335.454 383.127 319.541C378.783 315.504 374.98 311.427 371.607 307.253C376.46 312.068 381.397 316.328 385.853 319.823C412.769 340.93 444.324 349.792 476.47 358.71C476.85 358.816 477.006 358.228 476.633 358.109C448.464 349.137 419.332 337.138 395.786 318.647C384.776 310.001 374.983 299.873 367.317 287.988C361.161 278.445 358.137 267.436 352.754 257.674C354.291 257.721 355.871 257.438 357.541 256.73C361.291 255.139 362.341 252.66 364.607 250.075C364.804 252.903 365.53 255.764 366.59 258.099C373.764 273.919 385.076 285.951 397.249 297.787C397.509 298.039 397.899 297.644 397.643 297.381C391.613 291.251 369.044 262.276 372.414 248.271C373.094 250.038 373.87 251.7 374.423 253.069C383.043 274.328 396.686 292.158 412.342 308.433C412.852 308.961 413.602 308.174 413.132 307.626C402.753 295.524 394.666 281.691 388.506 266.905C385.77 260.332 384.363 252.889 381.397 246.51C381.007 245.669 380.75 245.051 380.57 244.576C381.107 244.549 381.537 244.543 381.897 244.549C393.199 280.365 415.819 308.779 447.281 328.589C447.421 328.679 447.541 328.459 447.408 328.363C419.669 308.303 399.859 279 389.983 245.981C395.256 248.387 399.719 255.102 403.253 260.808C406.782 273.248 414.762 285.669 421.515 294.617C434.138 311.344 450.634 324.02 469.803 331.799C470.13 331.932 470.33 331.403 470.037 331.231C464.297 327.818 458.85 324.043 453.681 319.95C461.36 326.004 469.843 331.021 478.983 335.085C479.303 335.228 479.593 334.763 479.263 334.593C468.183 328.841 458.357 321.282 449.907 312.271C449.857 312.035 449.754 311.792 449.581 311.54C443.421 302.508 436.848 293.853 431.708 284.14C429.742 280.422 428.128 276.557 426.572 272.67C424.122 264.742 422.218 256.701 419.382 248.759C423.085 247.766 425.615 245.287 430.881 247.241C430.865 247.33 430.825 247.407 430.822 247.506C428.902 282.748 461.087 312.125 486.56 330.297C486.886 330.529 487.169 329.998 486.866 329.759C472.403 318.385 458.957 305.545 449.314 289.526C441.521 276.581 438.541 263.33 434.638 249.158C435.528 249.709 436.461 250.334 437.491 251.108C442.231 254.677 445.834 260.376 450.564 263.931C452.221 284.32 471.347 302.904 485.323 314.876C485.746 315.238 486.356 314.62 485.933 314.251C477.55 306.958 471.057 297.072 466.214 287.001C463.164 280.655 461.67 273.766 459.654 267.114C460.18 267.111 460.71 267.101 461.27 267.038C462.12 266.941 462.89 266.765 463.63 266.549C464.79 271.69 466.547 276.8 469.92 282.014C478.79 295.723 490.256 306.512 503.539 315.613C503.979 315.916 504.449 315.251 504.092 314.879C493.033 303.326 483.123 289.985 476.127 275.424C474.203 271.424 473.087 267.343 472.273 263.227C476.786 279.249 486.573 293.391 501.186 303.352C503.136 304.682 505.286 304.017 506.675 302.538C507.105 302.362 507.492 302.11 507.842 301.817C508.915 316.803 513.975 331.55 524.068 344.811C524.261 345.063 524.698 344.724 524.508 344.465C505.396 318.87 506.952 282.442 521.505 255.023C533.068 233.235 550.207 220.971 568.44 208.241C569.203 208.411 570.037 208.371 570.823 208.018C582.879 202.652 594.816 197.06 607.069 192.192C615.448 191.199 623.718 189.537 628.698 183.317C637.371 180.974 646.097 178.901 654.957 177.419C656.17 177.406 657.32 177.24 658.403 176.924C664.45 176.017 670.543 175.332 676.743 175.066C682.363 174.827 687.859 174.91 693.259 175.276C694.919 176.316 696.949 176.396 698.635 175.738C707.002 176.605 715.155 178.16 723.214 180.257C723.651 180.788 724.231 180.871 724.728 180.652C733.987 183.144 743.13 186.357 752.327 190.092C752.52 190.291 752.714 190.514 752.907 190.707C753.13 190.933 753.387 190.777 753.46 190.547C755.453 191.365 757.447 192.199 759.447 193.063C760.023 193.312 760.427 192.601 759.933 192.212C759.32 191.727 758.687 191.288 758.063 190.82C763.516 193.036 768.79 195.631 773.853 198.615C774.663 199.309 775.476 200.017 776.283 200.649C776.523 200.835 776.756 200.459 776.593 200.25C781.576 203.377 786.336 206.892 790.815 210.83C795.409 214.863 799.742 219.273 803.612 224.041C806.038 227.028 810.381 231.673 810.768 235.74C813.311 239.233 811.931 240.927 806.635 240.831C802.935 244.23 800.548 243.861 799.482 239.721C793.112 232.368 792.179 224.011 783.756 217.781C779.009 214.272 773.809 211.873 768.323 211.075C768.323 210.889 768.219 210.7 768.016 210.65C765.08 209.932 761.253 210.032 758.433 211.421L758.357 211.434C758.303 211.448 758.287 211.494 758.24 211.517C755.863 212.757 754.25 214.946 754.62 218.422C755.06 222.536 758.167 225.174 761.203 227.47C768.006 232.614 771.206 237.269 772.613 244.848C772.026 246.662 770.449 248.085 767.953 248.437C763.606 249.052 761.326 245.46 757.803 243.815C757.64 243.738 757.483 243.748 757.327 243.728C757.977 241.469 758.013 238.947 757.507 236.724C756.033 230.265 750.354 225.413 744.747 222.645C743.957 222.257 743.16 223.217 743.794 223.908C750.107 230.823 758.04 237.129 750.63 246.533C750.61 246.559 750.604 246.593 750.583 246.619C747.97 246.948 744.727 246.28 743.08 245.755C741.437 245.23 740.281 244.343 739.194 243.37C744.35 235.508 736.441 228.091 729.414 225.895C728.821 225.709 728.321 226.546 728.798 226.978C730.924 228.925 734.031 230.79 735.404 233.395C736.477 235.435 736.374 238.193 735.324 240.346C734.591 240.22 733.877 240.738 733.611 241.456C733.441 241.914 733.337 242.353 733.281 242.775C731.318 244.14 728.778 244.337 726.408 244.383C725.901 244.217 725.351 244.23 724.871 244.403C718.415 244.43 711.558 242.762 705.288 244.576C703.868 244.988 704.015 246.905 705.288 247.38C706.175 247.709 707.118 247.972 708.085 248.194C707.655 261.137 712.778 274.059 719.071 285.014C719.161 285.173 719.398 285.031 719.311 284.871C713.068 273.075 711.202 261.406 709.375 248.453C710.672 248.696 712.005 248.875 713.375 248.985C710.625 266.822 719.255 285.805 732.651 296.933C732.724 296.996 732.831 296.896 732.758 296.823C719.441 283.462 714.638 267.53 714.775 249.071C715.155 249.091 715.531 249.121 715.911 249.135C714.205 270.773 725.544 291.822 742.717 304.064C742.827 304.14 742.92 303.964 742.82 303.884C725.658 290.5 717.908 270.54 717.915 249.171C718.528 249.178 719.131 249.171 719.738 249.168C713.802 270.713 734.884 292.025 750.837 302.655C777.339 320.312 808.795 328.908 838.914 337.544C839.23 337.634 839.36 337.138 839.047 337.042C814.158 329.4 788.919 321.678 766.323 308.22C756.19 302.186 746.177 295.285 738.387 286.227C731.604 278.342 728.674 270.64 726.778 262.1C731.288 270.656 739.697 277.511 747.31 283.505C762.706 295.624 779.589 303.163 797.925 309.224C798.208 309.317 798.322 308.872 798.045 308.772C770.363 298.87 738.027 278.442 728.754 248.769C729.651 248.669 730.544 248.523 731.424 248.317C737.394 271.155 766.903 287.097 787.716 291.174C788.002 291.231 788.125 290.786 787.836 290.723C767.81 286.496 745.514 268.453 737.287 248.762C740.407 250.44 744.564 251.188 746.91 251.168C749.997 251.142 753.473 250.613 755.387 247.832C755.657 247.437 755.827 247.021 755.993 246.603C756.03 246.546 756.073 246.493 756.11 246.433C758.12 252.577 767.15 254.87 772.189 251.577C772.886 251.122 773.469 250.447 773.989 249.699C774.606 249.979 775.369 249.819 775.553 248.932C776.869 242.546 774.743 235.73 770.943 230.593C769.236 228.287 767.206 226.573 764.976 224.835C762 222.516 753.873 218.645 762.463 213.112C774.826 214.342 784.269 221.057 790.935 232.178C794.572 238.246 796.765 246.274 802.588 250.743C808.755 255.474 815.265 252.913 816.488 245.028C818.624 231.238 803.505 217.575 794.492 209.972C787.829 204.353 780.662 199.718 773.079 195.924C765.123 185.872 758.367 175.14 754.357 162.663C751.427 153.545 751.077 144.015 749.437 134.774C749.974 134.628 750.513 134.502 751.05 134.299C751.647 134.077 752.14 133.811 752.67 133.562C754.033 158.16 771.863 183.181 789.442 197.721C789.592 197.844 789.805 197.638 789.659 197.502C779.163 187.862 770.956 176.362 765.406 163.078C760.896 152.285 760.216 141.44 758.553 130.252C759.247 129.641 759.897 129.016 760.483 128.371C759.743 132.11 761.86 136.821 763.306 140.084C764.946 143.776 767.27 147.441 770.293 150.142C768.77 151.023 767.563 152.342 767.243 153.963C766.37 158.409 770.543 164.457 774.626 165.71C775.526 165.985 776.486 166.058 777.433 165.982C802.068 203.121 836.307 235.338 875.339 255.993C875.426 256.039 875.499 255.91 875.416 255.86C837.28 232.384 805.468 202.752 780.349 165.148L780.336 165.194ZM636.344 95.6686C632.518 97.1506 627.495 93.1433 631.511 89.7175C633.004 88.4449 634.778 87.2686 634.704 85.3115C635.874 86.0126 637.021 86.6805 638.094 87.2919C640.137 89.9468 639.747 94.3528 636.348 95.6686H636.344ZM446.918 314.161C448.904 316.019 450.941 317.807 453.057 319.501C450.847 317.73 448.701 315.886 446.601 313.989C446.701 314.058 446.811 314.108 446.918 314.161ZM426.235 289.666C427.968 292.607 429.835 295.458 431.838 298.205C429.948 295.81 428.108 293.357 426.372 290.799C426.168 290.5 426.012 290.181 425.815 289.879C425.958 289.819 426.095 289.742 426.235 289.666ZM530.651 200.865C530.675 200.785 530.701 200.702 530.731 200.622C530.738 200.678 530.725 200.728 530.735 200.781C530.705 200.805 530.681 200.838 530.651 200.861V200.865ZM543.247 199.967C542.984 199.801 542.711 199.648 542.438 199.492C541.911 199.133 541.354 198.854 540.791 198.618C540.391 198.432 539.954 198.283 539.541 198.117C540.934 198.452 542.361 198.911 543.737 199.389C544.751 200.313 545.954 201.326 547.287 202.337C545.997 201.456 544.621 200.609 543.247 199.967ZM550.947 205.005C550.511 204.676 550.021 204.307 549.521 203.935C550.064 204.3 550.621 204.649 551.187 204.991L550.947 205.005ZM555.384 207.284C555.357 207.231 555.354 207.168 555.324 207.115C555.387 207.141 555.45 207.165 555.514 207.191L555.384 207.284ZM567.1 192.597C566.463 191.654 565.763 190.723 565 189.8C565.48 190.009 565.953 190.245 566.44 190.408C566.66 190.79 566.93 191.132 567.27 191.425C567.317 191.574 567.363 191.724 567.417 191.88C567.3 192.129 567.207 192.355 567.097 192.597H567.1ZM571.07 197.744C571.057 197.512 571.037 197.283 571.073 196.99C571.31 197.143 571.567 197.249 571.817 197.372C571.567 197.495 571.32 197.618 571.07 197.744ZM793.332 149.282C793.685 149.288 794.045 149.282 794.409 149.252C794.642 150.189 794.832 151.136 795.112 152.06C794.519 151.132 793.912 150.215 793.332 149.285V149.282ZM590.622 63.102C593.959 73.2132 601.959 82.959 608.122 91.04C614.322 99.1708 621.225 106.424 629.141 112.734C625.718 113.578 622.208 114.216 618.668 114.791C608.365 96.6987 597.992 78.9085 588.163 60.6033C588.986 61.434 589.806 62.268 590.622 63.102ZM577.113 50.5187C576.92 51.047 576.863 51.6384 577.12 52.2963C585.816 74.6022 599.119 97.5792 615.378 115.323C612.278 115.811 609.172 116.303 606.109 116.918C602.875 106.85 595.086 97.8351 590.379 88.3452C584.169 75.8183 580.743 62.8927 576.153 49.8242C576.473 50.0402 576.793 50.2794 577.113 50.5187ZM533.981 62.5803C534.021 62.4142 534.015 62.2647 534.011 62.1152C534.561 62.1318 535.108 62.1451 535.651 62.1152C534.505 63.9527 533.518 65.8765 532.678 67.8735C533.125 66.1258 533.565 64.3647 533.981 62.5837V62.5803ZM526.585 60.2444C526.215 60.497 525.838 60.7428 525.491 61.012C525.458 60.5235 525.328 60.0185 525.251 59.5234C525.688 59.7859 526.131 60.0218 526.585 60.2444ZM470.767 63.205C470.693 63.318 470.62 63.4277 470.547 63.5406C470.547 63.421 470.547 63.3014 470.533 63.1818C470.613 63.1851 470.687 63.1984 470.763 63.205H470.767ZM421.842 71.8908C421.802 71.9174 421.758 71.9406 421.722 71.9672L421.715 71.9041L421.845 71.8908H421.842ZM370.64 91.4021C370.564 90.8971 370.337 90.4219 369.987 90.0597C370.88 89.98 371.777 89.9202 372.674 89.877C371.984 90.3555 371.314 90.8805 370.64 91.4021ZM374.93 92.1531C375.687 91.4055 376.43 90.6279 377.177 89.8604C377.757 89.877 378.337 89.887 378.92 89.9235C377.54 90.5515 376.21 91.2991 374.93 92.1564V92.1531ZM389.596 166.038C377.807 141.573 376.353 117.945 382.453 91.4387C382.467 91.3822 382.453 91.339 382.46 91.2859C382.69 91.1164 382.903 90.9469 383.14 90.7775C383.283 90.6745 383.387 90.5482 383.466 90.412C383.7 90.4452 383.936 90.4817 384.17 90.5183C377.02 113.858 384.57 141.536 397.579 161.191C397.799 161.523 398.279 161.237 398.106 160.875C386.76 137.459 386.816 116.742 389.536 91.6514C390.173 91.8341 390.813 92.0335 391.46 92.2627C388.833 114.565 393.783 140.104 406.552 158.821C400.856 161.084 395.196 163.487 389.593 166.042L389.596 166.038ZM408.629 158.004C401.173 136.668 396.903 117.579 396.946 94.4259C397.653 94.715 398.359 95.0007 399.073 95.2765C397.326 105.321 400.086 117.21 402.446 126.713C404.909 136.622 408.222 147.524 414.379 155.828C412.459 156.535 410.542 157.26 408.629 158.007V158.004ZM416.052 155.213C413.799 145.135 409.596 135.479 407.399 125.314C405.392 116.027 405.612 106.056 403.662 96.7983C405.262 97.217 406.872 97.4762 408.486 97.4995C407.146 115.236 410.912 139.589 423.442 152.638C420.972 153.462 418.509 154.322 416.055 155.21L416.052 155.213ZM425.762 151.854C423.388 143.51 419.255 135.665 417.135 127.145C414.599 116.951 414.075 106.846 414.145 96.4428C418.492 94.7083 420.732 91.5251 421.745 87.6175L421.825 87.6341C420.169 93.6052 419.539 99.9118 420.865 105.986C420.969 106.454 421.618 106.405 421.745 105.986C423.842 99.0944 425.562 92.2528 429.138 85.9495C430.282 83.9359 431.828 82.0186 433.361 80.0847C426.588 101.49 429.488 128.886 439.874 146.733C440.058 147.045 440.501 146.833 440.431 146.494C437.735 133.243 434.711 120.244 435.408 106.604C435.981 95.3729 439.221 85.3979 442.114 74.9776C442.391 74.7982 442.611 74.5922 442.874 74.4061C433.408 96.4428 437.801 125.604 449.661 145.228C441.628 147.069 433.655 149.285 425.758 151.854H425.762ZM450.594 145.022C445.948 132.528 442.564 119.679 442.644 106.179C442.714 94.4159 445.831 84.1452 448.791 73.2897C450.417 71.6582 451.767 69.8739 452.857 67.9699C452.951 67.8935 453.064 67.8171 453.164 67.7439C440.228 89.6942 444.451 123.307 461.32 141.38C461.59 141.669 461.997 141.304 461.837 140.971C450.411 117.19 449.628 98.8585 455.727 76.3134C454.334 83.4806 454.157 91.04 455.444 97.32C455.531 97.7354 456.197 97.7453 456.277 97.32C457.321 91.7012 458.244 85.9993 460.437 80.7094C462.22 76.3998 464.86 72.9242 467.504 69.3057C465.917 72.8644 464.614 76.6756 463.624 80.0316C462.034 85.4178 460.84 91.9139 462.764 97.3134C462.93 97.7852 463.59 97.8284 463.744 97.3134C465.304 92.0268 465.584 86.6738 467.867 81.5534C469.203 78.553 470.767 76.3931 472.63 74.5125C468.843 80.5599 466.29 87.355 468.983 94.4824C469.2 95.0506 470.1 95.1901 470.257 94.4824C471.767 87.6175 473.53 78.1177 480.113 74.2466C479.656 75.0075 479.246 75.7552 478.9 76.4662C475.57 83.3045 475.503 91.8773 477.106 99.1874C477.13 99.2871 477.28 99.2838 477.303 99.1874C478.866 92.9339 479.153 86.295 482.73 80.7294C484.463 78.0346 486.723 76.8085 489.096 75.7585C482.256 95.2732 481.873 126.139 495.669 139.254C496.003 139.573 496.536 139.17 496.306 138.752C484.803 117.825 490.306 95.1768 494.233 73.2631C494.459 73.1202 494.679 72.9574 494.899 72.7979C496.079 73.3761 497.286 73.9509 498.556 74.5091C499.312 74.8414 500.086 75.1504 500.862 75.4428C488.016 93.0968 491.633 122.244 503.956 139.383C485.963 139.008 468.137 141.071 450.601 145.019L450.594 145.022ZM511.922 139.715C509.752 139.582 507.585 139.489 505.422 139.426C500.909 128.84 497.509 118.33 497.496 106.62C497.486 95.9012 501.002 86.511 503.446 76.3068C504.772 76.6922 506.122 76.9846 507.482 77.1507C497.792 96.2933 501.676 124.766 515.779 139.759C514.495 139.679 513.205 139.692 511.919 139.712L511.922 139.715ZM524.871 141.098C524.878 141.005 524.831 140.912 524.711 140.895C524.078 140.812 523.445 140.765 522.812 140.689C520.822 140.317 518.822 140.028 516.812 139.865C511.662 127.986 507.465 117.147 507.422 103.896C507.389 93.9673 510.302 85.7667 513.302 76.9713C513.459 76.9414 513.615 76.9281 513.772 76.8916C514.612 76.6988 515.375 76.3998 516.135 76.1007C514.065 83.2215 513.515 91.1563 512.989 98.0311C511.742 114.349 515.935 128.793 525.721 141.264C525.438 141.197 525.155 141.157 524.871 141.094V141.098ZM527.441 141.702C514.789 119.054 512.942 87.1291 528.505 65.4712C515.429 89.156 521.388 125.471 538.378 145.175C534.784 143.839 531.138 142.643 527.441 141.702ZM556.084 152.246C552.597 150.837 549.167 149.474 545.914 148.132C543.671 147.205 541.388 146.311 539.091 145.444C532.645 131.408 527.405 118.034 526.901 102.324C526.671 95.1237 527.705 88.4216 529.185 81.7993C526.755 104.441 537.121 131.116 549.094 146.397C549.204 146.54 549.414 146.358 549.334 146.208C534.318 118.33 528.928 88.4548 542.848 59.7859C544.471 58.716 545.877 57.3171 546.877 55.5028C546.877 55.5726 546.861 55.6324 546.861 55.7022C546.861 55.8384 546.881 55.9713 546.881 56.1076C526.178 78.2007 548.704 115.722 561.97 135.309C562.154 135.582 562.644 135.426 562.527 135.07C553.917 108.97 537.841 90.7077 547.287 63.843C549.064 84.8662 556.534 104.886 569.147 121.733C569.38 122.045 569.857 121.786 569.673 121.417C559.234 100.443 554.74 79.1743 555.69 55.7055V55.6856C556.784 55.3699 557.854 54.928 559.057 54.2169C560.177 53.5557 560.347 51.2131 561.094 50.6084C561.814 50.0269 562.523 49.5418 563.23 49.1231C560.22 72.4856 573.406 96.5093 588.233 113.073C588.729 113.628 589.449 112.827 589.023 112.266C573.66 92.0235 571.8 71.5153 568.42 47.4617C569.52 47.3919 570.607 47.4617 571.68 47.7375C571.133 48.1395 570.77 48.7742 570.883 49.7245C572.446 62.7565 577.626 75.6356 583.356 87.3284C588.236 97.2868 594.919 110.91 604.505 117.27C600.385 118.157 596.342 119.287 592.502 120.968C577.556 127.517 564.95 138.376 556.09 152.249L556.084 152.246ZM594.656 178.665C594.632 178.642 594.606 178.622 594.582 178.599C594.639 178.476 594.722 178.359 594.766 178.233C594.802 178.339 594.826 178.452 594.866 178.555L594.656 178.665ZM606.055 161.812C605.972 161.616 605.889 161.393 605.805 161.204C606.109 161.044 606.482 160.965 606.805 160.832C606.542 161.137 606.302 161.483 606.055 161.815V161.812ZM673.496 151.515C672.823 150.96 672.01 150.661 671.15 150.568C671.14 150.468 671.103 150.372 671.086 150.269C672.176 150.395 673.286 150.431 674.443 150.259C674.086 150.624 673.753 151.026 673.496 151.511V151.515ZM681.053 149.272C680.426 148.923 679.736 148.71 679.029 148.63C679.846 148.165 680.626 147.644 681.336 147.026C681.246 147.773 681.133 148.521 681.053 149.268V149.272ZM708.045 125.487C707.765 125.427 707.475 125.434 707.188 125.417C707.745 125.115 708.312 124.826 708.882 124.554C708.598 124.863 708.305 125.165 708.045 125.487ZM710.278 171.229C710.352 171.049 710.455 170.886 710.508 170.7C710.618 170.827 710.715 170.96 710.828 171.086C710.935 171.209 711.062 171.285 711.178 171.391C710.878 171.338 710.582 171.279 710.282 171.229H710.278ZM715.515 172.206C716.538 171.89 717.485 171.288 718.158 170.491C718.541 171.362 718.971 172.225 719.378 173.089C718.095 172.78 716.811 172.475 715.515 172.206ZM723.874 174.266C720.248 164.321 718.598 154.306 718.755 144.082C719.221 155.894 722.984 168.195 730.284 176.263C728.174 175.535 726.034 174.874 723.874 174.266ZM720.818 122.909C721.438 123.075 722.031 123.271 722.588 123.5C721.908 123.909 721.341 124.5 721.085 125.281C720.901 125.843 720.758 126.444 720.595 127.026C720.708 126.448 720.781 125.873 720.905 125.291C721.091 124.407 721.025 123.613 720.815 122.905L720.818 122.909ZM735.781 178.316C731.278 169.321 727.794 161.014 727.224 150.408C726.794 142.413 728.434 134.445 727.494 126.551C729.051 127.82 730.554 129.229 732.264 130.581C732.617 130.86 732.991 131.103 733.354 131.362C726.328 148.248 735.371 169.042 746.497 183.387C743.024 181.483 739.444 179.805 735.781 178.316ZM768.723 193.9C764.386 191.953 759.91 190.288 755.327 188.853C753.627 187.67 751.89 186.56 750.13 185.497C744.997 177.456 741.35 168.315 739.441 158.978C737.714 150.548 738.857 142.234 737.947 133.944C739.287 134.505 740.661 134.914 742.067 135.16C740.761 155.735 754.16 179.16 768.726 193.9H768.723ZM763.433 128.003C763.28 127.73 763.18 127.411 762.996 127.159C762.73 126.796 762.37 126.64 762.006 126.604C771.433 113.588 762.486 94.715 752.93 83.4973C752.757 83.2912 752.483 83.587 752.643 83.7897C761.796 95.529 766.716 110.046 760.303 122.866C760.633 115.775 756.103 107.335 752.667 100.972C752.457 100.583 751.86 100.849 751.97 101.271C752.897 104.806 754.277 108.604 754.797 112.213C756.147 121.556 752.643 126.398 747.764 127.511L747.744 127.431C747.09 125.195 743.864 125.125 743.24 127.431C743.23 127.471 743.227 127.511 743.217 127.551C741.044 127.135 738.811 126.165 736.741 124.647C732.247 121.35 729.271 117.233 723.774 115.635C715.631 113.269 706.428 116.692 702.859 124.676C702.525 125.417 702.802 126.248 703.345 126.673C703.039 126.939 702.732 127.205 702.485 127.561C701.839 128.484 701.262 129.415 700.725 130.348C700.389 130.395 700.062 130.402 699.715 130.528H699.709C699.362 130.189 698.955 129.91 698.525 129.657C708.888 118.024 695.835 100.144 688.376 90.4851C688.182 90.2325 687.752 90.5681 687.936 90.8306C696.329 102.919 701.255 115.27 694.405 128.85C693.369 129.013 692.372 129.441 691.556 130.229C691.279 130.495 691.039 130.77 690.779 131.04C689.736 130.568 688.569 130.392 687.466 130.525C686.769 121.855 680.963 113.977 673.23 109.85C673.036 109.747 672.793 110.023 672.983 110.176C678.616 114.731 682.506 121.978 682.679 129.411C682.773 133.395 681.943 137.904 679.206 140.935C674.876 145.73 670.666 143.879 665.777 141.443C664.927 141.021 664.013 140.589 663.067 140.184C658.407 136.678 652.957 135.422 647.947 139.277C648.71 134.505 650.054 130.541 654.674 129.993C655.55 129.89 655.884 128.571 654.897 128.312C651.06 127.305 648.054 128.498 645.627 131.907C644.124 134.02 643.561 136.462 643.064 138.978C642.821 140.214 642.757 142.686 642.391 143.689C642.697 146.56 641.217 148.145 637.957 148.444C635.794 151.073 633.651 151.362 631.531 149.312C626.508 148.371 623.345 146.806 618.208 148.969C614.998 150.322 612.695 152.405 611.005 155.113C603.389 155.073 595.146 156.648 591.459 163.703C590.036 166.424 589.933 168.521 590.489 170.265C590.069 169.91 589.686 169.561 589.196 169.188C580.543 162.629 569.387 157.672 558.617 153.272C573.016 137.615 590.023 125.79 610.909 121.168C620.805 118.978 631.151 118.217 639.367 113.047C639.561 113.123 639.774 113.166 640.007 113.12C645.494 112.096 648.527 108.81 651.754 104.314C656.004 98.3866 657.79 92.4389 666.38 91.1928C669.943 90.6778 673.553 92.5219 677.219 91.8507C681.209 91.1197 684.643 89.3586 686.186 85.2982C687.512 81.8093 685.872 77.7256 685.906 74.1768C686.036 60.3275 699.319 56.164 706.648 68.3387C706.832 68.6444 707.278 68.4417 707.205 68.0995C706.618 65.3881 704.918 62.7531 702.689 60.58C706.782 58.058 711.832 52.8745 716.161 51.4357C721.431 49.6813 723.598 53.0772 727.251 55.0443C730.161 56.6126 732.501 55.7155 735.537 55.0642C747.177 52.5588 755.587 58.8256 755.053 71.9041C755.05 72.027 755.237 72.0901 755.29 71.9705C759.35 62.5371 755.083 55.0576 748.014 51.1566C754.61 50.1232 755.85 42.4675 761.18 38.7228C769.636 32.7816 772.893 45.1823 775.459 55.1008C774.989 54.5425 774.509 53.9876 773.969 53.466C773.843 53.343 773.646 53.4992 773.729 53.6554C778.622 62.9724 780.112 75.3465 787.839 82.9124C790.195 85.2185 793.009 86.8998 796.272 87.3616C802.135 88.1857 812.571 83.0653 815.278 90.0431C815.228 94.8944 813.481 98.3567 809.211 101.776C806.592 103.873 803.798 105.74 802.245 108.867C801.632 110.103 801.242 111.475 801.078 112.847C797.492 109.073 793.542 105.541 790.765 100.942C790.675 100.796 790.435 100.889 790.489 101.061C792.409 107.448 796.535 111.708 799.992 117.207C803.045 122.068 804.832 127.308 803.242 133.013C801.308 139.938 794.362 143.822 788.245 139.2C781.796 134.323 778.086 125.168 769.746 124.039C775.279 113.781 773.799 99.4034 767.133 90.3521C766.936 90.083 766.566 90.3056 766.696 90.6146C772.346 104.308 769.943 115.14 763.51 127.803C763.473 127.873 763.47 127.939 763.446 128.009L763.433 128.003ZM775.149 161.918C773.506 160.991 770.13 156.672 771.206 154.528C771.743 153.462 773.366 153.319 774.879 153.193C776.986 154.498 779.706 156.363 780.346 158.755C781.219 161.998 777.453 163.217 775.149 161.918Z" fill="#2B3C5E"/>
<path d="M551.227 261.087C544.651 278.711 542.681 298.498 549.754 316.341C549.991 316.943 550.911 316.727 550.734 316.065C545.787 297.634 544.514 279.302 551.304 261.107C551.321 261.06 551.247 261.04 551.231 261.087H551.227Z" fill="#2B3C5E"/>
<path d="M541.844 281.239C539.288 303.273 543.724 325.964 557.647 343.498C558.064 344.023 558.93 343.339 558.564 342.774C546.617 324.386 539.641 303.558 541.971 281.236C541.978 281.153 541.854 281.153 541.844 281.236V281.239Z" fill="#2B3C5E"/>
<path d="M535.511 300.608C538.541 325.871 552.274 350.107 571.667 365.93C572.276 366.429 573.153 365.591 572.547 365.03C553.444 347.393 541.671 326.127 535.811 300.565C535.774 300.398 535.491 300.428 535.511 300.608Z" fill="#2B3C5E"/>
<path d="M613.422 307.848C613.382 307.742 613.218 307.782 613.252 307.898C619.778 331.55 637.591 352.284 659.763 361.79C660.4 362.063 660.837 360.976 660.233 360.65C638.257 348.911 622.591 331.437 613.425 307.848H613.422Z" fill="#2B3C5E"/>
<path d="M697.865 370.542C675.19 362.435 656.977 350.978 638.888 334.922C638.824 334.866 638.744 334.949 638.797 335.015C653.554 352.672 675.593 366.113 697.479 371.971C698.389 372.214 698.735 370.855 697.862 370.546L697.865 370.542Z" fill="#2B3C5E"/>
<path d="M312.586 297.933C316.836 311.666 322.152 325.329 329.908 337.421C330.275 337.992 331.122 337.491 330.805 336.883C324.159 324.083 317.749 311.53 312.999 297.817C312.909 297.551 312.499 297.66 312.582 297.933H312.586Z" fill="#2B3C5E"/>
<path d="M351.408 355.945C342.058 344.555 334.455 333.218 329.402 319.166C329.368 319.072 329.228 319.109 329.255 319.205C333.085 333.141 340.151 346.814 350.761 356.607C351.204 357.015 351.781 356.404 351.408 355.945Z" fill="#2B3C5E"/>
<path d="M278.993 120.606C279.05 120.543 278.964 120.457 278.904 120.513C247.451 151.893 213.779 180.745 176.89 205.241C139.908 229.799 100.573 249.304 59.7246 266.114C59.148 266.35 59.3746 267.307 59.9879 267.091C142.258 238.292 220.039 185.875 278.993 120.606Z" fill="#2B3C5E"/>
<path d="M246.815 162.247C178.187 217.12 100.61 255.501 18.2861 283.486C17.6694 283.695 17.9194 284.662 18.5561 284.486C101.893 261.615 179.854 217.196 246.995 162.43C247.121 162.324 246.941 162.144 246.815 162.247Z" fill="#2B3C5E"/>
<path d="M220.889 189.67C153.741 238.561 79.0439 273.846 0.260045 298.073C-0.193273 298.212 -0.00661266 298.92 0.456704 298.8C79.9172 277.681 154.838 239.286 221.032 189.919C221.176 189.813 221.039 189.567 220.892 189.673L220.889 189.67Z" fill="#2B3C5E"/>
<path d="M201.443 215.88C139.928 256.315 73.3775 284.841 3.88325 307.356C3.43327 307.503 3.61659 308.2 4.07991 308.081C74.2641 289.869 141.132 256.385 201.483 215.947C201.523 215.92 201.483 215.854 201.446 215.88H201.443Z" fill="#2B3C5E"/>
<path d="M59.4413 312.437C59.0746 312.626 59.3946 313.175 59.7613 312.998C102.003 292.41 141.365 267.277 179.134 239.12C179.214 239.06 179.134 238.927 179.057 238.987C141.485 266.998 100.953 291.121 59.4413 312.44V312.437Z" fill="#2B3C5E"/>
<path d="M175.504 250.982C175.537 250.945 175.484 250.889 175.451 250.926C152.948 276.521 127.226 297.112 99.7765 316.8C99.3165 317.132 99.7265 317.886 100.227 317.584C128.676 300.329 153.808 276.302 175.507 250.982H175.504Z" fill="#2B3C5E"/>
<path d="M130.675 313.739C146.768 301.223 160.894 286.24 173.597 270.198C173.637 270.148 173.567 270.071 173.527 270.125C160.468 285.988 145.802 299.917 130.249 313.168C129.942 313.43 130.359 313.989 130.679 313.739H130.675Z" fill="#2B3C5E"/>
<path d="M247.275 220.559C247.311 220.446 247.145 220.402 247.105 220.509C234.638 253.109 224.999 290.975 226.905 326.316C226.962 327.383 228.399 327.35 228.505 326.316C230.409 307.901 231.112 289.636 234.418 271.354C237.525 254.175 241.881 237.129 247.278 220.555L247.275 220.559Z" fill="#2B3C5E"/>
<path d="M215.722 322.661C215.616 323.376 216.569 323.678 216.799 322.967C226.022 294.491 224.075 263.572 237.752 236.269C237.848 236.076 237.565 235.907 237.468 236.099C223.929 262.359 220.026 293.593 215.722 322.664V322.661Z" fill="#2B3C5E"/>
<path d="M204.259 314.863C214.449 295.531 220.169 272.929 225.685 251.826C225.739 251.617 225.425 251.527 225.369 251.736C219.226 273.165 210.089 293.308 203.216 314.414C203.013 315.042 203.953 315.444 204.259 314.866V314.863Z" fill="#2B3C5E"/>
<path d="M214.539 267.307C207.849 283.648 199.433 299.199 192.723 315.491C192.53 315.962 193.267 316.241 193.513 315.829C202.403 300.89 208.593 283.642 214.736 267.363C214.782 267.237 214.589 267.187 214.539 267.307Z" fill="#2B3C5E"/>
<path d="M206.079 269.347C198.003 284.821 188.5 298.883 178.577 313.135C178.32 313.507 178.9 313.965 179.194 313.623C190.35 300.601 199.16 285.1 206.189 269.414C206.223 269.34 206.119 269.274 206.079 269.347Z" fill="#2B3C5E"/>
<path d="M192.427 281.206C181.497 295.673 169.964 309.619 158.411 323.565C158.171 323.854 158.568 324.276 158.824 323.987C170.857 310.417 181.927 296.012 192.6 281.309C192.68 281.203 192.503 281.1 192.427 281.203V281.206Z" fill="#2B3C5E"/>
<path d="M181.187 282.509C167.871 293.819 155.768 307.001 144.718 320.601C144.348 321.056 144.955 321.707 145.365 321.262C157.248 308.297 169.507 295.667 181.297 282.618C181.364 282.542 181.264 282.445 181.19 282.509H181.187Z" fill="#2B3C5E"/>
</svg>
