<svg width="789" height="248" viewBox="0 0 789 248" fill="none" xmlns="http://www.w3.org/2000/svg">
<path d="M734.557 130.787C724.135 133.944 726.298 125.709 705.898 123.98C685.497 122.251 651.972 110.543 651.972 110.543C651.972 110.543 650.189 110.374 617.913 96.2401C585.637 82.1064 607.119 142.286 602.96 139.704C598.801 137.121 591.199 132.288 584.817 127.757C580.302 124.553 576.508 121.816 574.648 120.474L579.631 121.534L539.108 89.0841L498.117 62.8017L464.936 51.5936L417.146 47.7887L372.775 54.3333L354.044 58.4678L313.857 66.2336L256.54 61.9129L229.123 54.2043L200.668 42.9445L156.73 29.6449L131.434 27.1485L107.232 25.79L71.9201 29.6582L65.836 28.8581C65.836 28.8581 60.5253 29.2672 60.45 30.5362C60.3747 31.8053 53.2976 33.0325 52.2633 34.6688C51.2287 36.3082 46.0149 38.1657 45.3767 39.7381C44.7384 41.3105 41.8202 44.8207 41.8202 44.8207L41.4884 49.6006L44.2684 53.7699L45.8089 56.4562L46.5631 62.8912C46.5631 62.8912 49.6126 65.7483 50.4452 65.9865C51.2779 66.2247 55.2325 66.4589 55.2325 66.4589L60.7815 63.7701L66.7049 60.8997L72.4361 58.1196L78.356 53.9349C78.356 53.9349 67.0285 63.6968 66.6873 64.3529C66.346 65.009 66.2854 67.0067 66.1711 68.1658C66.0567 69.3248 66.8166 71.4815 66.8166 71.4815C66.8166 71.4815 69.3871 73.5548 70.1863 73.8958C70.9858 74.2337 73.1747 73.1514 73.6 73.0623C74.0252 72.9732 75.625 72.2229 76.6293 71.9037C77.6336 71.5846 77.9895 72.1972 78.7637 72.7916C79.5376 73.3892 78.2381 72.4807 80.1337 75.7888C82.0293 79.0969 78.3215 78.7247 78.3215 78.7247C78.3215 78.7247 78.0715 82.6075 78.0195 84.553C77.9674 86.4985 79.6507 87.7039 79.6507 87.7039C79.6507 87.7039 82.0361 88.8507 83.597 89.9129C85.1579 90.9751 83.597 89.9129 87.6335 89.79C91.67 89.6672 89.7605 87.9182 89.7605 87.9182C89.7605 87.9182 91.8284 85.2604 92.7676 84.1827C93.7068 83.105 95.903 84.7511 95.903 84.7511C95.903 84.7511 99.2474 87.4219 99.6968 88.5056C100.146 89.5892 103.389 91.8754 103.389 91.8754C103.389 91.8754 103.466 98.1095 103.79 99.0527C104.113 99.996 107.191 102.569 107.191 102.569L113.466 105.079C113.466 105.079 118.98 104.063 120.712 103.382C122.445 102.701 124.92 101.528 126.111 100.734C127.299 99.9402 132.038 98.3294 133.662 97.7094C135.285 97.0894 137.506 92.7612 139.307 92.8079C141.108 92.8545 146.088 94.0875 146.088 94.0875L147.252 101.145C147.252 101.145 148.767 104.662 149.116 105.345C149.236 105.579 158.501 110.295 159.61 111.038C156.382 119.208 150.745 130.878 150.745 130.878C147.788 134.884 130.691 146.756 130.691 146.756L116.529 159.512L36.9972 159.823C36.9972 159.823 173.672 185.827 193.475 187.7C213.279 189.573 273.865 195.633 273.865 195.633C273.865 195.633 332.01 204.839 358.011 203.938C384.012 203.036 425.234 203.167 425.234 203.167L468.285 202.385C468.285 202.385 484.535 189.792 516.371 198.971C543.564 206.812 567.379 194.134 567.379 194.134L622.463 195.288C622.463 195.288 649.471 191.18 674.132 183.203C699.062 185.663 722.771 188.003 722.771 188.003C722.771 188.003 746.822 191.785 757.29 190.737C767.757 189.688 772.229 184.507 772.229 184.507L779.36 167.542C779.36 167.542 772.619 137.861 762.196 141.018L734.557 130.787Z" fill="white"/>
<path d="M461.635 108.214C456.891 93.5481 444.474 79.7691 429.316 73.8436C437.399 73.7326 445.444 74.0754 453.317 76.2563C468.952 80.5851 481.863 90.1915 491.459 102.664C491.631 102.889 492.022 102.656 491.889 102.406C476.619 73.8266 447.718 64.491 417.622 70.1309C417.262 69.9502 416.905 69.7698 416.54 69.5982C439.179 64.4591 461.968 64.9918 483.903 78.5144C484.151 78.6682 484.407 78.3308 484.172 78.156C448.402 51.9323 402.284 64.6293 364.493 78.9715C325.388 93.8119 284.366 111.116 242.069 113.35C242.749 111.385 243.727 109.541 245.499 107.845C249.304 104.202 254.776 102.697 260.06 103.424C260.229 103.447 260.298 103.182 260.128 103.14C254.851 101.802 249.375 102.454 245.022 105.713C242.583 107.536 240.299 110.393 239.176 113.478C236.958 113.559 234.737 113.611 232.512 113.603C234.505 105.432 242.701 102.181 251.159 100.166C251.476 100.09 251.401 99.6445 251.069 99.6811C245.304 100.321 239.56 101.019 234.868 104.588C232.024 106.749 229.645 110.038 229.322 113.543C226.402 113.476 223.477 113.332 220.547 113.103C220.525 112.988 220.526 112.877 220.505 112.762C220.31 111.739 219.605 111.12 218.776 110.887C222.684 109.768 226.537 108.574 230.205 107.191C230.393 107.121 230.26 106.868 230.077 106.923C220.392 109.81 210.779 108.628 200.97 110.105C197.783 110.585 192.961 112.637 189.347 113.009C189.225 112.776 189.12 112.538 188.981 112.313C188.094 110.875 186.117 110.882 185.355 112.41C185.326 112.467 185.313 112.529 185.285 112.586C181.993 111.561 180.459 109.075 177.854 107.085C177.888 105.748 178.166 104.393 178.85 102.997C180.801 99.0155 185.173 96.7905 189.648 96.5632C190.213 96.5338 190.13 95.7053 189.608 95.638C182.889 94.7825 176.794 99.4088 174.955 105.01C173.932 104.218 172.887 103.547 171.442 103.231C172.008 100.422 173.308 97.8091 175.539 95.4296C178.943 91.7933 186.128 86.1168 191.71 88.1284C191.97 88.2235 192.211 87.8435 191.949 87.7009C186.273 84.6167 178.586 89.4771 174.453 93.177C171.43 95.8822 169.146 99.4365 168.414 103.223C165.071 104.044 162.156 107.23 159.017 108.593C157.98 106.907 155.148 106.848 154.025 108.693C152.97 108.229 151.862 107.394 150.69 106.111C150.896 106.053 151.104 106.007 151.313 105.927C152.215 105.577 152.239 104.068 151.233 103.802C146.738 102.604 143.647 99.5734 145.711 94.8553C147.41 90.9688 152.171 88.6055 156.2 87.5581C156.642 87.444 156.541 86.8377 156.076 86.8802C150.097 87.426 144.024 89.5935 142.267 95.5092C139.028 92.511 134.668 91.8441 130.317 93.5854C126.627 95.0605 124.029 98.2305 120.399 99.8283C113.916 102.684 105.633 100.529 103.869 94.0451C105.987 92.1403 106.848 89.411 108.724 87.293C110.711 85.0503 113.312 83.4172 115.811 81.755C116.448 81.332 115.873 80.4928 115.23 80.5429C111.641 80.8323 107.083 83.1368 104.163 86.3034C101.267 86.5256 98.5763 85.8404 97.1974 82.7544C95.6949 79.388 97.4255 75.5457 99.5964 72.9047C104.173 67.343 111.701 65.1296 118.656 63.8536C119.024 63.7859 119.135 63.4592 119.058 63.1803C119.426 63.9801 120.079 64.6535 121.128 65.1261C121.833 65.4418 122.525 64.7623 122.429 64.1029C120.162 48.5271 137.465 47.1081 148.723 43.5435C148.845 43.5051 148.801 43.3177 148.681 43.309C140.229 42.762 130.257 45.0874 124.163 50.9632C121.877 53.167 117.542 59.2826 118.961 62.9593C118.878 62.8691 118.763 62.801 118.611 62.7796C108.497 61.548 93.9478 67.3719 92.0739 78.1315C91.9751 78.6991 91.9444 79.2766 91.9528 79.858C90.7217 80.4716 90.0503 81.2446 89.0408 82.5457C87.4404 84.6026 86.7389 87.3129 83.9285 86.7705C77.6329 85.5624 82.4424 77.1747 82.6058 73.6194C82.8935 67.3063 74.4623 68.6133 69.643 70.403C67.4885 69.4458 67.1855 65.8192 68.0427 63.4303C68.9544 60.889 70.8249 58.5276 72.8481 56.7175C76.5162 53.4324 81.1391 51.5665 86.0667 50.8445C86.3236 50.8067 86.3079 50.4329 86.0474 50.4072C84.3503 50.246 82.6556 50.3595 80.9877 50.6019C81.1713 31.3495 105.612 34.14 120.172 32.5639C120.508 32.5277 120.497 31.9713 120.147 31.981C106.101 32.3836 75.9277 29.6426 78.4688 51.1042C72.2894 52.7502 66.8772 56.9833 64.4073 62.8192C62.9284 66.3109 62.8263 70.743 66.2791 73.2386C68.8482 75.0917 72.6393 75.1251 74.286 72.2652C74.4408 71.9965 74.4985 71.7119 74.4824 71.4422C74.4954 71.4434 74.5149 71.4454 74.528 71.4467C75.9934 71.79 78.1496 72.5297 78.1923 74.4963C78.234 76.3398 76.5306 78.8408 76.3624 80.8781C76.0667 84.4077 76.9815 88.1988 80.0642 90.478C85.473 94.476 91.2003 89.4158 92.8478 84.0162C94.3664 87.7186 97.6289 90.7759 101.176 91.2112C98.7423 97.6185 103.34 104.474 110.306 106.079C122.999 109.004 129.968 94.592 141.816 97.7773C141.747 100.935 143.687 104.439 146.556 105.785L146.555 105.795C147.425 109.37 149.237 112.464 152.583 114.047C138.557 166.149 64.248 165.785 23.3805 143.04C22.9597 142.806 22.5088 143.376 22.9339 143.633C49.2872 159.759 79.5741 165.71 110.016 158.098C132.765 152.412 154.389 137.824 158.779 114.86C158.972 114.804 159.172 114.748 159.36 114.678C157.141 132.6 144.718 145.931 129.224 155.839C113.343 165.995 95.434 165.092 76.9612 165.8C76.8457 165.804 76.8533 165.994 76.9685 165.993C98.3371 166.294 115.269 168.504 133.657 157.033C143.526 150.877 152.171 143.442 158.052 134.387C156.728 137.68 155.009 140.939 152.61 144.189C144.506 155.173 133.377 161.328 121.702 168.224C121.656 168.251 121.671 168.335 121.732 168.319C144.459 162.251 173.696 136.256 169.388 111.115C169.881 111.981 171.208 111.727 171.442 110.888C173.351 111.799 174.574 113.636 176.931 115.008C177.197 115.312 177.493 115.609 177.803 115.898C175.634 123.524 175.136 131.328 171.286 138.662C165.848 149.016 156.76 157.146 146.309 162.794C146.139 162.884 146.253 163.129 146.437 163.062C163.271 156.87 184.266 137.132 183.005 117.759C183.197 117.813 183.393 117.864 183.586 117.905C182.418 123.979 182.955 130.835 180.89 136.692C177.635 145.92 170.701 154.852 162.46 160.488C162.326 160.582 162.489 160.762 162.623 160.677C172.614 154.451 179.667 147.588 185.199 137.309C188.074 131.968 191.466 124.251 190.724 117.644C191.023 117.582 191.286 117.541 191.603 117.469C191.925 117.396 192.265 117.319 192.588 117.247C190.835 124.384 191.723 131.943 189.156 139.16C186.079 147.817 180.262 154.42 173.946 161.019C173.792 161.177 174.037 161.46 174.229 161.35C187.35 153.798 202.961 131.679 197.336 116.182C198.432 115.937 199.504 115.699 200.607 115.448C200.29 123.027 200.771 129.876 198.25 137.266C195.483 145.385 190.536 152.33 184.1 158.143C183.934 158.294 184.14 158.539 184.327 158.409C197.598 149.175 208.914 131.289 205.126 114.9C205.085 114.723 204.993 114.584 204.916 114.435C205.777 114.233 206.639 114.031 207.501 113.822C210.046 114.496 212.584 115.091 215.126 115.629C213.839 127.033 212.928 137.496 205.355 147.299C198.246 156.504 188.487 162.567 177.364 166.499C177.254 166.538 177.31 166.705 177.424 166.685C191.581 164.028 205.417 154.732 213.608 142.473C208.347 152.829 200.044 161.436 188.253 168.769C188.036 168.905 188.267 169.26 188.496 169.14C207.88 159.162 228.127 140.476 224.683 117.367C225.017 117.416 225.352 117.486 225.686 117.532C225.684 117.551 225.676 117.566 225.674 117.585C225.665 135.368 221.846 153.713 205.281 164.237C205.145 164.325 205.307 164.511 205.444 164.427C221.469 154.433 234.881 137.71 231.106 118.155C232.983 118.356 234.857 118.525 236.731 118.657C235.454 125.074 236.052 131.642 233.73 138.104C230.644 146.694 225.055 154.317 217.793 160.102C217.664 160.203 217.802 160.441 217.955 160.352C230.432 153.074 246.198 134.549 241.689 118.966C243.598 119.044 245.507 119.056 247.413 119.067C247.595 132.686 244.721 145.281 233.681 155.095C233.537 155.223 233.72 155.44 233.876 155.323C245.182 146.835 253.723 133.228 251.879 119.063C254.972 119.002 258.054 118.852 261.137 118.633C262.886 129.87 261.006 138.383 253.583 147.699C253.358 147.979 253.754 148.274 254.027 148.102C263.776 141.937 269.883 129.267 268.574 117.975C272.117 117.587 275.652 117.084 279.181 116.508C277.561 126.16 276.533 135.113 270.18 143.781C263.021 153.549 252.72 160.344 241.434 165.092C220.23 174.017 186.29 182.227 163.552 175.948C163.363 175.894 163.251 176.164 163.443 176.221C189.587 184.108 226.385 175.886 250.119 164.144C266.943 155.819 289.34 135.61 286.341 115.223C287.283 115.039 288.226 114.848 289.166 114.65C285.899 143.458 261.428 166.563 233.288 174.709C233.074 174.77 233.121 175.099 233.35 175.046C263.495 168.336 293.119 145.562 296.346 114.226C296.389 113.792 296.31 113.421 296.221 113.059C296.558 112.979 296.898 112.899 297.235 112.815C294.77 121.595 294.425 130.891 289.948 139.472C283.136 152.527 271.902 163.445 258.33 170.003C258.185 170.074 258.285 170.292 258.436 170.228C271.922 164.51 283.351 156.445 291.771 144.662C297.982 135.968 305.629 122.342 304.071 111.048L304.405 110.958C305.632 128.678 295.336 144.213 283.289 157.139C283.172 157.263 283.381 157.448 283.513 157.341C298.921 144.535 311.94 129.398 310.617 109.186C310.807 109.129 310.997 109.069 311.186 109.012C310.645 114.467 310.68 120.011 309.005 125.452C306.406 133.897 301.807 141.617 295.891 148.293C295.606 148.615 296.118 149.057 296.446 148.796C307.473 140.041 319.917 122.26 317.308 107.12C317.783 106.965 318.26 106.801 318.736 106.643C322.033 119.383 315.515 132.82 308.442 143.38C308.338 143.536 308.574 143.708 308.692 143.552C317.88 131.612 327.821 120.229 324.976 104.549C327.387 103.708 329.79 102.844 332.19 101.951C332.332 104.707 333.166 107.417 333.187 110.341C333.226 116.039 331.593 121.696 328.358 126.456C328.161 126.749 328.586 127.04 328.813 126.775C332.518 122.484 335.606 118.113 337.454 112.778C338.835 108.781 340.607 103.45 338.846 99.374C342.834 97.7799 346.868 96.0862 350.948 94.3246C350.552 120.188 334.163 143.962 307.159 150.85C306.91 150.914 306.966 151.273 307.23 151.236C329.623 148.316 346.074 130.911 353.573 110.936C352.583 115.299 351.154 119.648 348.787 124.084C342.571 135.73 333.173 143.795 322.416 151.513C322.246 151.635 322.424 151.867 322.604 151.803C345.269 143.733 368.307 113.595 362.627 89.2271C363.235 88.959 363.843 88.6941 364.455 88.4263C367.203 101.226 364.994 113.249 358.32 124.737C353.607 132.847 342.418 150.436 332.437 152.051C332.217 152.086 332.219 152.433 332.455 152.441C343.36 152.823 355.342 136.792 360.943 129.041C367.984 119.296 372.231 108.578 372.496 97.2304C374.754 116.064 362.889 137.145 348.523 147.745C348.285 147.92 348.576 148.246 348.815 148.086C367.974 135.458 387.788 106.334 377.444 82.8461C381.683 81.0718 385.946 79.3597 390.232 77.7414C393.384 83.1099 397.099 88.2469 399.445 93.9617C404.909 107.266 400.344 119.94 391.217 130.296C378.768 144.423 363.725 158.123 344.289 162.061C343.97 162.127 344.05 162.586 344.379 162.546C366.52 159.69 386.993 144.31 399.919 127.24C410.082 113.821 409.648 97.4926 402.407 83.4388C413.319 97.6372 417.618 114.079 406.201 131.125C394.845 148.076 374.872 157.517 356.323 165.558C356.083 165.661 356.253 166.009 356.495 165.916C379.667 157.037 405.973 147.19 415.452 122.807C420.727 109.237 418.827 92.1737 410.007 80.0305C426.027 94.0453 431.241 115.843 418.3 134.43C404.707 153.952 378.503 172.164 353.451 171.742C353.159 171.739 353.109 172.172 353.407 172.183C381.752 173.191 415.86 153.45 427.967 128.56C435.639 112.791 432.552 94.2979 421.838 81.0877C442.888 96.3465 449.625 126.391 432.078 147.34C414.318 168.543 385.841 178.8 358.537 182.709C358.233 182.752 358.237 183.248 358.56 183.245C390.754 182.964 429.043 168.302 444.631 139.581C451.371 127.159 450.954 113.066 445.774 100.484C450.622 107.562 454.31 115.202 455.072 124.044C456.671 142.618 444.361 155.509 429.048 164.447C401.363 180.607 367.016 192.273 334.423 186.034C334.059 185.963 333.916 186.542 334.274 186.647C369.476 196.973 417.946 181.631 444.628 158.343C445.757 157.357 446.769 156.299 447.781 155.237C441.015 163.83 431.656 170.907 421.506 176.37C402.654 186.517 381.55 192.13 360.416 196.083C338.22 200.237 312.852 205.476 292.269 193.288C292.045 193.156 291.812 193.455 292.03 193.606C313.656 208.524 342.126 202.506 366.336 198.071C393.784 193.04 423.543 184.78 444.747 166.495C461.556 151.997 468.405 129.206 461.615 108.215L461.635 108.214ZM215.53 112.627C214.805 112.546 214.078 112.452 213.35 112.361C214.258 112.126 215.155 111.871 216.057 111.625C215.81 111.894 215.629 112.227 215.53 112.627Z" fill="#13264C"/>
<path d="M89.0717 21.194C89.2376 21.1788 89.1882 20.9467 89.0265 20.9529C73.2596 21.4287 58.6771 25.8294 46.5099 35.6743C42.7578 38.7113 38.5592 42.4079 38.4257 47.4585C38.3276 51.1843 40.0122 54.1048 43.4675 54.8749C42.6556 58.1706 42.848 61.619 44.4167 63.9476C49.2801 71.1729 61.6896 63.3712 66.1681 59.4372C66.4019 59.2331 66.2214 58.8967 65.9201 58.9174C63.3963 59.1037 60.968 59.8548 58.5787 60.6096C55.8331 61.4776 50.078 64.7209 47.8063 61.4521C46.4332 59.4741 47.8046 55.3061 48.5223 53.4303C49.4086 51.1137 51.2723 49.2532 51.9149 46.9062C52.0793 46.3072 51.6267 45.4296 50.839 45.6484C48.3273 46.3439 46.2572 48.4964 44.8727 51.1645C34.9462 36.5712 79.4154 22.0551 89.075 21.1943L89.0717 21.194Z" fill="#13264C"/>
<path d="M29.9733 22.2932C30.3951 21.5177 29.9549 20.4805 28.8792 20.286C24.0532 19.4122 17.96 22.2498 17.512 27.3892C17.1144 31.9846 22.237 35.0173 26.4651 35.22C30.4705 35.4134 34.7921 33.136 35.2127 29.0067C35.5349 25.8425 33.2687 22.751 29.9733 22.2932ZM32.6224 29.0003C31.5185 31.3238 28.5279 31.9089 26.132 31.499C23.749 31.0903 20.4028 29.2141 22.0672 26.542C23.5129 24.2207 27.0411 24.0861 29.344 22.9063C29.5589 22.795 29.664 22.6287 29.7881 22.4706C32.6204 23.1571 33.7807 26.5591 32.6192 29L32.6224 29.0003Z" fill="#13264C"/>
<path d="M21.0148 68.4908C22.0728 68.1314 23.1335 67.7786 24.1072 67.1743C25.1581 66.5208 24.6589 64.9824 23.6598 64.5778C18.6899 62.5635 12.769 67.9862 10.9559 71.9655C8.58481 77.1676 12.0201 82.239 18.021 82.1025C22.8488 81.9921 28.2661 77.7406 26.4913 72.6689C25.6935 70.3912 23.3664 68.6503 21.0151 68.4877L21.0148 68.4908ZM15.2767 77.7586C12.5211 75.5621 15.2967 71.8923 17.4242 70.225C17.4994 70.2956 17.6005 70.3371 17.7346 70.2777C20.6099 69.0282 24.3699 71.5762 23.7334 74.6273C23.0918 77.6969 17.9502 79.887 15.277 77.7554L15.2767 77.7586Z" fill="#13264C"/>
<path d="M59.6978 93.3488C60.4986 92.5634 60.0061 91.0572 58.7026 91.2724C54.2866 92.0071 49.8497 95.2196 47.6797 98.9838C46.0729 101.772 44.8959 107.035 48.0828 109.359C51.1194 111.574 54.9369 108.307 56.6501 105.974C58.8335 103.006 59.637 99.1953 58.2957 95.7281C58.199 95.4756 57.9079 95.3933 57.6603 95.4035C57.4124 95.4169 57.1631 95.4113 56.9155 95.4215C57.8966 94.8085 58.8603 94.1716 59.7013 93.346L59.6978 93.3488ZM57.1346 98.5319C56.9983 99.6132 56.7032 100.704 56.2814 101.713C55.6881 103.128 51.6545 109.15 49.6951 105.915C48.1259 103.325 51.5854 99.2557 53.3145 97.8267C54.1591 97.1308 55.08 96.5623 56.0038 95.9972C57.1131 96.3844 57.3263 96.9891 57.1346 98.5319Z" fill="#13264C"/>
<path d="M773.749 170.035C717.629 178.47 659.154 168.888 610.033 140.454C600.733 135.072 591.934 129.017 583.369 122.65C596.179 124.318 608.872 126.268 621.223 130.588C634.359 135.182 646.319 140.76 660.344 142.179C660.477 142.192 660.492 142.007 660.363 141.985C642.955 138.961 628.06 129.534 611.313 124.518C600.129 121.168 588.551 119.117 576.928 117.781C573.286 114.973 569.667 112.133 566.077 109.261C590.977 110.387 613.215 120.008 636.529 128.647C660.858 137.664 684.924 141.917 710.797 144.224C711.191 144.259 711.248 143.681 710.855 143.636C679.875 140.144 653.028 131.711 624.564 119.847C605.935 112.084 587.28 105.271 567.196 104.484C571.696 104.061 576.197 103.53 580.736 103.981C590.746 104.972 601.283 108.81 611.075 111.238C611.261 111.284 611.371 111.033 611.184 110.964C595.158 104.909 579.993 98.2163 563.004 99.7483C568.342 98.6976 573.688 98.042 579.322 98.6517C587.26 99.5108 596.094 102.282 603.9 104.087C604.208 104.158 604.4 103.748 604.083 103.629C596.075 100.643 588.117 96.8537 579.671 95.1463C570.742 93.3438 561.957 94.6032 553.234 96.6639C552.524 96.8305 552.045 97.2186 551.707 97.6806C550.479 96.6918 549.248 95.709 548.017 94.723C553.705 94.0949 559.094 91.9608 565.034 92.3104C572.66 92.7601 580.044 94.8991 587.724 94.9724C587.977 94.9753 588.075 94.6505 587.829 94.5473C581.338 91.8151 574.072 89.8833 567.144 88.4834C559.723 86.9844 551.152 89.8741 544.13 87.2975C542.264 86.6118 540.782 87.2038 539.867 88.2871C538.862 87.5033 537.846 86.7342 536.838 85.9564C573.129 82.4801 601.894 95.5915 634.581 111.201C664.914 125.684 696.215 134.654 729.902 137.603C730.098 137.623 730.126 137.332 729.931 137.31C686.04 132.543 651.836 114.503 613.709 94.5427C589.904 82.0818 558.462 70.4099 532.639 82.7625C520.574 73.7159 508.052 65.2932 494.395 58.421C453.582 37.8833 404.046 36.5472 361.646 52.5862C337.232 61.8188 315.319 76.1631 290.577 84.6943C261.872 94.5919 231.125 96.9021 200.912 92.772C199.861 92.6272 199.726 94.163 200.758 94.3342C225.618 98.4376 250.667 98.3226 275.191 92.6693C299.459 87.0758 320.847 75.6517 343.119 65.3339C398.203 39.8165 457.395 42.2948 509.07 75.4421C529.212 88.3651 547.408 103.295 566.166 117.384C565.235 118.353 565.529 120.309 567.329 120.556C568.594 120.732 569.857 120.894 571.12 121.06C589.212 134.402 608.021 146.748 629.781 155.55C675.345 173.982 725.527 179.208 773.927 170.904C774.509 170.804 774.353 169.946 773.766 170.034L773.749 170.035Z" fill="#13264C"/>
<path d="M325.574 65.6404C285.562 82.297 243.646 85.9374 200.544 80.2766C199.579 80.1499 199.488 81.507 200.404 81.692C242.976 90.3008 286.855 83.5634 325.767 66.0445C326.036 65.9227 325.845 65.5284 325.574 65.6436L325.574 65.6404Z" fill="#13264C"/>
<path d="M176.871 76.934C178.832 77.2537 181.361 77.1846 183.216 76.4718C184.338 76.0397 184.237 74.6921 183.458 74.0252C181.897 72.688 179.419 71.9041 177.403 71.5442C173.843 70.9057 173.286 76.3499 176.871 76.934Z" fill="#13264C"/>
<path d="M157.254 63.9146C154.929 64.1521 151.068 63.5597 149.661 65.6924C149.162 66.4477 149.176 67.6795 150.088 68.1954C151.579 69.043 152.471 68.7651 153.989 68.2113C155.384 67.7053 156.738 67.1133 158.139 66.6142C159.778 66.0283 158.849 63.7502 157.257 63.9149L157.254 63.9146Z" fill="#13264C"/>
<path d="M118.506 43.647C117.228 44.1361 115.95 44.4265 114.593 44.6144C113.306 44.7934 111.997 44.7999 110.809 45.342C109.466 45.9572 109.25 48.3179 110.935 48.7334C114.141 49.5262 117.424 47.5533 119.915 45.7958C121.17 44.91 119.859 43.1275 118.51 43.6442L118.506 43.647Z" fill="#13264C"/>
<path d="M208.08 41.5958C163.323 23.1455 119.09 19.1716 71.2917 27.677C70.9337 27.7394 71.0318 28.2444 71.3903 28.2104C100.076 25.5359 127.717 24.5787 156.189 30.1649C183.641 35.5495 206.625 49.4375 232.639 58.504C274.753 73.1851 318.685 70.9741 358.915 53.3043C359.252 53.1577 359.013 52.7082 358.677 52.8139C307.257 68.7294 256.988 61.7588 208.08 41.5958Z" fill="#13264C"/>
<path d="M530.466 111.34C529.641 110.678 528.757 111.935 529.513 112.609C562.508 141.954 603.582 161.877 646.422 173.964C646.515 173.989 646.571 173.852 646.475 173.827C602.873 161.236 565.256 139.297 530.466 111.34Z" fill="#13264C"/>
<path d="M503.532 86.181C502.615 85.6078 501.706 86.8242 502.548 87.4878C510.352 93.6341 519.011 98.6753 527.339 104.116C527.503 104.224 527.673 103.994 527.517 103.878C519.602 97.8881 511.986 91.4732 503.532 86.181Z" fill="#13264C"/>
<path d="M482.187 116.29C493.113 143.848 474.483 187.523 446.686 199.088C446.504 199.164 446.633 199.426 446.814 199.356C463.366 193.029 474.018 180.839 480.527 165.098C486.444 150.787 493.71 129.533 484.414 115.314C483.588 114.049 481.611 114.829 482.187 116.29Z" fill="#13264C"/>
<path d="M464.612 83.1824C463.596 82.6152 462.126 83.7764 463.09 84.736C481.415 103.026 495.149 122.081 494.427 148.549C494.417 148.955 495.061 149.028 495.088 148.614C496.803 124.576 487.65 96.0788 464.611 83.1855L464.612 83.1824Z" fill="#13264C"/>
<path d="M186.031 18.1679C181.784 17.9192 181.189 23.8896 185.408 24.4764L185.869 24.5407C190.108 25.1326 190.775 18.4436 186.495 18.1948L186.031 18.1679Z" fill="#13264C"/>
<path d="M64.7522 8.81475C60.7039 10.589 61.7182 16.7025 66.2342 17.1198C66.4243 17.1259 66.612 17.157 66.7984 17.2007C68.4785 17.5337 69.8164 16.2712 70.5128 15.0117L70.3471 15.3582C72.8728 11.8215 68.9311 6.98396 64.7519 8.81787L64.7522 8.81475Z" fill="#13264C"/>
<path d="M117.481 127.197C120.244 128.422 123.673 125.726 122.96 122.888C122.812 122.293 122.627 121.701 122.363 121.142C121.195 118.647 117.73 117.917 115.576 119.614C113.423 121.307 113.488 124.711 115.811 126.294C116.332 126.651 116.902 126.938 117.481 127.197Z" fill="#13264C"/>
<path d="M138.04 61.9018C136.577 60.5742 134.544 61.5126 133.131 62.4711C131.489 63.5868 130.306 65.2747 129.825 67.1486C129.65 67.8317 129.847 68.6589 130.648 68.9114C133.231 69.7247 136.863 69.673 138.315 67.0463C139.02 65.7687 138.811 64.2588 137.966 63.1595C138 63.1156 138.051 63.0923 138.082 63.0417C138.282 62.7238 138.369 62.1993 138.04 61.9018ZM136.094 66.1961C135.272 66.828 134.197 66.8923 133.164 66.7367C133.6 66.0162 134.134 65.3685 134.893 64.8724C135.547 64.4478 136.387 64.2341 137.09 63.8651C137.153 64.7263 136.795 65.6564 136.094 66.1961Z" fill="#13264C"/>
</svg>
