<svg width="101" height="40" viewBox="0 0 101 40" fill="none" xmlns="http://www.w3.org/2000/svg">
<g clip-path="url(#clip0_352_198)">
<path d="M44.5737 27.5435C44.6465 27.9296 44.7532 28.3115 44.8823 28.6673C44.9478 28.8436 45.0154 29.0202 45.0885 29.1859C45.1616 29.3518 45.2391 29.5087 45.32 29.6541C45.4006 29.8 45.4865 29.9319 45.572 30.054C45.6573 30.177 45.7452 30.2856 45.8348 30.3777C46.1139 29.5926 46.3328 28.7895 46.4706 27.9808C46.5402 27.575 46.591 27.165 46.6212 26.7507C46.636 26.5438 46.6464 26.3343 46.6505 26.1265C46.6539 25.9196 46.6525 25.7119 46.6449 25.5029C46.6267 24.982 46.5576 24.4621 46.4697 23.9441C46.6058 24.4765 46.7041 25.0144 46.7668 25.5488C46.7824 25.6827 46.7958 25.816 46.8068 25.9499C46.8172 26.0856 46.8256 26.221 46.8314 26.3563C46.8433 26.6271 46.8465 26.8969 46.841 27.1662C46.8213 28.238 46.6481 29.323 46.3537 30.373C46.9399 29.9154 47.4339 29.305 47.793 28.6026C48.1523 27.9004 48.376 27.1053 48.4285 26.2848C48.4407 26.0915 48.4398 25.8855 48.4247 25.6736C48.409 25.4635 48.3797 25.2454 48.3374 25.0224C48.295 24.7993 48.2397 24.5715 48.1715 24.342C48.1376 24.2272 48.1001 24.1122 48.0598 23.9968C48.0192 23.8832 47.9754 23.7711 47.9284 23.6587C47.835 23.4341 47.7294 23.2117 47.6134 22.9945C47.4971 22.7782 47.3707 22.5628 47.2329 22.3677C47.0957 22.1702 46.9486 21.9816 46.7934 21.8053C46.716 21.7173 46.6362 21.6322 46.5547 21.551C46.4732 21.4689 46.39 21.3921 46.3044 21.3218C45.6898 21.8977 45.2408 22.7105 44.9397 23.6054C44.6398 24.4974 44.4823 25.485 44.4646 26.4073C44.4611 26.5912 44.4698 26.7792 44.4887 26.969C44.5078 27.1583 44.5368 27.3495 44.5728 27.5438L44.5737 27.5435Z" fill="white"/>
<path d="M41.8121 34.1628C41.7022 34.2199 41.5923 34.2758 41.4829 34.3306C41.3721 34.3865 41.261 34.4415 41.1502 34.4951C40.707 34.7099 40.2691 34.9032 39.8322 35.0786C40.2458 34.8723 40.6618 34.6643 41.0812 34.4194C41.2488 34.3214 41.4162 34.2208 41.583 34.1175C41.7489 34.0148 41.9128 33.9115 42.0772 33.8047C42.4056 33.5913 42.7325 33.3671 43.057 33.1334C43.7088 32.6635 44.3437 32.1638 44.9696 31.6273C44.8583 31.5755 44.7327 31.5311 44.5963 31.4955C44.4594 31.4604 44.3083 31.4378 44.1511 31.4219C43.9936 31.4063 43.8283 31.3995 43.6586 31.4022C43.4886 31.4045 43.3155 31.4148 43.1362 31.4398C42.7797 31.4875 42.4175 31.572 42.0726 31.6932C41.9009 31.753 41.7309 31.8253 41.5673 31.9066C41.4043 31.9875 41.2483 32.0775 41.1018 32.1761C40.3656 32.6702 39.6756 33.3347 39.1062 34.0828C38.5386 34.8282 38.0995 35.6463 37.8613 36.4338C37.9376 36.4523 38.0139 36.4688 38.0916 36.4832C38.1697 36.4971 38.25 36.5077 38.3327 36.515C38.4977 36.53 38.6709 36.5324 38.8501 36.5238C39.0314 36.5138 39.2095 36.4994 39.3951 36.4726C39.5799 36.4464 39.7687 36.4105 39.959 36.3658C40.0538 36.3437 40.1498 36.319 40.2447 36.2931C40.3384 36.2681 40.4321 36.2413 40.5255 36.2125C40.7123 36.1548 40.8982 36.0898 41.0803 36.018C41.2625 35.9462 41.4406 35.8679 41.612 35.7837C41.782 35.7007 41.9432 35.6136 42.0961 35.52C42.742 35.1248 43.3717 34.6204 43.9046 34.0425C44.4371 33.4642 44.8719 32.8115 45.1208 32.1126C44.2416 32.75 43.3633 33.305 42.4743 33.8053C42.253 33.9292 42.0323 34.0483 41.8124 34.1625L41.8121 34.1628Z" fill="white"/>
<path d="M39.6382 25.8374C39.7951 26.1594 39.9715 26.4548 40.1562 26.7056C40.2485 26.8312 40.3433 26.9448 40.4385 27.0463C40.5327 27.1499 40.6279 27.24 40.7227 27.3144C40.8039 26.9292 40.8715 26.5425 40.9237 26.1547C40.9759 25.7671 41.011 25.3831 41.0307 24.9958C41.0693 24.223 41.0418 23.4429 40.9344 22.6662C40.8669 22.1848 40.7552 21.7145 40.629 21.2446C40.8002 21.7216 40.9405 22.2039 41.0499 22.693C41.1581 23.188 41.2355 23.6868 41.2825 24.1886C41.3785 25.1877 41.3466 26.2185 41.2042 27.2411C42.1779 26.2297 42.7165 24.6856 42.6356 23.15C42.6263 22.9697 42.604 22.7778 42.568 22.5856C42.5323 22.3932 42.4836 22.1954 42.4233 21.995C42.3023 21.5942 42.1332 21.1834 41.9238 20.7855C41.5041 20.0077 40.9205 19.2752 40.2598 18.8262C39.7505 19.4318 39.4073 20.2393 39.2075 21.1095C39.0079 21.9803 38.9511 22.9111 39.023 23.773C39.0796 24.4664 39.3218 25.2024 39.6382 25.8371V25.8374Z" fill="white"/>
<path d="M40.2765 29.0331C39.5366 29.7429 38.7761 30.3739 37.99 30.9448C37.5981 31.2282 37.2031 31.4924 36.8063 31.7361C36.4057 31.9842 36.0011 32.2134 35.5962 32.4203C35.9744 32.1864 36.355 31.9462 36.7292 31.6717C37.3252 31.2361 37.8995 30.7614 38.4579 30.2453C38.7366 29.9881 39.0119 29.7191 39.2802 29.4448C39.5482 29.1712 39.8118 28.8881 40.0711 28.5967C39.96 28.562 39.8362 28.5367 39.7033 28.5202C39.5693 28.5058 39.4249 28.502 39.2747 28.5064C38.9739 28.5155 38.6476 28.5611 38.3186 28.6414C37.6559 28.8098 36.9824 29.1232 36.4701 29.5487C35.8224 30.089 35.2267 30.7862 34.7638 31.5401C34.3003 32.2941 33.9667 33.106 33.8301 33.8758C34.4473 33.9738 35.1733 33.8714 35.9022 33.6286C36.2601 33.5133 36.6172 33.3638 36.9531 33.1902C37.121 33.1033 37.2837 33.0106 37.4383 32.9126C37.5932 32.8146 37.7365 32.7152 37.8714 32.6095C39.0072 31.7173 39.994 30.4101 40.2768 29.0331H40.2765Z" fill="white"/>
<path d="M33.9801 22.7924C34.1048 23.1122 34.2614 23.4153 34.432 23.7052C34.6031 23.9924 34.791 24.2538 34.9839 24.4724C35.1765 24.6919 35.3755 24.865 35.5643 24.9895C35.6499 24.2508 35.6833 23.5216 35.6586 22.7941C35.6337 22.0669 35.5498 21.3436 35.397 20.6256C35.3013 20.1803 35.1667 19.7524 35.0205 19.3254C35.2084 19.756 35.3703 20.19 35.5046 20.642C35.6389 21.0935 35.7468 21.5522 35.8286 22.0169C35.9101 22.4819 35.9661 22.9513 35.9956 23.4283C36.0246 23.9074 36.0281 24.3909 36.0064 24.8773C36.8234 23.84 37.1822 22.3406 36.9917 20.9166C36.9021 20.2489 36.6076 19.4843 36.1723 18.7828C35.9547 18.4332 35.7024 18.1103 35.4254 17.8202C35.1487 17.5332 34.8473 17.2763 34.5335 17.0959C34.1051 17.7048 33.8379 18.4867 33.7083 19.3154C33.6433 19.7298 33.6129 20.1556 33.6143 20.5779C33.6155 21.0014 33.648 21.4236 33.7106 21.8259C33.7605 22.1467 33.8551 22.4745 33.9801 22.7929V22.7924Z" fill="white"/>
<path d="M34.3322 27.685C34.0001 28.0172 33.6584 28.3344 33.3109 28.6317C32.9632 28.9292 32.609 29.2079 32.249 29.4671C31.8894 29.7258 31.5181 29.9739 31.1451 30.1964C31.4903 29.9498 31.8363 29.6952 32.1699 29.4106C32.7018 28.9592 33.2088 28.4657 33.6921 27.9363C34.1753 27.4072 34.635 26.8401 35.0684 26.2498C34.854 26.2021 34.5924 26.203 34.3104 26.2359C34.0282 26.2698 33.7242 26.3395 33.4203 26.4419C33.1172 26.542 32.8083 26.6862 32.5226 26.8524C32.236 27.0199 31.9694 27.2156 31.7417 27.4348C31.456 27.7103 31.1854 28.0199 30.9374 28.3547C30.6886 28.6908 30.4635 29.0498 30.2706 29.4203C29.8845 30.1607 29.627 30.9459 29.5605 31.6792C29.8666 31.7054 30.1888 31.6892 30.527 31.6236C30.8632 31.5604 31.2136 31.45 31.552 31.3149C32.2267 31.0465 32.8816 30.6478 33.3594 30.2061C34.3638 29.2767 35.1629 27.9598 35.3013 26.6411C34.9868 27.0063 34.6634 27.3545 34.3322 27.6847V27.685Z" fill="white"/>
<path d="M28.5064 19.7779C28.5317 19.9721 28.5641 20.1634 28.6033 20.35C28.7283 20.9447 29.0216 21.556 29.3737 22.0659C29.5503 22.319 29.7397 22.5544 29.932 22.7484C30.1243 22.9423 30.319 23.0965 30.5043 23.196C30.5371 22.5035 30.5255 21.8167 30.4611 21.1372C30.4289 20.7973 30.3836 20.4595 30.3239 20.124C30.2641 19.7885 30.1899 19.4598 30.1006 19.1311C29.9889 18.7217 29.8436 18.328 29.6881 17.9375C30.4657 19.4919 30.8666 21.2411 30.9104 23.0583C31.6065 22.0303 31.8403 20.6057 31.5845 19.2976C31.5244 18.9889 31.4165 18.6599 31.2695 18.3297C31.1224 17.999 30.9356 17.6667 30.7187 17.3598C30.5017 17.0511 30.2546 16.7603 29.9871 16.507C29.8534 16.3801 29.7148 16.2627 29.5727 16.1571C29.4305 16.0532 29.2846 15.9628 29.1364 15.8857C28.771 16.479 28.5601 17.2244 28.4792 18.0063C28.4386 18.3971 28.4304 18.7974 28.4522 19.192C28.4629 19.3895 28.4812 19.5854 28.5067 19.7785L28.5064 19.7779Z" fill="white"/>
<path d="M26.6582 28.326C26.972 28.0776 27.2844 27.8231 27.5841 27.5382C27.8236 27.3104 28.0571 27.0712 28.2816 26.8269C28.5058 26.583 28.7234 26.3299 28.9343 26.0686C29.3557 25.5459 29.7508 24.9903 30.1203 24.4068C29.9149 24.3803 29.6713 24.3926 29.4091 24.44C29.1469 24.4871 28.867 24.568 28.5853 24.6863C28.0232 24.9191 27.4663 25.2731 27.062 25.7072C26.9349 25.8434 26.8119 25.9874 26.6933 26.1383C26.5744 26.2902 26.4601 26.4488 26.3519 26.6121C26.1352 26.9391 25.9418 27.2866 25.7791 27.6427C25.4539 28.3551 25.252 29.1032 25.2314 29.7945C25.3776 29.8012 25.5299 29.7945 25.6848 29.7768C25.8388 29.7609 25.9963 29.7333 26.1556 29.6953C26.4743 29.6194 26.8 29.5022 27.1168 29.3554C27.4347 29.2068 27.7401 29.0343 28.0203 28.8425C28.3005 28.65 28.5557 28.4384 28.7678 28.2174C29.6646 27.2816 30.3233 25.9938 30.3645 24.7546C29.2777 26.2092 28.0296 27.4078 26.6576 28.326H26.6582Z" fill="white"/>
<path d="M24.2201 19.9768C24.2708 20.1128 24.3283 20.2487 24.3929 20.3776C24.4576 20.5056 24.5284 20.6301 24.6038 20.7487C24.7546 20.9862 24.9237 21.2016 25.0978 21.3805C25.2733 21.5547 25.4542 21.6907 25.6254 21.7775C25.6378 21.131 25.621 20.4945 25.5735 19.8715C25.5273 19.2423 25.4508 18.6258 25.3411 18.0266C25.2721 17.6549 25.1839 17.2912 25.0937 16.9342C25.1537 17.1123 25.2112 17.2936 25.2654 17.4778C25.3199 17.6608 25.3727 17.8433 25.4218 18.0304C25.5204 18.4039 25.6074 18.7891 25.6822 19.1837C25.8333 19.9677 25.9389 20.784 25.9891 21.6342C26.5811 20.6481 26.7105 19.2982 26.5298 18.1122C26.4865 17.8315 26.4091 17.5393 26.3073 17.2456C26.2061 16.9489 26.0796 16.6547 25.9349 16.3804C25.7893 16.1094 25.6277 15.8457 25.4513 15.6203C25.275 15.3949 25.0836 15.208 24.8834 15.0605C24.5383 15.5976 24.2789 16.2718 24.1281 16.9869C23.977 17.7011 23.9335 18.4616 24.0153 19.1481C24.0475 19.4227 24.1188 19.7034 24.2201 19.9762V19.9768Z" fill="white"/>
<path d="M23.9017 25.1154C23.5934 25.387 23.2679 25.6392 22.9251 25.8711C22.7539 25.9865 22.5779 26.0986 22.3989 26.2019C22.2205 26.304 22.0381 26.4008 21.8516 26.4921C22.1933 26.2872 22.5251 26.0751 22.8392 25.8214C23.341 25.4188 23.7918 24.9721 24.1993 24.4886C24.6091 23.9989 24.9749 23.4733 25.3044 22.9189C25.1083 22.8983 24.8763 22.916 24.6245 22.9633C24.3745 23.006 24.1044 23.0802 23.8312 23.1814C23.6946 23.232 23.5571 23.2891 23.4208 23.3527C23.285 23.4153 23.1516 23.481 23.0214 23.554C22.7612 23.6996 22.5152 23.8682 22.3038 24.0572C21.7721 24.5342 21.2808 25.1139 20.9078 25.7449C20.5353 26.3752 20.2844 27.0524 20.252 27.7092C20.5832 27.7725 20.9443 27.7754 21.3069 27.7398C21.6694 27.7045 22.0337 27.6297 22.3856 27.5123C22.7363 27.3976 23.0692 27.251 23.3671 27.0827C23.6662 26.9114 23.9313 26.7145 24.1439 26.5094C25.048 25.6389 25.577 24.405 25.5529 23.24C25.072 23.9333 24.5204 24.5666 23.9014 25.1154H23.9017Z" fill="white"/>
<path d="M20.716 19.7973C20.8587 19.9788 21.0089 20.1301 21.1577 20.2287C21.2401 19.6354 21.2958 19.0421 21.3187 18.4598C21.3303 18.1681 21.3341 17.8789 21.3297 17.5916C21.3277 17.448 21.323 17.3056 21.3169 17.1629C21.3111 17.019 21.3036 16.8759 21.2937 16.7332C21.2691 16.3771 21.2218 16.0346 21.1722 15.6965C21.2505 16.0372 21.3158 16.388 21.3686 16.7476C21.3947 16.9283 21.4185 17.1081 21.4396 17.2891C21.4605 17.4707 21.4785 17.654 21.493 17.8394C21.522 18.2102 21.538 18.5887 21.5409 18.9733C21.5435 19.3579 21.5354 19.7422 21.5116 20.1354C22.17 19.2908 22.4415 18.0687 22.3962 16.9551C22.3861 16.69 22.3452 16.4066 22.2802 16.1229C22.2477 15.981 22.2089 15.8389 22.1645 15.6988C22.1201 15.559 22.0702 15.4207 22.0168 15.2827C21.9092 15.0084 21.7816 14.7501 21.6369 14.5238C21.4918 14.2969 21.3341 14.0915 21.1574 13.9387C20.7812 14.3978 20.4743 14.9928 20.2643 15.6364C20.0538 16.2797 19.9409 16.9725 19.9444 17.6222C19.9473 18.1381 20.0984 18.6855 20.325 19.1637C20.4384 19.4023 20.5741 19.6139 20.7162 19.7973H20.716Z" fill="white"/>
<path d="M20.1081 22.3932C19.8218 22.6492 19.5219 22.8873 19.2092 23.1062C19.0529 23.2157 18.8931 23.3204 18.7301 23.4199C18.5671 23.5203 18.4009 23.6144 18.2332 23.7007C17.897 23.8752 17.5481 24.0291 17.1876 24.1612C17.522 24.0055 17.8492 23.8413 18.161 23.645C18.2857 23.5665 18.4081 23.4852 18.5282 23.4011C18.6489 23.3157 18.7672 23.2272 18.8832 23.1362C19.1153 22.9544 19.3377 22.7619 19.5515 22.5603C19.9793 22.1566 20.3718 21.7175 20.7366 21.2434C20.5583 21.2031 20.3451 21.1881 20.1093 21.2028C19.874 21.2157 19.6153 21.2605 19.3545 21.3214C18.8339 21.4423 18.2869 21.6645 17.8602 21.9668C17.3265 22.3443 16.8134 22.834 16.4065 23.3778C15.9998 23.922 15.7002 24.5205 15.6016 25.1206C15.8997 25.2053 16.222 25.2536 16.5564 25.2551C16.8908 25.2565 17.2322 25.2209 17.5617 25.1547C17.7259 25.1226 17.8889 25.0794 18.047 25.0287C18.2048 24.9784 18.3573 24.9213 18.5027 24.8587C18.7933 24.733 19.0546 24.5841 19.2707 24.4193C20.1928 23.7136 20.8237 22.6345 20.9304 21.5636C20.6696 21.8567 20.3941 22.1368 20.1078 22.3932H20.1081Z" fill="white"/>
<path d="M17.1217 18.2794C17.3923 17.2032 17.5469 16.1421 17.5815 15.0847C17.5913 14.756 17.5789 14.4373 17.5638 14.1218C17.6052 14.4423 17.634 14.7704 17.6496 15.105C17.6659 15.4387 17.6667 15.7827 17.6598 16.1235C17.6438 16.8086 17.5757 17.5158 17.4536 18.2341C18.143 17.5249 18.5122 16.4372 18.5798 15.4019C18.6109 14.9126 18.5323 14.3528 18.3852 13.8255C18.3107 13.5627 18.2138 13.3155 18.1018 13.0895C17.9907 12.862 17.8608 12.6616 17.7111 12.5027C16.9303 13.2713 16.3664 14.5715 16.2551 15.7648C16.2075 16.2421 16.2954 16.7592 16.4598 17.218C16.6211 17.6803 16.8697 18.064 17.122 18.2794H17.1217Z" fill="white"/>
<path d="M16.7786 19.4846C16.2438 19.9672 15.6674 20.3836 15.0516 20.7259C14.7427 20.8989 14.4289 21.044 14.1038 21.1735C13.7792 21.3021 13.445 21.411 13.1028 21.4987C13.4233 21.3871 13.7386 21.2665 14.0431 21.1161C15.016 20.6382 15.8745 19.9587 16.635 19.1677C16.3183 19.0541 15.8499 19.0432 15.3614 19.1018C14.8712 19.1644 14.3489 19.316 13.9315 19.5488C12.8826 20.1426 11.8605 21.1491 11.5635 22.2276C11.8271 22.3333 12.1192 22.403 12.4215 22.4398C12.7246 22.4751 13.041 22.471 13.3479 22.4413C13.961 22.3842 14.5513 22.1914 14.9786 21.9319C15.8855 21.3824 16.575 20.4537 16.7786 19.4849V19.4846Z" fill="white"/>
<path d="M13.0219 15.0174C13.0761 15.2331 13.1472 15.4391 13.2339 15.6151C13.3215 15.7899 13.4213 15.9388 13.5272 16.048C13.6997 15.5718 13.8468 15.0945 13.9654 14.6178C14.0844 14.1405 14.1798 13.6578 14.2419 13.1808C14.2816 12.8818 14.2967 12.5928 14.3147 12.3006C14.3292 12.8956 14.299 13.5075 14.2163 14.1366C14.1395 14.7587 14.0124 15.3959 13.8343 16.0377C14.5258 15.4632 14.9693 14.5007 15.1239 13.5666C15.1602 13.3459 15.1735 13.1049 15.166 12.8589C15.1599 12.6111 15.1358 12.355 15.0908 12.1099C15.0685 11.9872 15.0409 11.8665 15.0087 11.75C14.9928 11.6917 14.9751 11.6346 14.9568 11.5784C14.9391 11.5213 14.9203 11.4657 14.9003 11.4113C14.8199 11.1935 14.7193 10.999 14.5972 10.8401C13.814 11.4666 13.1808 12.5972 12.9697 13.6734C12.9273 13.8871 12.912 14.1163 12.9218 14.3456C12.9331 14.5728 12.9682 14.8011 13.0222 15.0174H13.0219Z" fill="white"/>
<path d="M13.1021 17.1117C12.5693 17.5008 12.0048 17.826 11.4117 18.0802C10.8235 18.3268 10.2048 18.5049 9.56696 18.5973C9.86687 18.5296 10.1671 18.446 10.458 18.3383C10.9253 18.1635 11.3661 17.9478 11.7896 17.6894C12.2137 17.4305 12.616 17.135 13.0003 16.8098C12.8605 16.7439 12.685 16.6965 12.4869 16.668C12.2897 16.638 12.0733 16.6224 11.8462 16.6285C11.6197 16.6341 11.3841 16.6591 11.1544 16.705C10.9261 16.7489 10.7043 16.8119 10.5024 16.8999C9.49125 17.3419 8.4665 18.1623 8.09668 19.1164C8.32727 19.237 8.58716 19.3283 8.85923 19.3901C8.92739 19.4054 8.99613 19.4192 9.06545 19.431C9.13536 19.4419 9.20584 19.4504 9.27661 19.4578C9.41816 19.4719 9.56057 19.4789 9.70212 19.4792C9.98521 19.4792 10.2631 19.4542 10.5233 19.4015C10.7846 19.3468 11.0259 19.2682 11.233 19.1697C12.1119 18.7518 12.8225 17.9796 13.1024 17.1117H13.1021Z" fill="white"/>
<path d="M10.1594 13.1928C10.2218 13.3591 10.2984 13.503 10.3836 13.6116C10.5843 13.1987 10.7624 12.782 10.9147 12.3635C11.0699 11.9421 11.2007 11.5178 11.3034 11.0934C11.3686 10.8274 11.409 10.5693 11.4551 10.3071C11.4087 10.8451 11.3234 11.3927 11.1882 11.9527C11.0574 12.5083 10.8843 13.0692 10.6627 13.6319C11.3417 13.1799 11.833 12.3538 12.0613 11.5266C12.1152 11.3309 12.1495 11.1155 12.1672 10.8921C12.1869 10.667 12.1892 10.4351 12.1727 10.2097C12.1353 9.76151 12.043 9.32803 11.8559 9.02051C11.089 9.50931 10.4051 10.4645 10.1092 11.4145C10.0501 11.6034 10.0141 11.8079 9.99989 12.0163C9.98829 12.2223 9.99815 12.4315 10.026 12.6319C10.0538 12.8323 10.0997 13.0236 10.1594 13.1931V13.1928Z" fill="white"/>
<path d="M9.89971 14.5305C9.38168 14.8295 8.83899 15.0708 8.28035 15.24C7.72519 15.4042 7.1474 15.5052 6.56179 15.5231C6.83908 15.4937 7.11956 15.4469 7.39279 15.3789C7.83193 15.2677 8.2525 15.115 8.658 14.9254C9.06581 14.7327 9.45767 14.5049 9.8359 14.2486C9.71582 14.1756 9.56122 14.1162 9.38516 14.0709C9.2117 14.0226 9.01592 13.9885 8.81056 13.9714C8.60521 13.954 8.3897 13.9534 8.17738 13.9723C7.96738 13.9882 7.76028 14.0235 7.56943 14.0823C6.61255 14.3798 5.60519 15.0161 5.17969 15.8415C5.5759 16.1082 6.0861 16.2821 6.60123 16.3351C6.85764 16.3639 7.11231 16.3677 7.35189 16.3474C7.59292 16.3248 7.81916 16.2765 8.01582 16.2076C8.85059 15.9157 9.56528 15.2871 9.9 14.5308L9.89971 14.5305Z" fill="white"/>
<path d="M7.49564 10.1128C7.49912 10.2944 7.51971 10.4697 7.5551 10.6272C7.59223 10.7832 7.64676 10.9185 7.71144 11.0245C7.93362 10.6772 8.13491 10.3253 8.31562 9.968C8.49922 9.60868 8.66136 9.24524 8.79913 8.87916C8.88644 8.64991 8.95025 8.42538 9.0216 8.19819C8.91951 8.66934 8.78405 9.14666 8.60306 9.63046C8.42584 10.1119 8.21468 10.5928 7.95827 11.0716C8.61089 10.739 9.13385 10.0528 9.42478 9.34118C9.49381 9.17256 9.54602 8.98569 9.5875 8.78852C9.62984 8.59076 9.65769 8.38565 9.66842 8.18466C9.68466 7.78414 9.65537 7.39304 9.52658 7.10376C8.79101 7.45631 8.07197 8.22585 7.70274 9.03836C7.62877 9.19963 7.57424 9.37797 7.53857 9.56189C7.50608 9.74376 7.49216 9.93121 7.49564 10.1128Z" fill="white"/>
<path d="M7.18549 11.7941C6.69211 12.006 6.18075 12.1646 5.66417 12.2532C5.1502 12.3382 4.62143 12.3638 4.09383 12.3114C4.34588 12.3179 4.60258 12.3076 4.85463 12.2779C5.25984 12.2281 5.65257 12.1381 6.03457 12.0136C6.41889 11.8865 6.79334 11.7243 7.15765 11.5357C7.05787 11.4577 6.92474 11.3892 6.77304 11.3285C6.62308 11.2664 6.45166 11.2146 6.2698 11.1767C6.08794 11.1387 5.89534 11.114 5.70304 11.1072C5.51363 11.0975 5.32481 11.1052 5.14759 11.1358C4.26003 11.2917 3.28719 11.7399 2.81934 12.4315C3.14826 12.7202 3.58942 12.9394 4.04713 13.0454C4.27453 13.101 4.50309 13.1337 4.72005 13.1425C4.93759 13.1507 5.14643 13.131 5.32945 13.0913C6.10766 12.9215 6.81017 12.4347 7.18607 11.7944L7.18549 11.7941Z" fill="white"/>
<path d="M5.79551 6.59182C5.70907 6.72249 5.63714 6.8708 5.58087 7.02677C5.5275 7.18156 5.49241 7.34312 5.4721 7.50233C5.45209 7.66154 5.44803 7.8178 5.45934 7.96053C5.46978 8.10355 5.50401 8.22744 5.54752 8.32867C5.78536 8.05087 6.0029 7.76865 6.20912 7.47761C6.41564 7.18627 6.60476 6.88964 6.77357 6.58918C6.8806 6.40113 6.96529 6.21514 7.06043 6.02798C7.01895 6.12892 6.97834 6.2275 6.93861 6.32373C6.89713 6.42232 6.85333 6.52149 6.80721 6.62066C6.71498 6.81901 6.61375 7.01853 6.50411 7.21805C6.39273 7.41846 6.2799 7.61563 6.15605 7.8128C6.03248 8.00997 5.90022 8.20596 5.75925 8.40018C6.373 8.18771 6.91395 7.64741 7.25853 7.06356C7.34091 6.92524 7.40762 6.76957 7.47317 6.60301C7.53669 6.43703 7.58832 6.26311 7.62487 6.09155C7.69158 5.749 7.72668 5.41176 7.65678 5.15161C6.96703 5.36555 6.22885 5.93263 5.79551 6.59182Z" fill="white"/>
<path d="M3.20139 9.84765C3.91028 9.79968 4.58581 9.45684 4.99247 8.93979C4.76217 9.00276 4.53012 9.0522 4.29663 9.08781C4.06343 9.12312 3.82733 9.14608 3.59616 9.14873C3.36382 9.15255 3.13062 9.14108 2.89742 9.114C2.78082 9.10047 2.66422 9.0831 2.54762 9.06162C2.48932 9.05103 2.43102 9.03925 2.37271 9.0266C2.31528 9.01306 2.25814 8.99806 2.201 8.98216C2.42202 9.02572 2.65145 9.05132 2.8777 9.06015C3.242 9.07221 3.59993 9.04514 3.95147 8.9857C4.30359 8.92566 4.65514 8.82855 4.99798 8.70848C4.91995 8.62697 4.80857 8.55163 4.68501 8.47688C4.56058 8.40272 4.41613 8.33475 4.26067 8.27736C4.1052 8.21968 3.93755 8.17289 3.7699 8.13993C3.60486 8.10521 3.43721 8.08549 3.27739 8.08755C2.47539 8.1005 1.5568 8.35123 1.05762 8.89918C1.31489 9.20729 1.67804 9.47244 2.07193 9.63017C2.26714 9.71169 2.46582 9.7726 2.65668 9.81057C2.84637 9.85 3.03519 9.85824 3.20168 9.84794L3.20139 9.84765Z" fill="white"/>
<path d="M4.31475 5.25698C4.43164 5.1531 4.54795 5.04657 4.65962 4.93915C4.88325 4.72403 5.09325 4.50362 5.28729 4.27879C5.34791 4.20845 5.40505 4.13812 5.46045 4.06749C5.51643 3.99834 5.57328 3.928 5.631 3.85679C5.57705 3.93389 5.52426 4.00922 5.47235 4.08309C5.42043 4.15842 5.36648 4.23435 5.31079 4.30998C5.19912 4.46153 5.0799 4.61338 4.95373 4.76494C4.69733 5.06893 4.42961 5.36733 4.12795 5.65661C4.68833 5.56803 5.23392 5.18547 5.62027 4.7461C5.70961 4.64222 5.8001 4.52098 5.88219 4.39238C5.96398 4.26378 6.03737 4.12753 6.09741 3.99186C6.12757 3.92388 6.15426 3.8562 6.17717 3.7891C6.20415 3.7223 6.22706 3.65638 6.24534 3.59223C6.28217 3.46392 6.30073 3.34268 6.29493 3.23291C5.669 3.30236 4.93691 3.64373 4.45339 4.12723C4.26109 4.31793 4.10301 4.5819 4.02266 4.84528C3.98032 4.97741 3.95218 5.11013 3.93942 5.23373C3.93304 5.29553 3.93043 5.35497 3.93217 5.41089C3.93623 5.46592 3.94377 5.51712 3.95566 5.56362C4.07835 5.46327 4.19786 5.36115 4.31417 5.25757L4.31475 5.25698Z" fill="white"/>
<path d="M1.7058 6.49878C2.32825 6.57559 2.96056 6.38313 3.38723 6.00144C2.97159 6.03705 2.55217 6.02793 2.15306 5.95318C1.95176 5.91669 1.75192 5.86637 1.5541 5.80163C1.45519 5.76925 1.35686 5.73335 1.25912 5.69362C1.16166 5.6539 1.06884 5.60711 0.974866 5.55796C1.06797 5.5971 1.1605 5.63447 1.25477 5.66743C1.35077 5.69922 1.44736 5.72747 1.5454 5.75071C1.85895 5.82546 2.1722 5.86342 2.48459 5.87078C2.64122 5.87431 2.7961 5.87078 2.95331 5.85901C3.11139 5.84694 3.26889 5.82782 3.4261 5.8031C3.39796 5.76219 3.36316 5.7207 3.32313 5.6792C3.28513 5.63683 3.24191 5.59386 3.19406 5.55178C3.09834 5.46762 2.98435 5.38522 2.85905 5.30929C2.60409 5.16009 2.32158 5.02619 2.04487 4.97146C1.35251 4.83785 0.518324 4.87758 0 5.26545C0.0864356 5.42759 0.199266 5.58415 0.328049 5.72805C0.392441 5.79986 0.461183 5.86843 0.532536 5.93317C0.60679 5.99497 0.683943 6.05324 0.762258 6.1068C0.919466 6.21391 1.08248 6.30308 1.24229 6.36988C1.40182 6.43698 1.55787 6.482 1.70609 6.49848L1.7058 6.49878Z" fill="white"/>
<path d="M2.9713 2.95684C3.02206 2.84384 3.06382 2.71465 3.09312 2.57898C3.15519 2.3106 3.15055 2.0019 3.07978 1.73852C2.90401 1.07344 2.44282 0.403067 1.93726 0.0219727C1.87751 0.113788 1.83313 0.22797 1.80094 0.357453C1.78498 0.422195 1.77193 0.490763 1.76178 0.562273C1.74815 0.631724 1.73742 0.704117 1.72958 0.777981C1.71392 0.926005 1.70928 1.08109 1.71566 1.23412C1.72233 1.38714 1.73974 1.5384 1.76497 1.67377C1.87925 2.25086 2.15886 2.8609 2.59829 3.22522C2.48256 2.82088 2.40018 2.42625 2.33057 2.03221C2.29722 1.83681 2.27024 1.64435 2.24936 1.45659C2.23892 1.36272 2.23021 1.26973 2.22325 1.17791C2.21542 1.08786 2.20759 0.995455 2.19918 0.901285C2.21339 0.992218 2.22731 1.08256 2.24124 1.17055C2.25371 1.25972 2.26792 1.35006 2.28532 1.44159C2.34072 1.73498 2.41179 2.03339 2.49735 2.33355C2.53999 2.48334 2.58727 2.63519 2.63629 2.78469C2.68473 2.93359 2.73694 3.08309 2.79292 3.23258C2.82627 3.19845 2.85847 3.15813 2.88921 3.11281C2.91851 3.06572 2.94577 3.01275 2.9713 2.95625V2.95684Z" fill="white"/>
<path d="M52.8712 33.839C54.8183 32.0325 57.0085 30.494 59.3103 29.1529C60.4613 28.4808 61.6461 27.8657 62.8496 27.2886L63.3009 27.072L63.7563 26.864C64.0602 26.7263 64.3622 26.5832 64.6699 26.4535L65.5897 26.0565L66.517 25.6766L66.7487 25.5815L66.9822 25.4906L67.4495 25.3093C67.761 25.1886 68.072 25.0659 68.3867 24.9532L69.3282 24.6077L70.2755 24.2784L70.7494 24.1142L71.226 23.9577L72.1794 23.6451L73.1377 23.3476L73.6169 23.1987L74.0984 23.0572L75.0616 22.7747C75.3839 22.6802 75.7102 22.5866 76.0319 22.4854C76.6772 22.285 77.3171 22.0675 77.9508 21.8344C79.2187 21.3677 80.463 20.8374 81.6786 20.2477C84.1084 19.0664 86.4265 17.6509 88.5772 16.0094C89.6518 15.1884 90.6839 14.3097 91.6605 13.3715C92.6362 12.433 93.558 11.4357 94.4009 10.3734C95.2423 9.3107 96.0098 8.18566 96.6604 6.99353C96.9852 6.39732 97.2811 5.78521 97.5427 5.15839C97.8014 4.5304 98.0248 3.88739 98.2061 3.23291C98.0135 3.88445 97.7794 4.52216 97.5102 5.14427C97.2385 5.7652 96.9327 6.37024 96.5989 6.95851C95.93 8.13475 95.1466 9.24066 94.2915 10.2827C93.4347 11.3242 92.5013 12.2991 91.5157 13.214C90.5295 14.129 89.4897 14.983 88.409 15.7787C86.2466 17.3696 83.9239 18.7315 81.4988 19.8575C80.2858 20.4195 79.0464 20.9219 77.7864 21.3603C77.1564 21.5796 76.5212 21.7826 75.8813 21.9689C75.5614 22.0631 75.2409 22.149 74.9178 22.2373L73.9446 22.5036L73.4579 22.6369L72.9733 22.7776L72.0039 23.0592L71.0386 23.3562L70.556 23.5048L70.0756 23.6613L69.1153 23.9756L68.1598 24.3064C67.8405 24.4144 67.5246 24.5321 67.2079 24.6483L66.7328 24.8226L66.4955 24.91L66.2597 25.0015L65.3159 25.3679L64.3784 25.7522C64.0649 25.8779 63.7566 26.0168 63.4462 26.1507L62.9812 26.3528L62.5201 26.5641C61.2897 27.1265 60.0749 27.7292 58.8898 28.3922C56.5206 29.7153 54.2463 31.2491 52.2006 33.0783C51.6121 33.6004 51.0462 34.1498 50.5 34.7195C49.9538 34.1498 49.3879 33.6004 48.7994 33.0783C46.7537 31.2491 44.4794 29.7153 42.1102 28.3922C40.9254 27.7292 39.7104 27.1265 38.4799 26.5641L38.0188 26.3528L37.5538 26.1507C37.2435 26.0168 36.9351 25.8779 36.6216 25.7522L35.6841 25.3679L34.7403 25.0015L34.5045 24.91L34.2672 24.8226L33.7921 24.6483C33.4754 24.5321 33.1595 24.4144 32.8402 24.3064L31.8847 23.9756L30.9244 23.6613L30.444 23.5048L29.9614 23.3562L28.9961 23.0592L28.0268 22.7776L27.5421 22.6369L27.0554 22.5036L26.0822 22.2373C25.7591 22.1487 25.4386 22.0631 25.1187 21.9689C24.4788 21.7826 23.8436 21.5793 23.2136 21.3603C21.9536 20.9219 20.7142 20.4195 19.5012 19.8575C17.0761 18.7315 14.7537 17.3696 12.591 15.7787C11.5103 14.983 10.4705 14.129 9.48429 13.214C8.49869 12.2991 7.56531 11.3242 6.70849 10.2827C5.85313 9.24066 5.06999 8.13475 4.40112 6.95851C4.06727 6.37024 3.76156 5.7652 3.48978 5.14427C3.22061 4.52245 2.98654 3.88445 2.79395 3.23291C2.97523 3.88769 3.19857 4.5304 3.45729 5.15839C3.71863 5.78521 4.01478 6.39761 4.33963 6.99353C4.99022 8.18566 5.7577 9.3107 6.59914 10.3734C7.44203 11.4357 8.36382 12.433 9.33956 13.3715C10.3159 14.3097 11.3479 15.1884 12.4228 16.0094C14.5733 17.6509 16.8914 19.0664 19.3211 20.2477C20.5367 20.8374 21.7808 21.3677 23.0489 21.8344C23.6829 22.0678 24.3228 22.285 24.9679 22.4854C25.2898 22.5866 25.6158 22.6799 25.9381 22.7747L26.9014 23.0572L27.3828 23.1987L27.862 23.3476L28.8203 23.6451L29.7737 23.9577L30.2503 24.1142L30.7242 24.2784L31.6716 24.6077L32.6131 24.9532C32.9278 25.0659 33.2387 25.1886 33.5502 25.3093L34.0175 25.4906L34.251 25.5815L34.4827 25.6766L35.41 26.0565L36.3298 26.4535C36.6375 26.5832 36.9392 26.7263 37.2435 26.864L37.6988 27.072L38.1502 27.2886C39.3536 27.8657 40.5385 28.4808 41.6894 29.1529C43.9909 30.494 46.1814 32.0325 48.1285 33.839C48.7031 34.3679 49.2525 34.9229 49.781 35.4967C48.7092 36.6989 47.7312 37.9896 46.8715 39.3574L47.8481 39.9783C48.63 38.6832 49.5202 37.4578 50.4997 36.3084C51.4792 37.4578 52.3694 38.6832 53.1514 39.9783L54.128 39.3574C53.2683 37.9896 52.2902 36.6989 51.2185 35.4967C51.7469 34.9229 52.2963 34.3679 52.8709 33.839H52.8712Z" fill="white"/>
<path d="M53.2063 28.6024C53.5654 29.3048 54.0594 29.9152 54.6455 30.3728C54.3511 29.3228 54.178 28.2378 54.1583 27.166C54.1528 26.8967 54.1557 26.6266 54.1678 26.3561C54.1739 26.2208 54.182 26.0854 54.1925 25.9497C54.2035 25.8158 54.2169 25.6822 54.2325 25.5486C54.2952 25.0142 54.3932 24.4763 54.5295 23.9439C54.4416 24.4619 54.3729 24.9819 54.3543 25.5027C54.3471 25.7117 54.3453 25.9194 54.3488 26.1263C54.3529 26.3344 54.363 26.5436 54.3781 26.7505C54.4083 27.1648 54.459 27.5748 54.5287 27.9806C54.6664 28.7893 54.8854 29.5924 55.1645 30.3775C55.2541 30.2854 55.342 30.1768 55.4272 30.0538C55.5128 29.9317 55.5987 29.7998 55.6793 29.6539C55.7602 29.5085 55.838 29.3516 55.9108 29.1857C55.9838 29.02 56.0514 28.8434 56.117 28.6671C56.2463 28.3114 56.3528 27.9297 56.4256 27.5433C56.4616 27.3491 56.4909 27.1578 56.5097 26.9685C56.5286 26.7787 56.5373 26.5907 56.5338 26.4068C56.5161 25.4848 56.3586 24.4972 56.0587 23.6049C55.7573 22.71 55.3086 21.8972 54.694 21.3213C54.6087 21.3913 54.5252 21.4684 54.4437 21.5505C54.3622 21.632 54.2824 21.7168 54.205 21.8048C54.0498 21.9811 53.903 22.1694 53.7655 22.3672C53.6278 22.5623 53.5013 22.7777 53.385 22.994C53.2687 23.2112 53.1634 23.4336 53.07 23.6582C53.0233 23.7706 52.9792 23.8827 52.9386 23.9963C52.8983 24.1114 52.8611 24.2267 52.8269 24.3415C52.7588 24.571 52.7034 24.7988 52.661 25.0219C52.6187 25.2449 52.5894 25.463 52.5737 25.6731C52.5586 25.885 52.5578 26.091 52.5699 26.2843C52.6224 27.1048 52.8461 27.8999 53.2054 28.6021L53.2063 28.6024Z" fill="white"/>
<path d="M59.8986 32.1763C59.7521 32.078 59.596 31.9879 59.433 31.9067C59.2697 31.8252 59.0995 31.7531 58.9278 31.6934C58.5829 31.5721 58.2206 31.4877 57.8641 31.44C57.6849 31.4147 57.5114 31.4047 57.3417 31.4023C57.1721 31.4 57.0067 31.4067 56.8492 31.422C56.692 31.4382 56.5412 31.4606 56.404 31.4956C56.2677 31.5312 56.1421 31.5756 56.0307 31.6274C56.6566 32.1639 57.2916 32.6636 57.9433 33.1336C58.2682 33.3672 58.5948 33.5912 58.9231 33.8048C59.0876 33.9119 59.2512 34.0152 59.4174 34.1176C59.5841 34.2209 59.7515 34.3216 59.9192 34.4196C60.3383 34.6644 60.7542 34.8725 61.1681 35.0788C60.7313 34.9034 60.2933 34.71 59.8501 34.4952C59.7396 34.4416 59.6285 34.3866 59.5174 34.3307C59.4078 34.276 59.2981 34.2201 59.1882 34.163C58.9684 34.0488 58.7476 33.9296 58.5263 33.8057C57.6373 33.3054 56.759 32.7504 55.8799 32.113C56.129 32.8119 56.5635 33.4646 57.0961 34.0429C57.6289 34.6209 58.2586 35.125 58.9045 35.5205C59.0574 35.6141 59.2187 35.7012 59.3886 35.7842C59.5601 35.868 59.7384 35.9466 59.9203 36.0184C60.1025 36.0902 60.2884 36.1552 60.4752 36.2129C60.5686 36.2418 60.6623 36.2688 60.7559 36.2936C60.8508 36.3195 60.9468 36.3442 61.0417 36.3662C61.2319 36.4107 61.4208 36.4469 61.6055 36.4731C61.7911 36.4999 61.9692 36.5143 62.1505 36.5243C62.3298 36.5328 62.5029 36.5305 62.668 36.5154C62.7504 36.5081 62.8307 36.4975 62.909 36.4837C62.9865 36.4692 63.063 36.4528 63.1393 36.4342C62.9012 35.647 62.462 34.8286 61.8944 34.0832C61.3247 33.3352 60.635 32.6707 59.8988 32.1766L59.8986 32.1763Z" fill="white"/>
<path d="M59.7172 24.1883C59.7645 23.6865 59.8417 23.1874 59.9501 22.6927C60.0595 22.2036 60.1996 21.7213 60.371 21.2443C60.2448 21.7142 60.1332 22.1848 60.0656 22.666C59.9583 23.4426 59.9307 24.2227 59.9693 24.9955C59.9887 25.3828 60.0241 25.7671 60.0763 26.1544C60.1285 26.5422 60.1961 26.9286 60.2773 27.3141C60.3722 27.24 60.4673 27.1496 60.5616 27.046C60.6567 26.9445 60.7516 26.8309 60.8438 26.7053C61.0286 26.4545 61.2049 26.1591 61.3618 25.8371C61.6783 25.2021 61.9205 24.4664 61.977 23.773C62.049 22.9111 61.9921 21.9803 61.7926 21.1095C61.5927 20.2393 61.2493 19.4318 60.7402 18.8262C60.0795 19.2752 59.4959 20.0077 59.0762 20.7855C58.8665 21.1831 58.6977 21.5942 58.5767 21.995C58.5164 22.1954 58.4677 22.3932 58.432 22.5856C58.396 22.7778 58.374 22.9697 58.3644 23.15C58.2835 24.6856 58.8221 26.2294 59.7958 27.2411C59.6534 26.2185 59.6218 25.1877 59.7175 24.1886L59.7172 24.1883Z" fill="white"/>
<path d="M64.5297 29.5487C64.0178 29.1232 63.344 28.8098 62.6815 28.6414C62.3526 28.5611 62.0263 28.5155 61.7255 28.5064C61.5752 28.502 61.4311 28.5058 61.2968 28.5202C61.1636 28.5367 61.0401 28.562 60.929 28.5967C61.188 28.8881 61.4517 29.1709 61.72 29.4448C61.9883 29.7191 62.2638 29.9878 62.5423 30.2453C63.1009 30.7614 63.6752 31.2361 64.271 31.6717C64.6451 31.9462 65.0257 32.1864 65.4039 32.4203C64.999 32.2134 64.5944 31.9842 64.1938 31.7361C63.7967 31.4924 63.4017 31.2285 63.0101 30.9448C62.2241 30.3739 61.4636 29.7429 60.7236 29.0331C61.0061 30.4101 61.9932 31.717 63.129 32.6095C63.2639 32.7152 63.4072 32.8146 63.5621 32.9126C63.7167 33.0103 63.8794 33.1033 64.0473 33.1902C64.3832 33.3638 64.7403 33.513 65.0982 33.6286C65.8271 33.8714 66.5531 33.9738 67.1703 33.8758C67.0337 33.106 66.7002 32.2941 66.2367 31.5401C65.7737 30.7865 65.178 30.089 64.5303 29.5487H64.5297Z" fill="white"/>
<path d="M65.0039 23.4279C65.0335 22.9509 65.0895 22.4815 65.171 22.0165C65.2528 21.5519 65.3604 21.0931 65.495 20.6416C65.6293 20.1896 65.7914 19.7556 65.9791 19.325C65.8329 19.7523 65.6983 20.1802 65.6026 20.6252C65.4497 21.3432 65.3659 22.0669 65.341 22.7937C65.3163 23.5212 65.3497 24.2501 65.4352 24.9891C65.6244 24.8649 65.8233 24.6915 66.0159 24.472C66.2088 24.2534 66.3968 23.992 66.5679 23.7048C66.7382 23.4153 66.8951 23.1118 67.0198 22.792C67.1448 22.4738 67.2394 22.1457 67.2893 21.825C67.3519 21.4227 67.3844 21.0004 67.3855 20.5769C67.387 20.1549 67.3565 19.7288 67.2916 19.3144C67.1616 18.4857 66.8945 17.7038 66.4664 17.095C66.1525 17.2754 65.8512 17.5323 65.5745 17.8192C65.2978 18.1094 65.0451 18.4325 64.8276 18.7818C64.3922 19.4834 64.0978 20.2479 64.0082 20.9156C63.8173 22.3397 64.1764 23.839 64.9935 24.8764C64.972 24.3899 64.9752 23.9064 65.0042 23.4273L65.0039 23.4279Z" fill="white"/>
<path d="M70.0628 28.355C69.8148 28.0201 69.5442 27.7105 69.2584 27.4351C69.031 27.2158 68.7642 27.0201 68.4776 26.8527C68.1916 26.6864 67.883 26.5422 67.5799 26.4422C67.2759 26.3398 66.972 26.27 66.6897 26.2362C66.4078 26.2032 66.1459 26.2023 65.9318 26.25C66.3652 26.8403 66.8249 27.4074 67.3081 27.9365C67.7914 28.4659 68.2987 28.9591 68.8303 29.4109C69.1639 29.6954 69.5099 29.95 69.8551 30.1966C69.4821 29.9741 69.1108 29.726 68.7512 29.4674C68.3912 29.2081 68.037 28.9294 67.6893 28.6319C67.3418 28.3347 67.0001 28.0174 66.668 27.6852C66.337 27.355 66.0133 27.0069 65.6992 26.6417C65.8373 27.9601 66.6367 29.277 67.6411 30.2066C68.1188 30.6483 68.7738 31.0471 69.4484 31.3155C69.7866 31.4505 70.137 31.5609 70.4735 31.6242C70.8117 31.6898 71.1339 31.706 71.4399 31.6798C71.3735 30.9464 71.1159 30.1613 70.7299 29.4209C70.537 29.0507 70.3119 28.6914 70.0631 28.3553L70.0628 28.355Z" fill="white"/>
<path d="M71.3122 17.9373C71.1568 18.3278 71.0115 18.7213 70.8998 19.1309C70.8105 19.4594 70.7362 19.7884 70.6765 20.1238C70.6167 20.4596 70.5715 20.7974 70.5393 21.137C70.4749 21.8165 70.4633 22.5037 70.496 23.1958C70.6811 23.0964 70.876 22.9425 71.0683 22.7482C71.2606 22.5543 71.4503 22.3192 71.6267 22.0658C71.9785 21.5558 72.2717 20.9446 72.397 20.3498C72.4362 20.1633 72.4687 19.972 72.4939 19.7778C72.5194 19.5847 72.5377 19.3887 72.5484 19.1913C72.5702 18.7963 72.5621 18.3964 72.5215 18.0056C72.4403 17.2237 72.2294 16.4783 71.8642 15.885C71.7163 15.9621 71.5704 16.0528 71.428 16.1563C71.2856 16.262 71.1469 16.3794 71.0135 16.5062C70.7461 16.7596 70.4989 17.0504 70.282 17.3591C70.065 17.666 69.8782 17.9982 69.7312 18.329C69.5841 18.6595 69.4762 18.9882 69.4162 19.2969C69.1603 20.605 69.3941 22.0296 70.0903 23.0575C70.1341 21.2403 70.5349 19.4914 71.3125 17.9367L71.3122 17.9373Z" fill="white"/>
<path d="M74.6489 26.6121C74.5407 26.4485 74.4264 26.2902 74.3075 26.1383C74.1892 25.9874 74.0659 25.8432 73.9389 25.7072C73.5345 25.2731 72.9776 24.9191 72.4155 24.6863C72.1339 24.568 71.854 24.4871 71.5918 24.44C71.3295 24.3926 71.0859 24.3803 70.8805 24.4068C71.2504 24.9903 71.6451 25.5462 72.0666 26.0686C72.2774 26.3299 72.4947 26.583 72.7192 26.8269C72.9437 27.0712 73.1769 27.3104 73.4168 27.5382C73.7164 27.8231 74.0288 28.0779 74.3426 28.326C72.9707 27.4081 71.7226 26.2095 70.6357 24.7546C70.6769 25.9938 71.3356 27.2816 72.2325 28.2174C72.4445 28.4381 72.6995 28.65 72.9799 28.8425C73.2601 29.0343 73.5653 29.2068 73.8835 29.3554C74.2005 29.5022 74.5262 29.6194 74.8447 29.6953C75.0039 29.7333 75.1617 29.7609 75.3154 29.7768C75.4703 29.7945 75.6226 29.8012 75.7688 29.7945C75.7485 29.1032 75.5466 28.3551 75.2212 27.6427C75.0585 27.2863 74.865 26.9391 74.6483 26.6121H74.6489Z" fill="white"/>
<path d="M75.3177 19.1844C75.3926 18.7894 75.4796 18.4045 75.5782 18.0311C75.6275 17.8439 75.68 17.6614 75.7345 17.4784C75.7888 17.2942 75.8462 17.1129 75.9062 16.9349C75.8163 17.2915 75.7279 17.6556 75.6591 18.0272C75.5495 18.6264 75.4729 19.2429 75.4268 19.8721C75.3792 20.4948 75.3624 21.1316 75.3749 21.7782C75.5463 21.6913 75.7273 21.5554 75.9028 21.3812C76.0768 21.2022 76.2459 20.9868 76.3967 20.7493C76.4721 20.6307 76.5429 20.5063 76.6079 20.3783C76.6723 20.2494 76.73 20.1134 76.7808 19.9774C76.882 19.7046 76.9533 19.4242 76.9855 19.1493C77.0673 18.4628 77.0238 17.7024 76.8727 16.9881C76.7216 16.273 76.4626 15.5988 76.1174 15.0618C75.9173 15.2092 75.7258 15.3961 75.5495 15.6215C75.3731 15.8469 75.2116 16.1106 75.066 16.3816C74.9212 16.6559 74.7948 16.9499 74.6935 17.2468C74.5917 17.5405 74.5143 17.8327 74.4711 18.1135C74.2904 19.2994 74.4197 20.6493 75.0117 21.6354C75.0619 20.7852 75.1672 19.9689 75.3186 19.1849L75.3177 19.1844Z" fill="white"/>
<path d="M78.6956 24.0574C78.4841 23.8685 78.2384 23.6999 77.978 23.5542C77.8477 23.4809 77.7143 23.4153 77.5786 23.3529C77.4425 23.2896 77.3048 23.2323 77.1681 23.1816C76.8946 23.0807 76.6249 23.0062 76.3748 22.9636C76.1234 22.9162 75.891 22.8985 75.695 22.9191C76.0245 23.4733 76.3902 23.9989 76.8001 24.4888C77.2076 24.9723 77.6586 25.4191 78.1601 25.8216C78.4742 26.0753 78.8061 26.2875 79.1477 26.4923C78.9612 26.4011 78.7788 26.3043 78.6004 26.2021C78.4217 26.0988 78.2454 25.9867 78.0743 25.8714C77.7317 25.6398 77.406 25.3873 77.0977 25.1157C76.4787 24.5668 75.927 23.9335 75.4461 23.2402C75.422 24.4053 75.9508 25.6392 76.8552 26.5097C77.0678 26.7148 77.3329 26.9117 77.6319 27.0829C77.9295 27.2513 78.2625 27.3978 78.6132 27.5126C78.965 27.6303 79.3293 27.7047 79.6919 27.7401C80.0545 27.7757 80.4156 27.7727 80.7468 27.7094C80.7143 27.0526 80.4634 26.3755 80.091 25.7451C79.718 25.1142 79.2266 24.5344 78.695 24.0574H78.6956Z" fill="white"/>
<path d="M79.4585 18.9733C79.4611 18.5887 79.4774 18.2102 79.5064 17.8394C79.5209 17.654 79.5386 17.4704 79.5598 17.2891C79.5809 17.1081 79.605 16.9283 79.6308 16.7476C79.6836 16.3883 79.7489 16.0375 79.8272 15.6965C79.7776 16.0346 79.7303 16.3771 79.7057 16.7332C79.6958 16.8759 79.688 17.019 79.6825 17.1629C79.6764 17.3056 79.672 17.448 79.6697 17.5916C79.6653 17.8786 79.6691 18.1681 79.6807 18.4598C79.7036 19.0421 79.759 19.6354 79.8417 20.2287C79.9905 20.1298 80.1407 19.9788 80.2834 19.7973C80.4256 19.6139 80.5613 19.4023 80.6747 19.1637C80.9013 18.6855 81.0524 18.1381 81.0553 17.6222C81.0587 16.9722 80.9459 16.2797 80.7353 15.6364C80.5251 14.9928 80.2185 14.3978 79.8423 13.9387C79.6656 14.0915 79.5078 14.2972 79.3628 14.5238C79.2178 14.7503 79.0905 15.0087 78.9828 15.2827C78.9295 15.4207 78.8799 15.559 78.8352 15.6988C78.7908 15.8389 78.7523 15.981 78.7195 16.1229C78.6542 16.4066 78.6136 16.69 78.6035 16.9551C78.5582 18.0687 78.8297 19.2908 79.4881 20.1354C79.4643 19.7422 79.4562 19.3579 79.4588 18.9733H79.4585Z" fill="white"/>
<path d="M83.1398 21.967C82.7132 21.6648 82.1661 21.4426 81.6455 21.3217C81.3847 21.2608 81.126 21.216 80.8908 21.2031C80.655 21.1884 80.4418 21.2031 80.2634 21.2437C80.6286 21.7178 81.0207 22.1566 81.4485 22.5606C81.6623 22.7622 81.8848 22.9546 82.1168 23.1365C82.2328 23.2274 82.3512 23.316 82.4718 23.4014C82.5919 23.4855 82.714 23.5668 82.839 23.6453C83.1509 23.8413 83.478 24.0058 83.8125 24.1615C83.4519 24.0294 83.103 23.8755 82.7668 23.7009C82.5992 23.6147 82.4333 23.5203 82.27 23.4202C82.107 23.3204 81.9474 23.2157 81.7908 23.1065C81.4781 22.8876 81.1782 22.6495 80.8919 22.3935C80.6056 22.1374 80.3298 21.857 80.0693 21.5639C80.1761 22.6348 80.8069 23.7139 81.729 24.4196C81.9451 24.5841 82.2064 24.7333 82.4971 24.8589C82.6424 24.9216 82.795 24.9787 82.9527 25.029C83.1108 25.0797 83.2738 25.1229 83.438 25.155C83.7672 25.2212 84.1086 25.2568 84.4433 25.2553C84.7778 25.2539 85.1 25.2053 85.3982 25.1209C85.2996 24.5211 84.9999 23.9222 84.5933 23.3781C84.1863 22.8343 83.6735 22.3446 83.1395 21.967H83.1398Z" fill="white"/>
<path d="M83.5462 18.2341C83.4241 17.5158 83.3559 16.8086 83.34 16.1235C83.333 15.7827 83.3342 15.4387 83.3501 15.105C83.3658 14.7704 83.3945 14.4426 83.436 14.1218C83.4209 14.4373 83.4081 14.7557 83.4183 15.0847C83.4528 16.1421 83.6074 17.2032 83.878 18.2794C84.1303 18.064 84.3786 17.6803 84.5402 17.218C84.7044 16.7592 84.7922 16.2421 84.7447 15.7648C84.6333 14.5715 84.0697 13.2713 83.2886 12.5027C83.1389 12.6616 83.0087 12.862 82.8979 13.0895C82.7859 13.3158 82.6891 13.5627 82.6145 13.8255C82.4672 14.3528 82.3886 14.9126 82.4199 15.4019C82.4875 16.4369 82.8567 17.5249 83.5462 18.2341Z" fill="white"/>
<path d="M87.0679 19.5485C86.6505 19.3157 86.1281 19.1645 85.6379 19.1015C85.1495 19.0429 84.681 19.0538 84.3643 19.1674C85.1248 19.9585 85.9836 20.6377 86.9562 21.1159C87.2605 21.2662 87.576 21.3869 87.8965 21.4984C87.5543 21.4107 87.2204 21.3019 86.8956 21.1733C86.5704 21.0438 86.2566 20.8984 85.9477 20.7256C85.3319 20.3834 84.7556 19.967 84.2207 19.4844C84.4246 20.4531 85.1138 21.3819 86.0208 21.9313C86.448 22.1909 87.0383 22.3836 87.6514 22.4407C87.9583 22.4704 88.2751 22.4749 88.5779 22.4392C88.8801 22.4025 89.1722 22.3327 89.4358 22.2271C89.1391 21.1488 88.1167 20.1421 87.0679 19.5482V19.5485Z" fill="white"/>
<path d="M87.1664 16.0377C86.9886 15.3959 86.8615 14.7587 86.7844 14.1366C86.7017 13.5075 86.6715 12.8956 86.686 12.3006C86.704 12.5925 86.7191 12.8815 86.7588 13.1808C86.8209 13.6581 86.9163 14.1407 87.0353 14.6178C87.1539 15.0945 87.3009 15.5718 87.4735 16.048C87.5791 15.9388 87.6792 15.7899 87.7668 15.6151C87.8535 15.4391 87.9246 15.2331 87.9788 15.0174C88.0325 14.8011 88.0678 14.5728 88.0791 14.3456C88.089 14.1166 88.0736 13.8874 88.0313 13.6734C87.8201 12.5972 87.1867 11.4663 86.4038 10.8401C86.2817 10.9987 86.1813 11.1935 86.1007 11.4113C86.0807 11.4657 86.0618 11.5216 86.0441 11.5784C86.0259 11.6346 86.0082 11.6917 85.9922 11.75C85.96 11.8665 85.9325 11.9872 85.9101 12.1099C85.8652 12.3553 85.8408 12.6111 85.835 12.8589C85.8275 13.1049 85.8411 13.3459 85.8774 13.5666C86.032 14.5007 86.4755 15.463 87.1669 16.0377H87.1664Z" fill="white"/>
<path d="M90.4982 16.8998C90.2963 16.8119 90.0744 16.7489 89.8461 16.705C89.6164 16.6591 89.3809 16.6344 89.1544 16.6285C88.9272 16.6223 88.7109 16.6382 88.5136 16.668C88.3155 16.6968 88.1401 16.7442 88.0002 16.8098C88.3846 17.135 88.7869 17.4304 89.2109 17.6894C89.6344 17.9478 90.0753 18.1635 90.5426 18.3383C90.8332 18.446 91.1337 18.5296 91.4336 18.5973C90.7958 18.5049 90.1771 18.3268 89.5889 18.0802C88.9957 17.8259 88.4316 17.5005 87.8984 17.1117C88.1783 17.9796 88.889 18.7518 89.7678 19.1696C89.9749 19.2685 90.2165 19.3471 90.4776 19.4015C90.7378 19.4542 91.0156 19.4795 91.2987 19.4792C91.4403 19.4789 91.5827 19.4719 91.7242 19.4577C91.795 19.4507 91.8655 19.4421 91.9354 19.431C92.0047 19.4192 92.0735 19.4054 92.1416 19.3901C92.4137 19.328 92.6736 19.237 92.9042 19.1164C92.5343 18.1623 91.5096 17.3419 90.4985 16.8998H90.4982Z" fill="white"/>
<path d="M88.9398 11.5264C89.168 12.3536 89.6591 13.1797 90.3384 13.6317C90.1165 13.069 89.9433 12.5081 89.8128 11.9525C89.6777 11.3928 89.5921 10.8449 89.546 10.3069C89.5921 10.5688 89.6327 10.8272 89.6977 11.0932C89.8003 11.5179 89.9312 11.9422 90.0863 12.3633C90.2386 12.7818 90.4164 13.1985 90.6174 13.6114C90.7027 13.5028 90.7793 13.3589 90.8416 13.1926C90.9014 13.0234 90.9472 12.8318 90.9751 12.6314C91.0029 12.431 91.0128 12.2215 91.0012 12.0158C90.987 11.8075 90.951 11.6026 90.8918 11.414C90.596 10.4641 89.912 9.50882 89.1451 9.02002C88.9577 9.32754 88.8655 9.76102 88.8284 10.2092C88.8118 10.4346 88.8142 10.6665 88.8339 10.8916C88.8516 11.115 88.8858 11.3304 88.9398 11.5261V11.5264Z" fill="white"/>
<path d="M93.4309 14.0822C93.24 14.0234 93.0329 13.988 92.8229 13.9722C92.6106 13.9533 92.3954 13.9542 92.1897 13.9713C91.9844 13.9886 91.7886 14.0225 91.6151 14.0707C91.4391 14.1161 91.2845 14.1755 91.1644 14.2485C91.5426 14.5048 91.9342 14.7326 92.3423 14.9253C92.7478 15.1149 93.1684 15.2679 93.6075 15.3788C93.8807 15.4468 94.1612 15.4936 94.4385 15.523C93.8526 15.5051 93.2751 15.4041 92.7199 15.2399C92.1613 15.0707 91.6186 14.8297 91.1006 14.5304C91.435 15.2867 92.15 15.9153 92.9848 16.2072C93.1814 16.2761 93.4079 16.3243 93.6487 16.347C93.888 16.3673 94.1429 16.3635 94.3993 16.3346C94.9142 16.2817 95.4247 16.1078 95.8206 15.8411C95.3951 15.0157 94.3877 14.3794 93.4309 14.0819V14.0822Z" fill="white"/>
<path d="M91.4121 8.78901C91.4535 8.98618 91.5057 9.17305 91.5748 9.34167C91.8657 10.0532 92.3884 10.7398 93.0413 11.072C92.7852 10.593 92.5737 10.1124 92.3965 9.63095C92.2155 9.14715 92.0803 8.66982 91.9779 8.19868C92.0493 8.42587 92.1131 8.6504 92.2004 8.87965C92.3382 9.24573 92.5003 9.60917 92.6839 9.96849C92.8646 10.3257 93.0659 10.6777 93.2881 11.025C93.3528 10.9187 93.4073 10.7836 93.4445 10.6277C93.4798 10.4702 93.5004 10.2946 93.5039 10.1133C93.5074 9.9317 93.4938 9.74425 93.461 9.56238C93.4253 9.37845 93.3705 9.20012 93.2968 9.03885C92.9276 8.22634 92.2083 7.4568 91.473 7.10425C91.3442 7.39353 91.3152 7.78463 91.3311 8.18514C91.3419 8.38614 91.3694 8.59155 91.4121 8.78901Z" fill="white"/>
<path d="M95.8533 11.1355C95.6761 11.1049 95.4873 11.0973 95.2979 11.107C95.1059 11.114 94.9133 11.1385 94.7311 11.1764C94.5493 11.2144 94.3778 11.2662 94.2279 11.3283C94.0762 11.3889 93.9431 11.4575 93.8433 11.5355C94.2076 11.7241 94.582 11.8862 94.9664 12.0134C95.3484 12.1379 95.7411 12.2279 96.1463 12.2776C96.3983 12.3074 96.655 12.318 96.9071 12.3112C96.3792 12.3636 95.8507 12.3383 95.3368 12.2529C94.8199 12.1643 94.3088 12.0057 93.8154 11.7938C94.1913 12.4342 94.8936 12.9209 95.6721 13.0907C95.8551 13.1305 96.0642 13.1502 96.2818 13.1419C96.4987 13.1331 96.7273 13.1004 96.9547 13.0448C97.4121 12.9386 97.8532 12.7196 98.1825 12.431C97.7146 11.7394 96.7418 11.2912 95.8542 11.1352L95.8533 11.1355Z" fill="white"/>
<path d="M93.5275 6.60301C93.5928 6.76957 93.6598 6.92495 93.7421 7.06356C94.0864 7.64741 94.6277 8.18771 95.2414 8.40018C95.1005 8.20596 94.9682 8.00967 94.8446 7.8128C94.7208 7.61563 94.6079 7.41846 94.4966 7.21805C94.3866 7.01853 94.2857 6.81901 94.1935 6.62066C94.1473 6.52149 94.1035 6.42232 94.0621 6.32373C94.0223 6.22721 93.9817 6.12863 93.9402 6.02798C94.0357 6.21514 94.1204 6.40142 94.2271 6.58918C94.3959 6.88964 94.585 7.18627 94.7916 7.47761C94.9978 7.76865 95.215 8.05116 95.4532 8.32867C95.4967 8.22715 95.5309 8.10355 95.5413 7.96053C95.5526 7.81809 95.5486 7.66154 95.5286 7.50233C95.5083 7.34312 95.4732 7.18156 95.4198 7.02677C95.3635 6.87051 95.2919 6.72249 95.2052 6.59182C94.7721 5.93263 94.0336 5.36555 93.3439 5.15161C93.274 5.41176 93.3091 5.749 93.3758 6.09155C93.4123 6.26311 93.4643 6.43703 93.5275 6.60301Z" fill="white"/>
<path d="M97.23 8.13998C97.0624 8.17294 96.8947 8.21973 96.7393 8.27741C96.5835 8.33509 96.4391 8.40278 96.3149 8.47693C96.1914 8.55168 96.08 8.62702 96.002 8.70853C96.3448 8.8286 96.6963 8.92571 97.0485 8.98575C97.4 9.04519 97.7579 9.07226 98.1222 9.0602C98.3488 9.05166 98.5779 9.02577 98.7989 8.98221C98.7418 8.99811 98.6846 9.01311 98.6272 9.02665C98.5689 9.03931 98.5106 9.05108 98.4523 9.06167C98.3357 9.08315 98.2191 9.10052 98.1025 9.11405C97.8693 9.14113 97.6361 9.1526 97.4038 9.14878C97.1729 9.14642 96.9365 9.12318 96.7033 9.08786C96.4698 9.05225 96.2378 9.00252 96.0075 8.93984C96.4141 9.4566 97.0896 9.79973 97.7985 9.8477C97.9647 9.858 98.1539 9.85005 98.3435 9.81032C98.5344 9.77236 98.7331 9.71144 98.9283 9.62993C99.3222 9.47219 99.6853 9.20734 99.9426 8.89893C99.4431 8.35128 98.5245 8.10055 97.7228 8.08731C97.5627 8.08525 97.3954 8.10496 97.2303 8.13969L97.23 8.13998Z" fill="white"/>
<path d="M94.8225 3.78896C94.8454 3.85576 94.8721 3.92374 94.9023 3.99172C94.9626 4.12738 95.036 4.26363 95.1175 4.39223C95.1996 4.52084 95.2901 4.64237 95.3794 4.74596C95.7658 5.18532 96.3113 5.56789 96.8717 5.65647C96.5701 5.36719 96.3024 5.06879 96.0459 4.7648C95.9198 4.61324 95.8006 4.46139 95.6889 4.30984C95.6332 4.23391 95.5793 4.15828 95.5273 4.08295C95.4757 4.00908 95.4229 3.93374 95.3687 3.85664C95.4264 3.92786 95.4833 3.99849 95.5392 4.06735C95.5946 4.13768 95.6518 4.20831 95.7124 4.27864C95.9064 4.50347 96.1164 4.72418 96.3401 4.93901C96.4514 5.04642 96.568 5.15295 96.6849 5.25683C96.801 5.36071 96.9205 5.46254 97.0434 5.56289C97.055 5.51639 97.0629 5.46518 97.0669 5.41015C97.0687 5.35453 97.0661 5.2948 97.0597 5.233C97.0469 5.1094 97.0188 4.97668 96.9764 4.84455C96.8961 4.58116 96.7383 4.31719 96.5457 4.1265C96.0625 3.64299 95.3304 3.30163 94.7042 3.23218C94.6984 3.34194 94.7169 3.46348 94.7538 3.5915C94.772 3.65565 94.7952 3.72127 94.8219 3.78837L94.8225 3.78896Z" fill="white"/>
<path d="M98.9554 4.9719C98.6784 5.02663 98.3959 5.16053 98.1413 5.30973C98.016 5.38566 97.902 5.46805 97.8063 5.55222C97.7584 5.5943 97.7155 5.63727 97.6772 5.67964C97.6372 5.72114 97.6024 5.76263 97.5742 5.80354C97.7314 5.82855 97.8892 5.84738 98.047 5.85945C98.2042 5.87122 98.3591 5.87475 98.5157 5.87122C98.8281 5.86386 99.1414 5.8259 99.4549 5.75115C99.5527 5.72791 99.6495 5.69965 99.7455 5.66787C99.8398 5.63491 99.9323 5.59724 100.025 5.5584C99.9312 5.60725 99.8387 5.65433 99.7412 5.69406C99.6434 5.73379 99.5451 5.76969 99.4462 5.80206C99.2484 5.86681 99.0485 5.91713 98.8473 5.95362C98.4481 6.02837 98.0284 6.03778 97.6131 6.00188C98.0395 6.38356 98.6721 6.57602 99.2942 6.49922C99.4424 6.48244 99.5985 6.43771 99.758 6.37062C99.9178 6.30381 100.081 6.21465 100.238 6.10753C100.317 6.05397 100.394 5.9957 100.468 5.9339C100.539 5.86916 100.608 5.80059 100.672 5.72879C100.801 5.58518 100.914 5.42833 101 5.26618C100.482 4.87831 99.6475 4.83859 98.9552 4.97219L98.9554 4.9719Z" fill="white"/>
<path d="M98.5024 2.33355C98.5883 2.03339 98.6593 1.73498 98.7145 1.44159C98.7316 1.35006 98.7458 1.25972 98.7585 1.17055L98.8006 0.901285C98.7925 0.995455 98.7844 1.08757 98.7765 1.17791C98.7696 1.26973 98.7606 1.36272 98.7504 1.45659C98.7298 1.64464 98.7026 1.83681 98.6692 2.03221C98.5996 2.42625 98.5175 2.82088 98.4015 3.22522C98.8406 2.8609 99.1205 2.25115 99.2348 1.67377C99.26 1.5384 99.2774 1.38744 99.2841 1.23412C99.2905 1.08109 99.2859 0.926005 99.2702 0.777981C99.2624 0.704117 99.2516 0.631724 99.238 0.562273C99.2278 0.490763 99.2148 0.422195 99.1988 0.357453C99.1666 0.22797 99.1223 0.113788 99.0625 0.0219727C98.5569 0.403067 98.0958 1.07344 97.92 1.73852C97.8492 2.0019 97.8446 2.3106 97.9067 2.57898C97.936 2.71465 97.9777 2.84354 98.0285 2.95684C98.0537 3.01334 98.0813 3.06602 98.1106 3.1134C98.1413 3.15872 98.1735 3.19903 98.2069 3.23317C98.2628 3.08368 98.315 2.93418 98.3635 2.78527C98.4125 2.63548 98.4598 2.48393 98.5024 2.33414V2.33355Z" fill="white"/>
</g>
<defs>
<clipPath id="clip0_352_198">
<rect width="101" height="39.956" fill="white" transform="translate(0 0.0219727)"/>
</clipPath>
</defs>
</svg>
