<svg width="299" height="104" fill="none" xmlns="http://www.w3.org/2000/svg"><path d="M103.859 24.786h.819c1.318 2.702 3.136 7.322 5.454 13.86 1.495 4.189 2.52 6.758 3.076 7.709.556.95 1.45 1.478 2.68 1.584.39.035.585.165.585.39 0 .164-.1.247-.3.247l-.248-.018c-1.086-.094-2.467-.141-4.143-.141-2.572 0-4.224.04-4.956.124-.366 0-.548-.107-.548-.319 0-.154.135-.248.407-.283 1.003-.095 1.696-.266 2.079-.514.384-.247.576-.637.576-1.168 0-.507-.359-1.776-1.078-3.805l-1.043-3.045c-.614 0-3.358.035-8.231.106-1.23 3.269-1.844 5.33-1.844 6.184 0 .724.304 1.26.912 1.61.607.35 1.206.543 1.796.579.437.034.655.166.655.396 0 .092-.071.178-.212.259-1.889-.083-3.027-.124-3.417-.124-1.982 0-3.316.023-4 .07-.378 0-.567-.106-.567-.318 0-.19.166-.307.496-.354 1.357-.177 2.396-1.098 3.115-2.761.72-1.664 1.842-4.656 3.366-8.975a135.995 135.995 0 014.571-11.293zm-.706 3.858c-1.099 2.243-2.381 5.5-3.846 9.772a61.559 61.559 0 012.619-.089l4.975.089a184.105 184.105 0 00-1.839-4.886c-.966-2.419-1.602-4.047-1.909-4.886zm28.189 19.861c-1.167.165-2.08.248-2.74.248-1.732 0-3.447-.48-5.144-1.443-1.697-.961-3.064-2.333-4.102-4.115-1.036-1.782-1.555-3.788-1.555-6.019 0-3.268 1.152-6.133 3.458-8.593 2.305-2.46 5.132-3.69 8.481-3.69 2.146 0 4.071.521 5.775 1.566 1.704 1.044 3.048 2.48 4.033 4.31.984 1.829 1.477 3.7 1.477 5.611 0 1.558-.349 3.154-1.045 4.788-.696 1.634-1.611 3.024-2.743 4.169a17.786 17.786 0 01-3.903 2.964c-1.47.833-3.201 1.626-5.196 2.381-1.498.579-2.555 1.015-3.168 1.31.485-.035.863-.053 1.135-.053.863 0 1.626.136 2.288.407.662.272 1.736.873 3.221 1.806 1.922 1.18 3.379 1.77 4.369 1.77.743 0 1.368-.165 1.875-.496.507-.33 1.108-.926 1.804-1.788.189-.236.36-.353.513-.353.224 0 .336.112.336.336 0 .436-.636 1.286-1.91 2.549-1.274 1.262-2.842 1.894-4.705 1.894-.943 0-1.942-.227-2.998-.682-1.055-.454-2.596-1.419-4.624-2.894-1.155-.826-2.092-1.239-2.811-1.239-.719 0-1.229.215-1.53.646-.3.431-.504 1.13-.61 2.098-.059.66-.186 1.127-.38 1.398-.195.271-.528.407-1 .407-.307 0-.593-.118-.859-.354a1.155 1.155 0 01-.398-.903c0-.578.318-1.271.955-2.08.637-.808 1.481-1.501 2.531-2.08 1.049-.578 2.728-1.31 5.036-2.194 2.132-.814 3.51-1.375 4.134-1.682zm-9.576-12.214c0 1.948.283 3.857.849 5.727.565 1.87 1.444 3.307 2.634 4.31 1.19 1.003 2.57 1.505 4.137 1.505 2.287 0 4.138-1.077 5.552-3.231 1.414-2.153 2.122-4.788 2.122-7.903 0-2.939-.702-5.494-2.104-7.665-1.403-2.171-3.283-3.257-5.641-3.257-2.31 0-4.146 1.08-5.507 3.24-1.361 2.159-2.042 4.584-2.042 7.274zm21.825-11.045h8.868c.508 0 .761.106.761.319 0 .212-.188.336-.566.371-.838.083-1.457.313-1.859.69-.401.378-.705 1.045-.911 2-.207.957-.31 3.004-.31 6.143 0 3.765.109 6.373.328 7.824.218 1.451.902 2.605 2.053 3.46 1.15.856 2.717 1.284 4.699 1.284 2.077 0 3.659-.395 4.744-1.186 1.086-.79 1.791-1.965 2.116-3.523.324-1.557.486-4.938.486-10.142 0-2.679-.277-4.434-.832-5.266-.554-.832-1.374-1.248-2.46-1.248-.437 0-.655-.124-.655-.372 0-.236.289-.354.867-.354h7.081c.319 0 .478.118.478.354 0 .165-.13.266-.39.301-.896.13-1.554.413-1.973.85-.419.436-.694 1.227-.823 2.371-.13 1.145-.195 2.827-.195 5.045 0 2.773-.103 5.128-.31 7.063-.206 1.936-.652 3.378-1.336 4.328-.685.95-1.714 1.717-3.089 2.301-1.375.584-3.065.876-5.071.876-2.054 0-3.803-.328-5.249-.983-1.445-.656-2.425-1.524-2.938-2.604-.514-1.08-.77-2.696-.77-4.845l.071-4.907c0-4.358-.186-7.024-.558-7.998-.372-.974-1.171-1.474-2.398-1.497-.402 0-.602-.098-.602-.293 0-.241.248-.362.743-.362zm35.161-.46h.818c1.318 2.702 3.137 7.322 5.455 13.86 1.495 4.189 2.52 6.758 3.076 7.709.556.95 1.449 1.478 2.68 1.584.39.035.585.165.585.39 0 .164-.1.247-.301.247l-.248-.018c-1.085-.094-2.466-.141-4.142-.141-2.572 0-4.224.04-4.956.124-.366 0-.549-.107-.549-.319 0-.154.136-.248.407-.283 1.003-.095 1.697-.266 2.08-.514.384-.247.576-.637.576-1.168 0-.507-.36-1.776-1.079-3.805l-1.043-3.045c-.613 0-3.357.035-8.231.106-1.229 3.269-1.843 5.33-1.843 6.184 0 .724.303 1.26.911 1.61.608.35 1.207.543 1.797.579.436.034.655.166.655.396 0 .092-.071.178-.213.259-1.888-.083-3.027-.124-3.416-.124-1.982 0-3.316.023-4 .07-.378 0-.567-.106-.567-.318 0-.19.166-.307.496-.354 1.357-.177 2.395-1.098 3.115-2.761.72-1.664 1.842-4.656 3.366-8.975a135.925 135.925 0 014.571-11.293zm-.706 3.858c-1.099 2.243-2.381 5.5-3.847 9.772a61.627 61.627 0 012.62-.089l4.975.089a184.105 184.105 0 00-1.839-4.886c-.966-2.419-1.603-4.047-1.909-4.886zm22.33-3.38l3.646-.071c4.614 0 8.102 1.121 10.462 3.363 2.36 2.242 3.54 5.069 3.54 8.479 0 2.419-.567 4.523-1.699 6.31-1.133 1.788-2.549 3.136-4.249 4.045-1.699.909-3.965 1.363-6.797 1.363a35.34 35.34 0 01-2.425-.106c-1.746-.142-2.726-.213-2.938-.213-3.871 0-6.148.042-6.833.124-.389 0-.584-.099-.584-.296 0-.138.071-.23.212-.276.142-.046.579-.115 1.31-.207.944-.13 1.608-.508 1.992-1.133.383-.626.622-2.575.716-5.846l.284-9.372c0-1.086-.074-2.134-.221-3.144-.148-1.01-.378-1.66-.691-1.95-.313-.288-.811-.486-1.496-.592-.495-.071-.743-.207-.743-.408 0-.247.124-.371.372-.371.236 0 .959.05 2.168.15 1.21.1 2.534.15 3.974.15zm-.62 17.099c0 1.558.104 2.67.31 3.337.207.666.649 1.215 1.328 1.646.678.43 1.767.646 3.266.646 2.147 0 3.888-.508 5.221-1.523 1.334-1.014 2.375-2.365 3.125-4.053a13.117 13.117 0 001.124-5.381c0-2.809-.856-5.352-2.567-7.63-1.711-2.277-4.372-3.415-7.983-3.415-1.605 0-2.54.053-2.806.159-.265.106-.398.419-.398.938 0 .46-.041 1.28-.124 2.46a133.821 133.821 0 00-.23 4.036l-.159 4.868a247.7 247.7 0 00-.107 3.912zm21.701-17.117h8.869c.507 0 .761.106.761.319 0 .212-.189.336-.567.371-.838.083-1.457.313-1.858.69-.402.378-.705 1.045-.912 2-.207.957-.31 3.004-.31 6.143 0 3.765.11 6.373.328 7.824.218 1.451.903 2.605 2.053 3.46 1.151.856 2.717 1.284 4.7 1.284 2.077 0 3.658-.395 4.743-1.186 1.086-.79 1.791-1.965 2.116-3.523.324-1.557.487-4.938.487-10.142 0-2.679-.278-4.434-.832-5.266-.555-.832-1.375-1.248-2.461-1.248-.436 0-.655-.124-.655-.372 0-.236.289-.354.868-.354h7.08c.319 0 .478.118.478.354 0 .165-.13.266-.389.301-.897.13-1.555.413-1.974.85-.419.436-.694 1.227-.823 2.371-.13 1.145-.195 2.827-.195 5.045 0 2.773-.103 5.128-.31 7.063-.206 1.936-.652 3.378-1.336 4.328-.684.95-1.714 1.717-3.089 2.301-1.375.584-3.065.876-5.071.876-2.054 0-3.803-.328-5.249-.983-1.445-.656-2.425-1.524-2.938-2.604-.513-1.08-.77-2.696-.77-4.845l.071-4.907c0-4.358-.186-7.024-.558-7.998-.372-.974-1.171-1.474-2.398-1.497-.402 0-.602-.098-.602-.293 0-.241.248-.362.743-.362zm45.402 1.469c.65-.578 1.022-.968 1.116-1.168.118-.283.289-.425.514-.425.236 0 .365.212.389.637l.389 6.178c0 .354-.014.57-.044.646-.029.077-.115.115-.256.115-.189 0-.39-.254-.602-.76-.779-1.882-1.865-3.422-3.257-4.62-1.405-1.193-2.927-1.789-4.567-1.789-1.44 0-2.761.463-3.965 1.39-1.204.926-2.139 2.248-2.806 3.965-.666 1.717-1 3.56-1 5.531 0 3.352.924 6.075 2.771 8.17 1.847 2.094 3.91 3.141 6.188 3.141 1.547 0 2.969-.49 4.267-1.469 1.299-.98 2.279-2.112 2.94-3.399.177-.353.359-.53.548-.53.26 0 .39.141.39.424 0 .343-.449 1.092-1.346 2.248-.897 1.157-2.074 2.095-3.532 2.815a10.471 10.471 0 01-4.7 1.08c-1.972 0-3.846-.502-5.622-1.505a11.2 11.2 0 01-4.222-4.16c-1.039-1.77-1.558-3.847-1.558-6.23 0-2.337.505-4.444 1.515-6.32 1.009-1.876 2.43-3.334 4.26-4.372 1.831-1.038 3.721-1.558 5.67-1.558 1.039 0 2.102.163 3.189.487 1.087.325 2.197.817 3.331 1.478zm5.277 9.966c0-1.593.484-3.343 1.451-5.248.968-1.906 2.381-3.479 4.239-4.718 1.859-1.239 3.957-1.858 6.293-1.858 3.269 0 5.968 1.168 8.098 3.505 2.131 2.336 3.195 5.003 3.195 8 0 3.186-1.18 6.045-3.54 8.576-2.36 2.532-5.198 3.797-8.514 3.797-3.174 0-5.838-1.109-7.992-3.328-2.153-2.218-3.23-5.127-3.23-8.726zm3.947-.576c0 1.925.295 3.9.884 5.926.589 2.025 1.515 3.496 2.776 4.411 1.261.915 2.611 1.373 4.049 1.373 2.322 0 4.181-1.131 5.578-3.393 1.397-2.261 2.095-4.88 2.095-7.856 0-2.882-.713-5.412-2.139-7.591-1.427-2.18-3.289-3.269-5.587-3.269-1.733 0-3.177.582-4.332 1.745-1.155 1.163-1.998 2.554-2.528 4.172-.531 1.618-.796 3.112-.796 4.482zM93.01 84.197l-1.883-7.542h1.483l1.378 5.519 1.302-5.519h1.307l1.233 5.488 1.449-5.488h1.086l-1.976 7.542h-1.502l-1.161-5.172-1.22 5.172H93.01zm7.559 0l2.937-7.542h1.573l2.935 7.542h-1.613l-.783-2.013h-3.122l-.784 2.013h-1.143zm2.318-3.017h2.34l-1.17-3.006-1.17 3.006zm8.068 3.017v-6.502h-2.701v-1.04h6.971v1.04h-2.701v6.502h-1.569zm5.324 0v-7.542h4.831v1.04h-3.261v2.1h2.695v1.039h-2.695v2.293h3.5v1.07h-5.07zm6.268 0v-7.542h2.823c.577 0 1.017.073 1.32.217.302.144.541.363.716.657.175.294.262.626.262.996 0 .442-.127.859-.382 1.251a2.429 2.429 0 01-1.081.9l2.469 3.52h-1.911l-1.876-3.082h-.862v3.083h-1.478zm1.478-4.118h.361c.648 0 1.095-.14 1.342-.422.247-.282.37-.602.37-.959 0-.309-.1-.554-.301-.736-.201-.181-.609-.272-1.226-.272h-.546v2.39zm10.623-3.424h-1.569v7.542h1.569v-7.542zm1.891 7.542v-7.542h1.383l3.488 5.152v-5.152h1.259v7.542h-1.408l-3.463-5.152v5.152h-1.259zm8.021 0v-7.542h4.698v1.04h-3.129v2.288h2.563v1.04h-2.563v3.174h-1.569zm5.992 0v-7.542h2.823c.577 0 1.017.073 1.32.217.302.144.541.363.716.657.175.294.262.626.262.996 0 .442-.127.859-.382 1.251a2.431 2.431 0 01-1.08.9l2.469 3.52h-1.912l-1.875-3.082h-.863v3.083h-1.478zm1.478-4.118h.361c.648 0 1.095-.14 1.342-.422.247-.282.371-.602.371-.959 0-.309-.101-.554-.302-.736-.201-.181-.61-.272-1.226-.272h-.546v2.39zm4.897 4.118l2.936-7.542h1.574l2.934 7.542h-1.612l-.784-2.013h-3.122l-.784 2.013h-1.142zm2.317-3.017h2.34l-1.169-3.006-1.171 3.006zm5.769 2.95v-1.294c.589.247 1.029.395 1.32.443.291.048.559.072.803.072.441 0 .77-.099.987-.296a.924.924 0 00.325-.709.963.963 0 00-.182-.571c-.122-.166-.419-.382-.892-.648l-.509-.28c-.727-.405-1.219-.779-1.476-1.122a1.917 1.917 0 01-.391-1.193c0-.568.217-1.054.651-1.459.434-.404 1.058-.606 1.871-.606.608 0 1.292.086 2.054.26v1.208c-.779-.29-1.399-.434-1.858-.434-.379 0-.668.083-.866.248-.199.164-.298.362-.298.594 0 .176.061.341.182.494.118.153.413.363.886.628l.546.3c.833.466 1.364.87 1.594 1.213.226.347.339.736.339 1.167 0 .618-.236 1.145-.707 1.583-.471.439-1.221.657-2.25.657-.61 0-1.319-.085-2.129-.255zm8.261.067v-6.502h-2.701v-1.04h6.971v1.04h-2.701v6.502h-1.569zm5.325 0v-7.542h2.823c.577 0 1.017.073 1.319.217.303.144.542.363.716.657.175.294.263.626.263.996 0 .442-.128.859-.382 1.251a2.429 2.429 0 01-1.081.9l2.469 3.52h-1.911l-1.876-3.082h-.863v3.083h-1.477zm1.477-4.118h.362c.647 0 1.095-.14 1.342-.422.247-.282.37-.602.37-.959 0-.309-.1-.554-.301-.736-.201-.181-.61-.272-1.226-.272h-.547v2.39zm5.661-3.424h1.57v4.626c0 .836.142 1.39.425 1.662.284.272.652.408 1.103.408.445 0 .8-.134 1.063-.403.263-.268.395-.787.395-1.555v-4.738h1.365v4.632c0 .873-.109 1.5-.328 1.878a2.303 2.303 0 01-.951.894c-.414.218-.939.326-1.574.326-.625 0-1.162-.1-1.61-.303a2.44 2.44 0 01-1.065-.902c-.262-.399-.393-1.035-.393-1.908v-4.617zm13.816 7.246c-.33.145-.617.244-.862.298a8.194 8.194 0 01-.833.133 8.12 8.12 0 01-.92.053c-1.318 0-2.301-.372-2.95-1.116-.649-.744-.973-1.691-.973-2.843 0-1.158.323-2.108.971-2.848.647-.741 1.663-1.111 3.049-1.111.819 0 1.634.097 2.446.29v1.228c-.391-.136-.71-.235-.958-.298a6.464 6.464 0 00-.706-.14 4.9 4.9 0 00-.665-.046c-.866 0-1.494.279-1.885.836-.391.557-.586 1.246-.586 2.069 0 .862.222 1.56.665 2.094.443.533 1.103.8 1.98.8.73 0 1.472-.185 2.227-.555V83.9zm3.239.296v-6.502h-2.7v-1.04h6.971v1.04h-2.701v6.502h-1.57zm5.265-7.542h1.569v4.626c0 .836.142 1.39.426 1.662.283.272.651.408 1.103.408.445 0 .799-.134 1.062-.403.264-.268.395-.787.395-1.555v-4.738h1.366v4.632c0 .873-.11 1.5-.329 1.878a2.307 2.307 0 01-.95.894c-.415.218-.939.326-1.575.326-.625 0-1.162-.1-1.61-.303a2.452 2.452 0 01-1.065-.902c-.262-.399-.392-1.035-.392-1.908v-4.617zm7.745 7.542v-7.542h2.823c.577 0 1.017.073 1.319.217.303.144.541.363.716.657.175.294.263.626.263.996 0 .442-.128.859-.382 1.251a2.429 2.429 0 01-1.081.9l2.469 3.52h-1.911l-1.876-3.082h-.863v3.083h-1.477zm1.477-4.118h.362c.647 0 1.095-.14 1.342-.422.247-.282.37-.602.37-.959 0-.309-.1-.554-.301-.736-.201-.181-.61-.272-1.226-.272h-.547v2.39zm5.723 4.118v-7.542h4.83v1.04h-3.261v2.1h2.696v1.039h-2.696v2.293h3.501v1.07h-5.07zm11.476 0v-6.502h-2.701v-1.04h6.971v1.04h-2.701v6.502h-1.569zm5.324 0v-7.542h2.823c.577 0 1.017.073 1.319.217.303.144.541.363.716.657.175.294.263.626.263.996 0 .442-.128.859-.382 1.251a2.429 2.429 0 01-1.081.9l2.469 3.52h-1.911l-1.876-3.082h-.863v3.083h-1.477zm1.477-4.118h.361c.648 0 1.096-.14 1.343-.422.247-.282.37-.602.37-.959 0-.309-.1-.554-.301-.736-.201-.181-.61-.272-1.226-.272h-.547v2.39zm5.724 4.118v-7.542h4.83v1.04h-3.261v2.1h2.696v1.039h-2.696v2.293h3.501v1.07h-5.07zm5.44 0l2.937-7.542h1.573l2.935 7.542h-1.613l-.783-2.013h-3.122l-.784 2.013h-1.143zm2.318-3.017h2.34l-1.17-3.006-1.17 3.006zm8.068 3.017v-6.502h-2.701v-1.04h6.971v1.04h-2.701v6.502h-1.569zm5.324 0v-7.542h2.075l1.821 5.305 1.874-5.305h1.823v7.542h-1.447v-5.692l-1.843 5.187h-1.262l-1.807-5.263v5.768h-1.234zm9.474 0v-7.542h4.831v1.04h-3.262v2.1h2.696v1.039h-2.696v2.293h3.501v1.07h-5.07zm6.269 0v-7.542h1.383l3.488 5.152v-5.152h1.259v7.542h-1.408l-3.464-5.152v5.152h-1.258zm9.895 0v-6.502h-2.7v-1.04h6.971v1.04h-2.701v6.502h-1.57z" fill="#13264C"/><path fill-rule="evenodd" clip-rule="evenodd" d="M35.539 57.451c.332 0 .602-.27.602-.602l.244-9.54 4.369.102a.991.991 0 00.991-.991l.485-24.45a11.395 11.395 0 00-3.272-8.138 11.48 11.48 0 00-8.138-3.436c-3.196 0-6.1 1.286-8.185 3.39a11.447 11.447 0 00-3.321 8.184c.077 5.125.157 11.524.263 17.44.168 9.326.364 17.439.364 17.439 0 .522.423.945.945.945l14.653-.343zm-.619-1.22l-13.067-.305c.056-2.38.208-9.06.342-16.517.107-5.915.186-12.314.263-17.439.02-2.3.985-4.363 2.498-5.863a8.308 8.308 0 015.864-2.43 8.32 8.32 0 015.91 2.383 8.401 8.401 0 012.548 5.91l.465 23.482-4.204.099a.869.869 0 00-.87.869l.251 9.811zm35.607-31.96c.045-1.405-.2-2.788-.687-4.08a10.725 10.725 0 00-5.678-5.991 10.932 10.932 0 00-4.172-.939c-1.468-.04-2.91.223-4.255.737a11.144 11.144 0 00-6.197 5.944 11.314 11.314 0 00-.94 4.33c-.058 4.374-.161 9.48-.184 13.764-.026 5.193.028 9.176.028 9.176 0 .891.723 1.614 1.615 1.614l19.867-.374a1.24 1.24 0 001.24-1.24l-.637-22.94zm-1.206 0L68.72 45.95l-17.032-.32c.014-1.63.028-4.38.012-7.593-.022-4.285-.126-9.39-.184-13.765a8.63 8.63 0 012.362-6.113 8.716 8.716 0 012.766-1.968 8.817 8.817 0 013.347-.775 8.934 8.934 0 013.432.573 9.046 9.046 0 012.99 1.861 9.146 9.146 0 012.084 2.9c.498 1.1.786 2.293.826 3.522z" fill="#00254E"/><path fill-rule="evenodd" clip-rule="evenodd" d="M2.875 62.927l-.041-6.23 8.542-.062c.724 0 1.311-.587 1.311-1.311l-.284-33.93a10.495 10.495 0 00-3.323-7.57 10.95 10.95 0 00-6.761-2.952l-.087-9.315L75.477.783 1.442 0a.783.783 0 00-.783.783L.558 11.73c0 .489.396.885.884.885a9.126 9.126 0 016.314 2.588c1.622 1.586 2.615 3.778 2.592 6.19l-.273 32.61-8.633-.062c-.764 0-1.383.619-1.383 1.383L0 64.288c0 .796.646 1.442 1.442 1.442a8.439 8.439 0 015.968 2.523 8.389 8.389 0 012.421 5.968l-.108 27.856c0 .913.74 1.653 1.653 1.653l9.684.012c.92 0 1.665-.746 1.665-1.665l-.02-29.046A7.097 7.097 0 0124.771 68a7.126 7.126 0 015.031-2.103 7.133 7.133 0 015.062 2.072 7.164 7.164 0 012.122 5.062l.128 29.046c0 .791.641 1.432 1.432 1.432l11.82-.062a1.37 1.37 0 001.37-1.37l-.18-29.046a7.561 7.561 0 012.18-5.373 7.61 7.61 0 015.372-2.272h.001a7.682 7.682 0 017.132 4.69c.392.927.606 1.93.614 2.955l.218 29.046a.78.78 0 001.558 0l.219-29.046a9.755 9.755 0 00-2.817-6.924 9.79 9.79 0 00-6.924-2.917 9.877 9.877 0 00-9.157 6.048 9.922 9.922 0 00-.778 3.793l-.17 27.668-9.02-.047.122-27.621a10.302 10.302 0 00-3-7.303 10.331 10.331 0 00-7.303-3.05 10.344 10.344 0 00-7.335 3.02 10.377 10.377 0 00-3.053 7.333l-.02 27.383-6.374.008-.101-26.2a11.417 11.417 0 00-3.398-8.081 11.383 11.383 0 00-6.648-3.215z" fill="#00254E"/></svg>