<svg width="125" height="125" fill="none" xmlns="http://www.w3.org/2000/svg"><path d="M122.083 47.162c1.581-.731 2.307-2.184 2.914-3.709v-2.196c-1.111-3.266-3.414-4.495-6.815-4.432-6.862.127-13.727.026-20.59.053-.756.003-1.255-.194-1.746-.803C88.54 26.991 81.196 17.941 73.9 8.85c-.863-1.075-1.766-1.666-3.192-1.551-1.412.113-2.842-.018-4.262.041-.803.034-1.339-.201-1.839-.859-1.327-1.745-2.724-3.436-4.124-5.125-.407-.493-.91-.906-1.37-1.356H4.94c-.973.588-1.338 1.448-1.232 2.572.062.645-.02 1.302.018 1.95.098 1.75-.056 3.084-1.808 4.362-2.973 2.167-2.347 6.774.883 8.637.7.403.944.794.94 1.59-.037 5.656-.032 11.312-.008 16.967.003.712-.138 1.132-.838 1.528-3.774 2.133-3.789 7.312-.038 9.484.657.379.883.755.88 1.502a7187.31 7187.31 0 00-.007 29.784c0 .658-.123 1.061-.78 1.436-3.848 2.196-3.87 7.35-.034 9.537.708.404.817.84.817 1.54-.016 10.496-.012 20.995-.01 31.492 0 2.067.54 2.612 2.58 2.614 4.433.003 8.866.004 13.3 0 1.806-.003 2.417-.609 2.419-2.41.007-5.981-.024-11.963.019-17.943.023-3.157 2.135-5.91 5.119-6.875 2.947-.951 6.164.045 8.093 2.502 1.187 1.51 1.6 3.253 1.597 5.136-.008 5.574-.003 11.149-.002 16.723 0 2.465.412 2.867 2.926 2.868 4.31 0 8.622.005 12.934-.001 1.838-.003 2.435-.619 2.438-2.534.009-5.899-.035-11.799.023-17.698.041-4.078 3.19-7.25 7.134-7.346 4.1-.102 7.512 3.023 7.572 7.138.087 5.858.031 11.718.037 17.577.001 2.385.478 2.864 2.84 2.866 4.353 0 8.704.004 13.056-.002 1.81-.003 2.4-.588 2.402-2.414.007-5.818-.022-11.636.011-17.455.025-4.218 3.009-7.484 6.945-7.701 4.278-.237 7.824 3.046 7.857 7.375.044 5.859.011 11.717.014 17.577 0 2.07.54 2.618 2.577 2.62 4.393.003 8.784.003 13.177 0 1.974 0 2.547-.568 2.547-2.528.003-10.497.009-20.995-.013-31.492-.002-.806.141-1.308.962-1.7 1.477-.702 2.136-2.139 2.712-3.584v-2.197c-.644-1.657-1.515-3.102-3.211-3.933-.281-.138-.431-.799-.431-1.218-.025-8.287-.018-16.572-.018-24.859 0-1.666.025-3.332-.013-4.996-.014-.635.127-1.03.759-1.322l-.003-.007zM7.48 3.66h1.25c15.887 0 31.776.007 47.663-.02.898 0 1.526.202 2.046.964.592.867 1.304 1.655 2.118 2.668H7.48V3.66zm-3.743 9.082c.001-.963.766-1.67 1.831-1.751.323-.024.651-.008.976-.009 20.981 0 41.963.009 62.943-.028 1.056-.001 1.746.29 2.325 1.141.56.823 1.227 1.573 2.002 2.548H13.85c-1.896 0-2.762.549-2.801 1.773-.041 1.275.87 1.89 2.808 1.89 20.575 0 41.149.006 61.723-.02.907 0 1.462.271 2.028.98 4.44 5.56 8.927 11.084 13.4 16.618.2.247.39.503.72.925H7.38v-1.351c0-6.102.002-12.204 0-18.306 0-1.775-.314-2.144-2.073-2.534-1-.22-1.572-.838-1.569-1.879l-.001.003zm14.55 108.528H7.474v-3.556h10.813v3.556zm33.139-.013H40.6v-3.515h10.825v3.515zm33.07-.003H73.673v-3.507h10.825v3.507zm22.18-16.712c-.087-4.796-3.292-8.948-7.886-10.326-7.17-2.15-14.117 3.144-14.232 10.867-.042 2.922-.007 5.845-.007 8.844H73.57v-1.257c-.01-2.807.054-5.615-.045-8.419-.204-5.86-5.127-10.511-11.016-10.504-5.885.007-10.79 4.674-10.985 10.539-.091 2.763-.03 5.532-.04 8.298v1.363H40.503c0-1.974.038-3.912-.01-5.847-.049-1.905.055-3.861-.333-5.704-1.16-5.497-6.31-9.167-11.782-8.614a11.088 11.088 0 00-10.007 10.913c-.043 3.045-.008 6.093-.008 9.31H7.451V90.181h110.131v23.745h-10.894c0-3.145.044-6.265-.012-9.384zm10.952 16.711h-10.864v-3.485h10.864v3.485zm3.698-36.724c.042 1.274-.873 1.891-2.81 1.891H6.531c-1.936 0-2.848-.619-2.803-1.895.043-1.22.91-1.766 2.809-1.766h111.985c1.895 0 2.764.547 2.804 1.77zm-14.631-12.815c0-.474.009-.943 0-1.412-.068-3.25.151-6.536-.275-9.738-.716-5.383-5.654-9.191-11.177-9.043-5.358.144-9.944 4.316-10.54 9.69-.177 1.61-.127 3.248-.146 4.873-.022 1.829-.006 3.658-.006 5.63H73.57c0-2.055.035-4.076-.01-6.096-.042-1.825.055-3.692-.305-5.461-1.104-5.416-6.174-9.075-11.66-8.617-5.515.462-9.899 5.022-10.072 10.572-.086 2.723-.03 5.45-.036 8.175v1.484h-10.92c-.022-.478-.051-.903-.058-1.33-.05-3.088.107-6.197-.184-9.263-.545-5.744-5.67-9.92-11.518-9.652-5.61.257-10.273 4.98-10.422 10.63-.072 2.765-.019 5.532-.023 8.298v1.252H7.472V47.925h110.132v23.787h-10.908l-.001.002zm10.885 3.781v3.517h-10.828v-3.517h10.828zM88.224 62.737c.045-3.645 2.316-6.539 5.645-7.338 3.319-.796 6.69.663 8.246 3.687.455.882.847 1.915.86 2.885.081 5.65.04 11.298.04 17.036H88.212v-4.923c0-3.783-.035-7.565.012-11.347zm-3.74 12.788v3.483H73.642v-3.483h10.844zm-14.589 3.112c0 .112-.057.224-.103.395H55.26c-.036-.183-.103-.37-.103-.556 0-5.405-.041-10.81.025-16.214.038-3.058 1.997-5.618 4.864-6.647a7.318 7.318 0 017.915 1.946c1.13 1.237 1.887 2.688 1.901 4.375.05 5.566.031 11.133.034 16.7v.002zm-18.47-3.134v3.52H40.6v-3.52h10.826zm-14.583 2.842c0 .197-.03.394-.055.707H22.101c-.028-.263-.075-.494-.075-.723-.003-5.288-.034-10.575.012-15.862.03-3.716 2.804-6.76 6.48-7.25 3.512-.468 6.94 1.76 7.962 5.232.216.733.343 1.518.347 2.28.03 5.206.016 10.41.013 15.617l.002-.001zm-18.533-2.826v3.51H7.48v-3.51h10.83zm100.204-31.333H6.528c-1.892 0-2.76-.553-2.8-1.778-.041-1.272.872-1.884 2.813-1.884h111.985c1.894 0 2.763.552 2.801 1.775.04 1.273-.876 1.887-2.814 1.887z" fill="#13264C"/><path d="M59.224 33.196c1.136.016 2.273.003 3.41.003 1.096 0 2.192.018 3.289-.004 1.358-.028 2.053-.656 2.08-2.001.043-2.315.042-4.63 0-6.946-.023-1.359-.706-2.013-2.05-2.028a319.757 319.757 0 00-6.82 0c-1.361.013-2.052.65-2.079 1.997-.042 2.314-.042 4.63 0 6.946.024 1.404.716 2.013 2.17 2.033zm1.55-7.225h3.545v3.473h-3.545V25.97zm-34.699 7.224c2.234.02 4.47.02 6.703 0 1.42-.014 2.12-.677 2.141-2.076.033-2.275.033-4.553 0-6.827-.019-1.357-.7-2.05-2.022-2.068-2.315-.029-4.63-.029-6.946 0-1.333.017-1.969.702-1.995 2.07-.021 1.098-.005 2.194-.005 3.293 0 1.138-.012 2.276.003 3.414.02 1.522.642 2.18 2.124 2.194h-.003zm1.61-7.25h3.525v3.503h-3.524v-3.504z" fill="#13264C"/></svg>