<svg width="126" height="125" fill="none" xmlns="http://www.w3.org/2000/svg"><path d="M26.81 11.567l-.002-.07c-.009-.612.193-1.16.569-1.541a1.592 1.592 0 011.137-.491c.255 0 .503.063.736.188.405.217.738.549 1.06.87 5.19 5.18 10.36 10.35 15.526 15.524.064.064.136.13.21.196.282.255.573.518.606.852.064.643.056 1.495-.352 1.895-.224.219-.614.33-1.16.33-.223 0-.47-.018-.734-.054-.335-.046-.597-.334-.851-.613a5.959 5.959 0 00-.191-.204 7009.315 7009.315 0 01-15.506-15.515c-.328-.33-.59-.712-.8-1.018-.077-.112-.146-.213-.208-.295l-.04-.054zm98.439 96.547c.004.463-.241.926-.77 1.459a5490.32 5490.32 0 01-14.645 14.658c-.519.517-1.006.769-1.49.769-.455 0-.895-.219-1.348-.668a305.23 305.23 0 00-1.402-1.382c-1.739-1.707-3.537-3.472-5.156-5.342-2.542-2.934-3.282-6.415-2.199-10.346.163-.592.233-.949-.235-1.415-9.452-9.412-19.041-19.001-28.316-28.275l-6.78-6.78c-.068-.069-.144-.13-.237-.205l-.04-.033-.155.138c-.2.178-.397.352-.583.537l-11.71 11.709a95789.889 95789.889 0 01-22.767 22.759c-.442.441-.663.701-.475 1.338 1.26 4.268.339 8.083-2.737 11.342-1.564 1.657-3.217 3.281-4.815 4.851l-1.04 1.023c-.51.503-.99.747-1.47.747-.462 0-.91-.223-1.372-.682a4917.544 4917.544 0 01-13.114-13.105l-1.799-1.802a4.128 4.128 0 01-.389-.475 5.527 5.527 0 00-.16-.21L0 108.666v-1.136l.062-.062c.736-.737 1.464-1.484 2.192-2.231 1.624-1.666 3.304-3.389 5.059-4.977 1.998-1.808 4.358-2.725 7.012-2.725 1.025 0 2.1.14 3.196.414.273.068.504.1.706.1.475 0 .853-.185 1.304-.641 8.787-8.892 17.737-17.917 26.392-26.645l7.56-7.624c.185-.187.361-.382.484-.52l-9.917-9.93c-.59.477-1.037.75-1.494.75-.558 0-1.058-.397-1.785-1.13-.67-.673-1.331-1.364-1.97-2.033l-.722-.751-.087.06c-.068.047-.101.069-.13.096l-2.003 2c-.97.968-1.94 1.937-2.913 2.904-1.392 1.382-2.834 2.084-4.288 2.084-1.459 0-2.905-.706-4.3-2.098-3.147-3.14-6.29-6.284-9.433-9.428-2.742-2.743-5.484-5.486-8.23-8.227-2.823-2.82-4.659-5.8-5.612-9.112-.355-1.235-.571-2.526-.78-3.774a73.91 73.91 0 00-.3-1.705L0 22.305v-1.991l.004-.021c.118-.575.22-1.166.318-1.738.214-1.244.436-2.53.84-3.743C4.172 5.815 12.133 0 21.447 0c5.6 0 10.967 2.227 15.112 6.272 4.83 4.714 9.616 9.634 14.243 14.393 1.385 1.424 2.77 2.848 4.158 4.269 2.353 2.408 2.323 5.55-.076 8.006a283.067 283.067 0 01-3.726 3.72c-.56.552-1.134 1.118-1.729 1.708.273.24.541.474.806.704.701.61 1.363 1.186 2 1.803 1.57 1.522 1.634 1.937.34 3.705l1.384 1.376c1.177 1.17 2.36 2.345 3.54 3.523 1.191 1.19 2.38 2.384 3.53 3.538l1.279 1.283L91.62 25.575c-1.554-2.257-1.643-2.45-.582-3.928-.41-.352-.816-.709-1.223-1.067-.977-.857-1.987-1.743-3.027-2.554A98.578 98.578 0 0064.865 5.123c-.06-.026-.118-.053-.177-.08-.086-.04-.171-.08-.26-.113-.97-.364-1.441-1.114-1.325-2.113.121-1.04.954-1.3 1.724-1.46 1.627-.34 3.32-.513 5.037-.513 2.552 0 5.194.366 8.078 1.12C84.72 3.738 91.003 7.2 97.15 12.549c.416.362.826.73 1.232 1.094l.424.38c.894-.685 1.407-1.042 1.944-1.042.541 0 1.011.358 1.811 1.045 1.302-1.392 3.099-2.92 5.585-2.92.245 0 .497.014.749.043 1.589.184 2.928.848 3.979 1.973 1.398 1.496 1.972 3.326 1.706 5.438-.25 1.995-1.523 3.339-2.771 4.63 1.35 1.854 1.35 2.045-.028 3.755l.289.33c.3.343.604.693.917 1.036 5.915 6.494 9.634 13.252 11.37 20.659 1.01 4.31 1.147 8.21.417 11.926-.184.933-.461 1.856-1.641 1.998-.085.01-.168.015-.247.015-.999 0-1.458-.773-1.806-1.608-2.592-6.23-5.756-12.03-9.404-17.24-1.612-2.302-3.389-4.546-5.107-6.715-.743-.939-1.485-1.876-2.215-2.817-.804.512-1.314.818-1.844.818-.722 0-1.366-.532-2.86-1.81L70.516 62.673c.194.12.443.278.652.487 12.705 12.69 23.29 23.267 34.203 34.226.477.478.877.673 1.382.673.215 0 .459-.035.749-.107 1.036-.26 2.06-.391 3.042-.391 2.836 0 5.433 1.083 7.72 3.22a467.935 467.935 0 016.183 5.883c.543.526.797.988.802 1.451zM26.374 51.702l.526.525c.7.7 1.245 1.01 1.767 1.01.499 0 1.033-.298 1.681-.94a11037.37 11037.37 0 0022.123-21.98c.551-.548.823-1.054.832-1.547.009-.496-.249-1-.788-1.541-1.724-1.73-3.437-3.47-5.15-5.21-4.506-4.578-9.166-9.312-13.952-13.745-3.455-3.2-7.337-4.823-11.54-4.823-2.43 0-4.944.556-7.472 1.652C7.694 8.01 3.943 13.425 3.55 20.763c.083 5.596 1.782 9.878 5.35 13.46a8401.533 8401.533 0 0017.473 17.479zM47.237 49.9l9.766 9.774 2.788-2.766-9.705-9.71-2.849 2.702zm-6.448-2.708l1.879 1.853 6.393-6.381-1.795-1.942-6.477 6.47zm61.561-16.306l5.742-5.779-7.565-7.576-5.762 5.768 7.585 7.587zm2.778-14.354l4.097 4.084c1.206-1.123 2.19-2.302 1.61-4.098-.335-1.04-1.081-1.658-2.217-1.835a3.588 3.588 0 00-.555-.045c-1.363 0-2.223.892-2.935 1.894zm16.526 37.185c-.992-8.821-4.949-16.637-12.388-24.494l-2.615 2.752c6.741 7.101 11.531 15.23 15.003 21.742zm-107.153 47.27c-1.581 0-3.002.496-4.223 1.475-1.507 1.209-2.898 2.588-4.243 3.923-.52.516-1.058 1.049-1.588 1.557l12.379 12.381c.495-.466 1-.932 1.508-1.401 1.3-1.2 2.644-2.441 3.901-3.744 1.253-1.299 1.832-3.064 1.722-5.243-.175-3.481-3.362-7.466-6.82-8.527a9.011 9.011 0 00-2.636-.421zm10.208 1.787l72.17-72.188-2.595-2.688-72.273 72.246 2.698 2.63zM72.396 4.646c8.743 4.65 15.506 9.303 21.204 14.582l2.638-2.582c-7.792-7.189-15.401-11.024-23.842-12zM65.19 67.895l34.91 34.94 2.651-2.667-34.874-34.875-2.687 2.602zm37.054 46.655c1.227 1.57 2.64 3.001 4.007 4.384.542.549 1.057 1.071 1.56 1.598l12.593-12.591-1.121-1.124a288.793 288.793 0 00-3.545-3.517 8.048 8.048 0 00-1.599-1.215c-1.283-.726-2.611-1.094-3.949-1.094-4.085 0-7.533 3.425-8.826 6.807-.931 2.436-.619 4.834.88 6.752z" fill="#13264C"/></svg>