<svg width="2880" height="23" fill="none" xmlns="http://www.w3.org/2000/svg"><path d="M110.002 17.89V7.67h7.497v5.111h2.498V5.113h-12.5v10.222h-7.496v-5.111h-2.5v7.665h12.501z" fill="#13264C"/><path d="M125.001 17.89V7.67h7.502v5.111h2.499V5.113h-12.5v10.222H115v-5.111h-2.499v7.665h12.5zm-29.998 0V7.67h7.497v5.111h2.498V5.113h-12.5v10.222h-7.496v-5.111h-2.5v7.665h12.501z" fill="#13264C"/><path d="M79.998 17.89V7.67h7.503v5.111h2.498V5.113H77.5v10.222h-7.496v-5.111h-2.505v7.665h12.5zm75.006 0V7.67h7.497v5.111H165V5.113h-12.5v10.222h-7.497v-5.111h-2.499v7.665h12.5zm67.498-5.109h2.499V5.113h-12.5v10.222h-7.497v-5.111h-2.498v7.665h12.5V7.67h7.496v5.112z" fill="#13264C"/><path d="M140 17.89V7.67h7.502v5.111h2.499V5.113h-12.5v10.222h-7.497v-5.111h-2.505v7.665H140zm45.002 0V7.67h7.502v5.111h2.499V5.113h-12.5v10.222h-7.502v-5.111h-2.499v7.665h12.5z" fill="#13264C"/><path d="M170.003 17.89V7.67h7.497v5.111h2.499V5.113h-12.5v10.222h-7.497v-5.111h-2.499v7.665h12.5zm29.998 0V7.67h7.502v5.111h2.499V5.113h-12.5v10.222h-7.497v-5.111h-2.504v7.665h12.5zm35.001-2.555v-5.111h-2.499v7.665H240v-2.554h-4.998z" fill="#13264C"/><path d="M227.5 5.113v10.222h-7.497v-5.111h-2.499v7.665h12.501V7.67h7.496v5.112H240V5.113h-12.5zm12.476-2.556V0H.004v2.557h239.972zM4.998 17.89V7.67H12.5v5.111H15V5.113H2.5v10.222H0v2.554h4.998z" fill="#13264C"/><path d="M10.001 10.224H7.497v7.665h12.5V7.67h7.502v5.112h2.499V5.113h-12.5v10.222H10v-5.111z" fill="#13264C"/><path d="M35.002 17.89V7.67h7.496v5.111h2.499V5.113h-12.5v10.222H25v-5.111h-2.499v7.665h12.5zm29.998 0V7.67h7.502v5.111H75V5.113H62.5v10.222h-7.502v-5.111H52.5v7.665H65zM.004 20.442V23h239.972v-2.558H.004z" fill="#13264C"/><path d="M50 17.89V7.67h7.497v5.111h2.499V5.113h-12.5v10.222h-7.497v-5.111H37.5v7.665H50zm540.544 0V7.67h7.465v5.111h2.488V5.113h-12.448v10.222h-7.465v-5.111h-2.488v7.665h12.448z" fill="#13264C"/><path d="M605.48 17.89V7.67h7.471v5.111h2.488V5.113h-12.448v10.222h-7.47v-5.111h-2.489v7.665h12.448zm-29.873 0V7.67h7.465v5.111h2.489V5.113h-12.448v10.222h-7.465v-5.111h-2.489v7.665h12.448z" fill="#13264C"/><path d="M560.665 17.89V7.67h7.471v5.111h2.488V5.113h-12.448v10.222h-7.465v-5.111h-2.494v7.665h12.448zm74.694 0V7.67h7.465v5.111h2.488V5.113h-12.448v10.222h-7.465v-5.111h-2.488v7.665h12.448zm67.216-5.109h2.489V5.113h-12.449v10.222h-7.465v-5.111h-2.488v7.665h12.448V7.67h7.465v5.112z" fill="#13264C"/><path d="M620.416 17.89V7.67h7.471v5.111h2.489V5.113h-12.448v10.222h-7.465v-5.111h-2.495v7.665h12.448zm44.815 0V7.67h7.471v5.111h2.489V5.113h-12.448v10.222h-7.471v-5.111h-2.488v7.665h12.447z" fill="#13264C"/><path d="M650.295 17.89V7.67h7.465v5.111h2.489V5.113h-12.448v10.222h-7.465v-5.111h-2.489v7.665h12.448zm29.872 0V7.67h7.472v5.111h2.488V5.113h-12.448v10.222h-7.465v-5.111h-2.495v7.665h12.448zm34.856-2.555v-5.111h-2.488v7.665H720v-2.554h-4.977z" fill="#13264C"/><path d="M707.552 5.113v10.222h-7.465v-5.111h-2.489v7.665h12.448V7.67h7.466v5.112H720V5.113h-12.448zm12.424-2.556V0H481.004v2.557h238.972zM485.977 17.89V7.67h7.471v5.111h2.488V5.113h-12.448v10.222H481v2.554h4.977z" fill="#13264C"/><path d="M490.96 10.224h-2.495v7.665h12.448V7.67h7.472v5.112h2.488V5.113h-12.448v10.222h-7.465v-5.111z" fill="#13264C"/><path d="M515.856 17.89V7.67h7.465v5.111h2.488V5.113h-12.448v10.222h-7.465v-5.111h-2.488v7.665h12.448zm29.872 0V7.67h7.472v5.111h2.488V5.113H543.24v10.222h-7.471v-5.111h-2.488v7.665h12.447zm-64.724 2.552V23h238.972v-2.558H481.004z" fill="#13264C"/><path d="M530.792 17.89V7.67h7.465v5.111h2.489V5.113h-12.448v10.222h-7.465v-5.111h-2.489v7.665h12.448zm779.208 0V7.67h7.5v5.111h2.5V5.113h-12.5v10.222h-7.5v-5.111h-2.5v7.665h12.5z" fill="#13264C"/><path d="M1325 17.89V7.67h7.5v5.111h2.5V5.113h-12.5v10.222h-7.5v-5.111h-2.5v7.665h12.5zm-30 0V7.67h7.5v5.111h2.5V5.113h-12.5v10.222h-7.5v-5.111h-2.5v7.665h12.5z" fill="#13264C"/><path d="M1280 17.89V7.67h7.5v5.111h2.5V5.113h-12.5v10.222h-7.5v-5.111h-2.5v7.665h12.5zm75 0V7.67h7.5v5.111h2.5V5.113h-12.5v10.222h-7.5v-5.111h-2.5v7.665h12.5zm67.5-5.109h2.5V5.113h-12.5v10.222h-7.5v-5.111h-2.49v7.665h12.5V7.67h7.49v5.112z" fill="#13264C"/><path d="M1340 17.89V7.67h7.5v5.111h2.5V5.113h-12.5v10.222h-7.5v-5.111h-2.5v7.665h12.5zm45 0V7.67h7.5v5.111h2.5V5.113h-12.5v10.222h-7.5v-5.111h-2.5v7.665h12.5z" fill="#13264C"/><path d="M1370 17.89V7.67h7.5v5.111h2.5V5.113h-12.5v10.222h-7.5v-5.111h-2.5v7.665h12.5zm30 0V7.67h7.5v5.111h2.5V5.113h-12.5v10.222h-7.49v-5.111h-2.51v7.665h12.5zm35-2.555v-5.111h-2.5v7.665h7.5v-2.554h-5z" fill="#13264C"/><path d="M1427.5 5.113v10.222h-7.5v-5.111h-2.5v7.665h12.5V7.67h7.5v5.112h2.5V5.113h-12.5zm12.48-2.556V0H1200v2.557h239.98zM1205 17.89V7.67h7.5v5.111h2.5V5.113h-12.5v10.222h-2.5v2.554h5z" fill="#13264C"/><path d="M1210 10.224h-2.5v7.665h12.5V7.67h7.5v5.112h2.5V5.113h-12.5v10.222h-7.5v-5.111z" fill="#13264C"/><path d="M1235 17.89V7.67h7.5v5.111h2.5V5.113h-12.5v10.222h-7.5v-5.111h-2.5v7.665h12.5zm30 0V7.67h7.5v5.111h2.5V5.113h-12.5v10.222h-7.5v-5.111h-2.5v7.665h12.5zm-65 2.552V23h239.98v-2.558H1200z" fill="#13264C"/><path d="M1250 17.89V7.67h7.5v5.111h2.5V5.113h-12.5v10.222h-7.5v-5.111h-2.5v7.665h12.5zm-899.54 0V7.67h7.528v5.111h2.509V5.113h-12.552v10.222h-7.528v-5.111h-2.509v7.665h12.552z" fill="#13264C"/><path d="M365.521 17.89V7.67h7.534v5.111h2.509V5.113h-12.552v10.222h-7.533v-5.111h-2.509v7.665h12.551zm-30.122 0V7.67h7.528v5.111h2.509V5.113h-12.552v10.222h-7.528v-5.111h-2.509v7.665h12.552z" fill="#13264C"/><path d="M320.331 17.89V7.67h7.534v5.111h2.509V5.113h-12.552v10.222h-7.528v-5.111h-2.515v7.665h12.552zm75.319 0V7.67h7.528v5.111h2.509V5.113h-12.552v10.222h-7.528v-5.111h-2.509v7.665h12.552zm67.779-5.109h2.51V5.113h-12.553v10.222h-7.527v-5.111h-2.51v7.665h12.552V7.67h7.528v5.112z" fill="#13264C"/><path d="M380.583 17.89V7.67h7.534v5.111h2.509V5.113h-12.552v10.222h-7.528v-5.111h-2.515v7.665h12.552zm45.19 0V7.67h7.533v5.111h2.51V5.113h-12.553v10.222h-7.533v-5.111h-2.509v7.665h12.552z" fill="#13264C"/><path d="M410.712 17.89V7.67h7.528v5.111h2.509V5.113h-12.552v10.222h-7.528v-5.111h-2.509v7.665h12.552zm30.122 0V7.67h7.534v5.111h2.509V5.113h-12.552v10.222h-7.528v-5.111h-2.515v7.665h12.552zm35.147-2.555v-5.111h-2.509v7.665H481v-2.554h-5.019z" fill="#13264C"/><path d="M468.448 5.113v10.222h-7.528v-5.111h-2.509v7.665h12.552V7.67h7.528v5.112H481V5.113h-12.552zm12.528-2.556V0H240.004v2.557h240.972zM245.019 17.89V7.67h7.533v5.111h2.509V5.113h-12.552v10.222H240v2.554h5.019z" fill="#13264C"/><path d="M250.043 10.224h-2.515v7.665h12.552V7.67h7.534v5.112h2.509V5.113h-12.552v10.222h-7.528v-5.111z" fill="#13264C"/><path d="M275.147 17.89V7.67h7.528v5.111h2.509V5.113h-12.552v10.222h-7.528v-5.111h-2.509v7.665h12.552zm30.123 0V7.67h7.534v5.111h2.509V5.113h-12.552v10.222h-7.534v-5.111h-2.509v7.665h12.552zm-65.266 2.552V23h240.972v-2.558H240.004z" fill="#13264C"/><path d="M290.209 17.89V7.67h7.528v5.111h2.509V5.113h-12.552v10.222h-7.528v-5.111h-2.509v7.665h12.552zm779.251 0V7.67h7.53v5.111h2.51V5.113h-12.55v10.222h-7.53v-5.111h-2.51v7.665h12.55z" fill="#13264C"/><path d="M1084.52 17.89V7.67h7.54v5.111h2.5V5.113h-12.55v10.222h-7.53v-5.111h-2.51v7.665h12.55zm-30.12 0V7.67h7.53v5.111h2.51V5.113h-12.56v10.222h-7.52v-5.111h-2.51v7.665h12.55z" fill="#13264C"/><path d="M1039.33 17.89V7.67h7.54v5.111h2.5V5.113h-12.55v10.222h-7.53v-5.111h-2.51v7.665h12.55zm75.32 0V7.67h7.53v5.111h2.51V5.113h-12.55v10.222h-7.53v-5.111h-2.51v7.665h12.55zm67.78-5.109h2.51V5.113h-12.55v10.222h-7.53v-5.111h-2.51v7.665h12.55V7.67h7.53v5.112z" fill="#13264C"/><path d="M1099.58 17.89V7.67h7.54v5.111h2.51V5.113h-12.56v10.222h-7.52v-5.111h-2.52v7.665h12.55zm45.19 0V7.67h7.54v5.111h2.51V5.113h-12.56v10.222h-7.53v-5.111h-2.51v7.665h12.55z" fill="#13264C"/><path d="M1129.71 17.89V7.67h7.53v5.111h2.51V5.113h-12.55v10.222h-7.53v-5.111h-2.51v7.665h12.55zm30.12 0V7.67h7.54v5.111h2.51V5.113h-12.56v10.222h-7.52v-5.111h-2.52v7.665h12.55zm35.15-2.555v-5.111h-2.51v7.665h7.53v-2.554h-5.02z" fill="#13264C"/><path d="M1187.45 5.113v10.222h-7.53v-5.111h-2.51v7.665h12.55V7.67h7.53v5.112h2.51V5.113h-12.55zm12.53-2.556V0H959.003v2.557h240.977zM964.018 17.89V7.67h7.534v5.111h2.509V5.113h-12.552v10.222H959v2.554h5.018z" fill="#13264C"/><path d="M969.043 10.224h-2.515v7.665h12.552V7.67h7.534v5.112h2.509V5.113h-12.552v10.222h-7.528v-5.111z" fill="#13264C"/><path d="M994.147 17.89V7.67h7.533v5.111h2.5V5.113h-12.548v10.222h-7.528v-5.111h-2.509v7.665h12.552zm30.123 0V7.67h7.53v5.111h2.51V5.113h-12.55v10.222h-7.53v-5.111h-2.51v7.665h12.55zm-65.266 2.552V23h240.976v-2.558H959.004z" fill="#13264C"/><path d="M1009.21 17.89V7.67h7.53v5.111h2.51V5.113h-12.56v10.222h-7.524v-5.111h-2.509v7.665h12.553zm-179.666 0V7.67h7.465v5.111h2.488V5.113h-12.448v10.222h-7.465v-5.111h-2.488v7.665h12.448z" fill="#13264C"/><path d="M844.48 17.89V7.67h7.471v5.111h2.488V5.113h-12.448v10.222h-7.47v-5.111h-2.489v7.665h12.448zm-29.873 0V7.67h7.465v5.111h2.489V5.113h-12.448v10.222h-7.465v-5.111h-2.489v7.665h12.448z" fill="#13264C"/><path d="M799.665 17.89V7.67h7.471v5.111h2.488V5.113h-12.448v10.222h-7.465v-5.111h-2.494v7.665h12.448zm74.694 0V7.67h7.465v5.111h2.488V5.113h-12.448v10.222h-7.465v-5.111h-2.488v7.665h12.448zm67.216-5.109h2.489V5.113h-12.449v10.222h-7.465v-5.111h-2.488v7.665h12.448V7.67h7.465v5.112z" fill="#13264C"/><path d="M859.416 17.89V7.67h7.471v5.111h2.489V5.113h-12.448v10.222h-7.465v-5.111h-2.495v7.665h12.448zm44.815 0V7.67h7.471v5.111h2.489V5.113h-12.448v10.222h-7.471v-5.111h-2.488v7.665h12.447z" fill="#13264C"/><path d="M889.295 17.89V7.67h7.465v5.111h2.489V5.113h-12.448v10.222h-7.465v-5.111h-2.489v7.665h12.448zm29.872 0V7.67h7.472v5.111h2.488V5.113h-12.448v10.222h-7.465v-5.111h-2.495v7.665h12.448zm34.856-2.555v-5.111h-2.488v7.665H959v-2.554h-4.977z" fill="#13264C"/><path d="M946.552 5.113v10.222h-7.465v-5.111h-2.489v7.665h12.448V7.67h7.466v5.112H959V5.113h-12.448zm12.424-2.556V0H720.004v2.557h238.972zM724.977 17.89V7.67h7.471v5.111h2.488V5.113h-12.448v10.222H720v2.554h4.977z" fill="#13264C"/><path d="M729.96 10.224h-2.495v7.665h12.448V7.67h7.472v5.112h2.488V5.113h-12.448v10.222h-7.465v-5.111z" fill="#13264C"/><path d="M754.856 17.89V7.67h7.465v5.111h2.488V5.113h-12.448v10.222h-7.465v-5.111h-2.488v7.665h12.448zm29.872 0V7.67h7.472v5.111h2.488V5.113H782.24v10.222h-7.471v-5.111h-2.488v7.665h12.447zm-64.724 2.552V23h238.972v-2.558H720.004z" fill="#13264C"/><path d="M769.792 17.89V7.67h7.465v5.111h2.489V5.113h-12.448v10.222h-7.465v-5.111h-2.489v7.665h12.448zm780.208 0V7.67h7.5v5.111h2.5V5.113h-12.5v10.222h-7.5v-5.111h-2.5v7.665h12.5z" fill="#13264C"/><path d="M1565 17.89V7.67h7.5v5.111h2.5V5.113h-12.5v10.222h-7.5v-5.111h-2.5v7.665h12.5zm-30 0V7.67h7.5v5.111h2.5V5.113h-12.5v10.222h-7.5v-5.111h-2.5v7.665h12.5z" fill="#13264C"/><path d="M1520 17.89V7.67h7.5v5.111h2.5V5.113h-12.5v10.222h-7.5v-5.111h-2.5v7.665h12.5zm75 0V7.67h7.5v5.111h2.5V5.113h-12.5v10.222h-7.5v-5.111h-2.5v7.665h12.5zm67.5-5.109h2.5V5.113h-12.5v10.222h-7.5v-5.111h-2.49v7.665h12.5V7.67h7.49v5.112z" fill="#13264C"/><path d="M1580 17.89V7.67h7.5v5.111h2.5V5.113h-12.5v10.222h-7.5v-5.111h-2.5v7.665h12.5zm45 0V7.67h7.5v5.111h2.5V5.113h-12.5v10.222h-7.5v-5.111h-2.5v7.665h12.5z" fill="#13264C"/><path d="M1610 17.89V7.67h7.5v5.111h2.5V5.113h-12.5v10.222h-7.5v-5.111h-2.5v7.665h12.5zm30 0V7.67h7.5v5.111h2.5V5.113h-12.5v10.222h-7.49v-5.111h-2.51v7.665h12.5zm35-2.555v-5.111h-2.5v7.665h7.5v-2.554h-5z" fill="#13264C"/><path d="M1667.5 5.113v10.222h-7.5v-5.111h-2.5v7.665h12.5V7.67h7.5v5.112h2.5V5.113h-12.5zm12.48-2.556V0H1440v2.557h239.98zM1445 17.89V7.67h7.5v5.111h2.5V5.113h-12.5v10.222h-2.5v2.554h5z" fill="#13264C"/><path d="M1450 10.224h-2.5v7.665h12.5V7.67h7.5v5.112h2.5V5.113h-12.5v10.222h-7.5v-5.111z" fill="#13264C"/><path d="M1475 17.89V7.67h7.5v5.111h2.5V5.113h-12.5v10.222h-7.5v-5.111h-2.5v7.665h12.5zm30 0V7.67h7.5v5.111h2.5V5.113h-12.5v10.222h-7.5v-5.111h-2.5v7.665h12.5zm-65 2.552V23h239.98v-2.558H1440z" fill="#13264C"/><path d="M1490 17.89V7.67h7.5v5.111h2.5V5.113h-12.5v10.222h-7.5v-5.111h-2.5v7.665h12.5zm540.54 0V7.67h7.47v5.111h2.49V5.113h-12.45v10.222h-7.47v-5.111h-2.48v7.665h12.44z" fill="#13264C"/><path d="M2045.48 17.89V7.67h7.47v5.111h2.49V5.113h-12.45v10.222h-7.47v-5.111h-2.49v7.665h12.45zm-29.87 0V7.67h7.46v5.111h2.49V5.113h-12.45v10.222h-7.46v-5.111h-2.49v7.665h12.45z" fill="#13264C"/><path d="M2000.66 17.89V7.67h7.48v5.111h2.48V5.113h-12.44v10.222h-7.47v-5.111h-2.49v7.665h12.44zm74.7 0V7.67h7.46v5.111h2.49V5.113h-12.45v10.222h-7.46v-5.111h-2.49v7.665h12.45zm67.22-5.109h2.48V5.113h-12.44v10.222h-7.47v-5.111h-2.49v7.665h12.45V7.67h7.47v5.112z" fill="#13264C"/><path d="M2060.42 17.89V7.67h7.47v5.111h2.49V5.113h-12.45v10.222h-7.47v-5.111h-2.49v7.665h12.45zm44.81 0V7.67h7.47v5.111h2.49V5.113h-12.45v10.222h-7.47v-5.111h-2.49v7.665h12.45z" fill="#13264C"/><path d="M2090.3 17.89V7.67h7.46v5.111h2.49V5.113h-12.45v10.222h-7.46v-5.111h-2.49v7.665h12.45zm29.87 0V7.67h7.47v5.111h2.49V5.113h-12.45v10.222h-7.47v-5.111h-2.49v7.665h12.45zm34.85-2.555v-5.111h-2.49v7.665h7.47v-2.554h-4.98z" fill="#13264C"/><path d="M2147.55 5.113v10.222h-7.46v-5.111h-2.49v7.665h12.45V7.67h7.46v5.112h2.49V5.113h-12.45zm12.43-2.556V0H1921v2.557h238.98zm-234 15.333V7.67h7.47v5.111h2.49V5.113h-12.45v10.222H1921v2.554h4.98z" fill="#13264C"/><path d="M1930.96 10.224h-2.49v7.665h12.44V7.67h7.47v5.112h2.49V5.113h-12.45v10.222h-7.46v-5.111z" fill="#13264C"/><path d="M1955.86 17.89V7.67h7.46v5.111h2.49V5.113h-12.45v10.222h-7.46v-5.111h-2.49v7.665h12.45zm29.87 0V7.67h7.47v5.111h2.49V5.113h-12.45v10.222h-7.47v-5.111h-2.49v7.665h12.45zM1921 20.442V23h238.98v-2.558H1921z" fill="#13264C"/><path d="M1970.79 17.89V7.67h7.47v5.111h2.49V5.113h-12.45v10.222h-7.47v-5.111h-2.49v7.665h12.45zm779.21 0V7.67h7.5v5.111h2.5V5.113h-12.5v10.222h-7.5v-5.111h-2.5v7.665h12.5z" fill="#13264C"/><path d="M2765 17.89V7.67h7.5v5.111h2.5V5.113h-12.5v10.222h-7.5v-5.111h-2.5v7.665h12.5zm-30 0V7.67h7.5v5.111h2.5V5.113h-12.5v10.222h-7.5v-5.111h-2.5v7.665h12.5z" fill="#13264C"/><path d="M2720 17.89V7.67h7.5v5.111h2.5V5.113h-12.5v10.222h-7.5v-5.111h-2.5v7.665h12.5zm75 0V7.67h7.5v5.111h2.5V5.113h-12.5v10.222h-7.5v-5.111h-2.5v7.665h12.5zm67.5-5.109h2.5V5.113h-12.5v10.222h-7.5v-5.111h-2.49v7.665h12.5V7.67h7.49v5.112z" fill="#13264C"/><path d="M2780 17.89V7.67h7.5v5.111h2.5V5.113h-12.5v10.222h-7.5v-5.111h-2.5v7.665h12.5zm45 0V7.67h7.5v5.111h2.5V5.113h-12.5v10.222h-7.5v-5.111h-2.5v7.665h12.5z" fill="#13264C"/><path d="M2810 17.89V7.67h7.5v5.111h2.5V5.113h-12.5v10.222h-7.5v-5.111h-2.5v7.665h12.5zm30 0V7.67h7.5v5.111h2.5V5.113h-12.5v10.222h-7.49v-5.111h-2.51v7.665h12.5zm35-2.555v-5.111h-2.5v7.665h7.5v-2.554h-5z" fill="#13264C"/><path d="M2867.5 5.113v10.222h-7.5v-5.111h-2.5v7.665h12.5V7.67h7.5v5.112h2.5V5.113h-12.5zm12.48-2.556V0H2640v2.557h239.98zM2645 17.89V7.67h7.5v5.111h2.5V5.113h-12.5v10.222h-2.5v2.554h5z" fill="#13264C"/><path d="M2650 10.224h-2.5v7.665h12.5V7.67h7.5v5.112h2.5V5.113h-12.5v10.222h-7.5v-5.111z" fill="#13264C"/><path d="M2675 17.89V7.67h7.5v5.111h2.5V5.113h-12.5v10.222h-7.5v-5.111h-2.5v7.665h12.5zm30 0V7.67h7.5v5.111h2.5V5.113h-12.5v10.222h-7.5v-5.111h-2.5v7.665h12.5zm-65 2.552V23h239.98v-2.558H2640z" fill="#13264C"/><path d="M2690 17.89V7.67h7.5v5.111h2.5V5.113h-12.5v10.222h-7.5v-5.111h-2.5v7.665h12.5zm-899.54 0V7.67h7.53v5.111h2.51V5.113h-12.55v10.222h-7.53v-5.111h-2.51v7.665h12.55z" fill="#13264C"/><path d="M1805.52 17.89V7.67h7.54v5.111h2.5V5.113h-12.55v10.222h-7.53v-5.111h-2.51v7.665h12.55zm-30.12 0V7.67h7.53v5.111h2.51V5.113h-12.56v10.222h-7.52v-5.111h-2.51v7.665h12.55z" fill="#13264C"/><path d="M1760.33 17.89V7.67h7.54v5.111h2.5V5.113h-12.55v10.222h-7.53v-5.111h-2.51v7.665h12.55zm75.32 0V7.67h7.53v5.111h2.51V5.113h-12.55v10.222h-7.53v-5.111h-2.51v7.665h12.55zm67.78-5.109h2.51V5.113h-12.55v10.222h-7.53v-5.111h-2.51v7.665h12.55V7.67h7.53v5.112z" fill="#13264C"/><path d="M1820.58 17.89V7.67h7.54v5.111h2.51V5.113h-12.56v10.222h-7.52v-5.111h-2.52v7.665h12.55zm45.19 0V7.67h7.54v5.111h2.51V5.113h-12.56v10.222h-7.53v-5.111h-2.51v7.665h12.55z" fill="#13264C"/><path d="M1850.71 17.89V7.67h7.53v5.111h2.51V5.113h-12.55v10.222h-7.53v-5.111h-2.51v7.665h12.55zm30.12 0V7.67h7.54v5.111h2.51V5.113h-12.56v10.222h-7.52v-5.111h-2.52v7.665h12.55zm35.15-2.555v-5.111h-2.51v7.665h7.53v-2.554h-5.02z" fill="#13264C"/><path d="M1908.45 5.113v10.222h-7.53v-5.111h-2.51v7.665h12.55V7.67h7.53v5.112h2.51V5.113h-12.55zm12.53-2.556V0H1680v2.557h240.98zM1685.02 17.89V7.67h7.53v5.111h2.51V5.113h-12.55v10.222H1680v2.554h5.02z" fill="#13264C"/><path d="M1690.04 10.224h-2.51v7.665h12.55V7.67h7.53v5.112h2.51V5.113h-12.55v10.222h-7.53v-5.111z" fill="#13264C"/><path d="M1715.15 17.89V7.67h7.53v5.111h2.5V5.113h-12.55v10.222h-7.53v-5.111h-2.5v7.665h12.55zm30.12 0V7.67h7.53v5.111h2.51V5.113h-12.55v10.222h-7.53v-5.111h-2.51v7.665h12.55zM1680 20.442V23h240.98v-2.558H1680z" fill="#13264C"/><path d="M1730.21 17.89V7.67h7.53v5.111h2.51V5.113h-12.56v10.222h-7.52v-5.111h-2.51v7.665h12.55zm779.25 0V7.67h7.53v5.111h2.51V5.113h-12.55v10.222h-7.53v-5.111h-2.51v7.665h12.55z" fill="#13264C"/><path d="M2524.52 17.89V7.67h7.54v5.111h2.5V5.113h-12.55v10.222h-7.53v-5.111h-2.51v7.665h12.55zm-30.12 0V7.67h7.53v5.111h2.51V5.113h-12.56v10.222h-7.52v-5.111h-2.51v7.665h12.55z" fill="#13264C"/><path d="M2479.33 17.89V7.67h7.54v5.111h2.5V5.113h-12.55v10.222h-7.53v-5.111h-2.51v7.665h12.55zm75.32 0V7.67h7.53v5.111h2.51V5.113h-12.55v10.222h-7.53v-5.111h-2.51v7.665h12.55zm67.78-5.109h2.51V5.113h-12.55v10.222h-7.53v-5.111h-2.51v7.665h12.55V7.67h7.53v5.112z" fill="#13264C"/><path d="M2539.58 17.89V7.67h7.54v5.111h2.51V5.113h-12.56v10.222h-7.52v-5.111h-2.52v7.665h12.55zm45.19 0V7.67h7.54v5.111h2.51V5.113h-12.56v10.222h-7.53v-5.111h-2.51v7.665h12.55z" fill="#13264C"/><path d="M2569.71 17.89V7.67h7.53v5.111h2.51V5.113h-12.55v10.222h-7.53v-5.111h-2.51v7.665h12.55zm30.12 0V7.67h7.54v5.111h2.51V5.113h-12.56v10.222h-7.52v-5.111h-2.52v7.665h12.55zm35.15-2.555v-5.111h-2.51v7.665h7.53v-2.554h-5.02z" fill="#13264C"/><path d="M2627.45 5.113v10.222h-7.53v-5.111h-2.51v7.665h12.55V7.67h7.53v5.112h2.51V5.113h-12.55zm12.53-2.556V0H2399v2.557h240.98zM2404.02 17.89V7.67h7.53v5.111h2.51V5.113h-12.55v10.222H2399v2.554h5.02z" fill="#13264C"/><path d="M2409.04 10.224h-2.51v7.665h12.55V7.67h7.53v5.112h2.51V5.113h-12.55v10.222h-7.53v-5.111z" fill="#13264C"/><path d="M2434.15 17.89V7.67h7.53v5.111h2.5V5.113h-12.55v10.222h-7.53v-5.111h-2.5v7.665h12.55zm30.12 0V7.67h7.53v5.111h2.51V5.113h-12.55v10.222h-7.53v-5.111h-2.51v7.665h12.55zM2399 20.442V23h240.98v-2.558H2399z" fill="#13264C"/><path d="M2449.21 17.89V7.67h7.53v5.111h2.51V5.113h-12.56v10.222h-7.52v-5.111h-2.51v7.665h12.55zm-179.67 0V7.67h7.47v5.111h2.49V5.113h-12.45v10.222h-7.47v-5.111h-2.48v7.665h12.44z" fill="#13264C"/><path d="M2284.48 17.89V7.67h7.47v5.111h2.49V5.113h-12.45v10.222h-7.47v-5.111h-2.49v7.665h12.45zm-29.87 0V7.67h7.46v5.111h2.49V5.113h-12.45v10.222h-7.46v-5.111h-2.49v7.665h12.45z" fill="#13264C"/><path d="M2239.66 17.89V7.67h7.48v5.111h2.48V5.113h-12.44v10.222h-7.47v-5.111h-2.49v7.665h12.44zm74.7 0V7.67h7.46v5.111h2.49V5.113h-12.45v10.222h-7.46v-5.111h-2.49v7.665h12.45zm67.22-5.109h2.48V5.113h-12.44v10.222h-7.47v-5.111h-2.49v7.665h12.45V7.67h7.47v5.112z" fill="#13264C"/><path d="M2299.42 17.89V7.67h7.47v5.111h2.49V5.113h-12.45v10.222h-7.47v-5.111h-2.49v7.665h12.45zm44.81 0V7.67h7.47v5.111h2.49V5.113h-12.45v10.222h-7.47v-5.111h-2.49v7.665h12.45z" fill="#13264C"/><path d="M2329.3 17.89V7.67h7.46v5.111h2.49V5.113h-12.45v10.222h-7.46v-5.111h-2.49v7.665h12.45zm29.87 0V7.67h7.47v5.111h2.49V5.113h-12.45v10.222h-7.47v-5.111h-2.49v7.665h12.45zm34.85-2.555v-5.111h-2.49v7.665h7.47v-2.554h-4.98z" fill="#13264C"/><path d="M2386.55 5.113v10.222h-7.46v-5.111h-2.49v7.665h12.45V7.67h7.46v5.112h2.49V5.113h-12.45zm12.43-2.556V0H2160v2.557h238.98zm-234 15.333V7.67h7.47v5.111h2.49V5.113h-12.45v10.222H2160v2.554h4.98z" fill="#13264C"/><path d="M2169.96 10.224h-2.49v7.665h12.44V7.67h7.47v5.112h2.49V5.113h-12.45v10.222h-7.46v-5.111z" fill="#13264C"/><path d="M2194.86 17.89V7.67h7.46v5.111h2.49V5.113h-12.45v10.222h-7.46v-5.111h-2.49v7.665h12.45zm29.87 0V7.67h7.47v5.111h2.49V5.113h-12.45v10.222h-7.47v-5.111h-2.49v7.665h12.45zM2160 20.442V23h238.98v-2.558H2160z" fill="#13264C"/><path d="M2209.79 17.89V7.67h7.47v5.111h2.49V5.113h-12.45v10.222h-7.47v-5.111h-2.49v7.665h12.45z" fill="#13264C"/></svg>