<svg width="1110" height="7" fill="none" xmlns="http://www.w3.org/2000/svg"><path d="M63.682 7V1.401h4.34v2.8h1.446V0h-7.236v5.6h-4.34V2.8h-1.447V7h7.237z" fill="#13264C" fill-opacity=".5"/><path d="M72.365 7V1.401h4.343v2.8h1.446V0h-7.236v5.6h-4.343V2.8h-1.447V7h7.237zM54.998 7V1.401h4.34v2.8h1.447V0h-7.237v5.6h-4.34V2.8h-1.446V7h7.236z" fill="#13264C" fill-opacity=".5"/><path d="M46.312 7V1.401h4.343v2.8h1.447V0h-7.237v5.6h-4.34V2.8h-1.45V7h7.237zm43.422 0V1.401h4.34v2.8h1.447V0h-7.237v5.6h-4.34V2.8h-1.446V7h7.236zm39.076-2.799h1.446V0h-7.236v5.6h-4.34V2.8h-1.447V7h7.237V1.401h4.34v2.8z" fill="#13264C" fill-opacity=".5"/><path d="M81.048 7V1.401h4.343v2.8h1.447V0H79.6v5.6h-4.34V2.8h-1.45V7h7.237zM107.1 7V1.401h4.343v2.8h1.447V0h-7.237v5.6h-4.343V2.8h-1.446V7h7.236z" fill="#13264C" fill-opacity=".5"/><path d="M98.417 7V1.401h4.34v2.8h1.447V0h-7.237v5.6h-4.34V2.8h-1.446V7h7.236zm17.366 0V1.401h4.343v2.8h1.447V0h-7.236v5.6h-4.34V2.8h-1.45V7h7.236zm20.263-1.4V2.8h-1.447V7h4.34V5.6h-2.893z" fill="#13264C" fill-opacity=".5"/><path d="M131.703 0v5.6h-4.34V2.8h-1.447V7h7.237V1.401h4.34v2.8h1.446V0h-7.236zM2.893 7V1.401h4.343v2.8h1.447V0H1.447v5.6H0V7h2.893z" fill="#13264C" fill-opacity=".5"/><path d="M5.79 2.8H4.34V7h7.236V1.401h4.344v2.8h1.446V0H10.13v5.6H5.79V2.8z" fill="#13264C" fill-opacity=".5"/><path d="M20.263 7V1.401h4.34v2.8h1.446V0h-7.236v5.6h-4.34V2.8h-1.447V7h7.237zm17.366 0V1.401h4.343v2.8h1.447V0h-7.237v5.6H31.84V2.8h-1.447V7h7.237z" fill="#13264C" fill-opacity=".5"/><path d="M28.946 7V1.401h4.34v2.8h1.447V0h-7.237v5.6h-4.34V2.8H21.71V7h7.236zm173.796 0V1.401h4.34v2.8h1.447V0h-7.237v5.6h-4.339V2.8h-1.447V7h7.236z" fill="#13264C" fill-opacity=".5"/><path d="M211.425 7V1.401h4.343v2.8h1.447V0h-7.236v5.6h-4.343V2.8h-1.447V7h7.236zm-17.366 0V1.401h4.34v2.8h1.447V0h-7.237v5.6h-4.34V2.8h-1.446V7h7.236z" fill="#13264C" fill-opacity=".5"/><path d="M185.373 7V1.401h4.343v2.8h1.447V0h-7.237v5.6h-4.34V2.8h-1.45V7h7.237zm43.422 0V1.401h4.34v2.8h1.447V0h-7.237v5.6h-4.34V2.8h-1.446V7h7.236zm39.075-2.799h1.447V0h-7.237v5.6h-4.339V2.8h-1.447V7h7.237V1.401h4.339v2.8z" fill="#13264C" fill-opacity=".5"/><path d="M220.108 7V1.401h4.344v2.8h1.446V0h-7.236v5.6h-4.34V2.8h-1.45V7h7.236zm26.053 0V1.401h4.343v2.8h1.447V0h-7.237v5.6h-4.343V2.8h-1.446V7h7.236z" fill="#13264C" fill-opacity=".5"/><path d="M237.478 7V1.401h4.34v2.8h1.447V0h-7.237v5.6h-4.34V2.8h-1.446V7h7.236zm17.366 0V1.401h4.343v2.8h1.447V0h-7.237v5.6h-4.339V2.8h-1.451V7h7.237zm20.263-1.4V2.8h-1.447V7H278V5.6h-2.893z" fill="#13264C" fill-opacity=".5"/><path d="M270.763 0v5.6h-4.339V2.8h-1.447V7h7.237V1.401h4.339v2.8H278V0h-7.237zM141.954 7V1.401h4.343v2.8h1.447V0h-7.237v5.6h-1.446V7h2.893z" fill="#13264C" fill-opacity=".5"/><path d="M144.851 2.8h-1.45V7h7.236V1.401h4.343v2.8h1.447V0h-7.236v5.6h-4.34V2.8z" fill="#13264C" fill-opacity=".5"/><path d="M159.324 7V1.401h4.339v2.8h1.447V0h-7.236v5.6h-4.34V2.8h-1.447V7h7.237zm17.366 0V1.401h4.343v2.8h1.446V0h-7.236v5.6H170.9V2.8h-1.447V7h7.237z" fill="#13264C" fill-opacity=".5"/><path d="M168.007 7V1.401h4.34v2.8h1.446V0h-7.236v5.6h-4.34V2.8h-1.447V7h7.237zm450.675 0V1.401h4.339v2.8h1.447V0h-7.236v5.6h-4.34V2.8h-1.447V7h7.237z" fill="#13264C" fill-opacity=".5"/><path d="M627.364 7V1.401h4.344v2.8h1.446V0h-7.236v5.6h-4.343V2.8h-1.447V7h7.236zm-17.366 0V1.401h4.34v2.8h1.447V0h-7.237v5.6h-4.339V2.8h-1.447V7h7.236z" fill="#13264C" fill-opacity=".5"/><path d="M601.312 7V1.401h4.343v2.8h1.447V0h-7.237v5.6h-4.339V2.8h-1.45V7h7.236zm43.422 0V1.401h4.34v2.8h1.447V0h-7.237v5.6h-4.34V2.8h-1.446V7h7.236zm39.076-2.799h1.446V0h-7.236v5.6h-4.34V2.8h-1.447V7h7.237V1.401h4.34v2.8z" fill="#13264C" fill-opacity=".5"/><path d="M636.048 7V1.401h4.343v2.8h1.447V0h-7.237v5.6h-4.34V2.8h-1.45V7h7.237zM662.1 7V1.401h4.343v2.8h1.447V0h-7.237v5.6h-4.343V2.8h-1.446V7h7.236z" fill="#13264C" fill-opacity=".5"/><path d="M653.417 7V1.401h4.34v2.8h1.447V0h-7.237v5.6h-4.339V2.8h-1.447V7h7.236zm17.366 0V1.401h4.343v2.8h1.447V0h-7.236v5.6h-4.34V2.8h-1.45V7h7.236zm20.263-1.4V2.8h-1.447V7h4.34V5.6h-2.893z" fill="#13264C" fill-opacity=".5"/><path d="M686.703 0v5.6h-4.34V2.8h-1.447V7h7.237V1.401h4.34v2.8h1.446V0h-7.236zm-128.81 7V1.401h4.344v2.8h1.446V0h-7.236v5.6H555V7h2.893z" fill="#13264C" fill-opacity=".5"/><path d="M560.79 2.8h-1.45V7h7.236V1.401h4.344v2.8h1.446V0h-7.236v5.6h-4.34V2.8z" fill="#13264C" fill-opacity=".5"/><path d="M575.263 7V1.401h4.34v2.8h1.446V0h-7.236v5.6h-4.34V2.8h-1.447V7h7.237zm17.366 0V1.401h4.343v2.8h1.447V0h-7.237v5.6h-4.343V2.8h-1.446V7h7.236z" fill="#13264C" fill-opacity=".5"/><path d="M583.946 7V1.401h4.34v2.8h1.447V0h-7.237v5.6h-4.34V2.8h-1.446V7h7.236zm173.796 0V1.401h4.34v2.8h1.447V0h-7.237v5.6h-4.339V2.8h-1.447V7h7.236z" fill="#13264C" fill-opacity=".5"/><path d="M766.425 7V1.401h4.343v2.8h1.447V0h-7.236v5.6h-4.343V2.8h-1.447V7h7.236zm-17.366 0V1.401h4.34v2.8h1.447V0h-7.237v5.6h-4.34V2.8h-1.446V7h7.236z" fill="#13264C" fill-opacity=".5"/><path d="M740.373 7V1.401h4.343v2.8h1.447V0h-7.237v5.6h-4.34V2.8h-1.45V7h7.237zm43.422 0V1.401h4.34v2.8h1.446V0h-7.236v5.6h-4.34V2.8h-1.446V7h7.236zm39.075-2.799h1.447V0h-7.236v5.6h-4.34V2.8h-1.447V7h7.237V1.401h4.339v2.8z" fill="#13264C" fill-opacity=".5"/><path d="M775.108 7V1.401h4.344v2.8h1.446V0h-7.236v5.6h-4.34V2.8h-1.45V7h7.236zm26.053 0V1.401h4.343v2.8h1.447V0h-7.237v5.6h-4.343V2.8h-1.446V7h7.236z" fill="#13264C" fill-opacity=".5"/><path d="M792.478 7V1.401h4.34v2.8h1.447V0h-7.237v5.6h-4.34V2.8h-1.446V7h7.236zm17.366 0V1.401h4.343v2.8h1.447V0h-7.237v5.6h-4.34V2.8h-1.45V7h7.237zm20.263-1.4V2.8h-1.447V7H833V5.6h-2.893z" fill="#13264C" fill-opacity=".5"/><path d="M825.763 0v5.6h-4.339V2.8h-1.447V7h7.237V1.401h4.339v2.8H833V0h-7.237zM696.954 7V1.401h4.343v2.8h1.447V0h-7.237v5.6h-1.446V7h2.893z" fill="#13264C" fill-opacity=".5"/><path d="M699.851 2.8h-1.45V7h7.236V1.401h4.343v2.8h1.447V0h-7.237v5.6h-4.339V2.8z" fill="#13264C" fill-opacity=".5"/><path d="M714.324 7V1.401h4.34v2.8h1.446V0h-7.236v5.6h-4.34V2.8h-1.447V7h7.237zm17.366 0V1.401h4.343v2.8h1.446V0h-7.236v5.6H725.9V2.8h-1.447V7h7.237z" fill="#13264C" fill-opacity=".5"/><path d="M723.007 7V1.401h4.34v2.8h1.446V0h-7.236v5.6h-4.34V2.8h-1.447V7h7.237zM341.453 7V1.401h4.324v2.8h1.441V0h-7.21v5.6h-4.324V2.8h-1.442V7h7.211z" fill="#13264C" fill-opacity=".5"/><path d="M350.104 7V1.401h4.328v2.8h1.441V0h-7.21v5.6h-4.328V2.8h-1.441V7h7.21zm-17.303 0V1.401h4.324v2.8h1.441V0h-7.21v5.6h-4.324V2.8h-1.442V7h7.211z" fill="#13264C" fill-opacity=".5"/><path d="M324.145 7V1.401h4.328v2.8h1.441V0h-7.21v5.6h-4.324V2.8h-1.445V7h7.21zm43.266 0V1.401h4.325v2.8h1.441V0h-7.21v5.6h-4.325V2.8h-1.441V7h7.21zm38.935-2.799h1.442V0h-7.211v5.6h-4.324V2.8h-1.441V7h7.21V1.401h4.324v2.8z" fill="#13264C" fill-opacity=".5"/><path d="M358.756 7V1.401h4.328v2.8h1.441V0h-7.21v5.6h-4.325V2.8h-1.444V7h7.21zm25.959 0V1.401h4.327v2.8h1.442V0h-7.211v5.6h-4.327V2.8h-1.441V7h7.21z" fill="#13264C" fill-opacity=".5"/><path d="M376.063 7V1.401h4.325v2.8h1.441V0h-7.21v5.6h-4.325V2.8h-1.441V7h7.21zm17.304 0V1.401h4.327v2.8h1.442V0h-7.211v5.6h-4.324V2.8h-1.445V7h7.211zm20.19-1.4V2.8h-1.442V7h4.324V5.6h-2.882z" fill="#13264C" fill-opacity=".5"/><path d="M409.229 0v5.6h-4.324V2.8h-1.442V7h7.211V1.401h4.324v2.8h1.441V0h-7.21zM280.883 7V1.401h4.327v2.8h1.442V0h-7.211v5.6H278V7h2.883z" fill="#13264C" fill-opacity=".5"/><path d="M283.769 2.8h-1.445V7h7.211V1.401h4.327v2.8h1.442V0h-7.211v5.6h-4.324V2.8z" fill="#13264C" fill-opacity=".5"/><path d="M298.19 7V1.401h4.324v2.8h1.442V0h-7.211v5.6h-4.324V2.8h-1.441V7h7.21zm17.303 0V1.401h4.328v2.8h1.441V0h-7.21v5.6h-4.327V2.8h-1.442V7h7.21z" fill="#13264C" fill-opacity=".5"/><path d="M306.842 7V1.401h4.324v2.8h1.442V0h-7.211v5.6h-4.324V2.8h-1.442V7h7.211zm173.171 0V1.401h4.324v2.8h1.442V0h-7.211v5.6h-4.324V2.8h-1.441V7h7.21z" fill="#13264C" fill-opacity=".5"/><path d="M488.665 7V1.401h4.327v2.8h1.442V0h-7.211v5.6h-4.327V2.8h-1.442V7h7.211zm-17.304 0V1.401h4.324v2.8h1.442V0h-7.211v5.6h-4.324V2.8h-1.441V7h7.21z" fill="#13264C" fill-opacity=".5"/><path d="M462.706 7V1.401h4.328v2.8h1.441V0h-7.21v5.6h-4.325V2.8h-1.444V7h7.21zm43.266 0V1.401h4.324v2.8h1.442V0h-7.211v5.6h-4.324V2.8h-1.441V7h7.21zm38.935-2.799h1.441V0h-7.21v5.6h-4.324V2.8h-1.442V7h7.211V1.401h4.324v2.8z" fill="#13264C" fill-opacity=".5"/><path d="M497.317 7V1.401h4.327v2.8h1.442V0h-7.211v5.6h-4.324V2.8h-1.445V7h7.211zm25.958 0V1.401h4.328v2.8h1.441V0h-7.21v5.6h-4.327V2.8h-1.442V7h7.21z" fill="#13264C" fill-opacity=".5"/><path d="M514.624 7V1.401h4.324v2.8h1.442V0h-7.211v5.6h-4.324V2.8h-1.442V7h7.211zm17.303 0V1.401h4.328v2.8h1.441V0h-7.21v5.6h-4.324V2.8h-1.445V7h7.21zm20.19-1.4V2.8h-1.441V7H555V5.6h-2.883z" fill="#13264C" fill-opacity=".5"/><path d="M547.789 0v5.6h-4.324V2.8h-1.441V7h7.21V1.401h4.325v2.8H555V0h-7.211zM419.443 7V1.401h4.328v2.8h1.441V0h-7.21v5.6h-1.441V7h2.882z" fill="#13264C" fill-opacity=".5"/><path d="M422.33 2.8h-1.445V7h7.21V1.401h4.328v2.8h1.441V0h-7.21v5.6h-4.324V2.8z" fill="#13264C" fill-opacity=".5"/><path d="M436.751 7V1.401h4.324v2.8h1.441V0h-7.21v5.6h-4.324V2.8h-1.442V7h7.211zm17.303 0V1.401h4.328v2.8h1.441V0h-7.21v5.6h-4.328V2.8h-1.441V7h7.21z" fill="#13264C" fill-opacity=".5"/><path d="M445.403 7V1.401h4.324v2.8h1.441V0h-7.21v5.6h-4.325V2.8h-1.441V7h7.211zm451.05 0V1.401h4.324v2.8h1.441V0h-7.21v5.6h-4.325V2.8h-1.441V7h7.211z" fill="#13264C" fill-opacity=".5"/><path d="M905.104 7V1.401h4.328v2.8h1.441V0h-7.21v5.6h-4.328V2.8h-1.441V7h7.21zm-17.303 0V1.401h4.324v2.8h1.441V0h-7.21v5.6h-4.324V2.8h-1.442V7h7.211z" fill="#13264C" fill-opacity=".5"/><path d="M879.145 7V1.401h4.328v2.8h1.441V0h-7.21v5.6h-4.324V2.8h-1.445V7h7.21zm43.266 0V1.401h4.325v2.8h1.441V0h-7.21v5.6h-4.325V2.8h-1.441V7h7.21zm38.935-2.799h1.442V0h-7.211v5.6h-4.324V2.8h-1.441V7h7.21V1.401h4.324v2.8z" fill="#13264C" fill-opacity=".5"/><path d="M913.756 7V1.401h4.328v2.8h1.441V0h-7.21v5.6h-4.325V2.8h-1.444V7h7.21zm25.959 0V1.401h4.327v2.8h1.442V0h-7.211v5.6h-4.327V2.8h-1.441V7h7.21z" fill="#13264C" fill-opacity=".5"/><path d="M931.063 7V1.401h4.325v2.8h1.441V0h-7.21v5.6h-4.325V2.8h-1.441V7h7.21zm17.304 0V1.401h4.327v2.8h1.442V0h-7.211v5.6h-4.324V2.8h-1.445V7h7.211zm20.19-1.4V2.8h-1.442V7h4.324V5.6h-2.882z" fill="#13264C" fill-opacity=".5"/><path d="M964.229 0v5.6h-4.324V2.8h-1.442V7h7.211V1.401h4.324v2.8h1.441V0h-7.21zM835.883 7V1.401h4.327v2.8h1.442V0h-7.211v5.6H833V7h2.883z" fill="#13264C" fill-opacity=".5"/><path d="M838.769 2.8h-1.445V7h7.211V1.401h4.327v2.8h1.442V0h-7.211v5.6h-4.324V2.8z" fill="#13264C" fill-opacity=".5"/><path d="M853.19 7V1.401h4.324v2.8h1.442V0h-7.211v5.6h-4.324V2.8h-1.442V7h7.211zm17.303 0V1.401h4.328v2.8h1.442V0h-7.211v5.6h-4.327V2.8h-1.442V7h7.21z" fill="#13264C" fill-opacity=".5"/><path d="M861.842 7V1.401h4.324v2.8h1.442V0h-7.211v5.6h-4.324V2.8h-1.442V7h7.211zm173.168 0V1.401h4.33v2.8h1.44V0h-7.21v5.6h-4.33V2.8h-1.44V7h7.21z" fill="#13264C" fill-opacity=".5"/><path d="M1043.66 7V1.401h4.33v2.8h1.44V0h-7.21v5.6h-4.32V2.8h-1.45V7h7.21zm-17.3 0V1.401h4.33v2.8h1.44V0h-7.21v5.6h-4.33V2.8h-1.44V7h7.21z" fill="#13264C" fill-opacity=".5"/><path d="M1017.71 7V1.401h4.32v2.8h1.44V0h-7.21v5.6h-4.32V2.8h-1.44V7h7.21zm43.26 0V1.401h4.33v2.8h1.44V0h-7.21v5.6h-4.33V2.8h-1.44V7h7.21zm38.94-2.799h1.44V0h-7.21v5.6h-4.33V2.8h-1.44V7h7.21V1.401h4.33v2.8z" fill="#13264C" fill-opacity=".5"/><path d="M1052.32 7V1.401h4.32v2.8h1.45V0h-7.21v5.6h-4.33V2.8h-1.44V7h7.21zm25.96 0V1.401h4.32v2.8h1.44V0h-7.21v5.6h-4.32V2.8h-1.44V7h7.21z" fill="#13264C" fill-opacity=".5"/><path d="M1069.62 7V1.401h4.33v2.8h1.44V0h-7.21v5.6h-4.33V2.8h-1.44V7h7.21zm17.31 0V1.401h4.32v2.8h1.45V0h-7.21v5.6h-4.33V2.8h-1.44V7h7.21zm20.19-1.4V2.8h-1.44V7h4.32V5.6h-2.88z" fill="#13264C" fill-opacity=".5"/><path d="M1102.79 0v5.6h-4.32V2.8h-1.45V7h7.21V1.401h4.33v2.8h1.44V0h-7.21zM974.443 7V1.401h4.328v2.8h1.441V0h-7.21v5.6h-1.441V7h2.882z" fill="#13264C" fill-opacity=".5"/><path d="M977.33 2.8h-1.445V7h7.21V1.401h4.328v2.8h1.441V0h-7.21v5.6h-4.324V2.8z" fill="#13264C" fill-opacity=".5"/><path d="M991.751 7V1.401h4.324v2.8h1.441V0h-7.21v5.6h-4.324V2.8h-1.442V7h7.211zm17.299 0V1.401h4.33v2.8h1.44V0h-7.21v5.6h-4.32V2.8h-1.45V7h7.21z" fill="#13264C" fill-opacity=".5"/><path d="M1000.4 7V1.401h4.33v2.8h1.44V0h-7.212v5.6h-4.325V2.8h-1.441V7h7.208z" fill="#13264C" fill-opacity=".5"/></svg>