<svg width="125" height="125" fill="none" xmlns="http://www.w3.org/2000/svg"><path d="M124.999 32.224v-2.197c-.878-2.542-2.525-4.185-5.043-4.405.467-1.71 1.056-3.347 1.328-5.036.241-1.504-.588-2.263-2.124-2.272-2.881-.017-5.762-.004-8.81-.004v-1.356c0-4.794-.026-9.59.021-14.385.01-1.12-.274-1.98-1.241-2.569h-8.545c-.972.588-1.251 1.448-1.24 2.57.046 4.758.02 9.518.02 14.277v1.463c-2.76 0-5.435.096-8.1-.026-2.887-.133-3.23 1.467-2.718 3.415.345 1.317.888 2.583 1.338 3.861-4.032.951-5.65 3.253-4.942 7.396h-1.407c-9.64 0-19.282.037-28.92-.035-1.65-.012-2.931.369-3.92 1.682-.342.455-.705.895-1 1.268-.287-.136-.337-.144-.356-.173-1.837-2.738-4.55-3.06-7.505-2.751-.56.059-1.128.009-1.806.009.47-1.822.3-3.47-.735-4.954-1.041-1.492-2.53-2.232-4.128-2.384.477-1.522 1.086-2.99 1.377-4.517.376-1.98-.427-2.788-2.441-2.791-2.763-.005-5.526 0-8.467 0v-1.34c0-4.799-.026-9.6.02-14.398.01-1.12-.271-1.98-1.242-2.572H15.87c-.972.588-1.252 1.45-1.242 2.57.048 4.76.021 9.519.021 14.277v1.461c-2.761 0-5.436.096-8.1-.026-2.882-.132-3.23 1.463-2.716 3.419.345 1.317.888 2.583 1.34 3.86-3.478.812-5.327 2.884-5.162 5.894.177 3.226 2.185 4.697 7.242 5.263v51.646c-2.232-.115-4.458.004-5.863 1.952-.698.97-1.23 2.247-1.326 3.426-.237 2.926 1.78 4.987 5.067 5.658-.467 1.433-1.076 2.851-1.376 4.33-.43 2.116.364 2.949 2.51 2.952 2.755.003 5.51 0 8.384 0v1.424c0 4.84-.004 9.68.003 14.521.003 1.733.622 2.354 2.342 2.362 2.116.009 4.23.012 6.347 0 1.645-.008 2.29-.645 2.292-2.289.009-4.84.003-9.681.003-14.521v-1.495h5.505c1.14 0 2.28.02 3.418-.006 1.392-.032 2.229-.782 2.014-2.147-.273-1.73-.85-3.411-1.292-5.1 3.989-.788 5.536-3.707 4.815-7.395 1.559 0 3.103-.072 4.638.022 1.294.08 2.297-.3 3.095-1.31.454-.572.95-1.111 1.438-1.677.331.27.524.369.631.525 1.509 2.192 3.622 2.583 6.158 2.492 4.835-.175 9.681-.1 14.52-.02 1.46.023 2.627-.283 3.524-1.464.392-.516.845-.988 1.243-1.45.281.14.421.164.478.246 1.641 2.375 3.943 3.026 6.688 2.654.788-.107 1.604-.016 2.42-.016-.62 4.25 1 6.572 4.922 7.363-.468 1.432-1.077 2.847-1.378 4.325-.43 2.118.362 2.956 2.501 2.959 2.756.003 5.511 0 8.392 0v1.416c0 4.841-.005 9.681.003 14.521.003 1.737.62 2.361 2.333 2.37 2.116.011 4.231.011 6.347 0 1.649-.009 2.296-.642 2.299-2.282.009-4.84.003-9.68.003-14.521v-1.502h3.667c1.75 0 3.499.019 5.248-.008 1.394-.022 2.237-.777 2.022-2.137-.272-1.731-.848-3.413-1.306-5.169 2.484-.226 4.14-1.861 5.019-4.405v-2.196c-1.584-3.594-2.237-4.001-7.246-4.479V36.596c3.505.408 6.074-.869 7.245-4.372zM103.125 3.71h3.486v14.53h-3.486V3.71zM117.088 22c-.197 1.931-2.41 3.593-4.916 3.622-3.288.038-6.577.012-9.865.012-1.623 0-3.248-.018-4.871-.003-2.009.017-4.548-1.609-4.897-3.63h24.549zM18.396 3.717h3.512V18.21h-3.512V3.717zm13.978 18.284c-.204 1.934-2.414 3.591-4.919 3.62-3.287.04-6.577.013-9.865.013-1.623 0-3.248-.018-4.871-.003-2.007.017-4.551-1.612-4.892-3.63h24.547zm-25.9 10.955c-.366 0-.735.023-1.097-.016-1.032-.115-1.77-.91-1.698-1.878.076-1.032.682-1.619 1.701-1.751.32-.043.65-.016.975-.016h27.57c.325 0 .655-.027.975.016 1.02.135 1.623.723 1.7 1.756.072.962-.67 1.789-1.703 1.867-.85.065-1.707.022-2.561.022H6.474zm15.42 88.347h-3.486v-14.531h3.486v14.531zM7.842 102.954c.505-1.962 2.393-3.525 4.596-3.556 5.114-.072 10.231-.04 15.347-.016 1.93.009 4.283 1.601 4.683 3.572H7.842zm27.06-7.28c-.727.062-1.463.022-2.196.022H6.477c-.366 0-.735.024-1.097-.016-1.034-.113-1.772-.909-1.703-1.875.075-1.032.68-1.62 1.699-1.754.32-.043.65-.016.975-.016h27.57c.325 0 .654-.026.975.016 1.02.134 1.625.72 1.703 1.751.073.963-.667 1.785-1.7 1.872h.003zm46.009-7.331c-.532-.009-1.147-.302-1.567-.651-.841-.699-1.556-1.549-2.356-2.3-1.007-.945-1.856-.922-2.884.026-.06.055-.129.105-.173.171-1.653 2.438-3.956 3.002-6.813 2.842-4.096-.23-8.215-.035-12.323-.088-.532-.007-1.151-.297-1.57-.647-.87-.73-1.608-1.613-2.444-2.383-.909-.838-1.777-.809-2.71.014-.091.081-.191.16-.26.26-1.684 2.485-4.04 3.104-6.934 2.834-2.5-.234-5.039-.057-7.562-.068-.073 0-.145-.048-.357-.125v-1.251c0-6.753.026-13.506-.04-20.258-.007-.709-.376-1.65-.907-2.067-1.16-.915-2.688.09-2.706 1.714-.032 3.051-.01 6.102-.01 9.153v12.808H11.059V36.679h18.237v21.296c0 .366-.036.74.031 1.095.181.953.765 1.532 1.754 1.55 1.049.02 1.662-.572 1.849-1.582.065-.356.028-.73.028-1.097V36.62c3.965 0 7.82-.01 11.67.023.306.003.656.272.903.504.83.781 1.606 1.615 2.43 2.401 1.05 1.005 1.896.988 2.973-.01.029-.028.066-.051.088-.084 1.698-2.545 4.117-2.94 7.031-2.898 10.779.157 21.561.063 32.342.063h1.55v51.676c-.287.025-.597.075-.907.075-3.376.006-6.754.033-10.13-.026h.003zm25.693 32.931h-3.515v-14.493h3.515v14.493zm-13.978-18.282c.188-1.917 2.422-3.594 4.914-3.622 3.451-.036 6.902-.011 10.353-.011 1.503 0 3.004.007 4.507.01 1.828.004 4.361 1.483 4.779 3.623H92.626zm26.014-10.957c.325 0 .655-.026.975.016 1.021.134 1.624.722 1.702 1.753.072.963-.668 1.786-1.702 1.87-.767.063-1.544.022-2.317.022H91.191c-.366 0-.736.024-1.097-.016-1.034-.115-1.772-.909-1.7-1.876.076-1.032.68-1.62 1.7-1.754.32-.043.65-.016.975-.016h27.57l.001.001zm-22.885-3.75v-51.6h18.161v51.6H95.755zm21.668-55.328h-26.23c-.365 0-.735.024-1.096-.016-1.034-.113-1.772-.907-1.703-1.873.075-1.034.678-1.62 1.698-1.756.32-.042.65-.016.975-.016h27.57c.325 0 .655-.026.975.016 1.021.134 1.625.72 1.703 1.752.074.964-.666 1.785-1.7 1.871-.726.062-1.463.022-2.195.022h.003z" fill="#13264C"/></svg>