<svg width="125" height="125" fill="none" xmlns="http://www.w3.org/2000/svg"><path d="M124.052 51.687c-4.071-24.334-23.004-44.472-47.066-49.971C73.83.995 70.578.699 67.372.2c-.317-.049-.627-.133-.94-.201h-7.81c-.354.07-.706.157-1.063.21-2.97.442-5.98.698-8.905 1.343C13.998 9.19-7.425 45.295 2.386 79.445c9.895 34.441 46.246 53.853 80.07 42.126 22.959-7.959 36.779-24.464 41.586-48.354.455-2.26.645-4.572.958-6.86V58.55c-.313-2.288-.566-4.586-.948-6.863zm-61.579 69.56c-32.412-.032-58.792-26.466-58.759-58.878.034-32.39 26.505-58.764 58.925-58.71 32.41.054 58.768 26.518 58.699 58.935-.068 32.344-26.503 58.685-58.864 58.653z" fill="#13264C"/><path d="M96.484 24.245c-.245-1.565-.49-3.13-.743-4.693-.276-1.705-.953-2.207-2.696-1.954-1.648.24-3.29.512-4.935.777-2.225.358-3.657-.297-4.817-2.215-2.365-3.912-6.156-5.14-10.368-3.36-2.012.85-3.55.567-5.116-.97-1.248-1.224-2.462-2.483-3.716-3.701-1.152-1.12-1.995-1.11-3.15.02-1.308 1.28-2.58 2.596-3.894 3.87-1.372 1.33-3.03 1.681-4.715.849-4.3-2.125-8.906-.095-10.748 3.511-.883 1.726-2.527 2.347-4.435 2.041-1.765-.282-3.526-.593-5.296-.835-1.604-.22-2.275.305-2.534 1.874-.243 1.482-.5 2.963-.711 4.45-.417 2.928-1.283 3.896-4.187 4.605-3.93.958-6.41 4.557-5.923 8.592.257 2.117-.499 3.616-2.392 4.624-1.577.84-3.184 1.622-4.769 2.446-1.384.72-1.667 1.59-.966 3.004.777 1.564 1.587 3.11 2.373 4.669.947 1.875.722 3.57-.678 5.17-2.999 3.427-2.991 7.44.018 10.888 1.4 1.606 1.595 3.306.65 5.175-.788 1.557-1.6 3.103-2.374 4.667-.693 1.399-.398 2.266 1.002 2.992 1.622.842 3.27 1.634 4.877 2.501 1.754.945 2.503 2.475 2.272 4.462-.042.363-.089.725-.127 1.035.028.34.04.625.077.906.47 3.519 2.697 5.952 6.221 6.803 2.503.605 3.482 1.666 3.882 4.206.247 1.565.49 3.129.744 4.693.277 1.709.953 2.213 2.69 1.961 1.649-.238 3.292-.511 4.936-.776 2.231-.359 3.659.291 4.82 2.206 2.37 3.909 6.165 5.152 10.367 3.363 1.943-.827 3.635-.538 5.124.968a284.964 284.964 0 003.713 3.704c1.147 1.119 1.993 1.116 3.152-.014 1.31-1.277 2.58-2.596 3.89-3.872 1.372-1.334 3.027-1.682 4.714-.85 4.26 2.101 8.869.141 10.75-3.512.888-1.726 2.52-2.348 4.433-2.041 1.764.284 3.525.594 5.295.837 1.598.219 2.279-.312 2.537-1.875.244-1.482.5-2.964.712-4.451.419-2.933 1.273-3.888 4.183-4.604 3.934-.969 6.407-4.556 5.926-8.593-.255-2.133.501-3.622 2.392-4.62 1.58-.833 3.187-1.615 4.768-2.446 1.387-.729 1.665-1.6.966-3.01-.793-1.6-1.631-3.178-2.422-4.78-.884-1.789-.666-3.43.649-4.963 3.099-3.612 3.088-7.437-.02-11.077-1.31-1.535-1.507-3.182-.616-4.969.76-1.526 1.545-3.04 2.311-4.563.836-1.664.571-2.455-1.112-3.324-1.479-.764-2.969-1.505-4.443-2.28-1.979-1.04-2.721-2.492-2.48-4.692.067-.6.104-1.222.028-1.818-.449-3.522-2.686-5.951-6.211-6.802-2.488-.6-3.483-1.681-3.878-4.21zm6.39 12.773c-.39 3.182 1.2 6.236 4.104 7.818 1.206.657 2.442 1.26 3.788 1.95-.651 1.28-1.229 2.393-1.786 3.517-1.573 3.176-1.147 6.384 1.191 9.053 1.845 2.106 1.849 4.094.012 6.183-2.345 2.667-2.778 5.87-1.21 9.048.555 1.126 1.137 2.239 1.784 3.51-1.068.56-2.086 1.105-3.114 1.63-3.667 1.876-5.111 4.524-4.691 8.623.217 2.118-1.122 3.98-3.254 4.524-4.444 1.135-6.257 3.16-6.898 7.692-.131.923-.29 1.841-.456 2.889-1.37-.203-2.685-.386-3.995-.592-3.321-.521-6.332.891-8.068 3.796-1.567 2.624-3.276 3.142-6.156 1.978-3.162-1.278-6.07-.795-8.578 1.543-1.002.934-1.874 2.009-2.937 3.163-1.016-1.053-1.812-1.908-2.641-2.731-2.783-2.757-5.77-3.335-9.356-1.831-2.424 1.017-4.357.374-5.704-1.896-1.9-3.205-4.714-4.534-8.425-3.981l-3.745.559c-.232-1.352-.453-2.655-.68-3.957-.61-3.494-2.859-5.826-6.325-6.561-2.587-.55-3.907-2.368-3.58-4.931.415-3.247-1.092-6.273-3.969-7.88-1.235-.69-2.51-1.307-3.888-2.02.593-1.174 1.16-2.283 1.715-3.4 1.652-3.327 1.243-6.442-1.209-9.253-1.736-1.99-1.743-4.022-.018-6.002 2.494-2.864 2.882-5.943 1.177-9.355-.54-1.08-1.078-2.16-1.655-3.318 1.24-.648 2.382-1.25 3.529-1.843 3.153-1.63 4.744-4.64 4.302-8.15-.297-2.35 1.017-4.304 3.335-4.78 3.848-.787 6.031-3.11 6.65-6.955.187-1.16.382-2.32.594-3.606 1.364.201 2.678.386 3.989.59 3.28.511 6.286-.871 8.01-3.694 1.68-2.753 3.29-3.26 6.213-2.08 3.164 1.276 6.07.787 8.58-1.547 1.003-.933 1.872-2.008 2.953-3.183 1.072 1.123 1.913 2.05 2.803 2.927 2.594 2.558 5.737 3.14 9.069 1.71 2.556-1.097 4.433-.473 5.87 1.952 1.806 3.045 4.745 4.432 8.248 3.896 1.24-.19 2.48-.373 3.865-.581.237 1.395.462 2.74.695 4.081.576 3.314 2.892 5.713 6.192 6.421 2.774.595 4.01 2.304 3.67 5.074z" fill="#13264C"/><path d="M62.623 19.967c-23.442-.085-42.513 18.892-42.595 42.387-.082 23.432 18.897 42.493 42.401 42.585 23.43.091 42.515-18.903 42.596-42.392.08-23.44-18.895-42.495-42.402-42.58zm-.067 81.312c-21.452.025-38.87-17.377-38.868-38.83.003-21.414 17.308-38.752 38.75-38.823 21.446-.072 38.88 17.29 38.926 38.766.047 21.446-17.335 38.863-38.808 38.887z" fill="#13264C"/><path d="M53.06 28.603c-2.71.757-5.272 2.077-7.853 3.244-1.05.475-1.3 1.569-.813 2.476.478.894 1.474 1.184 2.522.724.223-.098.429-.232.644-.346 6.518-3.441 13.402-4.492 20.668-3.253C85.414 34.38 97.196 51.92 93.386 68.942c-4.079 18.224-21.941 28.844-39.903 23.723-15.044-4.289-24.889-20.208-22.036-35.53 1.292-6.941 4.428-12.842 9.54-17.705 1.034-.983 1.163-2.075.408-2.884-.792-.849-1.852-.8-2.883.202-8.739 8.485-12.483 18.826-10.776 30.85 2.458 17.314 17.35 30.008 34.784 30.158 1.977-.211 3.97-.329 5.928-.648 18.706-3.048 31.796-21.082 28.917-39.795C94.13 36.301 73.51 22.891 53.06 28.603z" fill="#13264C"/><path d="M83.062 62.465A20.495 20.495 0 0062.54 41.922c-11.372-.006-20.542 9.148-20.549 20.515-.007 11.366 9.155 20.538 20.521 20.546 11.367.007 20.544-9.157 20.55-20.518zm-37.41-.034c.008-9.357 7.556-16.87 16.925-16.85A16.835 16.835 0 0179.4 62.411a16.838 16.838 0 01-16.864 16.912A16.84 16.84 0 0145.65 62.431z" fill="#13264C"/><path d="M63.156 73.987c5.316 1.913 10.2-1.56 10.153-7.22-.005-.505.215-1.1.525-1.506 3.27-4.27 1.418-10.1-3.71-11.697-.55-.172-1.139-.585-1.465-1.055-3.014-4.346-9.166-4.383-12.22-.076-.354.5-.961.952-1.543 1.139-4.98 1.601-6.9 7.237-3.879 11.422.437.605.67 1.358.997 2.042-.247 5.366 4.768 8.837 9.68 7.03.444-.162 1.035-.233 1.462-.08zm-2.044-3.767c-1.396.933-2.974.871-4.216-.036-1.237-.904-1.768-2.376-1.317-4.004.312-1.126.058-1.928-.866-2.661-1.365-1.084-1.783-2.526-1.275-4.002.547-1.592 1.69-2.465 3.366-2.515 1.228-.037 1.916-.586 2.326-1.736.546-1.53 1.732-2.288 2.989-2.353 1.919-.016 3.237.778 3.772 2.276.427 1.194 1.109 1.778 2.395 1.819 1.675.053 2.83.942 3.335 2.548.51 1.617.007 2.986-1.309 3.993-.952.729-1.135 1.554-.828 2.667.446 1.615-.108 3.094-1.361 3.99-1.255.895-2.806.942-4.218-.005-.981-.66-1.822-.63-2.793.02z" fill="#13264C"/></svg>