<svg width="506" height="981" fill="none" xmlns="http://www.w3.org/2000/svg"><mask id="a" style="mask-type:alpha" maskUnits="userSpaceOnUse" x="0" y="0" width="506" height="981"><path transform="matrix(1 0 0 -1 .993 980.697)" fill="#2B3C5E" d="M0 0h505.007v980.697H0z"/></mask><g mask="url(#a)" fill="#2B3C5E"><path d="M1007.35 516.111l-24.214-1.245.473-12.173 12.119.31.162-12.492h-24.242a508.12 508.12 0 01-1.388 35.577l36.25 2.806c-.81 8.879-2.43 26.51-4.49 38.171l-35.926-5.629c-2.254 13.578-3.662 21.121-6.935 34.906l23.577 5.624c1.037-4.039 1.85-8.128 2.759-12.195l-11.859-2.5 2.373-11.95 23.843 4.378c-1.886 9.497-4.619 23.806-8.485 37.505l-46.843-12.482c5.046-17.779 8.677-38.293 11.247-56.591l36.06 4.687c.215-1.441.153-.996 1.462-12.413l-36.169-3.746c1.706-16.632 2.331-29.428 2.403-46.147l-.151-11.561 48.474-1.241.16 12.802c-.2 15.364-.03 9.485-.66 25.6v-.001zm-19.469 113.431c-2.201 7.373-1.323 4.563-3.81 12.244-2.21 6.743-3.536 10.933-8.581 24.168l-22.63-8.667c4.212-11.046 1.918-5.018 4.228-11.429l11.426 4.033c2.498-7.075 1.577-4.355 4.028-11.837l-34.587-11.198c2.137-6.59 1.353-4.057 3.43-11.025l46.496 13.711z"/><path d="M916.519 680.436l32.812 15.631s4.43-9.435 5.25-11.353l-33.214-14.764c4.935-11.452 9.851-22.412 16.588-43.094l11.529 3.733c-3.674 11.282-7.747 22.44-12.349 33.383l33.591 13.888c-5.64 13.088-6.502 15.567-16.145 34.913l-32.388-16.486a478.067 478.067 0 01-17.481 31.028l20.659 12.648c1.129-1.766 1.785-2.903 6.426-10.732l-10.492-6.052c2.04-3.514 3.989-7.081 5.989-10.619l21.294 11.551c-10.769 19.09-9.358 16.615-19.762 33.003l-40.639-26.365c14.605-23.006 19.014-31.476 28.331-50.315l.001.002zm5.156 87.325c-6.577 9.455-3.281 4.729-7.428 10.456-3.165 4.324-6.428 8.89-15.656 20.319l-18.832-15.223c7.112-8.804 3.466-4.288 7.568-9.563l9.612 7.363c4.576-5.951 2.856-3.651 7.507-10.007l-29.402-21.334c3.701-5.116.588-.637 6.696-9.426l39.935 27.415z"/><path d="M838.017 794.146l26.374 24.962c6.116-6.549 7.231-7.721 8.504-9.18l-27.017-24.268c8.195-9.321 16.406-18.398 29.165-35.887l9.8 7.111c-7.001 9.596-14.346 18.947-22.114 27.942l27.641 23.559c-11.269 12.816-10.803 12.497-26.146 28.229l-25.714-25.637a480.674 480.674 0 01-26.229 24.148l15.754 18.373 9.425-8.239-8.114-8.979c1.253-1.085 1.609-1.427 8.975-8.265l16.691 17.53c-8.918 8.31-21.031 19.078-28.98 25.332l-30.535-37.55c10.851-8.511 26.488-22.42 42.52-39.181zM680.993 951.985c-7.278 2.553-4.48 1.611-12.177 4.118-6.005 1.934-10.35 3.411-24.656 7.273l-6.261-23.351c11.177-3.016 5.299-1.428 11.762-3.302l3.437 11.589c7.211-2.14 4.462-1.285 11.974-3.703l-11.229-34.485c6.605-2.147 4.088-1.292 10.965-3.708l16.185 45.569zm47.223-73.722l17.38 31.848c3.641-2.044 7.311-4.04 10.927-6.126l-18.211-31.382c14.629-8.626 25.083-15.214 38.812-25.203 5.617-4.083 3.49-2.491 9.278-6.918l29.544 38.331c-6.12 4.675-3.754 2.917-10.29 7.673-12.269 8.83-15.927 11.086-21.165 14.537l-13.223-20.259c3.397-2.241 6.827-4.431 10.151-6.781l6.874 9.954c9.328-6.448 4.646-3.206 10.23-7.223l-14.265-19.543c-7.306 5.314-14.077 10.108-29.657 19.809l19.029 30.896c-5.43 3.452-17.913 10.702-33.614 18.824l-16.535-32.291c-10.604 5.388-21.429 10.334-32.412 14.898l9.286 22.328 11.52-4.935-4.937-11.038c2.094-.889 3.359-1.499 11.096-5.101l10.452 21.81c-11.074 5.167-25.95 11.694-35.43 15.178l-17.385-45.128c17.811-6.515 35.777-15.308 52.545-24.158z"/><path d="M597.76 924.294l6.586 35.657 12.298-2.43-7.525-35.472c14.354-3.198 28.002-6.51 44.723-11.926l3.744 11.495c-11.316 3.664-22.767 6.93-34.351 9.643l8.46 35.262c-5.543 1.413-19.823 4.5-37.824 7.471l-5.646-35.816c-11.761 1.805-23.585 3.219-35.453 4.152l1.876 24.099c4.161-.38 8.327-.71 12.483-1.134l-1.253-12.02s11.127-1.271 12.136-1.421l3.134 23.968c-14.854 2.19-37.916 3.455-38.383 3.485l-2.497-48.278c10.507-.692 22.386-1.015 46.076-4.791 8.13-1.296 9.27-1.512 11.416-1.946v.002zm-138.461 3.593l-4.701 35.952c1.451.215 1.01.154 12.45 1.458l3.758-36.062c15.69 1.599 28.367 2.319 46.284 2.395l11.595-.15 1.246 48.325-12.841.167c-15.41-.199-9.513-.037-25.677-.664l1.249-24.139 12.209.473-.311 12.082 12.53.162v-24.171a511.729 511.729 0 01-35.682-1.384l-2.815 36.148c-8.905-.809-26.589-2.428-38.285-4.484l5.645-35.816c-8.582-1.418-18.347-2.979-35.01-6.917l-5.64 23.508c4.05 1.034 8.151 1.846 12.23 2.751l2.508-11.824 11.986 2.367-4.39 23.771c-9.522-1.88-23.937-4.622-37.617-8.46l12.52-46.702c17.833 5.032 38.405 8.651 56.759 11.214zm-132.703-39.135l-15.677 32.714s9.463 4.417 11.386 5.233l14.809-33.113c11.485 4.919 22.477 9.822 43.222 16.538 6.61 2.132 4.07 1.35 11.058 3.42l-13.751 46.357c-7.395-2.195-4.576-1.319-12.281-3.799l11.231-34.483c-11.316-3.664-22.508-7.726-33.483-12.312l-13.929 33.491c-13.166-5.641-15.76-6.555-35.017-16.098l16.535-32.291a481.48 481.48 0 01-31.122-17.429l-12.685 20.597c1.759 1.12 2.927 1.789 10.763 6.407l6.07-10.461c3.525 2.033 7.102 3.978 10.651 5.97l-11.586 21.232c-19.179-10.754-16.729-9.373-33.101-19.703l26.444-40.519c23.082 14.566 31.571 18.959 50.463 28.247v.002z"/><path d="M349.816 924.984c11.172 4.235 5.266 1.995 11.464 4.216l-4.046 11.392c7.096 2.491 4.368 1.573 11.873 4.016l-3.745 11.494c-6.766-2.203-10.957-3.523-24.239-8.554l8.693-22.564zm-110.805-31.092c-9.481-6.556-4.752-3.278-10.487-7.405l28.53-39.087c5.182 3.724.563.533 9.455 6.675l-27.498 39.817zm-26.464-83.408l-25.036 26.296s7.631 7.111 9.208 8.478l24.34-26.937c9.33 8.155 18.419 16.332 35.995 29.079l-7.133 9.772c-9.625-6.98-19.004-14.304-28.026-22.048l-23.629 27.559c-14.268-12.473-12.426-10.664-28.312-26.07l25.714-25.637a480.406 480.406 0 01-24.221-26.151l-18.427 15.706 8.263 9.397 9.006-8.089c1.127 1.295 1.545 1.726 8.29 8.949l-17.583 16.642c-8.333-8.891-19.135-20.97-25.408-28.893l37.663-30.445c8.567 10.857 22.524 26.448 39.296 42.394v-.002z"/><path d="M223.413 852.101c8.831 7.091 4.309 3.463 9.593 7.546l-7.386 9.583c5.969 4.562 3.661 2.847 10.037 7.485l-7.133 9.772c-4.339-3.157-8.911-6.406-20.378-15.61l15.267-18.776zm-95.234-151.092l-31.942 17.328c2.05 3.631 4.051 7.29 6.143 10.895l31.477-18.157c8.652 14.589 15.256 25.007 25.278 38.696 4.095 5.601 2.498 3.479 6.939 9.25l-38.446 29.456c-4.689-6.103-2.926-3.743-7.696-10.26-2.48-3.425-4.625-6.084-14.58-21.101l20.319-13.183c2.248 3.387 4.445 6.807 6.801 10.121l-9.983 6.854c6.472 9.306 3.215 4.632 7.244 10.198l19.602-14.223c-5.372-7.34-10.19-14.117-19.869-29.567l-30.988 18.972c-3.464-5.418-10.742-17.874-18.88-33.514l32.388-16.486c-5.404-10.571-10.365-21.365-14.943-32.315l-22.394 9.259 4.95 11.485 11.07-4.922c.902 2.114 1.577 3.506 5.116 11.063L73.91 701.279c-5.174-11.019-11.723-25.854-15.224-35.325l45.262-17.333c6.522 17.724 15.37 35.703 24.23 52.388zM66.233 610.96c3.02 11.126 1.433 5.288 3.312 11.726l-11.624 3.427c2.147 7.19 1.29 4.449 3.714 11.94l-11.528 3.732c-1.987-6.137-3.491-10.577-7.294-24.583l23.42-6.242z"/><path d="M80.06 559.559c1.3 8.112 1.516 9.242 1.951 11.382l-35.763 6.567 2.437 12.262 35.578-7.502c3.207 14.31 6.53 27.918 11.961 44.589 2.154 6.586 1.295 4.077 3.72 10.933l-45.705 16.136c-2.561-7.256-1.618-4.467-4.131-12.14l34.587-11.197c-3.676-11.282-6.951-22.699-9.673-34.248l-35.366 8.435c-1.417-5.528-4.513-19.766-7.493-37.712l35.923-5.629c-1.811-11.726-3.229-23.515-4.165-35.348l-24.17 1.871c.38 4.148.711 8.302 1.136 12.445l12.056-1.249s1.276 11.095 1.426 12.099l-24.04 3.125c-2.2-14.847-3.465-37.804-3.495-38.268l48.422-2.49c.695 10.476 1.018 22.319 4.804 45.938v.001zm-1.653-126.666l-36.06-4.687c-.214 1.445-.154 1.012-1.462 12.412l36.17 3.747c-1.603 15.638-2.327 28.283-2.402 46.146l.15 11.561-48.469 1.241-.167-12.803c.2-15.364.037-9.484.666-25.6l24.21 1.245-.474 12.173-12.117-.311-.163 12.492h24.243c.049-11.874.507-23.74 1.388-35.577l-36.255-2.806c.81-8.863 2.43-26.483 4.496-38.171l35.924 5.628c1.416-8.52 2.956-18.16 6.936-34.906l-23.578-5.623c-1.037 4.038-1.851 8.126-2.76 12.194l11.86 2.501-2.374 11.95-23.842-4.378c1.89-9.512 4.643-23.893 8.486-37.505l46.841 12.483c-5.048 17.787-8.675 38.284-11.246 56.591v.003zm-32.11-81.414c2.202-7.372 1.323-4.562 3.81-12.244 2.216-6.767 3.56-10.996 8.58-24.167l22.632 8.667c-4.235 11.103-1.899 4.966-4.228 11.429l-11.427-4.034c-2.498 7.075-1.577 4.355-4.028 11.838l34.588 11.197c-2.138 6.591-1.354 4.059-3.43 11.026L46.299 351.48l-.002-.001zm66.207-138.219c6.576-9.455 3.281-4.728 7.427-10.456l39.203 28.446c-3.74 5.171-.533.559-6.696 9.426l-39.934-27.416z"/><path d="M117.659 300.585l-32.811-15.631s-4.43 9.435-5.25 11.352l33.213 14.765c-4.935 11.452-9.851 22.411-16.588 43.093l-11.53-3.733c3.675-11.282 7.749-22.44 12.349-33.382l-33.591-13.888c5.708-13.245 6.61-15.783 16.146-34.913l32.388 16.486a478.054 478.054 0 0117.48-31.028l-20.658-12.648c-1.123 1.755-1.795 2.918-6.427 10.732l10.493 6.052c-2.04 3.514-3.99 7.08-5.988 10.619L85.59 256.909c10.717-19.001 9.38-16.648 19.762-33.003l40.64 26.366c-14.637 23.054-19.032 31.509-28.332 50.314l-.001-.001zm36.761-102.876c-7.113 8.804-3.467 4.287-7.569 9.563l-9.612-7.364c-4.576 5.951-2.855 3.651-7.507 10.008l-9.801-7.112c3.166-4.325 6.425-8.886 15.656-20.318l18.833 15.223z"/><path d="M196.161 186.875l-26.373-24.962c-6.939 7.431-7.327 7.832-8.504 9.181l27.016 24.268c-8.179 9.302-16.38 18.363-29.164 35.887l-9.801-7.112c7-9.596 14.347-18.947 22.113-27.941l-27.641-23.559c11.53-13.112 10.995-12.694 26.148-28.228l25.714 25.637a481.814 481.814 0 0126.228-24.149l-15.753-18.372-9.424 8.239 8.113 8.979c-1.305 1.13-1.748 1.555-8.976 8.265l-16.691-17.531c8.895-8.288 21.019-19.069 28.979-25.332l30.535 37.551c-10.956 8.595-26.583 22.517-42.519 39.179zM353.186 29.037c7.277-2.553 4.48-1.613 12.176-4.119 6.017-1.936 10.381-3.419 24.657-7.272l6.26 23.35c-11.159 3.011-5.303 1.43-11.761 3.303L381.08 32.71c-7.211 2.14-4.463 1.286-11.975 3.703l11.229 34.485c-6.605 2.148-4.088 1.292-10.964 3.709l-16.185-45.569h.001zm-47.224 73.721L288.583 70.91c-3.642 2.043-7.311 4.04-10.928 6.126l18.212 31.383c-14.632 8.627-25.083 15.212-38.813 25.203-5.617 4.082-3.49 2.491-9.278 6.918l-29.544-38.331c6.12-4.675 3.755-2.917 10.291-7.673 3.46-2.49 6.123-4.624 21.165-14.537l13.222 20.259c-3.397 2.241-6.827 4.43-10.15 6.78l-6.875-9.954c-9.317 6.441-4.646 3.206-10.229 7.223l14.266 19.543c7.363-5.357 14.158-10.158 29.655-19.81l-19.029-30.896c5.433-3.454 17.926-10.71 33.615-18.824l16.535 32.292c10.603-5.388 21.428-10.334 32.411-14.898l-9.286-22.328-11.519 4.935 4.936 11.037c-2.028.861-3.09 1.374-11.097 5.101L305.691 48.65c11.053-5.158 25.931-11.687 35.43-15.178l17.386 45.127c-17.831 6.522-35.761 15.298-52.546 24.158l.001.001z"/><path d="M436.419 56.728l-6.587-35.657-12.298 2.43 7.525 35.47c-14.353 3.199-28.001 6.51-44.722 11.926l-3.743-11.495c11.316-3.665 22.765-6.93 34.35-9.644l-8.46-35.26c5.545-1.413 19.825-4.5 37.824-7.472l5.645 35.817c11.762-1.806 23.586-3.22 35.454-4.153l-1.877-24.098c-4.161.38-8.327.708-12.482 1.133l1.253 12.022s-11.128 1.271-12.135 1.42L453.031 5.2c14.891-2.193 37.996-3.46 38.383-3.484l2.497 48.278c-10.507.692-22.385 1.014-46.075 4.79-8.126 1.294-9.267 1.512-11.416 1.946l-.001-.001zm138.46-3.594l4.701-35.953c-1.453-.214-1.002-.152-12.449-1.458l-3.758 36.063c-15.686-1.598-28.367-2.32-46.284-2.396l-11.595.15-1.245-48.325 12.841-.166c15.409.199 9.513.037 25.676.662l-1.248 24.14-12.209-.474.31-12.081-12.529-.162v24.17c11.909.05 23.811.506 35.683 1.384l2.814-36.147c8.89.808 26.562 2.423 38.285 4.483l-5.646 35.817c13.559 2.239 21.636 3.756 35.01 6.915l5.641-23.508c-4.051-1.034-8.151-1.845-12.231-2.75l-2.508 11.823-11.986-2.367 4.392-23.77c9.483 1.872 23.938 4.62 37.617 8.46l-12.52 46.702c-17.827-5.03-38.412-8.651-56.76-11.214l-.002.002zM707.582 92.27l15.678-32.714s-9.463-4.417-11.385-5.234l-14.809 33.114c-11.486-4.92-22.477-9.822-43.222-16.539-6.61-2.131-4.071-1.35-11.058-3.42l13.751-46.356c7.394 2.195 4.576 1.319 12.28 3.798 6.787 2.21 11.03 3.55 24.24 8.555l-8.693 22.564c-11.149-4.227-5.27-1.997-11.462-4.215l4.046-11.392c-7.097-2.491-4.369-1.573-11.873-4.017l-7.487 22.989c11.316 3.664 22.508 7.725 33.482 12.312l13.929-33.491c14.338 6.142 16.063 6.704 35.018 16.097l-16.535 32.292a480.548 480.548 0 0131.12 17.429l12.687-20.597c-1.763-1.122-2.828-1.731-10.764-6.408L750.454 87.5c-3.525-2.033-7.102-3.978-10.65-5.97l11.586-21.233c19.149 10.737 16.738 9.377 33.102 19.703l-26.445 40.519c-23.123-14.592-31.608-18.978-50.464-28.248h-.001zm87.585-5.14c9.458 6.538 4.739 3.267 10.488 7.405l-28.531 39.087c-5.177-3.723-.561-.533-9.454-6.676l27.497-39.817zm26.464 83.408l25.037-26.295c-7.407-6.876-7.864-7.313-9.208-8.478l-24.342 26.936c-9.33-8.155-18.416-16.331-35.994-29.077l7.133-9.772c9.625 6.98 19.003 14.304 28.024 22.048l23.63-27.559c12.95 11.32 12.595 10.829 28.314 26.07l-25.714 25.637a480.758 480.758 0 0124.22 26.151l18.427-15.707-8.262-9.396-9.005 8.089c-1.134-1.301-1.546-1.726-8.289-8.949l17.583-16.641c8.3 8.855 19.135 20.968 25.407 28.893l-37.663 30.445c-8.558-10.846-22.517-26.443-39.297-42.394l-.001-.001z"/><path d="M810.765 128.921c-8.846-7.104-4.293-3.45-9.591-7.547l7.385-9.583c-5.969-4.562-3.661-2.846-10.037-7.484l7.133-9.772c4.336 3.156 8.917 6.409 20.378 15.609l-15.268 18.777zm95.234 151.091l31.943-17.327c-2.05-3.631-4.052-7.29-6.144-10.895l-31.476 18.157c-8.633-14.554-15.28-25.04-25.278-38.696-4.095-5.601-2.499-3.48-6.939-9.251l38.445-29.456c4.69 6.102 2.926 3.744 7.696 10.26l-29.402 21.334c5.324 7.278 10.107 13.987 19.868 29.568l30.989-18.973c3.476 5.435 10.721 17.835 18.88 33.515l-32.388 16.486c5.404 10.571 10.365 21.364 14.942 32.315l22.395-9.259-4.949-11.485-11.071 4.922c-.887-2.078-1.502-3.346-5.116-11.063l21.873-10.421c5.166 11.005 11.732 25.879 15.223 35.325l-45.262 17.333c-6.539-17.778-15.343-35.655-24.23-52.39l.001.001z"/><path d="M908.507 237.089c-2.247-3.388-4.445-6.807-6.801-10.121l9.985-6.854c-6.494-9.337-3.232-4.652-7.246-10.198l9.801-7.112c2.486 3.435 4.639 6.104 14.58 21.102l-20.319 13.183zm45.612 184.373c-1.296-8.09-1.513-9.23-1.95-11.381l35.762-6.568-2.436-12.262-35.577 7.503c-3.194-14.243-6.427-27.605-11.961-44.59-2.154-6.585-1.297-4.076-3.721-10.932l45.706-16.137c2.561 7.257 1.616 4.467 4.13 12.14l-34.588 11.197c3.677 11.283 6.952 22.699 9.674 34.249l35.366-8.435c1.413 5.516 4.506 19.73 7.496 37.712l-35.927 5.627c1.812 11.727 3.229 23.516 4.165 35.348l24.171-1.87c-.38-4.149-.71-8.303-1.136-12.446l-12.056 1.249s-1.275-11.094-1.425-12.099l24.038-3.125c2.2 14.81 3.48 38.046 3.5 38.268l-48.425 2.49c-.583-8.801-.948-21.874-4.806-45.938z"/><path d="M967.946 370.06c-3.005-11.07-1.436-5.302-3.312-11.725l11.624-3.427c-2.146-7.19-1.289-4.45-3.715-11.94l11.529-3.733c1.984 6.13 3.48 10.543 7.295 24.585l-23.421 6.24zm-31.303 157.729c-.67 7.289-.205 3.042-1.275 12.381-.567 5.481-2.434 18.406-4.8 30.745l-23.8-4.603c-1.167 6.006-2.008 9.928-3.745 17.192-1.755 7.175-1.087 4.565-2.926 11.361l11.696 3.178c-.539 1.943-1.028 3.898-1.627 5.824l-17.468-5.029c.385-1.235 2.266-7.887 4.433-16.748 2.574-10.753 2.992-13.346 4.777-22.601l23.866 4.248c.665-3.996 2.704-15.839 3.574-24.274l.698-6.095-12.058-1.237c.203-1.975.36-3.955.542-5.931l18.113 1.589zm-10.452-37.279l-.076 6.045-6.06-.088.075-5.957h6.061z"/><path d="M916.575 543.958c.296-1.963.51-3.938.736-5.91l6.019.707c-.229 2.002-.446 4.006-.747 5.999l-6.008-.796zm-1.767 42.375l-1.438 5.873-5.87-1.502 1.416-5.785 5.892 1.414z"/><path d="M918.158 619.126l-23.08-7.396c-1.775 5.592-3.737 11.123-5.765 16.627-1.403 3.651-2.747 7.326-4.271 10.929l11.231 4.546-2.297 5.595-16.743-7.069c5.066-12.344 2.996-7.262 6.399-16.106 3.592-9.749 6.63-19.142 7.414-21.879l23.189 7.051c1.883-6.342 3.353-10.967 6.465-23.677.485-1.987.987-3.97 1.403-5.973l-11.826-2.654 1.271-5.818 17.795 3.716c-2.057 9.427-1.531 7.147-2.751 12.145-2.439 9.956-4.952 19.261-8.434 29.963z"/><path d="M900.676 632.567l-2.155 5.651-5.649-2.19 2.122-5.566 5.682 2.105z"/><path d="M900.08 665.522l-22.033-10.083c-1.504 3.164-2.925 6.489-7.705 15.828l-5.55 10.342 10.609 5.845-2.959 5.276-15.783-9.001 8.292-15.227c2.353-4.597 6.121-12.089 9.959-20.854l22.18 9.755c5.592-12.748 7.279-17.558 9.265-22.733.75-1.905 1.402-3.844 2.09-5.77l-11.424-4.04 1.981-5.619 17.225 5.804c-3.22 9.138-3.536 10.064-4.191 11.73-3.223 8.399-7.817 20.12-11.958 28.745l.002.002z"/><path d="M876.603 709.442l-20.678-12.618c-5.897 9.39-3.713 5.987-9.536 14.807-4.958 7.14-5.627 8.129-6.74 9.617l9.842 7.053-3.571 4.883-14.606-10.796c5.482-7.495 3.539-4.757 10.052-14.138 4.788-7.252 5.837-8.712 12.365-19.539l20.863 12.311c4.033-6.878.21.034 11.919-21.466.942-1.816 1.834-3.658 2.753-5.486l-10.86-5.367c.871-1.785 1.804-3.54 2.625-5.349l16.409 7.807c-.77 1.694-4.784 9.705-5.538 11.158-4.911 9.017-10.402 19.417-15.298 27.12l-.001.003z"/><path d="M881.121 676.794l-2.829 5.347-5.348-2.843 2.787-5.268 5.39 2.764zm-33.039 73.483l-19.04-14.962c-6.972 8.63-4.397 5.509-11.232 13.576-1.01 1.181-6.681 7.571-7.821 8.766l8.941 8.161-4.13 4.424-13.231-12.436c5.914-6.332 10.155-11.11 11.651-12.863 5.364-6.329 7.094-8.256 14.598-17.946l19.26 14.68c5.017-6.47 9.743-13.161 14.382-19.905l3.384-5.124-10.147-6.612c1.099-1.657 2.196-3.312 3.234-5.007l15.366 9.692c-1.086 1.77-6.812 10.43-6.812 10.43-5.755 8.37-11.435 16.324-18.403 25.126z"/><path d="M856.436 718.391l-3.45 4.971-4.973-3.453 3.399-4.898 5.024 3.38zm-29.447 38.392c-1.31 1.534-2.674 3.022-4.009 4.535l-4.53-4.014c1.314-1.491 2.659-2.956 3.949-4.468l4.59 3.947z"/><path d="M814.94 787.474l-17.142-17.091c-9.593 9.338-4.987 4.896-12.765 12.156-1.191 1.129-7.598 6.782-8.794 7.797l7.917 9.152-4.63 3.902-11.671-13.9c6.951-5.859 11.88-10.266 13.085-11.409 4.629-4.322 7.73-7.026 16.619-16.107l17.394 16.838c4.167-4.165 13.269-14.152 16.625-18.082l3.973-4.684-9.294-7.759c2.425-2.866 1.551-1.812 3.799-4.595l14.113 11.431-8 9.552c-6.835 8.002-14.285 15.71-21.228 22.798l-.001.001z"/><path d="M777.63 820.519l-15.006-18.983c-8.497 6.621-10.834 8.168-14.109 10.574-1.366 1.016-2.127 1.533-9.645 6.72l6.781 10.018-5.065 3.324-9.947-15.175c5.13-3.366 11.863-7.95 14.339-9.793 3.535-2.599 7.733-5.467 18.406-14.039l15.287 18.761c3.819-3.18 13.319-10.98 18.637-16.014l4.503-4.179-8.315-8.795c1.471-1.338 2.887-2.733 4.311-4.121l12.667 13.006c-3.477 3.387-2.278 2.241-9.074 8.546-6.111 5.783-17.27 14.804-23.77 20.15z"/><path d="M793.217 791.454c-1.466 1.388-3.01 2.689-4.512 4.037l-4.026-4.518c1.48-1.328 3.002-2.609 4.445-3.977l4.093 4.458zm-37.628 30.47c-1.621 1.204-3.295 2.333-4.954 3.484l-3.464-4.958c1.634-1.135 3.285-2.246 4.881-3.433l3.537 4.907z"/><path d="M736.673 848.954l-12.655-20.617c-5.031 3.041-10.101 6.017-15.259 8.84l-10.373 5.535 5.544 10.747c-1.796.926-3.616 1.802-5.423 2.706l-8.075-16.243c6.5-3.252 1.01-.359 15.396-8.033 8.137-4.453 14.418-8.327 19.941-11.764l12.961 20.428c6.287-3.835 17.822-11.808 20.398-13.721l4.97-3.616-7.219-9.708c1.623-1.152 3.177-2.393 4.764-3.592l11.044 14.402c-5.089 3.843-.037.16-10.023 7.42-3.647 2.709-12.95 9.101-25.991 17.216z"/><path d="M714.62 847.756c-3.335 1.854-2.111 1.19-5.33 2.883l-2.851-5.332c3.325-1.75 2.119-1.099 5.25-2.84l2.931 5.289z"/><path d="M692.623 872.362l-10.114-21.967c-12.541 5.563-9.047 4.045-16.2 6.973-3.614 1.52-7.299 2.859-10.961 4.259l4.222 11.329c-1.881.737-3.799 1.377-5.702 2.053l-6.078-17.085c5.674-2.016 12.799-4.706 16.24-6.154 7.874-3.223 3.661-1.376 21.2-9.31l10.441 21.815c6.617-2.987 17.731-9.016 21.88-11.229l5.371-2.994-6.018-10.49c1.736-.972 3.434-2.01 5.153-3.011l9.261 15.6c-5.95 3.468-1.167.794-10.835 6.184-11.536 6.153-13.464 7.324-27.86 14.027z"/><path d="M670.868 868.567c-1.873.756-3.734 1.545-5.631 2.24l-2.195-5.632c1.869-.685 3.701-1.462 5.547-2.208l2.279 5.6z"/><path d="M646.088 890.386l-7.418-23.011c-10.146 3.223-13.655 4.12-16.915 5.005-7.153 1.922-4.538 1.248-11.395 2.916l2.837 11.75c-1.964.477-3.924.97-5.903 1.378l-3.992-17.685c1.657-.34 8.109-1.836 16.858-4.189 9.134-2.476 13.169-3.779 22.165-6.71l7.761 22.898c4.238-1.484 14.997-5.187 23.061-8.572l5.695-2.325-4.727-11.128 5.473-2.387 7.338 16.586c-7.204 3.141-4.566 2.023-11.5 4.854-7.624 3.198-19.66 7.487-29.339 10.621l.001-.001z"/><path d="M597.732 902.759l-4.615-23.729c-4.127.777-13.458 2.467-17.393 2.975-3.887.523-7.762 1.137-11.665 1.535l1.419 12.002-6.025.686-1.861-18.033c14.645-1.671 7.648-.878 17.244-2.168 4.288-.553 18.594-3.091 22.807-4.06l4.969 23.658c5.621-1.242 10.212-2.072 23.925-5.756 1.977-.545 3.968-1.04 5.927-1.646l-3.362-11.611 5.725-1.698 5.304 17.34c-11.583 3.435-6.088 1.815-12.001 3.445-13.01 3.493-21.089 5.24-30.398 7.06z"/><path d="M624.942 884.04l-5.854 1.572-1.507-5.854 5.768-1.549 1.593 5.831zm-76.682 25.294l-1.77-24.106c-11.093.701-7.045.489-17.63.895-1.483.076-1.481.056-11.77.188v12.085l-6.062-.076.265-18.127c8.398.108 16.054-.041 17.391-.11 8.801-.337 10.357-.321 23.139-1.364l2.126 24.078c14.696-1.346 18.437-2.048 24.439-2.859 2.035-.261 4.053-.629 6.077-.955l-1.952-11.928 5.892-.973 3.196 17.846c-10.213 1.69-10.689 1.776-12.326 1.988-8.506 1.151-20.947 2.822-31.014 3.419l-.001-.001z"/><path d="M577.499 893.959l-6.005.838-.798-5.99 5.915-.826.888 5.978zm-48.287 4.244c-2.019.102-4.041.075-6.062.115l-.088-6.041c1.991-.041 3.983-.014 5.972-.114l.178 6.04zm-48.449-1.426c-2.013-.185-4.028-.343-6.038-.549l.62-6.01c1.98.202 3.966.358 5.949.539l-.531 6.02z"/><path d="M470.119 883.539l-1.418 12.002c-2.008-.228-4.018-.444-6.017-.744l2.395-17.971c1.86.28 7.865 1.028 17.276 1.891 10.798.959 18.167 1.175 23.139 1.364l-.706 24.161c3.536.176 20.184.221 24.598 0l6.147-.232-.53-12.074c3.759-.148 2.389-.08 5.966-.306l1.06 18.098-12.466.554c-8.491.421-22.254.102-31.186-.235l1.059-24.147c-2.073-.055-9.741-.464-17.614-1.163-6.949-.636-2.745-.176-11.705-1.198h.002zm-37.31 6.171l-5.925-1.286 1.33-5.895 5.837 1.267-1.242 5.914zm-50.658-1.247c-9.92-3.475-13.131-4.506-29.179-11.058l9.453-22.257c-12.249-5.343-6.47-2.789-16.087-7.234-1.551-.697-9.252-4.534-10.546-5.201l-5.543 10.747-5.363-2.82 8.555-15.996c8.171 4.3 14.102 7.185 15.507 7.817 5.586 2.582 9.08 4.366 21.2 9.31l-9.118 22.396c7.407 3.109 17.956 6.791 23.061 8.572l5.853 1.895 3.709-11.505c1.894.612 3.782 1.24 5.697 1.786l-5.304 17.34c-2.098-.6-3.886-1.197-11.896-3.791l.001-.001z"/><path d="M423.818 875.296l-2.837 11.75-5.891-1.434 4.521-17.559c13.813 3.359 7.136 1.745 16.926 3.914 4.211.961 18.521 3.515 22.806 4.06l-3.55 23.91c6.106.826 9.738 1.513 24.438 2.859 2.043.167 4.083.391 6.131.512l.885-12.053 5.961.376-1.06 18.098c-12.047-.763-5.504-.343-12.447-.913-12.21-1.117-20.353-2.16-30.962-3.87l3.905-23.855c-4.171-.702-13.515-2.336-17.35-3.21-3.828-.847-7.675-1.614-11.476-2.585zm-87.92-5.568c-7.726-3.491-22.601-11.698-27.65-14.431l12.036-20.981c-6.212-3.539-11.116-6.592-15.114-9.084-1.674-1.019-9.861-6.402-9.861-6.402l-6.78 10.018-4.987-3.44 10.393-14.875c3.9 2.692 10.775 7.342 14.475 9.592 5.325 3.314 9.069 5.707 19.94 11.764l-11.723 21.157c3.972 2.119 15.343 8.278 21.881 11.229l5.575 2.596 5.058-10.984c1.795.858 3.625 1.643 5.45 2.438l-7.338 16.586c-4.407-1.919-2.979-1.283-11.354-5.182l-.001-.001z"/><path d="M378.832 861.627l-4.223 11.329-5.668-2.149 6.587-16.897c8.424 3.193 5.212 2.033 16.325 5.929 9.689 3.136 12.348 4.002 22.165 6.709l-6.376 23.321c13.86 3.723 18.621 4.584 23.925 5.756 1.999.457 4.021.808 6.034 1.201l2.308-11.864 5.866 1.12-3.196 17.846c-9.949-1.897-10.599-2.01-12.255-2.388-8.2-1.81-21.291-4.734-30.291-7.51l6.725-23.223c-10.011-3.003-3.945-1.068-16.845-5.243-9.251-3.242-9.65-3.375-11.081-3.937z"/><path d="M386.032 877.013l-5.72-2.004 2.026-5.696 5.635 1.976-1.941 5.724zm-42.303-23.646l-2.61 5.454c-1.842-.83-3.63-1.774-5.447-2.656l2.691-5.415c1.79.868 3.552 1.799 5.366 2.617zm-51.52-7.709c-3.742-2.282-13.263-8.517-25.739-17.589l14.439-19.417c-4.714-3.509-9.38-7.086-13.937-10.797l-9.033-7.519-7.917 9.152c-1.538-1.307-3.032-2.666-4.548-3.997l12.077-13.551c5.3 4.643.342.486 13.244 11.224 7.122 5.804 12.968 10.084 18.406 14.039l-14.149 19.626c3.423 2.543 15.46 10.711 20.398 13.722l5.22 3.248 6.327-10.308c1.682 1.064 3.419 2.035 5.126 3.057l-9.261 15.601c-6.059-3.627-.066.097-10.653-6.491z"/><path d="M251.686 816.615c-9.161-7.626-11.525-9.394-23.477-20.487l16.63-17.587c-10.317-9.924-6.906-6.608-12.568-12.357-2.773-2.767-5.396-5.677-8.081-8.528l-8.942 8.16c-1.392-1.461-2.698-3.001-4.049-4.498l13.592-12.041c4.085 4.518 8.736 9.613 11.829 12.699 6.218 6.312 1.969 2.214 16.619 16.106l-16.368 17.829c5.368 5.082 14.866 12.875 18.638 16.014l4.791 3.847 7.504-9.492c1.563 1.23 3.156 2.422 4.732 3.634l-11.043 14.402c-5.683-4.371-2.305-1.681-9.806-7.702l-.001.001zm50.244 13.722l-3.24 5.107c-1.724-1.05-3.411-2.162-5.096-3.273l3.315-5.058c1.661 1.095 3.323 2.189 5.021 3.224z"/><path d="M214.879 783.022c-9.151-9.148-17.982-19.659-20.897-23.097l18.589-15.516c-1.283-1.478-5.748-6.88-11.025-13.742-2.419-3.08-4.701-6.262-7.015-9.419l-9.843 7.053c-1.208-1.616-2.34-3.285-3.495-4.94L196.112 713c4.12 5.899 8.51 11.786 10.249 13.996 6.899 8.975 9.878 12.379 14.598 17.946l-18.358 15.786c3.309 3.874 12.393 13.852 16.626 18.083l4.299 4.388 8.572-8.545 4.274 4.16-12.666 13.007c-5.624-5.475-3.593-3.458-8.826-8.8l-.001.001zm48.273 19.523l-3.822 4.69c-2.972-2.387-1.897-1.505-4.677-3.845l3.89-4.633c2.875 2.418 1.818 1.547 4.609 3.788z"/><path d="M223.575 774.603c-1.413-1.441-2.834-2.875-4.196-4.362l4.41-4.146c1.342 1.467 2.743 2.88 4.134 4.299l-4.348 4.209zm-41.289-29.255c-4.814-6.21-10.88-14.577-18.024-25.394l20.294-13.223c-5.928-9.118-7.474-11.824-9.321-14.94-3.252-5.55-.629-.873-5.846-10.18l-10.611 5.844c-1.859-3.325-1.193-2.105-2.891-5.313l16.044-8.529c8.242 14.921 4.959 9.025 8.52 15.1 5.172 8.729 8.215 13.289 12.364 19.539l-20.096 13.521c4.64 6.744 9.365 13.435 14.382 19.906 1.253 1.619 2.485 3.253 3.756 4.859l9.519-7.482 3.747 4.638-14.112 11.431c-6.035-7.473-3.395-4.18-7.724-9.776l-.001-.001z"/><path d="M154.371 704.101c-5.271-8.986-10.661-18.939-14.888-27.346l21.723-10.734c-1.749-3.507-3.416-6.815-7.483-15.933-2.97-6.767-1.912-4.288-4.586-10.802l-11.232 4.546c-.758-1.867-1.551-3.722-2.249-5.614l16.948-6.567c.501 1.362 3.055 7.778 6.664 15.998 4.086 9.162 7.224 15.583 9.958 20.854l-21.559 11.054c11.73 21.541 7.889 14.593 11.919 21.466 1.056 1.753 2.061 3.537 3.159 5.264l10.338-6.308 3.163 5.052-15.366 9.691c-6.603-10.547-2.875-4.582-6.511-10.62l.002-.001zm37.545 33.906c-1.22-1.606-2.483-3.18-3.656-4.822l4.868-3.599c1.155 1.619 2.4 3.168 3.602 4.751l-4.814 3.67z"/><path d="M164.803 697.946c-1.02-1.741-2.076-3.458-3.067-5.216l5.261-3c.975 1.731 2.017 3.425 3.021 5.138l-5.215 3.078zm-33.261-38.103c-4.189-9.553-7.444-17.507-11.522-28.922l22.849-8.079c-2.58-7.343-1.409-3.778-5.532-16.706-1.113-3.749-2.272-7.484-3.255-11.271l-11.694 3.178-1.577-5.837 17.611-4.507c3.242 11.988 2.191 8.17 4.713 16.674.02.062 4.723 15.067 7.413 21.879l-22.725 8.419c5.586 14.55 6.501 16.43 9.265 22.733.821 1.873 1.634 3.752 2.519 5.597l11.016-5.043 2.527 5.397-16.41 7.807c-3.887-8.301-3.253-6.88-5.198-11.319z"/><path d="M114.147 613.187c-2.603-8.758-6.125-21.141-7.985-30.086l23.652-5.306c-2.113-9.895-.677-2.499-3.51-17.243-1.613-9.715-1.68-10.051-1.876-11.58l-11.991 1.77-.841-5.988 18.024-2.388c1.259 8.967.727 5.532 2.651 17.124 1.15 5.984 2.45 13.075 4.777 22.601l-23.569 5.658c3.236 13.218 4.641 17.533 6.466 23.677.565 1.966 1.213 3.906 1.846 5.852l11.54-3.697 1.845 5.663-17.226 5.804c-2.615-8.026-3.182-9.704-3.802-11.86l-.001-.001zm28.486 41.778l-2.431-5.538 5.581-2.356 2.394 5.455-5.544 2.439z"/><path d="M102.439 564.8c-2.599-15.617-2.86-17.931-4.335-30.813l24.116-2.474c-1.123-12.407-.839-8.762-1.397-17.545l-.525-11.723-12.117.352c-.102-2.012-.075-4.028-.117-6.042l18.181-.264c.155 7.408-.148.007.628 17.324.359 5.633.656 11.019 2.035 23.017l-24.076 2.83c.432 4.188 1.587 12.449 3.575 24.274l1.156 6.026 11.9-2.301c.382 1.948.723 3.904 1.168 5.84l-17.796 3.716c-.386-1.678-.576-2.733-2.395-12.218l-.001.001zm23.302 44.861l-1.728-5.794 5.822-1.677 1.703 5.709-5.797 1.762z"/><path d="M96.62 515.379c-.497-11.1-.866-15.939-.676-31.087l24.241.351c.065-5.07.355-13.816.638-17.59.737-11.602.362-5.593.864-11.701l-12.075-1.059c.185-2.007.344-4.015.55-6.02l18.086 1.855c-.839 8.171-1.143 13.626-1.375 17.278-.57 7.578-.702 23.045-.703 23.105h-24.243c.175 13.847.083 9.735.745 24.516l.389 6.121 12.089-.883c.117 1.982.336 3.957.499 5.935l-18.112 1.589c-.573-6.925-.153-.403-.916-12.41zm17.751 47.296l-.991-5.963 5.982-.975.975 5.876-5.966 1.062z"/><path d="M108.722 514.674c-.242-3.799-.167-2.413-.311-6.036l6.055-.264c.148 3.747.079 2.381.306 5.948l-6.049.353-.001-.001zm-9.142-79.998l24.031 3.184c1.448-9.988.243-2.647 2.692-17.39 1.812-9.431 1.899-9.953 2.258-11.512l-11.863-2.478 1.289-5.906 17.739 3.98c-1.902 8.707-1.182 5.147-3.456 16.977-.964 5.802-2.277 13.31-3.364 22.856l-24.076-2.829c-1.528 13.337-1.612 15.818-2.159 24.436-.245 3.853-.171 2.447-.316 6.124l12.11.528-.227 5.952-18.174-.528.556-12.429c.584-9.186 1.59-21.866 2.96-30.968v.003z"/><path d="M108.722 466.348l.382-6.033 6.045.441-.378 5.944-6.049-.352zm.345-80.537l23.483 6.009c4.011-14.819 2.004-7.438 4.786-16.935.559-1.951 1.108-3.575 3.581-11.172l-11.484-3.87 2.011-5.703 17.136 6.059c-1.823 5.168-4.501 13.143-5.446 16.449-1.333 4.548-2.923 9.353-6.085 22.283l-23.569-5.659c-1.995 7.78-4.22 19.519-5.074 24.011l-1.007 6.052 11.964 1.947c-.317 1.96-.676 3.913-.93 5.882l-17.985-2.654c.222-1.72.403-2.738 1.993-12.289 2.773-14.456 3.127-16.113 6.629-30.411l-.003.001z"/><path d="M114.371 418.346l1.14-5.937 5.949 1.15-1.123 5.849-5.966-1.062zm9.989-79.92l22.596 8.756c2.15-5.459 4.371-10.892 6.768-16.248 1.531-3.601 3.255-7.115 4.897-10.665l-10.939-5.205c.833-1.836 1.779-3.618 2.664-5.429l16.291 8.05c-2.468 5.057-5.66 11.669-7.367 15.689-3.76 8.402-6.405 15.32-8.722 21.397l-22.725-8.419c-1.679 4.265-6.611 18.843-7.877 23.247l-1.754 5.881 11.645 3.352c-.59 1.896-1.071 3.824-1.601 5.737l-17.543-4.767c1.645-5.933.015-.433 3.456-11.965 1.161-4.037 4.75-15.085 10.213-29.409l-.002-.002z"/><path d="M125.741 371.36c.557-1.937 1.196-3.849 1.819-5.766l5.77 1.849c-.613 1.889-1.244 3.771-1.792 5.68l-5.797-1.763zm19.45-78.165l21.392 11.372c.974-1.892 4.413-8.19 8.652-15.335 2.806-4.657-.09-.068 6.136-10.01l-10.244-6.461c1.054-1.72 2.169-3.401 3.283-5.082l15.221 9.918c-5.038 7.591-9.097 14.575-9.18 14.712-5.715 9.632-8.19 14.479-11.224 20.209l-21.559-11.054c-2.604 5.02-8.232 16.639-10.581 22.154l-2.465 5.621 11.161 4.713-2.262 5.511-16.847-6.818c2.979-7.255 1.866-4.621 4.868-11.466 4.876-11.445 11.261-23.47 13.649-27.984z"/><path d="M142.633 326.056c.809-1.846 1.609-3.698 2.482-5.515l5.508 2.52c-.861 1.79-1.649 3.614-2.446 5.433l-5.544-2.438zm22.17-42.98c1.04-1.727 2.03-3.486 3.113-5.187l5.169 3.155c-1.067 1.677-2.041 3.41-3.066 5.11l-5.216-3.078z"/><path d="M171.246 250.751l19.893 13.816c.071-.102 6.276-8.832 10.407-14.212 4.174-5.393 1.501-2.061 7.282-9.217l-9.409-7.62c2.394-2.964 1.51-1.892 3.856-4.664l13.942 11.636c-10.149 12.417-6.429 7.815-10.857 13.534-6.18 8.051-8.925 12.07-13.546 18.745l-20.096-13.52c-4.534 6.815-8.996 13.683-13.132 20.747-1.035 1.766-2.106 3.511-3.111 5.293l10.522 6-2.914 5.198-15.915-8.765c5.389-9.61 2.73-4.884 6.204-10.803 3.987-6.808 9.543-15.6 16.875-26.169l-.001.001z"/><path d="M202.138 211.676l18.122 16.055c2.742-3.082 5.196-5.857 12.011-12.894 5.177-5.286 3.268-3.378 8.322-8.296l-8.444-8.671c1.445-1.408 2.883-2.825 4.375-4.183l12.473 13.19c-5.006 4.55-12.317 12.109-12.377 12.17-5.431 5.608-11.115 11.706-15.662 17.033L202.6 220.293c-15.012 18.143-10.678 12.824-15.499 19.053-1.238 1.63-2.519 3.227-3.71 4.893l9.738 7.198-3.52 4.813-14.764-10.58c7.284-9.957 3.597-4.932 7.442-9.993 6.055-7.826 13.304-16.577 19.852-23.999l-.001-.002z"/><path d="M191.916 243.014c1.235-1.595 2.449-3.206 3.701-4.788l4.759 3.741c-1.233 1.557-2.429 3.146-3.645 4.718l-4.815-3.671zm45.506-66.518l16.103 18.067c4.078-3.608 10.178-8.83 13.447-11.397 7.178-5.765 3.856-3.115 9.244-7.26l-7.362-9.6c1.611-1.217 3.19-2.476 4.836-3.646l10.829 14.562c-3.525 2.498-10.357 7.928-13.725 10.634-4.82 3.785-15.034 12.692-17.556 15.084l-16.368-17.829c-3.765 3.521-7.58 6.825-17.643 17.097-1.434 1.463-2.874 2.918-4.257 4.428l8.82 8.29-4.071 4.36-13.412-12.24c6.195-6.635 4.988-5.39 8.572-9.047 9.06-9.248 13.94-13.78 22.543-21.503z"/><path d="M227.81 202.093l4.287 4.272-4.174 4.262-4.348-4.209 4.235-4.325zm48.804-56.396l13.857 19.834c6.316-4.354 3.664-2.602 14.698-9.741 9.976-6.208 5.346-3.305 10.039-6.117l-6.173-10.401c1.744-1.017 3.469-2.07 5.23-3.058l9.027 15.736c-5.932 3.32-12.775 7.634-14.883 8.946-.063.041-12.975 8.282-19.21 12.922l-14.15-19.627c-11.423 8.321-13.409 9.98-19.543 14.905-3.017 2.423-1.926 1.528-4.747 3.901l7.78 9.267-4.562 3.846-11.876-13.728 9.581-7.977c8.474-6.803 15.667-12.279 24.928-18.709l.004.001z"/><path d="M259.329 173.786l4.723-3.792 3.752 4.747-4.652 3.736-3.823-4.691zm59.855-54.067l11.406 21.329c5.183-2.776 10.45-5.392 15.749-7.94 3.561-1.637 7.086-3.356 10.698-4.882l-4.893-11.057 5.556-2.422 7.09 16.693c-13.59 5.93-6.93 3.028-15.84 7.123-6.726 3.235-13.783 6.781-20.599 10.572l-11.723-21.157c-11.307 6.302-14.206 8.156-21.178 12.493-1.75 1.067-3.461 2.194-5.173 3.321l6.631 10.117-4.99 3.275-10.17-15.027c7.248-4.758 8.418-5.545 10.461-6.793 13.324-8.292 13.937-8.485 26.975-15.645z"/><path d="M298.689 145.577l5.144-3.201 3.164 5.153-5.067 3.154-3.241-5.106zM364.55 98.95l8.783 22.53c9.707-3.634 2.687-1.149 16.58-6.022 8.289-2.682 9.318-3.032 11.207-3.57l-3.537-11.56 5.812-1.723 5.043 17.416c-9.388 2.785-5.726 1.649-16.585 5.162-8.755 3.071-12.107 4.195-21.704 8.07l-9.118-22.396c-13.194 5.386-17.223 7.451-22.523 9.891-1.869.843-3.683 1.799-5.527 2.695l5.383 10.829c-1.779.889-3.573 1.752-5.341 2.664l-8.316-16.121c1.501-.773 9.517-4.764 11.192-5.521 7.827-3.607 19.588-9.016 28.651-12.344z"/><path d="M341.119 122.201l5.494-2.558 2.528 5.492-5.412 2.52-2.61-5.454zm70.958-38.498l6.026 23.413c13.234-3.22 7.172-1.768 17.191-3.976 1.506-.346 1.855-.401 11.546-2.251l-2.13-11.897 5.982-.989 2.929 17.892c-8.691 1.434-15.623 2.824-17.084 3.16-6.355 1.402-10.27 2.124-22.518 5.418l-6.376-23.32c-7.929 2.11-15.757 4.575-23.55 7.132l-5.805 2.034 4.052 11.391c-1.875.666-3.765 1.295-5.618 2.022l-6.333-16.993c1.754-.686 3.565-1.306 11.764-4.178 14.984-4.92 20.106-6.218 29.926-8.856l-.002-.002z"/><path d="M386.032 104.009l5.767-1.868 1.855 5.753-5.681 1.839-1.941-5.724zm75.055-29.765l3.194 23.96c13.187-1.589 10.644-1.31 17.545-1.92 6.128-.501.099-.127 11.736-.862l-.708-12.064c3.81-.241 2.419-.168 6.054-.31l.795 18.11c-17.348.992-9.879.535-17.347 1.144-4.895.433-2.791.12-23.014 2.692l-3.55-23.911c-3.885.498-19.482 3.227-24.226 4.313l-6.013 1.305 2.661 11.79c-1.949.402-3.88.889-5.815 1.359l-4.256-17.625c4.889-1.187 2.712-.69 12.18-2.744 8.682-1.984 21.945-4.007 30.764-5.237z"/><path d="M432.809 91.31c1.971-.45 3.962-.794 5.946-1.183l1.154 5.933c-1.954.381-3.917.72-5.858 1.165l-1.242-5.914zm78.043-20.692l.352 24.169c9.413-.091 16.264.043 17.656.112l11.758.524.707-12.064 6.051.382-1.327 18.08-17.365-.881c-3.128-.155-18.11-.26-23.187 0l-.706-24.16c-24.57 1.247-16.482.784-24.559 1.447-2.042.187-4.086.348-6.126.557l1.241 12.022-5.935.677-2.128-18.005c9.439-1.074 5.264-.617 12.418-1.271a523.995 523.995 0 0131.152-1.588h-.002z"/><path d="M480.763 84.245c2.014-.165 4.024-.386 6.041-.505l.443 6.027c-1.988.117-3.967.335-5.953.497l-.531-6.019zm48.449-1.426l6.058.229-.265 6.037-5.97-.226.177-6.04zm98.919 2.504c7.655 2.037 17.641 5.045 29.788 9.3l-8.104 22.78c.065.024 9.534 3.442 16.493 6.25 6.856 2.797 4.367 1.751 10.834 4.573l4.893-11.057c1.853.807 3.709 1.604 5.532 2.475l-7.586 16.475c-1.618-.774-7.469-3.406-15.952-6.866-10.383-4.188-17.372-6.557-21.704-8.07l7.761-22.9c-7.793-2.558-15.621-5.022-23.549-7.131l-5.943-1.596-3.013 11.706-5.803-1.411 4.257-17.625c7.638 1.86 4.859 1.153 12.096 3.097z"/><path d="M587.338 100.889l2.131-11.897 5.955 1.136-3.462 17.797c-7.335-1.402-14.893-2.646-17.127-2.929-6.576-.897-9.416-1.444-23.014-2.692l2.126-24.077c-8.084-.663.008-.2-24.559-1.448-2.048-.102-4.099-.076-6.148-.117l-.177 12.084-5.974-.076V70.542c11.187.139 11.112.13 12.475.197 17.673.897 20.031.898 31.13 2.033l-2.482 24.045c13.372 1.524 7.399.82 17.511 2.201 1.624.207 2.177.313 11.615 1.871z"/><path d="M577.499 87.063c2.005.256 3.994.619 5.989.94l-.976 5.964c-1.966-.317-3.925-.674-5.9-.927l.887-5.977zm47.443 9.919c1.949.538 3.911 1.025 5.842 1.621l-1.682 5.806c-1.902-.588-3.834-1.067-5.754-1.597l1.594-5.83zm50.486 4.276c12.054 4.921 18.02 7.698 28.461 12.771l-10.766 21.657c5.037 2.496 12.166 6.172 15.635 8.158 9.335 5.203 4.697 2.617 10.211 5.829l6.174-10.401c1.732 1.037 3.496 2.024 5.202 3.104l-9.49 15.462c-4.894-3.1-14.33-8.317-15.027-8.704-4.953-2.837-17.354-9.113-20.599-10.572l10.441-21.814c-5.205-2.397-9.276-4.484-22.523-9.891-1.901-.768-3.789-1.568-5.714-2.275l-4.392 11.265-5.583-2.116 6.334-16.993c10.299 3.905 6.637 2.5 11.636 4.52z"/><path d="M633.06 111.887l3.536-11.56c1.944.554 3.861 1.192 5.784 1.814l-5.562 17.259c-6.058-1.959-13.807-4.193-16.656-4.928-8.102-2.176-4.226-1.23-22.517-5.418l4.969-23.657c-4.77-1.091-20.038-3.775-24.226-4.313l-6.094-.85-1.596 11.98c-1.97-.297-3.949-.51-5.927-.733l2.128-18.005c4.767.541 3.189.348 12.377 1.63 2.412.31 14.42 2.17 30.683 5.7l-5.323 23.581c12.973 3.072 9.808 2.29 17.122 4.255 3.797.98 7.544 2.137 11.304 3.245h-.002zm87.423 10.8c7.345 4.096 16.405 9.238 26.735 16.047l-13.263 20.233c4.938 3.191 9.774 6.534 14.56 9.945 3.168 2.309 6.359 4.583 9.447 6.995l7.362-9.6c1.6 1.23 3.217 2.441 4.804 3.689l-11.256 14.238c-6.076-4.782-12.755-9.584-13.893-10.414-8.322-5.929-16.694-11.39-19.21-12.921l12.961-20.428c-11.637-7.242-13.343-8.126-21.179-12.493-3.384-1.88-2.143-1.207-5.408-2.926l-5.703 10.664-5.282-2.779 8.315-16.121 11.011 5.872-.001-.001zm-49.615-10.232l5.611 2.291-2.363 5.564-5.527-2.256 2.279-5.599z"/><path d="M762.664 149.285c12.925 9.411 13.779 10.254 24.644 19.079l-15.561 18.534c4.521 3.755 8.931 7.64 13.286 11.585 2.859 2.678 5.778 5.294 8.554 8.058l8.444-8.671 4.337 4.223-12.856 12.818c-10.584-10.299-5.384-5.237-12.57-11.971-5.66-5.125-11.601-10.304-17.556-15.084l15.286-18.76c-8.679-6.968-11.588-9.11-19.544-14.905-1.646-1.221-3.345-2.367-5.028-3.535l-6.928 9.917-4.911-3.389 10.17-15.027c7.619 5.256 8.673 5.968 10.233 7.128zm-50.975-10.73l2.931-5.29 5.292 2.951-3.009 5.245-5.214-2.906z"/><path d="M801.401 180.653c5.231 4.891 15.308 14.296 22.219 21.837l-17.64 16.58c2.704 2.897 6.416 6.81 11.829 13.062l7.542 9.006 9.408-7.62 3.804 4.708-14.28 11.222-11.062-13.369c-5.651-6.528-11.862-13.158-15.661-17.033l17.394-16.838c-9.543-9.742-12.775-12.544-17.643-17.097-1.487-1.409-3.055-2.729-4.579-4.098l-8.051 9.034c-1.495-1.311-2.965-2.651-4.482-3.937l11.876-13.728c1.315 1.117 8.015 7.028 9.328 8.271h-.002zm-49.348-16.648l3.536-4.907 4.899 3.562-3.61 4.854-4.825-3.509z"/><path d="M836.167 216.345c7.795 9.421 14.575 17.424 19.489 24.294l-19.475 14.396c6.034 8.309 2.202 2.829 10.208 14.356 4.555 6.903 5.249 7.917 6.42 9.831l10.244-6.461 3.211 5.128-15.509 9.464c-3.603-5.754-3.607-5.837-9.391-14.581-4.456-6.417-6.384-9.31-13.547-18.746l19.26-14.681c-4.852-6.269-.448-.862-15.5-19.053-1.329-1.557-2.713-3.067-4.067-4.602l-9.061 8.027c-1.333-1.475-2.618-2.992-3.99-4.431l13.411-12.24c1.244 1.307 7.168 7.98 8.295 9.3l.002-.001zm-47.043-22.32l4.093-4.457 4.437 4.118-4.156 4.397-4.374-4.058z"/><path d="M826.989 224.238l3.915 4.616-4.648 3.879-3.857-4.548 4.59-3.947zm39.495 31.632c5.216 7.838 11.496 17.581 16.48 26.421l-21.044 12.001c5.419 9.674 3.48 6.125 8.42 15.464.672 1.294 4.528 8.992 5.217 10.514l10.94-5.205 2.565 5.478-16.524 7.563c-.029-.062-4.077-8.82-7.588-15.586-3.981-7.522-4.91-9.437-11.223-20.209l20.863-12.31c-4.137-7.065-8.598-13.934-13.133-20.748l-3.5-5.045-9.947 6.908c-1.138-1.629-2.253-3.274-3.443-4.866l14.764-10.58c1.157 1.549 1.937 2.69 7.15 10.203l.003-.003z"/><path d="M856.436 262.631l3.334 5.048-5.073 3.306-3.285-4.975 5.024-3.379zm35.465 36.07c5.383 10.377 9.329 19.271 13.238 28.182l-22.325 9.424c5.489 13.375 2.794 6.753 6.5 16.358.619 1.566.876 2.334 3.949 11.049l11.483-3.87 1.873 5.75-17.31 5.547c-2.32-7.131-4.826-14.218-5.675-16.371-5.496-14.234-5.963-15.112-8.722-21.397l22.181-9.755c-2.34-5.495-7.935-17.054-10.581-22.154l-2.871-5.426-10.696 5.686c-1.755-3.316-1.103-2.114-2.848-5.234l15.915-8.766 5.889 10.977z"/><path d="M912.038 344.245c1.663 4.226 5.567 15.455 9.774 29.557l-23.292 6.705c1.607 5.64 3.152 11.301 4.503 17.01.974 3.788 1.743 7.624 2.593 11.442l11.865-2.478c.453 1.964.798 3.951 1.187 5.928l-17.85 3.452c-1.13-5.748-2.717-13.163-3.687-16.928-1.94-8.202-4.021-15.366-6.085-22.283l23.189-7.051c-1.434-4.989-6.431-19.571-7.877-23.247l-2.187-5.735-11.299 4.379c-.687-1.864-1.467-3.691-2.214-5.531l16.846-6.818c2.048 5.039.668 1.463 4.533 11.601l.001-.003zm-30.917-40.017c.929 1.79 1.807 3.604 2.712 5.406l-5.429 2.683c-.893-1.774-1.757-3.563-2.673-5.326l5.39-2.763z"/><path d="M926.593 391.859c1.922 7.499 4.444 20.134 6.169 30.504l-23.927 3.894c.6 3.676 1.246 7.411 2.456 17.424 1.041 9.07.57 4.832 1.202 11.67l12.075-1.059c.165 2.008.387 4.011.506 6.023l-18.134 1.324c-.368-6.285-1.489-15.689-1.667-17.251-1.299-10.736-1.843-13.764-3.364-22.856l23.865-4.248c-.796-4.145-2.942-15.698-5.075-24.01l-1.46-5.961-11.741 3.004-1.554-5.75 17.542-4.768c2.045 7.571 1.33 4.802 3.107 12.06zm-25.917-43.404c.739 1.876 1.38 3.788 2.059 5.686l-5.713 2.02c-.668-1.87-1.3-3.753-2.028-5.6l5.682-2.106z"/><path d="M914.808 394.688c.479 1.958.974 3.912 1.383 5.886l-5.914 1.326c-.402-1.945-.891-3.869-1.363-5.797l5.894-1.415zm20.56 46.164c1.686 14.724 1.741 17.644 2.511 31.004l-24.22 1.056c.31 9.581.205 1.273.412 17.598-.131 10.168-.113 10.286-.187 11.735l12.116.352-.23 6.041-18.165-.793c.328-8.573.263-6.251.405-17.334-.079-6.232-.11-13.842-.703-23.105l24.203-1.41c-.842-13.243-1.209-16.139-2.16-24.436-.232-2.032-.453-4.065-.759-6.087l-12.015 1.592-.828-5.898 17.987-2.655c1.265 9.009 1.06 7.314 1.635 12.341l-.002-.001z"/><path d="M938.313 490.51c-.178 14.272.061 7.355-1.15 31.078l-24.178-1.765c-.468 5.848-.975 11.694-1.694 17.517-.399 3.892-1.015 7.755-1.539 11.63l11.991 1.77c-.258 1.998-.621 3.982-.944 5.971l-17.945-2.921c.932-5.754 2.033-13.386 2.418-17.158 1.009-8.177 1.597-16.14 2.033-23.017l24.203 1.411c.657-14.669.57-10.672.743-24.516l-.076-6.131-12.121.176c-.041-1.985-.014-3.972-.115-5.955l18.175-.528c.074 1.49.065 1.684.199 12.438zm-14.984-48.244l.688 6.007-6.029.618-.677-5.917 6.018-.708zm-224.06 126.547l28.85 12.424c-2.993 6.833-3.577 7.908-5.65 12.06l-14.036-7.041c-1.807 3.646-4.005 7.599-5.906 10.918l27.202 15.692a247.047 247.047 0 0018.097-38.627l-44.295-16.077c3.942-11.13 6.766-20.996 8.896-33.203l46.433 8.108c2.474-14.018 3.653-28.267 3.701-42.554h-31.426c-.152 6.929.123 1.226-.376 12.473l15.687.898c-.175 2.625-.298 5.835-1.156 13.294l-31.219-3.599c1.406-12.133 1.264-19.441 1.35-23.065-.06-2.533-.016-6.424-.35-11.575l62.75-3.588c.541 12.294.287 5.984.452 15.163-.071 22.332-2.92 43.522-6.997 60.088l-45.877-10.801c-.733 2.901-1.252 5.385-3.215 11.962l45.165 13.462c-6.736 22.973-17.279 45.808-32.019 68.369l-52.482-34.482c6.316-9.703 11.087-18.1 16.42-30.295l.001-.004zm-26.49 68.128l11.428 10.753c-2.595 2.798-6.659 6.85-9.465 9.437l-21.57-22.787c4.334-3.985 10.056-9.893 15.869-16.772l12.031 10.077c-4.45 5.26-6.409 7.257-8.293 9.292zm-3.065 156.482l14.126 27.99c-19.608 9.701-39.256 17.715-60.254 23.878l-18.002-60.04c30.051-8.79 56.631-21.833 81.063-37.735l25.939 39.244c5.777-3.757 11.391-7.75 16.939-11.827l-28.178-37.678c21.429-16.249 37.268-31.432 52.072-49.017 3.886-4.487 8.414-10.43 11.149-14.016l50.387 37.46c-4.158 5.467-8.924 11.656-13.408 16.861-8.432 9.926-18.25 20.729-29.601 31.278l-21.57-22.787c4.369-4.056 10.014-9.693 13.97-13.929l11.427 10.753c8.17-8.748 10.211-11.237 13.741-15.392l-24.064-20.152c-12.506 14.853-25.624 27.839-39.941 39.821l30.32 35.988c-22.283 19.081-44.315 31.807-52.97 37.053l-23.606-40.681a327.063 327.063 0 01-51.243 23.862l10.75 29.443c9.525-3.527 10.106-3.854 19.248-7.644l-6.231-14.382c6.724-2.936 8.332-3.597 17.934-8.35l.003-.001z"/><path d="M606.057 667.291l14.126 27.99c-3.897 1.933-5.117 2.594-12.097 5.633l-6.229-14.382c-4.166 1.829-7.32 3.004-11.541 4.588l10.75 29.442a248.099 248.099 0 0038.742-18.044l-23.606-40.681c13.023-7.674 22.952-15.131 28.329-19.826L674.849 678c10.987-9.194 20.844-18.978 30.288-30.198l-36.096-30.23c2.737-3.115 7.139-8.964 7.188-9.026l50.386 37.459c-.261.341-5.692 7.557-9.447 11.873-12.551 14.91-25.718 27.526-44.121 41.535l-28.178-37.677c-3.354 2.445-6.726 4.87-10.213 7.122l25.94 39.244c-21.306 13.841-44.166 24.81-68.574 31.923l-18.002-60.04c9.392-2.718 20.337-6.885 32.037-12.696v.002zm-64.029 35.179l1.805 15.563c-7.545.861-10.732.98-13.334 1.152l-1.8-31.281c7.876-.535 12.523-.899 22.939-2.637l2.71 15.432c-4.088.685-8.19 1.324-12.32 1.771zM419.594 815.271c5.327 1.567 7.24 2.188 19.127 5.105l-7.222 30.494c-27.224-6.656-41.072-11.839-61.563-20.332l24.922-57.528c26.033 10.795 52.83 19.331 86.438 23.038l-5.415 46.688c10.697 1.197 14.272 1.379 20.589 1.778l2.7-46.921c22.257.971 42.764.929 71.478-4.104 6.842-1.19 13.177-2.532 17.588-3.606l14.443 60.989c-5.462 1.321-13.059 2.928-21.189 4.343-16.757 2.857-28.354 4.027-42.881 4.941l-1.8-31.281c5.167-.328 9.041-.507 19.684-1.7l1.805 15.563c6.853-.76 13.678-1.795 20.482-2.953l-5.421-30.863c-18.591 3.257-37.452 4.819-56.268 4.867v46.999c-21.124-.267-38.919-1.227-64.401-5.573l8.132-46.294c-18.585-3.272-36.908-8.122-54.653-14.563l-10.751 29.443c6.504 2.321 13.049 4.537 19.678 6.481l4.5-15.009-.002-.002z"/><path d="M471.266 682.954l-7.222 30.494c-2.896-.724-5.32-1.2-12.888-3.442l4.5-15.009c-3.975-1.154-7.89-2.501-11.794-3.879l-10.75 29.443c13.406 4.864 27.242 8.519 41.296 11.001l8.132-46.295c16.86 2.814 24.551 2.752 34.55 2.986v46.999c14.329-.049 28.621-1.225 42.68-3.69l-8.132-46.295c4.64-.805 8.753-1.688 11.275-2.313l14.444 60.989c-3.533.864-8.944 2.019-14.875 3.049-24.154 4.236-40.925 4.336-60.601 3.474l2.7-46.922c-8.175-.548-9.022-.684-12.43-1.074l-5.415 46.688c-28.542-3.122-51.317-10.442-73.103-19.482l24.922-57.528c12.707 5.597 23.398 8.455 32.711 10.806zm-238.189-6.148c3.6 5.505 7.433 10.854 11.339 16.145l-25.193 18.73c-13.475-18.224-22.123-32.114-34.024-54.916l56.146-28.166c13.484 25.848 27.111 47.006 51.34 73.001l-34.282 32.259c4.212 4.508 10.091 10.37 14.613 14.569l32.355-34.18c17.592 16.3 35.747 30.204 57.42 42.688 7.196 4.116 9.175 5.065 15.798 8.5l-28.252 55.978c-7.887-4.093-10.505-5.359-19.022-10.237-12.168-7.375-19.025-11.167-36.057-23.685l18.786-25.119c5.305 3.895 10.67 7.716 16.193 11.306l-8.646 13.081c5.359 3.491.707.622 17.593 10.856l15.738-27.121c-16.339-9.411-31.814-20.281-46.257-32.36l-30.318 35.988c-20.006-16.896-32.757-30.329-45.718-45.581l36.096-30.228c-12.114-14.4-23.016-29.83-32.457-46.119l-27.201 15.691c10.204 16.736 7.26 12.006 10.888 17.541l13.121-8.62.001-.001zm124.873-68.261l-25.194 18.729c-2.635-3.587-5.242-7.197-7.668-10.926l13.121-8.62c-3.833-5.879-3.856-5.998-6.558-10.555l-27.201 15.692c7.142 12.33 15.408 24.017 24.592 34.936l36.096-30.228c7.762 9.186 15.297 16.698 24.51 24.437l-30.319 35.989c10.952 9.156 22.674 17.397 35.041 24.518l-7.869 13.56c-18.899-10.883-33.876-22.524-48.634-36.159l32.355-34.18c-2.598-2.393-6.423-6.207-8.823-8.797L327.117 669.2c-20.786-22.365-32.141-40.072-43.481-61.82l56.146-28.167c4.072 8.237 10.149 18.378 18.168 29.332z"/><path d="M399.521 668.859l-8.646 13.081c-3.741-2.419-7.36-5.018-10.958-7.644l18.785-25.119c6.254 4.551 10.454 7.462 19.275 12.659 3.078 1.752 6.822 3.822 10.145 5.454l-28.252 55.978c-5.646-2.926-7.161-3.647-13.369-7.191l23.607-40.681c-10.641-6.448-6.877-4.134-10.587-6.537zm-80.414-189.925l-31.375-1.794c.207-3.106.338-6.171 1.156-13.295l15.609 1.8c.447-4.119 1.09-8.207 1.776-12.283l-30.956-5.405c-2.472 14.018-3.652 28.267-3.701 42.553h47.139c.299 12.684.538 19.812 2.996 34.446l-46.434 8.108c2.489 14.012 6.156 27.806 11.034 41.173l-14.765 5.359c-7.309-20.024-11.895-40.433-13.918-58.822l46.828-5.398c-.814-7.06-.92-10.051-1.079-12.393l-47.062 2.692c-1.055-23.943-.113-48.207 6.544-75.252l61.17 14.401c-2.106 8.455-3.992 19.873-4.965 34.112l.003-.002zm-141.39-8.084l-31.375-1.795c1.239-19.563 3.816-41.296 9.311-63.88l61.171 14.401c-7.889 32.231-9.009 59.751-7.733 88.802l-47.063 2.691c.365 5.744.565 9.713 1.783 20.528l46.827-5.398c2.449 22.075 7.904 46.107 16.462 69.547 3.15 8.435 3.255 8.505 6.646 16.633l-57.701 24.848c-4.097-9.828-4.478-10.564-8.006-20.044-6.123-17.04-8.929-27.278-12.386-41.336l30.586-7.201c1.17 4.74 1.959 8.391 5.12 19.071l-15.055 4.487c1.949 6.609 4.172 13.135 6.5 19.618l29.531-10.719c-6.46-17.692-11.324-35.96-14.605-54.491l-46.433 8.108c-4.234-24.688-5.311-42.347-5.589-64.209h47.139c.048-18.76 1.615-37.564 4.882-56.101l-30.955-5.405c-1.163 6.783-2.201 13.589-2.963 20.421l15.61 1.8c-.585 5.18-.975 8.193-1.705 19.626l.001-.002zm-16.467-86.519c2.038-6.903 4.357-13.718 6.79-20.49l59.061 21.437c-2.014 5.621-3.946 11.273-5.632 17.002l-60.219-17.949z"/><path d="M311.993 551.76l-15.054 4.487c-2.242-7.523-2.717-9.922-3.453-12.848l30.585-7.2c1.538 6.055 2.512 10.489 6.578 21.962 1.437 3.796 2.54 6.768 4.261 10.653l-57.701 24.847c-3.127-7.494-2.982-7.025-5.622-14.064l44.296-16.078c-1.382-3.892-2.733-7.795-3.89-11.759zm.953-370.579c5.552-3.618.929-.764 18.37-11.336l31.475 54.241c-15.005 9.095-10.457 6.294-15.26 9.419l-34.586-52.325.001.001zM213.273 338.34c-4.908 9.856-6.215 12.961-8.376 17.879l-14.425-6.212c-3.958 9.492-4.257 10.038-7.667 19.191l-14.765-5.359c6.616-17.778 12.117-29.452 17.16-39.584l28.073 14.085z"/><path d="M269.831 257.917l-22.855-21.506c12.573-13.449 28.318-27.787 48.284-42.88l37.571 50.237c-26.427 20.043-44.466 38.451-63.221 63.033l-37.79-28.094c-4.09 5.532-8.095 11.129-11.864 16.89l39.362 25.862c-12.819 19.586-23.508 40.05-32.217 63.819l-14.765-5.359a325.165 325.165 0 0123.933-51.09l-40.802-23.537c10.292-16.88 20.704-33.706 37.163-52.811l36.096 30.228c12.555-14.912 25.678-27.883 39.941-39.821l-20.213-23.992c-4.089 3.452-6.627 5.52-15.437 13.699l10.785 11.394c-4.309 4-9.959 9.632-13.971 13.928zm102.995 96.915l-22.854-21.506c2.595-2.797 6.659-6.849 9.465-9.437l10.785 11.394c6.246-5.748 6.896-6.231 9.32-8.268l-20.212-23.993c-11.342 9.491-21.136 19.326-30.287 30.197l36.096 30.229c-5.006 5.698-12.432 15.673-19.886 28.245l-40.802-23.536a246.733 246.733 0 00-18.097 38.627l29.53 10.719c1.585-4.201 2.766-7.356 4.601-11.506l-14.425-6.212c2.982-6.806 3.569-7.891 5.65-12.061l28.073 14.084c-4.332 8.669-6.206 13.318-9.133 21.054-1.276 3.604-2.531 7.217-3.6 10.888l-60.22-17.949c1.421-4.845 3.062-9.622 4.76-14.376 7.462-20.353 16.438-37.422 27.26-53.994l39.361 25.863c2.259-3.476 4.692-6.837 7.143-10.182l-37.79-28.094c17.087-22.314 32.232-37.169 53.569-53.41l37.571 50.237c-9.237 7.084-17.977 14.446-25.878 22.987zm9.572-175.585c-9.694 4.234-12.409 5.617-17.933 8.352l-7.063-13.995c-7.568 3.926-10.018 5.108-18.217 9.803l-7.868-13.56c15.081-8.638 27.742-14.61 38.621-19.363l12.46 28.763zm111.557 114.867l-3.61-31.125c7.288-.831 10.467-.962 13.335-1.153l.9 15.641c11.336-.499 5.51-.222 12.51-.375v-31.333c-14.329.049-28.621 1.225-42.681 3.691l8.132 46.295c-12.223 2.122-22.284 4.99-33.302 8.87l-16.126-44.163a248.308 248.308 0 00-38.742 18.042l23.607 40.681c-9.861 5.976-6.442 3.88-9.809 6.06l-34.585-52.326c4.231-2.748-.017-.136 12.918-7.976 18.82-10.83 37.893-18.771 55.655-23.948l13.502 45.03c6.725-1.995 9.059-2.467 11.997-3.205l-10.833-45.741c27.619-6.759 51.208-7.586 75.476-6.525l-3.598 62.562c-10.229-.658-22.553-.406-34.745.997l-.001.001z"/><path d="M421.059 299.737l-7.063-13.995c6.694-3.321 7.78-3.753 12.096-5.632l12.462 28.765c-8.476 3.685-13.96 6.545-20.576 10.31l-7.869-13.559c3.309-1.885 7.322-4.1 10.951-5.888l-.001-.001zm139.044-177.014c7.155.796 14.283 1.874 21.386 3.085l-10.842 61.727c-5.9-1.001-11.818-1.905-17.764-2.56l7.22-62.252zm-82.417 31.126l-3.61-31.125c27.206-3.041 44.501-2.728 64.532-1.856l-3.6 62.562c-8.98-.392-9.574-.476-17.919-.529-25.163-.158-51.292 3.407-71.147 8.239l-10.832-45.741c-5.23 1.281-8.964 2.092-20.018 5.341l13.502 45.03c-21.12 6.177-43.629 15.551-65.803 28.316l-7.869-13.56a327.063 327.063 0 0151.243-23.862l-16.126-44.163c20.002-7.145 39.939-12.739 62.648-16.693l8.132 46.295c18.592-3.258 37.453-4.821 56.27-4.867v-31.333c-11.184.147-6.456-.011-20.62.605l.9 15.641c-11.471.728-14.295 1.095-19.683 1.7z"/><path d="M720.134 218.65c-5.306-3.896-10.67-7.716-16.194-11.306l17.292-26.162c16.311 10.613 32.449 23.054 50.716 40.021l-43.142 45.574c-25.358-23.498-45.805-36.973-73.219-51.188l21.188-41.984c-10.125-5.012-11.787-5.691-18.765-8.738l-18.692 43.146c-21.373-8.862-40.677-15.547-68.671-20.478l2.71-15.432c18.586 3.272 36.909 8.122 54.654 14.561l16.125-44.163c21.752 8.044 40.1 16.676 58.725 27.344l-23.607 40.681c16.338 9.412 31.813 20.282 46.256 32.361l20.212-23.993c-4.996-4.283-10.949-8.833-16.198-12.804l-9.393 12.558.003.002zm67.069 17.761c4.105 4.392 6.893 7.298 14.345 16.069l-48.127 40.304c-3.102-3.654-4.611-5.512-11.928-13.361l45.71-43.012z"/><path d="M614.585 165.751c-5.271-1.55-7.178-2.174-19.127-5.105l3.611-15.247c-5.128-1.242-12.458-2.796-20.29-4.159l2.71-15.432c16.318 2.84 28.864 6.035 42.097 9.923l-9.001 30.02zM566.524 282.82l3.611-15.247c9.083 2.272 8.759 2.22 12.888 3.442l-9.001 30.021c-7.508-2.23-14.785-3.962-22.382-5.28-3.788-.632-7.586-1.229-11.415-1.641l7.221-62.25c5.037.55 10.044 1.322 15.037 2.165l-8.132 46.295c4.955.86 9.396 1.811 12.175 2.498l-.002-.003z"/><path d="M626.01 325.245l17.294-26.163c3.74 2.419 7.36 5.018 10.958 7.645l-9.393 12.56c.062.047 6.537 4.916 9.769 7.73l20.212-23.992c-10.952-9.156-22.674-17.398-35.042-24.518l-23.606 40.68c-11.525-6.558-19.963-10.311-31.262-14.56l16.126-44.163c-13.407-4.864-27.242-8.52-41.296-11.001l2.711-15.432c24.091 4.251 40.071 9.851 58.066 17.316l-18.691 43.147c6.31 2.745 8.751 3.997 11.263 5.245l21.188-41.984c24.132 12.508 41.192 24.126 62.005 43.351l-43.14 45.574c-8.747-8.034-17.177-14.992-27.163-21.433l.001-.002zm55.064 28.127c2.974 3.398 7.698 9.67 7.752 9.739l12.597-9.365c2.634 3.588 5.241 7.198 7.667 10.926l-26.24 17.241c-4.394-6.771-10.488-14.686-13.808-18.466-4.271-5.053-6.04-6.831-7.689-8.616l45.71-43.012c6.58 7.081 7.481 8.225 10.106 11.323l-36.095 30.23z"/><path d="M741.233 302.991c43.693 51.94 68.268 116.957 68.468 187.519-.2 70.626-24.781 135.585-68.468 187.519-43.448 51.608-104.08 87.624-173.331 99.826-65.13 11.417-135.173 1.011-197.139-34.658-57.185-32.936-104.218-86.063-128.705-152.883-22.747-62.31-24.145-133.47 0-199.609 24.426-66.653 71.331-119.836 128.705-152.883 60.861-35.033 130.794-46.287 197.139-34.657 69.423 12.232 130.008 48.367 173.331 99.826zm-362.522-51.472c-54.186 31.207-98.615 81.512-121.74 144.6-22.165 60.721-22.165 128.062 0 188.783 22.923 62.535 66.975 113.059 121.74 144.599 57.52 33.106 123.619 43.784 186.454 32.768 65.705-11.584 122.966-45.774 163.916-94.417 40.776-48.478 64.547-109.709 64.749-177.342-.198-66.564-23.274-128.033-64.749-177.342-41.098-48.816-98.419-82.869-163.916-94.417-62.466-10.951-128.618-.519-186.454 32.768z"/><path d="M888.47 490.51c-.252 19.799-.979 29.401-2.495 42.886l-31.219-3.599c.583-5.168.971-8.156 1.705-19.626l15.688.897c.622-14.214.46-9.501.607-20.558H841.33c-.048 18.761-1.614 37.566-4.882 56.102l46.432 8.107c-3.868 22.095-9.359 41.916-16.742 62.462l-44.295-16.078a325.18 325.18 0 01-23.934 51.091l27.202 15.691c4.682-8.126 5.888-10.605 9.832-18.162l-14.035-7.042c4.802-9.645 5.453-11.229 8.376-17.879l28.849 12.424c-9.546 21.723-19.307 39.308-30.789 56.821l-52.481-34.482c17.129-26.175 29.715-53.184 37.848-80.823l45.164 13.461c3.064-10.362 3.589-12.775 5.358-19.958l-45.878-10.8c4.991-20.39 8.196-45.197 8.264-70.935-.156-10.172.056-4.513-.531-17.866l62.75-3.589c.639 14.613.488 10.116.634 21.454l-.002.001zm-87.368-186.294c-3.601-5.506-7.432-10.855-11.34-16.145l12.597-9.365c-3.973-5.221-8.558-11.18-12.844-16.151l12.033-10.075c7.399 8.587 17.666 22.077 25.794 34.495l-26.241 17.242.001-.001zm-92.669 90.551c3.213 6.433 4.156 8.709 5.26 11.23l43.276-18.635c9.664 23.155 16.519 45.412 19.539 72.885l-62.437 7.199c-1.06-9.816-3.285-21.465-6.941-33.697l30.11-8.975c1.207 4.053 1.146 3.682 3.451 12.849l-15.291 3.6c.679 2.741 1.639 7.18 2.503 12.139l30.956-5.405c-2.488-14.012-6.155-27.806-11.034-41.173l-44.295 16.077c-4.266-11.275-8.038-19.701-14.604-31.169l40.802-23.536c-7.142-12.33-15.409-24.017-24.591-34.938l12.032-10.076c15.383 18.29 24.325 33.146 33.373 50.497l-42.109 21.126v.002z"/><path d="M847.939 412.376c-2.829-11.464-3.339-13.05-5.12-19.07l30.109-8.974c5.737 19.406 10.45 40.056 13.047 63.295l-62.436 7.198c-3.648-32.894-11.694-58.82-23.107-86.18l43.275-18.637c-4.59-10.448-5.457-12.069-8.764-18.709l-42.108 21.125c-10.525-20.173-21.249-38.046-39.414-59.64l12.032-10.076c12.115 14.4 23.017 29.828 32.456 46.119l40.803-23.537c11.661 20.236 19.962 38.491 27.426 58.55l-44.295 16.077c6.459 17.693 11.323 35.961 14.604 54.491l30.956-5.405c-1.348-7.698-2.89-14.971-4.172-20.228l-15.292 3.601zM546.243 519.578c.476-.548 1.001-1.05 1.493-1.582l16.677 14.981c-2.892 3.056-1.81 1.968-4.731 4.717l-7.512-8.314c-.865.738-2.733 2.385-4.292 3.452l13.209 18.095c6.638-4.85 11.736-9.933 16.6-16.551l-27.224-19.754c3.91-5.853 3.639-5.754 5.839-11.396l32.025 10.368c2.344-7.364 3.566-14.132 3.663-23.084h-22.447a67.917 67.917 0 00-.073 2.78c-.097.915-.148 1.833-.218 2.748l11.163 1.156c-.288 1.91-.343 3.417-1.042 6.556l-21.962-4.632c.39-1.704.554-3.542.677-4.237.049-.722.086-1.447.172-2.168 0-.735.012-1.469.059-2.204a34.485 34.485 0 01-.059-2.203c-.087-.722-.123-1.447-.172-2.168l44.655-4.626c.444 5.653.329 3.586.471 8.997-.134 14.015-3.333 26.435-7.446 34.916l-30.753-13.672c-.306.689-1.018 2.366-2.488 4.857l29.144 16.812c-1.15 1.936.003.056-2.357 3.832-5.334 8.533-16.244 19.615-25.342 25.267-3.794 2.356-1.924 1.215-3.843 2.35l-22.483-38.743c4.742-2.88 4.231-2.786 8.596-6.551l.001.001zm-45.89 8.497l-9.142 20.441c-3.637-1.617-5.347-2.681-5.921-3.015l5.62-9.686c-4.065-2.44-3.105-1.965-4.609-2.983l-13.209 18.095c6.218 4.605 14.259 8.562 20.845 10.609l10.398-31.93c3.077 1.112 7.692 1.663 8.369 1.781.725.05 1.452.086 2.176.172.736 0 1.473.012 2.21.059v33.57c9.001-.098 15.789-1.323 23.153-3.652l-10.398-31.93c.063-.025 2.933-.981 3.982-1.531l18.281 40.881c-3.052 1.472-8.339 3.201-8.4 3.224-13.154 4.173-23.498 4.678-35.643 3.729l3.479-33.391c-1.204-.193-2.977-.313-5.413-.857l-6.967 32.844c-16.777-3.879-27.936-10.055-39.693-20.184l30.05-33.255c6.137 5.001 7.836 5.631 10.832 7.009z"/><path d="M528.046 541.661l2.323 10.948c-3.149.696-4.663.752-6.575 1.039l-2.32-22.261c.399-.07 4.986-.557 8.371-1.781l3.464 10.644c-1.89.664-4.34 1.194-5.263 1.411zm-41.603-23.665l-33.354 29.961c-1.09-1.259-3.515-3.952-5.672-6.996l36.3-26.338c.828 1.226 2.475 3.067 2.726 3.373zm-91.832 82.491c-2.667-3.055-6.32-7.104-10.836-13.348l36.299-26.338c3.049 4.249 5.887 7.423 7.891 9.724l-33.354 29.962zm51.261 12.941c7.354 4.188 10.217 5.371 13.286 6.762l-9.141 20.442c-19.102-8.68-30.492-16.951-43.233-28.008l30.052-33.255c15.744 13.623 31.484 22.654 55.33 28.123l-6.968 32.844c6.978 1.5 11.334 1.94 15.893 2.5l3.479-33.391c17.862 1.631 33.33-.011 49.58-5.197.199-.069 7.306-2.413 11.728-4.498l18.282 40.882c-5.109 2.371-10.81 4.378-16.145 6.188-11.644 3.813-22.362 5.761-33.769 7.146l-2.32-22.261c2.862-.356 7.931-.854 14.731-2.318l2.323 10.948c3.327-.76 8.66-1.891 15.569-4.158l-6.932-21.287c-13.118 4.191-25.802 6.303-40.528 6.395v33.57c-17.89-.297-33.586-2.358-50.926-8.036l10.398-31.93c-12.171-3.849-25.558-10.517-36.577-18.606l-13.208 18.095c3.301 2.338 6.029 4.38 13.475 8.734l5.621-9.686v.002zm-58.849-65.158c1.626 3.566 3.046 6.724 6.781 13.246l-9.715 5.604c4.303 7.312 6.207 9.854 8.76 13.435l-9.074 6.584c-6.547-9.169-11.38-16.903-17.256-29.756l20.504-9.113z"/><path d="M476.091 486.139l-22.328-2.313c.288-1.911.344-3.415 1.043-6.555l10.98 2.316c.411-1.734.821-3.568 1.416-5.249l-21.35-6.912c-2.345 7.368-3.566 14.139-3.664 23.084h33.671c.046.734.059 1.469.059 2.204.086.721.123 1.446.173 2.169.01.062.593 5.06 1.786 8.344l-32.025 10.368c2.065 6.604 6.047 14.615 10.64 20.782l-9.075 6.584c-8.22-11.062-12.125-22.056-14.573-32.579l32.942-6.947c-.545-2.433-.667-4.199-.859-5.397l-33.491 3.469c-.624-7.933-.687-14.185.587-22.453 1.278-8.295 4.002-16.545 6.386-21.46l41.003 18.228c-2.492 4.725-3.31 12.244-3.322 12.315l.001.002z"/><path d="M471.65 516.612l-9.715 5.604c-.486-.83-1.525-2.555-3.024-5.905l20.501-9.113c.15.323.287.651.429.977.89 2.053 2.63 4.586 3.875 6.447l-9.075 6.584c-1.006-1.478-.555-.561-2.991-4.594zm-71.89-1.252c4.221 18.295 11.161 33.059 20.314 45.441l-9.073 6.584c-8.134-11.012-14.811-24.364-18.663-36.466l-32.025 10.367c-5.641-17.132-7.758-32.747-8.059-50.776h33.671c.093-14.754 2.231-27.394 6.413-40.407l-21.349-6.912c-2.27 6.874-3.266 11.58-4.171 15.523l10.981 2.316c-1.504 6.938-1.999 12.08-2.325 14.686l-22.328-2.313c2.549-20.856 7.557-37.303 13.375-49.766l41.004 18.228c-7.5 15.813-11.905 37.364-9.724 61.127l-33.491 3.469c.526 4.25 1.023 8.984 2.508 15.846l32.942-6.947zm68.539-134.089l-13.711-30.66c-4.321 1.96-7.425 3.366-14.337 7.297l16.863 29.058c-14.443 8.48-26.346 18.67-37.04 33.256-1.907 2.693-3.163 4.268-6.84 10.492l-38.86-22.416c4.596-7.817 6.848-10.841 9.4-14.416 6.038-8.348 14.044-17.388 23.009-25.484l15.026 16.626c-4.096 3.702-6.808 6.408-10.522 10.49l-8.338-7.49c-2.482 2.845-5.993 6.756-10.1 12.443l18.149 13.169c8.564-11.684 17.937-20.849 28.985-28.898l-19.813-27.144c14.494-10.288 26.484-16.776 45.991-23.393l10.398 31.93c13.116-4.191 25.8-6.302 40.528-6.394v-22.381c-6.383.113-8.174.096-15.999.83l1.159 11.131c-2.861.355-7.931.854-14.73 2.318l-4.646-21.896c17.353-3.728 34.051-4.32 51.373-2.682l-4.64 44.522c-23.657-2.16-45.197 2.1-61.309 9.695l.004-.003zm83.005-51.533c4.002.913 9.203 2.003 16.712 4.462l-13.865 42.573c-5.159-1.711-9.439-2.625-12.138-3.244l9.291-43.791z"/><path d="M550.64 387.556c42.822 13.86 74.646 53.668 75.021 102.955-.382 50.086-33.097 89.386-75.021 102.956-45.382 14.795-94.531-2.223-121.373-39.335-28.329-38.267-26.922-90.874 0-127.24 26.836-37.106 75.983-54.134 121.373-39.336zM438.433 547.481c23.727 32.832 66.98 48.505 108.707 35.236 38.217-12.374 66.809-47.884 67.186-92.206-.383-44.994-29.736-80.079-67.186-92.206-41.79-13.289-84.981 2.405-108.707 35.237-24.738 33.362-24.738 80.577 0 113.939z"/><path d="M519.3 449.461c-.737 0-1.474-.01-2.21-.058-.736.047-1.473.058-2.21.058-.724.087-1.451.122-2.176.172-.702.123-2.533.285-4.249.675l-4.646-21.896c3.149-.696 4.663-.752 6.576-1.04l1.159 11.131c.918-.069 1.839-.121 2.757-.217.93-.01 1.859-.026 2.788-.073v-22.381c-9.021.099-15.805 1.329-23.153 3.653l10.398 31.93c-5.888 2.281-5.812 2.092-11.43 5.822l-19.813-27.144c-6.638 4.851-11.736 9.933-16.601 16.552l18.15 13.17c1.058-1.537 2.58-3.252 3.462-4.279l-8.339-7.49c2.893-3.055 1.81-1.968 4.731-4.717l15.025 16.628c-.534.49-1.036 1.013-1.587 1.487-.118.137-2.964 3.099-4.218 4.956-.4.599-.875 1.151-1.225 1.779-1.144 1.82-1.035 1.684-1.127 1.835l-38.86-22.416c3.014-5.072 3.53-5.563 4.911-7.536 7.939-10.81 16.299-17.801 26.632-23.912l16.862 29.058c.501-.294 1.917-1.176 4.872-2.48l-13.712-30.661c.956-.462 3.875-1.705 8.4-3.224 12.642-4.239 24.248-4.62 35.643-3.73l-4.639 44.522c-.725-.05-1.452-.086-2.174-.171l.003-.003zm127.857-16.709c-1.631-3.575-3.053-6.735-6.783-13.246l19.43-11.208c9.973 17.454 14.624 31.035 18.538 48.101l-43.923 9.263c-4.565-19.797-12.012-36.561-28.206-55.166l25.016-22.471c-3.971-4.369-6.964-7.354-11.346-11.314l-22.538 24.941c-12.959-11.213-26.834-19.716-43.193-24.878l3.467-10.644c12.171 3.85 25.558 10.518 36.576 18.607l19.813-27.143c12.611 9.067 26.231 22.232 36.397 36.288l-27.224 19.754c8.1 10.97 14.795 24.314 18.661 36.468l21.35-6.912c-1.693-4.946-3.566-10.262-5.784-14.997l-10.251 4.557zm-94.344 37.261l19.43-11.208c.431.736 1.432 2.345 3.024 5.905l-10.251 4.556c.753 1.476 1.925 4.979 1.96 5.072l21.35-6.912c-2.063-6.603-6.043-14.611-10.64-20.782l-27.224 19.754c-1.204-1.783-4.162-4.89-4.219-4.956-.47-.405-3.035-2.906-4.97-4.205l19.813-27.144c-6.217-4.603-14.253-8.561-20.845-10.608l3.466-10.644c12.605 3.937 22.444 10.488 31 17.859l-22.538 24.941c.679.62 1.323 1.277 2.01 1.888.614.685 1.273 1.328 1.895 2.004l25.015-22.47c11.945 13.781 16.994 25.595 20.245 39.576l-43.923 9.263c-1.723-6.585-2.781-8.707-4.598-11.889z"/><path d="M538.397 442.726l4.57-10.22c.844.375 2.864 1.235 5.923 3.015l-11.242 19.372c-3.58-2.033-3.817-1.933-7.803-3.477-1.425-.515-3.671-.991-4.121-1.107l9.291-43.793c1.905.44 5.157 1.133 8.693 2.326l-10.398 31.93c.06.022 3.657 1.229 5.087 1.954zm49.91-75.132c-7.105-4.046-10.298-5.408-13.286-6.763l4.57-10.22c-4.75-2.211-10.081-4.078-15.042-5.767l3.467-10.644c13.626 4.622 21.272 8.192 31.531 14.021l-11.24 19.373zm93.618 122.916c-.181 10.883-.778 21.128-3.583 34.113l-21.961-4.632c1.504-6.939 1.998-12.081 2.325-14.687l11.163 1.157c.774-8.179.728-10.067.833-15.951h-22.447c-.094 14.725-2.223 27.369-6.414 40.408l32.025 10.367c-5.753 16.858-11.902 29.663-23.463 45.853l-27.224-19.754c-8.563 11.684-17.936 20.85-28.986 28.9l13.209 18.095c5.36-3.847 9.44-7.433 12.48-10.07l-7.513-8.314c4.098-3.704 6.806-6.404 10.522-10.49l16.677 14.981c-12.588 13.856-25.553 23.859-40.019 32.313l-22.483-38.744c18.263-10.725 32.341-24.218 43.878-43.748l29.145 16.811c4.442-7.764 5.797-10.959 7.319-14.294l-30.753-13.671c5.987-12.625 10.246-29.836 10.376-48.645-.134-5.136-.084-6.283-.653-12.481l44.655-4.626c.794 8.34.783 10.527.892 17.106v.003z"/></g></svg>