<svg width="571" height="138" fill="none" xmlns="http://www.w3.org/2000/svg"><path d="M36 47.29c7.411 3.365 6.42-3.43 21.5-3.201 15.08.228 40.5-6.526 40.5-6.526s1.32.005 26-8.8c24.681-8.804 4.581 37.887 7.817 36.14 3.235-1.746 9.157-5.03 14.163-8.167a1094.72 1094.72 0 007.98-5.05l-3.729.457 32.051-22.88L214.23 11.38 239.363 5l35.306.733 32.051 8.785 13.43 4.81 28.896 9.436 42.327 1.074 20.654-4.024 21.672-6.796 33.169-7.209h18.723l17.838.829 25.604 5.913 4.518-.16s3.863.75 3.827 1.776c-.037 1.027 5.062 2.575 5.701 3.973.64 1.4 4.328 3.308 4.682 4.624.354 1.315 2.239 4.37 2.239 4.37l-.103 3.87-2.339 3.132-1.324 2.038-1.018 5.115s-2.442 2.056-3.069 2.181c-.628.126-3.544 0-3.544 0l-3.873-2.603-4.134-2.778-4-2.69-4.036-3.836s7.597 8.75 7.799 9.304c.203.555.103 2.166.103 3.108 0 .94-.713 2.615-.713 2.615s-2.034 1.463-2.645 1.674c-.61.208-2.137-.836-2.442-.941-.305-.106-1.423-.836-2.137-1.172-.713-.337-1.018.128-1.628.544-.611.42.408-.208-1.221 2.302-1.629 2.51 1.116 2.505 1.116 2.505s-.098 3.142-.201 4.71c-.102 1.57-1.423 2.405-1.423 2.405s-1.832.733-3.053 1.464c-1.221.73 0 0-2.95-.42-2.949-.419-1.423-1.674-1.423-1.674s-1.324-2.301-1.934-3.242c-.611-.942-2.34.208-2.34.208s-2.644 1.882-3.052 2.718c-.408.836-2.95 2.417-2.95 2.417s-.508 5.007-.813 5.74c-.305.733-2.747 2.558-2.747 2.558l-4.782 1.52s-3.968-1.254-5.189-1.94c-1.221-.685-2.95-1.824-3.765-2.557-.814-.733-4.171-2.404-5.317-3.032-1.145-.627-2.459-4.284-3.783-4.39-1.324-.105-5.063.491-5.063.491l-1.363 5.583s-1.365 2.708-1.671 3.23c-.105.179-7.237 3.236-8.104 3.745 1.775 6.827 5.063 16.66 5.063 16.66 1.878 3.456 13.552 14.36 13.552 14.36l9.457 11.382L545.216 126S443.152 136.065 428.5 136c-14.652-.065-59.5 0-59.5 0s-43.287 2.788-62.28 0c-18.994-2.788-49.22-5.955-49.22-5.955L226 126s-11-11.417-35-6.562c-20.5 4.147-37.04-7.938-37.04-7.938l-40.46-3.444s-19.5-5.447-37-13.82h-36s-17.903 1.134-25.5-.54C7.403 92.022 4.5 87.5 4.5 87.5l-4-14.209S7.589 49.957 15 53.323l21-6.034z" fill="#fff"/><path d="M237.687 48.676c4.538-10.889 14.637-20.517 26.176-23.915-5.917-.697-11.838-1.043-17.767.034-11.774 2.137-21.932 8.527-29.869 17.367-.142.16-.412-.048-.296-.23 13.26-20.764 35.12-25.737 56.773-19.133.277-.111.551-.223.831-.327-16.223-5.655-32.966-6.971-50.022 1.74-.193.1-.357-.179-.171-.295 28.116-17.406 61.002-4.177 87.666 9.684 27.591 14.342 56.409 30.719 87.251 35.633-.357-1.558-.94-3.046-2.116-4.481-2.526-3.083-6.428-4.65-10.354-4.493-.125.004-.157-.204-.029-.223 3.965-.627 7.932.288 10.887 3.117 1.655 1.582 3.123 3.946 3.723 6.397 1.62.23 3.244.438 4.876.6-.87-6.417-6.642-9.531-12.697-11.716-.226-.082-.139-.419.102-.365 4.179.926 8.339 1.897 11.52 4.99 1.928 1.872 3.435 4.575 3.418 7.287 2.145.17 4.299.281 6.464.327.024-.087.031-.172.055-.259.217-.77.779-1.19 1.403-1.306-2.784-1.155-5.522-2.362-8.11-3.7-.133-.068-.017-.252.113-.196 6.891 2.947 14.022 2.768 21.105 4.643 2.302.61 5.688 2.548 8.311 3.107.106-.17.2-.343.318-.505.754-1.036 2.203-.881 2.651.348.017.046.021.094.038.14 2.488-.537 3.792-2.328 5.845-3.656a7.766 7.766 0 00-.434-3.211c-1.142-3.201-4.186-5.239-7.45-5.752-.412-.065-.291-.694.097-.706 4.986-.148 9.12 3.862 10.062 8.297.807-.53 1.622-.965 2.704-1.099-.212-2.197-.976-4.3-2.439-6.293-2.232-3.047-7.088-7.945-11.325-6.824-.198.053-.347-.257-.145-.346 4.384-1.936 9.667 2.374 12.429 5.524 2.02 2.304 3.437 5.203 3.7 8.162 2.391.883 4.297 3.547 6.5 4.83.882-1.215 2.962-1.045 3.651.455.808-.276 1.68-.832 2.632-1.728-.147-.06-.296-.111-.443-.189-.636-.336-.545-1.495.212-1.623 3.381-.579 5.866-2.67 4.695-6.444-.964-3.11-4.283-5.283-7.161-6.39-.315-.122-.197-.58.14-.511 4.343.87 8.638 2.993 9.498 7.663 2.591-2.054 5.835-2.236 8.899-.571 2.598 1.41 4.273 4.039 6.818 5.539 4.545 2.681 10.773 1.655 12.535-3.184-1.415-1.622-1.849-3.78-3.071-5.547-1.294-1.87-3.082-3.32-4.793-4.783-.437-.373.046-.973.513-.886 2.61.493 5.784 2.606 7.696 5.256 2.106.39 4.128.067 5.362-2.195 1.345-2.468.354-5.546-1.046-7.736-2.952-4.612-8.31-6.88-13.316-8.385-.265-.08-.323-.338-.246-.547-.327.586-.855 1.053-1.658 1.336-.54.189-.998-.385-.88-.883 2.789-11.775-9.792-14.173-17.786-17.759-.087-.039-.041-.179.048-.177 6.235.22 13.376 2.76 17.418 7.727 1.516 1.863 4.251 6.882 2.945 9.594a.414.414 0 01.27-.111c7.503-.18 17.746 5.389 18.341 13.783a7.53 7.53 0 01-.036 1.333c.858.564 1.294 1.208 1.94 2.282 1.024 1.699 1.343 3.83 3.442 3.627 4.702-.45 1.783-7.247 1.921-9.986.245-4.864 6.331-3.223 9.734-1.486 1.649-.57 2.133-3.33 1.678-5.226-.485-2.019-1.685-3.971-3.037-5.513-2.451-2.797-5.705-4.578-9.265-5.505-.185-.048-.147-.334.046-.334 1.256.005 2.49.22 3.695.533 1.258-14.78-16.859-14.49-27.418-16.8-.243-.054-.195-.48.06-.446 10.268 1.372 32.583 1.553 29.168 17.822 4.41 1.73 8.071 5.386 9.46 10.049.831 2.79.585 6.197-2.126 7.85-2.017 1.226-4.799.965-5.799-1.353a1.168 1.168 0 01-.084-.646h-.034c-1.099.152-2.733.556-2.907 2.062-.164 1.41.904 3.458.88 5.033-.039 2.73-.983 5.568-3.408 7.083-4.254 2.656-8.086-1.658-8.903-5.924-1.381 2.724-3.993 4.822-6.625 4.888 1.32 5.098-2.545 10.008-7.768 10.712-9.515 1.283-13.581-10.298-22.496-8.752-.179 2.427-1.854 4.968-4.054 5.783v.007c-.897 2.677-2.449 4.913-5.016 5.873 6.513 41.023 61.008 46.368 92.61 32.016.325-.147.614.324.284.489-20.484 10.374-43.115 12.646-64.878 4.503-16.264-6.083-31.06-18.908-32.616-36.853-.138-.058-.28-.116-.413-.184.331 13.914 8.472 25.079 19.113 33.85 10.906 8.992 24.099 9.655 37.588 11.596.084.012.065.157-.019.148-15.685-1.387-28.257-.973-40.905-11.163-6.789-5.469-12.588-11.825-16.244-19.215.733 2.625 1.757 5.255 3.28 7.93 5.146 9.037 12.858 14.6 20.917 20.773.032.024.015.087-.028.07-16.221-6.373-35.772-28.524-30.795-47.48-.424.626-1.378.33-1.489-.33-1.465.554-2.495 1.87-4.321 2.744a9.326 9.326 0 01-.704.617c1.039 6.014.839 12.036 3.131 17.953 3.236 8.353 9.31 15.276 16.562 20.398.118.083.017.262-.113.196-11.892-6.022-25.854-22.75-23.528-37.513a7.42 7.42 0 01-.436.067c.417 4.748-.473 9.965.617 14.613 1.718 7.325 6.155 14.701 11.788 19.647.091.082-.041.208-.133.133-6.874-5.532-11.547-11.33-14.858-19.632-1.721-4.315-3.649-10.49-2.627-15.501-.215-.07-.405-.121-.632-.201l-.706-.244c.769 5.606-.429 11.336.93 17.066 1.63 6.873 5.416 12.378 9.569 17.916.101.133-.099.332-.232.233-9.071-6.785-18.914-24.931-13.67-36.391-.786-.271-1.555-.535-2.345-.811-.316 5.837-1.164 11.054.149 16.912 1.442 6.436 4.565 12.137 8.862 17.083.111.129-.057.301-.185.187-9.06-8.087-16.061-22.661-12.099-34.944.043-.133.12-.233.188-.341-.617-.22-1.234-.44-1.851-.666-1.914.324-3.818.588-5.719.808.118 8.845.029 16.939 4.871 25.03 4.545 7.599 11.26 12.987 19.129 16.845.077.038.024.162-.058.138-10.185-3.11-19.655-11.286-24.771-21.309 3.106 8.341 8.57 15.571 16.683 22.088.149.121-.046.375-.205.266-13.487-9.12-26.977-24.984-22.781-42.448-.248.012-.499.041-.747.051 0 .014.005.027.005.041-1.28 13.64.193 27.999 11.573 37.325.094.078-.038.208-.132.133-11.024-8.878-19.645-22.719-15.464-37.431-1.39.012-2.776 0-4.159-.041.472 5.018-.442 10.01.792 15.142 1.642 6.822 5.187 13.092 10.092 18.079.086.087-.032.259-.138.179-8.618-6.526-18.835-21.928-14.403-33.538a115.82 115.82 0 01-4.203-.356c-1.118 10.432.077 20.31 7.459 28.672.097.109-.053.261-.159.16-7.674-7.366-12.949-18.449-10.573-29.173-2.263-.28-4.512-.63-6.755-1.031-2.095 8.486-1.333 15.157 3.434 22.864.145.233-.166.429-.354.276-6.7-5.466-10.26-15.646-8.484-24.207a144.437 144.437 0 01-7.669-1.929c.489 7.526.595 14.47 4.625 21.6 4.541 8.033 11.6 14.024 19.529 18.52 14.897 8.45 39.182 17.316 56.303 14.221.142-.026.205.189.06.218-19.734 4.07-46.112-5.021-62.66-15.823-11.73-7.659-26.685-24.853-23.012-40.263-.677-.213-1.355-.43-2.03-.653.311 22.342 16.577 41.915 36.615 50.293.152.063.094.312-.07.254-21.611-7.429-41.678-27.138-41.777-51.416 0-.336.084-.614.176-.885-.241-.087-.484-.174-.725-.264 1.171 6.92.752 14.076 3.412 20.996 4.049 10.529 11.494 19.753 20.968 25.81.102.065.012.225-.094.164-9.471-5.406-17.266-12.457-22.585-22.131-3.924-7.138-8.544-18.168-6.584-26.712l-.239-.094c-2.181 13.497 4.242 26.191 12.137 37.017.078.105-.089.23-.178.138-10.368-10.988-18.816-23.583-16.384-38.985l-.405-.176c.003 4.225-.424 8.474.41 12.774 1.294 6.673 4.107 12.943 7.96 18.511.186.269-.221.569-.443.344-7.45-7.55-15.285-22.13-12.277-33.543-.338-.155-.675-.317-1.012-.475-3.338 9.522.467 20.322 4.887 28.955.065.129-.12.242-.195.114-5.871-9.853-12.335-19.336-9.115-31.147a272.926 272.926 0 01-5.1-2.539c-.303 2.103-1.111 4.119-1.337 6.36-.441 4.367.347 8.83 2.374 12.725.122.24-.21.43-.357.21-2.405-3.57-4.353-7.157-5.322-11.39-.723-3.17-1.636-7.392-.05-10.385a350.547 350.547 0 01-8.506-4.789c-1.581 19.867 8.713 39.341 28.008 46.668.179.068.111.339-.079.29-16.203-3.934-27.003-18.528-31.055-34.416.41 3.422 1.143 6.865 2.558 10.446 3.714 9.404 10.018 16.3 17.345 23.034.116.107-.031.271-.159.208-16.03-7.905-30.736-32.764-24.81-51.023-.426-.252-.853-.501-1.282-.753-2.94 9.61-2.191 18.998 1.87 28.314 2.868 6.577 9.798 20.914 16.997 22.908.159.044.132.31-.041.298-8.021-.533-15.644-13.735-19.19-20.104-4.456-8.007-6.794-16.549-6.167-25.272-3.018 14.274 4.155 31.341 13.918 40.558.162.152-.075.38-.238.24-13.131-11.136-25.548-34.973-16.266-52.205a282.133 282.133 0 00-9.005-4.883c-2.699 3.879-5.794 7.538-7.926 11.743-4.968 9.79-2.538 19.857 3.403 28.49 8.102 11.778 18.138 23.424 32.1 27.915.229.075.137.421-.101.366-16.023-3.867-29.917-17.212-38.157-31.283-6.479-11.061-4.98-23.552 1.345-33.783-9.026 10.064-13.367 22.35-6.231 36.287 7.098 13.86 21.055 22.613 34.07 30.185.169.096.019.35-.152.261-16.343-8.564-34.913-18.107-40.097-37.526-2.885-10.807-.258-23.75 7.086-32.396-12.757 9.536-18.156 25.86-10.014 41.095 8.551 16.002 26.441 31.953 44.835 33.526.215.02.219.356 0 .341-20.85-1.372-44.423-19.094-51.497-39.1-4.483-12.676-.882-26.626 7.927-35.947-16.534 10.11-23.646 32.643-12.299 50.039 11.484 17.606 31.616 27.629 51.348 32.694.219.055.18.435-.056.408-23.578-2.652-50.583-16.795-59.932-40.003-4.042-10.038-2.717-20.815 1.99-30.073-4.065 5.062-7.322 10.642-8.519 17.367-2.517 14.124 5.574 24.942 16.152 32.957 19.125 14.489 43.457 26.037 67.8 23.719.272-.027.335.428.065.481-26.55 5.256-60.969-10.18-78.843-30.06-.757-.843-1.422-1.731-2.087-2.622 4.338 7.103 10.686 13.24 17.731 18.197 13.085 9.21 28.148 15.112 43.354 19.743 15.969 4.866 34.185 10.805 50.154 3.015.174-.084.323.162.152.262-16.931 9.805-37.364 3.034-54.789-2.2-19.756-5.936-40.972-14.523-55.192-30.153-11.272-12.391-14.644-30.39-8.149-45.976l-.014-.002zm180.077 22.013c.538-.008 1.078-.024 1.617-.039-.648-.25-1.287-.513-1.93-.77.161.226.27.494.313.809z" fill="#13264C"/><path d="M517.073 10.134c-.12-.024-.067-.199.051-.182 11.523 1.559 21.894 6.038 30.1 14.51 2.531 2.613 5.341 5.766 5.073 9.65-.197 2.864-1.643 4.977-4.232 5.306.357 2.589-.033 5.22-1.352 6.887-4.087 5.173-12.619-1.75-15.617-5.106-.157-.174 0-.419.219-.38 1.836.334 3.562 1.094 5.259 1.853 1.95.874 5.934 3.797 7.835 1.462 1.15-1.413.446-4.714.056-6.207-.482-1.844-1.714-3.412-2.015-5.26-.077-.472.318-1.111.879-.884 1.791.724 3.153 2.532 3.975 4.683 8.331-10.442-23.215-24.94-30.233-26.332h.002zm43.241 5.316c-.254-.627.144-1.389.947-1.457 3.6-.305 7.862 2.333 7.818 6.309-.041 3.554-4.015 5.493-7.129 5.328-2.95-.155-5.953-2.229-5.963-5.427-.007-2.452 1.878-4.651 4.327-4.753zm-2.427 4.944c.641 1.865 2.79 2.54 4.576 2.407 1.777-.133 4.365-1.318 3.338-3.494-.891-1.89-3.468-2.26-5.071-3.34-.149-.1-.214-.236-.294-.367-2.125.312-3.222 2.834-2.547 4.794h-.002zm5.651 31.166c-.749-.355-1.501-.706-2.171-1.243-.723-.581-.246-1.723.516-1.958 3.788-1.169 7.736 3.438 8.777 6.628 1.362 4.169-1.523 7.799-5.912 7.24-3.531-.45-7.194-4.121-5.526-7.877.749-1.686 2.581-2.845 4.316-2.792v.002zm3.536 7.543c2.179-1.476.41-4.501-1.029-5.94a.189.189 0 01-.232.016c-2.017-1.176-4.957.494-4.711 2.882.248 2.403 3.858 4.472 5.972 3.04v.002zm-33.689 8.595c-.53-.663-.06-1.781.88-1.517 3.184.897 6.204 3.697 7.522 6.748.976 2.26 1.458 6.386-1.046 7.928-2.386 1.468-4.948-1.326-6.035-3.245-1.386-2.442-1.699-5.425-.465-7.983.089-.187.308-.228.489-.201.181.029.364.044.545.07-.675-.544-1.335-1.106-1.892-1.803l.002.003zm1.504 4.17c.022.839.159 1.698.395 2.504.333 1.13 2.854 6.054 4.524 3.721 1.338-1.868-.904-5.25-2.068-6.478-.568-.597-1.202-1.103-1.839-1.606-.841.213-1.041.66-1.012 1.858zm-530.456.599c40.526 10.717 84.082 7.794 122.145-10.296 7.206-3.424 14.094-7.402 20.833-11.637-9.511.31-18.956.845-28.322 3.224-9.961 2.528-19.131 5.901-29.514 5.928-.099 0-.096-.143 0-.15 12.979-1.002 24.579-7.105 37.217-9.684 8.44-1.723 17.076-2.42 25.692-2.565a564.5 564.5 0 008.571-5.713c-18.334-1.021-35.33 4.675-53.045 9.536-18.486 5.075-36.434 6.514-55.565 6.326-.292-.003-.292-.45 0-.455 22.96-.334 43.25-4.77 64.972-11.715 14.217-4.544 28.384-8.357 43.163-7.44-3.268-.666-6.529-1.413-9.889-1.411-7.409.002-15.41 2.149-22.764 3.27-.139.02-.202-.18-.06-.219 12.186-3.431 23.786-7.416 36.128-4.955-3.837-1.21-7.708-2.118-11.882-2.077-5.881.059-12.557 1.515-18.409 2.309-.231.031-.342-.298-.101-.366 6.086-1.684 12.193-3.987 18.508-4.658 6.676-.706 13.024.925 19.269 3.166.508.181.831.515 1.046.895.971-.666 1.944-1.326 2.918-1.99-4.124-.912-7.92-2.956-12.299-3.138-5.623-.232-11.19.85-16.825.325-.185-.017-.234-.274-.046-.334 4.956-1.605 10.422-2.536 15.601-3.086 5.548-.588 11.622 2.277 16.955.833 1.418-.385 2.461.181 3.054 1.081.793-.525 1.593-1.038 2.388-1.558-26.349-5.413-48.383 2.466-73.472 11.963C87.418 46.69 63.825 51.2 38.919 50.913c-.145 0-.145-.225 0-.228 32.517-.334 58.894-11.58 88.285-24.004 18.351-7.755 42.243-14.327 60.278-2.899 9.498-6.025 19.285-11.537 29.794-15.774 31.401-12.663 67.808-9.938 97.728 5.572 17.227 8.93 32.252 21.59 49.771 30.006 20.325 9.764 42.696 13.863 65.141 12.982.781-.032.769 1.157 0 1.21-18.519 1.265-36.872-.719-54.44-6.911-17.384-6.127-32.235-16.508-47.814-26.107-38.531-23.74-82.099-26.32-122.374-4.808-15.7 8.387-30.117 18.46-44.887 27.847.613.813.256 2.291-1.082 2.344-.94.04-1.877.068-2.815.1-14.227 8.863-28.907 16.909-45.493 22.012-34.733 10.688-71.894 10.899-106.771.867-.42-.121-.244-.767.18-.656l.013.002z" fill="#13264C"/><path d="M340.5 26.322c28.124 15.804 58.586 21.768 90.59 20.69.716-.025.684 1.023 0 1.095-31.828 3.38-63.505-5.108-90.761-21.49-.188-.114-.019-.402.171-.293v-.002zM448.684 46.24c-1.461.096-3.309-.148-4.618-.836-.791-.416-.619-1.442 0-1.894 1.241-.908 3.114-1.322 4.618-1.445 2.656-.22 2.67 3.998 0 4.174zm15.321-8.501c1.687.358 4.56.196 5.437 1.938.311.617.212 1.56-.494 1.887-1.154.537-1.788.257-2.861-.283-.986-.493-1.935-1.05-2.926-1.539-1.159-.573-.313-2.25.841-2.003h.003zm29.869-12.612c.901.472 1.817.791 2.798 1.038.93.235 1.889.339 2.721.844.94.574.928 2.4-.338 2.592-2.407.365-4.67-1.396-6.37-2.933-.855-.774.234-2.042 1.186-1.544l.003.003z" fill="#13264C"/><path d="M428.364 16.774c34.142-10.764 66.852-10.464 101.273-.322.258.075.15.455-.11.401-20.834-4.222-41.026-7.048-62.3-4.919-20.512 2.052-38.364 10.964-58.089 15.949-31.931 8.072-63.974 3.051-92.185-13.546-.236-.138-.028-.465.21-.358 36.54 16.099 73.892 14.557 111.201 2.795zm-241.357 29.09c.653-.445 1.21.586.607 1.046-26.309 20.009-57.857 32.18-90.134 38.208-.07.012-.101-.097-.029-.11 32.872-6.356 62.032-20.335 89.556-39.144zm21.563-17.258c.714-.37 1.292.632.627 1.077-6.165 4.123-12.878 7.334-19.375 10.877-.128.07-.236-.119-.113-.196 6.235-3.995 12.282-8.338 18.861-11.758zm13.468 24.709c-10.002 20.309.494 55.217 20.033 66.19.128.073.014.264-.113.196-11.675-6.105-18.602-16.261-22.234-28.826-3.302-11.424-7.09-28.276.752-38.477.697-.908 2.09-.16 1.562.917z" fill="#13264C"/><path d="M237.316 29.252c.785-.358 1.778.644 1.002 1.307-14.754 12.641-26.2 26.216-27.586 46.571-.022.312-.499.32-.489 0 .482-18.567 9.252-39.73 27.073-47.875v-.003zM446.221.474c3.13.13 3.135 4.755 0 4.885l-.343.015c-3.15.133-3.155-5.048 0-4.915l.343.015zm89.574 2.006c2.839 1.667 1.654 6.28-1.687 6.258-.14-.01-.279 0-.419.019-1.256.128-2.145-.941-2.564-1.96l.096.278c-1.596-2.904 1.644-6.316 4.574-4.593V2.48zm-47.214 86.805c-2.114.73-4.432-1.597-3.704-3.72.151-.445.33-.885.564-1.294 1.036-1.825 3.629-2.122 5.085-.658 1.456 1.461 1.162 4.067-.656 5.106a7.564 7.564 0 01-1.289.566zm-10.347-51.636c1.169-.907 2.591-.034 3.558.808a6.355 6.355 0 012.084 3.838c.08.537-.125 1.157-.73 1.29-1.952.428-4.61.114-5.485-2.011-.425-1.033-.162-2.175.537-2.955-.022-.036-.058-.058-.077-.099-.123-.259-.149-.668.113-.871zm1.116 3.441c.557.547 1.34.677 2.109.636-.267-.585-.612-1.122-1.133-1.56-.448-.375-1.048-.603-1.537-.94-.109.657.086 1.397.561 1.864z" fill="#13264C"/></svg>