<svg width="789" height="248" fill="none" xmlns="http://www.w3.org/2000/svg"><path d="M734.557 130.787c-10.422 3.157-8.259-5.078-28.659-6.807-20.401-1.729-53.926-13.437-53.926-13.437s-1.783-.169-34.059-14.303c-32.276-14.134-10.794 46.046-14.953 43.464-4.159-2.583-11.761-7.416-18.143-11.947a1562.506 1562.506 0 01-10.169-7.283l4.983 1.06-40.523-32.45-40.991-26.282-33.181-11.208-47.79-3.805-44.371 6.544-18.731 4.135-40.187 7.766-57.317-4.321-27.417-7.709-28.455-11.26-43.938-13.3-25.296-2.495-24.202-1.359-35.312 3.868-6.084-.8s-5.31.41-5.386 1.678c-.075 1.27-7.152 2.496-8.187 4.133-1.034 1.64-6.248 3.497-6.886 5.07-.639 1.572-3.557 5.082-3.557 5.082l-.332 4.78 2.78 4.169 1.54 2.686.755 6.435s3.05 2.857 3.882 3.096c.833.238 4.788.472 4.788.472l5.549-2.689 5.923-2.87 5.731-2.78 5.92-4.185s-11.328 9.762-11.669 10.418c-.341.656-.402 2.654-.516 3.813-.114 1.159.646 3.316.646 3.316s2.57 2.073 3.37 2.414c.799.338 2.988-.745 3.413-.834.425-.089 2.025-.84 3.03-1.158 1.004-.32 1.36.293 2.134.888.774.597-.526-.311 1.37 2.997 1.895 3.308-1.813 2.936-1.813 2.936s-.25 3.883-.302 5.828c-.052 1.946 1.632 3.15 1.632 3.15s2.385 1.148 3.946 2.21c1.56 1.062 0 0 4.037-.123 4.036-.123 2.126-1.872 2.126-1.872s2.068-2.658 3.008-3.735c.939-1.078 3.135.568 3.135.568s3.344 2.67 3.794 3.755c.449 1.083 3.692 3.37 3.692 3.37s.077 6.233.401 7.177c.323.943 3.401 3.516 3.401 3.516l6.275 2.51s5.514-1.016 7.246-1.697c1.733-.681 4.208-1.854 5.399-2.648 1.188-.794 5.927-2.405 7.551-3.025 1.623-.62 3.844-4.948 5.645-4.901 1.801.046 6.781 1.28 6.781 1.28l1.164 7.057s1.515 3.517 1.864 4.2c.12.234 9.385 4.95 10.494 5.693-3.228 8.17-8.865 19.84-8.865 19.84-2.957 4.006-20.054 15.878-20.054 15.878l-14.162 12.756-79.532.311s136.675 26.004 156.478 27.877c19.804 1.873 80.39 7.933 80.39 7.933s58.145 9.206 84.146 8.305c26.001-.902 67.223-.771 67.223-.771l43.051-.782s16.25-12.593 48.086-3.414c27.193 7.841 51.008-4.837 51.008-4.837l55.084 1.154s27.008-4.108 51.669-12.085l48.639 4.8s24.051 3.782 34.519 2.734c10.467-1.049 14.939-6.23 14.939-6.23l7.131-16.965s-6.741-29.681-17.164-26.524l-27.639-10.231z" fill="#fff"/><path d="M461.635 108.214c-4.744-14.666-17.161-28.445-32.319-34.37 8.083-.111 16.128.231 24.001 2.412 15.635 4.33 28.546 13.936 38.142 26.408.172.225.563-.008.43-.258-15.27-28.58-44.171-37.915-74.267-32.275-.36-.18-.717-.361-1.082-.533 22.639-5.139 45.428-4.606 67.363 8.916.248.154.504-.183.269-.358-35.77-26.224-81.888-13.527-119.679.816-39.105 14.84-80.127 32.144-122.424 34.378.68-1.965 1.658-3.809 3.43-5.505 3.805-3.643 9.277-5.148 14.561-4.421.169.023.238-.242.068-.284-5.277-1.338-10.753-.686-15.106 2.573-2.439 1.823-4.723 4.68-5.846 7.765-2.218.081-4.439.133-6.664.125 1.993-8.171 10.189-11.422 18.647-13.437a.247.247 0 00-.09-.485c-5.765.64-11.509 1.338-16.201 4.907-2.844 2.161-5.223 5.45-5.546 8.955-2.92-.067-5.845-.211-8.775-.44-.022-.115-.021-.226-.042-.341-.195-1.023-.9-1.642-1.729-1.875 3.908-1.119 7.761-2.313 11.429-3.696.188-.07.055-.323-.128-.268-9.685 2.887-19.298 1.705-29.107 3.182-3.187.48-8.009 2.532-11.623 2.904-.122-.233-.227-.471-.366-.696-.887-1.438-2.864-1.431-3.626.097-.029.057-.042.119-.07.176-3.292-1.025-4.826-3.511-7.431-5.501a9.658 9.658 0 01.996-4.088c1.951-3.981 6.323-6.207 10.798-6.434.565-.03.482-.858-.04-.925-6.719-.856-12.814 3.77-14.653 9.372-1.023-.792-2.068-1.463-3.513-1.779.566-2.809 1.866-5.422 4.097-7.801 3.404-3.637 10.589-9.313 16.171-7.302.26.096.501-.284.239-.427-5.676-3.084-13.363 1.776-17.496 5.476-3.023 2.705-5.307 6.26-6.039 10.046-3.343.821-6.258 4.007-9.397 5.37-1.037-1.686-3.869-1.745-4.992.1-1.055-.464-2.163-1.299-3.335-2.582.206-.058.414-.104.623-.184.902-.35.926-1.859-.08-2.125-4.495-1.198-7.586-4.229-5.522-8.947 1.699-3.886 6.46-6.25 10.489-7.297.442-.114.341-.72-.124-.678-5.979.546-12.052 2.714-13.809 8.63-3.239-2.999-7.599-3.666-11.95-1.925-3.69 1.476-6.288 4.646-9.918 6.243-6.483 2.856-14.766.701-16.53-5.783 2.118-1.905 2.979-4.634 4.855-6.752 1.987-2.243 4.588-3.876 7.087-5.538.637-.423.062-1.262-.581-1.212-3.589.29-8.147 2.594-11.067 5.76-2.896.223-5.587-.463-6.966-3.549-1.502-3.366.228-7.208 2.4-9.85 4.576-5.561 12.104-7.774 19.059-9.05.368-.068.479-.395.402-.674.368.8 1.021 1.473 2.07 1.946.705.316 1.397-.364 1.301-1.023-2.267-15.576 15.036-16.995 26.294-20.56.122-.038.078-.225-.042-.234-8.452-.547-18.424 1.778-24.518 7.654-2.286 2.204-6.621 8.32-5.202 11.996a.572.572 0 00-.35-.18c-10.114-1.231-24.663 4.593-26.537 15.352a9.274 9.274 0 00-.121 1.727c-1.231.614-1.903 1.387-2.912 2.688-1.6 2.057-2.302 4.767-5.112 4.224-6.296-1.208-1.487-9.595-1.323-13.15.288-6.314-8.144-5.007-12.963-3.217-2.154-.957-2.457-4.584-1.6-6.973.911-2.541 2.782-4.902 4.805-6.712 3.668-3.286 8.291-5.152 13.219-5.874.257-.037.24-.411-.02-.437-1.697-.161-3.391-.047-5.06.195.184-19.252 24.625-16.462 39.185-18.038.336-.036.325-.593-.025-.583-14.046.403-44.22-2.338-41.678 19.123-6.18 1.646-11.592 5.88-14.062 11.715-1.479 3.492-1.58 7.924 1.872 10.42 2.57 1.853 6.36 1.886 8.007-.974.155-.269.213-.553.196-.823l.046.005c1.465.343 3.622 1.083 3.664 3.05.042 1.843-1.661 4.344-1.83 6.381-.295 3.53.62 7.32 3.702 9.6 5.409 3.998 11.136-1.062 12.784-6.462 1.518 3.703 4.78 6.76 8.328 7.195-2.434 6.407 2.164 13.263 9.13 14.868 12.693 2.925 19.662-11.487 31.51-8.302-.069 3.158 1.871 6.662 4.74 8.008l-.001.01c.87 3.575 2.682 6.669 6.028 8.252-14.026 52.102-88.335 51.738-129.202 28.993-.421-.234-.872.336-.447.593 26.353 16.126 56.64 22.077 87.082 14.465 22.749-5.686 44.373-20.274 48.763-43.238.193-.056.393-.112.581-.182-2.219 17.922-14.642 31.253-30.136 41.161-15.881 10.156-33.79 9.253-52.263 9.961-.115.004-.108.194.008.193 21.368.301 38.3 2.511 56.688-8.96 9.869-6.156 18.514-13.591 24.395-22.646-1.324 3.293-3.043 6.552-5.442 9.802-8.104 10.984-19.233 17.139-30.908 24.035-.046.027-.031.111.03.095 22.727-6.068 51.964-32.063 47.656-57.204.493.866 1.82.612 2.054-.227 1.909.911 3.132 2.748 5.489 4.12.266.304.562.601.872.89-2.169 7.626-2.667 15.43-6.517 22.764-5.438 10.354-14.526 18.484-24.977 24.132-.17.09-.056.335.128.268 16.834-6.192 37.829-25.93 36.568-45.303.192.054.388.105.581.146-1.168 6.074-.631 12.93-2.696 18.787-3.255 9.228-10.189 18.16-18.43 23.796-.134.094.029.274.163.189 9.991-6.226 17.044-13.089 22.576-23.368 2.875-5.341 6.267-13.058 5.525-19.665.299-.062.562-.103.879-.175l.985-.222c-1.753 7.137-.865 14.696-3.432 21.913-3.077 8.657-8.894 15.26-15.21 21.859-.154.158.091.441.283.331 13.121-7.552 28.732-29.671 23.107-45.168 1.096-.245 2.168-.483 3.271-.734-.317 7.579.164 14.428-2.357 21.818-2.767 8.119-7.714 15.064-14.15 20.877-.166.151.04.396.227.266 13.271-9.234 24.587-27.12 20.799-43.509-.041-.177-.133-.316-.21-.465.861-.202 1.723-.404 2.585-.613 2.545.674 5.083 1.269 7.625 1.807-1.287 11.404-2.198 21.867-9.771 31.67-7.109 9.205-16.868 15.268-27.991 19.2-.11.039-.054.206.06.186 14.157-2.657 27.993-11.953 36.184-24.212-5.261 10.356-13.564 18.963-25.355 26.296-.217.136.014.491.243.371 19.384-9.978 39.631-28.664 36.187-51.773.334.049.669.119 1.003.165-.002.019-.01.034-.012.053-.009 17.783-3.828 36.128-20.393 46.652-.136.088.026.274.163.19 16.025-9.994 29.437-26.717 25.662-46.272 1.877.201 3.751.37 5.625.502-1.277 6.417-.679 12.985-3.001 19.447-3.086 8.59-8.675 16.213-15.937 21.998-.129.101.009.339.162.25 12.477-7.278 28.243-25.803 23.734-41.386 1.909.078 3.818.09 5.724.101.182 13.619-2.692 26.214-13.732 36.028-.144.128.039.345.195.228 11.306-8.488 19.847-22.095 18.003-36.26 3.093-.061 6.175-.211 9.258-.43 1.749 11.237-.131 19.75-7.554 29.066-.225.28.171.575.444.403 9.749-6.165 15.856-18.835 14.547-30.127 3.543-.388 7.078-.891 10.607-1.467-1.62 9.652-2.648 18.605-9.001 27.273-7.159 9.768-17.46 16.563-28.746 21.311-21.204 8.925-55.144 17.135-77.882 10.856-.189-.054-.301.216-.109.273 26.144 7.887 62.942-.335 86.676-12.077 16.824-8.325 39.221-28.534 36.222-48.921.942-.184 1.885-.375 2.825-.573-3.267 28.808-27.738 51.913-55.878 60.059-.214.061-.167.39.062.337 30.145-6.71 59.769-29.484 62.996-60.82.043-.434-.036-.805-.125-1.167.337-.08.677-.16 1.014-.244-2.465 8.78-2.81 18.076-7.287 26.657-6.812 13.055-18.046 23.973-31.618 30.531-.145.071-.045.289.106.225 13.486-5.718 24.915-13.783 33.335-25.566 6.211-8.694 13.858-22.32 12.3-33.614l.334-.09c1.227 17.72-9.069 33.255-21.116 46.181-.117.124.092.309.224.202 15.408-12.806 28.427-27.943 27.104-48.155.19-.057.38-.117.569-.174-.541 5.455-.506 10.999-2.181 16.44-2.599 8.445-7.198 16.165-13.114 22.841-.285.322.227.764.555.503 11.027-8.755 23.471-26.536 20.862-41.676.475-.155.952-.319 1.428-.477 3.297 12.74-3.221 26.177-10.294 36.737-.104.156.132.328.25.172 9.188-11.94 19.129-23.323 16.284-39.003a372.216 372.216 0 007.214-2.598c.142 2.756.976 5.466.997 8.39.039 5.698-1.594 11.355-4.829 16.115-.197.293.228.584.455.319 3.705-4.291 6.793-8.662 8.641-13.997 1.381-3.997 3.153-9.328 1.392-13.404a481.014 481.014 0 0012.102-5.05c-.396 25.864-16.785 49.638-43.789 56.526-.249.064-.193.423.071.386 22.393-2.92 38.844-20.325 46.343-40.3-.99 4.363-2.419 8.712-4.786 13.148-6.216 11.646-15.614 19.711-26.371 27.429-.17.122.008.354.188.29 22.665-8.07 45.703-38.208 40.023-62.576.608-.268 1.216-.533 1.828-.8 2.748 12.799.539 24.822-6.135 36.31-4.713 8.11-15.902 25.699-25.883 27.314-.22.035-.218.382.018.39 10.905.382 22.887-15.649 28.488-23.4 7.041-9.745 11.288-20.463 11.553-31.81 2.258 18.833-9.607 39.914-23.973 50.514-.238.175.053.501.292.341 19.159-12.628 38.973-41.752 28.629-65.24a389.395 389.395 0 0112.788-5.105c3.152 5.369 6.867 10.506 9.213 16.22 5.464 13.305.899 25.979-8.228 36.335-12.449 14.127-27.492 27.827-46.928 31.765-.319.066-.239.525.09.485 22.141-2.856 42.614-18.236 55.54-35.306 10.163-13.419 9.729-29.747 2.488-43.801 10.912 14.198 15.211 30.64 3.794 47.686-11.356 16.951-31.329 26.392-49.878 34.433-.24.103-.07.451.172.358 23.172-8.879 49.478-18.726 58.957-43.109 5.275-13.57 3.375-30.633-5.445-42.776 16.02 14.014 21.234 35.812 8.293 54.399-13.593 19.522-39.797 37.734-64.849 37.312-.292-.003-.342.43-.044.441 28.345 1.008 62.453-18.733 74.56-43.623 7.672-15.769 4.585-34.262-6.129-47.472 21.05 15.259 27.787 45.303 10.24 66.252-17.76 21.203-46.237 31.46-73.541 35.369-.304.043-.3.539.023.536 32.194-.281 70.483-14.943 86.071-43.664 6.74-12.422 6.323-26.515 1.143-39.097 4.848 7.078 8.536 14.718 9.298 23.56 1.599 18.574-10.711 31.465-26.024 40.403-27.685 16.16-62.032 27.826-94.625 21.587-.364-.071-.507.508-.149.613 35.202 10.326 83.672-5.016 110.354-28.304 1.129-.986 2.141-2.044 3.153-3.106-6.766 8.593-16.125 15.67-26.275 21.133-18.852 10.147-39.956 15.76-61.09 19.713-22.196 4.154-47.564 9.393-68.147-2.795-.224-.132-.457.167-.239.318 21.626 14.918 50.096 8.9 74.306 4.465 27.448-5.031 57.207-13.291 78.411-31.576 16.809-14.498 23.658-37.289 16.868-58.28l.02-.001zm-246.105 4.413c-.725-.081-1.452-.175-2.18-.266.908-.235 1.805-.49 2.707-.736a2.26 2.26 0 00-.527 1.002z" fill="#13264C"/><path d="M89.072 21.194c.166-.015.116-.247-.046-.241-15.766.476-30.349 4.876-42.516 14.721-3.752 3.037-7.95 6.734-8.084 11.785-.098 3.725 1.586 6.646 5.041 7.416-.811 3.296-.619 6.744.95 9.073 4.863 7.225 17.273-.577 21.751-4.51.234-.205.053-.541-.248-.52-2.524.186-4.952.937-7.341 1.692-2.746.868-8.501 4.11-10.773.842-1.373-1.978-.001-6.146.716-8.022.887-2.316 2.75-4.177 3.393-6.524.164-.599-.288-1.476-1.076-1.258-2.512.696-4.582 2.848-5.966 5.516-9.927-14.593 34.542-29.109 44.202-29.97h-.003zm-59.099 1.099c.422-.775-.018-1.813-1.094-2.007-4.826-.874-10.919 1.964-11.367 7.103-.398 4.596 4.725 7.628 8.953 7.831 4.006.193 8.327-2.084 8.748-6.213.322-3.165-1.944-6.256-5.24-6.714zM32.623 29c-1.104 2.324-4.095 2.909-6.491 2.499-2.383-.409-5.73-2.285-4.065-4.957 1.446-2.321 4.974-2.456 7.277-3.636.215-.111.32-.277.444-.435 2.832.686 3.993 4.088 2.831 6.529h.003zM21.015 68.49c1.058-.359 2.119-.711 3.092-1.316 1.051-.653.552-2.192-.447-2.596-4.97-2.015-10.891 3.408-12.704 7.388-2.371 5.202 1.064 10.273 7.065 10.137 4.828-.11 10.245-4.362 8.47-9.434-.797-2.278-3.125-4.019-5.476-4.181v.003zm-5.738 9.269c-2.756-2.197.02-5.867 2.147-7.534.075.07.177.112.31.053 2.876-1.25 6.636 1.298 6 4.35-.642 3.069-5.784 5.259-8.457 3.127v.004zm44.421 15.59c.8-.786.308-2.292-.995-2.077-4.416.735-8.853 3.948-11.023 7.712-1.607 2.788-2.784 8.051.403 10.375 3.036 2.215 6.854-1.052 8.567-3.385 2.184-2.968 2.987-6.779 1.646-10.246-.097-.252-.388-.335-.636-.325-.248.014-.497.008-.744.018.98-.613 1.944-1.25 2.785-2.075l-.003.003zm-2.563 5.183a12.334 12.334 0 01-.854 3.181c-.593 1.415-4.627 7.437-6.586 4.202-1.57-2.59 1.89-6.66 3.62-8.088.844-.696 1.765-1.265 2.689-1.83 1.11.387 1.322.992 1.13 2.535zm716.614 71.503c-56.12 8.435-114.595-1.147-163.716-29.581-9.3-5.382-18.099-11.437-26.664-17.804 12.81 1.668 25.503 3.618 37.854 7.938 13.136 4.594 25.096 10.172 39.121 11.591.133.013.148-.172.019-.194-17.408-3.024-32.303-12.451-49.05-17.467-11.184-3.35-22.762-5.401-34.385-6.737a769.504 769.504 0 01-10.851-8.52c24.9 1.126 47.138 10.747 70.452 19.386 24.329 9.017 48.395 13.27 74.268 15.577.394.035.451-.543.058-.588-30.98-3.492-57.827-11.925-86.291-23.789-18.629-7.763-37.284-14.576-57.368-15.363 4.5-.423 9.001-.954 13.54-.503 10.01.991 20.547 4.829 30.339 7.257.186.046.296-.205.109-.274-16.026-6.055-31.191-12.748-48.18-11.216 5.338-1.05 10.684-1.706 16.318-1.096 7.938.859 16.772 3.63 24.578 5.435.308.071.5-.339.183-.458-8.008-2.986-15.966-6.775-24.412-8.483-8.929-1.802-17.714-.543-26.437 1.518a2.558 2.558 0 00-1.527 1.017c-1.228-.99-2.459-1.972-3.69-2.958 5.688-.628 11.077-2.762 17.017-2.413 7.626.45 15.01 2.59 22.69 2.662.253.003.351-.322.105-.425-6.491-2.732-13.757-4.664-20.685-6.064-7.421-1.499-15.992 1.391-23.014-1.186-1.866-.685-3.348-.093-4.263.99-1.005-.784-2.021-1.553-3.029-2.33 36.291-3.477 65.056 9.635 97.743 25.244 30.333 14.483 61.634 23.453 95.321 26.402.196.02.224-.271.029-.293-43.891-4.767-78.095-22.807-116.222-42.767-23.805-12.461-55.247-24.133-81.07-11.78-12.065-9.047-24.587-17.47-38.244-24.342-40.813-20.538-90.349-21.874-132.749-5.835-24.414 9.233-46.327 23.577-71.069 32.108-28.705 9.898-59.452 12.208-89.665 8.078-1.051-.145-1.186 1.391-.154 1.562 24.86 4.104 49.909 3.989 74.433-1.665 24.268-5.593 45.656-17.017 67.928-27.335 55.084-25.518 114.276-23.04 165.951 10.108 20.142 12.923 38.338 27.853 57.096 41.942-.931.969-.637 2.925 1.163 3.172 1.265.176 2.528.338 3.791.504 18.092 13.342 36.901 25.688 58.661 34.49 45.564 18.432 95.746 23.658 144.146 15.354.582-.1.426-.958-.161-.87l-.017.001z" fill="#13264C"/><path d="M325.574 65.64c-40.012 16.657-81.928 20.297-125.03 14.637-.965-.127-1.056 1.23-.14 1.415 42.572 8.609 86.451 1.871 125.363-15.647.269-.122.078-.517-.193-.401v-.004zM176.871 76.934c1.961.32 4.49.25 6.345-.462 1.122-.432 1.021-1.78.242-2.447-1.561-1.337-4.039-2.12-6.055-2.48-3.56-.64-4.117 4.805-.532 5.389zm-19.617-13.019c-2.325.237-6.186-.355-7.593 1.777-.499.756-.485 1.988.427 2.503 1.491.848 2.383.57 3.901.016 1.395-.506 2.749-1.098 4.15-1.597 1.639-.586.71-2.864-.882-2.7h-.003zm-38.748-20.268c-1.278.49-2.556.78-3.913.967-1.287.18-2.596.186-3.784.728-1.343.615-1.559 2.976.126 3.391 3.206.793 6.489-1.18 8.98-2.937 1.255-.886-.056-2.669-1.405-2.152l-.004.003z" fill="#13264C"/><path d="M208.08 41.596c-44.757-18.45-88.99-22.424-136.788-13.919-.358.062-.26.567.098.533 28.686-2.674 56.327-3.631 84.799 1.955 27.452 5.385 50.436 19.273 76.45 28.339 42.114 14.681 86.046 12.47 126.276-5.2.337-.146.098-.596-.238-.49-51.42 15.915-101.689 8.945-150.597-11.218zm322.386 69.744c-.825-.662-1.709.595-.953 1.269 32.995 29.345 74.069 49.268 116.909 61.355.093.025.149-.112.053-.137-43.602-12.591-81.219-34.53-116.009-62.487zm-26.934-25.159c-.917-.573-1.826.643-.984 1.307 7.804 6.146 16.463 11.187 24.791 16.628.164.108.334-.122.178-.238-7.915-5.99-15.531-12.405-23.985-17.697zm-21.345 30.109c10.926 27.558-7.704 71.233-35.501 82.798-.182.076-.053.338.128.268 16.552-6.327 27.204-18.517 33.713-34.258 5.917-14.311 13.183-35.565 3.887-49.784-.826-1.265-2.803-.485-2.227.976z" fill="#13264C"/><path d="M464.612 83.182c-1.016-.567-2.486.594-1.522 1.554 18.325 18.29 32.059 37.345 31.337 63.813-.01.406.634.479.661.065 1.715-24.038-7.438-52.535-30.477-65.428l.001-.004zM186.031 18.168c-4.247-.249-4.842 5.722-.623 6.308l.461.065c4.239.592 4.906-6.097.626-6.346l-.464-.027zM64.752 8.815c-4.048 1.774-3.034 7.888 1.482 8.305.19.006.378.037.564.08 1.68.334 3.018-.929 3.715-2.188l-.166.346c2.526-3.537-1.416-8.374-5.595-6.54v-.003zm52.729 118.382c2.763 1.225 6.192-1.471 5.479-4.309a9.371 9.371 0 00-.597-1.746c-1.168-2.495-4.633-3.225-6.787-1.528-2.153 1.693-2.088 5.097.235 6.68.521.357 1.091.644 1.67.903zm20.559-65.295c-1.463-1.328-3.496-.39-4.909.57a8.152 8.152 0 00-3.306 4.677c-.175.683.022 1.51.823 1.762 2.583.814 6.215.762 7.667-1.865.705-1.277.496-2.787-.349-3.887.034-.043.085-.067.116-.117.2-.318.287-.843-.042-1.14zm-1.946 4.294c-.822.632-1.897.696-2.93.54.436-.72.97-1.368 1.729-1.864.654-.424 1.494-.638 2.197-1.007.063.861-.295 1.791-.996 2.331z" fill="#13264C"/></svg>