<svg width="306" height="273" fill="none" xmlns="http://www.w3.org/2000/svg"><path d="M204.804 86.43c1.184-.872.717-2.625-.767-2.726-1.451-.098-2.761.016-3.733-1.366-.76-1.079-.704-2.6-.349-3.81.793-2.716 3.361-4.298 5.355-6.065.226-.2-.026-.55-.288-.482-.676.18-1.345.448-1.999.754-3.044-9.317 4.924-14.305 13.276-15.786.026-.004.021-.046-.005-.045-4.969.45-10.335 1.64-13.469 5.923-2.115 2.89-3.117 7.416-.874 10.454-.398.235-.779.496-1.147.774-1.244-3.134-2.239-5.963-1.227-9.436 1.181-4.05 4.639-6.578 8.444-7.9.079-.026.069-.157-.02-.15-7.936.825-13.699 11.721-8.009 18.187-.333.307-.643.63-.933.973-2.291-2.574-3.879-5.243-3.655-8.854.218-3.526 2.266-6.867 4.675-9.32.042-.044-.022-.1-.066-.064-3.127 2.569-5.447 5.775-5.718 9.942-.223 3.423 1.142 7.254 4.12 9.1-.9 1.337-1.442 2.89-1.412 4.593.022 1.239.578 2.585 1.433 3.696-.883.605-1.7 1.423-2.795 1.691-.775.19-1.554.169-2.313.013a.797.797 0 00-.308-.547c-1.191-.97-2.765-1.498-3.461-2.977-.934-1.991-.047-3.768.838-5.508.773-1.516 1.647-2.833 1.5-4.613-.054-.642-.246-1.207-.493-1.733.024-.36-.147-.73-.496-.865-1.425-1.94-4.122-2.904-6.484-3.027-.177-.01-.256.272-.089.345 1.347.587 2.928 1.28 3.998 2.366-3.552-.14-6.862.966-9.919 3.186-1.82 1.323-3.242 2.937-4.517 4.762-3.156 4.518-3.215 8.391-9.369 9.207-12.105 1.603-3.979-13.315-.202-17.98a53.708 53.708 0 019.509-9.167c5.916-4.428 12.643-7.033 19.201-10.281.15-.075.03-.276-.109-.25-13.988 2.483-41.981 17.651-38.007 35.738 1.284 5.848 6.8 9.73 12.594 7.395 3.355-1.352 5.305-4.587 6.905-7.621 3.994-7.58 6.831-11.147 15.04-12.833.082.494.108 1.02-.01 1.631-.239 1.23-1.236 2.352-1.805 3.429-.763 1.446-1.354 2.923-1.184 4.589.256 2.483 2.109 5.393 4.635 5.857a6.427 6.427 0 004.017 1.559c1.685.055 4.601-.763 5.691-2.4 1.266.586 2.689.603 4.003-.365l-.002.008z" fill="#13264C"/><path d="M274.815 84.759c.314.413.987.034.706-.43-16.065-26.535-51.884-44.602-81.297-28.264-.105.058-.028.236.084.194 32.319-12.069 60.707 2.459 80.507 28.5zM201.668 27.63c2.643 1.138 7.253 2.927 9.076-.422.738-1.357-.748-2.424-1.957-1.894-3.058 1.343-6.756-1.04-9.454-2.47-1.67-.883-3.261-1.916-4.867-2.92-3.379-4.287-11.16-4.052-12.206 2.247-.506 3.056 1.198 5.027 3.779 6.349 2.593 1.328 5.14 1.866 7.535 3.705 1.126.864 2.497 1.872 3.392 3.003 4.931 6.222 1.017 10.79-3.888 12.86-.086.037-.086.195.025.18 5.49-.71 12.493-4.184 9.218-10.956-1.616-3.345-5.595-6.683-8.694-8.628-1.501-.943-3.78-1.222-5.141-2.187-3.722-.477-2.859-2.647 2.483-6.47 2.669 3.431 6.812 5.929 10.693 7.6l.006.002zm26.517 9.933c-2.26-.697-4.75-.795-7.093-.682-1.676.082-3.999.037-5.507.87-2.265 1.25-1.786 3.744-.398 5.493 2.17 2.733 6.483 4.812 9.949 4.52.311-.026.523-.513.17-.66-2.414-.995-4.745-1.645-6.836-3.297-.751-.592-2.489-1.916-2.431-2.89.104-1.774 2.8-1.642 3.881-1.703 2.967-.17 5.866.06 8.552 1.45 2.063 1.067 3.316 2.732 4.939 4.307.508.492 1.54.13 1.475-.637-.304-3.542-3.524-5.79-6.703-6.771h.002zM178.057 26.72c-.102-1.908-1.157-3.575-2.717-4.629-1.465-.987-3.812-1.676-5.37-.542a1.867 1.867 0 00-.289.275 5.373 5.373 0 00-2.242 1.84c-1.92 2.8-.117 6.279 2.694 7.575 3.397 1.567 8.152-.29 7.923-4.517l.001-.002zm-8.575-2.79a1.7 1.7 0 00.935.695c1.43.439 3.33.051 3.876 1.93.663 2.282-2.145 2.667-3.659 1.933-2.23-1.083-2.224-3.182-1.153-4.557l.001-.002z" fill="#13264C"/><path d="M183.735 40.572c-1.025.546-1.861 1.43-2.219 2.658-.861 2.95 1.473 6.288 4.559 6.398 3.261.116 6.053-3.335 5.1-6.508-.45-1.5-1.708-2.667-3.141-3.208-1.373-.52-3.354-.631-4.299.66zm5.428 3.527c.288 1.805-1.508 3.626-3.286 3.523-1.949-.113-3.439-2.403-3.055-4.248.137-.653.465-1.211.895-1.679.17.2.411.35.688.371.941.063 1.742-.383 2.696-.1.963.287 1.895 1.1 2.062 2.133zm-36.235-2.692c-.438 1.11.133 2.161.994 2.851 1.977 1.585 5.595 2.593 7.513.44a1.287 1.287 0 00.168-1.508c-.799-1.483-1.729-3.045-3.336-3.744-1.464-.635-3.163-.62-4.064.845-.006.012-.003.026-.011.038-.558.088-1.038.503-1.266 1.078h.002zm2.161.386c.908-.06 1.735-.228 2.53.322.511.354.893.842 1.235 1.361-.711.19-1.561-.077-2.271-.282-.495-.143-1.029-.274-1.475-.539-.374-.222-1.023-.912-.915-1.448.165.346.489.612.894.587l.002-.001zm-9.509 65.439c1.855 3.331 6.539 3.434 9.268 1.224 2.883-2.332 3.788-6.63 1.561-9.71-1.754-2.425-6.658-4.884-8.861-1.798-.368.517-.111 1.4.423 1.723-2.331 2.308-4.273 5.178-2.39 8.559l-.001.002zm3.094-8.272c1.521.412 3.11.017 4.462 1.252 1.553 1.421 1.47 3.723.113 5.269-1.808 2.06-5.121 1.753-5.885-1.067-.497-1.833.258-3.821 1.308-5.454h.002zm40.126.526c-2.787-.287-3.711 2.886-2.545 4.99 1.391 2.507 4.714 4.035 6.788 1.426 1.628-2.05 1.582-5.226-.147-7.198-1.764-2.009-5.118-2.618-7.257-.886-.966.783.135 2.215 1.166 1.951 1.12-.289 2.113-.621 3.244-.107 1.103.502 1.738 1.574 1.761 2.772.032 1.645-1.07 3.101-2.774 2.145-1.796-1.009-2.689-3.962-.215-4.944.083-.032.063-.142-.02-.151l-.001.002zm66.599-71.576c3.312.183 6.498-2.364 6.929-5.675.518-3.96-2.4-7.612-6.031-8.822-.628-.209-1.167.022-1.539.427-5.364 1.405-6.845 13.657.641 14.07zm-1.115-12.362c.097.388.341.735.782.94 1.898.875 3.724 2.212 3.99 4.46.209 1.765-1.015 3.211-2.66 3.706-4.051 1.22-4.764-6.118-2.113-9.107h.001zm-15.105-.441c1.951-2.776 3.086-2.678 3.403.292 1.203 1.742 1.485 4.69 1.987 6.724.984 3.984 1.925 7.949 3.366 11.8 2.404 6.425 5.742 12.236 10.209 17.41.632.732 1.802-.26 1.301-1.045-5.565-8.713-9.551-17.275-12.438-27.257-1.053-3.639-1.971-10.092-5.268-12.65-1.935-1.501-3.947-1.87-5.885-.06-1.061.989-1.369 2.663-1.547 3.991-.181 1.343 1.122 4.385.528 5.5-.788 1.478-3.376 1.74-5.354 1.238-1.576-4.906-5.005-9.668-10.373-7.882a5.25 5.25 0 00-1.265.637C214.456 7.825 210.39-1.94 202.537.942c-3.122 1.144-2.374 3.151-1.209 5.656a810.088 810.088 0 004.076 8.593c.922 1.919 3.169 5.495 1.074 7.498-.717.685-2.953.837-4.005 1.015-.16.028-.129.256.003.296 2.27.675 5.327.83 6.676-1.573 1.463-2.606-.873-6.074-1.912-8.353-1.052-2.303-3.301-5.444-3.66-7.924-.82-5.637 5.256-2.102 7.245.147 2.311 2.613 3.766 5.817 5.778 8.651-1.218 1.524-1.697 3.648-1.559 5.617.285 4.074 1.788 9.021 3.635 12.634.119.235.482.107.482-.138-.005-2.354-.554-4.657-1.023-6.954-.27-1.324-.577-2.644-.737-3.987-.253-2.133-.266-3.628 1.228-4.8.399.144.874-.19.917-.59 2.176-1.123 3.478-.637 5.124 1.192.89.99 1.498 2.267 2.01 3.475.779 1.844 1.334 3.799 1.959 5.7.332 1.004 1.866.824 1.858-.268a16.381 16.381 0 00-.171-2.13c.929.631 2.025.922 3.311.546 2.752-.803 2.476-3.34 3.267-5.447-1.019-2.338-.261-3.902 2.275-4.691z" fill="#13264C"/><path d="M274.199 70.463a.47.47 0 00-.14-.508c-.578-.545-1.125-1.12-1.693-1.673a115.88 115.88 0 00-8.587-8.943c-3.655-4.132-7.099-8.452-10.243-13.022-3.865-5.617-6.805-13.875-12.969-17.462-6.375-3.709-15.573.149-12.373 8.255.185.465.807.274.735-.209 7.443-6.95 12.702-6.636 15.782.944 1.135 1.971 2.3 3.924 3.497 5.857 2.381 3.756 4.932 7.44 7.768 10.864 2.844 3.434 5.963 6.587 9.252 9.554 13.042 15.134 23.538 32.014 30.133 51.309 3.739 10.942 5.804 21.789 6.698 32.715-.287.082-.509.322-.481.736 1.595 23.834-8.224 46.932-26.281 62.49-.463.399-.94.779-1.409 1.169 9.159-9.732 17.429-21.622 20.475-34.709 6.512-15.967 7.315-34.195.286-50.186-.519-1.18-2.291-.271-1.999.874.385 1.513.726 3.036 1.043 4.564-.317-.427-.606-.873-.971-1.274-.219-.239-.498-.381-.793-.476-.252-.179-.504-.359-.79-.484-.139-.062-1.437-.374-1.57-.46-1.942 1.149-3.108.52-3.495-1.887-1.069-.746-1.516-1.621-1.337-2.623-.214-.904.124-3.501.18-5.122.107.006.22-.104.151-.227-.053-.094-.097-.211-.146-.312a5.09 5.09 0 00-.019-.423c-.296-2.364-1.038-4.387-2.009-6.406-1.19-4.449-2.895-8.957-7.412-8.984-2.572-.014-4.483 1.95-6.566 2.967-.704-.191-1.501.012-1.974.567a4.179 4.179 0 01-1.908-.296c-.78-1.319-1.181-2.942-1.244-4.88-.119-3.594 1.626-12.986 7.615-9.463.145.087.263-.134.126-.226-5.667-3.857-8.955 3.607-9.534 8.133-.08.638-.105 1.356-.081 2.11-.015-.014-.029-.03-.045-.044-1.506-2.098-3.022-4.054-3.699-6.796-.5-2.034-.673-4.401-.199-6.467.883-3.844 4.663-4.128 7.796-3.186.222.067.366-.285.152-.38-5.089-2.284-9.334-1.485-10.269 4.7-.036.235-.058.48-.084.726a30.458 30.458 0 00-.607-1.352c-.133-.273-.48-.05-.444.196.093.622.21 1.327.341 2.066a57.913 57.913 0 00-2.567-4.445l.758.54c.393.28.881-.284.636-.661-1.544-2.373-3.782-5.01-6.549-6.033 1.259-3.393 4.458-5.782 8.235-5.804 6.592-.038 11.365 6.008 14.872 10.821.114.157.372.005.26-.158-4.305-6.332-11.276-15.208-20.054-10.773a10.04 10.04 0 00-4.893 5.543 6.63 6.63 0 00-.864-.048c.387-1.673 1.022-3.283 1.97-4.741 3.571-5.484 10.411-4.35 15.838-3.476.116.02.16-.141.048-.178-5.625-1.84-12.559-3.215-16.75 2.19-1.414 1.82-2.404 4.1-2.913 6.48-2.014.605-3.763 1.98-5.82 2.466-.447-.265-.874-.554-1.346-.786-1.051-.517-1.977-.146-2.463.562-3.979-1.405-5.993-6.356-4.44-10.489.058-.153-.176-.229-.252-.101-2.343 3.86-2.158 8.52.948 11.436-.09.042-.165.096-.245.15-.345-.263-.724-.496-1.095-.738a.597.597 0 00-.005-.417c-1.102-3.096-4.574-3.61-7.324-2.311-.629.297-1.222.64-1.804.978-.54-11.42 8.115-19.83 20.606-19.77.096 0 .114-.145.021-.167-10.665-2.415-19.975 5.799-21.691 15.538.139-2.87.872-5.703 2.577-8.457 3.844-6.216 11.215-9.436 18.346-9.09.026 0 .032-.043.005-.046-7.346-1.127-14.732 1.575-19.105 7.802-2.927 4.167-4.214 9.838-3.253 14.955a3.405 3.405 0 00-1.311.655c-.83-.44-1.796-.384-2.581-.019a4.55 4.55 0 01-.82-.357c-.308-.4-.669-.675-1.062-.824-1.784-1.864-1.979-5.093.29-6.921.163-.132-.052-.33-.207-.26-3.221 1.44-4.242 5.013-2.99 7.89-.824.79-1.214 2.018-.476 3.287 4.623 7.959 7.121 17.078 5.985 25.928a.773.773 0 00-.215.278c-3.795 8.262-6.932 17.205-15.456 21.839-10.077 5.479-23.829 3.318-34.464 1.08-16.438-3.458-32.316-9.029-48.872-12.074-31.193-5.736-64.809-4.577-91.597 14.335-.063.045-.005.146.062.105 36.688-22.622 79.491-15.803 118.538-4.184 9.757 2.903 20.163 6.293 30.626 7.673-1.357.02-2.683.205-4.091.453a165.45 165.45 0 01-12.929.271 29.05 29.05 0 01-2.277-.641c-7.491-2.469-14.594-5.761-22.235-7.86-15.344-4.211-31.694-6.109-47.576-4.568-.058.006-.06.091 0 .092 16.836.352 33.301 2.405 49.344 7.674 4.183 1.374 8.216 3.18 12.277 4.884-.591-.036-1.181-.073-1.772-.111-5.563-1.127-11.075-2.492-16.616-3.722-10.606-2.354-22.144-4.705-33.005-2.762-.072.013-.047.117.017.12 10.466.531 20.359 2.289 30.386 4.718-3.619-.348-7.236-.697-10.843-1.009-19.825-1.723-40.113-2.655-59.604 2.244-20.074 5.038-37.591 15.674-52.299 30.124-.14.139.077.343.22.212 21.105-19.151 48.216-29.337 76.56-29.606 23.631-.222 46.832 4.986 70.356 6.316 12.705.717 28.705 1.2 42.302-2.895-7.263 3.751-15.499 5.895-23.774 7.15-14.469.647-29.462-1.176-41.094-2.787-30.222-4.188-61.146-9.767-90.562 1.616-.18.07-.104.36.083.295 34.706-11.97 69.982-.974 105.133 2.746-30.211.322-60.262-4.471-90.486-.781-.133.016-.138.224 0 .215 25.112-1.743 50.189 1.83 75.257 3.259-1.422.039-2.846.076-4.265.122-16.08.525-32.151 1.228-48.227 1.821-.098.003-.098.152 0 .152 23.08.278 46.17.917 69.258.689 18.768-.185 37.894-1.774 54.897-10.469a67.092 67.092 0 002.887-1.573c5.898-2.731 10.924-6.358 14.253-11.121 6.005-6.333 10.512-13.985 12.618-22.744 1.542-6.413 2.544-19.486-2.02-26.512 10.149 7.363 10.145 23.239 6.777 34.245-3.594 11.742-11.311 21.562-21.749 27.915-.355.216-.029.749.333.55 13.372-7.364 22.898-19.28 26.703-34.171a47.075 47.075 0 001.151-6.345 32.28 32.28 0 01.175 5.205c-.48 10.258-4.817 19.987-9.529 28.932-.065.122.115.223.187.105 5.549-9.255 10.821-19.012 12.014-29.875 1.156 9.928-.816 20.131-6.795 29.822-.106.171.154.304.267.149 7.06-9.747 11.22-20.61 10.525-32.809-.2-3.526-.825-7.528-2.01-11.384 3.438 7.266 5.03 15.094 4.423 24.275-.945 14.276-8.784 27.371-20.763 35.087-.15.097-.011.324.143.236 13.247-7.585 22.549-19.653 24.391-35.109 1.202-10.093.06-24.262-6.305-33.609.294-.008.605-.288.537-.636a24.122 24.122 0 01-.413-4.302c.089.209.201.42.363.631.344.452.661.923.99 1.385.576 1.523 1.516 2.865 2.663 4.052 8.456 14.259 10.57 32.028 6.778 48.211-4.328 18.463-19.411 29.308-35.275 37.76-.314.167-.028.634.284.47 13.609-7.091 26.769-13.886 34.402-26.441a54.804 54.804 0 01-1.749 3.249c-11.008 18.777-32.06 26.137-52.668 27.984-19.226 1.722-38.519-1.192-57.768.005-18.577 1.154-36.567 5.689-53.805 12.686-.143.058-.08.292.067.235 23.777-9.286 48.368-12.355 73.733-11.142 20.478.98 41.718 3.34 61.585-3.232 30.817-10.193 44.408-40.675 40.014-71.032.343.189.703.347 1.07.483a5.056 5.056 0 001.674 1.091c.174 17.968-1.847 34.298-13.497 49.279-12.979 16.69-33.083 26.291-53.865 28.037-.078.006-.078.126.001.122 21.835-1.036 42.84-9.999 56.73-27.376 10.908-13.649 18.752-34.298 14.712-52.005a7.201 7.201 0 011.095-.433 27.92 27.92 0 011.804-.467c-1.275 23.875-1.584 51.138-22.436 67.108-.215.164-.008.527.221.367 6.495-4.579 11.469-10.156 15.344-16.367.392.037.817-.106 1.122-.533 5.087-7.076 11.933-18.66 14.692-29.953.209.714.503 1.392 1.046 1.883.049.043.095.066.143.107a3.224 3.224 0 00-.403 1.468 119.488 119.488 0 01-.717 6.377c-1.034 6.092-3.073 11.85-5.432 17.536-.395-.087-.83.036-1.11.502-7.491 12.524-14.321 23.883-27.53 31.202-14.03 7.775-30.74 9.014-45.791 13.984-22.859 7.546-44.019 21.587-51.448 45.604-.029.094.116.129.148.038 11.793-33.633 46.926-42.09 77.797-49.077 12.867-2.912 26.822-8.83 36.603-18.403-6.598 8.151-15.196 14.901-26.13 19.758-24.301 10.796-51.422 13.575-67.855 36.835-.034.049.046.094.081.045 20.071-28.407 61.51-23.846 87.719-43.502 9.632-7.222 18.038-17.512 23.455-29.042-3.148 8.404-7.898 16.195-14.416 22.888-15.33 15.74-36.941 23.219-57.479 29.295-.17.051-.097.309.075.265 22.118-5.746 45.574-12.132 62.112-29.002 4.039-4.12 7.524-8.723 10.439-13.651-6.021 15.087-16.698 28.072-31.95 35.38-.109.052-.026.241.084.194 16.01-6.736 27.887-18.895 35.947-34.207 2.456-4.667 5.364-11.094 7.307-17.831-.678 6.249-2.189 12.41-4.725 18.341-5.488 12.839-15.09 23.783-27 31.013-13.544 8.221-29.389 10.019-44.294 14.511-23.917 7.209-41.814 25.349-47.914 49.75-.024.096.12.133.148.038 4.317-15.389 14.49-28.905 27.933-37.498 13.65-8.725 29.744-10.608 45.034-14.817 13.446-3.702 25.653-9.981 35.432-20.104 1.748-1.81 3.361-3.746 4.903-5.74-3.255 6.759-7.112 13.176-12.264 19.138-17.137 13.847-37.68 22.949-51.954 40.253-.038.046.028.109.065.064 16.394-19.28 41.801-26.982 60.243-43.757a70.326 70.326 0 0021.466-37.448 273.448 273.448 0 01-1.226 14.727c-.017.142.203.157.241.03 11.075-38.614-1.051-85.445-27.102-117.123l.007-.01zm-53.549 43.102c-.074.339-.148.66-.217.925a42.33 42.33 0 01-1.426 4.407c.555-1.809.99-3.648 1.318-5.502.108.057.208.129.323.169l.002.001zm22.832-23.185c-.998-1.348-2.1-2.594-3.345-3.685.163-.063.324-.118.487-.187a18.572 18.572 0 011.906-.684c.048 1.589.353 3.134.95 4.555h.002z" fill="#13264C"/><path d="M211.476 154.105c-21.687 9.654-44.478 12.239-67.95 13.624-.116.006-.116.188.002.183 23.245-.975 47.483-1.65 68.501-12.893.623-.332.058-1.187-.553-.915v.001z" fill="#13264C"/><path d="M231.123 145.579c.347-.61-.549-1.082-.933-.521-7.982 11.696-21.329 15.18-34.267 18.668-13.45 3.627-27.075 6.399-40.845 8.452-.153.022-.114.29.038.27 16.744-2.286 33.51-5.325 49.767-10.03 10.269-2.973 20.707-7.111 26.241-16.841l-.001.002zm-122.892 18.209c-9.364.266-18.718.744-28.074 1.176-.098.004-.098.157 0 .153 9.36-.31 18.722-.575 28.076-1.054.177-.009.176-.28-.002-.275zm12.358 5.782c-10.518-.632-21.042-.219-31.495 1.107-.096.013-.098.162 0 .152 10.507-.862 20.964-1.115 31.498-.89.237.005.23-.355-.002-.368l-.001-.001zm-19.481 5.294c14.784-.994 29.148-.626 43.841 1.308.151.021.218-.207.061-.237-14.462-2.676-29.309-3.146-43.904-1.224-.095.011-.099.16.001.152l.001.001zm12.291 3.053c-.077.009-.078.128.001.123 14.666-.806 28.927.139 43.469 2.061.323.043.464-.433.13-.504-14.329-3.047-29.063-3.342-43.6-1.68zm5.1 16.441c-16.1 2.487-31.805 6.619-47.22 11.897-.073.025-.041.142.034.118 15.505-5.083 31.248-8.769 47.302-11.603.273-.048.15-.453-.116-.412zm19.245 3.349c-16.352 1.279-32.387 4.482-48.12 9.123-.075.022-.043.137.034.117 15.859-4.09 31.826-6.793 48.09-8.629.384-.043.391-.643-.004-.613v.002zm19.597 3.422c-17.179-.514-33.832 2.193-50.171 7.486-.075.025-.043.14.034.118 16.399-4.934 33.048-7.114 50.138-7.236.238-.001.233-.36-.001-.368zm18.617 1.684c-16.463.314-32.599 2.99-48.497 7.239-.076.02-.044.137.033.118 15.96-3.953 32.079-6.025 48.467-7.021.215-.014.215-.34-.002-.338l-.001.002zm14.828-2.247c.374-.226.034-.773-.347-.576-8.018 4.139-16.428 4.707-25.146 6.1-8.774 1.402-17.361 3.535-25.796 6.337-.093.032-.054.174.041.147 10.886-2.927 21.674-4.939 32.823-6.573 6.539-.957 12.685-1.963 18.424-5.434l.001-.001zm14.044-.206c-16.322 3.754-32.475 8.495-48.59 13.051-.057.018-.032.102.025.088 16.274-3.965 32.667-7.784 48.73-12.55.38-.112.216-.677-.165-.589z" fill="#13264C"/></svg>