<svg width="984" height="372" fill="none" xmlns="http://www.w3.org/2000/svg"><path d="M773.063 88.883c1.896-1.255 3.416-3.22 3.566-5.595.254-4.037-4.17-7.971-7.77-5.346-.2.146-.086.508.177.428 3.043-.953 5.22 3.28 3.673 5.695-.72 1.124-1.806 1.798-3.03 2.223-1.143.396-2.389.356-3.386 1.11-.893.675-.887 1.791 0 2.466 1.88 1.432 5.013.186 6.77-.974v-.007zm-35.246-9.825c-1.876.525-3.06 1.532-4.21 3.123-2.516 3.486 2.497 8.616 5.903 6.038 1.554-1.176 2.54-2.386 3.05-4.306.774-2.904-1.903-5.646-4.746-4.855h.003zm-37.865 9.384c-.923.854-1.68 1.508-2.133 2.708-.384 1.01.793 2.21 1.78 1.82 1.173-.461 1.816-1.239 2.653-2.18 1.407-1.588-.743-3.784-2.297-2.348h-.003zm-20.516 6.316c-.107-.043-.177.136-.077.19 12.223 6.805 14.72 19.773 9.27 32.144-.403.917.737 1.602 1.313.788 8.4-11.846 1.91-27.875-10.506-33.122zM633.564 60.7c-.893.106-2.033-.23-2.853.259-.663.399-1.067 1.223-.787 1.98.297.801.834 1.196 1.654 1.286 1.413.156 2.9-.332 4.146-1.11 1.08 1.18 3.19 1.519 4.257-.282C663.08 23.817 581.849 3.216 558.49 2.737c-.166-.003-.16.246 0 .26 19.236 1.637 98.193 23.531 76.981 57.128-.66.282-1.323.505-1.907.575zm36.472-28.53c-1.216-3.216-4.359-5.26-7.529-5.35-1.257-.843-3.084-.903-4.557-.345-2.556.967-4.136 3.662-4.55 6.313-.836 5.38 2.837 11.235 8.563 10.826 5.273-.376 10.13-6.008 8.073-11.44v-.004zm-6.573 7.294c-2.863 1.02-5.456-.675-6.07-3.635-.26-1.26-.179-2.642.407-3.798.37-.731 2.397-2.908 3.273-1.602.967 1.439 2.754.691 2.87-.807 1.037.491 1.95 1.236 2.587 2.22 1.943 2.996 0 6.529-3.067 7.622zm167.821 76.098c2.16 5.177 8.933 6.941 13.526 4.034 4.447-2.814 5.127-8.975 2.033-13.112-2.323-3.107-5.299-3.422-8.446-3.063-.203-.09-.387-.21-.633-.22-1.24-.049-2.293.306-3.227.841-1.8.316-3.593.578-5.29.412-.46-.046-.543.704-.106.817 1.133.293 2.27.393 3.406.446-2.03 2.625-2.543 6.778-1.263 9.848v-.003zm7.756-9.214c.11-.123.124-.269.197-.402 3.58.459 6.276 3.708 4.76 7.426-1.19 2.921-5.583 3.346-7.393.748-1.877-2.688.696-5.858 2.44-7.775l-.004.003zm-39.875-82.844c-2.693-.216-4.75 1.496-6.316 3.55-2.727 3.575-5.73 9.818-1.46 13.463 3.923 3.35 10.096.455 11.873-3.914 1.126-2.775.61-5.58-1.007-7.623a1.88 1.88 0 00.74-1.339c.213-2.23-1.77-3.97-3.826-4.137h-.004zm1.013 10.53c-.676 1.632-3.643 4.197-5.489 2.692-1.424-1.16.56-4.194 1.303-5.31.913-1.369 2.053-2.841 3.607-2.615.943 1.555 1.279 3.535.576 5.233h.003zm17.923 28.068c-2.586.601-4.693 2.894-5.04 5.649-.483 3.844 2.767 6.575 6.297 6.758 3.643.186 6.853-2.522 6.939-6.343.084-3.655-2.656-7.682-6.459-7.755-1.054-.02-1.66.814-1.737 1.694v-.003zm4.643 5.851c.057 1.918-1.44 3.037-3.18 3.197-1.86.17-3.739-.894-4.219-2.811-.564-2.246.883-4.546 2.869-5.406.17.498.53.933 1.147 1.096 1.883.505 3.32 1.774 3.383 3.924zM656.06 219.07c-2.716-1.435-7.63-1.269-9.523 1.585-2.55 3.848 2.083 8.061 5.07 9.792 3.166 1.831 7.66 1.592 8.633-2.661.757-3.31-1.453-5.752-4.2-6.799.643-.432.84-1.478.02-1.91v-.007zm2.367 8.201c-1.22 3.911-5.423 1.478-7.387-.279-1.61-1.443-4.203-4.49-1.04-5.649 1.53-.562 3.227-.223 4.83-.166 2.263 1.173 4.463 3.316 3.597 6.094z" fill="#2B3C5E"/><path d="M539.138 281.525c0 .336.496.332.506 0 .574-16.285 11.357-31.733 23.013-42.239 5.033-4.539 10.953-8.35 17.553-9.902-7.78 6.945-13.897 17.322-17.433 25.416-8.177 18.707-8.407 38.454-1.84 57.64.213.625 1.153.376.98-.276-6.757-25.445 1.84-70.031 29.352-81.69-22.139 23.133-23.136 63.472-11.333 91.689.113.269.564.076.464-.2-6.494-17.78-7.63-37.55-1.594-55.716 4.473-13.464 12.05-22.951 20.493-32.766-8.067 12.587-11.033 30.649-12.423 43.754-2.407 22.692 1.963 43.034 16.829 60.279.24.279.617-.123.394-.405-15.416-19.499-15.46-44.795-10.58-68.234 3.1-14.876 9.51-26.047 16.409-38.664.6.957 1.11 1.957 1.537 2.991-27.472 36.052-12.236 89.901 19.393 117.105.173.149.42-.097.25-.256-14.206-13.607-24.173-30.995-27.776-50.696-4.053-22.169 2.03-40.352 10.076-59.923 1.127 4.449 2.134 8.915 5.154 12.371-6.384 8.489-3.02 22.542-.857 31.822.07.296.493.166.44-.123-1.127-6.353-1.947-12.64-1.097-19.083.527-4.007 1.96-7.323 3.46-10.802 1.097.861 2.3 1.545 3.58 2.04-4.846 12.368-1.783 27.194 3.28 38.923.103.239.51.07.416-.179-4.829-13.208-3.016-24.818-.809-37.97.716.11 1.439.16 2.166.157-6.503 19.837 5.58 43.415 13.623 60.846.147.316.683.09.557-.239-3.74-9.623-6.91-19.531-8.743-29.732-2.014-11.221-.72-20.947-.52-31.822a9.833 9.833 0 001.496-.768c-.336 4.958.407 10.307.997 14.394 2.846 19.681 10.873 35.763 22.229 51.66.057.079.187.006.13-.08-10.396-16.043-26.519-54.696-13.716-73.404.22.392.57.695.993.808-4.5 10.011.327 27.924 2.977 36.125 6.23 19.292 17.692 37.614 33.282 50.297.283.233.82-.077.557-.439-14.393-20.096-28.606-42.315-30.553-66.857.364 1.106.73 2.199 1.084 3.263 6.273 18.8 18.012 33.291 29.259 49.047.226.319.75.02.526-.315-4.346-6.506-17.016-25.775-24.209-43.416.27.266.527.548.82.778 3.827 2.98 8.94 1.169 10.246-3.539.88-3.177-.546-6.29-2.913-8.254.047-.036.077-.086.12-.126 3.137 2.07 6.273 4.14 9.406 6.21.134.216.28.419.414.635.53.86 1.353 1.292 2.226 1.432 1.094 2.203 2.464 4.193 4.184 5.582 2.119 12.956 12.556 25.456 20.952 34.753.27.299.673-.136.43-.439-4.503-5.698-8.26-11.756-11.423-18.328-2.196-4.562-3.616-9.526-5.64-14.158 1.37.083 2.804-.216 4.224-.718 4.373 17.67 18.079 32.563 30.652 44.625.286.272.713-.163.43-.442-13.453-13.255-19.47-29.27-27.583-45.805a38.163 38.163 0 002.474-1.528c9.276 25.173 27.392 40.897 47.101 58.67.324.289.737-.146.467-.478-7.916-9.779-17.586-17.78-25.609-27.436-8.276-9.962-14.093-21.196-18.769-33.205.383-.342.75-.698 1.1-1.067 7.996 30.367 41.785 53.182 65.547 68.699.224.146.417-.206.207-.359-14.886-10.739-30.472-22.651-42.242-36.999-13.759-16.78-18.606-34.707-21.413-55.903-.083-.624-.583-.907-1.116-.953-.1-6.868 2.29-13.394 9.956-15.205.63-.15.463-1.1-.15-1.123-7.983-.303-13.073 6.11-14.283 13.786-.673 4.27 1.43 11.015 1.78 16.381.014.422.034.841.057 1.259.01 1.695-.19 3.22-.817 4.397-.223.422-.613.91-1.083 1.418-1.23-.937-3.373-.049-2.823 1.845.05.169.11.325.16.491-1.36 1-2.813 1.841-3.95 2.147-4.133 1.116-6.653-.791-8.643-3.536 0-.737-.217-1.485-.753-2.126-.237-.286-.477-.568-.714-.854-.966-2.064-2.043-3.968-3.183-5.798-1.957-8.783-7.193-16.893-15.393-20.592-3.82-1.724-13.933-2.621-17.579 1.253a2.245 2.245 0 00-1.32-.076c-.127.029-.227.083-.35.119 1.357-2.133 3.053-3.868 5.643-4.615.39-.113.307-.701-.093-.715-5.613-.179-2.914-.578-5.003.167-13.777 4.904 5.719 1.452-6.027 7.556-20.936 10.878-17.649-9.962-25.226-18.767a38.387 38.387 0 00-1.58-1.718c-.056-.067-.12-.12-.183-.18-8.186-8.247-14.929-6.147-22.436-3.21-5.75-.169-11.713 1.449-17.076 4.124-.49-.02-.983-.047-1.487-.096-.313-.03-.379.495-.073.561.16.033.334.047.497.073-3.283 1.748-6.317 3.871-8.883 6.201-14.176 12.869-23.066 31.443-23.253 50.755h.004zm125.025-16.414c1.23 1.425 2.493 2.997 2.653 4.847.22 2.536-1.733 4.998-4.136 3.121-3.053-2.38-3.153-9.696 1.483-7.972v.004zm-9.269-3.533c.073.525.14 1.044.236 1.595.14.785.534 1.353 1.054 1.731a8.634 8.634 0 00-.394 1.562c-.483-1.708-.913-3.389-1.213-4.991.103.037.21.073.317.103zm-131.896-71.287c3.033 1.31 6.517-.388 7.433-3.651.294-1.047.474-2.17.404-3.26-.134-2.117-1.174-3.921-3.137-4.768-1.816-.784-4.18-.455-5.573 1.08-.723.797-1.347 1.611-1.76 2.608-1.283 3.087-.697 6.553 2.633 7.991zm-87.07 24.815l.417-.356c2.72-2.319-1.23-6.419-3.917-4.004l-.407.369c-2.693 2.423 1.207 6.294 3.907 3.994v-.003zm-22.789 6.852c1.523-.226 1.17-2.855-.364-2.755-2.403.156-5.726-.259-7.699 1.356-.534.438-.36 1.452.22 1.754 2.24 1.16 5.493-.007 7.843-.355zM512.995 6.794c14.54 3.197 34.672 15.707 37.096 31.756.133.877 1.4.601 1.446-.2.494-8.698-5.126-15.101-11.769-19.82-8.067-5.728-16.896-10.736-26.753-11.889-.086-.01-.103.133-.02.153z" fill="#2B3C5E"/><path d="M544.078 17.274c2.673 3.177 3.153 6.805 4.906 10.387.303.618 1.353.492 1.483-.2.797-4.186-2.143-8.871-4.77-11.848-3.146-3.569-6.916-5.56-11.609-5.705-.123-.004-.127.162-.027.202 3.663 1.555 7.42 4.074 10.017 7.158v.006z" fill="#2B3C5E"/><path d="M581.099 28.774C571.656 17.816 560.21 6.867 546.087 3.94c7.823.628 15.64 1.528 23.433 2.798.19.03.277-.256.08-.3-39.009-9.08-79.307-8.024-118.403-.156-6.353.23-12.749 1.253-18.829 2.393-1 .186-.743 1.784.237 1.784.13 0 .263-.01.393-.01-43.512 11.188-79.97 32.47-113.513 62.741-9.373 8.46-18.462 17.215-27.462 26.07-32.642 26.569-65.641 52.461-100.583 75.956-20.403 13.72-41.289 26.752-62.708 38.75-22.586 12.653-46.158 23.619-71.984 26.672-.287.033-.297.495 0 .469 24.093-2.223 46.575-11.364 67.964-22.505 22.58-11.763 44.542-24.935 66.015-38.681 24.012-15.371 47.618-31.915 70.174-49.779-13.356 13.162-26.916 26.111-41.255 38.226-37.792 31.922-78.994 58.454-123.756 78.893-.883.402-.24 1.997.663 1.614 73.808-31.24 131.829-83.867 188.844-139.031 9.216-8.048 18.209-16.338 26.879-24.938.316-.312.276-.651.123-.934 15.013-13.713 30.549-26.147 47.178-36.816-.116.146-.246.282-.36.429-.606.8.34 1.854 1.114 1.14 18.759-17.339 45.861-17.445 68.161-9.447.186.066.263-.23.08-.3-12.113-4.665-23.926-8.934-36.989-6.592a97.002 97.002 0 00-10.993 2.625c11.806-6.104 24.199-11.337 37.395-15.48 4.31-1.353 8.647-2.602 12.993-3.802a25.887 25.887 0 00-2.44 1.814c-1.156.97.327 2.811 1.57 2.08 14-8.25 40.505-.02 54.238 7.011.32.163.59-.299.284-.491-10.817-6.805-22.023-10.188-34.466-12.504-2.693-.502-5.093-.854-7.356-.97a364.082 364.082 0 0115.452-3.373c2.55.133 5.09.432 7.617 1.037 10.703 2.568 20.723 8.42 29.996 14.281.17.107.313-.156.153-.269-9.357-6.655-18.466-13.637-29.619-16.55 23.349-4.001 47.025-5.606 70.671-4.427-.52.37-.404 1.316.393 1.383 18.003 1.458 30.259 12.922 43.452 24.223.123.106.29-.057.18-.183l-.004-.017zm56.452-16.866c-1.05-.505-1.943-.133-2.433.552-1.664-.2-3.18 1.08-3.654 2.824-.596 2.193.76 4.343 2.854 4.957 4.979 1.466 7.959-6.057 3.23-8.33l.003-.003zm-2.473 2.84c.136.204.3.4.523.576.813.628.837 2.057-.453 1.85-1.617-.255-.944-1.548-.07-2.425zm22.809 48.361c0 2.568 2.12 4.738 4.633 4.738s4.633-2.176 4.633-4.738c0-2.562-2.12-4.739-4.633-4.739s-4.633 2.177-4.633 4.739z" fill="#2B3C5E"/><path d="M488.493 42.737c5.486 0 5.496-8.723 0-8.723-5.497 0-5.497 8.723 0 8.723zm35.759-.804l.339.04c1.894.222 1.897-3.234 0-3.011l-.339.04a1.468 1.468 0 000 2.93z" fill="#2B3C5E"/><path d="M780.336 165.194c1.84-.963 3.213-2.684 3.28-5.05.1-3.705-3.04-6.114-6.23-7.493 1.01-.648.83-2.293-.13-2.878-1.367-.834-3.18-.893-4.9-.438-1.93-3.831-4.226-7.36-5.803-11.407-.95-2.439-1.3-5.476-2.207-8.058.43.143.927.076 1.354-.342.796-.788 1.5-1.645 2.163-2.536 1.073.645 2.096 1.439 3.076 2.343-.683.216-1.186.974-.766 1.877 7.033 15.082 17.733 29.032 27.902 42.03 10.543 13.481 22.029 26.197 34.396 37.95 24.765 23.542 52.268 42.252 82.45 57.67.087.043.163-.086.077-.133-29.279-15.571-56.778-36.222-80.641-59.468-11.596-11.297-22.509-23.346-32.522-36.128-9.686-12.368-17.596-25.749-26.326-38.714 4.253 5.386 8.217 11.576 13.52 13.922.016.246.08.499.24.761 2.93 4.782 6.036 9.437 9.216 14.039 2.77 4.163 5.74 8.211 8.867 12.158 13.846 18.046 29.612 34.514 47.088 48.998 25.386 21.043 53.098 36.029 83.484 47.924.213.083.306-.269.093-.349-32.302-12.646-62.341-31.878-88.51-55.547a349.744 349.744 0 0017.949 13.129c28.342 19.392 60.258 33.925 93.603 41.395.207.047.294-.263.087-.326-32.299-9.895-62.934-24.027-90.863-43.432-5.874-4.08-11.437-8.42-16.843-12.895a262.27 262.27 0 009.68 5.595c38.082 20.907 80.157 33.886 120.485 49.357.404.156.557-.489.177-.652-36.769-15.64-75.341-29.908-110.11-49.871-15.139-8.696-29.572-18.854-41.998-31.317-12.353-12.391-19.813-26.995-29.402-41.1 6.276-4.283 8.616-12.191 7.003-19.621-.494-2.276-1.367-4.246-2.393-6.094.643-.468.986-1.372.483-2.136-5.443-8.297 7.923-12.903 10.826-19.24.69-1.505 1.023-3.156 1.037-4.79 3.1-7.683-3.257-15.136-11.323-14.126-5.25.658-9.056 3.343-14.693 1.293-3.903-1.42-6.946-6.134-8.863-9.59-2.417-4.363-3.957-9.061-6.41-13.238-1.053-9.809.284-22.01-10.179-25.854-3.534-1.3-7.083-.402-9.943 1.987-2.037 1.7-3.357 4.083-4.917 6.197-2.886 3.92-5.45 3.807-9.683 5.206-.736.246-1.353 1.094-1.063 1.918l.303.864a25.01 25.01 0 00-6.383-.785c-1.667.017-4.706.898-6.193.22-.767-.35-1.16-2.47-2.203-3.004-2.35-1.203-3.544-2.376-6.46-2.32-7.99.147-15.68 9.896-20.586 15.126a1.567 1.567 0 00-.27.425c-2.54-1.804-5.45-3.007-8.266-3.077-7.653-.192-10.72 7.935-11.673 14.471-1.014 6.938 2.426 14.803-8.367 16.278-4.753.652-8.673-1.222-13.233 1.17-1.643.86-3.016 1.984-4.229 3.253-4.13-3.36-8.57-6.376-12.797-9.553-5.126-3.851-10.149-9.138-15.942-11.972 3.086-4.207 3.193-11.484 1.426-16.062-4.296-11.122-15.243-18.409-26.416-20.33-.256-.042-.356.31-.106.4 7.566 2.79 14.243 7.336 19.032 14.015 2.737 3.811 5.087 8.32 4.607 13.181-.447 4.53-3.353 6.809-6.52 9.597-.993.874-.136 2.425 1.007 2.482a9.08 9.08 0 001.666-.063c.054.18.094.362.184.528 2.183 4.044 6.386 7.463 10.689 10.3-3.193.602-6.413 2.074-8.863 3.287-.156.076-.046.335.117.286 2.12-.638 5.043-1.509 7.87-1.791-1.547 1.332-3.443 2.21-4.327 4.28-1.083 2.531-.443 5.539 1.224 7.642 3.083 3.887 9.352 4.21 12.926.81 2.226-2.116 2.89-5.24 2.233-8.084 3.133 1.552 6.39 2.874 9.74 3.808-2.907 4.114-4.964 9.058-8.113 12.982-4.067 2.682-8.493 4.463-13.123 5.742-7.273-9.367-14.89-18.491-21.683-28.234-1.806-2.588-3.463-5.39-5.096-8.234.8.39 1.623.688 2.48.785 8.579.963 11.389-8.36 10.416-15.282-1.543-10.985-9.903-18.478-18.999-23.113-.117-.06-.217.113-.104.18 6.52 3.81 16.466 14.041 14.74 22.933-3.237 16.654-12.233 4.034-15.99.3-6.453-6.417-12.783-13.784-20.582-18.562-3.14-1.92-7.027-3.854-10.803-3.622 1.376-2.352 3.033-4.791 2.446-7.639-1.11-5.363-6.683-7.802-11.239-9.001-.424-.11-.557.488-.177.651 5.36 2.29 8.593 7.745 5.16 13.019-1.853 2.847-3.613 5.32-3.983 8.765-1.104 2.386-1.854 4.998-3.764 6.902-1.776-1.153-4.433-.954-5.933.601.44-1.538.69-3.243.634-5.163-.394-13.567-13.077-28.434-26.956-27.736-.533.027-.597.731-.12.917 9.19 3.635 17.016 8.002 20.736 18.003 2.373 6.383 2.99 15.378-5.693 17.189-4.413.92-9.273-1.794-13.633-3.09-2.093-3.722-5.247-6.666-8.903-8.959a.896.896 0 00.336-.687c.067-3.552-2.946-7.354-5.469-9.53-2.73-2.36-6.237-4.11-9.873-3.97-.447.016-.494.61-.1.764 3.22 1.269 6.169 2.618 8.676 5.123 2.167 2.167 3.037 4.655 4.45 7.144-4.387-2.379-9.283-3.95-13.813-4.904-.49-.103-.65.568-.203.75a44.806 44.806 0 0114.579 8.686c9.627 7.045 7.27 14.275-7.066 21.692-4.327-.422-10.56-5.61-14.58-7.71-4.466-2.332-10.159-4.698-15.886-6.037 1.26-2.05 1.45-3.894.69-6.266-1.973-6.154-7.523-10.271-13.389-11.97-.547-.159-.737.652-.23.852 5.366 2.13 11.626 7.539 9.883 13.872-.277 1.007-.737 1.884-1.27 2.715-2.684-.346-5.31-.422-7.747-.047-2.566.396-4.733 1.34-6.746 2.506 1.113-11.37-3.967-23.672-12.78-30.53-.166-.13-.343.14-.216.286 5.913 6.612 9.966 14.278 10.436 23.385.17 3.3-.223 6.297-.963 9.161-.31.223-.627.442-.937.668 1.68-13.002-7.37-28.293-18.346-34.387-.133-.073-.3.12-.17.222 12.523 9.932 18.896 23.619 14.336 37.053-.433.276-.853.565-1.303.824.783-3.346.903-6.895.36-10.307-1.78-11.172-10.223-19.681-19.526-24.958-.097-.053-.217.087-.123.163 11.273 9.051 20.946 23.392 16.366 36.527-.14.057-.277.117-.42.173a2.28 2.28 0 00-1.347-.292c3.463-7.952.41-18.173-8.26-22.555-.16-.08-.293.146-.14.245 8.847 5.709 10.067 16.262 4.74 23.808a40.52 40.52 0 01-4.546.336c8.716-7.64.246-22.213-9.947-21.977-.423.01-.56.718-.103.79 4.567.732 8.65 3.074 10.493 7.62 1.917 4.732.283 8.642-1.74 12.939-.12.252-.07.472.03.658-3.603.05-6.99.14-10.946 1.894-1.137-7.912-2.05-14.69 2.4-16.07.376-.116.316-.717-.094-.714-15.709.14-6.199 14.401-5.903 25.393-.483 1.409-.633 2.811-.46 4.143-1.263 4.526-5.433 7.879-15.919 8.337-2.713.12-9.063-2.874-12.103-3.216-3.75-.422-7.75-.08-11.456.26-13.393 1.225-26.103 5.442-38.332 10.931-.26.116-.074.578.196.475 8.893-3.372 17.75-6.363 26.789-7.645a229.938 229.938 0 00-6.413 4.402 49.788 49.788 0 00-3.946 2.629c-10.94-1.575-25.139 6.592-34.779 10.672-15.636 6.619-30.352 14.846-41.685 27.905-.893 1.03.46 2.402 1.47 1.505 10.736-9.496 21.939-17.464 34.652-23.917 9.883-5.018 27.366-15.647 39.712-15.714a65.76 65.76 0 00-4.297 3.566c-25.779 20.312-48.258 47.07-60.688 77.474-.08.196.224.309.324.139 3.25-5.353 6.513-10.626 9.866-15.813-10.436 22.083-16.206 46.735-19.266 70.819-.053.418.193.654.493.787-8.059 7.094-15.199 15.245-21.349 24.143 12-40.282 18.03-88.007 47.992-118.118.256-.259-.127-.648-.394-.402-16.196 14.83-24.942 33.58-32.252 54.195-8.196 23.123-16.796 47.725-20.432 72.19-3.427 5.736-6.41 11.743-9.027 17.917 9.827-41.914 21.06-83.309 37.686-123.119.126-.299-.297-.568-.437-.263-20.416 44.509-36.815 91.025-43.158 139.999a148.04 148.04 0 00-2.487 9.776c1.66-19.468 3.773-38.767 8.03-58.006 5.3-23.934 13.723-46.469 22.166-69.36.123-.335-.387-.538-.557-.239-24.299 42.581-37.245 98.198-33.469 147.418.043.585.41.871.817.991-.17 2.442-.304 4.884-.347 7.326-.023 1.396 1.947 1.336 2.08 0 4.64-46.203 25.349-83.774 58.865-114.489.15-.137-.047-.399-.217-.286-4.187 2.748-8.16 5.795-11.963 9.038 7.8-28.962 12.866-58.265 26.696-84.193 4.6-6.323 9.496-12.447 14.919-18.275a222.146 222.146 0 015.823-6.021c-10.429 13.879-18.096 27.566-21.399 45.177-.073.392.457.548.587.166 2.906-8.613 5.32-17.299 10.049-25.121 3.257-5.382 7.184-10.307 11.183-15.145-.04.512.13 1.004.454 1.416-11.22 18.471-16.566 40.704-14.477 62.362.041.428.637.442.66 0 1.174-24.097 7.19-44.725 19.01-64.176 4.156-4.951 8.363-9.856 12.666-14.671.127-.126.26-.245.387-.368-7.813 11.37-12.983 23.668-17.08 36.856-.02.063.077.09.097.026 4.203-12.845 11-25.073 19.009-35.829 3.983-5.35 8.483-9.885 13.103-14.285-3.186 3.964-5.946 8.281-8.31 12.228-7.363 12.298-15.872 26.473-15.819 41.352 0 .116.17.143.2.027 2.85-10.879 6.823-20.386 12.01-29.829-5.574 15.597-6.104 33.015-1.804 49.3.077.296.487.166.44-.123-3.256-21.133.437-40.259 9.38-58.152-4.587 15.126-3.943 32.67.047 46.376.05.176.313.103.27-.076-3.114-12.241-2.947-25.546.113-37.777 1.56-6.243 4.02-11.573 6.86-16.707-7.717 18.355-5.9 42.027 2.203 58.694.05.103.23.03.187-.08a77.801 77.801 0 01-4.697-38.375c.76-5.834 2.337-11.038 4.363-16.012-2.996 18.85 2.364 39.734 13.166 54.248.127.166.4.019.287-.17-7.053-11.454-11.279-24.286-11.729-37.863-.347-10.457 1.866-19.631 5.106-28.985-5.236 22.187-.253 47.978 11.923 66.566-33.099 15.142-64.451 35.012-93.06 55.171-.507.359-.07 1.146.487.851 69.454-36.923 135.901-74.61 214.819-80.302 16.516 3.187 30.462 10.37 46.045 17.411 5.583 2.522 12.333 4.214 17.559 7.281 5.57 1.179 9.413 4.469 11.583 9.799-.677 2.807-8.953 1.189-18.273-1.502l-1.956-.778a3.837 3.837 0 00-1.604-.282c-10.489-3.22-21.232-7.237-23.302-7.5-1.03-.129-1.44 1.336-.807 1.994 1.98 2.063 4.457 3.751 7.187 5.18-.134.17-.254.349-.364.542a269.633 269.633 0 01-4.179-3.333c-7.927-6.489-16.227-11.214-26.51-11.447-.203-.003-.236.299-.046.356 13.419 3.98 23.086 14.719 33.052 24.133 2.733 2.582 11.853 8.443 12.796 12.055 3.54 13.52-13.796 2.505-18.036 1.479-.017-.004-.03.01-.047.006-5.683-3.612-13.279-7.41-16.989-2.608-3.056 3.951.8 12.351-8.213 11.297-4.137-.485-6.396-2.459-9.76-2.12.01-5.815-4.793-11.384-9.129-14.829-7.347-5.842-16.65-9.214-25.969-8.663-.464.027-.447.675 0 .728 11.506 1.329 31.932 8.43 32.425 22.714-1.04.213-2.006.835-2.64 2.067-.43.841-.773 1.668-1.113 2.496-2.197-10.098-14.606-14.64-23.899-15.249-.38-.023-.437.559-.087.665 8.123 2.442 19.509 5.718 20.629 16.032.36 3.336-.723 6.234-2.756 8.081-5.623 1.127-12.076-3.851-17.913-1.508-1.083-3.599-3.38-6.848-6.423-8.918-5.036-3.43-10.713-3.446-16.503-2.632-.316.043-.23.558.074.561 7.976.064 17.092 5.144 17.496 14.129.03.694-.067 1.289-.144 1.897-1.463 2.02-2.68 4.137-4.22 6.081-2.579 1.16-5.923 1.04-9.016-.292-1.377-.595-2.183 1.222-1.72 2.289.027.056.067.103.093.159-5.239-4.07-11.402-7.077-17.329-9.161-.353-.122-.49.376-.233.569 4.693 3.575 12.473 8.081 17.426 13.63-.873 1.183-1.35 2.758-.843 4.13 1.523 4.137 2.423 8.141 3.119 12.062-1.25 4.05-2.829 6.393-4.736 7.027-.027-.059-.05-.123-.077-.179-.91-1.881-2.903-1.877-4.27-.887-.893-.642-1.83-1.502-2.82-2.635-1.789-1.519-3.583-3.034-5.376-4.549-3.863-2.944-7.82-5.759-12.803-6.157-5.69-.455-8.506 1.571-12.786 1.817-.16-.402-.307-.804-.473-1.203-.454-1.096-2.297-.79-2.504.336-.043.236-.056.482-.096.718-1.167-.17-2.464-.482-3.93-.98-6.623-5.962-15.02-8.091-25.626-8.739.427-.09.847-.183 1.303-.266.414-.077.284-.691-.093-.715-2.83-.169-5.16.064-7.236.565-2.34-.249-4.597.123-6.353 1.712a6.472 6.472 0 00-.907 1.03c-3.453.415-5.563 2.422-6.66 5.16-.493.339-.96.668-1.483 1.013-7.893 5.144-12.663 4.366-16.956 1.871v-.1c0-1.595-1.757-2.475-2.987-1.874-3.643-2.661-7.386-5.884-12.939-6.994-.267-.053-.52-.05-.784-.093a2.203 2.203 0 00-.976-.306c-.604-.036-1.2-.026-1.797-.026-3.163-.183-6.166.262-9.04 1.169-15.109 4.021-28.089 17.784-35.335 33.527-.127.153-.257.322-.38.472-.203.246-.213.505-.157.747-4.889 11.145-6.909 23.16-4.766 33.335.053.255.467.202.45-.064-.95-15.45 6.376-30.825 16.583-42.059a58.539 58.539 0 00-1.857 3.977c-5.72 13.673-5.32 27.991-1.063 42.007.193.634 1.143.372.98-.276-3.344-13.168-1.48-26.918 4.843-38.887a44.613 44.613 0 016.81-9.609c-4.704 18.219 1.496 40.804 9.603 56.421.203.392.74.046.57-.343-10.953-25.013-9.917-47.256 4.699-67.515a246.16 246.16 0 013.324-1.947c1.206-.691 1.333-1.878.866-2.841 1.9-.997 3.8-2.054 5.697-3.19 3.856 1.226 7.706 3.728 11.763 7.569.033.03.056.063.086.093-12.919 30.244 1.844 59.993 22.353 83.146.49.552 1.24-.249.79-.807-9.403-11.63-18.22-25.788-21.689-40.688-1.514-6.509-1.084-12.53-.044-18.428 1.147 15.999 5.797 31.882 15.12 44.608 13.536 18.482 34.099 29.171 53.285 40.316.883.512 1.673-.874.793-1.389-16.246-9.543-32.639-20.272-44.862-35.029-6.916-8.35-10.763-17.096-13.123-26.203 5.653 9.124 12.92 17.345 19.646 23.771 20.079 19.179 43.549 30.347 69.861 37.398.633.169.9-.818.27-1-22.296-6.513-43.415-19.279-60.534-35.192-4.344-4.037-8.147-8.114-11.52-12.288a165.255 165.255 0 0014.246 12.57c26.916 21.107 58.471 29.969 90.617 38.887.38.106.536-.482.163-.601-28.169-8.972-57.301-20.971-80.847-39.462-11.01-8.646-20.803-18.774-28.469-30.659-6.156-9.543-9.18-20.552-14.563-30.314 1.537.047 3.117-.236 4.787-.944 3.75-1.591 4.8-4.07 7.066-6.655.197 2.828.923 5.689 1.983 8.024 7.174 15.82 18.486 27.852 30.659 39.688.26.252.65-.143.394-.406-6.03-6.13-28.599-35.105-25.229-49.11.68 1.767 1.456 3.429 2.009 4.798 8.62 21.259 22.263 39.089 37.919 55.364.51.528 1.26-.259.79-.807-10.379-12.102-18.466-25.935-24.626-40.721-2.736-6.573-4.143-14.016-7.109-20.395a29.323 29.323 0 01-.827-1.934c.537-.027.967-.033 1.327-.027 11.302 35.816 33.922 64.23 65.384 84.04.14.09.26-.13.127-.226-27.739-20.06-47.549-49.363-57.425-82.382 5.273 2.406 9.736 9.121 13.27 14.827 3.529 12.44 11.509 24.861 18.262 33.809 12.623 16.727 29.119 29.403 48.288 37.182.327.133.527-.396.234-.568a149.031 149.031 0 01-16.356-11.281c7.679 6.054 16.162 11.071 25.302 15.135.32.143.61-.322.28-.492-11.08-5.752-20.906-13.311-29.356-22.322a2.03 2.03 0 00-.326-.731c-6.16-9.032-12.733-17.687-17.873-27.4-1.966-3.718-3.58-7.583-5.136-11.47-2.45-7.928-4.354-15.969-7.19-23.911 3.703-.993 6.233-3.472 11.499-1.518-.016.089-.056.166-.059.265-1.92 35.242 30.265 64.619 55.738 82.791.326.232.609-.299.306-.538-14.463-11.374-27.909-24.214-37.552-40.233-7.793-12.945-10.773-26.196-14.676-40.368.89.551 1.823 1.176 2.853 1.95 4.74 3.569 8.343 9.268 13.073 12.823 1.657 20.389 20.783 38.973 34.759 50.945.423.362 1.033-.256.61-.625-8.383-7.293-14.876-17.179-19.719-27.25-3.05-6.346-4.544-13.235-6.56-19.887a14.961 14.961 0 001.616-.076c.85-.097 1.62-.273 2.36-.489 1.16 5.141 2.917 10.251 6.29 15.465 8.87 13.709 20.336 24.498 33.619 33.599.44.303.91-.362.553-.734-11.059-11.553-20.969-24.894-27.965-39.455-1.924-4-3.04-8.081-3.854-12.197 4.513 16.022 14.3 30.164 28.913 40.125 1.95 1.33 4.1.665 5.489-.814.43-.176.817-.428 1.167-.721 1.073 14.986 6.133 29.733 16.226 42.994.193.252.63-.087.44-.346-19.112-25.595-17.556-62.023-3.003-89.442 11.563-21.788 28.702-34.052 46.935-46.782.763.17 1.597.13 2.383-.223 12.056-5.366 23.993-10.958 36.246-15.826 8.379-.993 16.649-2.655 21.629-8.875 8.673-2.343 17.399-4.416 26.259-5.898a12.744 12.744 0 003.446-.495c6.047-.907 12.14-1.592 18.34-1.858 5.62-.239 11.116-.156 16.516.21 1.66 1.04 3.69 1.12 5.376.462 8.367.867 16.52 2.422 24.579 4.519.437.531 1.017.614 1.514.395 9.259 2.492 18.402 5.705 27.599 9.44.193.199.387.422.58.615.223.226.48.07.553-.16 1.993.818 3.987 1.652 5.987 2.516.576.249.98-.462.486-.851-.613-.485-1.246-.924-1.87-1.392a120.17 120.17 0 0115.79 7.795c.81.694 1.623 1.402 2.43 2.034.24.186.473-.19.31-.399a110.247 110.247 0 0114.222 10.58c4.594 4.033 8.927 8.443 12.797 13.211 2.426 2.987 6.769 7.632 7.156 11.699 2.543 3.493 1.163 5.187-4.133 5.091-3.7 3.399-6.087 3.03-7.153-1.11-6.37-7.353-7.303-15.71-15.726-21.94-4.747-3.509-9.947-5.908-15.433-6.706 0-.186-.104-.375-.307-.425-2.936-.718-6.763-.618-9.583.771l-.076.013c-.054.014-.07.06-.117.083-2.377 1.24-3.99 3.429-3.62 6.905.44 4.114 3.547 6.752 6.583 9.048 6.803 5.144 10.003 9.799 11.41 17.378-.587 1.814-2.164 3.237-4.66 3.589-4.347.615-6.627-2.977-10.15-4.622-.163-.077-.32-.067-.476-.087.65-2.259.686-4.781.18-7.004-1.474-6.459-7.153-11.311-12.76-14.079-.79-.388-1.587.572-.953 1.263 6.313 6.915 14.246 13.221 6.836 22.625-.02.026-.026.06-.047.086-2.613.329-5.856-.339-7.503-.864-1.643-.525-2.799-1.412-3.886-2.385 5.156-7.862-2.753-15.279-9.78-17.475-.593-.186-1.093.651-.616 1.083 2.126 1.947 5.233 3.812 6.606 6.417 1.073 2.04.97 4.798-.08 6.951-.733-.126-1.447.392-1.713 1.11-.17.458-.274.897-.33 1.319-1.963 1.365-4.503 1.562-6.873 1.608a2.384 2.384 0 00-1.537.02c-6.456.027-13.313-1.641-19.583.173-1.42.412-1.273 2.329 0 2.804.887.329 1.83.592 2.797.814-.43 12.943 4.693 25.865 10.986 36.82.09.159.327.017.24-.143-6.243-11.796-8.109-23.465-9.936-36.418a38.39 38.39 0 004 .532c-2.75 17.837 5.88 36.82 19.276 47.948.073.063.18-.037.107-.11-13.317-13.361-18.12-29.293-17.983-47.752.38.02.756.05 1.136.064-1.706 21.638 9.633 42.687 26.806 54.929.11.076.203-.1.103-.18-17.162-13.384-24.912-33.344-24.905-54.713.613.007 1.216 0 1.823-.003-5.936 21.545 15.146 42.857 31.099 53.487 26.502 17.657 57.958 26.253 88.077 34.889.316.09.446-.406.133-.502-24.889-7.642-50.128-15.364-72.724-28.822-10.133-6.034-20.146-12.935-27.936-21.993-6.783-7.885-9.713-15.587-11.609-24.127 4.51 8.556 12.919 15.411 20.532 21.405 15.396 12.119 32.279 19.658 50.615 25.719.283.093.397-.352.12-.452-27.682-9.902-60.018-30.33-69.291-60.003.897-.1 1.79-.246 2.67-.452 5.97 22.838 35.479 38.78 56.292 42.857.286.057.409-.388.12-.451-20.026-4.227-42.322-22.27-50.549-41.961 3.12 1.678 7.277 2.426 9.623 2.406 3.087-.026 6.563-.555 8.477-3.336.27-.395.44-.811.606-1.229.037-.057.08-.11.117-.17 2.01 6.144 11.04 8.437 16.079 5.144.697-.455 1.28-1.13 1.8-1.878.617.28 1.38.12 1.564-.767 1.316-6.386-.81-13.202-4.61-18.339-1.707-2.306-3.737-4.02-5.967-5.758-2.976-2.319-11.103-6.19-2.513-11.723 12.363 1.23 21.806 7.945 28.472 19.066 3.637 6.068 5.83 14.096 11.653 18.565 6.167 4.731 12.677 2.17 13.9-5.715 2.136-13.79-12.983-27.453-21.996-35.056-6.663-5.619-13.83-10.254-21.413-14.048-7.956-10.052-14.712-20.784-18.722-33.261-2.93-9.118-3.28-18.648-4.92-27.889.537-.146 1.076-.272 1.613-.475.597-.222 1.09-.488 1.62-.737 1.363 24.598 19.193 49.619 36.772 64.159.15.123.363-.083.217-.219-10.496-9.64-18.703-21.14-24.253-34.424-4.51-10.793-5.19-21.638-6.853-32.826a24.29 24.29 0 001.93-1.881c-.74 3.739 1.377 8.45 2.823 11.713 1.64 3.692 3.964 7.357 6.987 10.058-1.523.881-2.73 2.2-3.05 3.821-.873 4.446 3.3 10.494 7.383 11.747.9.275 1.86.348 2.807.272 24.635 37.139 58.874 69.356 97.906 90.011.087.046.16-.083.077-.133-38.136-23.476-69.948-53.108-95.067-90.712l-.013.046zM636.344 95.669c-3.826 1.482-8.849-2.526-4.833-5.951 1.493-1.273 3.267-2.45 3.193-4.407 1.17.702 2.317 1.37 3.39 1.98 2.043 2.656 1.653 7.062-1.746 8.378h-.004zM446.918 314.16a105.597 105.597 0 006.139 5.34 143.653 143.653 0 01-6.456-5.512c.1.069.21.119.317.172zm-20.683-24.495c1.733 2.941 3.6 5.792 5.603 8.539-1.89-2.395-3.73-4.848-5.466-7.406-.204-.299-.36-.618-.557-.92.143-.06.28-.137.42-.213zm104.416-88.801c.024-.08.05-.163.08-.243.007.056-.006.106.004.159-.03.024-.054.057-.084.08v.004zm12.596-.898c-.263-.166-.536-.319-.809-.475a9.254 9.254 0 00-1.647-.874c-.4-.186-.837-.335-1.25-.501 1.393.335 2.82.794 4.196 1.272a51.76 51.76 0 003.55 2.948c-1.29-.881-2.666-1.728-4.04-2.37zm7.7 5.038a263.45 263.45 0 00-1.426-1.07c.543.365 1.1.714 1.666 1.056l-.24.014zm4.437 2.279c-.027-.053-.03-.116-.06-.169l.19.076-.13.093zm11.716-14.687a36.175 36.175 0 00-2.1-2.797c.48.209.953.445 1.44.608.22.382.49.724.83 1.017.047.149.093.299.147.455-.117.249-.21.475-.32.717h.003zm3.97 5.147c-.013-.232-.033-.461.003-.754.237.153.494.259.744.382-.25.123-.497.246-.747.372zm222.262-48.462c.353.006.713 0 1.077-.03.233.937.423 1.884.703 2.808-.593-.928-1.2-1.845-1.78-2.775v-.003zm-202.71-86.18c3.337 10.111 11.337 19.857 17.5 27.938 6.2 8.13 13.103 15.384 21.019 21.694-3.423.844-6.933 1.482-10.473 2.057-10.303-18.092-20.676-35.882-30.505-54.188.823.831 1.643 1.665 2.459 2.499zm-13.509-12.583c-.193.528-.25 1.12.007 1.777 8.696 22.306 21.999 45.283 38.258 63.027-3.1.488-6.206.98-9.269 1.595-3.234-10.068-11.023-19.083-15.73-28.573-6.21-12.527-9.636-25.452-14.226-38.52.32.215.64.454.96.694zM533.981 62.58c.04-.166.034-.315.03-.465.55.017 1.097.03 1.64 0a40.633 40.633 0 00-2.973 5.759 259.91 259.91 0 001.303-5.29v-.004zm-7.396-2.336c-.37.253-.747.499-1.094.768-.033-.489-.163-.993-.24-1.489.437.263.88.499 1.334.721zm-55.818 2.961l-.22.336c0-.12 0-.24-.014-.36.08.004.154.017.23.024h.004zm-48.925 8.686c-.04.026-.084.05-.12.076l-.007-.063.13-.013h-.003zM370.64 91.402a2.463 2.463 0 00-.653-1.342c.893-.08 1.79-.14 2.687-.183-.69.479-1.36 1.004-2.034 1.525zm4.29.751c.757-.748 1.5-1.525 2.247-2.293.58.017 1.16.027 1.743.064a28.04 28.04 0 00-3.99 2.232v-.003zm14.666 73.885c-11.789-24.465-13.243-48.093-7.143-74.6.014-.056 0-.099.007-.152.23-.17.443-.34.68-.508.143-.104.247-.23.326-.366.234.033.47.07.704.106-7.15 23.34.4 51.018 13.409 70.673.22.332.7.046.527-.316-11.346-23.416-11.29-44.133-8.57-69.224.637.183 1.277.383 1.924.612-2.627 22.302 2.323 47.841 15.092 66.558a371.255 371.255 0 00-16.959 7.221l.003-.004zm19.033-8.034c-7.456-21.336-11.726-40.425-11.683-63.578.707.289 1.413.575 2.127.85-1.747 10.045 1.013 21.934 3.373 31.437 2.463 9.909 5.776 20.811 11.933 29.115-1.92.707-3.837 1.432-5.75 2.179v-.003zm7.423-2.791c-2.253-10.078-6.456-19.734-8.653-29.899-2.007-9.287-1.787-19.258-3.737-28.516 1.6.419 3.21.678 4.824.701-1.34 17.737 2.426 42.09 14.956 55.139-2.47.824-4.933 1.684-7.387 2.572l-.003.003zm9.71-3.359c-2.374-8.344-6.507-16.189-8.627-24.709-2.536-10.194-3.06-20.299-2.99-30.702 4.347-1.735 6.587-4.918 7.6-8.825l.08.016c-1.656 5.971-2.286 12.278-.96 18.352.104.468.753.419.88 0 2.097-6.892 3.817-13.733 7.393-20.037 1.144-2.013 2.69-3.93 4.223-5.864-6.773 21.405-3.873 48.801 6.513 66.648.184.312.627.1.557-.239-2.696-13.251-5.72-26.25-5.023-39.89.573-11.231 3.813-21.206 6.706-31.626.277-.18.497-.386.76-.572-9.466 22.037-5.073 51.198 6.787 70.822a278.079 278.079 0 00-23.903 6.626h.004zm24.832-6.832c-4.646-12.494-8.03-25.343-7.95-38.843.07-11.763 3.187-22.034 6.147-32.89a25.38 25.38 0 004.066-5.32c.094-.075.207-.152.307-.225-12.936 21.95-8.713 55.563 8.156 73.636.27.289.677-.076.517-.409-11.426-23.781-12.209-42.112-6.11-64.658-1.393 7.168-1.57 14.727-.283 21.007.087.415.753.425.833 0 1.044-5.619 1.967-11.32 4.16-16.61 1.783-4.31 4.423-7.786 7.067-11.404-1.587 3.558-2.89 7.37-3.88 10.726-1.59 5.386-2.784 11.882-.86 17.281.166.472.826.515.98 0 1.56-5.286 1.84-10.64 4.123-15.76 1.336-3 2.9-5.16 4.763-7.04-3.787 6.047-6.34 12.842-3.647 19.97.217.568 1.117.707 1.274 0 1.51-6.865 3.273-16.365 9.856-20.236-.457.76-.867 1.508-1.213 2.22-3.33 6.838-3.397 15.41-1.794 22.72.024.1.174.097.197 0 1.563-6.253 1.85-12.892 5.427-18.458 1.733-2.694 3.993-3.92 6.366-4.97-6.84 19.514-7.223 50.38 6.573 63.495.334.319.867-.084.637-.502-11.503-20.927-6-43.575-2.073-65.489.226-.143.446-.306.666-.465a96.581 96.581 0 003.657 1.711c.756.332 1.53.641 2.306.934-12.846 17.654-9.229 46.801 3.094 63.94-17.993-.375-35.819 1.688-53.355 5.636l-.007.003zm61.328-5.307c-2.17-.133-4.337-.226-6.5-.289-4.513-10.586-7.913-21.096-7.926-32.806-.01-10.719 3.506-20.109 5.95-30.313 1.326.385 2.676.678 4.036.844-9.69 19.142-5.806 47.615 8.297 62.608-1.284-.08-2.574-.067-3.86-.047l.003.003zm12.949 1.383c.007-.093-.04-.186-.16-.203-.633-.083-1.266-.13-1.899-.206a58.322 58.322 0 00-6-.824c-5.15-11.879-9.347-22.718-9.39-35.969-.033-9.929 2.88-18.13 5.88-26.925.157-.03.313-.043.47-.08.84-.192 1.603-.491 2.363-.79-2.07 7.12-2.62 15.055-3.146 21.93-1.247 16.318 2.946 30.762 12.732 43.233-.283-.067-.566-.107-.85-.17v.004zm2.57.604c-12.652-22.648-14.499-54.573 1.064-76.23-13.076 23.684-7.117 59.999 9.873 79.703-3.594-1.336-7.24-2.532-10.937-3.473zm28.643 10.544c-3.487-1.409-6.917-2.772-10.17-4.114a237.077 237.077 0 00-6.823-2.688c-6.446-14.036-11.686-27.41-12.19-43.12-.23-7.2.804-13.902 2.284-20.525-2.43 22.642 7.936 49.317 19.909 64.598.11.143.32-.039.24-.189-15.016-27.878-20.406-57.753-6.486-86.422 1.623-1.07 3.029-2.469 4.029-4.283 0 .07-.016.13-.016.2 0 .135.02.268.02.405-20.703 22.093 1.823 59.614 15.089 79.201.184.273.674.117.557-.239-8.61-26.1-24.686-44.362-15.24-71.227 1.777 21.023 9.247 41.043 21.86 57.89.233.312.71.053.526-.316-10.439-20.974-14.933-42.243-13.983-65.712v-.02a14.128 14.128 0 003.367-1.468c1.12-.661 1.29-3.004 2.037-3.609a17.88 17.88 0 012.136-1.485c-3.01 23.363 10.176 47.386 25.003 63.95.496.555 1.216-.246.79-.807-15.363-20.243-17.223-40.75-20.603-64.804 1.1-.07 2.187 0 3.26.275-.547.402-.91 1.037-.797 1.987 1.563 13.033 6.743 25.912 12.473 37.604 4.88 9.959 11.563 23.582 21.149 29.942-4.12.887-8.163 2.017-12.003 3.698-14.946 6.549-27.552 17.408-36.412 31.281l-.006-.003zm38.572 26.419c-.024-.023-.05-.043-.074-.066.057-.123.14-.24.184-.366.036.106.06.219.1.322l-.21.11zm11.399-16.853c-.083-.196-.166-.419-.25-.608.304-.16.677-.239 1-.372-.263.305-.503.651-.75.983v-.003zm67.441-10.297c-.673-.555-1.486-.854-2.346-.947-.01-.1-.047-.196-.064-.299 1.09.126 2.2.162 3.357-.01-.357.365-.69.767-.947 1.252v.004zm7.557-2.243a5.409 5.409 0 00-2.024-.642 14.13 14.13 0 002.307-1.604c-.09.747-.203 1.495-.283 2.242v.004zm26.992-23.785c-.28-.06-.57-.053-.857-.07a36.927 36.927 0 011.694-.863c-.284.309-.577.611-.837.933zm2.233 45.742c.074-.18.177-.343.23-.529.11.127.207.26.32.386.107.123.234.199.35.305-.3-.053-.596-.112-.896-.162h-.004zm5.237.977c1.023-.316 1.97-.918 2.643-1.715.383.871.813 1.734 1.22 2.598a124.954 124.954 0 00-3.863-.883zm8.359 2.06c-3.626-9.945-5.276-19.96-5.119-30.184.466 11.812 4.229 24.113 11.529 32.181-2.11-.728-4.25-1.389-6.41-1.997zm-3.056-51.357c.62.166 1.213.362 1.77.591-.68.409-1.247 1-1.503 1.781-.184.562-.327 1.163-.49 1.745.113-.578.186-1.153.31-1.735a4.787 4.787 0 00-.09-2.386l.003.004zm14.963 55.407c-4.503-8.995-7.987-17.302-8.557-27.908-.43-7.995 1.21-15.963.27-23.857 1.557 1.269 3.06 2.678 4.77 4.03.353.279.727.522 1.09.781-7.026 16.886 2.017 37.68 13.143 52.025a102.737 102.737 0 00-10.716-5.071zm32.942 15.584c-4.337-1.947-8.813-3.612-13.396-5.047a95.687 95.687 0 00-5.197-3.356c-5.133-8.041-8.78-17.182-10.689-26.519-1.727-8.43-.584-16.744-1.494-25.034 1.34.561 2.714.97 4.12 1.216-1.306 20.575 12.093 44 26.659 58.74h-.003zm-5.29-65.897c-.153-.273-.253-.592-.437-.844a1.348 1.348 0 00-.99-.555c9.427-13.016.48-31.889-9.076-43.107-.173-.206-.447.09-.287.293 9.153 11.739 14.073 26.256 7.66 39.076.33-7.091-4.2-15.531-7.636-21.894-.21-.389-.807-.123-.697.299.927 3.535 2.307 7.333 2.827 10.942 1.35 9.343-2.154 14.185-7.033 15.298l-.02-.08c-.654-2.236-3.88-2.306-4.504 0-.01.04-.013.08-.023.12-2.173-.416-4.406-1.386-6.476-2.904-4.494-3.297-7.47-7.414-12.967-9.012-8.143-2.366-17.346 1.057-20.915 9.041a1.691 1.691 0 00.486 1.997c-.306.266-.613.532-.86.888a37.158 37.158 0 00-1.76 2.787c-.336.047-.663.054-1.01.18h-.006c-.347-.339-.754-.618-1.184-.871 10.363-11.633-2.69-29.513-10.149-39.172-.194-.252-.624.083-.44.346 8.393 12.088 13.319 24.439 6.469 38.019-1.036.163-2.033.591-2.849 1.379-.277.266-.517.541-.777.811a6.286 6.286 0 00-3.313-.515c-.697-8.67-6.503-16.548-14.236-20.675-.194-.103-.437.173-.247.326 5.633 4.555 9.523 11.802 9.696 19.235.094 3.984-.736 8.493-3.473 11.524-4.33 4.795-8.54 2.944-13.429.508a53.267 53.267 0 00-2.71-1.259c-4.66-3.506-10.11-4.762-15.12-.907.763-4.772 2.107-8.736 6.727-9.284.876-.103 1.21-1.422.223-1.681-3.837-1.007-6.843.186-9.27 3.595-1.503 2.113-2.066 4.555-2.563 7.071-.243 1.236-.307 3.708-.673 4.711.306 2.871-1.174 4.456-4.434 4.755-2.163 2.629-4.306 2.918-6.426.868-5.023-.941-8.186-2.506-13.323-.343-3.21 1.353-5.513 3.436-7.203 6.144-7.616-.04-15.859 1.535-19.546 8.59-1.423 2.721-1.526 4.818-.97 6.562-.42-.355-.803-.704-1.293-1.077-8.653-6.559-19.809-11.516-30.579-15.916 14.399-15.657 31.406-27.482 52.292-32.104 9.896-2.19 20.242-2.951 28.458-8.121.194.076.407.119.64.073 5.487-1.024 8.52-4.31 11.747-8.806 4.25-5.927 6.036-11.875 14.626-13.121 3.563-.515 7.173 1.329 10.839.658 3.99-.731 7.424-2.492 8.967-6.553 1.326-3.489-.314-7.572-.28-11.121.13-13.85 13.413-18.013 20.742-5.838.184.305.63.103.557-.24-.587-2.71-2.287-5.346-4.516-7.519 4.093-2.522 9.143-7.706 13.472-9.144 5.27-1.755 7.437 1.641 11.09 3.608 2.91 1.569 5.25.672 8.286.02 11.64-2.505 20.05 3.762 19.516 16.84-.003.123.184.186.237.067 4.06-9.434-.207-16.913-7.276-20.814 6.596-1.034 7.836-8.69 13.166-12.434 8.456-5.941 11.713 6.46 14.279 16.378a21.29 21.29 0 00-1.49-1.635c-.126-.123-.323.033-.24.19 4.893 9.316 6.383 21.69 14.11 29.256 2.356 2.306 5.17 3.988 8.433 4.45 5.863.824 16.299-4.297 19.006 2.681-.05 4.851-1.797 8.314-6.067 11.733-2.619 2.097-5.413 3.964-6.966 7.091a12.31 12.31 0 00-1.167 3.98c-3.586-3.774-7.536-7.306-10.313-11.905-.09-.146-.33-.053-.276.119 1.92 6.387 6.046 10.647 9.503 16.146 3.053 4.861 4.84 10.101 3.25 15.806-1.934 6.925-8.88 10.809-14.997 6.187-6.449-4.877-10.159-14.032-18.499-15.161 5.533-10.258 4.053-24.636-2.613-33.687-.197-.269-.567-.046-.437.263 5.65 13.693 3.247 24.525-3.186 37.188-.037.07-.04.136-.064.206l-.013-.006zm11.716 33.915c-1.643-.927-5.019-5.246-3.943-7.39.537-1.066 2.16-1.209 3.673-1.335 2.107 1.305 4.827 3.17 5.467 5.562.873 3.243-2.893 4.462-5.197 3.163z" fill="#2B3C5E"/><path d="M551.227 261.087c-6.576 17.624-8.546 37.411-1.473 55.254.237.602 1.157.386.98-.276-4.947-18.431-6.22-36.763.57-54.958.017-.047-.057-.067-.073-.02h-.004z" fill="#2B3C5E"/><path d="M541.844 281.239c-2.556 22.034 1.88 44.725 15.803 62.259.417.525 1.283-.159.917-.724-11.947-18.388-18.923-39.216-16.593-61.538.007-.083-.117-.083-.127 0v.003z" fill="#2B3C5E"/><path d="M535.511 300.608c3.03 25.263 16.763 49.499 36.156 65.322.609.499 1.486-.339.88-.9-19.103-17.637-30.876-38.903-36.736-64.465-.037-.167-.32-.137-.3.043zm77.911 7.24c-.04-.106-.204-.066-.17.05 6.526 23.652 24.339 44.386 46.511 53.892.637.273 1.074-.814.47-1.14-21.976-11.739-37.642-29.213-46.808-52.802h-.003zm84.443 62.694c-22.675-8.107-40.888-19.564-58.977-35.62-.064-.056-.144.027-.091.093 14.757 17.657 36.796 31.098 58.682 36.956.91.243 1.256-1.116.383-1.425l.003-.004zm-385.279-72.609c4.25 13.733 9.566 27.396 17.322 39.488.367.571 1.214.07.897-.538-6.646-12.8-13.056-25.353-17.806-39.066-.09-.266-.5-.157-.417.116h.004zm38.822 58.012c-9.35-11.39-16.953-22.727-22.006-36.779-.034-.094-.174-.057-.147.039 3.83 13.936 10.896 27.609 21.506 37.402.443.408 1.02-.203.647-.662zm-72.415-235.339c.057-.063-.029-.149-.089-.093-31.453 31.38-65.125 60.232-102.014 84.728-36.982 24.558-76.317 44.063-117.165 60.873-.577.236-.35 1.193.263.977 82.27-28.799 160.051-81.216 219.005-146.485z" fill="#2B3C5E"/><path d="M246.815 162.247C178.187 217.12 100.61 255.501 18.286 283.486c-.617.209-.367 1.176.27 1 83.337-22.871 161.298-67.29 228.439-122.056.126-.106-.054-.286-.18-.183z" fill="#2B3C5E"/><path d="M220.889 189.67C153.741 238.561 79.044 273.846.26 298.073c-.453.139-.267.847.197.727 79.46-21.119 154.381-59.514 220.575-108.881.144-.106.007-.352-.14-.246l-.003-.003z" fill="#2B3C5E"/><path d="M201.443 215.88c-61.515 40.435-128.066 68.961-197.56 91.476-.45.147-.266.844.197.725 70.184-18.212 137.052-51.696 197.403-92.134.04-.027 0-.093-.037-.067h-.003zM59.441 312.437c-.366.189-.046.738.32.561 42.242-20.588 81.604-45.721 119.373-73.878.08-.06 0-.193-.077-.133-37.572 28.011-78.104 52.134-119.616 73.453v-.003zm116.063-61.455c.033-.037-.02-.093-.053-.056-22.503 25.595-48.225 46.186-75.674 65.874-.46.332-.05 1.086.45.784 28.449-17.255 53.581-41.282 75.28-66.602h-.003zm-44.829 62.757c16.093-12.516 30.219-27.499 42.922-43.541.04-.05-.03-.127-.07-.073-13.059 15.863-27.725 29.792-43.278 43.043-.307.262.11.821.43.571h-.004zm116.6-93.18c.036-.113-.13-.157-.17-.05-12.467 32.6-22.106 70.466-20.2 105.807.057 1.067 1.494 1.034 1.6 0 1.904-18.415 2.607-36.68 5.913-54.962 3.107-17.179 7.463-34.225 12.86-50.799l-.003.004zm-31.553 102.102c-.106.715.847 1.017 1.077.306 9.223-28.476 7.276-59.395 20.953-86.698.096-.193-.187-.362-.284-.17-13.539 26.26-17.442 57.494-21.746 86.565v-.003zm-11.463-7.798c10.19-19.332 15.91-41.934 21.426-63.037.054-.209-.26-.299-.316-.09-6.143 21.429-15.28 41.572-22.153 62.678-.203.628.737 1.03 1.043.452v-.003zm10.28-47.556c-6.69 16.341-15.106 31.892-21.816 48.184-.193.471.544.75.79.338 8.89-14.939 15.08-32.187 21.223-48.466.046-.126-.147-.176-.197-.056zm-8.46 2.04c-8.076 15.474-17.579 29.536-27.502 43.788-.257.372.323.83.617.488 11.156-13.022 19.966-28.523 26.995-44.209.034-.074-.07-.14-.11-.067zm-13.652 11.859c-10.93 14.467-22.463 28.413-34.016 42.359-.24.289.157.711.413.422 12.033-13.57 23.103-27.975 33.776-42.678.08-.106-.097-.209-.173-.106v.003zm-11.24 1.303c-13.316 11.31-25.419 24.492-36.469 38.092-.37.455.237 1.106.647.661 11.883-12.965 24.142-25.595 35.932-38.644.067-.076-.033-.173-.107-.109h-.003z" fill="#2B3C5E"/></svg>