<svg width="101" height="40" fill="none" xmlns="http://www.w3.org/2000/svg"><g clip-path="url(#clip0_352_145)" fill="#13264C"><path d="M44.574 27.544a7.423 7.423 0 00.515 1.642c.073.166.15.323.231.468.08.146.166.278.252.4.085.123.173.232.263.324.279-.785.498-1.588.636-2.397a12.761 12.761 0 00.18-1.855c.003-.206.002-.414-.006-.623a11.8 11.8 0 00-.175-1.559 12.252 12.252 0 01.337 2.006 12.099 12.099 0 01.034 1.216 12.81 12.81 0 01-.487 3.207 5.31 5.31 0 001.439-1.77 5.95 5.95 0 00.636-2.318c.012-.194.01-.4-.004-.611a5.84 5.84 0 00-.088-.652 6.946 6.946 0 00-.409-1.363 7.64 7.64 0 00-.315-.665 6.105 6.105 0 00-1.058-1.443 3.349 3.349 0 00-.25-.23c-.615.577-1.064 1.39-1.365 2.284-.3.892-.458 1.88-.475 2.802-.004.184.005.372.024.562.019.19.048.38.084.575zm-2.762 6.619a23.802 23.802 0 01-.662.332c-.443.215-.88.408-1.318.584.414-.207.83-.415 1.25-.66a23.077 23.077 0 00.995-.614c.329-.214.656-.438.98-.672.652-.47 1.287-.97 1.913-1.506a2.212 2.212 0 00-.374-.132 3.066 3.066 0 00-.445-.073 4.339 4.339 0 00-.492-.02c-.17.002-.343.013-.523.038a5.378 5.378 0 00-1.063.253 4.372 4.372 0 00-.971.483 8.55 8.55 0 00-1.996 1.907c-.567.745-1.007 1.563-1.245 2.35a2.839 2.839 0 00.471.081c.166.016.339.018.518.01a6.121 6.121 0 001.395-.231 7.617 7.617 0 001.367-.51c.17-.082.331-.17.484-.263a8.572 8.572 0 001.809-1.478c.532-.578.967-1.23 1.216-1.93a27.236 27.236 0 01-3.309 2.05zm-2.174-8.326c.157.323.334.618.518.869.093.125.187.239.282.34.095.104.19.194.285.268.08-.385.148-.771.2-1.16.053-.387.088-.77.108-1.158.038-.773.01-1.553-.097-2.33a11.747 11.747 0 00-.305-1.421 11.93 11.93 0 01.653 2.944c.097.999.065 2.03-.078 3.052.974-1.011 1.513-2.555 1.432-4.09a4.294 4.294 0 00-.068-.565 5.607 5.607 0 00-.145-.59 6.729 6.729 0 00-.5-1.21c-.419-.778-1.003-1.51-1.663-1.96-.51.606-.853 1.413-1.052 2.284-.2.87-.257 1.801-.185 2.663.057.694.299 1.43.615 2.064zm.638 3.196c-.74.71-1.5 1.34-2.286 1.912a18.92 18.92 0 01-2.394 1.475 17.27 17.27 0 001.133-.748 19.48 19.48 0 001.729-1.427 24.23 24.23 0 001.613-1.649 2.115 2.115 0 00-.368-.076 3.175 3.175 0 00-.428-.014 4.76 4.76 0 00-.956.135c-.663.169-1.337.482-1.849.908a8.258 8.258 0 00-1.706 1.991c-.464.754-.797 1.566-.934 2.336.617.098 1.343-.005 2.072-.247a6.952 6.952 0 001.536-.716c.155-.098.298-.198.433-.303 1.136-.893 2.123-2.2 2.406-3.577zm-6.296-6.241c.125.32.281.623.452.913.171.287.359.549.552.767.192.22.392.393.58.517.086-.738.12-1.468.095-2.195a12.442 12.442 0 00-.262-2.169 11.41 11.41 0 00-.377-1.3c.188.43.35.865.485 1.317a12.293 12.293 0 01.49 2.786c.03.48.033.963.011 1.45.817-1.038 1.176-2.538.986-3.962-.09-.667-.384-1.432-.82-2.133a5.947 5.947 0 00-.747-.963 4.163 4.163 0 00-.892-.724c-.428.609-.695 1.39-.825 2.22a8.322 8.322 0 00.002 2.51c.05.32.145.648.27.967zm.352 4.893c-.332.332-.674.65-1.021.947a16.144 16.144 0 01-2.166 1.564c.345-.246.691-.5 1.025-.785a16.678 16.678 0 001.522-1.475c.483-.529.943-1.096 1.376-1.686a2.347 2.347 0 00-.758-.014 4.507 4.507 0 00-.89.206c-.303.1-.612.244-.897.41a4.14 4.14 0 00-.781.583 7.394 7.394 0 00-.805.92 8.037 8.037 0 00-.666 1.065c-.387.74-.644 1.526-.71 2.26.306.025.628.01.966-.056a5.611 5.611 0 001.025-.31c.675-.267 1.33-.666 1.807-1.108 1.005-.93 1.804-2.246 1.942-3.565-.314.365-.638.714-.969 1.044zm-5.826-7.907c.026.194.058.385.097.572.125.595.419 1.206.77 1.716.177.253.367.488.559.682.192.194.387.348.572.448.033-.693.021-1.38-.043-2.059-.032-.34-.077-.678-.137-1.013a11.41 11.41 0 00-.223-.993c-.112-.41-.257-.803-.413-1.194.778 1.555 1.179 3.304 1.222 5.121.697-1.028.93-2.452.674-3.76a4.554 4.554 0 00-.314-.968 5.737 5.737 0 00-.551-.97 5.67 5.67 0 00-.732-.853 4.523 4.523 0 00-.414-.35 3.399 3.399 0 00-.437-.271c-.365.593-.576 1.338-.657 2.12a7.517 7.517 0 00.028 1.773v-.001zm-1.848 8.548c.314-.248.626-.503.926-.788a14.864 14.864 0 001.35-1.47c.422-.522.817-1.078 1.186-1.661a2.378 2.378 0 00-.71.033 3.942 3.942 0 00-.825.246c-.562.233-1.119.587-1.523 1.021a6.7 6.7 0 00-.71.905c-.217.327-.41.675-.573 1.03-.325.713-.527 1.461-.548 2.152.147.007.299 0 .454-.017a3.65 3.65 0 00.47-.082 5.12 5.12 0 00.962-.34 6.31 6.31 0 00.903-.512 4.88 4.88 0 00.748-.626c.897-.935 1.555-2.223 1.596-3.462-1.086 1.454-2.334 2.653-3.706 3.571zm-2.438-8.349a4.08 4.08 0 00.878 1.404c.175.174.356.31.527.397a20.035 20.035 0 00-.052-1.906 17.278 17.278 0 00-.232-1.845 17.48 17.48 0 00-.247-1.093 17.35 17.35 0 01.328 1.096 18.78 18.78 0 01.567 3.604c.592-.986.722-2.336.54-3.522a5 5 0 00-.222-.866 6.073 6.073 0 00-.372-.865 5.369 5.369 0 00-.484-.76 2.94 2.94 0 00-.568-.56c-.345.537-.604 1.21-.755 1.926a6.796 6.796 0 00-.113 2.161c.032.275.104.555.205.828zm-.318 5.138a9.69 9.69 0 01-1.503 1.087 9.53 9.53 0 01-.547.29c.341-.205.673-.417.987-.67.502-.403.953-.85 1.36-1.334.41-.49.776-1.015 1.105-1.57a2.411 2.411 0 00-.68.045c-.25.043-.52.117-.793.218a5.757 5.757 0 00-.81.373c-.26.146-.506.314-.717.503a7.295 7.295 0 00-1.396 1.688c-.373.63-.624 1.307-.656 1.964.331.063.692.066 1.055.03a4.94 4.94 0 001.079-.227c.35-.115.683-.261.981-.43.3-.17.564-.368.777-.573.904-.87 1.433-2.104 1.409-3.27a10.487 10.487 0 01-1.652 1.876zm-3.186-5.318a2 2 0 00.442.432c.082-.593.138-1.187.16-1.77a15.761 15.761 0 00-.024-1.726 13.497 13.497 0 00-.122-1.036 13.555 13.555 0 01.267 1.592 15.125 15.125 0 01.102 1.684c.003.385-.006.77-.03 1.163.659-.845.93-2.067.885-3.18a4.55 4.55 0 00-.116-.833 5.403 5.403 0 00-.116-.424 7.182 7.182 0 00-.147-.416 4.404 4.404 0 00-.38-.76 2.681 2.681 0 00-.48-.584c-.376.459-.683 1.054-.893 1.698a6.391 6.391 0 00-.32 1.985c.003.516.154 1.064.381 1.542.113.238.25.45.391.633zm-.608 2.596a9.658 9.658 0 01-1.378 1.027 8.962 8.962 0 01-1.543.741c.335-.155.662-.32.974-.516a8.988 8.988 0 00.722-.509c.232-.181.455-.374.669-.576.427-.403.82-.842 1.185-1.316a2.25 2.25 0 00-.628-.041 4.491 4.491 0 00-.755.119c-.52.12-1.067.343-1.494.645a6.625 6.625 0 00-1.453 1.411c-.407.544-.707 1.143-.805 1.743.298.084.62.133.954.134a5.034 5.034 0 001.491-.226c.158-.05.31-.107.456-.17.29-.126.552-.275.768-.44.922-.705 1.553-1.784 1.66-2.855-.261.293-.537.573-.823.83zm-2.986-4.113a15.08 15.08 0 00.46-3.195c.01-.329-.003-.648-.018-.963.041.32.07.648.086.983a14.66 14.66 0 01-.196 3.13c.689-.71 1.058-1.798 1.126-2.833.03-.49-.048-1.05-.195-1.576a4.307 4.307 0 00-.283-.737 2.371 2.371 0 00-.39-.586c-.782.768-1.346 2.069-1.457 3.262-.047.477.04.994.205 1.453.161.462.41.846.662 1.061zm-.343 1.205a9.383 9.383 0 01-1.727 1.24 8.337 8.337 0 01-1.949.773c.32-.11.636-.231.94-.382.973-.478 1.832-1.157 2.592-1.948-.317-.114-.785-.125-1.274-.066a4.086 4.086 0 00-1.43.447c-1.048.594-2.07 1.6-2.367 2.679.263.105.555.175.857.212.304.035.62.031.927.001.613-.057 1.203-.25 1.63-.51.908-.549 1.597-1.477 1.8-2.446zm-3.757-4.468c.054.216.125.422.212.598.088.175.187.324.293.433.173-.476.32-.953.438-1.43.12-.478.215-.96.277-1.437.04-.3.055-.588.073-.88.014.595-.016 1.207-.099 1.836a13.022 13.022 0 01-.382 1.9c.692-.574 1.135-1.536 1.29-2.47a3.7 3.7 0 00.042-.708 4.854 4.854 0 00-.075-.75 4.12 4.12 0 00-.19-.698 2.172 2.172 0 00-.304-.57c-.783.626-1.416 1.756-1.627 2.832a2.856 2.856 0 00-.048.673c.011.227.046.455.1.671zm.08 2.095a8.632 8.632 0 01-1.69.968 7.589 7.589 0 01-1.845.517c.3-.067.6-.151.891-.259a7.77 7.77 0 001.332-.649 9.705 9.705 0 001.21-.88 1.836 1.836 0 00-.513-.141 3.63 3.63 0 00-.64-.04 4.118 4.118 0 00-.693.077 3.12 3.12 0 00-.652.195c-1.01.442-2.036 1.262-2.405 2.216.23.121.49.212.762.274.068.015.137.03.206.041a4.219 4.219 0 00.637.048c.283 0 .561-.025.821-.078.262-.054.503-.133.71-.231.879-.418 1.59-1.19 1.87-2.058zm-2.942-3.919c.062.166.138.31.224.419.2-.413.378-.83.53-1.248.156-.422.287-.846.39-1.27.065-.267.105-.525.151-.787a11.024 11.024 0 01-.267 1.646 12.22 12.22 0 01-.525 1.679c.679-.452 1.17-1.278 1.398-2.105a4.295 4.295 0 00.111-1.317c-.037-.448-.129-.882-.316-1.19-.767.49-1.45 1.444-1.747 2.395a2.662 2.662 0 00-.11.601 3.199 3.199 0 00.16 1.177zM9.9 14.53a7.72 7.72 0 01-1.62.71 6.805 6.805 0 01-1.718.283c.277-.03.558-.076.83-.144.44-.111.86-.264 1.266-.453.408-.193.8-.421 1.178-.677a1.692 1.692 0 00-.45-.178 3.136 3.136 0 00-.575-.1 3.7 3.7 0 00-.634.001 2.79 2.79 0 00-.608.11c-.956.298-1.964.934-2.39 1.76.397.266.907.44 1.422.493.257.029.511.033.75.012a2.83 2.83 0 00.665-.14c.835-.291 1.55-.92 1.884-1.676zm-2.404-4.417c.003.181.024.357.06.514.036.156.09.292.155.398A12.063 12.063 0 008.8 8.879c.087-.229.151-.454.223-.68a11.338 11.338 0 01-1.063 2.873c.652-.333 1.175-1.02 1.466-1.73a3.902 3.902 0 00.244-1.157c.016-.4-.014-.792-.142-1.081-.736.352-1.455 1.122-1.824 1.934-.074.162-.129.34-.164.524-.033.182-.047.37-.043.55zm-.311 1.681a6.77 6.77 0 01-1.52.46 5.999 5.999 0 01-1.571.057 5.22 5.22 0 00.76-.033c.406-.05.799-.14 1.18-.264a7.72 7.72 0 001.124-.478 1.597 1.597 0 00-.385-.207 2.847 2.847 0 00-.503-.152 3.377 3.377 0 00-.567-.07 2.53 2.53 0 00-.555.029c-.888.156-1.86.604-2.329 1.296.33.288.77.507 1.228.613.228.056.456.089.673.098a2.47 2.47 0 00.61-.052c.778-.17 1.48-.656 1.856-1.297zM5.796 6.592a2.057 2.057 0 00-.324.91c-.02.16-.024.316-.013.459.01.143.045.266.089.368.237-.278.455-.56.661-.851.207-.292.396-.588.565-.889.107-.188.191-.374.286-.561l-.121.296a9.976 9.976 0 01-.434.894A10.425 10.425 0 015.76 8.4c.613-.212 1.154-.753 1.499-1.336.082-.139.149-.294.214-.461.064-.166.115-.34.152-.511.067-.343.102-.68.032-.94-.69.214-1.428.78-1.861 1.44zM3.201 9.848c.71-.048 1.385-.391 1.791-.908-.23.063-.462.112-.695.148a5.097 5.097 0 01-1.4.026 5.305 5.305 0 01-.524-.087 4.449 4.449 0 01-.172-.045c.221.044.45.07.677.078a5.36 5.36 0 001.073-.074c.353-.06.704-.157 1.047-.277a1.554 1.554 0 00-.313-.232 2.585 2.585 0 00-.424-.2 3.201 3.201 0 00-.491-.137 2.276 2.276 0 00-.493-.052c-.802.013-1.72.263-2.22.811a2.62 2.62 0 001.015.731 3.1 3.1 0 00.585.18c.19.04.378.048.545.038zm1.114-4.591a9.837 9.837 0 00.973-.978c.06-.07.117-.14.172-.212l.171-.21a138.534 138.534 0 01-.32.453 11.402 11.402 0 01-1.183 1.347c.56-.089 1.106-.472 1.492-.91a3.146 3.146 0 00.477-.755c.03-.068.057-.136.08-.203.027-.067.05-.133.068-.197a1.11 1.11 0 00.05-.36c-.626.07-1.358.412-1.842.895-.192.19-.35.455-.43.718-.043.132-.07.265-.084.389a.881.881 0 00.016.33c.123-.1.243-.203.36-.306v-.001zM1.706 6.499c.622.077 1.255-.116 1.681-.498a4.605 4.605 0 01-1.234-.048 4.51 4.51 0 01-.894-.26 3.305 3.305 0 01-.284-.135c.093.04.186.076.28.11.096.031.192.06.29.083a4.593 4.593 0 001.408.108c.158-.012.316-.031.473-.056a.987.987 0 00-.103-.124 1.539 1.539 0 00-.129-.127 2.376 2.376 0 00-.335-.243c-.255-.149-.537-.283-.814-.338C1.353 4.838.518 4.878 0 5.265c.086.163.2.32.328.463.064.072.133.14.205.205a2.734 2.734 0 00.71.437c.159.067.315.112.463.128zm1.265-3.542c.051-.113.093-.242.122-.378a1.797 1.797 0 00-.013-.84C2.904 1.073 2.443.403 1.937.022c-.06.092-.104.206-.136.335a2.078 2.078 0 00-.04.205 3.133 3.133 0 00.003 1.111c.115.578.395 1.188.834 1.552a11.664 11.664 0 01-.349-1.768 7.978 7.978 0 01-.026-.28L2.2.902l.042.27c.013.089.027.18.044.27a10.091 10.091 0 00.351 1.344c.049.149.1.298.157.448a.87.87 0 00.178-.277z"/><path d="M52.871 33.839c1.947-1.806 4.137-3.345 6.44-4.686a49.174 49.174 0 013.539-1.864l.45-.217.456-.208c.304-.138.606-.28.914-.41l.92-.398.927-.38.232-.095.233-.09.468-.182c.311-.12.622-.243.937-.356l.941-.345.947-.33.474-.164.477-.156.953-.313.959-.297.479-.15.481-.14.964-.283c.322-.095.648-.188.97-.29.645-.2 1.285-.418 1.919-.65a40.96 40.96 0 0010.626-5.826 35.956 35.956 0 003.084-2.638 30.326 30.326 0 002.74-2.998 23.94 23.94 0 002.26-3.38c.324-.596.62-1.208.882-1.835.258-.628.482-1.27.663-1.925-.193.651-.427 1.29-.696 1.911a19.718 19.718 0 01-.911 1.815 23.827 23.827 0 01-2.308 3.324 30.12 30.12 0 01-2.775 2.931 35.581 35.581 0 01-3.107 2.565 40.3 40.3 0 01-6.91 4.079 40.468 40.468 0 01-5.618 2.11c-.32.095-.64.181-.963.27l-.973.266-.487.133-.485.14-.97.282-.964.297-.483.149-.48.156-.96.315-.956.33c-.32.108-.635.226-.952.342l-.475.175-.237.087-.236.091-.944.367-.938.384c-.313.126-.621.265-.932.399l-.465.202-.46.211a49.982 49.982 0 00-3.631 1.828c-2.37 1.323-4.644 2.857-6.69 4.686a29.275 29.275 0 00-1.7 1.641 29.275 29.275 0 00-1.7-1.64c-2.046-1.83-4.32-3.364-6.69-4.687a49.9 49.9 0 00-3.63-1.828l-.461-.211-.465-.202c-.31-.134-.619-.273-.932-.399l-.938-.384-.944-.366-.236-.092-.237-.087-.475-.175c-.317-.116-.633-.234-.952-.342l-.955-.33-.96-.315-.481-.156-.483-.149-.965-.297-.97-.281-.484-.141-.487-.133-.973-.267c-.323-.088-.643-.174-.963-.268a40.468 40.468 0 01-5.617-2.111 40.312 40.312 0 01-6.911-4.08 35.583 35.583 0 01-3.107-2.564 30.122 30.122 0 01-2.776-2.931 23.802 23.802 0 01-2.307-3.324 19.607 19.607 0 01-.911-1.815c-.27-.622-.503-1.26-.696-1.911.181.655.405 1.297.663 1.925.262.627.558 1.24.883 1.836a23.936 23.936 0 002.26 3.38 30.32 30.32 0 002.74 2.997 35.87 35.87 0 003.083 2.638 40.937 40.937 0 0012.545 6.476c.322.102.648.195.97.29l.963.282.482.142.479.149.958.297.954.313.476.156.474.164.948.33.941.345c.315.113.626.236.937.356l.468.182.233.09.232.096.927.38.92.396c.308.13.61.273.913.411l.456.208.451.217a49.171 49.171 0 013.54 1.864c2.3 1.341 4.491 2.88 6.439 4.686a28.393 28.393 0 011.652 1.658 29.004 29.004 0 00-2.91 3.86l.977.621a27.88 27.88 0 012.652-3.67 27.89 27.89 0 012.651 3.67l.977-.62a29.013 29.013 0 00-2.91-3.861 28.36 28.36 0 011.653-1.658z"/><path d="M53.206 28.602a5.31 5.31 0 001.44 1.77 12.81 12.81 0 01-.488-3.206 12.439 12.439 0 01.035-1.216 12.219 12.219 0 01.337-2.006 11.865 11.865 0 00-.176 1.559 11.788 11.788 0 00.024 1.248c.03.414.081.824.15 1.23.138.808.357 1.611.636 2.396.09-.092.178-.2.263-.323a4.17 4.17 0 00.252-.4c.081-.146.159-.302.232-.468.073-.166.14-.343.206-.519a7.248 7.248 0 00.393-1.699c.019-.19.027-.377.024-.561a9.56 9.56 0 00-.475-2.802c-.302-.895-.75-1.708-1.365-2.284-.085.07-.169.147-.25.23a6.25 6.25 0 00-1.059 1.444 7.54 7.54 0 00-.446 1.001 6.974 6.974 0 00-.278 1.026 5.84 5.84 0 00-.087.651 4.6 4.6 0 00-.004.611c.052.82.276 1.616.635 2.318h.001zm6.693 3.574a4.187 4.187 0 00-.971-.483 5.38 5.38 0 00-1.064-.253 4.484 4.484 0 00-1.015-.018 3.114 3.114 0 00-.445.074 2.23 2.23 0 00-.373.131c.626.537 1.26 1.037 1.912 1.507a25.526 25.526 0 001.976 1.286c.42.244.835.453 1.25.659a20.718 20.718 0 01-1.652-.748 22.723 22.723 0 01-.99-.525 27.24 27.24 0 01-2.647-1.693c.249.699.683 1.352 1.216 1.93a8.578 8.578 0 001.809 1.477c.152.094.314.181.484.264a7.418 7.418 0 001.367.51 6.476 6.476 0 00.85.18c.185.026.363.04.544.05.18.009.353.007.518-.009a2.823 2.823 0 00.471-.08c-.238-.788-.677-1.606-1.245-2.352a8.558 8.558 0 00-1.995-1.906zm-.182-7.988c.047-.501.125-1 .233-1.495.11-.49.25-.972.421-1.449-.126.47-.238.94-.305 1.422a12.47 12.47 0 00-.097 2.33c.02.387.055.771.107 1.159.053.387.12.774.201 1.16.095-.075.19-.165.285-.269a3.72 3.72 0 00.282-.34 5.64 5.64 0 00.518-.869c.316-.635.558-1.37.615-2.064a8.843 8.843 0 00-.184-2.663c-.2-.87-.544-1.678-1.053-2.284-.66.45-1.244 1.182-1.664 1.96-.21.397-.378.808-.5 1.21-.06.2-.108.397-.144.59a4.346 4.346 0 00-.068.564c-.08 1.536.458 3.08 1.432 4.091a13.135 13.135 0 01-.078-3.052zm4.813 5.361c-.512-.426-1.186-.74-1.849-.908a4.676 4.676 0 00-.956-.135c-.15-.004-.294 0-.428.014a2.11 2.11 0 00-.368.077 23.93 23.93 0 001.613 1.648c.559.516 1.133.991 1.729 1.427.374.274.755.514 1.133.748a18.616 18.616 0 01-2.394-1.475 21.782 21.782 0 01-2.286-1.912c.282 1.377 1.27 2.684 2.405 3.576.135.106.278.206.433.304a6.983 6.983 0 001.536.716c.73.242 1.455.345 2.072.247-.136-.77-.47-1.582-.933-2.336a8.267 8.267 0 00-1.707-1.991zm.474-6.121a12.404 12.404 0 01.491-2.786c.134-.452.296-.886.484-1.317-.146.427-.28.855-.376 1.3a12.435 12.435 0 00-.262 2.169c-.025.727.009 1.456.094 2.195.19-.124.388-.297.58-.517.194-.219.382-.48.553-.767.17-.29.327-.593.452-.913.125-.318.22-.646.27-.967a8.309 8.309 0 00.002-2.51c-.13-.83-.398-1.611-.826-2.22-.313.18-.615.437-.891.724a5.94 5.94 0 00-.747.963c-.436.701-.73 1.466-.82 2.134-.19 1.424.168 2.923.986 3.96a13.72 13.72 0 01.01-1.449zm5.059 4.927a7.372 7.372 0 00-.805-.92 4.126 4.126 0 00-.78-.582 4.83 4.83 0 00-.898-.41 4.5 4.5 0 00-.89-.207 2.343 2.343 0 00-.758.014c.433.59.893 1.157 1.376 1.687.483.53.99 1.022 1.522 1.474.334.285.68.54 1.025.786a16.18 16.18 0 01-2.166-1.565 18.675 18.675 0 01-1.99-1.99c.138 1.318.938 2.635 1.942 3.565.478.441 1.133.84 1.807 1.109.339.135.689.245 1.026.308.338.066.66.082.966.056-.066-.733-.324-1.519-.71-2.259a8.057 8.057 0 00-.667-1.066zm1.249-10.418c-.155.39-.3.784-.412 1.194-.09.328-.164.657-.224.993-.06.335-.105.673-.137 1.013-.064.68-.076 1.367-.043 2.059.185-.1.38-.254.572-.448a5.19 5.19 0 00.559-.682c.352-.51.645-1.121.77-1.716a7.44 7.44 0 00.151-1.159 7.515 7.515 0 00-.026-1.185c-.082-.782-.293-1.528-.658-2.121a3.466 3.466 0 00-.436.271 4.476 4.476 0 00-.415.35 5.674 5.674 0 00-.731.853c-.217.307-.404.64-.55.97-.148.33-.256.66-.316.968-.256 1.308-.022 2.732.674 3.76.044-1.817.445-3.566 1.222-5.12zm3.337 8.675a7.327 7.327 0 00-.341-.474 6.584 6.584 0 00-.37-.43c-.404-.435-.96-.789-1.523-1.022a3.94 3.94 0 00-.823-.246 2.379 2.379 0 00-.712-.033c.37.583.765 1.14 1.187 1.662a15.355 15.355 0 001.35 1.47c.3.284.612.539.926.787-1.372-.918-2.62-2.117-3.707-3.571.04 1.239.7 2.527 1.597 3.462.212.221.466.433.747.626.28.191.585.364.903.512.318.147.643.264.962.34a3.654 3.654 0 00.924.1c-.02-.692-.222-1.44-.548-2.152a7.55 7.55 0 00-.573-1.03zm.669-7.428a16.72 16.72 0 01.588-2.25c-.09.357-.178.722-.247 1.093-.11.6-.186 1.216-.232 1.845-.048.623-.065 1.26-.052 1.906a2.19 2.19 0 00.528-.397c.174-.179.343-.394.494-.632a4.44 4.44 0 00.21-.37c.065-.13.123-.266.174-.402.101-.272.172-.553.204-.828a6.796 6.796 0 00-.112-2.16c-.151-.716-.41-1.39-.756-1.927-.2.147-.391.334-.568.56a5.414 5.414 0 00-.483.76 6.059 6.059 0 00-.373.865 4.99 4.99 0 00-.222.866c-.18 1.186-.051 2.536.54 3.522.05-.85.156-1.666.308-2.45h-.001zm3.378 4.873a4.047 4.047 0 00-.718-.503 5.484 5.484 0 00-.4-.201 5.563 5.563 0 00-.41-.171 4.515 4.515 0 00-.793-.218 2.41 2.41 0 00-.68-.045c.33.554.695 1.08 1.105 1.57.408.483.859.93 1.36 1.333.314.253.646.466.988.67a9.469 9.469 0 01-.548-.29 9.668 9.668 0 01-1.503-1.086 10.494 10.494 0 01-1.65-1.876c-.025 1.165.504 2.4 1.408 3.27.213.205.478.402.777.573.297.168.63.315.981.43a4.91 4.91 0 001.079.227c.363.036.724.033 1.055-.03-.033-.657-.284-1.335-.656-1.965a7.3 7.3 0 00-1.396-1.688zm.763-5.084a15.93 15.93 0 01.172-2.225c.053-.36.118-.71.196-1.051-.05.338-.097.68-.121 1.036a16.025 16.025 0 00-.025 1.727c.023.582.078 1.175.16 1.769.15-.1.3-.25.442-.432.143-.183.278-.395.392-.633.226-.478.377-1.026.38-1.542a6.39 6.39 0 00-.32-1.985c-.21-.644-.516-1.24-.893-1.698a2.685 2.685 0 00-.48.585 4.408 4.408 0 00-.38.759 5.537 5.537 0 00-.263.84 4.524 4.524 0 00-.115.832c-.046 1.114.226 2.336.884 3.18a17.212 17.212 0 01-.03-1.162zm3.681 2.994c-.427-.302-.974-.524-1.495-.645a4.467 4.467 0 00-.754-.119 2.24 2.24 0 00-.628.04c.366.475.758.914 1.185 1.318a9.656 9.656 0 001.024.84c.12.085.242.166.367.244.312.196.639.36.974.517a8.956 8.956 0 01-1.543-.742 9.549 9.549 0 01-2.2-1.856c.106 1.07.737 2.15 1.659 2.856.216.164.477.313.768.44a5.002 5.002 0 00.941.295c.33.066.67.102 1.005.1.335-.001.657-.05.955-.134-.098-.6-.398-1.199-.805-1.743a6.623 6.623 0 00-1.454-1.41zm.406-3.733a14.645 14.645 0 01-.196-3.129c.016-.335.044-.662.086-.983-.015.315-.028.634-.018.963a15.14 15.14 0 00.46 3.194c.252-.215.5-.599.662-1.061.164-.459.252-.976.205-1.453-.112-1.194-.675-2.494-1.456-3.262-.15.159-.28.359-.391.586a4.325 4.325 0 00-.283.736c-.148.528-.226 1.088-.195 1.577.067 1.035.437 2.123 1.126 2.832zm3.522 1.314a4.127 4.127 0 00-1.43-.447c-.489-.058-.957-.047-1.274.066.76.791 1.62 1.47 2.592 1.949.304.15.62.27.94.382a8.347 8.347 0 01-1.948-.773 9.377 9.377 0 01-1.727-1.24c.204.968.893 1.897 1.8 2.446.427.26 1.017.453 1.63.51.307.03.624.034.927-.002.302-.037.594-.106.858-.212-.297-1.078-1.32-2.085-2.368-2.679zm.098-3.51a13.23 13.23 0 01-.382-1.901 11.847 11.847 0 01-.098-1.836c.018.291.033.58.073.88.062.477.157.96.276 1.437.119.476.266.954.439 1.43.105-.11.205-.258.293-.433.087-.176.158-.382.212-.598a3.54 3.54 0 00.1-.671 2.859 2.859 0 00-.048-.673c-.21-1.076-.844-2.207-1.627-2.833a2.173 2.173 0 00-.303.571 3.948 3.948 0 00-.19.699 4.72 4.72 0 00-.076.749 3.71 3.71 0 00.042.708c.155.934.599 1.896 1.29 2.47zm3.332.862a3.114 3.114 0 00-.652-.195 4.104 4.104 0 00-.692-.076 3.64 3.64 0 00-.64.039 1.857 1.857 0 00-.514.142c.385.325.787.62 1.21.88.424.258.865.473 1.333.648.29.108.59.192.89.26a7.589 7.589 0 01-1.844-.518 8.662 8.662 0 01-1.69-.968c.28.868.99 1.64 1.869 2.058.207.098.448.177.71.231a4.36 4.36 0 001.458.03c.069-.012.137-.026.206-.04a3.18 3.18 0 00.762-.275c-.37-.954-1.394-1.774-2.405-2.216zm-1.558-5.374c.228.828.72 1.654 1.398 2.106a12.14 12.14 0 01-.792-3.325c.046.262.087.52.152.786.102.425.233.85.388 1.27.153.419.33.835.531 1.248.086-.108.162-.252.225-.418a3.204 3.204 0 00.16-1.177 2.617 2.617 0 00-.11-.602c-.296-.95-.98-1.905-1.747-2.394-.187.307-.28.74-.317 1.19a4.283 4.283 0 00.112 1.316zm4.49 2.556a2.792 2.792 0 00-.607-.11 3.73 3.73 0 00-.633 0 3.163 3.163 0 00-.575.099c-.176.045-.33.104-.45.177.378.257.77.485 1.177.677.406.19.826.343 1.266.454.273.068.553.114.83.144a6.804 6.804 0 01-1.718-.283 7.716 7.716 0 01-1.62-.71c.335.757 1.05 1.385 1.885 1.677.196.069.423.117.664.14.239.02.494.016.75-.013a3.176 3.176 0 001.422-.493c-.426-.825-1.433-1.462-2.39-1.76v.001zm-2.018-5.293c.041.197.094.384.163.553.29.711.813 1.398 1.466 1.73a11.394 11.394 0 01-1.063-2.873c.071.227.135.451.222.68a12.047 12.047 0 001.088 2.145 1.39 1.39 0 00.157-.396 2.82 2.82 0 00.016-1.065 2.34 2.34 0 00-.164-.524c-.37-.813-1.089-1.582-1.824-1.935-.129.29-.158.68-.142 1.081.01.201.038.406.081.604zm4.441 2.347a2.53 2.53 0 00-.555-.029 3.417 3.417 0 00-.567.07 2.86 2.86 0 00-.503.151c-.152.06-.285.13-.385.208.365.188.739.35 1.123.477.382.125.775.215 1.18.265.252.03.509.04.761.033a5.98 5.98 0 01-1.57-.058 6.767 6.767 0 01-1.522-.46c.376.641 1.079 1.128 1.857 1.298.183.04.392.06.61.05.217-.008.445-.04.673-.096a2.89 2.89 0 001.228-.614c-.468-.692-1.441-1.14-2.329-1.296zm-2.325-4.533c.065.167.132.322.214.46.344.584.886 1.125 1.5 1.337a10.59 10.59 0 01-.745-1.182 9.75 9.75 0 01-.435-.894l-.122-.296c.096.187.18.373.287.561a11.545 11.545 0 001.226 1.74c.044-.102.078-.225.088-.368a2.392 2.392 0 00-.122-.934 2.039 2.039 0 00-.214-.435c-.433-.66-1.171-1.226-1.861-1.44-.07.26-.035.597.032.94.036.171.088.345.151.511zM97.23 8.14a3.2 3.2 0 00-.49.137 2.66 2.66 0 00-.425.2c-.124.075-.235.15-.313.232.343.12.694.217 1.047.277.351.06.709.086 1.073.074.227-.008.456-.034.677-.078a4.816 4.816 0 01-.172.045 5.225 5.225 0 01-.524.087 5.056 5.056 0 01-1.4-.026 6.22 6.22 0 01-.696-.148c.407.517 1.083.86 1.791.908.167.01.356.002.546-.038a3.1 3.1 0 00.584-.18 2.616 2.616 0 001.015-.731c-.5-.548-1.418-.798-2.22-.812a2.274 2.274 0 00-.493.053zm-2.407-4.35a3.134 3.134 0 00.557.957c.386.438.931.821 1.492.91a11.434 11.434 0 01-1.183-1.347 9.703 9.703 0 01-.162-.227l-.158-.226.17.21c.056.07.113.141.173.212a9.737 9.737 0 00.973.978c.116.104.236.206.358.306a.904.904 0 00.017-.33 1.941 1.941 0 00-.084-.388 1.773 1.773 0 00-.43-.718c-.484-.484-1.216-.825-1.842-.895-.006.11.013.232.05.36.018.064.041.13.068.196v.001zm4.132 1.182c-.277.055-.56.188-.814.338a2.428 2.428 0 00-.335.242 1.577 1.577 0 00-.232.251c.157.025.315.044.473.056.157.012.312.016.469.012.312-.007.625-.045.939-.12a3.202 3.202 0 00.57-.193 3.36 3.36 0 01-.579.244 4.513 4.513 0 01-.599.152 4.62 4.62 0 01-1.234.048c.427.381 1.06.574 1.681.497a1.68 1.68 0 00.464-.129 2.727 2.727 0 00.71-.436c.071-.065.14-.134.204-.205.129-.144.242-.3.328-.463-.518-.388-1.353-.428-2.045-.294zm-.453-2.638c.086-.3.157-.599.213-.892.017-.092.03-.182.043-.271l.043-.27-.025.277a8.44 8.44 0 01-.107.854c-.07.394-.151.789-.267 1.193.439-.364.719-.974.833-1.551a3.202 3.202 0 00.035-.896 2.483 2.483 0 00-.032-.216 2.08 2.08 0 00-.04-.205 1.104 1.104 0 00-.135-.335c-.506.381-.967 1.051-1.143 1.717-.07.263-.075.572-.013.84.029.136.07.265.121.378a.865.865 0 00.178.276 11.047 11.047 0 00.296-.899z"/></g><defs><clipPath id="clip0_352_145"><path fill="#fff" transform="translate(0 .022)" d="M0 0h101v39.956H0z"/></clipPath></defs></svg>